<svg width="57" height="54" viewBox="0 0 57 54" fill="none" xmlns="http://www.w3.org/2000/svg">
<path d="M33.5731 33.4468H45.8465L47.2465 36.8068H32.1265L33.5731 33.4468Z" stroke="#BDC5D1" stroke-width="2" stroke-miterlimit="10" stroke-linecap="round" stroke-linejoin="round"/>
<g opacity="0.5">
<path opacity="0.5" d="M43.2334 5.58643H48.8801C50.3267 5.58643 51.4467 6.75309 51.4467 8.15309V38.1131" stroke="#BDC5D1" stroke-width="2" stroke-miterlimit="10" stroke-linecap="round" stroke-linejoin="round"/>
<path opacity="0.5" d="M23.8202 42.1264H3.61354C2.16688 42.1264 1.04688 40.9598 1.04688 39.5598V8.15309C1.04688 6.70643 2.21354 5.58643 3.61354 5.58643H21.4869" stroke="#BDC5D1" stroke-width="2" stroke-miterlimit="10" stroke-linecap="round" stroke-linejoin="round"/>
<path opacity="0.5" d="M1 34.2397H31.1933" stroke="#BDC5D1" stroke-width="2" stroke-miterlimit="10" stroke-linecap="round" stroke-linejoin="round"/>
<path opacity="0.5" d="M47.8999 34.2397H51.1666" stroke="#BDC5D1" stroke-width="2" stroke-miterlimit="10" stroke-linecap="round" stroke-linejoin="round"/>
<g opacity="0.5">
<path opacity="0.5" d="M19.9001 42.1265L18.4067 49.2198" stroke="#BDC5D1" stroke-width="2" stroke-miterlimit="10" stroke-linecap="round" stroke-linejoin="round"/>
</g>
<path opacity="0.5" d="M23.8201 49.2197H13.2734" stroke="#BDC5D1" stroke-width="2" stroke-miterlimit="10" stroke-linecap="round" stroke-linejoin="round"/>
</g>
<path d="M29.7466 48.2397V52.0664" stroke="#BDC5D1" stroke-width="2" stroke-miterlimit="10" stroke-linecap="round" stroke-linejoin="round"/>
<path d="M50.0933 48.2397V52.0664" stroke="#BDC5D1" stroke-width="2" stroke-miterlimit="10" stroke-linecap="round" stroke-linejoin="round"/>
<path d="M42.44 33.4468V32.4668C44.1666 31.5334 45.52 29.7601 46.2666 27.5668C47.2 27.2868 47.9 26.4468 47.9 25.3734C47.9 24.5801 47.48 23.8801 46.92 23.4601C47.2 22.5268 47.3866 21.5468 47.3866 20.5668C47.3866 15.7134 43.8866 12.1201 39.5933 12.1201C35.3 12.1201 31.8 15.7601 31.8 20.5668C31.8 21.5934 31.94 22.5734 32.2666 23.4601C31.66 23.8801 31.2866 24.5801 31.2866 25.3734C31.2866 26.4001 31.9866 27.2868 32.92 27.5668C33.6666 29.7601 35.02 31.5334 36.7466 32.4668V33.4468" stroke="#BDC5D1" stroke-width="2" stroke-miterlimit="10" stroke-linecap="round" stroke-linejoin="round"/>
<path d="M55.5996 52.0669V42.8269V42.5469C55.5996 41.1469 55.0396 39.7936 53.6863 39.0936L47.293 36.7603V36.8069" stroke="#BDC5D1" stroke-width="2" stroke-miterlimit="10" stroke-linecap="round" stroke-linejoin="round"/>
<path d="M32.2198 36.6201L25.7332 38.9535C25.2665 39.2335 24.8932 39.6068 24.5665 40.0268C24.0998 40.7268 23.8198 41.5201 23.8198 42.4068V52.0668" stroke="#BDC5D1" stroke-width="2" stroke-miterlimit="10" stroke-linecap="round" stroke-linejoin="round"/>
<path opacity="0.5" d="M45.7062 43.7603L40.3862 49.0803" stroke="#BDC5D1" stroke-width="2" stroke-miterlimit="10" stroke-linecap="round" stroke-linejoin="round"/>
<path opacity="0.5" d="M45.1 47.6333L43.3267 49.4066" stroke="#BDC5D1" stroke-width="2" stroke-miterlimit="10" stroke-linecap="round" stroke-linejoin="round"/>
<path d="M46.9197 23.5066C46.3597 25.14 44.6797 26.6333 43.6531 27.4266C43.5131 27.52 42.5331 26.26 42.5331 26.26C42.5331 26.26 41.9264 28.5 41.5997 28.5933C38.6131 29.7133 34.9264 28.3133 32.2197 23.46" stroke="#BDC5D1" stroke-width="2" stroke-miterlimit="10" stroke-linecap="round" stroke-linejoin="round"/>
<path opacity="0.5" d="M40.7463 2.56689H23.013C21.893 2.56689 21.0063 3.45356 21.0063 4.57356V11.2469C21.0063 12.3669 21.893 13.2536 23.013 13.2536H24.693V16.5202L29.873 13.2536H40.7463C41.8663 13.2536 42.753 12.3669 42.753 11.2469V4.57356C42.753 3.45356 41.8663 2.56689 40.7463 2.56689Z" fill="#BDC5D1"/>
<path d="M38.0398 0H20.3065C19.1865 0 18.2998 0.886667 18.2998 2.00667V8.68C18.2998 9.8 19.1865 10.6867 20.3065 10.6867H21.9865V13.9533L27.1665 10.6867H38.0398C39.1598 10.6867 40.0465 9.8 40.0465 8.68V2.00667C40.0465 0.886667 39.1598 0 38.0398 0Z" fill="#FF5600"/>
<path d="M34.54 3.87354H23.8066" stroke="white" stroke-width="2" stroke-miterlimit="10" stroke-linecap="round" stroke-linejoin="round"/>
<path d="M26.28 6.76709H23.8066" stroke="white" stroke-width="2" stroke-miterlimit="10" stroke-linecap="round" stroke-linejoin="round"/>
<rect x="8.2998" y="15" width="13" height="10" rx="2" fill="#BDC5D1"/>
<circle cx="16.7998" cy="19.5" r="1.5" fill="white"/>
<circle cx="12.7998" cy="19.5" r="1.5" fill="white"/>
<path d="M12.3 25H18.3C18.3 25 22.2998 26.5 23.2998 28C24.2998 29.5 25.2998 33 25.2998 33H5.2998C5.2998 33 6.2998 30 7.2998 28C8.2998 26 12.3 25 12.3 25Z" fill="#BDC5D1"/>
<rect x="22.2998" y="18" width="4" height="1" rx="0.5" transform="rotate(90 22.2998 18)" fill="#BDC5D1"/>
<path fill-rule="evenodd" clip-rule="evenodd" d="M24.2998 20.5H21.7998V19.5H24.2998V20.5Z" fill="#BDC5D1"/>
<circle cx="24.2998" cy="20" r="1" transform="rotate(90 24.2998 20)" fill="#BDC5D1"/>
<rect x="7.2998" y="22" width="4" height="1" rx="0.5" transform="rotate(-90 7.2998 22)" fill="#BDC5D1"/>
<path fill-rule="evenodd" clip-rule="evenodd" d="M5.2998 19.5H7.7998V20.5H5.2998V19.5Z" fill="#BDC5D1"/>
<circle cx="5.2998" cy="20" r="1" transform="rotate(-90 5.2998 20)" fill="#BDC5D1"/>
</svg>
