<svg width="56" height="56" viewBox="0 0 56 56" fill="none" xmlns="http://www.w3.org/2000/svg">
<g clip-path="url(#clip0)">
<path opacity="0.5" d="M52.3132 3.91992H10.5932C9.00658 3.91992 7.74658 5.22659 7.74658 6.76659V17.6866C7.74658 19.2733 9.05325 20.5333 10.5932 20.5333H12.9732V25.1999L20.2999 20.5333H26.6466L31.4533 25.3399L36.3066 20.5333H42.6533L49.9333 25.1999V20.5333H52.3132C53.8999 20.5333 55.1599 19.2266 55.1599 17.6866V6.76659C55.1599 5.17992 53.8999 3.91992 52.3132 3.91992Z" fill="#BDC5D1"/>
<path d="M48.8601 1.21338H7.14012C5.55346 1.21338 4.29346 2.52005 4.29346 4.06005V14.98C4.29346 16.5667 5.60012 17.8267 7.14012 17.8267H9.52012V22.4934L16.8468 17.8267H23.1935L28.0001 22.68L32.8068 17.8734H39.1535L46.4801 22.54V17.8734H48.8601C50.4468 17.8734 51.7068 16.5667 51.7068 15.0267V4.06005C51.7068 2.52005 50.4468 1.21338 48.8601 1.21338Z" fill="#FF5600"/>
<path d="M49.6536 35.84C49.8403 35.28 49.9336 34.6267 49.9336 34.02C49.9336 30.94 47.7403 28.6533 45.0336 28.6533C42.3269 28.6533 40.1336 30.94 40.1336 34.02C40.1336 34.6733 40.2269 35.28 40.4136 35.84C40.0403 36.0733 39.7603 36.54 39.7603 37.0533C39.7603 37.7067 40.1803 38.2667 40.7869 38.4533C41.4869 40.5533 43.1203 42.0467 45.0336 42.0467C46.9469 42.0467 48.5803 40.5533 49.2803 38.4533C49.8869 38.2667 50.3069 37.7533 50.3069 37.0533C50.2603 36.54 50.0269 36.12 49.6536 35.84Z" stroke="#BDC5D1" stroke-width="2" stroke-miterlimit="10" stroke-linecap="round" stroke-linejoin="round"/>
<path d="M47.4135 33.1333L47.1801 31.9199C47.1801 31.9199 46.6668 31.9199 45.8268 32.6666C44.1001 34.2533 42.1401 32.9933 42.1401 32.9933" stroke="#BDC5D1" stroke-width="2" stroke-miterlimit="10" stroke-linecap="round" stroke-linejoin="round"/>
<path d="M49.2803 44.7534L53.9469 46.7134C54.8336 47.1334 55.1603 48.0201 55.1603 48.9068V49.0934V52.2668" stroke="#BDC5D1" stroke-width="2" stroke-miterlimit="10" stroke-linecap="round" stroke-linejoin="round"/>
<path d="M45.0801 45.4535L46.8534 47.5069L49.2801 44.8469L48.2534 43.0269" stroke="#FF5600" stroke-width="2" stroke-miterlimit="10" stroke-linecap="round" stroke-linejoin="round"/>
<path d="M40.8335 44.7534L36.2602 46.6201C35.9802 46.8068 35.7469 47.0401 35.5135 47.3201C35.1869 47.7401 35.0469 48.2534 35.0469 48.8134V52.2668" stroke="#BDC5D1" stroke-width="2" stroke-miterlimit="10" stroke-linecap="round" stroke-linejoin="round"/>
<path d="M45.0802 45.4535L43.2602 47.5069L40.8335 44.8469L41.8602 43.0269" stroke="#FF5600" stroke-width="2" stroke-miterlimit="10" stroke-linecap="round" stroke-linejoin="round"/>
<path d="M48.2534 43.0269L45.0801 45.4535" stroke="#FF5600" stroke-width="2" stroke-miterlimit="10" stroke-linecap="round" stroke-linejoin="round"/>
<path d="M41.8604 43.0269L45.0803 45.4535" stroke="#FF5600" stroke-width="2" stroke-miterlimit="10" stroke-linecap="round" stroke-linejoin="round"/>
<path d="M55.1604 52.2666C52.3137 53.8533 48.8604 54.7866 45.1271 54.7866C41.3937 54.7866 37.9404 53.8533 35.0938 52.2666" stroke="#BDC5D1" stroke-width="2" stroke-miterlimit="10" stroke-linecap="round" stroke-linejoin="round"/>
<path d="M32.5266 32.7599C32.7133 32.1999 32.8066 31.5466 32.8066 30.9399C32.8066 27.8599 30.6133 25.5732 27.9066 25.5732C25.2 25.5732 23.0066 27.8599 23.0066 30.9399C23.0066 31.5932 23.1 32.1999 23.2866 32.7599C22.9133 32.9932 22.6333 33.4599 22.6333 33.9732C22.6333 34.6266 23.0533 35.1866 23.66 35.3732C24.36 37.4732 25.9933 38.9666 27.9066 38.9666C29.82 38.9666 31.4533 37.4732 32.1533 35.3732C32.76 35.1866 33.18 34.6732 33.18 33.9732C33.18 33.4599 32.9 32.9932 32.5266 32.7599Z" stroke="#BDC5D1" stroke-width="2" stroke-miterlimit="10" stroke-linecap="round" stroke-linejoin="round"/>
<path d="M30.3334 30.0532L30.1001 28.8398C30.1001 28.8398 29.5867 28.8398 28.7467 29.5865C27.0201 31.1732 25.0601 29.9132 25.0601 29.9132" stroke="#BDC5D1" stroke-width="2" stroke-miterlimit="10" stroke-linecap="round" stroke-linejoin="round"/>
<path d="M32.1533 41.6733L36.82 43.6333C37.7067 44.0533 38.0333 44.94 38.0333 45.8267" stroke="#BDC5D1" stroke-width="2" stroke-miterlimit="10" stroke-linecap="round" stroke-linejoin="round"/>
<path d="M27.9536 42.3734L29.7736 44.3801L32.2003 41.7668L31.1269 39.9468" stroke="#FF5600" stroke-width="2" stroke-miterlimit="10" stroke-linecap="round" stroke-linejoin="round"/>
<path d="M23.7535 41.6733L19.1801 43.54C18.9001 43.7267 18.6668 43.96 18.4335 44.24C18.1068 44.66 17.9668 45.1733 17.9668 45.7333" stroke="#BDC5D1" stroke-width="2" stroke-miterlimit="10" stroke-linecap="round" stroke-linejoin="round"/>
<path d="M27.9537 42.3734L26.1337 44.3801L23.707 41.7668L24.7804 39.9468" stroke="#FF5600" stroke-width="2" stroke-miterlimit="10" stroke-linecap="round" stroke-linejoin="round"/>
<path d="M31.1269 39.9468L27.9536 42.3734" stroke="#FF5600" stroke-width="2" stroke-miterlimit="10" stroke-linecap="round" stroke-linejoin="round"/>
<path d="M24.7803 39.9468L27.9536 42.3734" stroke="#FF5600" stroke-width="2" stroke-miterlimit="10" stroke-linecap="round" stroke-linejoin="round"/>
<path d="M35.0937 50.4934C32.947 51.2401 30.5204 51.6601 28.0004 51.6601C25.4337 51.6601 23.0537 51.2401 20.8604 50.4468" stroke="#BDC5D1" stroke-width="2" stroke-miterlimit="10" stroke-linecap="round" stroke-linejoin="round"/>
<path d="M15.3997 35.84C15.5863 35.28 15.6797 34.6267 15.6797 34.02C15.6797 30.94 13.4863 28.6533 10.7797 28.6533C8.07301 28.6533 5.87968 30.94 5.87968 34.02C5.87968 34.6733 5.97301 35.28 6.15968 35.84C5.78635 36.0733 5.50635 36.54 5.50635 37.0533C5.50635 37.7067 5.92635 38.2667 6.53301 38.4533C7.23301 40.5533 8.86635 42.0467 10.7797 42.0467C12.693 42.0467 14.3263 40.5533 15.0263 38.4533C15.633 38.2667 16.053 37.7533 16.053 37.0533C16.053 36.54 15.773 36.12 15.3997 35.84Z" stroke="#BDC5D1" stroke-width="2" stroke-miterlimit="10" stroke-linecap="round" stroke-linejoin="round"/>
<path d="M13.2064 33.1333L12.9731 31.9199C12.9731 31.9199 12.4598 31.9199 11.6198 32.6666C9.89311 34.2533 7.93311 32.9933 7.93311 32.9933" stroke="#BDC5D1" stroke-width="2" stroke-miterlimit="10" stroke-linecap="round" stroke-linejoin="round"/>
<path d="M15.0264 44.7534L19.693 46.7134C20.5797 47.1334 20.9064 48.0201 20.9064 48.9068V49.0934V52.2668" stroke="#BDC5D1" stroke-width="2" stroke-miterlimit="10" stroke-linecap="round" stroke-linejoin="round"/>
<path d="M10.8267 45.4535L12.6467 47.5069L15.0733 44.8469L14.0467 43.0269" stroke="#FF5600" stroke-width="2" stroke-miterlimit="10" stroke-linecap="round" stroke-linejoin="round"/>
<path d="M6.62651 44.7534L2.05318 46.6201C1.77318 46.8068 1.53984 47.0401 1.30651 47.3201C0.979844 47.7401 0.839844 48.2534 0.839844 48.8134V52.2668" stroke="#BDC5D1" stroke-width="2" stroke-miterlimit="10" stroke-linecap="round" stroke-linejoin="round"/>
<path d="M10.8265 45.4535L9.05313 47.5069L6.62646 44.8469L7.65313 43.0269" stroke="#FF5600" stroke-width="2" stroke-miterlimit="10" stroke-linecap="round" stroke-linejoin="round"/>
<path d="M14.0467 43.0269L10.8267 45.4535" stroke="#FF5600" stroke-width="2" stroke-miterlimit="10" stroke-linecap="round" stroke-linejoin="round"/>
<path d="M7.65332 43.0269L10.8267 45.4535" stroke="#FF5600" stroke-width="2" stroke-miterlimit="10" stroke-linecap="round" stroke-linejoin="round"/>
<path d="M20.9065 52.2666C18.0598 53.8533 14.6065 54.7866 10.8732 54.7866C7.13984 54.7866 3.68651 53.8533 0.839844 52.2666" stroke="#BDC5D1" stroke-width="2" stroke-miterlimit="10" stroke-linecap="round" stroke-linejoin="round"/>
<path d="M28.1866 4.24658L22.96 12.0399H27.7666L27.1133 17.2666L33.04 9.33325H27.7666L28.1866 4.24658Z" stroke="white" stroke-width="2" stroke-miterlimit="10" stroke-linecap="round" stroke-linejoin="round"/>
<g opacity="0.5">
<g opacity="0.5">
<path opacity="0.5" d="M38.0801 6.81348H45.1267" stroke="white" stroke-width="2" stroke-miterlimit="10" stroke-linecap="round" stroke-linejoin="round"/>
<path opacity="0.5" d="M38.0801 9.89355H45.1267" stroke="white" stroke-width="2" stroke-miterlimit="10" stroke-linecap="round" stroke-linejoin="round"/>
<path opacity="0.5" d="M38.0801 12.9736H40.9734" stroke="white" stroke-width="2" stroke-miterlimit="10" stroke-linecap="round" stroke-linejoin="round"/>
</g>
<g opacity="0.5">
<path opacity="0.5" d="M10.8735 6.81348H17.9202" stroke="white" stroke-width="2" stroke-miterlimit="10" stroke-linecap="round" stroke-linejoin="round"/>
<path opacity="0.5" d="M10.8735 9.89355H17.9202" stroke="white" stroke-width="2" stroke-miterlimit="10" stroke-linecap="round" stroke-linejoin="round"/>
<path opacity="0.5" d="M10.8735 12.9736H13.7669" stroke="white" stroke-width="2" stroke-miterlimit="10" stroke-linecap="round" stroke-linejoin="round"/>
</g>
</g>
</g>
<defs>
<clipPath id="clip0">
<rect width="56" height="56" fill="white"/>
</clipPath>
</defs>
</svg>
