<svg width="56" height="56" viewBox="0 0 56 56" fill="none" xmlns="http://www.w3.org/2000/svg">
<path d="M7.04688 35.2798V5.13313L9.10021 3.12646L11.1069 5.13313L13.1135 3.12646L15.1202 5.13313L17.1269 3.12646L19.1335 5.13313L21.1402 3.12646L23.1469 5.13313L25.1535 3.12646L27.1602 5.13313L29.1669 3.12646L31.1735 5.13313L33.1802 3.12646L35.1869 5.13313L37.1935 3.12646L39.2002 5.13313L41.5335 3.12646L43.5869 5.13313V50.1665C43.5869 51.6598 44.8002 52.8731 46.2935 52.8731C47.7869 52.8731 49.0002 51.6598 49.0002 50.1665V6.1598H46.2935V49.6065" stroke="#BDC5D1" stroke-width="2" stroke-miterlimit="10" stroke-linecap="round" stroke-linejoin="round"/>
<path d="M46.2468 52.8735H12.1802" stroke="#BDC5D1" stroke-width="2" stroke-miterlimit="10" stroke-linecap="round" stroke-linejoin="round"/>
<g opacity="0.5">
<path opacity="0.5" d="M36.4467 20.7665H18.2934C16.3801 20.7665 14.8867 19.2265 14.8867 17.3598C14.8867 15.4465 16.4267 13.9531 18.2934 13.9531H36.4467C38.3601 13.9531 39.8534 15.4931 39.8534 17.3598C39.9001 19.2265 38.3601 20.7665 36.4467 20.7665Z" fill="#BDC5D1"/>
</g>
<path d="M34.1132 17.7333H15.9599C14.0466 17.7333 12.5532 16.1933 12.5532 14.3266C12.5532 12.4133 14.0932 10.9199 15.9599 10.9199H34.1132C36.0266 10.9199 37.5199 12.4599 37.5199 14.3266C37.5666 16.1933 36.0266 17.7333 34.1132 17.7333Z" fill="#FF5600"/>
<path d="M30.52 15.0734H19.5533C19.1333 15.0734 18.8066 14.7467 18.8066 14.3267C18.8066 13.9067 19.1333 13.5801 19.5533 13.5801H30.52C30.94 13.5801 31.2666 13.9067 31.2666 14.3267C31.2666 14.7001 30.94 15.0734 30.52 15.0734Z" fill="white"/>
<g opacity="0.5">
<path opacity="0.5" d="M1.77344 40.1333H15.4468" stroke="#BDC5D1" stroke-width="2" stroke-miterlimit="10" stroke-linecap="round" stroke-linejoin="round"/>
<path opacity="0.5" d="M1.77344 43.6333H15.4468" stroke="#BDC5D1" stroke-width="2" stroke-miterlimit="10" stroke-linecap="round" stroke-linejoin="round"/>
<path opacity="0.5" d="M1.77344 47.1802H8.5401" stroke="#BDC5D1" stroke-width="2" stroke-miterlimit="10" stroke-linecap="round" stroke-linejoin="round"/>
<path opacity="0.5" d="M12.7402 47.1802H15.4469" stroke="#BDC5D1" stroke-width="2" stroke-miterlimit="10" stroke-linecap="round" stroke-linejoin="round"/>
</g>
<path opacity="0.5" d="M25.3867 42.2798V47.9731" stroke="#BDC5D1" stroke-width="2" stroke-miterlimit="10" stroke-linecap="round" stroke-linejoin="round"/>
<path opacity="0.5" d="M29.0732 40.6465V47.9732" stroke="#BDC5D1" stroke-width="2" stroke-miterlimit="10" stroke-linecap="round" stroke-linejoin="round"/>
<path opacity="0.5" d="M32.8066 41.8599V47.9732" stroke="#BDC5D1" stroke-width="2" stroke-miterlimit="10" stroke-linecap="round" stroke-linejoin="round"/>
<path opacity="0.5" d="M36.54 38.1733V47.9733" stroke="#BDC5D1" stroke-width="2" stroke-miterlimit="10" stroke-linecap="round" stroke-linejoin="round"/>
<path d="M23.6133 40.1332L29.9599 35.2799L32.1999 37.9399L37.7533 33.2266" stroke="#FF5600" stroke-width="2" stroke-miterlimit="10" stroke-linecap="round" stroke-linejoin="round"/>
</svg>
