<svg width="56" height="56" viewBox="0 0 56 56" fill="none" xmlns="http://www.w3.org/2000/svg">
<g clip-path="url(#clip0)">
<path opacity="0.5" d="M38.3603 55.7666C45.3707 55.7666 51.0537 50.0836 51.0537 43.0732C51.0537 36.0629 45.3707 30.3799 38.3603 30.3799C31.35 30.3799 25.667 36.0629 25.667 43.0732C25.667 50.0836 31.35 55.7666 38.3603 55.7666Z" fill="#BDC5D1"/>
<path d="M33.6933 51.7998C40.7037 51.7998 46.3867 46.1168 46.3867 39.1064C46.3867 32.0961 40.7037 26.4131 33.6933 26.4131C26.683 26.4131 21 32.0961 21 39.1064C21 46.1168 26.683 51.7998 33.6933 51.7998Z" fill="#FF5600"/>
<path d="M35.6534 38.6868C36.26 38.8735 36.7267 39.2001 37.1467 39.6201C37.5667 40.0868 37.8467 40.6001 37.9867 41.1601C38.1267 41.7201 38.08 42.3735 37.8934 42.9801C37.66 43.6335 37.24 44.1935 36.6334 44.5668C36.0267 44.9401 35.3734 45.1735 34.6734 45.1735V46.6201C34.6734 46.7601 34.6267 46.9001 34.5334 46.9468C34.44 46.9935 34.3467 47.0868 34.2067 47.0868H33.2267C33.0867 47.0868 32.9467 47.0401 32.9 46.9468C32.8534 46.8535 32.76 46.7601 32.76 46.6201V45.1735C31.78 45.1735 30.8934 44.8935 30.1467 44.2868C30.0534 44.1935 30.0067 44.0535 29.96 43.9135C29.96 43.7735 30.0067 43.6335 30.1 43.5401L31.1267 42.5135C31.22 42.4668 31.3134 42.4201 31.4067 42.3735C31.5 42.3735 31.64 42.3735 31.7334 42.4668C32.0134 42.6535 32.3867 42.7468 32.76 42.7468H34.7667C35 42.7468 35.2334 42.6535 35.3734 42.4668C35.56 42.2801 35.6534 42.0935 35.6534 41.8135C35.6534 41.6268 35.6067 41.4401 35.4667 41.3001C35.3267 41.1601 35.1867 41.0201 35 40.9735L31.8734 40.1335C31.1734 39.9468 30.6134 39.5735 30.1467 39.0601C29.68 38.5468 29.4 37.9401 29.3067 37.2401C29.26 36.5868 29.4 35.9801 29.68 35.4201C29.96 34.8601 30.38 34.4401 30.8934 34.0668C31.4067 33.7401 32.0134 33.5535 32.6667 33.5535H32.7134V32.1068C32.7134 31.9668 32.76 31.8268 32.8534 31.7801C32.9467 31.7335 33.04 31.6401 33.18 31.6401H34.16C34.3 31.6401 34.44 31.6868 34.4867 31.7801C34.5334 31.8735 34.6267 31.9668 34.6267 32.1068V33.5535C35.6067 33.5535 36.4467 33.8335 37.24 34.4401C37.38 34.5335 37.4267 34.6735 37.4734 34.8135C37.4734 34.9535 37.4267 35.0935 37.3334 35.1868L36.3067 36.2601C36.2134 36.3068 36.12 36.3535 36.0267 36.4001C35.9334 36.4001 35.7934 36.4001 35.7 36.3535C35.42 36.1201 35.0467 36.0268 34.6734 36.0268H32.6667C32.4334 36.0268 32.2 36.1201 32.06 36.3068C31.8734 36.4935 31.78 36.6801 31.78 36.9601C31.78 37.1468 31.8267 37.3335 31.9667 37.4735C32.1067 37.6135 32.2467 37.7535 32.4334 37.8001L35.6534 38.6868Z" fill="white"/>
<path d="M17.9205 38.1265H3.3138C2.0538 38.1265 0.980469 37.0998 0.980469 35.7932V3.49984C0.980469 2.23984 2.00714 1.1665 3.3138 1.1665H52.7805C54.0405 1.1665 55.1138 2.19317 55.1138 3.49984V35.7932C55.1138 37.0532 54.0871 38.1265 52.7805 38.1265" stroke="#BDC5D1" stroke-width="2" stroke-miterlimit="10" stroke-linecap="round" stroke-linejoin="round"/>
<path opacity="0.5" d="M16.473 7.32644C17.272 7.32644 17.9197 6.67874 17.9197 5.87977C17.9197 5.0808 17.272 4.43311 16.473 4.43311C15.6741 4.43311 15.0264 5.0808 15.0264 5.87977C15.0264 6.67874 15.6741 7.32644 16.473 7.32644Z" stroke="#BDC5D1" stroke-width="2" stroke-miterlimit="10" stroke-linecap="round" stroke-linejoin="round"/>
<path opacity="0.5" d="M11.0131 7.32644C11.812 7.32644 12.4597 6.67874 12.4597 5.87977C12.4597 5.0808 11.812 4.43311 11.0131 4.43311C10.2141 4.43311 9.56641 5.0808 9.56641 5.87977C9.56641 6.67874 10.2141 7.32644 11.0131 7.32644Z" stroke="#BDC5D1" stroke-width="2" stroke-miterlimit="10" stroke-linecap="round" stroke-linejoin="round"/>
<path d="M5.59999 7.32644C6.39896 7.32644 7.04665 6.67874 7.04665 5.87977C7.04665 5.0808 6.39896 4.43311 5.59999 4.43311C4.80102 4.43311 4.15332 5.0808 4.15332 5.87977C4.15332 6.67874 4.80102 7.32644 5.59999 7.32644Z" stroke="#FF5600" stroke-width="2" stroke-linecap="round" stroke-linejoin="round"/>
<path d="M6.86035 29.7734L20.207 22.4467L22.6804 25.1534L33.227 18.7134L36.6337 22.6334L51.5204 10.0801" stroke="#FF5600" stroke-width="2" stroke-linecap="round" stroke-linejoin="round"/>
<path d="M47.2734 11.0134L51.5201 10.0801L50.1201 14.0934" stroke="#FF5600" stroke-width="2" stroke-linecap="round" stroke-linejoin="round"/>
<path opacity="0.5" d="M38.9668 16.2399V8.07324H41.6735V13.8132" stroke="#BDC5D1" stroke-width="2" stroke-linecap="round" stroke-linejoin="round"/>
<path opacity="0.5" d="M28.373 18.1999V11.0132H31.033V16.2399" stroke="#BDC5D1" stroke-width="2" stroke-linecap="round" stroke-linejoin="round"/>
<path opacity="0.5" d="M23.0537 21.1866V16.9399H25.7137V19.6933" stroke="#BDC5D1" stroke-width="2" stroke-linecap="round" stroke-linejoin="round"/>
<path opacity="0.5" d="M17.7334 20.2064V14.9331H20.3934V18.7131" stroke="#BDC5D1" stroke-width="2" stroke-linecap="round" stroke-linejoin="round"/>
<path opacity="0.5" d="M12.4131 23.1464V19.4131H15.0731V21.6531" stroke="#BDC5D1" stroke-width="2" stroke-linecap="round" stroke-linejoin="round"/>
<path opacity="0.5" d="M33.6934 15.6798V12.9731H36.3534V17.6865" stroke="#BDC5D1" stroke-width="2" stroke-linecap="round" stroke-linejoin="round"/>
</g>
<defs>
<clipPath id="clip0">
<rect width="56" height="56" fill="white"/>
</clipPath>
</defs>
</svg>
