<svg width="70" height="70" viewBox="0 0 70 70" fill="none" xmlns="http://www.w3.org/2000/svg">
<circle cx="35" cy="35" r="35" fill="white" fill-opacity="0.2"/>
<path class="flame-1" d="M23.4204 55.572C21.1647 53.0163 18.9092 50.3583 17.4737 47.1892C16.0383 43.8156 15.6282 39.9309 16.3459 36.2507C17.0637 32.5704 18.7041 29.0946 21.0623 26.13C20.8573 28.6857 21.78 31.3437 23.523 33.2861C22.4976 28.3791 24.1381 23.0631 27.419 19.1784C30.6999 15.2937 35.2112 12.7379 39.9275 11C37.5693 13.4535 37.2618 17.3382 38.1845 20.6096C39.1073 23.8809 41.0554 26.7434 42.7983 29.708C44.5413 32.6726 46.1817 35.7395 46.2843 39.113C47.2071 37.3752 48.2324 35.6372 48.8476 33.6949C49.4627 31.7525 49.7703 29.708 49.2577 27.7656C51.1032 30.0147 52.1285 32.2636 52.6411 35.1261C53.1538 37.9886 53.0513 40.9532 52.7437 43.8156C52.3336 46.9848 51.5134 50.2561 49.7704 52.914C47.7199 56.0832 44.4389 58.3321 40.8504 59.5589C34.4935 60.6835 28.2392 59.7634 23.4204 55.572Z" fill="white" fill-opacity="0.4"/>
<path class="flame-2" d="M30.7093 59.366C39.0362 62.5974 47.2616 52.8022 42.6919 45.2286C42.6919 45.1276 42.5904 45.1276 42.5904 45.0266C42.9966 49.1668 41.9811 52.1963 40.0516 53.9131C41.0671 51.4895 40.3563 48.662 39.1377 46.2384C37.9191 43.9159 36.1928 41.7953 34.8726 39.5736C33.5525 37.2511 32.537 34.6255 33.1463 32C30.7092 33.8177 28.9829 36.5442 28.272 39.4726C27.5611 42.401 27.9674 45.6325 29.2875 48.359C27.7643 47.2483 26.6473 45.4306 26.5457 43.5119C24.9209 45.4306 23.9055 47.9551 24.007 50.4796C24.0071 54.4179 27.155 57.9523 30.7093 59.366Z" fill="white" fill-opacity="0.7"/>
<style>.flame-1{
	animation:flame-1 1.5s ease-in infinite alternate;transform-origin: bottom center;}.flame-2{animation:flame-2  2s ease-in infinite alternate;transform-origin: bottom center;}@keyframes flame-1{0%{transform: scale(1.05) rotate(-2deg)}
	100%{transform: scale(0.95) rotate(2deg)}}@keyframes flame-2{0%{transform: scale(1.05) rotate(2deg)}100%{transform: scale(0.95) rotate(-4deg)}
}</style>
</svg>
