<svg width="65" height="46" viewBox="0 0 65 46" fill="none" xmlns="http://www.w3.org/2000/svg">
<path d="M64 4.22421V41H7V4.22421C7 1.89182 8.60996 0 10.5984 0H60.4016C62.3885 0 64 1.89182 64 4.22421Z" fill="#D0D4DA"/>
<path d="M62 6.01815V41H5V6.01815C5 3.79954 6.60996 2 8.59837 2H58.4016C60.3885 2 62 3.79954 62 6.01815Z" fill="#EFF0F3"/>
<path d="M9 37V6H58V37H9Z" fill="white"/>
<path d="M47.5005 15.989C47.1468 15.669 46.6008 15.6963 46.2808 16.05V16.05C45.9608 16.4036 45.9881 16.9497 46.3418 17.2697L47.0731 17.9314C48.3285 19.0672 47.525 21.1529 45.8321 21.1529H39.193C37.5001 21.1529 36.6966 19.0672 37.952 17.9314L38.6833 17.2697C39.037 16.9497 39.0643 16.4036 38.7443 16.05V16.05C38.4243 15.6963 37.8783 15.669 37.5246 15.989L32.5132 20.5231C31.6975 21.2612 31.3511 22.3866 31.6107 23.4556L33.8499 32.6778C34.1765 34.0229 35.381 34.97 36.7652 34.97H37.6487H47.3766H48.26C49.6442 34.97 50.8487 34.0229 51.1753 32.6778L53.4146 23.4556C53.6741 22.3866 53.3278 21.2612 52.512 20.5231L47.5005 15.989ZM41.6489 25.1724H39.0777C38.5036 25.1724 38.0181 24.7477 37.9417 24.1788V24.1788C37.8494 23.4913 38.3841 22.88 39.0777 22.88H40.5029C41.1359 22.88 41.6491 23.3932 41.6491 24.0262V25.1723C41.6491 25.1723 41.649 25.1724 41.6489 25.1724V25.1724ZM43.3761 24.0262C43.3761 23.3932 43.8892 22.88 44.5222 22.88H45.9474C46.6411 22.88 47.1757 23.4913 47.0834 24.1788V24.1788C47.007 24.7477 46.5215 25.1724 45.9474 25.1724H44.5222C43.8892 25.1724 43.3761 24.6592 43.3761 24.0262V24.0262ZM36.158 23.8736C36.2504 24.5611 35.7157 25.1724 35.022 25.1724H34.7059C34.1771 25.1724 33.7169 24.8106 33.5921 24.2966V24.2966C33.4169 23.5751 33.9635 22.88 34.7059 22.88H35.022C35.5961 22.88 36.0816 23.3047 36.158 23.8736V23.8736ZM34.5513 28.2471C34.3846 27.5608 34.9045 26.8995 35.6108 26.8995V26.8995C36.1568 26.8995 36.6187 27.3035 36.6914 27.8447L36.7253 28.0971C36.8121 28.7431 36.3097 29.3175 35.6579 29.3175V29.3175C35.161 29.3175 34.7286 28.9775 34.6114 28.4947L34.5513 28.2471ZM38.4911 28.2695C38.3937 27.5443 38.9577 26.8995 39.6893 26.8995H40.4399C41.1076 26.8995 41.6489 27.4408 41.6489 28.1085V28.1085C41.6489 28.7762 41.1076 29.3175 40.4399 29.3175H39.6893C39.0838 29.3175 38.5717 28.8696 38.4911 28.2695V28.2695ZM43.3761 28.1085C43.3761 27.4408 43.9173 26.8995 44.585 26.8995H45.3356C46.0673 26.8995 46.6313 27.5443 46.5339 28.2695V28.2695C46.4533 28.8696 45.9412 29.3175 45.3356 29.3175H44.585C43.9173 29.3175 43.3761 28.7762 43.3761 28.1085V28.1085ZM48.3336 27.8447C48.4063 27.3035 48.8681 26.8995 49.4142 26.8995V26.8995C50.1204 26.8995 50.6403 27.5608 50.4737 28.2471L50.4136 28.4947C50.2964 28.9775 49.8639 29.3175 49.367 29.3175V29.3175C48.7152 29.3175 48.2128 28.7431 48.2996 28.0971L48.3336 27.8447ZM50.0029 25.1724C49.3093 25.1724 48.7746 24.5611 48.8669 23.8736V23.8736C48.9433 23.3047 49.4289 22.88 50.0029 22.88H50.319C51.0614 22.88 51.608 23.5752 51.4328 24.2967V24.2967C51.308 24.8106 50.8478 25.1724 50.319 25.1724H50.0029ZM36.4375 33.2428C36.0424 33.2428 35.6986 32.9725 35.6054 32.5886L35.4948 32.1333C35.3602 31.5789 35.7802 31.0447 36.3508 31.0447V31.0447C36.792 31.0447 37.1651 31.371 37.2238 31.8082L37.2862 32.2725C37.3552 32.7861 36.9557 33.2428 36.4375 33.2428V33.2428ZM39.0312 32.29C38.9427 31.6308 39.4554 31.0447 40.1205 31.0447H40.5498C41.1568 31.0447 41.6489 31.5367 41.6489 32.1438V32.1438C41.6489 32.7508 41.1568 33.2428 40.5498 33.2428H40.1205C39.57 33.2428 39.1044 32.8356 39.0312 32.29V32.29ZM44.4751 33.2428C43.8681 33.2428 43.3761 32.7508 43.3761 32.1438V32.1438C43.3761 31.5367 43.8681 31.0447 44.4751 31.0447H44.9044C45.5696 31.0447 46.0823 31.6309 45.9937 32.2901V32.2901C45.9204 32.8356 45.4548 33.2428 44.9044 33.2428H44.4751ZM48.5875 33.2428C48.0692 33.2428 47.6698 32.7861 47.7388 32.2725L47.8011 31.8082C47.8599 31.371 48.233 31.0447 48.6741 31.0447V31.0447C49.2447 31.0447 49.6647 31.5789 49.5301 32.1333L49.4196 32.5886C49.3264 32.9725 48.9826 33.2428 48.5875 33.2428V33.2428Z" fill="#FF5600"/>
<path d="M26.8083 13.6948H13.7762C12.7357 13.6948 11.8921 14.5384 11.8921 15.579C11.8921 16.6196 12.7357 17.4631 13.7762 17.4631H26.8083C27.8489 17.4631 28.6924 16.6196 28.6924 15.579C28.6924 14.5384 27.8489 13.6948 26.8083 13.6948Z" fill="#D0D4DA"/>
<path d="M28.6924 19.1904H11.8921V34.685H28.6924V19.1904Z" fill="#EFF0F3"/>
<path d="M37.1218 31.0449H35.2311L35.6192 32.643L35.8021 33.2431H37.4172L37.1218 31.0449ZM41.6495 31.0449H38.8645L39.1597 33.2431H41.6495V31.0449V31.0449ZM46.1616 31.0449H43.3766V33.2431H45.8664L46.1616 31.0449ZM49.795 31.0449H47.9043L47.609 33.2431H49.2613L49.795 31.0449ZM36.565 26.8998H34.2247L34.8117 29.3177H36.8899L36.565 26.8998ZM41.6495 26.8998H38.3077L38.6326 29.3177H41.6496V26.8998H41.6495ZM46.7184 26.8998H43.3766V29.3177H46.3937L46.7184 26.8998ZM50.8016 26.8998H48.4613L48.1364 29.3177H50.2145L50.8016 26.8998ZM36.0252 22.8802H33.2488L33.8053 25.1726H36.3331L36.0252 22.8802ZM41.6495 22.8802H37.7677L38.0756 25.1726H41.6494V22.8802H41.6495ZM47.2584 22.8802H43.3766V25.1726H46.9504L47.2584 22.8802ZM51.7775 22.8802H49.0011L48.6932 25.1726H51.221L51.7775 22.8802ZM57.9532 10.2954H28.8086L32.0528 20.9404L38.1654 15.4099L39.3241 16.6905L34.3918 21.1531H50.6342L45.7018 16.6905L46.8606 15.4099L53.8361 21.7211L50.619 34.9702H47.3769H37.649H36.3282L37.0143 37.2215H57.9532V10.2954Z" fill="white"/>
<path d="M-1.29381e-06 41C-1.29381e-06 43.4714 2.00347 45.4749 4.47485 45.4749H60.5251C61.7608 45.4749 62.8788 44.974 63.6889 44.1638C64.4991 43.3552 65 42.2357 65 41H-1.29381e-06Z" fill="#BDC5D1"/>
<rect x="15" y="16" width="9.28571" height="17.5397" fill="#FF5600"/>
<circle opacity="0.5" cx="19.5794" cy="24.5794" r="2.57936" fill="white"/>
</svg>
