<svg width="57" height="55" viewBox="0 0 57 55" fill="none" xmlns="http://www.w3.org/2000/svg">
<path d="M21.3928 50.4253H35.4395V45.1053H21.3928V50.4253Z" stroke="#FF5600" stroke-width="2" stroke-miterlimit="10" stroke-linecap="round" stroke-linejoin="round"/>
<path d="M39.1268 53.5465V41.9731H17.7534V53.5465" stroke="#BDC5D1" stroke-width="2" stroke-miterlimit="10" stroke-linecap="round" stroke-linejoin="round"/>
<path d="M45.38 53.7334H11.5" stroke="#FF5600" stroke-width="2" stroke-miterlimit="10" stroke-linecap="round" stroke-linejoin="round"/>
<path opacity="0.5" d="M30.7735 9.6333L33.2469 14.72L38.8469 15.5133L34.7869 19.4333L35.7669 25.0333L30.7735 22.3733L25.7802 25.0333L26.7135 19.4333L22.7002 15.5133L28.2535 14.72L30.7735 9.6333Z" fill="#BDC5D1" stroke="#BDC5D1" stroke-width="2" stroke-miterlimit="10" stroke-linecap="round" stroke-linejoin="round"/>
<path d="M28.44 7.34668L30.9134 12.3867L36.5134 13.2267L32.5 17.1467L33.4334 22.7L28.44 20.0867L23.4467 22.7L24.38 17.1467L20.3667 13.2267L25.9667 12.3867L28.44 7.34668Z" fill="#FF5600" stroke="#FF5600" stroke-width="2" stroke-miterlimit="10" stroke-linecap="round" stroke-linejoin="round"/>
<path d="M28.44 11.6401L29.56 13.8801L32.0333 14.2068L30.2133 15.9335L30.6333 18.4068L28.44 17.2401L26.2467 18.4068L26.6667 15.9335L24.8467 14.2068L27.32 13.8801L28.44 11.6401Z" fill="white"/>
<path d="M19.9468 26.8535C20.2268 27.3202 20.6001 27.8335 21.0201 28.3002" stroke="#FF5600" stroke-width="2" stroke-miterlimit="10" stroke-linecap="round" stroke-linejoin="round"/>
<path d="M25.5935 41.9267V41.04C25.5935 38.4733 24.3801 36.0933 22.3268 34.5533C17.2401 30.68 11.9668 24.38 11.9668 14.3V1H44.3068L44.2601 14.3C44.2601 22.8867 39.2201 30.82 34.0401 34.6C31.9401 36.14 30.6801 38.5667 30.6801 41.18V41.9267" stroke="#BDC5D1" stroke-width="2" stroke-miterlimit="10" stroke-linecap="round" stroke-linejoin="round"/>
<path d="M14.8133 26.1535C5.34 26.1535 1 18.3135 1 8.70013V6.60013C1 5.71346 1.51333 4.9668 2.16667 4.9668H11.9667" stroke="#BDC5D1" stroke-width="2" stroke-miterlimit="10" stroke-linecap="round" stroke-linejoin="round"/>
<path d="M41.2734 26.1535C51.4001 26.1535 55.8801 18.3135 55.8801 8.70013V6.60013C55.8801 5.71346 55.3668 4.9668 54.7134 4.9668H44.4468" stroke="#BDC5D1" stroke-width="2" stroke-miterlimit="10" stroke-linecap="round" stroke-linejoin="round"/>
<path d="M16.1201 14.3936C16.2601 17.4736 16.8668 20.5536 18.0335 23.3069" stroke="#FF5600" stroke-width="2" stroke-miterlimit="10" stroke-linecap="round" stroke-linejoin="round"/>
</svg>
