<svg width="58" height="58" viewBox="0 0 58 58" fill="none" xmlns="http://www.w3.org/2000/svg">
<g clip-path="url(#clip0)">
<path d="M28.3722 22.4515C28.0254 22.4515 27.7448 22.1864 27.7448 21.8592V17.9519C27.7448 15.9277 25.9997 14.2809 23.8546 14.2809C21.7096 14.2809 19.9644 15.9277 19.9644 17.9519V21.8592C19.9644 22.1861 19.6835 22.4512 19.3371 22.4512C18.9904 22.4512 18.7095 22.1861 18.7095 21.8592V17.9519C18.7095 15.2745 21.0177 13.0967 23.8546 13.0967C26.6916 13.0967 28.9998 15.2748 28.9998 17.9519V21.8592C28.9998 22.1864 28.7189 22.4515 28.3722 22.4515Z" fill="#D0D4DA"/>
<path d="M15.1861 20.5806H31.5876L33.6773 40.2257H13.0967L15.1861 20.5806Z" fill="#D0D4DA"/>
<path d="M1.01983 40.1611H1V9.07987C1 7.31249 2.66199 5.67725 4.97878 5.67725H53.0212C55.338 5.67725 57 7.31249 57 9.07987V40.1611H56.9816H56.9581H56.9347H56.9115H56.8885H56.8656H56.8429H56.8203H56.7979H56.7757H56.7536H56.7316H56.7098H56.6882H56.6667H56.6454H56.6242H56.6031H56.5823H56.5615H56.541H56.5205H56.5002H56.4801H56.4601H56.4403H56.4205H56.401H56.3816H56.3623H56.3432H56.3242H56.3054H56.2867H56.2681H56.2497H56.2314H56.2133H56.1952H56.1774H56.1596H56.1421H56.1246H56.1073H56.0901H56.073H56.0561H56.0393H56.0227H56.0061H55.9897H55.9735H55.9573H55.9413H55.9254H55.9097H55.8941H55.8786H55.8632H55.8479H55.8328H55.8178H55.8029H55.7882H55.7736H55.759H55.7447H55.7304H55.7162H55.7022H55.6883H55.6745H55.6608H55.6473H55.6338H55.6205H55.6073H55.5942H55.5812H55.5683H55.5555H55.5429H55.5304H55.5179H55.5056H55.4934H55.4813H55.4693H55.4574H55.4456H55.434H55.4224H55.4109H55.3996H55.3883H55.3772H55.3661H55.3552H55.3443H55.3336H55.3229H55.3124H55.3019H55.2916H55.2813H55.2712H55.2611H55.2512H55.2413H55.2315H55.2218H55.2123H55.2028H55.1934H55.1841H55.1748H55.1657H55.1567H55.1477H55.1389H55.1301H55.1214H55.1128H55.1043H55.0958H55.0875H55.0792H55.0711H55.063H55.055H55.047H55.0392H55.0314H55.0237H55.0161H55.0086H55.0011H54.9938H54.9865H54.9792H54.9721H54.965H54.958H54.9511H54.9442H54.9375H54.9307H54.9241H54.9175H54.911H54.9046H54.8983H54.892H54.8857H54.8796H54.8735H54.8675H54.8615H54.8556H54.8498H54.844H54.8383H54.8327H54.8271H54.8216H54.8161H54.8107H54.8054H54.8001H54.7949H54.7897H54.7846H54.7795H54.7745H54.7696H54.7647H54.7599H54.7551H54.7503H54.7457H54.741H54.7365H54.7319H54.7274H54.723H54.7186H54.7143H54.71H54.7057H54.7015H54.6974H54.6933H54.6892H54.6852H54.6812H54.6773H54.6734H54.6695H54.6657H54.6619H54.6582H54.6545H54.6508H54.6472H54.6436H54.64H54.6365H54.633H54.6296H54.6262H54.6228H54.6194H54.6161H54.6128H54.6095H54.6063H54.6031H54.5999H54.5968H54.5937H54.5906H54.5875H54.5845H54.5814H54.5784H54.5755H54.5725H54.5696H54.5667H54.5638H54.5609H54.5581H54.5553H54.5525H54.5497H54.5469H54.5442H54.5414H54.5387H54.536H54.5333H54.5306H54.5279H54.5253H54.5226H54.52H54.5174H54.5148H54.5122H54.5096H54.507H54.5044H54.5019H54.4993H54.4967H54.4942H54.4916H54.4891H54.4865H54.484H54.4815H54.4789H54.4764H54.4739H54.4713H54.4688H54.4662H54.4637H54.4612H54.4586H54.4561H54.4535H54.4509H54.4484H54.4458H54.4432H54.4406H54.438H54.4354H54.4328H54.4302H54.4275H54.4249H54.4222H54.4195H54.4168H54.4141H54.4114H54.4087H54.4059H54.4032H54.4004H54.3976H54.3948H54.3919H54.3891H54.3862H54.3833H54.3804H54.3775H54.3745H54.3715H54.3685H54.3655H54.3624H54.3593H54.3562H54.3531H54.3499H54.3467H54.3435H54.3402H54.337H54.3336H54.3303H54.3269H54.3235H54.3201H54.3166H54.3131H54.3096H54.306H54.3024H54.2987H54.295H54.2913H54.2875H54.2837H54.2799H54.276H54.2721H54.2681H54.2641H54.2601H54.256H54.2518H54.2476H54.2434H54.2391H54.2348H54.2304H54.226H54.2216H54.2171H54.2125H54.2079H54.2032H54.1985H54.1937H54.1889H54.184H54.1791H54.1741H54.1691H54.164H54.1589H54.1537H54.1484H54.1431H54.1377H54.1323H54.1268H54.1212H54.1156H54.1099H54.1042H54.0984H54.0925H54.0865H54.0805H54.0745H54.0683H54.0621H54.0559H54.0496H54.0431H54.0367H54.0301H54.0235H54.0168H54.0101H54.0033H53.9964H53.9894H53.9823H53.9752H53.968H53.9608H53.9534H53.946H53.9385H53.9309H53.9232H53.9155H53.9077H53.8998H53.8918H53.8837H53.8756H53.8674H53.859H53.8506H53.8422H53.8336H53.8249H53.8162H53.8074H53.7984H53.7894H53.7803H53.7712H53.7619H53.7525H53.7431H53.7335H53.7239H53.7141H53.7043H53.6944H53.6843H53.6742H53.664H53.6537H53.6433H53.6328H53.6222H53.6114H53.6006H53.5897H53.5787H53.5676H53.5564H53.5451H53.5336H53.5221H53.5105H53.4987H53.4869H53.4749H53.4629H53.4507H53.4384H53.426H53.4135H53.4009H53.3882H53.3754H53.3624H53.3494H53.3362H53.3229H53.3095H53.296H53.2823H53.2686H53.2547H53.2407H53.2266H53.2124H53.198H53.1836H53.169H53.1543H53.1395H53.1245H53.1094H53.0942H53.0789H53.0634H53.0479H53.0321H53.0163H53.0004H52.9843H52.968H5.03196H5.01574H4.99964H4.98367H4.96783H4.95211H4.93652H4.92105H4.9057H4.89048H4.87538H4.86039H4.84553H4.83079H4.81617H4.80167H4.78728H4.77302H4.75887H4.74484H4.73092H4.71712H4.70343H4.68986H4.6764H4.66305H4.64982H4.63669H4.62368H4.61078H4.59799H4.58531H4.57273H4.56027H4.54791H4.53566H4.52351H4.51148H4.49954H4.48771H4.47599H4.46437H4.45285H4.44143H4.43011H4.4189H4.40778H4.39677H4.38585H4.37504H4.36432H4.3537H4.34317H4.33274H4.32241H4.31217H4.30203H4.29198H4.28202H4.27215H4.26238H4.2527H4.24311H4.23361H4.2242H4.21488H4.20564H4.1965H4.18744H4.17847H4.16958H4.16078H4.15207H4.14343H4.13489H4.12642H4.11804H4.10974H4.10152H4.09338H4.08532H4.07734H4.06944H4.06162H4.05387H4.04621H4.03861H4.0311H4.02366H4.01629H4.009H4.00178H3.99464H3.98756H3.98056H3.97363H3.96677H3.95998H3.95326H3.94661H3.94002H3.93351H3.92706H3.92067H3.91435H3.9081H3.90191H3.89579H3.88973H3.88373H3.87779H3.87192H3.8661H3.86035H3.85465H3.84902H3.84344H3.83792H3.83246H3.82706H3.82171H3.81641H3.81117H3.80599H3.80086H3.79578H3.79076H3.78579H3.78086H3.77599H3.77117H3.7664H3.76168H3.757H3.75238H3.7478H3.74327H3.73878H3.73434H3.72994H3.72559H3.72128H3.71702H3.71279H3.70861H3.70447H3.70037H3.69631H3.69229H3.68831H3.68436H3.68046H3.67659H3.67276H3.66896H3.6652H3.66147H3.65778H3.65412H3.65049H3.64689H3.64333H3.6398H3.6363H3.63282H3.62938H3.62597H3.62258H3.61922H3.61589H3.61258H3.6093H3.60605H3.60282H3.59961H3.59643H3.59327H3.59013H3.58701H3.58391H3.58084H3.57778H3.57474H3.57172H3.56872H3.56574H3.56277H3.55982H3.55688H3.55396H3.55105H3.54816H3.54528H3.54241H3.53955H3.53671H3.53388H3.53105H3.52824H3.52543H3.52263H3.51984H3.51706H3.51429H3.51152H3.50875H3.50599H3.50323H3.50048H3.49773H3.49499H3.49224H3.4895H3.48675H3.48401H3.48126H3.47852H3.47577H3.47302H3.47026H3.46751H3.46475H3.46198H3.45921H3.45643H3.45365H3.45085H3.44806H3.44525H3.44243H3.4396H3.43677H3.43392H3.43106H3.42819H3.4253H3.42241H3.4195H3.41657H3.41363H3.41068H3.4077H3.40471H3.40171H3.39868H3.39564H3.39258H3.3895H3.38639H3.38327H3.38013H3.37696H3.37377H3.37055H3.36732H3.36405H3.36077H3.35745H3.35412H3.35075H3.34736H3.34393H3.34048H3.337H3.33349H3.32995H3.32638H3.32278H3.31914H3.31547H3.31177H3.30803H3.30426H3.30045H3.29661H3.29273H3.28882H3.28486H3.28087H3.27684H3.27277H3.26866H3.2645H3.26031H3.25608H3.2518H3.24748H3.24311H3.23871H3.23425H3.22975H3.22521H3.22062H3.21598H3.21129H3.20655H3.20177H3.19694H3.19205H3.18712H3.18213H3.17709H3.172H3.16685H3.16165H3.1564H3.15109H3.14573H3.14031H3.13483H3.1293H3.1237H3.11805H3.11234H3.10657H3.10074H3.09485H3.0889H3.08288H3.0768H3.07066H3.06445H3.05818H3.05185H3.04544H3.03898H3.03244H3.02584H3.01917H3.01243H3.00562H2.99874H2.99179H2.98477H2.97768H2.97051H2.96327H2.95596H2.94857H2.94111H2.93358H2.92596H2.91828H2.91051H2.90267H2.89474H2.88674H2.87866H2.8705H2.86226H2.85394H2.84553H2.83704H2.82847H2.81982H2.81108H2.80226H2.79335H2.78435H2.77527H2.7661H2.75684H2.7475H2.73806H2.72854H2.71892H2.70922H2.69942H2.68953H2.67955H2.66947H2.6593H2.64904H2.63868H2.62822H2.61767H2.60702H2.59628H2.58543H2.57449H2.56345H2.55231H2.54107H2.52972H2.51828H2.50673H2.49508H2.48333H2.47147H2.45951H2.44744H2.43527H2.42299H2.4106H2.3981H2.3855H2.37279H2.35997H2.34704H2.33399H2.32084H2.30758H2.2942H2.28071H2.2671H2.25339H2.23955H2.2256H2.21154H2.19736H2.18306H2.16864H2.15411H2.13945H2.12468H2.10979H2.09477H2.07964H2.06438H2.049H2.0335H2.01787H2.00212H1.98624H1.97024H1.95411H1.93785H1.92147H1.90496H1.88832H1.87155H1.85465H1.83763H1.82047H1.80317H1.78575H1.7682H1.75051H1.73268H1.71472H1.69663H1.6784H1.66004H1.64153H1.6229H1.60412H1.5852H1.56614H1.54695H1.52761H1.50813H1.48852H1.46875H1.44885H1.4288H1.40861H1.38827H1.36779H1.34716H1.32639H1.30547H1.2844H1.26318H1.24181H1.2203H1.19863H1.17681H1.15484H1.13272H1.11045H1.08803H1.06545H1.04271H1.01983Z" stroke="#EFF0F3" stroke-width="2"/>
<mask id="path-4-inside-1" fill="white">
<path fill-rule="evenodd" clip-rule="evenodd" d="M58 40.2256V40.8163C58 43.5896 55.7463 45.8385 52.9672 45.8385H38.2983L39.2903 52.3869H41.0529C43.1146 52.3869 44.7859 54.0582 44.7859 56.1198V57.712H14.0323V56.1198C14.0323 54.0582 15.7036 52.3869 17.7666 52.3869H20.5806L21.5727 45.8385H5.03151C2.25233 45.8385 0 43.5896 0 40.8163V40.2256H58Z"/>
</mask>
<path d="M58 40.2256H60V38.2256H58V40.2256ZM38.2983 45.8385V43.8385H35.9725L36.3209 46.1381L38.2983 45.8385ZM39.2903 52.3869L37.3129 52.6864L37.5705 54.3869H39.2903V52.3869ZM44.7859 57.712V59.712H46.7859V57.712H44.7859ZM14.0323 57.712H12.0323V59.712H14.0323V57.712ZM20.5806 52.3869V54.3869H22.3005L22.5581 52.6864L20.5806 52.3869ZM21.5727 45.8385L23.5501 46.1381L23.8985 43.8385H21.5727V45.8385ZM0 40.2256V38.2256H-2V40.2256H0ZM60 40.8163V40.2256H56V40.8163H60ZM52.9672 47.8385C56.8469 47.8385 60 44.6982 60 40.8163H56C56 42.481 54.6458 43.8385 52.9672 43.8385V47.8385ZM38.2983 47.8385H52.9672V43.8385H38.2983V47.8385ZM41.2678 52.0873L40.2757 45.5389L36.3209 46.1381L37.3129 52.6864L41.2678 52.0873ZM39.2903 54.3869H41.0529V50.3869H39.2903V54.3869ZM41.0529 54.3869C42.01 54.3869 42.7859 55.1628 42.7859 56.1198H46.7859C46.7859 52.9536 44.2191 50.3869 41.0529 50.3869V54.3869ZM42.7859 56.1198V57.712H46.7859V56.1198H42.7859ZM44.7859 55.712H14.0323V59.712H44.7859V55.712ZM16.0323 57.712V56.1198H12.0323V57.712H16.0323ZM16.0323 56.1198C16.0323 55.1632 16.8077 54.3869 17.7666 54.3869V50.3869C14.5995 50.3869 12.0323 52.9532 12.0323 56.1198H16.0323ZM17.7666 54.3869H20.5806V50.3869H17.7666V54.3869ZM19.5952 45.5389L18.6032 52.0873L22.5581 52.6864L23.5501 46.1381L19.5952 45.5389ZM5.03151 47.8385H21.5727V43.8385H5.03151V47.8385ZM-2 40.8163C-2 44.6975 1.15108 47.8385 5.03151 47.8385V43.8385C3.35358 43.8385 2 42.4817 2 40.8163H-2ZM-2 40.2256V40.8163H2V40.2256H-2ZM58 38.2256H0V42.2256H58V38.2256Z" fill="#BDC5D1" mask="url(#path-4-inside-1)"/>
<path d="M10.5089 19.645H26.9104L29.0001 39.2902H8.41943L10.5089 19.645Z" fill="#FF5600"/>
<path opacity="0.5" d="M23.32 28L18 33.32" stroke="#BDC5D1" stroke-width="2" stroke-miterlimit="10" stroke-linecap="round" stroke-linejoin="round"/>
<path opacity="0.5" d="M22.7138 31.873L20.9404 33.6464" stroke="#BDC5D1" stroke-width="2" stroke-miterlimit="10" stroke-linecap="round" stroke-linejoin="round"/>
<path d="M23.6949 22.4515C23.3482 22.4515 23.0676 22.1864 23.0676 21.8592V17.9519C23.0676 15.9277 21.3225 14.2809 19.1774 14.2809C17.0323 14.2809 15.2872 15.9277 15.2872 17.9519V21.8592C15.2872 22.1861 15.0063 22.4512 14.6599 22.4512C14.3132 22.4512 14.0322 22.1861 14.0322 21.8592V17.9519C14.0322 15.2745 16.3405 13.0967 19.1774 13.0967C22.0143 13.0967 24.3225 15.2748 24.3225 17.9519V21.8592C24.3225 22.1864 24.0416 22.4515 23.6949 22.4515Z" fill="#3C3F4D"/>
<path d="M53.8974 8.55318C53.8974 13.3398 50.017 17.2196 45.2309 17.2196C40.4443 17.2196 36.5645 13.3398 36.5645 8.55318C36.5645 3.76704 40.4443 -0.113281 45.2309 -0.113281C50.017 -0.113281 53.8974 3.76704 53.8974 8.55318V8.55318Z" fill="#D0D4DA"/>
<path d="M51.0102 9.60201C51.0102 14.3886 47.1298 18.2685 42.3437 18.2685C37.5571 18.2685 33.6772 14.3886 33.6772 9.60201C33.6772 4.81587 37.5571 0.935547 42.3437 0.935547C47.1298 0.935547 51.0102 4.81587 51.0102 9.60201V9.60201Z" fill="#BDC5D1"/>
<path d="M41.6058 14.026C41.2845 14.026 40.9876 13.8517 40.8309 13.5698L38.4666 9.31423C38.229 8.88633 38.383 8.34647 38.8114 8.10884C39.2397 7.87122 39.7791 8.02521 40.0167 8.45356L41.5536 11.2192L44.9458 4.24091C45.1595 3.80062 45.6896 3.61698 46.1308 3.83115C46.5711 4.04532 46.7543 4.57589 46.5401 5.01618L42.4032 13.5269C42.2585 13.8242 41.9607 14.0163 41.6301 14.0256C41.6221 14.0256 41.6142 14.026 41.6058 14.026Z" fill="white"/>
<path d="M50.397 22.7731H41.8863C41.3969 22.7731 41 22.3762 41 21.8868C41 21.3969 41.3969 21 41.8863 21H50.397C50.8869 21 51.2834 21.3969 51.2834 21.8868C51.2834 22.3762 50.8865 22.7731 50.397 22.7731Z" fill="#FF5600"/>
<path d="M51.6239 25.7731H44.8868C44.3969 25.7731 44 25.3762 44 24.8868C44 24.3969 44.3969 24 44.8868 24H51.6239C52.1138 24 52.5103 24.3969 52.5103 24.8868C52.5103 25.3762 52.1133 25.7731 51.6239 25.7731Z" fill="#FF5600"/>
<path d="M54.8384 22C54.8384 22.5523 54.3907 23 53.8384 23C53.2861 23 52.8384 22.5523 52.8384 22C52.8384 21.4477 53.2861 21 53.8384 21C54.3907 21 54.8384 21.4477 54.8384 22Z" fill="#FF5600"/>
</g>
<defs>
<clipPath id="clip0">
<rect width="58" height="58" fill="white"/>
</clipPath>
</defs>
</svg>
