<svg width="139" height="139" viewBox="0 0 139 139" fill="none" xmlns="http://www.w3.org/2000/svg">
<circle cx="69.5" cy="69.5" r="69.5" fill="#DE4437" fill-opacity="0.1"/>
<path d="M72.6274 31C79.6598 31 85.3134 32.8529 89.588 36.5588C93.8626 40.2647 96 45.5147 96 52.3088C96 59.1716 93.7937 64.4216 89.3812 68.0588C85.0376 71.6961 79.1772 73.5833 71.8 73.7206V84.1177H58.0454V64.25H63.9403C69.5249 64.25 73.8684 63.4265 76.971 61.7794C80.0735 60.0637 81.6248 56.9412 81.6248 52.4118C81.6248 49.3922 80.763 47.0588 79.0394 45.4118C77.3157 43.6961 75.006 42.8382 72.1103 42.8382C68.9388 42.8382 66.4223 43.7647 64.5607 45.6177C62.6992 47.402 61.7685 49.7353 61.7685 52.6176H48.0138C47.8759 48.5 48.7722 44.8284 50.7027 41.6029C52.6331 38.3088 55.4599 35.7353 59.183 33.8824C62.975 31.9608 67.4564 31 72.6274 31ZM72.9376 92.8677V108H57.218V92.8677H72.9376Z" fill="#DE4437"/>
</svg>
