<svg width="57" height="52" viewBox="0 0 57 52" fill="none" xmlns="http://www.w3.org/2000/svg">
<path d="M16.3862 10.912V42.5199C16.3862 43.4081 17.1063 44.1282 17.9946 44.1282H35.8531C36.7414 44.1282 37.4615 43.4081 37.4615 42.5199V10.912C37.4615 10.0238 36.7414 9.30371 35.8531 9.30371H17.9946C17.1063 9.30383 16.3862 10.0238 16.3862 10.912Z" fill="#DEE2E8"/>
<path d="M9.67637 27H14.8374C20.1816 27 24.5139 31.3323 24.5139 36.6764V37.3157C24.5139 42.6599 20.1816 46.9922 14.8374 46.9922H10.87C11.3976 48.6204 12.5162 49.9823 13.9729 50.8254C12.9616 51.4107 11.7886 51.7472 10.5363 51.7472C6.74707 51.7472 3.67443 48.6808 3.66345 44.8942C1.4323 43.1216 0 40.3868 0 37.3158V36.6765C0 31.3323 4.33231 27 9.67637 27Z" fill="#FF5600"/>
<path d="M6.17727 38.4429C6.91888 38.4429 7.52007 37.8417 7.52007 37.1001C7.52007 36.3585 6.91888 35.7573 6.17727 35.7573C5.43566 35.7573 4.83447 36.3585 4.83447 37.1001C4.83447 37.8417 5.43566 38.4429 6.17727 38.4429Z" fill="white"/>
<path d="M12.2569 38.4429C12.9985 38.4429 13.5997 37.8417 13.5997 37.1001C13.5997 36.3585 12.9985 35.7573 12.2569 35.7573C11.5153 35.7573 10.9141 36.3585 10.9141 37.1001C10.9141 37.8417 11.5153 38.4429 12.2569 38.4429Z" fill="white"/>
<path d="M18.3365 38.4429C19.0781 38.4429 19.6793 37.8417 19.6793 37.1001C19.6793 36.3585 19.0781 35.7573 18.3365 35.7573C17.5948 35.7573 16.9937 36.3585 16.9937 37.1001C16.9937 37.8417 17.5948 38.4429 18.3365 38.4429Z" fill="white"/>
<path d="M14.8027 44.87V13.2621C14.8027 12.9264 15.075 12.6539 15.4111 12.6538C15.4111 12.6538 15.4112 12.6538 15.4112 12.6538H33.2696C33.6056 12.6538 33.878 12.9262 33.878 13.2621V44.87C33.878 45.206 33.6056 45.4783 33.2696 45.4783H15.4111C15.0751 45.4783 14.8027 45.206 14.8027 44.87Z" fill="#EFF0F3" stroke="#BDC5D1" stroke-width="2"/>
<path d="M19.1851 11.6538L20.3866 14.2635C20.5891 14.7032 21.0289 14.9849 21.513 14.9849H27.1675C27.6516 14.9849 28.0914 14.7032 28.2939 14.2635L29.4955 11.6538H19.1851Z" fill="#EFF0F3"/>
<path d="M46.7144 20.3004L47.1383 18.9922H45.7631H41.7956C37.0037 18.9922 33.1191 15.1076 33.1191 10.3157V9.67637C33.1191 4.88461 37.0037 1 41.7956 1H46.9567C51.7484 1 55.633 4.88459 55.633 9.67648V10.3158C55.633 13.0684 54.3508 15.5197 52.3476 17.1113L51.9711 17.4104L51.9697 17.8913C51.9603 21.127 49.3347 23.7472 46.0969 23.7472C45.5998 23.7472 45.1177 23.6853 44.6574 23.5689C45.5913 22.6779 46.3066 21.5592 46.7144 20.3004Z" stroke="#BDC5D1" stroke-width="2"/>
<path d="M48.8563 7.00263C47.656 6.02925 45.8829 6.22881 44.8522 7.37946L44.6173 7.64173L44.3282 7.31915C43.2709 6.13918 41.4553 6.03771 40.2725 7.09254C39.0898 8.14751 38.9881 9.95939 40.0454 11.1395L44.1179 15.6853C44.3842 15.9826 44.8502 15.9826 45.1164 15.6853L49.1889 11.1395C50.2769 9.92514 50.1378 8.04195 48.8563 7.00263Z" fill="#FF5600"/>
<path d="M53.3586 35.0754H49.7523C49.4888 35.0754 49.2751 34.8617 49.2751 34.5982V30.9919C49.2751 30.7284 49.0614 30.5146 48.7978 30.5146H45.8163C45.5528 30.5146 45.3391 30.7284 45.3391 30.9919V34.5982C45.3391 34.8617 45.1254 35.0754 44.8619 35.0754H41.2556C40.992 35.0754 40.7783 35.2891 40.7783 35.5527V38.5341C40.7783 38.7977 40.992 39.0114 41.2556 39.0114H44.8619C45.1254 39.0114 45.3391 39.2251 45.3391 39.4886V43.0949C45.3391 43.3585 45.5528 43.5722 45.8163 43.5722H48.7978C49.0614 43.5722 49.2751 43.3585 49.2751 43.0949V39.4886C49.2751 39.2251 49.4888 39.0114 49.7523 39.0114H53.3586C53.6221 39.0114 53.8358 38.7977 53.8358 38.5341V35.5527C53.8358 35.2891 53.6223 35.0754 53.3586 35.0754Z" fill="#BDC5D1"/>
<path d="M27.713 41.8306C28.2021 41.8306 28.5986 41.4341 28.5986 40.9451C28.5986 40.456 28.2021 40.0596 27.713 40.0596H21.5139C21.0249 40.0596 20.6284 40.456 20.6284 40.9451C20.6284 41.4341 21.0249 41.8306 21.5139 41.8306H27.713Z" fill="#FF5600"/>
</svg>
