<svg width="328" height="296" viewBox="0 0 328 296" fill="none" xmlns="http://www.w3.org/2000/svg">
<g opacity="0.5">
<path d="M221.808 260.781C171.803 290.64 139.189 310.916 84.2681 265.338C18.3609 210.642 -12.164 122.548 8.74617 55.5392C21.3255 15.2278 78.8618 5.78626 106.057 6.10437C148.134 -2.6772 336.086 28.6265 322.179 108.849C312.732 163.348 268.512 232.893 221.808 260.781Z" fill="#EAC8B7"/>
</g>
<path d="M206.596 32.1975C160.038 4.39662 129.671 -14.4821 78.5357 27.9548C17.1707 78.8809 -11.2504 160.904 8.21864 223.294C19.931 260.828 73.5019 269.618 98.8233 269.322C138 277.499 312.998 248.352 300.05 173.658C291.254 122.915 250.081 58.1636 206.596 32.1975Z" fill="#FF5600" fill-opacity="0.2"/>
</svg>
