<svg width="56" height="56" viewBox="0 0 56 56" fill="none" xmlns="http://www.w3.org/2000/svg">
<path d="M12.9732 17.3135C12.9732 18.0135 12.3665 18.6202 11.6665 18.6202C10.9665 18.6202 10.3599 18.0602 10.3599 17.3135C10.3599 16.6135 10.9665 16.0068 11.6665 16.0068C12.4132 16.0068 12.9732 16.5668 12.9732 17.3135Z" stroke="#FF5600" stroke-width="2" stroke-miterlimit="10" stroke-linecap="round" stroke-linejoin="round"/>
<path opacity="0.5" d="M19.1334 17.3135C19.1334 18.0135 18.5734 18.6202 17.8267 18.6202C17.1267 18.6202 16.52 18.0602 16.52 17.3135C16.52 16.6135 17.08 16.0068 17.8267 16.0068C18.5734 16.0068 19.1334 16.5668 19.1334 17.3135Z" stroke="#BDC5D1" stroke-width="2" stroke-miterlimit="10" stroke-linecap="round" stroke-linejoin="round"/>
<path opacity="0.5" d="M25.2935 17.3135C25.2935 18.0135 24.6868 18.6202 23.9868 18.6202C23.2868 18.6202 22.6802 18.0602 22.6802 17.3135C22.6802 16.6135 23.2868 16.0068 23.9868 16.0068C24.7335 16.0068 25.2935 16.5668 25.2935 17.3135Z" stroke="#BDC5D1" stroke-width="2" stroke-miterlimit="10" stroke-linecap="round" stroke-linejoin="round"/>
<path opacity="0.5" d="M49.3735 28.7935C49.7469 29.4468 50.0269 30.1468 50.2602 30.8935" stroke="#BDC5D1" stroke-width="2" stroke-miterlimit="10" stroke-linecap="round" stroke-linejoin="round"/>
<path opacity="0.5" d="M35.8398 22.4002C40.3665 21.5602 44.8465 23.1935 47.6932 26.4135" stroke="#BDC5D1" stroke-width="2" stroke-miterlimit="10" stroke-linecap="round" stroke-linejoin="round"/>
<path opacity="0.5" d="M33.6934 19.2267C34.8134 10.8734 29.2134 2.98672 20.8134 1.40005C12.1334 -0.279949 3.73338 5.46005 2.10004 14.1401C1.26004 18.6201 2.38004 23.0067 4.80671 26.4601L2.47338 33.5067L9.98671 31.08C11.48 31.92 13.1134 32.5267 14.84 32.8534C17.4067 33.3201 19.9267 33.18 22.26 32.48" stroke="#BDC5D1" stroke-width="2" stroke-miterlimit="10" stroke-linecap="round" stroke-linejoin="round"/>
<path opacity="0.5" d="M34.6735 23.5665C43.3535 21.9332 51.7535 27.6265 53.3869 36.3065C54.2269 40.7865 53.1069 45.1732 50.6802 48.6265L53.0602 55.6732L45.5469 53.2465C44.0535 54.0865 42.4202 54.6932 40.6935 55.0199C32.0135 56.6532 23.6135 50.9599 21.9802 42.2799C20.2535 33.5999 25.9935 25.2465 34.6735 23.5665Z" fill="#BDC5D1"/>
<path d="M35.1867 18.8531C43.8667 17.2198 52.2667 22.9131 53.9 31.5931C54.74 36.0731 53.62 40.4598 51.1934 43.9131L53.5734 50.9598L46.06 48.5331C44.5667 49.3731 42.9334 49.9798 41.2067 50.3065C32.5267 51.9398 24.1267 46.2465 22.4934 37.5665C20.7667 28.8865 26.5067 20.5331 35.1867 18.8531Z" fill="#FF5600"/>
<path opacity="0.5" d="M44.3335 36.0733C45.0552 36.0733 45.6402 35.4883 45.6402 34.7666C45.6402 34.045 45.0552 33.46 44.3335 33.46C43.6119 33.46 43.0269 34.045 43.0269 34.7666C43.0269 35.4883 43.6119 36.0733 44.3335 36.0733Z" stroke="white" stroke-width="2" stroke-miterlimit="10" stroke-linecap="round" stroke-linejoin="round"/>
<path opacity="0.5" d="M38.1734 36.0733C38.895 36.0733 39.48 35.4883 39.48 34.7666C39.48 34.045 38.895 33.46 38.1734 33.46C37.4517 33.46 36.8667 34.045 36.8667 34.7666C36.8667 35.4883 37.4517 36.0733 38.1734 36.0733Z" stroke="white" stroke-width="2" stroke-miterlimit="10" stroke-linecap="round" stroke-linejoin="round"/>
<path d="M32.0132 36.0733C32.7349 36.0733 33.3199 35.4883 33.3199 34.7666C33.3199 34.045 32.7349 33.46 32.0132 33.46C31.2916 33.46 30.7065 34.045 30.7065 34.7666C30.7065 35.4883 31.2916 36.0733 32.0132 36.0733Z" stroke="white" stroke-width="2" stroke-miterlimit="10" stroke-linecap="round" stroke-linejoin="round"/>
</svg>
