<svg width="616" height="170" viewBox="0 0 616 170" fill="none" xmlns="http://www.w3.org/2000/svg">
<path d="M84.75 169.5C131.556 169.5 169.5 131.556 169.5 84.75C169.5 37.9439 131.556 0 84.75 0C37.9439 0 0 37.9439 0 84.75C0 131.556 37.9439 169.5 84.75 169.5Z" fill="url(#paint0_linear)"/>
<mask id="mask0" mask-type="alpha" maskUnits="userSpaceOnUse" x="0" y="0" width="170" height="170">
<path d="M84.75 169.5C131.556 169.5 169.5 131.556 169.5 84.75C169.5 37.9439 131.556 0 84.75 0C37.9439 0 0 37.9439 0 84.75C0 131.556 37.9439 169.5 84.75 169.5Z" fill="url(#paint1_linear)"/>
</mask>
<g mask="url(#mask0)">
<path d="M199.25 110.21L118.33 38.96L29.4502 93.8L114.35 181.21L199.25 110.21Z" fill="url(#paint2_linear)"/>
</g>
<path d="M73.9996 80.62C73.037 80.4062 72.0396 80.4018 71.0752 80.6071C70.1107 80.8124 69.2016 81.2226 68.4096 81.81C67.1928 83.1274 66.1509 84.5962 65.3096 86.18C69.5558 87.0613 73.6793 88.4548 77.5896 90.33C77.8317 88.3991 77.8618 86.4475 77.6796 84.51C77.4537 83.5993 76.9962 82.7625 76.3513 82.0808C75.7065 81.3992 74.8964 80.896 73.9996 80.62Z" fill="white"/>
<path d="M126.22 57.0599C123.37 34.6999 109.7 30.2599 89.1397 39.4799C75.0497 45.9199 15.9197 67.2199 24.9997 87.7999C26.7997 91.8799 37.3897 102.86 42.8597 103.38C54.7697 104.52 48.9997 87.9999 58.7197 85.7599C60.1235 85.5279 61.5559 85.5279 62.9597 85.7599C63.9597 84.0299 65.6397 81.1899 66.9597 80.0899C68.0349 79.2623 69.2832 78.6886 70.6114 78.4115C71.9396 78.1344 73.3133 78.1612 74.6297 78.4899C75.9147 78.8932 77.0708 79.6276 77.9819 80.6194C78.8929 81.6112 79.5268 82.8254 79.8197 84.1399C80.0547 86.5616 79.9943 89.0029 79.6397 91.4099C82.0897 92.8399 83.9197 94.4099 84.4897 95.9399C85.9297 99.8799 81.2197 107.42 80.8497 111.67C79.9997 121.72 84.9997 127 94.0897 130.22C111.09 136.22 122.09 128.69 125.36 110.93C128.49 93.9999 128.41 74.1799 126.22 57.0599Z" fill="white"/>
<path d="M226.838 104.79H239.15V51.59H226.838V104.79ZM264.696 105.398C276.932 105.398 284 100.002 284 92.402C284 76.29 259.3 83.054 259.3 76.062C259.3 73.934 261.58 72.262 266.9 72.262C270.624 72.262 274.652 73.022 278.68 75.302L282.632 66.866C278.756 64.586 272.524 63.294 266.9 63.294C254.968 63.294 247.976 68.766 247.976 76.518C247.976 92.858 272.676 86.018 272.676 92.706C272.676 94.986 270.624 96.43 265.152 96.43C260.136 96.43 254.588 94.834 250.94 92.478L246.988 100.99C250.788 103.498 257.78 105.398 264.696 105.398ZM321.107 48.398V68.234C318.143 64.89 313.887 63.294 308.871 63.294C297.319 63.294 288.427 71.502 288.427 84.346C288.427 97.19 297.319 105.398 308.871 105.398C314.343 105.398 318.675 103.65 321.639 100.078V104.79H332.963V48.398H321.107ZM310.923 95.67C304.995 95.67 300.435 91.414 300.435 84.346C300.435 77.278 304.995 73.022 310.923 73.022C316.775 73.022 321.335 77.278 321.335 84.346C321.335 91.414 316.775 95.67 310.923 95.67ZM374.412 104.79H388.776L370.232 81.23L387.256 63.902H373.12L355.792 80.318V48.398H343.936V104.79H355.792V94.378L361.492 88.754L374.412 104.79ZM435.087 105.398C448.083 105.398 457.507 96.658 457.507 84.346C457.507 72.034 448.083 63.294 435.087 63.294C422.091 63.294 412.591 72.034 412.591 84.346C412.591 96.658 422.091 105.398 435.087 105.398ZM435.087 95.67C429.159 95.67 424.599 91.414 424.599 84.346C424.599 77.278 429.159 73.022 435.087 73.022C441.015 73.022 445.499 77.278 445.499 84.346C445.499 91.414 441.015 95.67 435.087 95.67ZM517.796 63.294C511.64 63.294 506.32 65.802 503.052 69.982C500.164 65.498 495.3 63.294 489.6 63.294C484.356 63.294 479.796 65.118 476.756 68.614V63.902H465.432V104.79H477.288V84.27C477.288 76.974 481.012 73.554 486.256 73.554C491.196 73.554 494.008 76.594 494.008 83.206V104.79H505.864V84.27C505.864 76.974 509.588 73.554 514.908 73.554C519.696 73.554 522.66 76.594 522.66 83.206V104.79H534.516V81.382C534.516 68.918 527.524 63.294 517.796 63.294ZM569.995 63.294C564.447 63.294 559.659 65.194 556.467 68.69V63.902H545.143V104.79H556.999V84.574C556.999 77.05 561.103 73.554 566.803 73.554C572.047 73.554 575.087 76.594 575.087 83.206V104.79H586.943V81.382C586.943 68.918 579.647 63.294 569.995 63.294ZM603.618 58.202C608.026 58.202 610.99 55.314 610.99 51.362C610.99 47.714 608.026 44.978 603.618 44.978C599.21 44.978 596.246 47.866 596.246 51.59C596.246 55.314 599.21 58.202 603.618 58.202ZM597.69 104.79H609.546V63.902H597.69V104.79Z" fill="#424242"/>
<defs>
<linearGradient id="paint0_linear" x1="26.52" y1="153.17" x2="156.36" y2="0.62" gradientUnits="userSpaceOnUse">
<stop stop-color="#B9F520"/>
<stop offset="0.14" stop-color="#9CED29"/>
<stop offset="0.56" stop-color="#4CD740"/>
<stop offset="0.85" stop-color="#19C94F"/>
<stop offset="1" stop-color="#06C455"/>
</linearGradient>
<linearGradient id="paint1_linear" x1="26.52" y1="153.17" x2="156.36" y2="0.62" gradientUnits="userSpaceOnUse">
<stop stop-color="#B9F520"/>
<stop offset="0.14" stop-color="#9CED29"/>
<stop offset="0.56" stop-color="#4CD740"/>
<stop offset="0.85" stop-color="#19C94F"/>
<stop offset="1" stop-color="#06C455"/>
</linearGradient>
<linearGradient id="paint2_linear" x1="57.9702" y1="79.47" x2="208.35" y2="158.33" gradientUnits="userSpaceOnUse">
<stop stop-opacity="0.3"/>
<stop offset="0.01" stop-opacity="0.3"/>
<stop offset="1" stop-color="#00730D" stop-opacity="0.1"/>
</linearGradient>
</defs>
</svg>
