<svg width="252" height="52" viewBox="0 0 252 52" fill="none" xmlns="http://www.w3.org/2000/svg">
<path d="M13 6.5C13 10.0899 10.0899 13 6.5 13C2.91015 13 0 10.0899 0 6.5C0 2.91015 2.91015 0 6.5 0C10.0899 0 13 2.91015 13 6.5Z" fill="#ACACAC"/>
<path d="M32.0664 6.5C32.0664 10.0899 29.3503 13 25.9998 13C22.6492 13 19.9331 10.0899 19.9331 6.5C19.9331 2.91015 22.6492 0 25.9998 0C29.3503 0 32.0664 2.91015 32.0664 6.5Z" fill="#5BC1FF"/>
<path d="M51.1333 6.5C51.1333 10.0899 48.4172 13 45.0667 13C41.7161 13 39 10.0899 39 6.5C39 2.91015 41.7161 0 45.0667 0C48.4172 0 51.1333 2.91015 51.1333 6.5Z" fill="#2B6080"/>
<path d="M71.0669 6.5C71.0669 10.0899 68.1567 13 64.5669 13C60.977 13 58.0669 10.0899 58.0669 6.5C58.0669 2.91015 60.977 0 64.5669 0C68.1567 0 71.0669 2.91015 71.0669 6.5Z" fill="#2B6080"/>
<path d="M13 26.4333C13 30.0232 10.0899 32.9333 6.5 32.9333C2.91015 32.9333 0 30.0232 0 26.4333C0 22.8435 2.91015 19.9333 6.5 19.9333C10.0899 19.9333 13 22.8435 13 26.4333Z" fill="#5BC1FF"/>
<path d="M32.0664 26.4333C32.0664 30.0232 29.3503 32.9333 25.9998 32.9333C22.6492 32.9333 19.9331 30.0232 19.9331 26.4333C19.9331 22.8435 22.6492 19.9333 25.9998 19.9333C29.3503 19.9333 32.0664 22.8435 32.0664 26.4333Z" fill="#545454"/>
<path d="M51.1333 26.4333C51.1333 30.0232 48.4172 32.9333 45.0667 32.9333C41.7161 32.9333 39 30.0232 39 26.4333C39 22.8435 41.7161 19.9333 45.0667 19.9333C48.4172 19.9333 51.1333 22.8435 51.1333 26.4333Z" fill="#2B89BF"/>
<path d="M71.0669 26.4333C71.0669 30.0232 68.1567 32.9333 64.5669 32.9333C60.977 32.9333 58.0669 30.0232 58.0669 26.4333C58.0669 22.8435 60.977 19.9333 64.5669 19.9333C68.1567 19.9333 71.0669 22.8435 71.0669 26.4333Z" fill="#185476"/>
<path d="M13 45.9334C13 49.2839 10.0899 52 6.5 52C2.91015 52 0 49.2839 0 45.9334C0 42.5828 2.91015 39.8667 6.5 39.8667C10.0899 39.8667 13 42.5828 13 45.9334Z" fill="#58C0FF"/>
<path d="M32.0664 45.9334C32.0664 49.2839 29.3503 52 25.9998 52C22.6492 52 19.9331 49.2839 19.9331 45.9334C19.9331 42.5828 22.6492 39.8667 25.9998 39.8667C29.3503 39.8667 32.0664 42.5828 32.0664 45.9334Z" fill="#8D8D8D"/>
<path d="M51.1333 45.9334C51.1333 49.2839 48.4172 52 45.0667 52C41.7161 52 39 49.2839 39 45.9334C39 42.5828 41.7161 39.8667 45.0667 39.8667C48.4172 39.8667 51.1333 42.5828 51.1333 45.9334Z" fill="#2B89BF"/>
<path d="M71.0669 45.9334C71.0669 49.2839 68.1567 52 64.5669 52C60.977 52 58.0669 49.2839 58.0669 45.9334C58.0669 42.5828 60.977 39.8667 64.5669 39.8667C68.1567 39.8667 71.0669 42.5828 71.0669 45.9334Z" fill="#6E6E6E"/>
<path d="M95.0837 24.551V31.9999H92.6416V19.4545H94.9857V21.4964H95.1409C95.4295 20.8321 95.8814 20.2984 96.4967 19.8955C97.1175 19.4926 97.8988 19.2911 98.8408 19.2911C100.126 19.2911 101.158 19.6913 101.936 20.4917C102.72 21.2922 103.112 22.4683 103.112 24.0202V31.9999H100.67V24.3142C100.67 23.4049 100.434 22.6943 99.9598 22.1824C99.4861 21.6652 98.8354 21.4065 98.0077 21.4065C97.1583 21.4065 96.4586 21.6815 95.9086 22.2314C95.3587 22.776 95.0837 23.5492 95.0837 24.551Z" fill="black"/>
<path d="M111.672 32.2531C110.496 32.2531 109.47 31.9836 108.593 31.4445C107.716 30.9055 107.036 30.1513 106.551 29.1821C106.066 28.2074 105.824 27.0748 105.824 25.7844C105.824 24.483 106.066 23.345 106.551 22.3703C107.036 21.3956 107.716 20.6388 108.593 20.0997C109.47 19.5606 110.496 19.2911 111.672 19.2911C112.854 19.2911 113.88 19.5606 114.751 20.0997C115.628 20.6388 116.309 21.3956 116.793 22.3703C117.278 23.345 117.52 24.483 117.52 25.7844C117.52 27.0748 117.278 28.2074 116.793 29.1821C116.309 30.1513 115.628 30.9055 114.751 31.4445C113.88 31.9836 112.854 32.2531 111.672 32.2531ZM111.68 30.203C112.448 30.203 113.08 30.0016 113.575 29.5986C114.076 29.1957 114.446 28.6594 114.686 27.9896C114.931 27.3144 115.054 26.5766 115.054 25.7762C115.054 24.9758 114.931 24.238 114.686 23.5628C114.446 22.8876 114.076 22.3485 113.575 21.9456C113.08 21.5372 112.448 21.333 111.68 21.333C110.913 21.333 110.278 21.5372 109.777 21.9456C109.276 22.3485 108.903 22.8876 108.658 23.5628C108.413 24.238 108.291 24.9758 108.291 25.7762C108.291 26.5766 108.413 27.3144 108.658 27.9896C108.903 28.6594 109.276 29.1957 109.777 29.5986C110.278 30.0016 110.913 30.203 111.68 30.203Z" fill="black"/>
<path d="M120.246 36.7045V19.4545H122.631V21.4882H122.835C122.982 21.2268 123.186 20.9246 123.448 20.5816C123.715 20.2385 124.085 19.9391 124.559 19.6831C125.038 19.4218 125.664 19.2911 126.437 19.2911C127.45 19.2911 128.351 19.547 129.141 20.0589C129.936 20.5707 130.562 21.3085 131.019 22.2723C131.477 23.2361 131.705 24.3959 131.705 25.7517C131.705 27.1021 131.479 28.2646 131.027 29.2393C130.575 30.2085 129.955 30.9517 129.165 31.469C128.376 31.9863 127.474 32.2449 126.462 32.2449C125.699 32.2449 125.079 32.117 124.599 31.8611C124.12 31.6051 123.742 31.3057 123.464 30.9626C123.192 30.6196 122.982 30.3147 122.835 30.0479H122.688V36.7045H120.246ZM122.639 25.7272C122.639 27.0449 122.922 28.1149 123.489 28.9371C124.055 29.7538 124.864 30.1622 125.914 30.1622C126.644 30.1622 127.254 29.9689 127.744 29.5823C128.239 29.1903 128.612 28.6594 128.863 27.9896C129.113 27.3199 129.239 26.5657 129.239 25.7272C129.239 24.8941 129.113 24.1508 128.863 23.4974C128.618 22.8386 128.25 22.3186 127.76 21.9374C127.27 21.5563 126.655 21.3657 125.914 21.3657C124.847 21.3657 124.033 21.7659 123.472 22.5663C122.917 23.3613 122.639 24.4149 122.639 25.7272Z" fill="black"/>
<path d="M148.531 20.7123H145.982C145.775 19.6287 145.266 18.7983 144.455 18.2211C143.649 17.6385 142.712 17.3472 141.645 17.3472C140.687 17.3472 139.827 17.5895 139.064 18.0741C138.302 18.5587 137.7 19.2693 137.259 20.2059C136.824 21.137 136.606 22.2805 136.606 23.6363C136.606 24.9975 136.826 26.1465 137.267 27.083C137.708 28.0196 138.307 28.7274 139.064 29.2066C139.827 29.6858 140.684 29.9253 141.637 29.9253C142.693 29.9253 143.627 29.6395 144.439 29.0677C145.25 28.496 145.764 27.6765 145.982 26.6093L148.531 26.6175C148.351 27.7174 147.948 28.6893 147.322 29.5333C146.696 30.3773 145.895 31.0389 144.92 31.518C143.946 31.9917 142.846 32.2286 141.621 32.2286C140.172 32.2286 138.882 31.8856 137.749 31.1995C136.617 30.508 135.724 29.5197 135.07 28.2346C134.422 26.9496 134.098 25.4168 134.098 23.6363C134.098 21.8503 134.425 20.3175 135.078 19.0379C135.732 17.7529 136.625 16.7673 137.757 16.0812C138.89 15.3897 140.178 15.0439 141.621 15.0439C142.802 15.0439 143.878 15.2672 144.847 15.7137C145.822 16.1602 146.63 16.8081 147.273 17.6576C147.921 18.5016 148.34 19.5198 148.531 20.7123Z" fill="black"/>
<path d="M156.639 32.2531C155.463 32.2531 154.436 31.9836 153.56 31.4445C152.683 30.9055 152.002 30.1513 151.518 29.1821C151.033 28.2074 150.791 27.0748 150.791 25.7844C150.791 24.483 151.033 23.345 151.518 22.3703C152.002 21.3956 152.683 20.6388 153.56 20.0997C154.436 19.5606 155.463 19.2911 156.639 19.2911C157.821 19.2911 158.847 19.5606 159.718 20.0997C160.595 20.6388 161.275 21.3956 161.76 22.3703C162.245 23.345 162.487 24.483 162.487 25.7844C162.487 27.0748 162.245 28.2074 161.76 29.1821C161.275 30.1513 160.595 30.9055 159.718 31.4445C158.847 31.9836 157.821 32.2531 156.639 32.2531ZM156.647 30.203C157.415 30.203 158.046 30.0016 158.542 29.5986C159.043 29.1957 159.413 28.6594 159.653 27.9896C159.898 27.3144 160.02 26.5766 160.02 25.7762C160.02 24.9758 159.898 24.238 159.653 23.5628C159.413 22.8876 159.043 22.3485 158.542 21.9456C158.046 21.5372 157.415 21.333 156.647 21.333C155.879 21.333 155.245 21.5372 154.744 21.9456C154.243 22.3485 153.87 22.8876 153.625 23.5628C153.38 24.238 153.258 24.9758 153.258 25.7762C153.258 26.5766 153.38 27.3144 153.625 27.9896C153.87 28.6594 154.243 29.1957 154.744 29.5986C155.245 30.0016 155.879 30.203 156.647 30.203Z" fill="black"/>
<path d="M165.213 31.9999V19.4545H167.557V21.4964H167.712C167.974 20.8048 168.401 20.2658 168.994 19.8792C169.588 19.4871 170.299 19.2911 171.126 19.2911C171.965 19.2911 172.667 19.4871 173.233 19.8792C173.805 20.2712 174.227 20.8103 174.499 21.4964H174.63C174.935 20.8266 175.412 20.293 176.059 19.8955C176.713 19.4926 177.492 19.2911 178.395 19.2911C179.533 19.2911 180.462 19.6505 181.181 20.3692C181.905 21.0825 182.267 22.1552 182.267 23.5873V31.9999H179.825V23.816C179.825 22.9665 179.593 22.3512 179.131 21.9701C178.673 21.5889 178.12 21.3983 177.472 21.3983C176.677 21.3983 176.059 21.6434 175.618 22.1334C175.177 22.6235 174.957 23.247 174.957 24.0038V31.9999H172.523V23.6608C172.523 22.9801 172.311 22.4329 171.886 22.0191C171.461 21.6053 170.908 21.3983 170.228 21.3983C169.536 21.3983 168.935 21.6652 168.423 22.1988C167.911 22.7324 167.655 23.4212 167.655 24.2652V31.9999H165.213Z" fill="black"/>
<path d="M185.54 31.9999V19.4545H187.884V21.4964H188.039C188.301 20.8048 188.728 20.2658 189.322 19.8792C189.915 19.4871 190.626 19.2911 191.453 19.2911C192.292 19.2911 192.994 19.4871 193.561 19.8792C194.132 20.2712 194.554 20.8103 194.827 21.4964H194.957C195.262 20.8266 195.739 20.293 196.387 19.8955C197.04 19.4926 197.819 19.2911 198.723 19.2911C199.861 19.2911 200.789 19.6505 201.508 20.3692C202.232 21.0825 202.594 22.1552 202.594 23.5873V31.9999H200.152V23.816C200.152 22.9665 199.92 22.3512 199.458 21.9701C199 21.5889 198.448 21.3983 197.8 21.3983C197.005 21.3983 196.387 21.6434 195.946 22.1334C195.505 22.6235 195.284 23.247 195.284 24.0038V31.9999H192.85V23.6608C192.85 22.9801 192.638 22.4329 192.213 22.0191C191.788 21.6053 191.236 21.3983 190.555 21.3983C189.863 21.3983 189.262 21.6652 188.75 22.1988C188.238 22.7324 187.982 23.4212 187.982 24.2652V31.9999H185.54Z" fill="black"/>
<path d="M211.274 32.2531C210.044 32.2531 208.982 31.9863 208.089 31.4527C207.196 30.9191 206.507 30.1704 206.022 29.2066C205.543 28.2374 205.304 27.1048 205.304 25.8089C205.304 24.5238 205.543 23.3912 206.022 22.4111C206.507 21.431 207.182 20.666 208.048 20.116C208.919 19.5661 209.937 19.2911 211.103 19.2911C212.05 19.2911 212.946 19.5035 213.79 19.9282C214.639 20.3474 215.328 21.0199 215.856 21.9456C216.39 22.8658 216.657 24.0828 216.657 25.5965V26.4623H207.738C207.77 27.6711 208.111 28.6022 208.759 29.2556C209.406 29.909 210.253 30.2357 211.299 30.2357C211.996 30.2357 212.597 30.086 213.104 29.7865C213.61 29.487 213.972 29.0405 214.19 28.447L216.501 28.8635C216.224 29.8818 215.625 30.7013 214.705 31.322C213.784 31.9427 212.641 32.2531 211.274 32.2531ZM207.746 24.6327H214.263C214.258 23.6744 213.969 22.8821 213.398 22.2559C212.826 21.6243 212.066 21.3085 211.119 21.3085C210.46 21.3085 209.883 21.4637 209.387 21.7741C208.897 22.079 208.508 22.4846 208.219 22.991C207.936 23.492 207.778 24.0392 207.746 24.6327Z" fill="black"/>
<path d="M219.366 31.9999V19.4545H221.727V21.4474H221.857C222.086 20.7722 222.489 20.2413 223.066 19.8547C223.649 19.4626 224.308 19.2666 225.043 19.2666C225.201 19.2666 225.383 19.272 225.59 19.2829C225.797 19.2938 225.96 19.3074 226.08 19.3238V21.6597C225.982 21.6325 225.808 21.6025 225.557 21.5699C225.312 21.5318 225.062 21.5127 224.806 21.5127C223.94 21.5127 223.224 21.7795 222.658 22.3131C222.091 22.8413 221.808 23.5165 221.808 24.3387V31.9999H219.366Z" fill="black"/>
<path d="M233.029 32.2531C231.814 32.2531 230.769 31.9781 229.892 31.4282C229.021 30.8728 228.351 30.1077 227.883 29.1331C227.415 28.1584 227.181 27.0422 227.181 25.7844C227.181 24.5048 227.42 23.3776 227.899 22.403C228.378 21.4283 229.054 20.666 229.925 20.116C230.802 19.5661 231.828 19.2911 233.004 19.2911C233.957 19.2911 234.806 19.4681 235.552 19.822C236.298 20.1705 236.9 20.6605 237.357 21.2922C237.82 21.9238 238.095 22.6616 238.182 23.5056H235.806C235.675 22.9175 235.375 22.4111 234.907 21.9864C234.444 21.5617 233.824 21.3493 233.045 21.3493C232.027 21.3493 231.204 21.7441 230.578 22.5336C229.958 23.3177 229.647 24.3823 229.647 25.7272C229.647 27.0939 229.955 28.1802 230.57 28.9861C231.185 29.7865 232.01 30.1867 233.045 30.1867C233.742 30.1867 234.338 29.9961 234.834 29.615C235.329 29.2338 235.653 28.7056 235.806 28.0305H238.182C238.095 28.8418 237.831 29.566 237.39 30.203C236.949 30.8401 236.358 31.3411 235.618 31.7059C234.883 32.0707 234.02 32.2531 233.029 32.2531Z" fill="black"/>
<path d="M246.201 32.2531C244.97 32.2531 243.909 31.9863 243.016 31.4527C242.123 30.9191 241.434 30.1704 240.949 29.2066C240.47 28.2374 240.23 27.1048 240.23 25.8089C240.23 24.5238 240.47 23.3912 240.949 22.4111C241.434 21.431 242.109 20.666 242.975 20.116C243.846 19.5661 244.864 19.2911 246.029 19.2911C246.977 19.2911 247.873 19.5035 248.717 19.9282C249.566 20.3474 250.255 21.0199 250.783 21.9456C251.317 22.8658 251.583 24.0828 251.583 25.5965V26.4623H242.664C242.697 27.6711 243.037 28.6022 243.685 29.2556C244.333 29.909 245.18 30.2357 246.225 30.2357C246.922 30.2357 247.524 30.086 248.03 29.7865C248.537 29.487 248.899 29.0405 249.117 28.447L251.428 28.8635C251.15 29.8818 250.552 30.7013 249.631 31.322C248.711 31.9427 247.568 32.2531 246.201 32.2531ZM242.673 24.6327H249.19C249.185 23.6744 248.896 22.8821 248.324 22.2559C247.753 21.6243 246.993 21.3085 246.046 21.3085C245.387 21.3085 244.81 21.4637 244.314 21.7741C243.824 22.079 243.435 22.4846 243.146 22.991C242.863 23.492 242.705 24.0392 242.673 24.6327Z" fill="black"/>
<path d="M140.756 41.5902C140.403 41.5902 140.095 41.5048 139.831 41.3341C139.568 41.1633 139.364 40.9245 139.218 40.6175C139.073 40.3088 139 39.9501 139 39.5414C139 39.1292 139.073 38.7688 139.218 38.4601C139.364 38.1514 139.568 37.9117 139.831 37.7409C140.095 37.5702 140.403 37.4848 140.756 37.4848C141.111 37.4848 141.419 37.5702 141.681 37.7409C141.944 37.9117 142.148 38.1514 142.294 38.4601C142.439 38.7688 142.512 39.1292 142.512 39.5414C142.512 39.9501 142.439 40.3088 142.294 40.6175C142.148 40.9245 141.944 41.1633 141.681 41.3341C141.419 41.5048 141.111 41.5902 140.756 41.5902ZM140.758 40.9409C140.989 40.9409 141.179 40.8771 141.327 40.7494C141.478 40.6218 141.589 40.452 141.661 40.2398C141.735 40.026 141.771 39.7923 141.771 39.5388C141.771 39.2853 141.735 39.0516 141.661 38.8378C141.589 38.6239 141.478 38.4532 141.327 38.3256C141.179 38.1962 140.989 38.1316 140.758 38.1316C140.528 38.1316 140.337 38.1962 140.187 38.3256C140.037 38.4532 139.925 38.6239 139.851 38.8378C139.777 39.0516 139.741 39.2853 139.741 39.5388C139.741 39.7923 139.777 40.026 139.851 40.2398C139.925 40.452 140.037 40.6218 140.187 40.7494C140.337 40.8771 140.528 40.9409 140.758 40.9409Z" fill="black"/>
<path d="M143.331 43V37.5366H144.047V38.1807H144.108C144.152 38.0979 144.213 38.0022 144.292 37.8936C144.372 37.7849 144.483 37.6901 144.625 37.609C144.769 37.5262 144.957 37.4848 145.19 37.4848C145.494 37.4848 145.764 37.5659 146.001 37.728C146.24 37.8901 146.428 38.1238 146.565 38.429C146.703 38.7343 146.771 39.1016 146.771 39.531C146.771 39.9587 146.704 40.3269 146.568 40.6356C146.432 40.9426 146.246 41.178 146.009 41.3418C145.772 41.5057 145.501 41.5876 145.197 41.5876C144.968 41.5876 144.782 41.5471 144.638 41.466C144.494 41.3849 144.38 41.2901 144.297 41.1814C144.215 41.0728 144.152 40.9762 144.108 40.8917H144.064V43H143.331ZM144.049 39.5233C144.049 39.9406 144.134 40.2795 144.304 40.5399C144.474 40.7986 144.717 40.9279 145.033 40.9279C145.252 40.9279 145.435 40.8667 145.582 40.7443C145.731 40.6201 145.843 40.452 145.918 40.2398C145.993 40.0277 146.031 39.7889 146.031 39.5233C146.031 39.2594 145.993 39.024 145.918 38.8171C145.844 38.6084 145.734 38.4437 145.587 38.323C145.44 38.2023 145.255 38.1419 145.033 38.1419C144.712 38.1419 144.468 38.2687 144.299 38.5222C144.133 38.774 144.049 39.1077 144.049 39.5233Z" fill="black"/>
<path d="M149.217 41.5902C148.847 41.5902 148.528 41.5057 148.26 41.3367C147.992 41.1677 147.785 40.9305 147.64 40.6253C147.496 40.3183 147.424 39.9596 147.424 39.5491C147.424 39.1422 147.496 38.7834 147.64 38.473C147.785 38.1626 147.988 37.9203 148.248 37.7461C148.509 37.5719 148.815 37.4848 149.165 37.4848C149.45 37.4848 149.719 37.5521 149.972 37.6866C150.227 37.8194 150.434 38.0324 150.592 38.3256C150.753 38.617 150.833 39.0025 150.833 39.4819V39.7561H148.155C148.164 40.139 148.267 40.4339 148.461 40.6408C148.656 40.8477 148.91 40.9512 149.224 40.9512C149.433 40.9512 149.614 40.9038 149.766 40.8089C149.918 40.7141 150.027 40.5727 150.092 40.3847L150.786 40.5166C150.703 40.8391 150.523 41.0987 150.247 41.2953C149.97 41.4919 149.627 41.5902 149.217 41.5902ZM148.157 39.1766H150.114C150.113 38.8731 150.026 38.6222 149.854 38.4239C149.683 38.2238 149.454 38.1238 149.17 38.1238C148.972 38.1238 148.799 38.1729 148.65 38.2712C148.503 38.3678 148.386 38.4963 148.299 38.6567C148.214 38.8153 148.167 38.9887 148.157 39.1766Z" fill="black"/>
<path d="M152.38 39.1508V41.51H151.646V37.5366H152.35V38.1833H152.397C152.484 37.9729 152.619 37.8039 152.804 37.6763C152.99 37.5487 153.225 37.4848 153.508 37.4848C153.894 37.4848 154.204 37.6116 154.437 37.8651C154.673 38.1186 154.791 38.4911 154.791 38.9826V41.51H154.057V39.0758C154.057 38.7878 153.986 38.5627 153.844 38.4006C153.702 38.2368 153.506 38.1548 153.258 38.1548C153.003 38.1548 152.793 38.2419 152.627 38.4161C152.462 38.5886 152.38 38.8335 152.38 39.1508Z" fill="black"/>
<path d="M160.425 38.5067L159.76 38.6308C159.717 38.498 159.638 38.3764 159.522 38.2661C159.408 38.154 159.236 38.0979 159.007 38.0979C158.799 38.0979 158.625 38.1471 158.485 38.2454C158.346 38.342 158.277 38.467 158.279 38.6205C158.277 38.755 158.323 38.8628 158.416 38.9438C158.511 39.0232 158.662 39.0887 158.87 39.1404L159.468 39.2853C160.155 39.4526 160.498 39.8113 160.498 40.3614C160.498 40.6011 160.433 40.8133 160.302 40.9978C160.173 41.1823 159.992 41.3272 159.76 41.4324C159.529 41.5376 159.262 41.5902 158.958 41.5902C158.535 41.5902 158.19 41.4953 157.926 41.3056C157.661 41.1142 157.497 40.8426 157.435 40.4908L158.144 40.3769C158.232 40.7701 158.502 40.9667 158.953 40.9667C159.193 40.9667 159.386 40.9141 159.529 40.8089C159.673 40.702 159.745 40.5718 159.745 40.4183C159.745 40.1648 159.568 39.9967 159.213 39.9139L158.575 39.7664C158.222 39.6837 157.962 39.5491 157.796 39.3629C157.629 39.1766 157.545 38.943 157.545 38.6619C157.545 38.4273 157.607 38.2221 157.732 38.0462C157.856 37.8686 158.028 37.7306 158.247 37.6323C158.466 37.534 158.717 37.4848 159 37.4848C159.407 37.4848 159.727 37.578 159.961 37.7642C160.195 37.9505 160.349 38.198 160.425 38.5067Z" fill="black"/>
<path d="M162.891 41.5902C162.538 41.5902 162.23 41.5048 161.967 41.3341C161.703 41.1633 161.499 40.9245 161.354 40.6175C161.208 40.3088 161.135 39.9501 161.135 39.5414C161.135 39.1292 161.208 38.7688 161.354 38.4601C161.499 38.1514 161.703 37.9117 161.967 37.7409C162.23 37.5702 162.538 37.4848 162.891 37.4848C163.246 37.4848 163.554 37.5702 163.816 37.7409C164.079 37.9117 164.283 38.1514 164.429 38.4601C164.575 38.7688 164.647 39.1292 164.647 39.5414C164.647 39.9501 164.575 40.3088 164.429 40.6175C164.283 40.9245 164.079 41.1633 163.816 41.3341C163.554 41.5048 163.246 41.5902 162.891 41.5902ZM162.894 40.9409C163.124 40.9409 163.314 40.8771 163.463 40.7494C163.613 40.6218 163.724 40.452 163.796 40.2398C163.87 40.026 163.907 39.7923 163.907 39.5388C163.907 39.2853 163.87 39.0516 163.796 38.8378C163.724 38.6239 163.613 38.4532 163.463 38.3256C163.314 38.1962 163.124 38.1316 162.894 38.1316C162.663 38.1316 162.473 38.1962 162.322 38.3256C162.172 38.4532 162.06 38.6239 161.986 38.8378C161.913 39.0516 161.876 39.2853 161.876 39.5388C161.876 39.7923 161.913 40.026 161.986 40.2398C162.06 40.452 162.172 40.6218 162.322 40.7494C162.473 40.8771 162.663 40.9409 162.894 40.9409Z" fill="black"/>
<path d="M167.852 39.8622V37.5366H168.588V41.51H167.867V40.8219H167.828C167.741 41.034 167.602 41.2108 167.411 41.3522C167.221 41.4919 166.985 41.5617 166.702 41.5617C166.341 41.5617 166.044 41.4358 165.812 41.184C165.581 40.9305 165.466 40.5572 165.466 40.0639V37.5366H166.199V39.9708C166.199 40.2416 166.27 40.4571 166.412 40.6175C166.555 40.7779 166.739 40.8581 166.967 40.8581C167.104 40.8581 167.241 40.8219 167.376 40.7494C167.514 40.677 167.627 40.5675 167.717 40.4209C167.809 40.2726 167.854 40.0864 167.852 39.8622Z" fill="black"/>
<path d="M169.573 41.51V37.5366H170.282V38.1678H170.321C170.39 37.9539 170.511 37.7858 170.684 37.6633C170.859 37.5392 171.057 37.4771 171.278 37.4771C171.325 37.4771 171.38 37.4788 171.442 37.4823C171.504 37.4857 171.553 37.49 171.589 37.4952V38.235C171.56 38.2264 171.507 38.2169 171.432 38.2066C171.359 38.1945 171.283 38.1885 171.207 38.1885C170.947 38.1885 170.732 38.273 170.562 38.442C170.391 38.6093 170.306 38.8231 170.306 39.0835V41.51H169.573Z" fill="black"/>
<path d="M175.047 38.5067L174.382 38.6308C174.339 38.498 174.26 38.3764 174.144 38.2661C174.03 38.154 173.858 38.0979 173.629 38.0979C173.421 38.0979 173.247 38.1471 173.107 38.2454C172.968 38.342 172.899 38.467 172.901 38.6205C172.899 38.755 172.945 38.8628 173.038 38.9438C173.133 39.0232 173.284 39.0887 173.492 39.1404L174.09 39.2853C174.777 39.4526 175.12 39.8113 175.12 40.3614C175.12 40.6011 175.055 40.8133 174.924 40.9978C174.795 41.1823 174.614 41.3272 174.382 41.4324C174.151 41.5376 173.884 41.5902 173.58 41.5902C173.156 41.5902 172.812 41.4953 172.547 41.3056C172.283 41.1142 172.119 40.8426 172.057 40.4908L172.766 40.3769C172.854 40.7701 173.124 40.9667 173.575 40.9667C173.815 40.9667 174.008 40.9141 174.151 40.8089C174.295 40.702 174.367 40.5718 174.367 40.4183C174.367 40.1648 174.19 39.9967 173.835 39.9139L173.197 39.7664C172.844 39.6837 172.584 39.5491 172.417 39.3629C172.251 39.1766 172.167 38.943 172.167 38.6619C172.167 38.4273 172.229 38.2221 172.354 38.0462C172.478 37.8686 172.65 37.7306 172.869 37.6323C173.088 37.534 173.339 37.4848 173.622 37.4848C174.029 37.4848 174.349 37.578 174.583 37.7642C174.817 37.9505 174.971 38.198 175.047 38.5067Z" fill="black"/>
<path d="M177.55 41.5902C177.18 41.5902 176.862 41.5057 176.594 41.3367C176.325 41.1677 176.119 40.9305 175.973 40.6253C175.829 40.3183 175.757 39.9596 175.757 39.5491C175.757 39.1422 175.829 38.7834 175.973 38.473C176.119 38.1626 176.321 37.9203 176.581 37.7461C176.843 37.5719 177.149 37.4848 177.498 37.4848C177.783 37.4848 178.052 37.5521 178.305 37.6866C178.56 37.8194 178.767 38.0324 178.926 38.3256C179.086 38.617 179.166 39.0025 179.166 39.4819V39.7561H176.488C176.498 40.139 176.6 40.4339 176.795 40.6408C176.989 40.8477 177.243 40.9512 177.557 40.9512C177.767 40.9512 177.947 40.9038 178.099 40.8089C178.251 40.7141 178.36 40.5727 178.426 40.3847L179.12 40.5166C179.036 40.8391 178.856 41.0987 178.58 41.2953C178.304 41.4919 177.96 41.5902 177.55 41.5902ZM176.49 39.1766H178.448C178.446 38.8731 178.359 38.6222 178.188 38.4239C178.016 38.2238 177.788 38.1238 177.503 38.1238C177.306 38.1238 177.132 38.1729 176.983 38.2712C176.836 38.3678 176.719 38.4963 176.633 38.6567C176.548 38.8153 176.5 38.9887 176.49 39.1766Z" fill="black"/>
<path d="M183.431 41.5902C183.062 41.5902 182.743 41.5057 182.475 41.3367C182.207 41.1677 182 40.9305 181.854 40.6253C181.71 40.3183 181.638 39.9596 181.638 39.5491C181.638 39.1422 181.71 38.7834 181.854 38.473C182 38.1626 182.202 37.9203 182.462 37.7461C182.724 37.5719 183.03 37.4848 183.38 37.4848C183.664 37.4848 183.933 37.5521 184.187 37.6866C184.442 37.8194 184.648 38.0324 184.807 38.3256C184.967 38.617 185.047 39.0025 185.047 39.4819V39.7561H182.369C182.379 40.139 182.481 40.4339 182.676 40.6408C182.87 40.8477 183.125 40.9512 183.438 40.9512C183.648 40.9512 183.828 40.9038 183.981 40.8089C184.133 40.7141 184.241 40.5727 184.307 40.3847L185.001 40.5166C184.917 40.8391 184.738 41.0987 184.461 41.2953C184.185 41.4919 183.842 41.5902 183.431 41.5902ZM182.372 39.1766H184.329C184.327 38.8731 184.24 38.6222 184.069 38.4239C183.897 38.2238 183.669 38.1238 183.385 38.1238C183.187 38.1238 183.013 38.1729 182.865 38.2712C182.717 38.3678 182.601 38.4963 182.514 38.6567C182.429 38.8153 182.381 38.9887 182.372 39.1766Z" fill="black"/>
<path d="M188.081 38.9361V39.6061H185.854V38.9361H188.081Z" fill="black"/>
<path d="M190.645 41.5902C190.28 41.5902 189.966 41.5031 189.703 41.3289C189.441 41.153 189.24 40.9107 189.1 40.602C188.959 40.2933 188.889 39.9398 188.889 39.5414C188.889 39.1361 188.961 38.7791 189.104 38.4704C189.248 38.1617 189.451 37.9203 189.713 37.7461C189.976 37.5719 190.284 37.4848 190.637 37.4848C190.923 37.4848 191.178 37.5409 191.402 37.653C191.626 37.7634 191.807 37.9186 191.944 38.1186C192.083 38.3187 192.166 38.5524 192.192 38.8197H191.478C191.439 38.6334 191.349 38.473 191.209 38.3385C191.07 38.204 190.883 38.1367 190.65 38.1367C190.344 38.1367 190.097 38.2618 189.909 38.5118C189.722 38.7602 189.629 39.0973 189.629 39.5233C189.629 39.9561 189.722 40.3002 189.906 40.5554C190.091 40.8089 190.339 40.9357 190.65 40.9357C190.859 40.9357 191.038 40.8753 191.187 40.7546C191.335 40.6339 191.433 40.4666 191.478 40.2528H192.192C192.166 40.5097 192.087 40.7391 191.954 40.9409C191.822 41.1426 191.644 41.3013 191.422 41.4169C191.201 41.5324 190.942 41.5902 190.645 41.5902Z" fill="black"/>
<path d="M194.563 41.5902C194.21 41.5902 193.902 41.5048 193.639 41.3341C193.375 41.1633 193.171 40.9245 193.025 40.6175C192.88 40.3088 192.807 39.9501 192.807 39.5414C192.807 39.1292 192.88 38.7688 193.025 38.4601C193.171 38.1514 193.375 37.9117 193.639 37.7409C193.902 37.5702 194.21 37.4848 194.563 37.4848C194.918 37.4848 195.226 37.5702 195.488 37.7409C195.751 37.9117 195.955 38.1514 196.101 38.4601C196.246 38.7688 196.319 39.1292 196.319 39.5414C196.319 39.9501 196.246 40.3088 196.101 40.6175C195.955 40.9245 195.751 41.1633 195.488 41.3341C195.226 41.5048 194.918 41.5902 194.563 41.5902ZM194.566 40.9409C194.796 40.9409 194.986 40.8771 195.135 40.7494C195.285 40.6218 195.396 40.452 195.468 40.2398C195.542 40.026 195.578 39.7923 195.578 39.5388C195.578 39.2853 195.542 39.0516 195.468 38.8378C195.396 38.6239 195.285 38.4532 195.135 38.3256C194.986 38.1962 194.796 38.1316 194.566 38.1316C194.335 38.1316 194.145 38.1962 193.994 38.3256C193.844 38.4532 193.732 38.6239 193.658 38.8378C193.585 39.0516 193.548 39.2853 193.548 39.5388C193.548 39.7923 193.585 40.026 193.658 40.2398C193.732 40.452 193.844 40.6218 193.994 40.7494C194.145 40.8771 194.335 40.9409 194.566 40.9409Z" fill="black"/>
<path d="M197.138 41.51V37.5366H197.842V38.1833H197.888C197.967 37.9643 198.095 37.7935 198.273 37.6711C198.451 37.5469 198.665 37.4848 198.913 37.4848C199.165 37.4848 199.376 37.5469 199.546 37.6711C199.718 37.7953 199.844 37.966 199.926 38.1833H199.965C200.057 37.9712 200.2 37.8022 200.395 37.6763C200.591 37.5487 200.825 37.4848 201.096 37.4848C201.438 37.4848 201.717 37.5987 201.932 37.8263C202.15 38.0522 202.259 38.392 202.259 38.8455V41.51H201.525V38.918C201.525 38.6489 201.456 38.4541 201.317 38.3333C201.179 38.2126 201.013 38.1523 200.819 38.1523C200.58 38.1523 200.395 38.2299 200.262 38.3851C200.13 38.5403 200.064 38.7377 200.064 38.9775V41.51H199.333V38.8688C199.333 38.6532 199.269 38.4799 199.141 38.3489C199.014 38.2178 198.848 38.1523 198.644 38.1523C198.436 38.1523 198.255 38.2368 198.102 38.4058C197.948 38.5748 197.871 38.7929 197.871 39.0602V41.51H197.138Z" fill="black"/>
<path d="M203.241 41.51V37.5366H203.945V38.1833H203.992C204.07 37.9643 204.199 37.7935 204.377 37.6711C204.555 37.5469 204.768 37.4848 205.017 37.4848C205.269 37.4848 205.48 37.5469 205.65 37.6711C205.821 37.7953 205.948 37.966 206.03 38.1833H206.069C206.161 37.9712 206.304 37.8022 206.498 37.6763C206.695 37.5487 206.928 37.4848 207.2 37.4848C207.541 37.4848 207.82 37.5987 208.036 37.8263C208.254 38.0522 208.362 38.392 208.362 38.8455V41.51H207.629V38.918C207.629 38.6489 207.559 38.4541 207.421 38.3333C207.283 38.2126 207.117 38.1523 206.923 38.1523C206.684 38.1523 206.498 38.2299 206.366 38.3851C206.233 38.5403 206.167 38.7377 206.167 38.9775V41.51H205.436V38.8688C205.436 38.6532 205.373 38.4799 205.245 38.3489C205.118 38.2178 204.952 38.1523 204.747 38.1523C204.54 38.1523 204.359 38.2368 204.205 38.4058C204.052 38.5748 203.975 38.7929 203.975 39.0602V41.51H203.241Z" fill="black"/>
<path d="M210.969 41.5902C210.599 41.5902 210.28 41.5057 210.012 41.3367C209.744 41.1677 209.537 40.9305 209.392 40.6253C209.248 40.3183 209.176 39.9596 209.176 39.5491C209.176 39.1422 209.248 38.7834 209.392 38.473C209.537 38.1626 209.74 37.9203 210 37.7461C210.262 37.5719 210.567 37.4848 210.917 37.4848C211.202 37.4848 211.471 37.5521 211.724 37.6866C211.979 37.8194 212.186 38.0324 212.345 38.3256C212.505 38.617 212.585 39.0025 212.585 39.4819V39.7561H209.907C209.917 40.139 210.019 40.4339 210.213 40.6408C210.408 40.8477 210.662 40.9512 210.976 40.9512C211.185 40.9512 211.366 40.9038 211.518 40.8089C211.67 40.7141 211.779 40.5727 211.844 40.3847L212.538 40.5166C212.455 40.8391 212.275 41.0987 211.999 41.2953C211.722 41.4919 211.379 41.5902 210.969 41.5902ZM209.909 39.1766H211.866C211.865 38.8731 211.778 38.6222 211.606 38.4239C211.435 38.2238 211.207 38.1238 210.922 38.1238C210.724 38.1238 210.551 38.1729 210.402 38.2712C210.255 38.3678 210.138 38.4963 210.051 38.6567C209.966 38.8153 209.919 38.9887 209.909 39.1766Z" fill="black"/>
<path d="M213.399 41.51V37.5366H214.107V38.1678H214.147C214.215 37.9539 214.336 37.7858 214.51 37.6633C214.684 37.5392 214.882 37.4771 215.103 37.4771C215.15 37.4771 215.205 37.4788 215.267 37.4823C215.329 37.4857 215.379 37.49 215.414 37.4952V38.235C215.385 38.2264 215.333 38.2169 215.258 38.2066C215.184 38.1945 215.109 38.1885 215.032 38.1885C214.772 38.1885 214.557 38.273 214.387 38.442C214.217 38.6093 214.132 38.8231 214.132 39.0835V41.51H213.399Z" fill="black"/>
<path d="M217.501 41.5902C217.136 41.5902 216.822 41.5031 216.559 41.3289C216.298 41.153 216.097 40.9107 215.956 40.602C215.815 40.2933 215.745 39.9398 215.745 39.5414C215.745 39.1361 215.817 38.7791 215.961 38.4704C216.105 38.1617 216.307 37.9203 216.569 37.7461C216.832 37.5719 217.14 37.4848 217.494 37.4848C217.78 37.4848 218.035 37.5409 218.259 37.653C218.483 37.7634 218.663 37.9186 218.801 38.1186C218.94 38.3187 219.022 38.5524 219.049 38.8197H218.335C218.296 38.6334 218.206 38.473 218.065 38.3385C217.926 38.204 217.74 38.1367 217.506 38.1367C217.2 38.1367 216.953 38.2618 216.765 38.5118C216.579 38.7602 216.486 39.0973 216.486 39.5233C216.486 39.9561 216.578 40.3002 216.763 40.5554C216.948 40.8089 217.195 40.9357 217.506 40.9357C217.715 40.9357 217.894 40.8753 218.043 40.7546C218.192 40.6339 218.289 40.4666 218.335 40.2528H219.049C219.022 40.5097 218.943 40.7391 218.811 40.9409C218.678 41.1426 218.501 41.3013 218.278 41.4169C218.058 41.5324 217.799 41.5902 217.501 41.5902Z" fill="black"/>
<path d="M221.456 41.5902C221.087 41.5902 220.768 41.5057 220.5 41.3367C220.232 41.1677 220.025 40.9305 219.879 40.6253C219.735 40.3183 219.663 39.9596 219.663 39.5491C219.663 39.1422 219.735 38.7834 219.879 38.473C220.025 38.1626 220.228 37.9203 220.488 37.7461C220.749 37.5719 221.055 37.4848 221.405 37.4848C221.689 37.4848 221.958 37.5521 222.212 37.6866C222.467 37.8194 222.674 38.0324 222.832 38.3256C222.992 38.617 223.073 39.0025 223.073 39.4819V39.7561H220.394C220.404 40.139 220.506 40.4339 220.701 40.6408C220.895 40.8477 221.15 40.9512 221.464 40.9512C221.673 40.9512 221.854 40.9038 222.006 40.8089C222.158 40.7141 222.266 40.5727 222.332 40.3847L223.026 40.5166C222.943 40.8391 222.763 41.0987 222.486 41.2953C222.21 41.4919 221.867 41.5902 221.456 41.5902ZM220.397 39.1766H222.354C222.352 38.8731 222.266 38.6222 222.094 38.4239C221.922 38.2238 221.694 38.1238 221.41 38.1238C221.212 38.1238 221.039 38.1729 220.89 38.2712C220.743 38.3678 220.626 38.4963 220.539 38.6567C220.454 38.8153 220.407 38.9887 220.397 39.1766Z" fill="black"/>
<path d="M228.537 38.5067L227.872 38.6308C227.83 38.498 227.75 38.3764 227.634 38.2661C227.52 38.154 227.348 38.0979 227.119 38.0979C226.912 38.0979 226.737 38.1471 226.597 38.2454C226.458 38.342 226.389 38.467 226.391 38.6205C226.389 38.755 226.435 38.8628 226.528 38.9438C226.623 39.0232 226.774 39.0887 226.982 39.1404L227.58 39.2853C228.267 39.4526 228.61 39.8113 228.61 40.3614C228.61 40.6011 228.545 40.8133 228.414 40.9978C228.285 41.1823 228.104 41.3272 227.872 41.4324C227.642 41.5376 227.374 41.5902 227.07 41.5902C226.647 41.5902 226.302 41.4953 226.038 41.3056C225.773 41.1142 225.609 40.8426 225.547 40.4908L226.256 40.3769C226.344 40.7701 226.614 40.9667 227.065 40.9667C227.306 40.9667 227.498 40.9141 227.642 40.8089C227.785 40.702 227.857 40.5718 227.857 40.4183C227.857 40.1648 227.68 39.9967 227.325 39.9139L226.688 39.7664C226.334 39.6837 226.074 39.5491 225.908 39.3629C225.741 39.1766 225.657 38.943 225.657 38.6619C225.657 38.4273 225.72 38.2221 225.844 38.0462C225.968 37.8686 226.14 37.7306 226.359 37.6323C226.578 37.534 226.829 37.4848 227.112 37.4848C227.519 37.4848 227.839 37.578 228.073 37.7642C228.307 37.9505 228.462 38.198 228.537 38.5067Z" fill="black"/>
<path d="M231.003 41.5902C230.65 41.5902 230.342 41.5048 230.079 41.3341C229.816 41.1633 229.611 40.9245 229.466 40.6175C229.32 40.3088 229.247 39.9501 229.247 39.5414C229.247 39.1292 229.32 38.7688 229.466 38.4601C229.611 38.1514 229.816 37.9117 230.079 37.7409C230.342 37.5702 230.65 37.4848 231.003 37.4848C231.358 37.4848 231.666 37.5702 231.928 37.7409C232.191 37.9117 232.396 38.1514 232.541 38.4601C232.687 38.7688 232.759 39.1292 232.759 39.5414C232.759 39.9501 232.687 40.3088 232.541 40.6175C232.396 40.9245 232.191 41.1633 231.928 41.3341C231.666 41.5048 231.358 41.5902 231.003 41.5902ZM231.006 40.9409C231.236 40.9409 231.426 40.8771 231.575 40.7494C231.725 40.6218 231.836 40.452 231.908 40.2398C231.982 40.026 232.019 39.7923 232.019 39.5388C232.019 39.2853 231.982 39.0516 231.908 38.8378C231.836 38.6239 231.725 38.4532 231.575 38.3256C231.426 38.1962 231.236 38.1316 231.006 38.1316C230.775 38.1316 230.585 38.1962 230.434 38.3256C230.284 38.4532 230.172 38.6239 230.098 38.8378C230.025 39.0516 229.988 39.2853 229.988 39.5388C229.988 39.7923 230.025 40.026 230.098 40.2398C230.172 40.452 230.284 40.6218 230.434 40.7494C230.585 40.8771 230.775 40.9409 231.006 40.9409Z" fill="black"/>
<path d="M234.311 36.2121V41.51H233.578V36.2121H234.311Z" fill="black"/>
<path d="M237.684 39.8622V37.5366H238.42V41.51H237.699V40.8219H237.66C237.573 41.034 237.434 41.2108 237.243 41.3522C237.053 41.4919 236.817 41.5617 236.534 41.5617C236.172 41.5617 235.876 41.4358 235.644 41.184C235.413 40.9305 235.298 40.5572 235.298 40.0639V37.5366H236.031V39.9708C236.031 40.2416 236.102 40.4571 236.244 40.6175C236.387 40.7779 236.571 40.8581 236.799 40.8581C236.936 40.8581 237.073 40.8219 237.208 40.7494C237.346 40.677 237.459 40.5675 237.549 40.4209C237.641 40.2726 237.686 40.0864 237.684 39.8622Z" fill="black"/>
<path d="M241.164 37.5366V38.1574H240.391V40.3433C240.391 40.5675 240.436 40.7124 240.526 40.7779C240.617 40.8417 240.723 40.8736 240.842 40.8736C240.901 40.8736 240.953 40.8693 240.997 40.8607C241.041 40.8521 241.075 40.8452 241.1 40.84L241.232 41.4789C241.19 41.4962 241.128 41.5134 241.048 41.5307C240.97 41.5496 240.873 41.56 240.756 41.5617C240.563 41.5652 240.383 41.5289 240.214 41.4531C240.048 41.3772 239.913 41.2599 239.81 41.1013C239.708 40.9426 239.658 40.7434 239.658 40.5037V38.1574H239.106V37.5366H239.658V36.5846H240.391V37.5366H241.164Z" fill="black"/>
<path d="M241.975 41.51V37.5366H242.708V41.51H241.975ZM242.345 36.9235C242.218 36.9235 242.108 36.8787 242.016 36.789C241.926 36.6976 241.882 36.5889 241.882 36.463C241.882 36.3354 241.926 36.2268 242.016 36.1371C242.108 36.0457 242.218 36 242.345 36C242.471 36 242.58 36.0457 242.671 36.1371C242.763 36.2268 242.809 36.3354 242.809 36.463C242.809 36.5889 242.763 36.6976 242.671 36.789C242.58 36.8787 242.471 36.9235 242.345 36.9235Z" fill="black"/>
<path d="M245.281 41.5902C244.928 41.5902 244.62 41.5048 244.357 41.3341C244.093 41.1633 243.889 40.9245 243.744 40.6175C243.598 40.3088 243.525 39.9501 243.525 39.5414C243.525 39.1292 243.598 38.7688 243.744 38.4601C243.889 38.1514 244.093 37.9117 244.357 37.7409C244.62 37.5702 244.928 37.4848 245.281 37.4848C245.636 37.4848 245.944 37.5702 246.206 37.7409C246.469 37.9117 246.674 38.1514 246.819 38.4601C246.965 38.7688 247.037 39.1292 247.037 39.5414C247.037 39.9501 246.965 40.3088 246.819 40.6175C246.674 40.9245 246.469 41.1633 246.206 41.3341C245.944 41.5048 245.636 41.5902 245.281 41.5902ZM245.284 40.9409C245.514 40.9409 245.704 40.8771 245.853 40.7494C246.003 40.6218 246.114 40.452 246.186 40.2398C246.26 40.026 246.297 39.7923 246.297 39.5388C246.297 39.2853 246.26 39.0516 246.186 38.8378C246.114 38.6239 246.003 38.4532 245.853 38.3256C245.704 38.1962 245.514 38.1316 245.284 38.1316C245.053 38.1316 244.863 38.1962 244.712 38.3256C244.562 38.4532 244.45 38.6239 244.376 38.8378C244.303 39.0516 244.266 39.2853 244.266 39.5388C244.266 39.7923 244.303 40.026 244.376 40.2398C244.45 40.452 244.562 40.6218 244.712 40.7494C244.863 40.8771 245.053 40.9409 245.284 40.9409Z" fill="black"/>
<path d="M248.589 39.1508V41.51H247.856V37.5366H248.56V38.1833H248.606C248.693 37.9729 248.829 37.8039 249.013 37.6763C249.2 37.5487 249.434 37.4848 249.717 37.4848C250.103 37.4848 250.413 37.6116 250.647 37.8651C250.882 38.1186 251 38.4911 251 38.9826V41.51H250.267V39.0758C250.267 38.7878 250.196 38.5627 250.053 38.4006C249.911 38.2368 249.716 38.1548 249.467 38.1548C249.212 38.1548 249.002 38.2419 248.837 38.4161C248.672 38.5886 248.589 38.8335 248.589 39.1508Z" fill="black"/>
</svg>
