<svg width="456" height="340" viewBox="0 0 456 340" fill="none" xmlns="http://www.w3.org/2000/svg">
<path fill-rule="evenodd" clip-rule="evenodd" d="M397.754 100.795C397.473 100.59 396.804 100.517 396.493 100.455C395.2 100.201 393.868 100.09 392.55 100.09C388.485 100.096 384.354 100.495 380.357 101.186C377.819 101.624 374.751 103.099 372.226 102.298C367.828 100.902 363.383 100.971 359.21 102.964C355.395 104.786 352.499 108.247 350.809 111.987C350.553 112.552 349.519 114.63 349.226 116.03C349.101 116.317 348.98 116.605 348.872 116.898C348.565 117.729 348.288 118.574 348.032 119.422C347.922 119.783 347.647 120.581 347.974 120.735C347.451 121.7 346.987 122.695 346.602 123.721C345.479 126.708 344.251 129.983 343.856 133.148C343.711 134.32 343.705 135.499 343.841 136.673C343.908 137.254 343.88 138.42 344.273 138.862C345.109 139.798 345.537 138.487 345.443 137.863C344.724 133.104 346.112 128.636 347.757 124.162C348.821 121.27 350.569 118.624 352.527 116.228C354.112 114.287 355.812 112.76 357.984 111.474C360.64 109.901 363.48 108.63 366.294 107.354C368.145 106.515 369.998 105.698 371.9 104.976C372.323 104.814 372.988 104.402 373.457 104.4C374.449 104.397 375.855 105.129 376.813 105.401C379.964 106.297 383.155 107.444 386.412 107.902C388.501 108.195 390.458 107.865 392.412 107.169C392.611 107.098 392.946 106.915 393.356 106.654C394.807 106.096 396.179 105.394 397.374 104.381C398.061 103.797 398.686 103.043 399.256 102.352C399.426 102.146 399.502 101.91 399.504 101.684C399.633 101.617 399.719 101.538 399.738 101.446C399.881 100.767 398.584 100.755 397.754 100.795Z" fill="#89C5CC"/>
<path fill-rule="evenodd" clip-rule="evenodd" d="M67.5542 157.439C66.7569 158.084 65.9749 158.744 65.212 159.43C64.6303 159.953 63.601 160.579 63.3923 161.372C63.1752 162.196 63.8604 162.967 64.4015 163.464C67.2636 166.098 70.4866 167.878 74.4525 168.174C80.5593 168.63 85.8741 167.07 91.1725 164.002C94.8942 161.846 97.3596 158.658 97.898 154.353C102.33 156.195 106.617 158.734 110.26 161.851C112.058 163.388 113.606 165.092 115.037 166.98C115.955 168.19 116.842 169.419 117.665 170.695C118.023 171.25 118.387 172.233 118.977 172.553C119.671 172.928 120.51 172.34 120.475 171.569C120.446 170.927 119.754 170.182 119.429 169.658C118.891 168.786 118.345 167.92 117.77 167.073C116.839 165.701 115.877 164.349 114.827 163.065C112.469 160.18 109.468 157.798 106.358 155.766C100.39 151.868 93.8412 149.412 86.5805 149.204C82.1158 149.076 78.3602 150.601 74.5423 152.879C72.1652 154.297 69.7115 155.692 67.5542 157.439Z" fill="#DDE3E9"/>
<path fill-rule="evenodd" clip-rule="evenodd" d="M125.468 138.584C120.815 133.793 116.147 129.061 110.949 124.842C107.885 122.356 104.657 120.095 101.495 117.738C101.86 118.058 102.218 118.386 102.567 118.723C101.58 118.053 100.288 117.674 99.2419 117.054C98.0748 116.363 96.9589 115.572 95.8646 114.774C93.7285 113.217 91.6245 111.631 89.4287 110.156C86.9824 108.512 84.4473 106.994 81.9592 105.412C79.8474 104.07 77.7102 102.6 75.4509 101.503C74.2198 100.905 72.9861 100.196 71.7497 99.5723C71.336 99.3636 67.1377 96.7128 67.1482 96.7049C67.3802 96.53 69.4931 97.5223 69.8196 97.656C70.7738 98.0459 71.6868 98.5119 72.6041 98.9769C72.1006 97.9835 71.7022 96.94 71.485 95.841C71.4179 95.5023 70.8811 93.0333 71.1558 92.8262C71.2927 92.7232 72.6321 97.1397 72.7008 97.5645C72.7568 97.909 72.7483 98.4057 72.8614 98.7327C73.0437 99.2601 73.0347 99.1005 73.4362 99.398C74.1723 99.9427 75.1492 100.283 75.9454 100.738C76.3755 100.978 77.7054 101.929 78.5064 102.2C80.93 103.377 83.3869 105.188 85.69 106.692C85.0855 105.556 84.6253 104.368 84.2904 103.123C84.2106 102.828 83.3494 100.177 83.5586 100.02C83.7937 99.8428 85.4337 103.892 85.531 104.275C85.7111 104.987 85.7486 105.78 85.9748 106.472C86.2226 107.232 86.9966 107.502 87.6941 107.945C90.2603 109.576 92.7389 111.308 95.1757 113.121C97.8349 108.391 94.7688 102.681 92.1851 98.7127C90.3221 95.8527 87.8151 93.4011 85.1674 91.2607C81.6338 88.4038 77.5913 86.1218 73.5535 84.0343C68.849 81.6022 63.7641 80.0948 58.4773 79.399C55.7124 79.0344 52.8841 79.045 50.0912 79.1617C48.7269 79.2188 47.4171 79.3995 46.11 79.8444C45.5203 80.0452 44.9507 80.2982 44.396 80.5814C43.9743 80.7965 42.9541 81.0237 42.7121 81.3444C40.7159 83.9423 39.6951 86.5308 39.851 89.795C39.9984 92.8848 40.9743 95.9763 42.2984 98.7327C43.7735 101.802 45.6704 104.588 48.1515 106.925C50.0441 108.709 52.1602 110.261 54.2626 111.793C61.7394 117.242 71.2187 121.982 80.9025 120.764C84.0373 120.37 87.0188 119.274 89.8049 117.784C90.4616 117.433 91.1141 117.078 91.7339 116.664C92.1518 116.384 93.2688 115.125 93.6888 115.08C94.2653 115.017 95.5059 116.189 96.0464 116.545C100.154 119.256 104.154 122.115 108.069 125.088C112.236 128.252 116.198 131.632 120.043 135.17C121.678 136.675 123.303 138.183 124.891 139.738C125.261 140.1 126.165 141.433 126.836 141.493C127.259 141.532 127.545 141.17 127.485 140.777C127.38 140.095 125.945 139.075 125.468 138.584Z" fill="#FF8427"/>
<path fill-rule="evenodd" clip-rule="evenodd" d="M392.87 119.988C391.068 119.595 389.078 119.625 387.242 119.657C377.397 119.791 367.729 124.452 361.437 131.9C356.081 138.24 354.608 146.124 353.549 154.092C353.445 154.883 353.4 155.67 353.341 156.463C353.328 156.633 353.309 156.784 353.288 156.928C352.872 157.3 352.654 157.733 352.9 158.21C351.984 160.216 351.208 162.273 350.542 164.395C348.584 170.64 346.592 177.004 347.819 183.571C348.106 179.957 348.709 176.262 349.43 172.707C349.471 172.503 349.516 172.301 349.563 172.099C349.568 172.078 349.572 172.056 349.577 172.035C349.832 170.947 350.164 169.891 350.568 168.852C350.572 168.84 350.576 168.829 350.58 168.818C350.634 168.681 350.69 168.545 350.746 168.409C350.862 168.127 350.981 167.846 351.107 167.567C351.149 167.471 351.19 167.375 351.23 167.278C351.817 165.838 352.065 164.215 352.592 162.725C352.718 162.386 352.849 162.048 352.987 161.712C352.996 161.693 353.004 161.673 353.012 161.654C353.385 160.75 353.797 159.857 354.232 158.974C354.469 158.796 354.595 158.355 354.8 157.954C354.842 157.874 355.172 157.348 355.27 157.044C355.527 156.548 355.782 156.052 356.041 155.556C356.033 155.559 356.025 155.562 356.017 155.565C356.276 155.089 356.535 154.615 356.792 154.144C356.849 154.04 356.906 153.937 356.963 153.832C357.056 153.667 357.148 153.502 357.24 153.337C358.102 151.793 359.017 150.281 359.966 148.788C360.305 148.255 361.115 147.49 361.27 146.892C361.276 146.869 361.277 146.849 361.281 146.827C363.341 143.933 365.713 141.264 368.558 139.149C368.214 139.521 367.483 140.782 367.29 141.032C366.699 141.796 366.057 142.508 365.413 143.229C364.258 144.52 363.132 145.851 362.13 147.259C360.299 149.834 358.72 152.544 357.226 155.309C357.212 155.325 357.197 155.34 357.183 155.357C356.433 156.282 355.96 157.68 355.42 158.739C357.558 157.749 359.922 157.104 362.116 156.224C364.305 155.348 366.433 154.371 368.488 153.225C371.219 151.702 374.053 149.982 376.633 148.035C379.591 146.201 382.076 143.676 384.27 141.026C386.865 137.891 389.244 134.728 390.715 130.922C391.438 129.051 392.006 127.101 392.343 125.127C392.358 125.042 392.376 124.948 392.397 124.851C392.742 124.17 393.05 123.473 393.309 122.76C393.72 121.629 394.69 120.386 392.87 119.988Z" fill="#69A1AC"/>
<path fill-rule="evenodd" clip-rule="evenodd" d="M50.1284 125.987C49.414 125.275 48.612 124.632 47.6704 124.174C47.4321 124.059 45.6589 123.282 45.5432 123.453C45.2743 123.849 49.9138 125.759 50.1284 125.987ZM58.5362 121.231C58.5303 121.261 59.1454 122.222 59.3128 122.517C59.669 123.145 59.9981 123.786 60.3077 124.427C59.8497 123.294 59.3789 122.243 58.5362 121.231ZM15.5345 129.052C14.9423 129.227 14.2302 128.535 14.9984 128.365C15.62 128.227 15.5895 128.195 15.8686 127.734C16.0953 127.36 16.2348 126.903 16.4337 126.511C16.8556 125.677 17.3341 124.882 17.9214 124.138C19.1803 122.542 20.714 121.166 22.4342 120.007C25.4363 117.985 28.8023 116.136 32.3729 115.207C38.05 113.73 44.5119 113.639 50.1981 114.663C53.7196 115.297 56.9384 116.399 59.2764 119.01C60.4451 120.315 61.3629 121.844 61.7639 123.527C61.8685 123.967 61.849 124.456 61.98 124.887C62.1813 125.549 62.0925 125.373 62.9337 125.502C63.8525 125.643 64.7703 125.786 65.6875 125.932C68.09 126.315 70.5067 126.721 72.8473 127.342C73.6182 127.546 74.3717 127.796 75.1077 128.086C75.664 128.306 77.881 128.994 78.1505 129.66C78.5991 130.768 77.0964 130.265 76.6299 130.024C76.2209 129.813 75.8009 129.615 75.375 129.434C74.3024 128.977 73.185 128.624 72.0421 128.342C70.8073 128.038 69.5472 127.811 68.2918 127.583C67.1215 127.371 65.9464 127.179 64.7698 126.995C64.1162 126.892 63.4621 126.793 62.8079 126.693C62.5845 126.659 62.1908 126.481 62.2204 126.749C60.8451 126.504 59.3578 126.54 57.9571 126.472C56.2415 126.39 54.519 126.323 52.7976 126.372C51.556 126.408 50.3133 126.483 49.078 126.636C48.3562 126.726 47.6461 126.857 46.9376 127.024C46.5487 127.115 45.0149 127.309 44.803 127.621C44.8939 127.487 46.5867 127.617 46.8023 127.609C47.6641 127.58 48.5195 127.501 49.3781 127.413C50.9716 127.249 52.5662 127.163 54.1645 127.175C54.1587 127.434 53.0666 127.894 52.7997 128.065C52.2022 128.449 51.63 128.868 51.0958 129.328C50.1553 130.137 49.0288 131.14 48.3779 132.099C48.5697 131.816 49.516 131.448 49.8515 131.233C50.3894 130.887 50.9161 130.517 51.4149 130.123C51.8751 129.759 52.3047 129.365 52.7268 128.963C53.149 128.561 53.7223 127.725 54.277 127.457C54.3109 127.441 54.5528 127.617 54.6902 127.557C54.8286 127.497 55.0009 127.195 55.0363 127.183C55.553 127 56.5337 127.228 57.0768 127.251C58.4854 127.311 59.8925 127.389 61.2995 127.46C61.7354 127.482 62.1063 127.391 62.2706 127.687C62.446 128.003 62.1248 128.833 62.0334 129.177C61.6936 130.454 61.0913 131.6 60.1424 132.59C58.366 134.444 56.1749 135.68 53.7001 136.507C44.2207 139.674 34.1354 140.942 24.6589 137.648C20.7356 136.284 14.827 133.847 15.5345 129.052Z" fill="#C5CFD6"/>
<g opacity="0.6">
<path opacity="0.6" fill-rule="evenodd" clip-rule="evenodd" d="M455.03 278.247C461.637 318.447 301.38 344.668 163.442 326.369C25.504 308.07 -37.7753 236.612 28.0463 198.535C93.868 160.459 448.421 238.048 455.03 278.247Z" fill="#DDE3E9"/>
</g>
<path d="M219.654 30.769H121.848C119.514 30.769 117.621 32.6615 117.621 34.9959V212.388C117.621 214.723 119.514 216.615 121.848 216.615H219.654C221.989 216.615 223.881 214.723 223.881 212.388V34.9959C223.881 32.6615 221.989 30.769 219.654 30.769Z" fill="#DDE3E9"/>
<path fill-rule="evenodd" clip-rule="evenodd" d="M182.593 201.007C186.97 201.007 190.518 197.459 190.518 193.082C190.518 188.705 186.97 185.156 182.593 185.156C178.216 185.156 174.667 188.705 174.667 193.082C174.667 197.459 178.216 201.007 182.593 201.007Z" fill="white"/>
<path fill-rule="evenodd" clip-rule="evenodd" d="M161.73 43.0769C162.468 43.0769 163.066 42.5258 163.066 41.8463C163.066 41.1663 162.468 40.6152 161.73 40.6152C160.991 40.6152 160.393 41.1663 160.393 41.8463C160.393 42.5258 160.991 43.0769 161.73 43.0769Z" fill="white"/>
<path d="M179.385 40.6152H167.464C166.881 40.6152 166.408 41.0883 166.408 41.672V42.02C166.408 42.6037 166.881 43.0768 167.464 43.0768H179.385C179.969 43.0768 180.442 42.6037 180.442 42.02V41.672C180.442 41.0883 179.969 40.6152 179.385 40.6152Z" fill="white"/>
<path d="M267.131 69.4453H98.5837C97.4164 69.4453 96.4702 70.3915 96.4702 71.5588V148.699C96.4702 149.867 97.4164 150.813 98.5837 150.813H267.131C268.298 150.813 269.244 149.867 269.244 148.699V71.5588C269.244 70.3915 268.298 69.4453 267.131 69.4453Z" fill="white"/>
<path d="M200.243 93.9077H154.627C153.751 93.9077 153.042 94.6174 153.042 95.4928V96.1995C153.042 97.075 153.751 97.7846 154.627 97.7846H200.243C201.118 97.7846 201.828 97.075 201.828 96.1995V95.4928C201.828 94.6174 201.118 93.9077 200.243 93.9077Z" fill="#DDE3E9"/>
<path d="M184.203 100.369H154.627C153.751 100.369 153.042 101.079 153.042 101.954V102.661C153.042 103.536 153.751 104.246 154.627 104.246H184.203C185.079 104.246 185.788 103.536 185.788 102.661V101.954C185.788 101.079 185.079 100.369 184.203 100.369Z" fill="#DDE3E9"/>
<path fill-rule="evenodd" clip-rule="evenodd" d="M107.566 116.469C111.067 116.469 113.906 113.63 113.906 110.129C113.906 106.627 111.067 103.789 107.566 103.789C104.064 103.789 101.226 106.627 101.226 110.129C101.226 113.63 104.064 116.469 107.566 116.469Z" fill="#C5CFD6"/>
<path d="M400.278 35.1016H128.172C125.837 35.1016 123.945 36.994 123.945 39.3284V272.864C123.945 275.198 125.837 277.091 128.172 277.091H400.278C402.612 277.091 404.504 275.198 404.504 272.864V39.3284C404.504 36.994 402.612 35.1016 400.278 35.1016Z" fill="#F2F2F2"/>
<path d="M370.692 72.6152H332.365C330.03 72.6152 328.138 74.5077 328.138 76.8421V118.235C328.138 120.569 330.03 122.461 332.365 122.461H370.692C373.027 122.461 374.919 120.569 374.919 118.235V76.8421C374.919 74.5077 373.027 72.6152 370.692 72.6152Z" fill="white"/>
<path fill-rule="evenodd" clip-rule="evenodd" d="M351.528 101.538C357.434 101.538 362.221 97.1301 362.221 91.6922C362.221 86.2543 357.434 81.8462 351.528 81.8462C345.623 81.8462 340.835 86.2543 340.835 91.6922C340.835 97.1301 345.623 101.538 351.528 101.538Z" fill="#DDE3E9"/>
<path d="M366.39 104H336.667C335.648 104 334.821 104.827 334.821 105.846C334.821 106.866 335.648 107.692 336.667 107.692H366.39C367.41 107.692 368.236 106.866 368.236 105.846C368.236 104.827 367.41 104 366.39 104Z" fill="#DDE3E9"/>
<path d="M361.043 110.154H342.013C340.994 110.154 340.167 110.98 340.167 112C340.167 113.02 340.994 113.846 342.013 113.846H361.043C362.063 113.846 362.889 113.02 362.889 112C362.889 110.98 362.063 110.154 361.043 110.154Z" fill="#DDE3E9"/>
<path d="M123.945 50.3807C123.945 48.0459 125.837 46.1538 128.172 46.1538H400.278C402.612 46.1538 404.504 48.0459 404.504 50.3807V62.7692H123.945V50.3807Z" fill="#C5CFD6"/>
<path fill-rule="evenodd" clip-rule="evenodd" d="M170.418 57.2304C171.894 57.2304 173.091 56.1287 173.091 54.7692C173.091 53.4098 171.894 52.3076 170.418 52.3076C168.941 52.3076 167.744 53.4098 167.744 54.7692C167.744 56.1287 168.941 57.2304 170.418 57.2304Z" fill="#F2F2F2"/>
<path fill-rule="evenodd" clip-rule="evenodd" d="M178.438 57.2304C179.914 57.2304 181.111 56.1287 181.111 54.7692C181.111 53.4098 179.914 52.3076 178.438 52.3076C176.961 52.3076 175.765 53.4098 175.765 54.7692C175.765 56.1287 176.961 57.2304 178.438 57.2304Z" fill="#F2F2F2"/>
<path fill-rule="evenodd" clip-rule="evenodd" d="M186.457 57.2304C187.933 57.2304 189.13 56.1287 189.13 54.7692C189.13 53.4098 187.933 52.3076 186.457 52.3076C184.98 52.3076 183.784 53.4098 183.784 54.7692C183.784 56.1287 184.98 57.2304 186.457 57.2304Z" fill="#F2F2F2"/>
<path d="M370.692 127.385H332.365C330.03 127.385 328.138 129.277 328.138 131.612V242.543C328.138 244.877 330.03 246.769 332.365 246.769H370.692C373.027 246.769 374.919 244.877 374.919 242.543V131.612C374.919 129.277 373.027 127.385 370.692 127.385Z" fill="white"/>
<path d="M360.776 138.462H342.28C341.113 138.462 340.167 139.408 340.167 140.575V152.348C340.167 153.516 341.113 154.462 342.28 154.462H360.776C361.943 154.462 362.889 153.516 362.889 152.348V140.575C362.889 139.408 361.943 138.462 360.776 138.462Z" fill="#DDE3E9"/>
<path d="M360.776 159.385H342.28C341.113 159.385 340.167 160.331 340.167 161.498V172.656C340.167 173.823 341.113 174.769 342.28 174.769H360.776C361.943 174.769 362.889 173.823 362.889 172.656V161.498C362.889 160.331 361.943 159.385 360.776 159.385Z" fill="#AFB9C5"/>
<path d="M360.776 179.692H342.28C341.113 179.692 340.167 180.639 340.167 181.806V192.964C340.167 194.131 341.113 195.077 342.28 195.077H360.776C361.943 195.077 362.889 194.131 362.889 192.964V181.806C362.889 180.639 361.943 179.692 360.776 179.692Z" fill="#DDE3E9"/>
<path d="M360.776 220.307H342.28C341.113 220.307 340.167 221.253 340.167 222.421V233.578C340.167 234.746 341.113 235.692 342.28 235.692H360.776C361.943 235.692 362.889 234.746 362.889 233.578V222.421C362.889 221.253 361.943 220.307 360.776 220.307Z" fill="#DDE3E9"/>
<path d="M360.776 200H342.28C341.113 200 340.167 200.946 340.167 202.113V213.271C340.167 214.438 341.113 215.385 342.28 215.385H360.776C361.943 215.385 362.889 214.438 362.889 213.271V202.113C362.889 200.946 361.943 200 360.776 200Z" fill="#C5CFD6"/>
<path d="M352.725 58.3496H134.512C133.345 58.3496 132.399 59.2958 132.399 60.4631V140.246C132.399 141.413 133.345 142.359 134.512 142.359H352.725C353.893 142.359 354.839 141.413 354.839 140.246V60.4631C354.839 59.2958 353.893 58.3496 352.725 58.3496Z" fill="white"/>
<path d="M288.459 81.9077H180.023C179.147 81.9077 178.438 82.6174 178.438 83.4928V84.6611C178.438 85.5365 179.147 86.2462 180.023 86.2462H288.459C289.335 86.2462 290.044 85.5365 290.044 84.6611V83.4928C290.044 82.6174 289.335 81.9077 288.459 81.9077Z" fill="#DDE3E9"/>
<path d="M251.767 89.1382H180.023C179.147 89.1382 178.438 89.8478 178.438 90.7233V91.8916C178.438 92.767 179.147 93.4766 180.023 93.4766H251.767C252.642 93.4766 253.352 92.767 253.352 91.8916V90.7233C253.352 89.8478 252.642 89.1382 251.767 89.1382Z" fill="#DDE3E9"/>
<path fill-rule="evenodd" clip-rule="evenodd" d="M306.721 91.9997C309.305 91.9997 311.399 90.0712 311.399 87.692C311.399 85.3133 309.305 83.3843 306.721 83.3843C304.137 83.3843 302.043 85.3133 302.043 87.692C302.043 90.0712 304.137 91.9997 306.721 91.9997Z" fill="#DDE3E9"/>
<path fill-rule="evenodd" clip-rule="evenodd" d="M306.721 89.5384C307.829 89.5384 308.727 88.712 308.727 87.6923C308.727 86.6731 307.829 85.8462 306.721 85.8462C305.614 85.8462 304.717 86.6731 304.717 87.6923C304.717 88.712 305.614 89.5384 306.721 89.5384Z" fill="#F2F2F2"/>
<path d="M288.459 114.277H180.023C179.147 114.277 178.438 114.987 178.438 115.862V116.292C178.438 117.168 179.147 117.877 180.023 117.877H288.459C289.335 117.877 290.044 117.168 290.044 116.292V115.862C290.044 114.987 289.335 114.277 288.459 114.277Z" fill="#DDE3E9"/>
<path d="M251.767 120.277H180.023C179.147 120.277 178.438 120.987 178.438 121.862V122.292C178.438 123.167 179.147 123.877 180.023 123.877H251.767C252.642 123.877 253.352 123.167 253.352 122.292V121.862C253.352 120.987 252.642 120.277 251.767 120.277Z" fill="#DDE3E9"/>
<path fill-rule="evenodd" clip-rule="evenodd" d="M306.721 123.384C309.305 123.384 311.399 121.456 311.399 119.077C311.399 116.698 309.305 114.769 306.721 114.769C304.137 114.769 302.043 116.698 302.043 119.077C302.043 121.456 304.137 123.384 306.721 123.384Z" fill="#DDE3E9"/>
<path fill-rule="evenodd" clip-rule="evenodd" d="M306.721 120.923C307.829 120.923 308.727 120.096 308.727 119.077C308.727 118.057 307.829 117.23 306.721 117.23C305.614 117.23 304.717 118.057 304.717 119.077C304.717 120.096 305.614 120.923 306.721 120.923Z" fill="#F2F2F2"/>
<path d="M352.725 186.741H134.512C133.345 186.741 132.399 187.687 132.399 188.855V264.41C132.399 265.577 133.345 266.524 134.512 266.524H352.725C353.893 266.524 354.839 265.577 354.839 264.41V188.855C354.839 187.687 353.893 186.741 352.725 186.741Z" fill="white"/>
<path d="M288.459 229.969H180.023C179.147 229.969 178.438 230.679 178.438 231.554V231.984C178.438 232.86 179.147 233.569 180.023 233.569H288.459C289.335 233.569 290.044 232.86 290.044 231.984V231.554C290.044 230.679 289.335 229.969 288.459 229.969Z" fill="#DDE3E9"/>
<path d="M251.767 235.969H180.023C179.147 235.969 178.438 236.679 178.438 237.554V237.984C178.438 238.86 179.147 239.569 180.023 239.569H251.767C252.642 239.569 253.352 238.86 253.352 237.984V237.554C253.352 236.679 252.642 235.969 251.767 235.969Z" fill="#DDE3E9"/>
<path fill-rule="evenodd" clip-rule="evenodd" d="M306.721 239.077C309.305 239.077 311.399 237.148 311.399 234.769C311.399 232.39 309.305 230.461 306.721 230.461C304.137 230.461 302.043 232.39 302.043 234.769C302.043 237.148 304.137 239.077 306.721 239.077Z" fill="#DDE3E9"/>
<path fill-rule="evenodd" clip-rule="evenodd" d="M306.721 236.616C307.829 236.616 308.727 235.789 308.727 234.769C308.727 233.75 307.829 232.923 306.721 232.923C305.614 232.923 304.717 233.75 304.717 234.769C304.717 235.789 305.614 236.616 306.721 236.616Z" fill="#F2F2F2"/>
<path fill-rule="evenodd" clip-rule="evenodd" d="M31.3685 194.914C43.8436 214.186 58.373 232.845 67.0983 253.915C66.7464 251.432 66.3739 248.951 65.9565 246.473C63.7427 233.341 60.991 220.304 58.0993 207.283C56.6267 200.653 55.0696 194.047 53.4724 187.442C52.6133 183.895 51.7647 180.345 50.8882 176.801C50.6758 175.942 50.493 174.442 50.2272 172.923C58.7069 198.546 66.8843 224.188 72.8654 250.426C73.6505 253.869 74.3184 257.307 74.8657 260.739C75.0533 259.956 75.2372 259.172 75.439 258.392C77.8589 249.034 81.4893 239.75 85.8118 231C87.8782 226.815 90.2521 222.722 93.0466 218.908C94.7892 216.531 98.8993 213.705 100.489 211.27C91.7944 225.954 88.6549 244.327 83.6349 260.291C82.4097 264.187 81.1765 268.076 79.9686 271.973C87.539 257.992 99.2855 246.506 115.617 241.527C95.848 253.555 83.9911 274.618 76.0007 296.16C75.9742 296.415 75.9431 296.671 75.9161 296.926C78.2673 292.817 81.2288 289.101 85.2433 286.498C93.8344 280.926 103.364 282.549 111.698 287.329C105.158 283.501 93.3372 286.987 87.8338 290.878C83.8938 293.663 80.5271 297.4 77.6032 301.046C76.9026 301.92 75.9468 302.939 74.9371 304.027C73.5216 312.489 71.2142 320.893 67.9479 329.23C68.4868 326.838 68.0974 323.01 68.247 321.226C68.2628 321.033 68.276 320.84 68.2924 320.648C67.7957 322.473 67.316 324.278 66.8542 326.053C67.7725 322.665 68.2713 319.128 68.6607 315.554C68.7611 314.018 68.8588 312.483 68.9624 310.947C68.9296 308.033 68.7991 305.107 68.5788 302.176C67.7968 299.328 66.9218 296.641 66.1996 294.407C63.5947 286.344 59.7758 278.621 55.0755 271.416C50.7868 264.841 45.6532 258.885 39.7271 253.498C36.5321 250.595 33.1887 247.83 29.8923 245.027C28.7003 244.014 26.5697 241.522 24.7271 240.223C38.1468 247.036 51.9597 254.406 61.7497 265.383C60.6016 261.324 59.3552 257.324 58.0364 253.403C51.3463 233.511 42.8994 212.894 31.3685 194.914Z" fill="#DDE3E9"/>
<path fill-rule="evenodd" clip-rule="evenodd" d="M44.7764 299.23C44.7764 321.322 46.6764 339.231 72.1772 339.231C97.6774 339.231 99.5774 321.322 99.5774 299.23" fill="#C5CFD6"/>
<path d="M330.967 19.6924H330.655C329.634 19.6924 328.806 20.5203 328.806 21.5416V33.2277C328.806 34.249 329.634 35.077 330.655 35.077H330.967C331.988 35.077 332.816 34.249 332.816 33.2277V21.5416C332.816 20.5203 331.988 19.6924 330.967 19.6924Z" fill="#DDE3E9"/>
<path d="M340.323 9.84619H340.011C338.99 9.84619 338.162 10.6741 338.162 11.6955V33.2277C338.162 34.249 338.99 35.077 340.011 35.077H340.323C341.344 35.077 342.172 34.249 342.172 33.2277V11.6955C342.172 10.6741 341.344 9.84619 340.323 9.84619Z" fill="#DDE3E9"/>
<path d="M349.679 4.92285H349.368C348.346 4.92285 347.519 5.75079 347.519 6.77211V33.2275C347.519 34.2488 348.346 35.0767 349.368 35.0767H349.679C350.7 35.0767 351.528 34.2488 351.528 33.2275V6.77211C351.528 5.75079 350.7 4.92285 349.679 4.92285Z" fill="#DDE3E9"/>
<path d="M359.035 9.84619H358.724C357.702 9.84619 356.875 10.6741 356.875 11.6955V33.2277C356.875 34.249 357.702 35.077 358.724 35.077H359.035C360.056 35.077 360.884 34.249 360.884 33.2277V11.6955C360.884 10.6741 360.056 9.84619 359.035 9.84619Z" fill="#DDE3E9"/>
<path d="M368.392 0H368.08C367.059 0 366.231 0.827941 366.231 1.84926V33.2277C366.231 34.249 367.059 35.0769 368.08 35.0769H368.392C369.413 35.0769 370.241 34.249 370.241 33.2277V1.84926C370.241 0.827941 369.413 0 368.392 0Z" fill="#C5CFD6"/>
<path fill-rule="evenodd" clip-rule="evenodd" d="M0 188.465C0 181.611 6.01607 176 13.3661 176V188.465L4.23169 197.538C1.63337 195.32 0 192.066 0 188.465Z" fill="#F2F2F2"/>
<path fill-rule="evenodd" clip-rule="evenodd" d="M13.0121 188.308H26.51C26.51 191.521 25.0866 194.531 22.8365 196.719C20.3617 199.111 16.8374 200.615 13.0121 200.615C9.48845 200.615 6.26313 199.317 3.7876 197.265L13.0121 188.308Z" fill="#AFB9C5"/>
<path fill-rule="evenodd" clip-rule="evenodd" d="M26.7322 188.308C26.7322 181.539 20.7161 176 13.3661 176V188.308H26.7322ZM6.68302 176L12.0295 187.077L0 182.154C1.18955 179.282 3.86078 177.095 6.68302 176Z" fill="#C5CFD6"/>
<path fill-rule="evenodd" clip-rule="evenodd" d="M434.91 193.957C433.626 195.212 431.807 196 429.783 196C425.895 196 422.744 193.107 422.744 189.539C422.744 185.97 425.895 183.077 429.783 183.077V171.077C418.723 171.077 409.67 179.387 409.67 189.539C409.67 199.691 418.723 208 429.783 208C435.593 208 440.843 205.744 444.422 202.155L434.91 193.957Z" fill="#F2F2F2"/>
<path fill-rule="evenodd" clip-rule="evenodd" d="M429.72 171.077V183.077C433.595 183.077 436.737 185.97 436.737 189.539H449.769C449.769 179.387 440.745 171.077 429.72 171.077Z" fill="#FF8427"/>
<path fill-rule="evenodd" clip-rule="evenodd" d="M436.468 189.539C436.468 191.635 435.395 193.499 433.729 194.702L441.924 204.308C446.694 200.869 449.769 195.538 449.769 189.539H436.468Z" fill="#C5CFD6"/>
<path fill-rule="evenodd" clip-rule="evenodd" d="M307.455 24.3098C306.467 25.2725 305.068 25.8769 303.511 25.8769C300.52 25.8769 298.096 23.6589 298.096 20.923C298.096 18.1869 300.52 15.969 303.511 15.969V6.76904C295.003 6.76904 288.04 13.1396 288.04 20.923C288.04 28.7063 295.003 35.0768 303.511 35.0768C307.98 35.0768 312.019 33.3469 314.772 30.5957L307.455 24.3098Z" fill="#F2F2F2"/>
<path fill-rule="evenodd" clip-rule="evenodd" d="M303.411 6.76904V15.969C306.382 15.969 308.79 18.1869 308.79 20.923H318.782C318.782 13.1396 311.863 6.76904 303.411 6.76904Z" fill="#AFB9C5"/>
<path fill-rule="evenodd" clip-rule="evenodd" d="M308.806 20.9233C308.806 22.4957 308.002 23.8933 306.752 24.7957L312.898 31.9999C316.475 29.421 318.782 25.4229 318.782 20.9233H308.806Z" fill="#C5CFD6"/>
<path fill-rule="evenodd" clip-rule="evenodd" d="M64.1621 35.0683C64.1594 35.0749 64.1567 35.0808 64.1523 35.0885C64.1567 35.0825 64.1621 35.0569 64.1621 35.0683Z" fill="#C5CFD6"/>
<path fill-rule="evenodd" clip-rule="evenodd" d="M64.1559 35.0784C64.1559 35.0795 64.1548 35.0823 64.1548 35.0846C64.1548 35.0784 64.1677 35.0586 64.1559 35.0784Z" fill="#C5CFD6"/>
<path fill-rule="evenodd" clip-rule="evenodd" d="M64.2018 34.9736C64.1923 34.9979 64.1807 35.0212 64.1696 35.046C64.1754 35.0339 64.1807 35.0238 64.186 35.0117C64.047 35.3313 64.1353 35.1237 64.2018 34.9736Z" fill="#C5CFD6"/>
<path fill-rule="evenodd" clip-rule="evenodd" d="M64.1722 35.0479C64.1664 35.0589 64.1611 35.0711 64.1558 35.0822C64.1172 35.1514 64.1722 35.0479 64.1722 35.0479Z" fill="#C5CFD6"/>
<path fill-rule="evenodd" clip-rule="evenodd" d="M64.1567 35.0785C64.1567 35.0771 64.1567 35.0771 64.1588 35.0757C64.1567 35.0771 64.1567 35.0771 64.1567 35.0785Z" fill="#C5CFD6"/>
<path fill-rule="evenodd" clip-rule="evenodd" d="M64.1504 35.0877C64.1422 35.103 64.189 35.0296 64.1504 35.0877V35.0877Z" fill="#C5CFD6"/>
<path fill-rule="evenodd" clip-rule="evenodd" d="M64.1558 35.0785L64.1593 35.0757C64.1572 35.0771 64.1572 35.0785 64.1558 35.0785Z" fill="#C5CFD6"/>
<path d="M93.4536 3.07666H34.1916C33.0243 3.07666 32.0781 4.02288 32.0781 5.1901V39.7325C32.0781 40.8997 33.0243 41.8459 34.1916 41.8459H93.4536C94.6208 41.8459 95.567 40.8997 95.567 39.7325V5.1901C95.567 4.02288 94.6208 3.07666 93.4536 3.07666Z" fill="#DDE3E9"/>
<path fill-rule="evenodd" clip-rule="evenodd" d="M56.1372 14.1538L37.4248 41.8463H74.8497L56.1372 14.1538Z" fill="#AFB9C5"/>
<path fill-rule="evenodd" clip-rule="evenodd" d="M74.5165 21.5381L58.1426 41.8462H90.8899L74.5165 21.5381Z" fill="#C5CFD6"/>
<path fill-rule="evenodd" clip-rule="evenodd" d="M81.5334 21.5381C84.8552 21.5381 87.5483 19.0587 87.5483 15.9999C87.5483 12.9411 84.8552 10.4614 81.5334 10.4614C78.2116 10.4614 75.5186 12.9411 75.5186 15.9999C75.5186 19.0587 78.2116 21.5381 81.5334 21.5381Z" fill="white"/>
<path fill-rule="evenodd" clip-rule="evenodd" d="M382.934 297.838C382.937 297.844 382.94 297.851 382.944 297.859C382.94 297.852 382.934 297.826 382.934 297.838Z" fill="#C5CFD6"/>
<path fill-rule="evenodd" clip-rule="evenodd" d="M382.941 297.847C382.941 297.849 382.942 297.851 382.942 297.854C382.942 297.847 382.929 297.828 382.941 297.847Z" fill="#C5CFD6"/>
<path fill-rule="evenodd" clip-rule="evenodd" d="M382.894 297.742C382.904 297.767 382.915 297.79 382.926 297.815C382.921 297.802 382.915 297.793 382.91 297.78C383.049 298.1 382.961 297.892 382.894 297.742Z" fill="#C5CFD6"/>
<path fill-rule="evenodd" clip-rule="evenodd" d="M382.924 297.817C382.929 297.828 382.934 297.841 382.94 297.852C382.978 297.921 382.924 297.817 382.924 297.817Z" fill="#C5CFD6"/>
<path fill-rule="evenodd" clip-rule="evenodd" d="M382.94 297.848C382.94 297.846 382.94 297.846 382.938 297.845C382.94 297.846 382.94 297.846 382.94 297.848Z" fill="#C5CFD6"/>
<path fill-rule="evenodd" clip-rule="evenodd" d="M382.946 297.857C382.954 297.872 382.908 297.799 382.946 297.857V297.857Z" fill="#C5CFD6"/>
<path fill-rule="evenodd" clip-rule="evenodd" d="M382.94 297.848L382.937 297.845C382.939 297.846 382.939 297.848 382.94 297.848Z" fill="#C5CFD6"/>
<path d="M337.602 250.461H428.275C429.442 250.461 430.388 251.408 430.388 252.575V306.194C430.388 307.361 429.442 308.307 428.275 308.307H337.602C336.435 308.307 335.489 307.361 335.489 306.194V252.575C335.489 251.408 336.435 250.461 337.602 250.461Z" fill="#DDE3E9"/>
<path fill-rule="evenodd" clip-rule="evenodd" d="M395.151 267.077L422.588 308.308H367.714L395.151 267.077Z" fill="#AFB9C5"/>
<path fill-rule="evenodd" clip-rule="evenodd" d="M366.862 278.121L391.118 308.308H342.606L366.862 278.121Z" fill="#C5CFD6"/>
<path fill-rule="evenodd" clip-rule="evenodd" d="M356.541 278.154C351.558 278.154 347.519 274.435 347.519 269.846C347.519 265.258 351.558 261.539 356.541 261.539C361.523 261.539 365.563 265.258 365.563 269.846C365.563 274.435 361.523 278.154 356.541 278.154Z" fill="white"/>
</svg>
