<svg width="483" height="315" viewBox="0 0 483 315" fill="none" xmlns="http://www.w3.org/2000/svg">
<path fill-rule="evenodd" clip-rule="evenodd" d="M2.57408 250.742C14.1127 195.186 130.87 226.835 207.416 209.66C283.961 192.485 374.52 112.495 434.454 151.678C494.385 190.861 430.618 285.577 293.156 306.951C155.694 328.325 -8.96461 306.299 2.57408 250.742Z" fill="#F2F2F2"/>
<g clip-path="url(#clip0)">
<path d="M432.265 0H73.2346C67.5822 0 63 4.60152 63 10.2778V211.722C63 217.398 67.5822 222 73.2346 222H432.265C437.918 222 442.5 217.398 442.5 211.722V10.2778C442.5 4.60152 437.918 0 432.265 0Z" fill="#F2F4F8"/>
<path d="M430.218 4.11182H174.352C169.83 4.11182 166.165 7.79303 166.165 12.334V209.667C166.165 214.208 169.83 217.89 174.352 217.89H430.218C434.74 217.89 438.406 214.208 438.406 209.667V12.334C438.406 7.79303 434.74 4.11182 430.218 4.11182Z" fill="white"/>
<path d="M144.672 45.2227H84.4927C83.3622 45.2227 82.4458 46.143 82.4458 47.2782C82.4458 48.4135 83.3622 49.3338 84.4927 49.3338H144.672C145.803 49.3338 146.719 48.4135 146.719 47.2782C146.719 46.143 145.803 45.2227 144.672 45.2227Z" fill="#565F73" fill-opacity="0.2"/>
<path d="M313.953 96.6108H277.108C275.978 96.6108 275.062 97.5311 275.062 98.6664C275.062 99.8017 275.978 100.722 277.108 100.722H313.953C315.084 100.722 316 99.8017 316 98.6664C316 97.5311 315.084 96.6108 313.953 96.6108Z" fill="#565F73" fill-opacity="0.2"/>
<path d="M365.126 96.6108H328.282C327.151 96.6108 326.235 97.5311 326.235 98.6664C326.235 99.8017 327.151 100.722 328.282 100.722H365.126C366.257 100.722 367.173 99.8017 367.173 98.6664C367.173 97.5311 366.257 96.6108 365.126 96.6108Z" fill="#565F73" fill-opacity="0.2"/>
<path d="M416.3 96.6108H379.455C378.325 96.6108 377.408 97.5311 377.408 98.6664C377.408 99.8017 378.325 100.722 379.455 100.722H416.3C417.43 100.722 418.347 99.8017 418.347 98.6664C418.347 97.5311 417.43 96.6108 416.3 96.6108Z" fill="#565F73" fill-opacity="0.2"/>
<path d="M416.3 10.2773H379.455C378.325 10.2773 377.408 11.1976 377.408 12.3329C377.408 13.4682 378.325 14.3885 379.455 14.3885H416.3C417.43 14.3885 418.347 13.4682 418.347 12.3329C418.347 11.1976 417.43 10.2773 416.3 10.2773Z" fill="#565F73" fill-opacity="0.2"/>
<path d="M200.553 10.2773H188.681C186.985 10.2773 185.611 11.6578 185.611 13.3607V25.2829C185.611 26.9857 186.985 28.3662 188.681 28.3662H200.553C202.249 28.3662 203.624 26.9857 203.624 25.2829V13.3607C203.624 11.6578 202.249 10.2773 200.553 10.2773Z" fill="#565F73" fill-opacity="0.2"/>
<path d="M144.672 65.7773H84.4927C83.3622 65.7773 82.4458 66.6976 82.4458 67.8329C82.4458 68.9681 83.3622 69.8885 84.4927 69.8885H144.672C145.803 69.8885 146.719 68.9681 146.719 67.8329C146.719 66.6976 145.803 65.7773 144.672 65.7773Z" fill="#565F73" fill-opacity="0.2"/>
<path d="M144.672 86.333H84.4927C83.3622 86.333 82.4458 87.2533 82.4458 88.3886C82.4458 89.5238 83.3622 90.4441 84.4927 90.4441H144.672C145.803 90.4441 146.719 89.5238 146.719 88.3886C146.719 87.2533 145.803 86.333 144.672 86.333Z" fill="#565F73" fill-opacity="0.2"/>
<path d="M144.672 106.888H84.4927C83.3622 106.888 82.4458 107.808 82.4458 108.944C82.4458 110.079 83.3622 110.999 84.4927 110.999H144.672C145.803 110.999 146.719 110.079 146.719 108.944C146.719 107.808 145.803 106.888 144.672 106.888Z" fill="#565F73" fill-opacity="0.2"/>
<path d="M415.276 148H278.132C276.436 148 275.062 149.38 275.062 151.083V165.883C275.062 167.586 276.436 168.966 278.132 168.966H415.276C416.972 168.966 418.346 167.586 418.346 165.883V151.083C418.346 149.38 416.972 148 415.276 148Z" fill="#F2F4F8"/>
<path d="M415.276 117.167H278.132C276.436 117.167 275.062 118.547 275.062 120.25V135.05C275.062 136.753 276.436 138.134 278.132 138.134H415.276C416.972 138.134 418.346 136.753 418.346 135.05V120.25C418.346 118.547 416.972 117.167 415.276 117.167Z" fill="#F2F4F8"/>
<path d="M301.262 180.889H278.132C276.436 180.889 275.062 182.27 275.062 183.972V186.028C275.062 187.731 276.436 189.111 278.132 189.111H301.262C302.958 189.111 304.333 187.731 304.333 186.028V183.972C304.333 182.27 302.958 180.889 301.262 180.889Z" fill="#F2F4F8"/>
<path d="M335.65 180.889H312.52C310.824 180.889 309.45 182.27 309.45 183.972V186.028C309.45 187.731 310.824 189.111 312.52 189.111H335.65C337.346 189.111 338.721 187.731 338.721 186.028V183.972C338.721 182.27 337.346 180.889 335.65 180.889Z" fill="#F2F4F8"/>
<path d="M370.039 180.889H346.909C345.213 180.889 343.838 182.27 343.838 183.972V186.028C343.838 187.731 345.213 189.111 346.909 189.111H370.039C371.735 189.111 373.109 187.731 373.109 186.028V183.972C373.109 182.27 371.735 180.889 370.039 180.889Z" fill="#F2F4F8"/>
<path d="M218.362 45.7368H193.799C189.559 45.7368 186.123 49.188 186.123 53.4452V78.1119C186.123 82.3691 189.559 85.8202 193.799 85.8202H218.362C222.601 85.8202 226.038 82.3691 226.038 78.1119V53.4452C226.038 49.188 222.601 45.7368 218.362 45.7368Z" fill="white" stroke="#F2F4F8" stroke-width="5"/>
<path d="M315.488 65.7785C315.488 54.7098 306.553 45.7368 295.531 45.7368C284.509 45.7368 275.573 54.7098 275.573 65.7785C275.573 76.8472 284.509 85.8202 295.531 85.8202C306.553 85.8202 315.488 76.8472 315.488 65.7785Z" fill="#F2F4F8" stroke="#F2F4F8" stroke-width="5"/>
<path d="M366.662 65.7785C366.662 54.7098 357.726 45.7368 346.704 45.7368C335.682 45.7368 326.747 54.7098 326.747 65.7785C326.747 76.8472 335.682 85.8202 346.704 85.8202C357.726 85.8202 366.662 76.8472 366.662 65.7785Z" fill="#F2F4F8" stroke="#F2F4F8" stroke-width="5"/>
<path d="M417.834 65.7785C417.834 54.7098 408.899 45.7368 397.877 45.7368C386.855 45.7368 377.919 54.7098 377.919 65.7785C377.919 76.8472 386.855 85.8202 397.877 85.8202C408.899 85.8202 417.834 76.8472 417.834 65.7785Z" fill="#F2F4F8" stroke="#F2F4F8" stroke-width="5"/>
<path d="M218.362 97.125H193.799C189.559 97.125 186.123 100.576 186.123 104.833V129.5C186.123 133.757 189.559 137.208 193.799 137.208H218.362C222.601 137.208 226.038 133.757 226.038 129.5V104.833C226.038 100.576 222.601 97.125 218.362 97.125Z" fill="white" stroke="#F2F4F8" stroke-width="5"/>
<path d="M218.362 148.513H193.799C189.559 148.513 186.123 151.964 186.123 156.222V180.888C186.123 185.145 189.559 188.597 193.799 188.597H218.362C222.601 188.597 226.038 185.145 226.038 180.888V156.222C226.038 151.964 222.601 148.513 218.362 148.513Z" fill="white" stroke="#F2F4F8" stroke-width="5"/>
<path d="M77.3287 12.3329C77.3287 11.1976 76.4123 10.2773 75.2818 10.2773C74.1513 10.2773 73.2349 11.1976 73.2349 12.3329C73.2349 13.4682 74.1513 14.3885 75.2818 14.3885C76.4123 14.3885 77.3287 13.4682 77.3287 12.3329Z" fill="#565F73" fill-opacity="0.2"/>
<path d="M85.5157 12.3329C85.5157 11.1976 84.5993 10.2773 83.4688 10.2773C82.3383 10.2773 81.4219 11.1976 81.4219 12.3329C81.4219 13.4682 82.3383 14.3885 83.4688 14.3885C84.5993 14.3885 85.5157 13.4682 85.5157 12.3329Z" fill="#565F73" fill-opacity="0.2"/>
<path d="M93.7037 12.3329C93.7037 11.1976 92.7873 10.2773 91.6568 10.2773C90.5263 10.2773 89.6099 11.1976 89.6099 12.3329C89.6099 13.4682 90.5263 14.3885 91.6568 14.3885C92.7873 14.3885 93.7037 13.4682 93.7037 12.3329Z" fill="#565F73" fill-opacity="0.2"/>
</g>
<g clip-path="url(#clip1)" filter="url(#filter0_d)">
<path d="M220.958 127.5H26.5421C23.4813 127.5 21 129.987 21 133.056V241.944C21 245.013 23.4813 247.5 26.5421 247.5H220.958C224.019 247.5 226.5 245.013 226.5 241.944V133.056C226.5 129.987 224.019 127.5 220.958 127.5Z" fill="#F2F4F8"/>
<path d="M219.85 129.722H81.2979C78.8493 129.722 76.8643 131.712 76.8643 134.167V240.833C76.8643 243.288 78.8493 245.278 81.2979 245.278H219.85C222.298 245.278 224.283 243.288 224.283 240.833V134.167C224.283 131.712 222.298 129.722 219.85 129.722Z" fill="white"/>
<path d="M65.2256 151.944H32.6382C32.026 151.944 31.5298 152.442 31.5298 153.055C31.5298 153.669 32.026 154.167 32.6382 154.167H65.2256C65.8377 154.167 66.334 153.669 66.334 153.055C66.334 152.442 65.8377 151.944 65.2256 151.944Z" fill="#565F73" fill-opacity="0.2"/>
<path d="M156.892 179.722H136.94C136.328 179.722 135.832 180.22 135.832 180.833C135.832 181.447 136.328 181.944 136.94 181.944H156.892C157.504 181.944 158 181.447 158 180.833C158 180.22 157.504 179.722 156.892 179.722Z" fill="#565F73" fill-opacity="0.2"/>
<path d="M184.602 179.722H164.651C164.039 179.722 163.542 180.22 163.542 180.833C163.542 181.447 164.039 181.944 164.651 181.944H184.602C185.215 181.944 185.711 181.447 185.711 180.833C185.711 180.22 185.215 179.722 184.602 179.722Z" fill="#565F73" fill-opacity="0.2"/>
<path d="M212.312 179.722H192.361C191.749 179.722 191.252 180.22 191.252 180.833C191.252 181.447 191.749 181.944 192.361 181.944H212.312C212.924 181.944 213.421 181.447 213.421 180.833C213.421 180.22 212.924 179.722 212.312 179.722Z" fill="#565F73" fill-opacity="0.2"/>
<path d="M212.312 133.056H192.361C191.749 133.056 191.252 133.553 191.252 134.167C191.252 134.78 191.749 135.278 192.361 135.278H212.312C212.924 135.278 213.421 134.78 213.421 134.167C213.421 133.553 212.924 133.056 212.312 133.056Z" fill="#565F73" fill-opacity="0.2"/>
<path d="M95.4855 133.056H89.0567C88.1384 133.056 87.394 133.802 87.394 134.722V141.167C87.394 142.087 88.1384 142.833 89.0567 142.833H95.4855C96.4037 142.833 97.1481 142.087 97.1481 141.167V134.722C97.1481 133.802 96.4037 133.056 95.4855 133.056Z" fill="#565F73" fill-opacity="0.2"/>
<path d="M65.2256 163.056H32.6382C32.026 163.056 31.5298 163.553 31.5298 164.167C31.5298 164.78 32.026 165.278 32.6382 165.278H65.2256C65.8377 165.278 66.334 164.78 66.334 164.167C66.334 163.553 65.8377 163.056 65.2256 163.056Z" fill="#565F73" fill-opacity="0.2"/>
<path d="M65.2256 174.167H32.6382C32.026 174.167 31.5298 174.664 31.5298 175.278C31.5298 175.891 32.026 176.389 32.6382 176.389H65.2256C65.8377 176.389 66.334 175.891 66.334 175.278C66.334 174.664 65.8377 174.167 65.2256 174.167Z" fill="#565F73" fill-opacity="0.2"/>
<path d="M65.2256 185.278H32.6382C32.026 185.278 31.5298 185.775 31.5298 186.389C31.5298 187.003 32.026 187.5 32.6382 187.5H65.2256C65.8377 187.5 66.334 187.003 66.334 186.389C66.334 185.775 65.8377 185.278 65.2256 185.278Z" fill="#565F73" fill-opacity="0.2"/>
<path d="M211.758 207.5H137.495C136.576 207.5 135.832 208.246 135.832 209.167V217.167C135.832 218.087 136.576 218.833 137.495 218.833H211.758C212.677 218.833 213.421 218.087 213.421 217.167V209.167C213.421 208.246 212.677 207.5 211.758 207.5Z" fill="#F2F4F8"/>
<path d="M211.758 190.833H137.495C136.576 190.833 135.832 191.58 135.832 192.5V200.5C135.832 201.421 136.576 202.167 137.495 202.167H211.758C212.677 202.167 213.421 201.421 213.421 200.5V192.5C213.421 191.58 212.677 190.833 211.758 190.833Z" fill="#F2F4F8"/>
<path d="M150.02 225.278H137.495C136.576 225.278 135.832 226.024 135.832 226.944V228.056C135.832 228.976 136.576 229.722 137.495 229.722H150.02C150.938 229.722 151.682 228.976 151.682 228.056V226.944C151.682 226.024 150.938 225.278 150.02 225.278Z" fill="#F2F4F8"/>
<path d="M168.641 225.278H156.116C155.198 225.278 154.453 226.024 154.453 226.944V228.056C154.453 228.976 155.198 229.722 156.116 229.722H168.641C169.559 229.722 170.303 228.976 170.303 228.056V226.944C170.303 226.024 169.559 225.278 168.641 225.278Z" fill="#F2F4F8"/>
<path d="M187.262 225.278H174.737C173.819 225.278 173.074 226.024 173.074 226.944V228.056C173.074 228.976 173.819 229.722 174.737 229.722H187.262C188.18 229.722 188.925 228.976 188.925 228.056V226.944C188.925 226.024 188.18 225.278 187.262 225.278Z" fill="#F2F4F8"/>
<path d="M105.128 152.222H91.8274C89.5318 152.222 87.6709 154.088 87.6709 156.389V169.722C87.6709 172.023 89.5318 173.889 91.8274 173.889H105.128C107.424 173.889 109.285 172.023 109.285 169.722V156.389C109.285 154.088 107.424 152.222 105.128 152.222Z" fill="white" stroke="#F2F4F8" stroke-width="5"/>
<path d="M157.723 163.056C157.723 157.072 152.884 152.222 146.916 152.222C140.947 152.222 136.109 157.072 136.109 163.056C136.109 169.039 140.947 173.889 146.916 173.889C152.884 173.889 157.723 169.039 157.723 163.056Z" fill="#F2F4F8" stroke="#F2F4F8" stroke-width="5"/>
<path d="M185.433 163.056C185.433 157.072 180.595 152.222 174.626 152.222C168.658 152.222 163.819 157.072 163.819 163.056C163.819 169.039 168.658 173.889 174.626 173.889C180.595 173.889 185.433 169.039 185.433 163.056Z" fill="#F2F4F8" stroke="#F2F4F8" stroke-width="5"/>
<path d="M213.144 163.056C213.144 157.072 208.305 152.222 202.337 152.222C196.368 152.222 191.53 157.072 191.53 163.056C191.53 169.039 196.368 173.889 202.337 173.889C208.305 173.889 213.144 169.039 213.144 163.056Z" fill="#F2F4F8" stroke="#F2F4F8" stroke-width="5"/>
<path d="M105.128 180H91.8274C89.5318 180 87.6709 181.865 87.6709 184.167V197.5C87.6709 199.801 89.5318 201.667 91.8274 201.667H105.128C107.424 201.667 109.285 199.801 109.285 197.5V184.167C109.285 181.865 107.424 180 105.128 180Z" fill="white" stroke="#F2F4F8" stroke-width="5"/>
<path d="M105.128 207.778H91.8274C89.5318 207.778 87.6709 209.643 87.6709 211.944V225.278C87.6709 227.579 89.5318 229.444 91.8274 229.444H105.128C107.424 229.444 109.285 227.579 109.285 225.278V211.944C109.285 209.643 107.424 207.778 105.128 207.778Z" fill="white" stroke="#F2F4F8" stroke-width="5"/>
<path d="M28.7588 134.167C28.7588 133.553 28.2626 133.056 27.6504 133.056C27.0382 133.056 26.542 133.553 26.542 134.167C26.542 134.78 27.0382 135.278 27.6504 135.278C28.2626 135.278 28.7588 134.78 28.7588 134.167Z" fill="#565F73" fill-opacity="0.2"/>
<path d="M33.1924 134.167C33.1924 133.553 32.6962 133.056 32.084 133.056C31.4718 133.056 30.9756 133.553 30.9756 134.167C30.9756 134.78 31.4718 135.278 32.084 135.278C32.6962 135.278 33.1924 134.78 33.1924 134.167Z" fill="#565F73" fill-opacity="0.2"/>
<path d="M37.6265 134.167C37.6265 133.553 37.1302 133.056 36.5181 133.056C35.9059 133.056 35.4097 133.553 35.4097 134.167C35.4097 134.78 35.9059 135.278 36.5181 135.278C37.1302 135.278 37.6265 134.78 37.6265 134.167Z" fill="#565F73" fill-opacity="0.2"/>
</g>
<path d="M63.6986 7.37113C65.0674 2.98612 69.1278 0 73.7216 0H432.75C441 0 443.25 8.25 442.5 14.25L225.064 132.094C223.546 133.016 221.818 133.538 220.043 133.611L36.6458 141.139C29.3883 141.436 24.0278 134.452 26.1922 127.519L63.6986 7.37113Z" fill="url(#paint0_linear)"/>
<path fill-rule="evenodd" clip-rule="evenodd" d="M475.175 99.7601C461.912 119.218 446.564 137.995 437.091 159.397C437.515 156.857 437.961 154.32 438.452 151.787C441.059 138.364 444.213 125.053 447.51 111.762C449.189 104.996 450.954 98.255 452.76 91.5164C453.731 87.8973 454.691 84.2758 455.68 80.6604C455.92 79.784 456.146 78.2496 456.457 76.6966C447.116 102.778 438.084 128.887 431.282 155.665C430.39 159.18 429.617 162.691 428.968 166.199C428.796 165.391 428.629 164.582 428.442 163.776C426.211 154.107 422.739 144.483 418.546 135.389C416.541 131.039 414.219 126.776 411.46 122.789C409.739 120.304 405.609 117.296 404.046 114.755C412.557 130.054 415.29 148.995 420.009 165.512C421.161 169.543 422.321 173.568 423.455 177.598C416.076 163.051 404.36 150.955 387.784 145.422C407.692 158.281 419.272 180.209 426.884 202.529C426.905 202.792 426.93 203.055 426.951 203.319C424.653 199.04 421.72 195.148 417.682 192.372C409.039 186.429 399.249 187.848 390.599 192.538C397.389 188.778 409.39 192.664 414.918 196.8C418.875 199.762 422.222 203.685 425.118 207.503C425.812 208.418 426.763 209.49 427.767 210.633C428.995 219.356 431.136 228.043 434.26 236.685C433.771 234.215 434.269 230.296 434.163 228.461C434.151 228.263 434.143 228.064 434.131 227.866C434.592 229.753 435.035 231.617 435.462 233.452C434.611 229.95 434.192 226.307 433.887 222.628C433.825 221.049 433.765 219.47 433.699 217.891C433.808 214.9 434.018 211.9 434.319 208.897C435.193 205.994 436.158 203.259 436.955 200.984C439.83 192.776 443.937 184.947 448.933 177.673C453.491 171.035 458.897 165.054 465.099 159.679C468.443 156.782 471.935 154.03 475.38 151.239C476.625 150.23 478.87 147.727 480.788 146.442C466.884 153.087 452.563 160.294 442.263 171.307C443.543 167.171 444.922 163.096 446.373 159.106C453.735 138.86 462.912 117.917 475.175 99.7601Z" fill="#DDE3E9"/>
<path fill-rule="evenodd" clip-rule="evenodd" d="M458.238 207.284C457.671 229.645 455.288 247.722 429.47 247.067C403.653 246.412 402.189 228.237 402.756 205.877" fill="#C5CFD6"/>
<defs>
<filter id="filter0_d" x="0" y="110.5" width="247.5" height="162" filterUnits="userSpaceOnUse" color-interpolation-filters="sRGB">
<feFlood flood-opacity="0" result="BackgroundImageFix"/>
<feColorMatrix in="SourceAlpha" type="matrix" values="0 0 0 0 0 0 0 0 0 0 0 0 0 0 0 0 0 0 127 0"/>
<feOffset dy="4"/>
<feGaussianBlur stdDeviation="10.5"/>
<feColorMatrix type="matrix" values="0 0 0 0 0 0 0 0 0 0 0 0 0 0 0 0 0 0 0.13 0"/>
<feBlend mode="normal" in2="BackgroundImageFix" result="effect1_dropShadow"/>
<feBlend mode="normal" in="SourceGraphic" in2="effect1_dropShadow" result="shape"/>
</filter>
<linearGradient id="paint0_linear" x1="234.177" y1="0" x2="234.177" y2="141.148" gradientUnits="userSpaceOnUse">
<stop stop-color="#FF8427" stop-opacity="0.13"/>
<stop offset="1" stop-color="#FF8427" stop-opacity="0"/>
</linearGradient>
<clipPath id="clip0">
<rect width="379.5" height="222" fill="white" transform="translate(63)"/>
</clipPath>
<clipPath id="clip1">
<rect width="205.5" height="120" fill="white" transform="translate(21 127.5)"/>
</clipPath>
</defs>
</svg>
