<svg width="423" height="308" viewBox="0 0 423 308" fill="none" xmlns="http://www.w3.org/2000/svg">
<path fill-rule="evenodd" clip-rule="evenodd" d="M3.52937 260.26C14.1694 219.122 121.834 242.557 192.418 229.84C263.002 217.122 346.508 157.893 401.775 186.907C457.038 215.92 398.237 286.053 271.481 301.88C144.724 317.707 -7.1107 301.397 3.52937 260.26Z" fill="#F2F2F2"/>
<g opacity="0.5">
<path opacity="0.5" fill-rule="evenodd" clip-rule="evenodd" d="M34.1725 31.0455C33.1463 31.8148 33.545 34.5491 33.5235 35.5607C33.4903 37.1363 33.6211 38.6972 33.7965 40.2669C33.9139 41.318 34.5768 51.347 36.4203 50.5769C37.4596 50.1428 36.8081 47.2414 36.8064 46.3241C36.8022 44.2837 36.6891 42.2488 36.5078 40.2131C36.3395 38.3233 36.2335 36.4558 36.3307 34.5622C36.3542 34.0999 36.9301 28.9714 34.1725 31.0455Z" fill="#89C5CC"/>
<path opacity="0.5" fill-rule="evenodd" clip-rule="evenodd" d="M78.8713 29.8086C70.0537 29.8616 61.2398 30.188 52.4259 30.3882C48.1849 30.4845 43.9469 30.6069 39.7101 30.7831C38.2666 30.8433 35.1705 30.4963 33.9679 31.0738C31.2979 32.3558 35.6037 32.6557 36.7515 32.6245C54.1933 32.1497 71.6415 31.5242 89.098 31.4948C97.6616 31.4805 106.221 31.6635 114.785 31.6222C118.058 31.6067 121.683 30.5476 122.51 33.4086C123.443 36.6367 122.371 40.2308 122.079 43.475C121.884 45.6403 121.954 47.7606 122.084 49.9242C122.167 51.3105 121.951 52.8722 122.276 54.2325C122.591 55.5423 123.845 56.328 124.995 54.8609C125.681 53.9839 125.34 51.819 125.386 50.8033C125.447 49.4354 125.389 48.068 125.389 46.6998C125.389 43.3602 126.017 40.034 125.934 36.6952C125.88 34.5421 125.728 30.6393 122.111 30.1219C118.128 29.552 113.232 30.1253 109.156 30.09C99.0568 30.0037 88.9744 29.7497 78.8713 29.8086Z" fill="#89C5CC"/>
<path opacity="0.5" fill-rule="evenodd" clip-rule="evenodd" d="M54.5738 50.696C51.2488 50.696 47.9239 50.7112 44.599 50.7524C41.7477 50.7881 37.2649 50.3419 34.6108 51.1078C32.7942 51.6319 32.3113 53.1549 34.6108 53.5604C37.1189 54.0029 40.8985 53.2794 43.5223 53.2449C56.6793 53.0704 69.9634 52.8432 83.102 53.4679C95.4132 54.0529 107.962 54.6203 120.291 54.0029C121.329 53.9507 126.619 53.7926 124.205 52.3036C122.797 51.4346 117.088 52.0062 115.258 51.9646C108.802 51.8186 102.339 51.7858 95.8852 51.6025C89.515 51.4207 83.1735 50.8832 76.8017 50.7499C69.3986 50.5955 61.9794 50.696 54.5738 50.696Z" fill="#89C5CC"/>
<path opacity="0.5" fill-rule="evenodd" clip-rule="evenodd" d="M51.2472 36.4985C56.4295 36.6684 61.5567 42.3109 56.313 45.0377C51.394 47.5967 42.1751 44.7925 44.9103 39.8305C44.517 40.5481 45.4074 39.0512 45.4188 39.0411C45.9387 38.5813 46.8729 38.072 47.5139 37.709C48.2478 37.2939 49.0116 36.8371 49.8962 36.6293C50.477 36.4926 50.3858 37.0062 51.2472 36.4985ZM48.7231 34.4631C46.2979 35.1744 45.1908 35.9765 43.524 37.4276C42.3706 38.432 40.9006 38.9603 40.9137 40.3176C40.9162 40.6179 41.4302 40.9481 41.5189 41.2375C41.6417 41.6375 41.4996 42.1498 41.5972 42.5746C42.6003 46.9586 49.5677 48.4366 54.6676 47.6089C59.1101 46.8879 62.4324 43.6863 61.4032 40.2049C60.3672 36.7004 53.4453 33.0768 48.7231 34.4631Z" fill="#89C5CC"/>
<path opacity="0.5" fill-rule="evenodd" clip-rule="evenodd" d="M46.563 40.5843C46.563 42.1615 49.8812 42.1615 49.8812 40.5843C49.8812 39.0251 46.563 38.9582 46.563 40.5843Z" fill="#89C5CC"/>
<path opacity="0.5" fill-rule="evenodd" clip-rule="evenodd" d="M50.7139 40.2636C50.7139 41.517 53.3507 41.517 53.3507 40.2636C53.3507 39.0245 50.7139 38.9719 50.7139 40.2636Z" fill="#89C5CC"/>
<path opacity="0.5" fill-rule="evenodd" clip-rule="evenodd" d="M51.5306 42.8492C50.6865 43.0927 49.6152 42.5875 48.922 42.9202C47.6947 43.5104 48.9254 44.0441 49.5832 44.2813C52.546 45.3484 53.073 42.4054 51.5306 42.8492Z" fill="#89C5CC"/>
<path opacity="0.5" fill-rule="evenodd" clip-rule="evenodd" d="M96.7757 39.3533C96.6874 39.3811 96.3728 39.4812 96.7757 39.3533V39.3533ZM83.874 37.9376C81.6565 38.3132 79.7844 39.8677 77.3756 39.66C75.5291 39.5005 74.279 38.163 72.4565 37.9687C70.1251 37.7197 63.7798 41.713 67.1161 42.3977C69.0622 42.7977 70.1419 40.1273 71.8618 39.9855C73.222 39.8732 75.0719 41.1254 76.4813 41.3037C79.111 41.6364 80.9171 40.5491 83.2254 39.8476C85.7339 39.0858 87.161 39.7718 89.3427 40.6189C91.0647 41.2873 92.6861 41.7226 94.6567 41.4467C96.5061 41.188 98.8291 39.7605 100.69 39.9069C102.513 40.0507 103.815 41.4787 105.69 41.6116C106.463 41.6658 107.614 41.864 107.484 40.9681C107.38 40.2509 106.314 40.3725 105.648 40.1117C103.933 39.4417 102.329 38.2539 100.26 38.3552C98.703 38.4318 97.2855 39.2528 95.8512 39.6457C91.153 40.9319 88.512 37.1565 83.874 37.9376Z" fill="#89C5CC"/>
<path opacity="0.5" fill-rule="evenodd" clip-rule="evenodd" d="M87.799 60.6531C78.7366 60.7158 69.6434 60.8167 60.6066 61.3622C58.464 61.4914 36.5873 63.0422 36.629 63.1536C36.7055 63.3606 39.5194 63.676 39.5017 63.7248C39.312 63.3719 38.8784 63.2255 38.2012 63.2865C58.9499 63.2865 79.6321 61.8918 100.408 62.1429C105.628 62.2056 110.868 62.1795 116.085 62.3031C117.387 62.3338 120.614 63.0346 121.636 62.5929C124.321 61.4342 119.444 61.3004 118.636 61.252C108.412 60.6379 98.0522 60.5765 87.799 60.6531Z" fill="#69A1AC"/>
<path opacity="0.5" fill-rule="evenodd" clip-rule="evenodd" d="M33.9429 63.9593C32.5881 64.9789 33.8357 68.6479 33.8891 70.0266C33.966 72.0203 33.9025 74.0279 34.1355 76.0161C34.4014 78.2874 34.814 80.7071 35.6077 82.9107C36.0451 84.1246 37.5795 86.0539 38.1877 83.8482C38.6218 82.2726 37.9622 80.1826 37.733 78.5776C37.4264 76.4304 37.3519 74.3118 37.3406 72.1541C37.3301 70.2739 37.2821 68.3862 37.0764 66.5124C36.97 65.5391 36.3181 62.1856 33.9429 63.9593Z" fill="#69A1AC"/>
<path opacity="0.5" fill-rule="evenodd" clip-rule="evenodd" d="M68.0295 82.6423C61.5984 82.7251 55.1534 82.8391 48.7332 83.1407C46.1019 83.2644 43.4723 83.4486 40.8506 83.6576C40.3156 83.7001 34.3943 83.8806 37.0403 85.5214C38.2344 86.262 43.1471 85.2379 44.7698 85.131C47.4988 84.9514 50.2273 84.8349 52.9637 84.7479C59.3053 84.5455 65.6661 84.3672 72.014 84.4496C83.6068 84.6006 95.1248 84.6684 106.721 84.474C108.368 84.4467 121.276 84.7054 121.714 83.4187C122.067 82.3815 117.452 82.8572 116.61 82.8761C113.523 82.9455 110.435 82.9291 107.346 82.9174C94.2625 82.8669 81.1029 82.4766 68.0295 82.6423Z" fill="#69A1AC"/>
<path opacity="0.5" fill-rule="evenodd" clip-rule="evenodd" d="M119.528 62.2385C119.732 66.5371 120.708 70.8311 121.019 75.1428C121.162 77.1142 121.33 79.0835 121.458 81.0553C121.5 81.6913 121.158 83.2236 122.16 83.5895C123.534 84.0913 123.719 83.0801 123.977 82.3962C124.719 80.4206 124.217 77.8545 124.15 75.825C124.084 73.8599 124.08 71.8915 123.887 69.9298C123.689 67.926 123.151 65.9596 122.902 63.963C122.797 63.1184 123.165 61.7128 121.971 61.1887C120.939 60.7357 119.484 61.3065 119.528 62.2385Z" fill="#69A1AC"/>
<path opacity="0.5" fill-rule="evenodd" clip-rule="evenodd" d="M56.3166 69.3892C56.341 69.4035 56.3654 69.4178 56.3898 69.4321C56.3654 69.4178 56.341 69.4035 56.3166 69.3892ZM50.8512 68.1156C52.8894 68.5526 54.5631 68.3898 56.5101 69.5036C58.1235 70.4273 59.779 71.7783 60.3145 73.2714C61.551 76.7217 57.3584 78.6123 53.4278 78.6498C49.4022 78.6876 43.443 77.9865 43.6491 74.1122C43.8072 71.1356 46.7023 68.2313 50.8512 68.1156ZM50.995 66.1661C45.7101 66.3633 41.4472 70.8193 41.493 74.5694C41.5481 79.1149 48.4087 80.2863 53.2819 80.3179C58.7822 80.3532 64.2665 77.5019 62.7927 72.8584C61.612 69.1377 56.0768 65.9675 50.995 66.1661Z" fill="#69A1AC"/>
<path opacity="0.5" fill-rule="evenodd" clip-rule="evenodd" d="M45.6792 72.2696C45.6792 73.5369 48.3467 73.5369 48.3467 72.2696C48.3467 71.0166 45.6792 70.9628 45.6792 72.2696Z" fill="#69A1AC"/>
<path opacity="0.5" fill-rule="evenodd" clip-rule="evenodd" d="M51.2744 71.7126C51.2744 72.9904 53.9629 72.9904 53.9629 71.7126C53.9629 70.4499 51.2744 70.3956 51.2744 71.7126Z" fill="#69A1AC"/>
<path opacity="0.5" fill-rule="evenodd" clip-rule="evenodd" d="M48.1896 74.604C46.4534 75.9053 52.553 78.1867 53.9915 76.3764C55.173 74.8896 52.6006 75.3825 51.6887 75.3022C50.6977 75.2143 48.9985 73.9983 48.1896 74.604Z" fill="#69A1AC"/>
<path opacity="0.5" fill-rule="evenodd" clip-rule="evenodd" d="M96.9552 71.7394C96.7878 71.792 96.7878 71.792 96.9552 71.7394V71.7394ZM74.0505 69.6208C72.2923 69.8681 66.5228 71.3293 66.445 72.8952C66.3029 75.7415 71.9529 72.8263 73.1798 72.4519C76.5131 71.4349 78.2646 73.5093 81.6126 73.6187C84.5207 73.7142 87.1945 71.8454 89.9339 72.0666C92.8042 72.298 94.1846 74.5903 97.4982 73.373C99.2508 72.7295 99.2067 71.7369 97.2391 71.6431C96.0496 71.5867 95.2324 71.9556 93.9924 71.5716C92.0534 70.9709 91.2723 69.9935 88.9518 70.1487C87.2008 70.2656 85.6181 71.0067 83.9087 71.2936C79.9949 71.9501 77.8238 69.09 74.0505 69.6208Z" fill="#69A1AC"/>
<path opacity="0.5" fill-rule="evenodd" clip-rule="evenodd" d="M110.457 72.9752C110.337 73.0131 110.337 73.0131 110.457 72.9752V72.9752ZM110.901 71.7899C110.92 71.7962 111.053 71.9342 110.901 71.7899V71.7899ZM108.886 70.8852C108.81 70.929 108.81 70.929 108.886 70.8852V70.8852ZM108.93 70.8743C109.321 71.0497 112.462 72.6627 110.18 73.0425C109.022 73.2352 108.063 71.4854 108.93 70.8743ZM107.89 69.0871C102.857 70.8099 108.272 76.9752 112.222 74.4705C113.884 73.4164 114.103 71.2856 112.486 70.1878C111.517 69.5296 109.204 68.6362 107.89 69.0871Z" fill="#69A1AC"/>
<path opacity="0.5" fill-rule="evenodd" clip-rule="evenodd" d="M60.6444 93.3822C54.3643 93.3834 48.0286 93.2846 41.7569 93.5639C40.7016 93.611 36.681 93.4604 36.1372 94.2886C35.142 95.8036 39.2791 95.0516 39.8802 95.0062C52.3681 94.0678 65.4124 94.6078 77.9415 94.8754C88.188 95.0941 98.3802 95.2295 108.615 95.6261C111.305 95.7305 113.993 95.8457 116.681 95.9672C117.557 96.0068 119.762 96.443 119.947 95.3923C120.118 94.4198 117.367 94.6394 116.68 94.612C111.215 94.3963 105.755 94.17 100.291 93.9391C87.1419 93.3826 73.8149 93.3805 60.6444 93.3822Z" fill="#89C5CC"/>
<path opacity="0.5" fill-rule="evenodd" clip-rule="evenodd" d="M35.9352 95.0674C34.7621 95.9431 35.3123 99.2857 35.2795 100.391C35.2222 102.323 35.1007 104.254 35.046 106.186C34.9896 108.206 35.0683 110.234 35.2273 112.25C35.2937 113.097 36.2195 117.188 37.6765 114.847C38.3276 113.8 37.6609 110.886 37.671 109.7C37.6887 107.543 37.8435 105.394 37.9865 103.239C38.1097 101.387 38.1139 99.533 38.222 97.6802C38.2561 97.0897 38.3491 93.2499 35.9352 95.0674Z" fill="#89C5CC"/>
<path opacity="0.5" fill-rule="evenodd" clip-rule="evenodd" d="M121.004 112.329C114.892 112.799 108.682 112.577 102.547 112.925C97.2594 113.224 91.9766 113.346 86.6756 113.431C74.6719 113.621 62.6475 113.806 50.6786 114.558C47.9506 114.728 45.2263 114.91 42.4911 115.002C41.1232 115.048 35.3836 114.58 34.9563 115.663C34.2282 117.506 40.3661 116.777 41.6902 116.748C44.6017 116.685 47.4992 116.527 50.4027 116.361C62.6067 115.663 74.8573 115.454 87.0878 115.164C93.7393 115.006 100.345 114.641 106.981 114.309C110.289 114.143 113.606 114.137 116.914 113.977C117.779 113.935 120.843 114.018 121.465 113.495C121.893 113.136 122.001 112.259 121.004 112.329Z" fill="#89C5CC"/>
<path opacity="0.5" fill-rule="evenodd" clip-rule="evenodd" d="M118.932 95.3811C119.142 99.7815 119.473 104.178 119.67 108.579C119.73 109.902 119.198 112.274 120.179 113.44C121.757 115.317 122.989 113.331 123.278 112.162C124.19 108.471 123.209 104.395 122.955 100.682C122.858 99.2654 123.444 96.1126 122.532 94.8449C121.663 93.6369 118.854 93.7584 118.932 95.3811Z" fill="#89C5CC"/>
<path opacity="0.5" fill-rule="evenodd" clip-rule="evenodd" d="M108.671 101.648C111.013 102.124 111.354 105.946 108.712 106.229C104.78 106.649 106.499 102.436 108.671 101.648ZM108.015 100.128C107.301 100.111 105.652 99.9635 105.211 100.4C104.843 100.765 105.216 101.536 105.173 101.884C105.018 103.127 103.671 103.845 104.273 105.313C104.682 106.31 105.776 107.246 107.11 107.592C114.147 109.418 114.062 99.2093 108.015 100.128Z" fill="#89C5CC"/>
<path opacity="0.5" fill-rule="evenodd" clip-rule="evenodd" d="M44.4784 100.813C44.4612 100.83 44.4435 100.847 44.4263 100.864C44.4435 100.847 44.4612 100.83 44.4784 100.813ZM50.0057 98.6055C49.9783 98.4288 49.9506 98.2518 49.9232 98.0751C53.739 99.4274 56.7749 101.943 55.5081 105.319C54.5415 107.895 51.0488 108.808 47.7945 108.172C44.1924 107.468 42.4713 105.239 43.4425 102.502C43.8904 101.239 45.2667 99.5422 47.045 99.1363C47.8732 98.947 49.7041 99.429 50.0057 98.6055ZM47.7747 97.5363C46.8094 97.5851 45.8698 97.8871 45.0824 98.2997C45.8198 97.8316 46.8023 97.5527 47.7747 97.5363ZM47.8021 95.8724C45.4181 95.9271 43.8555 97.011 42.4414 98.3123C41.9977 98.7207 40.4969 99.8038 40.6829 100.354C40.8296 100.789 41.2141 101.426 42.0238 100.941C37.784 107.285 48.7367 112.695 55.4231 108.284C61.6637 104.167 55.4723 95.6793 47.8021 95.8724Z" fill="#89C5CC"/>
<path opacity="0.5" fill-rule="evenodd" clip-rule="evenodd" d="M45.6357 101.766C45.6357 102.611 47.3825 102.611 47.3825 101.766C47.3825 100.922 45.6357 100.922 45.6357 101.766Z" fill="#89C5CC"/>
<path opacity="0.5" fill-rule="evenodd" clip-rule="evenodd" d="M48.6167 101.91C48.6167 102.769 50.3917 102.769 50.3917 101.91C50.3917 101.052 48.6167 101.052 48.6167 101.91Z" fill="#89C5CC"/>
<path opacity="0.5" fill-rule="evenodd" clip-rule="evenodd" d="M49.9694 104.926C49.1391 104.976 46.0998 104.764 45.566 105.311C44.6747 106.223 46.0977 106.254 46.7963 106.353C47.4259 106.442 50.1624 106.392 50.5481 105.972C50.8888 105.601 50.8093 104.872 49.9694 104.926Z" fill="#89C5CC"/>
<path opacity="0.5" fill-rule="evenodd" clip-rule="evenodd" d="M86.5909 102.559C86.4484 102.603 86.4484 102.603 86.5909 102.559V102.559ZM75.1062 101.928C73.2349 102.032 71.6501 102.84 69.8612 103.162C67.9516 103.506 67.1256 102.873 65.3893 102.459C63.5828 102.028 62.2982 102.198 60.8463 103.124C60.024 103.649 58.2192 104.856 58.7332 105.789C59.9104 107.923 62.5754 104.451 63.8288 104.289C65.7838 104.038 67.5235 105.321 69.7779 104.954C71.8213 104.622 73.6341 103.569 75.7678 103.557C77.5525 103.547 79.2341 104.281 80.9956 104.458C83.685 104.729 85.4511 104.012 87.9369 103.48C90.0929 103.018 91.6046 103.627 93.6324 104.138C94.559 104.372 97.6513 105.223 97.0818 103.681C96.9211 103.245 92.8458 102.467 92.2145 102.316C89.9865 101.788 88.5758 101.994 86.4534 102.602C84.6835 103.108 83.1949 103.355 81.2972 103.076C79.2063 102.769 77.3052 101.803 75.1062 101.928Z" fill="#89C5CC"/>
</g>
<g opacity="0.5">
<path opacity="0.5" fill-rule="evenodd" clip-rule="evenodd" d="M161.196 31.2107C161.498 26.3333 161.913 21.4627 162.132 16.5819C162.24 14.1638 162.325 11.7449 162.407 9.32607C162.425 8.78748 162.444 8.24906 162.46 7.71047C162.513 5.88061 162.224 5.73091 164.677 5.56847C175.619 4.84338 186.605 4.60301 197.56 3.94694C210.772 3.15573 224.053 2.6094 237.303 2.36452C243.191 2.25546 249.104 2.02968 254.993 2.16709C256.298 2.19754 258.859 1.94265 259.372 2.70413C259.595 3.03304 259.129 4.16503 259.07 4.54463C258.885 5.73045 258.713 6.92035 258.607 8.11211C257.98 15.1405 258.354 22.3464 260.167 29.2683C255.914 27.4681 250.541 25.9194 245.584 26.2269C240.531 26.5403 236.751 28.7321 232.707 30.7497C230.419 31.8908 229.648 32.1907 227.365 31.0854C225.399 30.1327 223.537 29.0433 221.682 27.9745C218.818 26.3245 216.115 24.5356 213.338 22.8057C208.232 19.6254 201.197 15.0988 194.144 16.4313C189.106 17.3836 184.453 19.4627 180.08 21.4976C173.582 24.5205 167.701 28.2223 161.196 31.2107ZM248.765 0.00103603C223.661 0.00103603 198.745 1.82816 173.712 2.81655C171.097 2.91969 168.491 3.0717 165.886 3.26047C164.15 3.38631 159.904 2.8579 158.766 3.97171C158.007 4.7148 158.659 4.82635 158.766 5.53238C158.901 6.42218 158.821 7.47648 158.786 8.41831C158.703 10.6879 158.615 12.9571 158.546 15.2267C158.287 23.8046 158.125 32.3808 158.588 40.9562C158.688 42.8267 159.596 45.4159 159.1 47.2334C158.74 48.5491 157.538 49.3499 160.31 49.593C163.037 49.8323 166.373 49.2237 169.103 49.0285C171.848 48.8325 174.594 48.6197 177.343 48.4494C189.295 47.7099 201.363 47.8218 213.347 47.5762C225.439 47.328 237.534 47.3125 249.63 47.3074C254.691 47.3053 260.474 47.5186 265.412 46.4729C267.149 46.1049 267.43 45.9236 267.002 44.6298C266.921 44.3842 266.396 44.2933 266.242 43.8496C266.033 43.2456 266.14 42.5112 266.091 41.8824C265.931 39.829 265.876 37.7718 265.747 35.7167C265.532 32.2833 264.744 28.9512 264.161 25.5522C263.488 21.6271 263.522 17.6414 263.508 13.6906C263.501 11.4993 263.576 9.31497 263.81 7.12961C263.96 5.72797 264.879 3.63527 264.413 2.32814C264.181 1.67733 263.801 1.1612 262.899 0.881077C262.327 0.703453 261.846 0.842465 261.282 0.797502C260.612 0.744126 260.193 0.673464 259.39 0.536935C255.95 -0.0484691 252.271 0.00103603 248.765 0.00103603Z" fill="#69A1AC"/>
<path opacity="0.5" fill-rule="evenodd" clip-rule="evenodd" d="M234.872 9.33262C234.87 10.6987 234.586 12.7143 235.424 14.0005C236.488 15.632 237.819 15.1218 238.172 13.5887C238.374 12.7105 238.369 10.1107 237.993 9.33262C237.461 8.2313 234.872 7.48118 234.872 9.33262Z" fill="#89C5CC"/>
<path opacity="0.5" fill-rule="evenodd" clip-rule="evenodd" d="M237.924 9.8604C236.216 9.90561 231.242 9.59781 230.086 10.6288C228.104 12.3975 231.555 12.7108 233.036 12.6116C234.751 12.4972 240.05 12.7764 241.198 11.7443C243.119 10.0174 239.267 9.8236 237.924 9.8604Z" fill="#89C5CC"/>
<path opacity="0.5" fill-rule="evenodd" clip-rule="evenodd" d="M171.64 55.4932C179.149 56.4724 176.813 65.0679 169.708 63.0772C167.232 62.3832 163.584 60.379 164.953 58.0168C165.975 56.2524 169.306 55.3249 171.64 55.4932ZM168.532 52.8206C163.648 53.4377 160.309 57.4053 161.984 60.8665C163.599 64.2053 169.726 66.6503 174.244 65.4503C178.557 64.3045 180.709 59.9958 179.255 56.8442C177.735 53.5508 172.786 52.2827 168.532 52.8206Z" fill="#89C5CC"/>
<path opacity="0.5" fill-rule="evenodd" clip-rule="evenodd" d="M214.206 56.4988C212.337 56.6154 210.721 57.5983 208.84 57.772C207.081 57.9348 205.623 57.4831 203.976 57.1218C201.985 56.6852 200.159 56.4934 198.125 56.8812C196.57 57.1777 195.037 57.9718 193.422 58.0677C190.244 58.2561 186.551 55.534 184.07 58.6128C182.881 60.0887 184.608 61.0393 186.387 60.3508C188.241 59.6336 187.331 59.3766 189.632 59.8006C191.551 60.1539 193.102 60.3457 195.025 59.8507C196.766 59.4019 198.295 58.5813 200.188 58.4892C202.042 58.3987 203.654 59.0326 205.425 59.3064C207.604 59.6425 209.532 59.388 211.597 58.8753C213.56 58.3874 214.344 58.1207 216.325 58.556C217.58 58.8315 220.321 59.7068 221.542 59.0015C223.653 57.7821 220.826 57.6038 219.713 57.4301C217.921 57.1516 216.066 56.3844 214.206 56.4988Z" fill="#89C5CC"/>
<path opacity="0.5" fill-rule="evenodd" clip-rule="evenodd" d="M256.99 55.6799C257.005 55.6883 257.02 55.6971 257.034 55.7055C257.02 55.6971 257.005 55.6883 256.99 55.6799ZM255.155 55.3913C257.884 55.5234 260.835 59.2563 257.219 59.3888C254.674 59.4822 251.826 56.2132 255.155 55.3913ZM254.772 52.3369C246.141 54.1463 250.086 63.2815 258.412 62.2262C262.192 61.7467 263.474 58.458 262.224 56.0235C261.687 54.9779 260.64 54.0963 259.389 53.4944C258.467 53.0506 255.826 52.1165 254.772 52.3369Z" fill="#89C5CC"/>
<path opacity="0.5" fill-rule="evenodd" clip-rule="evenodd" d="M214.506 71.4075C222.1 71.2119 229.695 71.0163 237.298 70.9633C241.418 70.9347 245.516 70.9885 249.63 71.166C251.455 71.2443 253.278 71.3204 255.104 71.3784C255.419 71.3881 255.854 71.3721 256.335 71.3545C257.465 71.3128 258.845 71.2619 259.494 71.5193C263.126 72.962 255.727 73.1202 254.827 73.1088C252.813 73.0832 250.801 73.0087 248.788 72.9338C247.03 72.8687 245.271 72.8035 243.511 72.7711C232.218 72.5629 220.856 72.9435 209.544 73.3229C206.95 73.41 204.36 73.4966 201.773 73.5761C199.027 73.6611 196.282 73.7158 193.536 73.7704C189.612 73.8487 185.688 73.9269 181.764 74.0926C180.265 74.1557 178.767 74.2226 177.269 74.2895C175.122 74.3854 172.976 74.4813 170.829 74.5662C169.148 74.6327 167.466 74.6975 165.783 74.729C165.48 74.7349 165.085 74.7664 164.654 74.8009C163.61 74.8846 162.355 74.9852 161.677 74.777C160.861 74.5267 160.201 74.1763 160.649 73.4339C161.029 72.8064 162.408 72.8817 163.413 72.9364C163.687 72.9515 163.934 72.965 164.125 72.962C167.338 72.9153 170.543 72.7799 173.751 72.6323C174.924 72.5784 176.097 72.5233 177.269 72.4678C183.375 72.1793 189.475 71.8912 195.596 71.8129C201.901 71.7322 208.203 71.5698 214.506 71.4075ZM254.171 108.934C254.899 108.928 255.627 108.921 256.355 108.914C257.482 108.988 257.986 109.877 257.263 110.559C256.709 111.083 254.575 111.106 253.185 111.122C252.799 111.126 252.471 111.13 252.249 111.143C248.619 111.362 244.996 111.461 241.355 111.487C233.689 111.542 226.05 111.788 218.396 112.116C210.56 112.451 202.718 112.578 194.875 112.704H194.875C189.105 112.797 183.335 112.889 177.568 113.065C174.265 113.166 170.961 113.242 167.657 113.307C167.302 113.314 166.829 113.352 166.295 113.395C164.208 113.565 161.175 113.81 160.487 112.566C159.878 111.461 160.726 110.953 161.965 110.722C161.769 110.068 161.806 109.149 161.826 108.622C161.833 108.464 161.837 108.341 161.834 108.272C161.803 107.611 161.781 106.951 161.759 106.291C161.735 105.543 161.71 104.795 161.672 104.047C161.637 103.368 161.605 102.689 161.572 102.009C161.444 99.3279 161.316 96.6406 161.041 93.9706C160.915 92.7382 160.713 91.5201 160.513 90.3042C160.192 88.3631 159.872 86.4266 159.857 84.4447C159.854 84.0884 159.831 83.6426 159.804 83.1395C159.667 80.5662 159.45 76.4985 161.577 75.2594C165.329 73.6161 164.587 78.3597 164.256 80.4766C164.201 80.8262 164.158 81.1042 164.148 81.2699C163.932 84.79 164.225 88.1549 164.697 91.6531C165.015 94.0152 164.829 96.3698 164.643 98.7277C164.576 99.5702 164.51 100.413 164.466 101.257C164.445 101.674 164.425 102.091 164.406 102.509C164.347 103.793 164.288 105.075 164.159 106.358C164.145 106.496 164.14 106.763 164.135 107.102C164.118 108.061 164.091 109.608 163.817 110.547C164.4 110.528 164.964 110.533 165.431 110.537H165.431C165.729 110.539 165.986 110.541 166.183 110.537C167.078 110.517 167.973 110.497 168.869 110.477H168.87C171.515 110.419 174.16 110.361 176.804 110.286C183.048 110.11 189.293 110.051 195.538 109.992C202.914 109.923 210.291 109.853 217.663 109.59C229.814 109.157 242.007 109.045 254.171 108.934ZM256.425 74.5208C256.419 80.5507 257.04 86.4152 257.766 92.4211C258.214 96.1359 258.574 99.865 258.86 103.589C258.874 103.762 258.872 104.049 258.869 104.41C258.855 106.469 258.823 110.907 261.534 109.846C263.581 109.044 262.795 104.396 262.359 101.825C262.264 101.261 262.185 100.796 262.157 100.495C262.098 99.8516 262.039 99.2085 261.98 98.5658V98.5645C261.707 95.579 261.435 92.5965 261.077 89.6144C261.051 89.4049 261.026 89.1954 261.001 88.986C260.586 85.5416 260.171 82.0998 260.097 78.6394C260.091 78.3534 260.128 77.9547 260.169 77.5042C260.289 76.2016 260.449 74.467 259.728 73.7751C258.714 72.8018 256.428 73.0895 256.425 74.5208Z" fill="#69A1AC"/>
<path opacity="0.5" fill-rule="evenodd" clip-rule="evenodd" d="M214.853 89.3027C224.553 86.0077 234.367 82.6744 244.454 80.3009C245.184 80.1297 245.645 80.6941 245.479 81.1677C245.309 81.6556 243.731 82.072 242.684 82.3484C242.371 82.4308 242.105 82.5011 241.94 82.5566C240.53 83.0289 239.118 83.4958 237.705 83.9623C236.258 84.4401 234.812 84.9179 233.369 85.402C230.369 86.4085 227.366 87.4104 224.363 88.4123C221.147 89.4853 217.931 90.5583 214.719 91.6367C214.597 91.6775 214.476 91.7183 214.354 91.7595C218.722 92.925 223.065 94.1423 227.389 95.3965C228.867 95.8251 230.339 96.2626 231.812 96.7C232.645 96.9477 233.479 97.195 234.313 97.4411C234.584 97.521 235.057 97.6295 235.625 97.7599C237.477 98.1843 240.342 98.8413 240.554 99.5046C240.899 100.585 236.944 99.5399 235.451 99.1454C235.253 99.0928 235.099 99.052 235.003 99.0293C232.801 98.501 230.626 97.9122 228.451 97.3238L228.15 97.2422C226.427 96.7761 224.706 96.305 222.985 95.834C219.623 94.9137 216.262 93.9934 212.883 93.1105C212.405 92.9856 211.927 92.8611 211.448 92.7374C206.024 94.5662 200.611 96.4127 195.216 98.2886C192.323 99.2947 189.446 100.324 186.576 101.367C185.95 101.595 185.175 101.947 184.332 102.329C182.312 103.245 179.909 104.336 178.255 104.309C177.369 104.294 176.771 104.152 176.678 103.344C176.583 102.512 178.006 102.075 179.029 101.761C179.274 101.686 179.496 101.618 179.669 101.553C182.736 100.402 185.822 99.2792 188.916 98.1709C195.063 95.9698 201.267 93.8567 207.493 91.7856C207.529 91.7738 207.565 91.7616 207.601 91.7498C204.147 90.8724 200.685 90.0161 197.215 89.1778C196.868 89.0941 196.158 88.9461 195.224 88.7522C190.813 87.8348 181.415 85.8807 181.833 84.7391C182.313 83.4336 191.123 85.8201 195.024 86.8767C195.755 87.0743 196.314 87.2258 196.613 87.2973C201.276 88.4131 205.927 89.5606 210.553 90.7601C211.984 90.2773 213.417 89.7902 214.853 89.3027Z" fill="#89C5CC"/>
<path opacity="0.5" fill-rule="evenodd" clip-rule="evenodd" d="M173.288 117.98C176.128 118.354 178.13 120.399 177.819 122.541C177.398 125.434 173.556 126.761 170.008 126.383C165.981 125.955 165.134 123.399 167.085 120.94C167.517 120.396 168.014 119.745 168.799 119.458C169.339 119.261 170.026 119.435 170.461 119.276C171.985 118.72 171.068 117.832 173.288 117.98ZM171.995 116.09C168.53 116.422 162.128 119.433 162.452 122.444C162.733 122.793 163.156 122.936 163.721 122.873C163.585 123.525 163.629 124.171 163.854 124.809C164.183 125.638 164.839 126.318 165.719 126.858C167.531 127.969 170.008 128.242 172.264 128.047C176.478 127.683 179.798 125.522 180.035 122.232C180.266 119.02 176.532 115.66 171.995 116.09Z" fill="#89C5CC"/>
<path opacity="0.5" fill-rule="evenodd" clip-rule="evenodd" d="M188.777 120.009C187.223 120.628 184.763 121.578 183.851 122.753C182.888 123.993 183.886 125.351 185.915 124.764C187.526 124.298 188.551 122.817 190.269 122.343C191.785 121.924 192.397 122.138 193.999 122.554C195.651 122.984 197.094 123.399 198.879 123.294C201.123 123.161 203.067 122.185 205.263 121.963C207.112 121.776 208.637 122.316 210.408 122.531C212.463 122.78 213.806 122.196 215.729 121.892C217.036 121.685 219.341 122.527 220.295 122.212C222.439 121.504 220.171 120.639 218.984 120.353C216.984 119.871 215.753 120.296 213.851 120.695C211.785 121.129 210.893 120.803 208.919 120.405C204.925 119.599 201.84 121.547 198.054 121.193C194.548 120.865 192.451 118.549 188.777 120.009Z" fill="#89C5CC"/>
<path opacity="0.5" fill-rule="evenodd" clip-rule="evenodd" d="M254.087 118.569C257.931 121.275 253.613 125.125 249.374 122.963C247.882 122.201 247.858 120.979 249.019 119.885C250.081 118.885 252.414 118.495 254.087 118.569ZM252.662 116.383C249.07 116.907 245.682 118.145 245.357 121.257C245.04 124.293 249.188 125.703 252.673 125.504C260.498 125.057 259.932 115.327 252.662 116.383Z" fill="#89C5CC"/>
</g>
<path opacity="0.5" fill-rule="evenodd" clip-rule="evenodd" d="M337.742 15.5311C334.869 15.5732 327.774 16.3576 326.72 18.909C325.919 20.8459 328.297 20.4207 329.572 19.7157C331.296 18.7631 332.809 18.1923 334.945 17.9025C343.084 16.7971 350.904 20.761 358.966 21.2619C362.019 21.452 365.704 21.5757 368.62 20.8333C370.696 20.3046 370.967 19.1517 368.597 18.9763C366.584 18.827 364.356 19.2972 362.292 19.2838C353.752 19.2291 346.16 15.4108 337.742 15.5311Z" fill="#C1DEE2"/>
<g opacity="0.5">
<path opacity="0.5" fill-rule="evenodd" clip-rule="evenodd" d="M35.8703 136.708C30.3733 136.754 24.8793 136.907 19.3933 137.167C14.1761 137.415 8.51567 137.227 3.38356 137.986C1.92632 138.202 -0.0422553 139.199 1.89545 140.296C3.25742 141.067 8.24034 140.18 9.86675 140.105C15.856 139.828 21.8484 139.497 27.8467 139.338C33.5245 139.188 39.2023 139.134 44.8835 139.092C45.7508 139.085 47.1905 138.877 48.0541 139.066C49.2953 139.337 49.0008 139.411 49.0938 140.594C49.262 142.737 49.2154 144.887 49.159 147.032C49.1043 149.108 49.0021 151.183 49.0118 153.26C49.0189 154.741 48.388 157.685 49.3781 158.971C50.8036 160.823 52.282 158.812 52.3884 157.581C52.5924 155.228 52.5012 152.845 52.502 150.488C52.5024 148.276 52.5239 146.064 52.42 143.853C52.3447 142.256 52.6488 139.468 51.5026 138.016C50.3354 136.537 47.5254 136.856 45.4749 136.786C42.2761 136.675 39.072 136.683 35.8703 136.708Z" fill="#89C5CC"/>
<path opacity="0.5" fill-rule="evenodd" clip-rule="evenodd" d="M0.896038 139.378C0.902095 143.534 0.261634 147.663 0.0822439 151.814C-2.72576e-05 153.723 -0.167009 155.819 0.476145 157.692C1.12535 159.584 3.18739 159.994 3.42487 157.882C3.90587 153.605 3.78789 149.17 4.16245 144.859C4.29464 143.337 5.15504 140.547 4.35181 139.122C3.64451 137.867 0.89301 137.626 0.896038 139.378Z" fill="#89C5CC"/>
<path opacity="0.5" fill-rule="evenodd" clip-rule="evenodd" d="M52.4419 157.698C42.8957 158.646 32.9159 158.301 23.3017 158.45C18.6888 158.521 14.0773 158.526 9.46391 158.562C7.85386 158.574 3.7652 158.115 2.37236 158.794C0.155156 159.876 2.56083 160.711 4.02872 160.734C13.1326 160.884 22.338 160.57 31.44 160.346C35.5296 160.245 39.6327 160.196 43.7113 159.935C46.2223 159.774 48.966 159.618 51.4047 159.112C51.9237 159.004 53.0551 159.026 53.1716 158.494C53.2431 158.165 53.1132 157.628 52.4419 157.698Z" fill="#89C5CC"/>
<path opacity="0.5" fill-rule="evenodd" clip-rule="evenodd" d="M12.7463 163.739C10.0932 163.751 2.09799 162.826 0.999194 164.768C-0.46562 167.359 5.24882 166.754 6.78564 166.724C10.2762 166.657 13.7645 166.65 17.2559 166.651C20.6818 166.652 24.1072 166.636 27.5323 166.574C28.5245 166.557 30.8345 166.866 31.4052 165.969C31.8393 165.287 31.4965 164.749 30.6961 164.388C28.771 163.519 23.7691 164.023 21.515 163.945C18.5964 163.844 15.6686 163.739 12.7463 163.739Z" fill="#89C5CC"/>
<path opacity="0.5" fill-rule="evenodd" clip-rule="evenodd" d="M45.0232 164.219C43.5069 164.287 40.4402 163.818 39.0817 164.339C37.538 164.931 38.0819 165.858 39.4148 166.266C40.3376 166.548 44.1244 166.4 45.0232 166.073C45.9607 165.732 47.0203 164.127 45.0232 164.219Z" fill="#89C5CC"/>
<path opacity="0.5" fill-rule="evenodd" clip-rule="evenodd" d="M61.6471 139.784C60.0274 140.118 60.5191 147.021 60.477 148.115C60.3626 151.113 59.9138 154.883 61.2408 157.771C62.0867 159.611 63.7119 159.362 63.4351 157.424C63.192 155.723 62.7748 154.042 62.5943 152.33C62.1859 148.456 61.6299 144.324 62.0156 140.448C62.18 140.673 63.7161 142.762 64.0778 142.607C63.9685 142.655 62.3058 139.654 61.6471 139.784Z" fill="#89C5CC"/>
<path opacity="0.5" fill-rule="evenodd" clip-rule="evenodd" d="M79.8631 137.243C76.5858 137.279 73.3088 137.322 70.0322 137.391C67.427 137.445 63.3336 137.124 60.9446 137.947C58.1 138.926 59.4497 141.109 62.1214 141.155C64.4852 141.196 67.0055 140.795 69.3908 140.734C75.8333 140.568 82.2871 140.533 88.7325 140.492C94.5613 140.454 100.638 140.921 106.416 140.264C107.273 145.977 104.955 151.714 105.744 157.494C105.866 158.391 105.811 159.658 107.333 159.862C109.253 160.12 109.332 158.692 109.405 157.67C109.612 154.751 109.5 151.829 109.784 148.906C110.049 146.197 110.568 143.428 110.129 140.715C109.589 137.376 107.458 137.644 103.691 137.505C95.7348 137.212 87.8282 137.155 79.8631 137.243Z" fill="#89C5CC"/>
<path opacity="0.5" fill-rule="evenodd" clip-rule="evenodd" d="M68.8798 157.531C67.21 157.562 64.4365 157.176 63.3665 158.378C62.2531 159.629 63.5738 160.72 65.1927 160.977C67.109 161.28 69.6074 160.864 71.5961 160.859C73.6676 160.855 75.7391 160.872 77.8102 160.878C86.6897 160.904 95.6074 161.005 104.481 160.73C105.72 160.691 109.236 161.003 110.094 160.111C110.855 159.32 110.323 158.61 109.321 158.206C107.676 157.545 104.298 157.797 102.469 157.744C100.21 157.679 97.9485 157.658 95.6882 157.632C86.7675 157.529 77.8001 157.365 68.8798 157.531Z" fill="#89C5CC"/>
<path opacity="0.5" fill-rule="evenodd" clip-rule="evenodd" d="M76.3909 163.312C73.0681 163.355 69.5228 163.246 66.2328 163.624C63.3403 163.956 62.984 166.056 66.0978 166.302C68.9596 166.528 72.4288 166.105 75.3045 165.967C76.3257 165.918 77.5135 165.988 78.0031 165.14C78.5142 164.254 77.5371 163.405 76.3909 163.312Z" fill="#89C5CC"/>
<path opacity="0.5" fill-rule="evenodd" clip-rule="evenodd" d="M101.513 163.533C99.7388 163.566 94.5586 162.994 93.68 164.515C92.2175 167.047 99.2307 166.085 100.576 166.048C102.272 166.001 108.88 166.744 108.882 164.717C108.883 162.73 103.137 163.503 101.513 163.533Z" fill="#89C5CC"/>
<path opacity="0.5" fill-rule="evenodd" clip-rule="evenodd" d="M0.609533 176.115C0.613781 180.721 0.231994 185.37 0.791656 189.965C1.02308 191.865 0.983453 195.506 2.44953 197.116C3.4902 198.26 4.93356 198.18 5.50202 196.807C5.88199 195.889 5.27421 194.053 5.20645 193.071C5.14109 192.129 5.06488 191.187 5.00679 190.244C4.85764 187.815 4.86942 185.391 4.91388 182.961C4.95203 180.877 5.62029 178.119 4.99014 176.115C4.40263 174.247 0.609533 173.81 0.609533 176.115Z" fill="#69A1AC"/>
<path opacity="0.5" fill-rule="evenodd" clip-rule="evenodd" d="M62.2695 172.064C51.6247 172.264 40.9564 172.085 30.3217 172.481C25.0767 172.676 19.8523 173.104 14.6338 173.531C12.0698 173.741 9.50742 173.957 6.94802 174.194C6.17565 174.266 -0.242128 174.453 2.17171 176.285C3.22571 177.085 6.57986 176.249 7.90705 176.131C10.4767 175.904 13.0515 175.705 15.6248 175.501C20.5215 175.112 25.4242 174.743 30.3419 174.539C41.9234 174.057 53.5528 174.202 65.1461 173.88C68.2821 173.794 71.4085 173.732 74.5458 173.824C75.3698 173.849 81.4232 174.079 78.7948 172.401C77.5519 171.607 72.8663 172.017 71.313 171.993C68.2985 171.946 65.2823 172.007 62.2695 172.064Z" fill="#69A1AC"/>
<path opacity="0.5" fill-rule="evenodd" clip-rule="evenodd" d="M76.7803 179.824C76.7277 177.696 76.6751 175.567 76.546 173.441C76.4101 171.202 80.4732 170.863 81.6783 172.675C82.5456 173.98 82.3929 176.201 82.2625 178.104C82.2095 178.871 82.1603 179.586 82.183 180.169C82.2347 181.506 82.366 182.888 82.4985 184.288C82.8324 187.813 83.1773 191.453 82.2999 194.78C81.8734 196.396 80.0568 197.246 78.848 196.365C78.8463 196.367 78.8446 196.369 78.8429 196.37C78.3883 196.873 76.9725 196.873 75.9302 196.872C75.6429 196.871 75.3843 196.871 75.1815 196.881C72.3252 197.027 69.5222 197.273 66.6911 197.592C61.0512 198.227 55.4596 198.616 49.7582 198.722C45.8899 198.794 42.0157 198.818 38.141 198.843C30.7206 198.889 23.2969 198.935 15.9005 199.316C13.4067 199.445 10.9507 199.665 8.4978 200.017C8.28901 200.048 8.05712 200.086 7.81031 200.128C5.98647 200.432 3.34618 200.873 3.16578 198.959C2.95135 196.688 9.50785 196.391 12.8818 196.237C13.397 196.214 13.8378 196.194 14.1692 196.171C24.414 195.456 34.8195 195.566 45.108 195.676C45.6064 195.681 46.1048 195.686 46.6024 195.692C47.4054 195.7 48.2083 195.71 49.0108 195.72C53.4159 195.774 57.8154 195.829 62.2192 195.627C64.223 195.535 66.2533 195.487 68.2869 195.44C71.5319 195.364 74.7862 195.289 77.9597 195.03C77.481 193.637 77.3973 191.993 77.3187 190.444C77.288 189.84 77.2581 189.251 77.2055 188.697C76.9266 185.743 76.8535 182.784 76.7803 179.824Z" fill="#69A1AC"/>
<path opacity="0.5" fill-rule="evenodd" clip-rule="evenodd" d="M85.395 175.081C83.9569 175.228 82.7578 176.152 83.3996 177.324C84.208 178.8 86.6164 178.223 88.2076 178.13C93.2646 177.832 98.5445 178.427 103.541 177.978C104.905 177.856 106.884 177.298 105.66 175.921C104.739 174.887 101.384 175.068 99.9573 174.97C95.0799 174.631 90.2665 174.721 85.395 175.081Z" fill="#C1DEE2"/>
<path opacity="0.5" fill-rule="evenodd" clip-rule="evenodd" d="M93.9306 181.519C91.9693 181.618 87.4036 181.54 86.5771 183.215C85.0948 186.221 90.9014 185.162 92.6696 184.991C94.7234 184.792 99.5651 185.324 100.659 183.828C102.614 181.155 95.6504 181.43 93.9306 181.519Z" fill="#C1DEE2"/>
<path opacity="0.5" fill-rule="evenodd" clip-rule="evenodd" d="M88.8872 188.115C87.9568 188.814 87.9556 190.062 88.8872 190.761C90.0279 191.616 92.5137 191.439 94.0128 191.501C96.1032 191.589 102.108 192.419 103.146 190.571C104.547 188.077 99.1097 188.129 97.3209 187.988C95.254 187.824 90.6004 186.828 88.8872 188.115Z" fill="#C1DEE2"/>
<path opacity="0.5" fill-rule="evenodd" clip-rule="evenodd" d="M15.5957 145.426C15.5957 148.107 21.1734 148.107 21.1734 145.426C21.1734 142.76 15.5957 142.719 15.5957 145.426Z" fill="#89C5CC"/>
<path opacity="0.5" fill-rule="evenodd" clip-rule="evenodd" d="M26.1753 145.457C26.1753 148.522 32.5282 148.516 32.5282 145.457C32.5282 142.402 26.1753 142.371 26.1753 145.457Z" fill="#89C5CC"/>
<path opacity="0.5" fill-rule="evenodd" clip-rule="evenodd" d="M19.7751 149.533C16.687 150.173 19.532 152.137 20.9658 152.586C23.2447 153.3 26.3551 153.826 28.6344 152.756C29.5416 152.33 30.2777 151.765 29.6131 150.939C28.9048 150.059 27.9353 150.45 26.8573 150.531C25.4912 150.635 24.3875 150.619 23.0684 150.29C22.0838 150.044 20.8489 149.31 19.7751 149.533Z" fill="#89C5CC"/>
<path opacity="0.5" fill-rule="evenodd" clip-rule="evenodd" d="M75.792 145.596C75.792 147.41 79.5426 147.41 79.5426 145.596C79.5426 143.783 75.792 143.783 75.792 145.596Z" fill="#89C5CC"/>
<path opacity="0.5" fill-rule="evenodd" clip-rule="evenodd" d="M84.0869 145.87C84.0869 147.885 88.2535 147.885 88.2535 145.87C88.2535 143.854 84.0869 143.855 84.0869 145.87Z" fill="#89C5CC"/>
<path opacity="0.5" fill-rule="evenodd" clip-rule="evenodd" d="M83.7777 150.242C81.5888 150.454 75.2587 150.936 74.9041 152.961C74.3577 156.086 81.2944 153.557 82.8772 153.312C84.8936 152.999 86.6942 153.081 88.7072 153.141C89.8126 153.175 91.2826 153.309 91.1665 152.045C90.9764 149.969 85.691 150.058 83.7777 150.242Z" fill="#89C5CC"/>
<path opacity="0.5" fill-rule="evenodd" clip-rule="evenodd" d="M28.7468 179.06C27.1603 179.378 25.085 181.437 26.1764 182.697C27.9661 184.765 28.7556 181.591 29.5043 181.286C30.8675 180.73 31.9737 182.761 33.3979 181.695C35.6456 180.014 30.1617 178.776 28.7468 179.06Z" fill="#69A1AC"/>
<path opacity="0.5" fill-rule="evenodd" clip-rule="evenodd" d="M46.9247 177.533C45.0433 177.546 41.0715 179.546 40.7901 181.022C40.6231 181.899 41.3979 182.742 42.6576 182.754C44.3729 182.77 44.918 181.095 46.4052 180.745C48.009 180.367 47.771 181.237 49.1564 181.688C50.1701 182.018 51.4378 181.88 51.7899 180.944C52.4544 179.179 48.8578 177.505 46.9247 177.533Z" fill="#69A1AC"/>
<path opacity="0.5" fill-rule="evenodd" clip-rule="evenodd" d="M32.523 185.987C29.5136 187.31 34.4654 190.148 36.1819 190.503C38.7733 191.039 43.9889 190.039 44.6029 187.662C44.8473 186.717 44.0591 185.86 42.669 186.029C41.5241 186.169 40.7897 187.247 39.7293 187.633C38.2984 188.154 37.0257 188.119 35.8097 187.334C34.8187 186.695 34.2883 185.214 32.523 185.987Z" fill="#69A1AC"/>
<path opacity="0.5" fill-rule="evenodd" clip-rule="evenodd" d="M34.7042 205.548C32.0156 205.979 29.2829 205.69 26.5814 206.094C23.8264 206.507 22.1801 207.289 19.6207 206.502C19.5004 206.463 19.3801 206.425 19.2598 206.387C17.2792 205.747 15.2026 205.557 13.1294 206.578C11.9022 207.182 8.17724 209.271 8.6262 210.547C9.59911 213.311 13.7906 208.976 14.8594 208.554C16.8977 207.748 18.295 208.778 20.3934 209.068C22.9065 209.416 24.9292 208.419 27.2968 208.022C30.0657 207.557 33.1807 207.395 35.998 207.147C37.1109 207.048 41.3267 207.709 41.7073 206.669C42.3609 204.883 35.7612 205.38 34.7042 205.548Z" fill="#C1DEE2"/>
<path opacity="0.5" fill-rule="evenodd" clip-rule="evenodd" d="M54.1016 211.116C54.2774 211.216 54.136 211.136 54.1016 211.116V211.116ZM61.6313 205.441C63.9329 205.265 71.2969 204.031 72.809 205.817C73.7936 206.98 72.2311 211.272 70.74 211.828C69.5484 212.271 66.7728 211.781 65.4651 211.746C63.0323 211.682 60.5941 211.653 58.1642 211.539C57.3491 211.501 54.7266 211.614 54.0877 211.072C53.3331 210.432 53.3667 207.023 53.1888 206.178C55.3053 206.692 59.4185 205.609 61.6313 205.441ZM66.5461 203.69C63.5985 203.786 60.6513 203.953 57.7255 204.249C56.0944 204.415 54.4423 204.855 52.9356 205.063C52.4502 205.13 51.662 204.944 51.0669 205.16C49.3268 205.791 50.8507 210.057 51.27 211.197C51.9144 212.948 53.5363 213.232 55.8084 213.397C58.8019 213.614 61.8563 213.546 64.8591 213.518C67.7533 213.492 71.6557 213.974 73.2796 211.793C74.3295 210.384 75.4555 207.1 74.5583 205.529C73.3776 203.463 68.9705 203.614 66.5461 203.69Z" fill="#C1DEE2"/>
<path opacity="0.5" fill-rule="evenodd" clip-rule="evenodd" d="M99.5565 212.288C99.3992 212.441 99.3992 212.441 99.5565 212.288V212.288ZM100.203 211.704C100.154 211.76 99.9275 211.939 100.203 211.704V211.704ZM93.1725 211.544C94.4722 211.36 95.7719 211.178 97.0728 211C95.8409 212.295 94.5437 211.76 92.4394 211.647C92.6838 211.612 92.9281 211.578 93.1725 211.544ZM86.9732 211.085C87.3029 211.003 87.6318 210.92 87.9612 210.837C87.9515 211.025 88.0053 211.202 88.1231 211.366C87.5591 211.32 86.9959 211.271 86.4331 211.219C86.6131 211.174 86.7931 211.13 86.9732 211.085ZM84.1004 209.493C84.0819 209.153 84.7624 209.386 85.1523 209.363C84.4007 209.86 84.0499 209.904 84.1004 209.493ZM94.3746 205.64C94.4735 205.545 94.6047 205.55 94.7675 205.654C94.5895 205.699 93.9044 205.917 94.3746 205.64ZM101.037 205.052C101.055 205.052 101.425 205.427 101.037 205.052V205.052ZM100.851 204.929C100.947 204.985 100.947 204.985 100.851 204.929V204.929ZM100.019 204.856C101.381 205.028 101.278 206.229 100.019 204.856V204.856ZM84.0137 204.774C83.737 204.947 83.8316 204.779 84.0137 204.774V204.774ZM89.2234 202.219C86.9105 202.32 82.6653 202.218 80.7338 203.143C78.2131 204.351 79.5393 208.508 79.7652 210.33C80.0983 213.024 81.7866 213.791 85.1654 214.073C89.1978 214.411 93.3408 214.474 97.3942 214.394C101.045 214.322 103.123 213.379 103.792 210.494C103.997 209.611 104.517 208.245 104.5 207.399C104.489 206.813 104.1 206.545 103.952 206.047C103.114 203.207 101.712 202.87 97.8354 202.746C94.982 202.655 92.0234 202.109 89.2234 202.219Z" fill="#89C5CC"/>
</g>
<g opacity="0.5">
<path opacity="0.5" fill-rule="evenodd" clip-rule="evenodd" d="M211.737 136.977C217.617 137.071 224.289 139.514 223.359 144.69C222.678 148.482 218.305 151.56 213.241 151.826C207.797 152.111 202.043 148.975 201.303 144.814C200.471 140.134 205.987 136.883 211.737 136.977ZM208.854 134.87C206.47 135.137 204.192 136.077 202.093 136.919C201.291 137.24 197.229 139.2 200.415 139.687C192.739 148.982 210.805 157.616 220.963 151.575C225.524 148.862 227.926 143.719 224.977 139.693C221.928 135.529 214.696 134.211 208.854 134.87Z" fill="#89C5CC"/>
<path opacity="0.5" fill-rule="evenodd" clip-rule="evenodd" d="M207.449 142.781C207.449 144.517 211.038 144.517 211.038 142.781C211.038 141.046 207.449 141.046 207.449 142.781Z" fill="#89C5CC"/>
<path opacity="0.5" fill-rule="evenodd" clip-rule="evenodd" d="M214.103 143.059C214.103 144.941 217.994 144.941 217.994 143.059C217.994 141.177 214.103 141.177 214.103 143.059Z" fill="#89C5CC"/>
<path opacity="0.5" fill-rule="evenodd" clip-rule="evenodd" d="M209.612 146.781C209.088 148.209 215.059 148.942 215.258 147.289C215.353 146.5 209.976 145.785 209.612 146.781Z" fill="#89C5CC"/>
<path opacity="0.5" fill-rule="evenodd" clip-rule="evenodd" d="M227.115 145.899C233.986 145.28 241.069 145.566 247.973 145.715C249.701 145.752 251.429 145.788 253.157 145.81C254.255 145.824 256.628 146.22 257.586 145.834C261.513 144.253 253.811 143.488 252.72 143.416C245.853 142.992 235.255 142.84 228.368 143.041C226.331 143.1 225.891 146.009 227.115 145.899Z" fill="#89C5CC"/>
<path opacity="0.5" fill-rule="evenodd" clip-rule="evenodd" d="M258.032 171.541C258.091 166.137 258.349 160.696 258.902 155.307C259.128 153.111 259.398 150.917 259.622 148.721C259.727 147.687 260.217 146.237 259.407 145.33C258.572 144.394 256.741 144.2 255.638 145.029C254.317 146.312 254.701 148.467 254.537 150.019C254.285 152.407 253.979 154.792 253.828 157.185C253.535 161.816 253.466 166.527 253.962 171.151C254.196 173.333 254.704 175.462 255.378 177.591C255.686 178.559 258.131 182.874 257.617 183.469C256.82 184.392 250.932 184.043 249.654 184.069C246.376 184.135 243.097 184.178 239.818 184.225C237.011 184.265 234.204 184.294 231.396 184.313C230.281 184.32 223.732 184.171 225.184 185.412C208.938 186.262 192.38 184.843 176.232 184.356C175.416 184.332 174.081 184.158 172.85 184.108C172.702 183.661 172.58 183.262 172.551 182.984C172.338 181.036 172.283 179.081 172.053 177.133C171.632 173.569 170.816 170.041 170.33 166.483C169.845 162.929 169.894 159.364 169.612 155.801C169.563 155.191 169.449 150.19 167.768 148.975C168.565 149.202 169.85 149.231 170.59 149.186C176.58 148.823 182.527 148.042 188.466 147.371C190.165 147.18 194.021 147.316 195.43 146.678C196.65 146.126 197.133 144.19 195.011 144.347C189.089 144.823 183.199 145.562 177.323 146.29C175.752 146.485 174.184 146.693 172.617 146.905C171.571 147.048 168.808 147.037 167.996 147.51C167.01 148.085 166.906 148.477 167.24 148.737C166.775 148.641 166.218 148.791 165.55 149.294C164.286 150.529 165.474 153.572 165.625 155.021C165.806 156.758 165.895 158.499 166 160.239C166.204 163.608 166.673 166.93 167.395 170.258C168.204 173.986 168.893 177.73 169.704 181.457C169.915 182.427 170.19 183.373 170.541 184.311C168.356 185.15 169.842 186.485 171.575 186.722C171.587 186.723 171.6 186.724 171.613 186.726C172.153 187.715 172.908 188.632 173.498 187.306C173.543 187.204 173.564 187.079 173.57 186.939C178.045 187.319 182.965 187.083 187.372 187.218C196.916 187.511 206.52 187.95 216.075 187.728C219.857 187.639 223.652 187.387 227.402 187.008C229.6 186.786 231.806 186.521 233.968 186.153C234.123 186.127 234.359 186.099 234.63 186.066C234.675 186.065 234.72 186.064 234.762 186.064C238.073 186.026 241.382 185.959 244.69 185.856C247.467 185.77 250.256 185.725 253.024 185.528C254.744 185.406 258.377 185.429 259.433 184.131C260.393 182.95 258.788 179.91 258.56 178.584C258.159 176.25 258.006 173.893 258.032 171.541Z" fill="#C1DEE2"/>
<path opacity="0.5" fill-rule="evenodd" clip-rule="evenodd" d="M224.476 155.936C221.831 156.106 219.384 157.039 216.714 157.051C214.473 157.06 212.266 156.557 210.013 156.632C207.37 156.718 205.915 158.002 203.6 158.431C201.757 158.773 200.595 157.714 198.974 157.245C196.927 156.653 195.415 156.959 193.66 157.854C192.371 158.512 189.364 159.987 189.387 161.318C189.456 165.347 195.718 159.781 196.981 159.714C198.658 159.624 200.532 161.059 202.316 161.141C204.676 161.25 206.189 160.107 208.361 159.691C210.559 159.271 212.934 159.786 215.136 159.946C217.649 160.129 219.849 159.708 222.28 159.258C224.636 158.821 226.644 158.844 229.038 159.211C230.654 159.458 234.68 160.897 235.386 159.047C236.349 156.529 226.326 155.818 224.476 155.936Z" fill="#89C5CC"/>
<path opacity="0.5" fill-rule="evenodd" clip-rule="evenodd" d="M225.282 163.622C219.861 164.017 214.407 164.363 208.961 164.474C206.602 164.522 197.535 163.763 198.339 166.013C199.028 167.943 211.367 166.728 213.88 166.581C216.655 166.419 219.425 166.193 222.186 165.931C223.165 165.838 225.527 165.934 226.218 165.318C226.876 164.73 226.552 163.526 225.282 163.622Z" fill="#89C5CC"/>
<path opacity="0.5" fill-rule="evenodd" clip-rule="evenodd" d="M187.884 173.869C187.76 173.908 187.76 173.908 187.884 173.869V173.869ZM189.027 173.858C190.379 173.826 190.089 173.29 191.437 173.569C192.059 173.698 192.123 173.507 192.605 173.953C193.545 174.824 192.66 176.72 191.732 177.421C188.299 180.019 184.18 173.973 189.027 173.858ZM189.027 171.309C179.629 171.546 183.561 182.446 191.741 180.221C195.119 179.302 197.242 175.162 195.256 172.836C194.289 171.704 193.057 171.503 191.437 171.425C191.061 171.407 190.588 171.817 190.354 171.798C189.796 171.754 189.848 171.286 189.027 171.309Z" fill="#89C5CC"/>
<path opacity="0.5" fill-rule="evenodd" clip-rule="evenodd" d="M211.501 174.243C211.334 174.204 214.469 174.889 214.126 174.621C214.858 175.192 213.874 176.544 213.046 176.78C211.04 177.351 209.915 175.01 211.501 174.243ZM212.892 171.287C209.95 171.601 207.679 172.521 207.277 174.977C206.905 177.245 208.946 179.542 212.166 179.586C219.182 179.682 219.396 170.607 212.892 171.287Z" fill="#89C5CC"/>
<path opacity="0.5" fill-rule="evenodd" clip-rule="evenodd" d="M244.925 174.341C245.336 178.368 239.774 174.682 244.925 174.341V174.341ZM242.538 170.033C242.051 170.658 242.466 171.32 243.2 171.683C236.64 172.724 238.125 180.136 244.801 179.04C248.196 178.483 248.821 175.803 248.315 173.591C248.074 172.538 244.581 167.411 242.538 170.033Z" fill="#89C5CC"/>
</g>
<g opacity="0.5">
<path opacity="0.5" fill-rule="evenodd" clip-rule="evenodd" d="M350.432 154.787C350.43 157.569 350.242 160.408 350.925 163.157C351.132 163.989 351.295 165.583 352.464 166.014C353.638 166.448 354.777 165.961 355.069 165.057C355.409 164.005 354.663 162.432 354.587 161.328C354.483 159.82 354.476 158.31 354.475 156.8C354.475 155.709 354.953 153.955 353.238 153.394C351.963 152.977 350.432 153.753 350.432 154.787Z" fill="#C1DEE2"/>
<path opacity="0.5" fill-rule="evenodd" clip-rule="evenodd" d="M409.008 150.388C396.731 151.313 384.279 151.506 371.958 151.988C366.263 152.211 359.381 151.927 354.016 153.581C353.02 153.889 349.452 155.599 352.348 156.296C353.251 156.513 354.168 155.783 354.91 155.538C356.145 155.131 357.574 155.005 358.891 154.846C370.085 153.496 381.795 153.732 393.105 153.101C396.003 152.939 398.901 152.773 401.795 152.559C403.86 152.407 408.205 151.289 410.11 151.861C413.366 152.838 413.29 159.186 413.357 161.37C413.391 162.499 411.931 166.553 414.829 166.142C417.155 165.813 416.314 161.602 416.133 160.45C415.658 157.43 414.846 149.944 409.008 150.388Z" fill="#C1DEE2"/>
<path opacity="0.5" fill-rule="evenodd" clip-rule="evenodd" d="M413.534 165.995C402.872 166.718 391.961 166.009 381.256 166.293C375.644 166.442 370.037 166.68 364.425 166.819C361.997 166.879 359.568 166.882 357.139 166.894C355.977 166.9 350.691 167.429 353.961 169.158C355.409 169.924 360.023 169.307 361.685 169.292C364.18 169.27 366.675 169.192 369.168 169.119C374.945 168.95 380.717 168.714 386.497 168.597C392.024 168.485 397.555 168.461 403.082 168.348C405.833 168.292 408.621 168.229 411.347 167.928C411.965 167.859 413.963 167.805 414.388 167.29C414.792 166.803 414.51 165.925 413.534 165.995Z" fill="#89C5CC"/>
<path opacity="0.5" fill-rule="evenodd" clip-rule="evenodd" d="M361.128 159.985C361.071 160.087 361.071 160.087 361.128 159.985V159.985ZM365.745 158.932C365.914 158.985 365.914 158.985 365.745 158.932V158.932ZM365.529 158.902C368.017 160.806 364.191 163.079 361.86 161.221C359.386 159.249 363.927 158.909 365.529 158.902ZM362.89 156.022C354.319 157.166 357.354 165.743 365.359 164.503C368.873 163.959 370.883 161.301 369.673 158.748C369.201 157.75 368.171 156.655 366.736 156.341C366.021 156.184 365.388 156.431 364.707 156.373C364.057 156.318 363.696 155.912 362.89 156.022Z" fill="#C1DEE2"/>
<path opacity="0.5" fill-rule="evenodd" clip-rule="evenodd" d="M395.692 158.435C390.524 158.447 385.355 158.612 380.187 158.685C378.602 158.708 374.528 158.175 374.521 160.051C374.514 162.056 379.053 161.315 380.563 161.288C385.689 161.196 390.828 161.028 395.936 160.661C397.223 160.569 401.689 160.729 401.685 159.412C401.677 158.017 396.735 158.435 395.692 158.435Z" fill="#C1DEE2"/>
<path opacity="0.5" fill-rule="evenodd" clip-rule="evenodd" d="M408.037 171.519C395.254 171.777 382.491 171.866 369.718 172.358C364.941 172.541 360.17 172.678 355.386 172.678C354.464 172.678 352.609 172.41 351.741 172.846C349.388 174.027 352.068 175.042 353.602 175.105C364.094 175.543 374.739 174.455 385.226 174.209C391.365 174.065 397.505 174.023 403.641 173.788C405.315 173.725 406.989 173.65 408.659 173.553C409.622 173.497 412.163 173.65 412.941 173.228C416.331 171.385 409.181 171.496 408.037 171.519Z" fill="#89C5CC"/>
<path opacity="0.5" fill-rule="evenodd" clip-rule="evenodd" d="M349.388 176.212C349.267 178.7 349.255 181.145 349.688 183.619C349.859 184.593 349.937 185.698 351.457 185.945C352.838 186.17 353.538 185.386 353.824 184.517C354.522 182.394 353.908 179.339 353.9 177.134C353.896 176.044 353.895 174.824 352.1 174.577C350.732 174.389 349.44 175.131 349.388 176.212Z" fill="#89C5CC"/>
<path opacity="0.5" fill-rule="evenodd" clip-rule="evenodd" d="M421.589 182.211C400.895 183.029 380.229 183.744 359.522 184.401C357.908 184.453 345.362 184.35 349.748 187.634C351.103 188.649 354.593 187.962 356.345 187.897C358.977 187.8 361.611 187.726 364.244 187.625C374.682 187.226 385.147 187.119 395.578 186.671C401.315 186.425 407.044 186.039 412.756 185.537C415.469 185.299 418.842 185.324 421.387 184.524C422.695 184.113 424.104 182.11 421.589 182.211Z" fill="#89C5CC"/>
<path opacity="0.5" fill-rule="evenodd" clip-rule="evenodd" d="M409.69 169.587C408.117 170.764 408.924 173.085 409.042 174.54C409.206 176.541 409.404 178.543 409.736 180.534C409.955 181.827 409.841 183.839 410.758 184.956C411.835 186.264 414.203 186.119 415.175 184.856C416.037 183.738 415.599 181.387 415.578 180.149C415.549 178.436 415.406 176.721 415.271 175.012C415.158 173.584 415.587 171.294 414.539 170.072C413.479 168.83 411.162 168.486 409.69 169.587Z" fill="#89C5CC"/>
<path opacity="0.5" fill-rule="evenodd" clip-rule="evenodd" d="M362.393 178.719C362.208 178.826 362.208 178.826 362.393 178.719V178.719ZM366.068 178.373C369.497 178.891 363.952 181.897 362.2 179.834C361.926 179.512 361.784 179.115 362.223 178.835C362.624 178.579 362.876 179.032 363.255 178.911C363.908 178.701 365.372 178.354 366.068 178.373ZM365.595 175.905C363.254 176.045 360.035 176.153 358.876 177.915C357.319 180.282 359.982 182.6 363.062 182.96C366.026 183.306 370.452 182.074 370.689 179.478C370.88 177.386 368.229 175.745 365.595 175.905Z" fill="#89C5CC"/>
<path opacity="0.5" fill-rule="evenodd" clip-rule="evenodd" d="M385.142 177.158C382.718 177.187 377.954 176.649 375.843 177.536C373.753 178.413 374.685 179.976 376.591 180.35C377.851 180.597 379.91 180.198 381.222 180.158C382.948 180.106 384.675 180.094 386.401 180.076C389.305 180.047 392.209 180.072 395.111 180.072C398.076 180.072 401.096 180.133 404.053 179.969C407.801 179.762 407.7 177.656 404.036 177.392C397.811 176.945 391.386 177.084 385.142 177.158Z" fill="#89C5CC"/>
<path opacity="0.5" fill-rule="evenodd" clip-rule="evenodd" d="M378.951 200.745C378.951 201.746 380.134 200.745 380.125 200.745C380.134 200.745 378.951 199.744 378.951 200.745Z" fill="#89C5CC"/>
<path opacity="0.5" fill-rule="evenodd" clip-rule="evenodd" d="M352.201 192.691C352.277 195.599 352.327 198.51 352.493 201.416C352.545 202.336 352.195 204.13 353.679 204.599C355.33 205.12 355.843 203.82 356.034 202.94C356.636 200.149 356.045 196.963 355.987 194.139C355.968 193.191 356.241 191.871 354.807 191.398C353.637 191.013 352.177 191.729 352.201 192.691Z" fill="#89C5CC"/>
<path opacity="0.5" fill-rule="evenodd" clip-rule="evenodd" d="M415.91 192.735C416.007 192.909 416.007 192.909 415.91 192.735V192.735ZM416.049 192.706C416.129 192.731 416.449 192.832 416.049 192.706V192.706ZM384.752 190.355C378.805 190.425 372.853 190.478 366.91 190.669C364.373 190.751 361.807 190.817 359.279 190.996C357.489 191.123 353.041 191.176 351.879 192.275C349.483 194.542 354.565 193.924 355.659 193.74C357.652 193.405 359.685 193.297 361.72 193.217C366.136 193.042 370.554 192.948 374.975 192.881C386.965 192.7 398.964 192.728 410.956 192.687C412.117 192.683 414.215 192.333 415.288 192.685C416.36 193.039 416.302 193.908 416.411 194.916C416.558 196.258 415.38 198.817 416.281 199.945C417.673 201.696 419.7 200.21 420.011 198.933C420.436 197.169 419.759 195.05 419.094 193.364C418.156 190.985 416.857 190.89 413.791 190.704C410.211 190.487 406.64 190.356 403.048 190.33C396.954 190.288 390.85 190.284 384.752 190.355Z" fill="#89C5CC"/>
<path opacity="0.5" fill-rule="evenodd" clip-rule="evenodd" d="M408.276 202.379C395.376 203.504 382.109 202.841 369.14 202.881C365.986 202.89 362.83 202.909 359.679 203.024C358.015 203.084 354.071 202.74 352.93 203.704C350.527 205.736 354.856 206.031 356.436 205.947C359.632 205.777 362.835 205.699 366.038 205.68C377.322 205.615 388.669 206.01 399.944 205.592C404.667 205.417 409.286 204.811 413.921 204.132C414.947 203.982 421.98 202.979 417.971 201.776C415.599 201.065 410.766 202.161 408.276 202.379Z" fill="#89C5CC"/>
<path opacity="0.5" fill-rule="evenodd" clip-rule="evenodd" d="M370.612 198.659C370.522 198.746 370.522 198.746 370.612 198.659V198.659ZM370.525 198.644C370.494 198.706 370.4 198.86 370.525 198.644V198.644ZM369.711 197.856C369.73 197.874 369.807 197.948 369.711 197.856V197.856ZM369.68 197.85C369.991 198.128 370.2 198.439 370.307 198.782C367.635 199.325 366.605 197.702 369.68 197.85ZM369.511 197.774C369.512 197.775 369.888 197.893 369.511 197.774V197.774ZM365.12 195.356C363.391 196.973 361.963 198.858 364.119 200.705C366.048 202.356 369.927 202.57 372.375 201.467C374.895 200.331 374.678 197.939 372.919 196.378C371.787 195.373 370.869 195.4 369.226 195.236C368.107 195.124 366.07 194.472 365.12 195.356Z" fill="#89C5CC"/>
<path opacity="0.5" fill-rule="evenodd" clip-rule="evenodd" d="M383.001 198.349C383.001 200.502 395.389 199.575 397.589 199.573C399.435 199.571 410.598 200.335 409.795 198.119C409.139 196.298 398.144 197.203 395.801 197.201C393.778 197.199 383.001 196.156 383.001 198.349Z" fill="#89C5CC"/>
</g>
<g opacity="0.5">
<path opacity="0.5" fill-rule="evenodd" clip-rule="evenodd" d="M221.308 218.525C227.511 219.201 233.964 221.391 233.909 226.812C233.864 231.37 228.773 236.22 222.235 235.948C216.351 235.703 210.811 230.873 210.075 226.733C209.693 224.588 210.407 222.279 212.087 220.515C214.289 218.203 217.783 218.207 221.308 218.525ZM218.378 215.579C213.892 215.598 210.61 216.816 207.833 219.388C206.838 220.31 205.679 221.302 204.921 222.347C204.214 223.323 204.338 225.804 206.767 224.641C206.169 229.444 209.908 234.107 215.284 236.568C221.128 239.244 227.732 238.722 232.595 234.972C237.047 231.539 238.614 225.74 235.357 221.494C232.102 217.251 224.56 215.534 218.378 215.579Z" fill="#89C5CC"/>
<path opacity="0.5" fill-rule="evenodd" clip-rule="evenodd" d="M231.831 214.292C228.959 215.872 226.336 217.953 224.158 220.064C222.029 222.127 220.622 224.703 218.064 226.503C216.772 225.446 215.259 222.594 212.683 223.725C210.544 224.665 211.921 226.28 212.962 227.34C215.651 230.078 218.637 231.18 222.086 228.474C225.218 226.018 226.996 222.74 229.925 220.142C231.21 219.002 233.194 217.87 234.217 216.612C235.144 215.471 233.997 213.096 231.831 214.292Z" fill="#89C5CC"/>
</g>
<g opacity="0.5">
<path opacity="0.5" fill-rule="evenodd" clip-rule="evenodd" d="M340.376 42.9023C340.38 43.1177 340.385 43.3204 340.391 43.5068C340.525 47.5749 340.447 51.8516 340.007 55.9105C339.855 57.312 338.497 59.0878 336.948 57.1564C336.267 56.3067 336.362 54.5625 336.432 53.2796C336.451 52.9356 336.468 52.6247 336.468 52.3732C336.467 50.9414 336.567 49.495 336.667 48.0451C336.863 45.2098 337.061 42.3598 336.502 39.5753C336.491 39.519 336.48 39.4647 336.47 39.4125C336.227 38.1882 336.21 38.1036 334.417 38.1314C333.669 38.1431 332.921 38.1583 332.174 38.1734C331.438 38.1882 330.703 38.2033 329.967 38.2147C329.237 38.2264 328.507 38.2369 327.776 38.2475C325.486 38.2803 323.196 38.3135 320.907 38.3766C320.524 38.3871 319.811 38.454 318.912 38.5389C317.114 38.7084 314.569 38.9478 312.427 38.9465C312.427 38.9532 312.428 38.9604 312.429 38.9671C312.43 38.9797 312.431 38.9924 312.431 39.005C312.456 39.8925 312.151 40.8834 311.845 41.879C311.589 42.7126 311.332 43.5492 311.266 44.3316C311.109 46.1928 311.107 48.0733 311.105 49.9543C311.103 52.2445 311.101 54.5347 310.818 56.7892C310.805 56.8994 310.797 57.0155 310.788 57.1332C310.787 57.1488 310.786 57.1644 310.785 57.1799C310.881 57.169 310.976 57.161 311.067 57.1568C312.61 57.0832 314.166 57.0769 315.721 57.0701C316.578 57.0668 317.434 57.063 318.288 57.0483C319.819 57.0213 321.37 57.0226 322.927 57.0239C326.364 57.0268 329.831 57.0298 333.193 56.7324C334.186 56.6357 334.533 57.5917 334.088 58.0876C333.689 58.5313 332.591 58.6033 331.787 58.6558C331.583 58.6693 331.398 58.6815 331.247 58.6979C329.079 58.9389 326.882 59.023 324.694 59.0958C322.396 59.1723 320.097 59.2295 317.798 59.2775C317.25 59.2889 316.52 59.3444 315.71 59.4058C313.573 59.5681 310.881 59.7721 309.544 59.3183C308.109 58.8308 308.142 58.2891 308.728 57.8697C308.471 57.4453 308.431 56.8253 308.399 56.3404C308.387 56.1553 308.376 55.99 308.355 55.8626C308.036 53.932 307.845 52.0258 307.84 50.0784C307.831 46.2638 307.841 42.3021 309.247 38.61C308.684 38.425 308.344 38.1524 308.346 37.7591C308.352 35.7781 316.564 35.879 320.468 35.927C321.166 35.9354 321.726 35.9421 322.077 35.9354C324.921 35.8794 327.765 35.8723 330.609 35.8836C331.21 35.8862 331.879 35.8567 332.572 35.826C334.046 35.7608 335.629 35.691 336.902 35.9131C340.247 36.496 340.328 40.4956 340.376 42.9023Z" fill="#89C5CC"/>
<path opacity="0.5" fill-rule="evenodd" clip-rule="evenodd" d="M361.295 36.3479C364.401 36.2243 367.508 36.1961 370.617 36.1877C373.909 36.1751 377.206 36.2196 380.496 36.2954L380.573 36.297C382.031 36.3298 390.135 36.5128 386.411 38.0291C386.194 38.1174 385.95 38.1915 385.683 38.2529C385.841 38.9549 385.86 39.6796 385.835 40.0287C385.738 41.3532 385.675 42.6789 385.612 44.0043C385.569 44.9027 385.526 45.8011 385.473 46.6991C385.326 49.1803 385.187 51.6615 385.073 54.1435C385.059 54.4484 385.08 54.8467 385.104 55.2909C385.183 56.7592 385.289 58.7269 384.227 59.4545C383.295 60.093 382.658 59.9651 382.229 59.5315C379.561 60.1128 374.083 59.9239 371.328 59.8288C370.665 59.8057 370.159 59.7885 369.889 59.7885C369.406 59.7885 368.509 59.8339 367.375 59.8911C362.658 60.1287 353.853 60.5729 353.835 58.827C353.834 58.6591 353.906 58.5086 354.043 58.3735C353.669 58.0875 353.333 57.6669 353.117 57.1424C352.342 55.2594 352.268 53.2274 352.211 51.2749C352.13 48.5178 352.129 45.7574 352.128 42.9978C352.128 41.5803 352.127 40.1633 352.116 38.7467C351.611 38.2381 351.911 37.6569 352.54 37.251C353.88 36.3879 357.204 36.3774 359.61 36.3698C360.257 36.3677 360.838 36.366 361.295 36.3479ZM356.242 57.6076C359.235 57.1281 364.279 57.2825 366.981 57.3653C367.688 57.3868 368.235 57.4036 368.543 57.4028C371.302 57.3944 374.063 57.4234 376.82 57.5062C377.106 57.5147 377.529 57.5067 378.027 57.4974C379.028 57.4785 380.334 57.4537 381.442 57.5458C381.427 57.4331 381.418 57.33 381.411 57.2408C381.287 55.3982 381.377 53.5395 381.466 51.6913C381.485 51.2985 381.504 50.906 381.521 50.514C381.58 49.1323 381.659 47.7515 381.737 46.3702V46.3698C381.787 45.5 381.836 44.6301 381.881 43.7599C381.9 43.3784 381.871 42.8598 381.839 42.2768C381.772 41.0899 381.69 39.635 381.973 38.5174C380.952 38.5031 379.906 38.4489 378.946 38.3988C378.022 38.3509 377.177 38.3071 376.514 38.3071C375.672 38.3067 374.831 38.305 373.989 38.3029C371.658 38.2974 369.327 38.2924 366.995 38.3269C366.774 38.3303 366.552 38.3336 366.331 38.3366C363.12 38.3833 359.883 38.4299 356.699 38.7475C356.512 38.766 356.288 38.8022 356.04 38.8455C356.389 39.9408 356.218 41.4844 356.069 42.8362C355.996 43.4928 355.928 44.1044 355.927 44.5969C355.923 47.6619 356.031 50.7142 356.138 53.7637V53.7641C356.179 54.9174 356.22 56.0707 356.254 57.224C356.258 57.3616 356.254 57.4894 356.242 57.6076Z" fill="#89C5CC"/>
<path opacity="0.5" fill-rule="evenodd" clip-rule="evenodd" d="M322.177 59.1892C320.136 60.0843 321.236 63.6645 321.943 64.9028C323.105 66.939 325.464 68.5322 328.008 69.5892C333.152 71.7251 340.565 71.1577 344.455 74.8611C344.495 74.8994 345.84 75.8988 346.146 74.6046C346.397 73.5425 343.887 71.9207 342.915 71.3882C340.149 69.8744 336.601 69.3861 333.402 68.6298C329.99 67.8235 326.246 66.3366 324.816 63.6956C324.309 62.7602 325.274 57.8239 322.177 59.1892Z" fill="#C1DEE2"/>
<path opacity="0.5" fill-rule="evenodd" clip-rule="evenodd" d="M368.828 60.9106C366.958 61.2976 368.195 63.2294 368.192 64.1968C368.188 65.4035 367.674 66.6666 366.684 67.6298C364.172 70.0719 359.253 70.4378 355.564 71.1381C352.887 71.6471 346.479 72.7381 346.229 75.4569C345.949 78.4933 351.605 74.7983 352.083 74.6469C357.37 73.1907 364.21 72.9097 368.29 69.7047C369.975 68.3819 370.97 66.6162 371.128 64.7937C371.218 63.7674 371.233 60.4172 368.828 60.9106Z" fill="#C1DEE2"/>
<path opacity="0.5" fill-rule="evenodd" clip-rule="evenodd" d="M330.188 87.8435C330.144 82.2254 337.305 78.8269 343.781 77.5487C351.565 76.0093 358.815 80.1035 359.733 85.9937C360.701 92.2099 354.461 97.2138 346.231 97.4885C338.992 97.7295 330.234 93.8385 330.188 87.8435ZM347.574 80.2498C347.995 80.6797 348.375 81.3653 347.527 81.7388C346.711 82.0955 346.304 81.6665 345.894 81.2345C345.635 80.9615 345.374 80.6877 345.01 80.6103C344.063 80.4105 342.543 81.1575 341.754 81.5933C341.434 81.7699 340.979 82.1506 340.447 82.5956C338.753 84.0122 336.28 86.0803 334.912 84.3007C329.46 91.3695 343.053 96.6595 350.783 93.9844C359.272 91.0465 357.62 80.3058 347.574 80.2498Z" fill="#89C5CC"/>
<path opacity="0.5" fill-rule="evenodd" clip-rule="evenodd" d="M340.45 85.9631C340.45 87.2527 343.163 87.2527 343.163 85.9631C343.163 84.6882 340.45 84.6335 340.45 85.9631Z" fill="#89C5CC"/>
<path opacity="0.5" fill-rule="evenodd" clip-rule="evenodd" d="M345.223 85.7208C345.223 87.3001 348.547 87.3001 348.547 85.7208C348.547 84.159 345.223 84.0926 345.223 85.7208Z" fill="#89C5CC"/>
<path opacity="0.5" fill-rule="evenodd" clip-rule="evenodd" d="M341.807 89.4013C339.089 90.6017 346.862 92.9869 347.17 90.5495C347.302 89.498 345.946 89.7815 345.041 89.7041C344.176 89.6301 342.628 89.0425 341.807 89.4013Z" fill="#89C5CC"/>
<path opacity="0.5" fill-rule="evenodd" clip-rule="evenodd" d="M340.629 97.9186C340.747 100.984 340.69 104.049 341.464 107.072C341.611 107.646 341.714 109.73 342.318 110.156C343.805 111.206 343.83 109.194 343.887 108.423C344.094 105.663 343.708 102.816 343.622 100.05C343.604 99.4542 343.814 98.221 343.44 97.6444C342.846 96.7295 340.57 96.4578 340.629 97.9186Z" fill="#C1DEE2"/>
<path opacity="0.5" fill-rule="evenodd" clip-rule="evenodd" d="M337.721 95.4318C331.761 100.453 323.555 100.084 315.287 100.523C310.919 100.756 306.502 101.233 302.987 103.354C301.352 104.341 299.943 105.577 298.996 106.986C298.582 107.601 296.618 111.155 299.567 110.312C300.613 110.013 301.643 107.663 302.319 106.968C303.608 105.644 305.257 104.551 307.235 103.841C311.05 102.471 315.606 102.494 319.743 102.32C324.067 102.138 328.708 101.969 332.683 100.557C334.553 99.8928 336.307 99.0642 337.812 97.9971C338.35 97.6156 339.503 96.9675 339.589 96.3841C339.687 95.717 338.834 94.4964 337.721 95.4318Z" fill="#C1DEE2"/>
<path opacity="0.5" fill-rule="evenodd" clip-rule="evenodd" d="M307.636 110.845C302.038 110.986 296.447 111.156 290.857 111.422C289.711 111.476 285.892 111.302 286.865 113.065C287.644 114.477 292.302 113.543 293.843 113.474C299.668 113.215 305.517 113.125 311.33 112.731C312.636 112.643 318.539 112.678 316.102 110.941C314.942 110.114 309.238 110.804 307.636 110.845Z" fill="#89C5CC"/>
<path opacity="0.5" fill-rule="evenodd" clip-rule="evenodd" d="M283.31 112.872C281.546 114.613 282.356 118.841 282.489 120.933C282.619 122.96 282.094 126.666 285.618 126.98C284.499 126.87 286.468 127.031 286.788 127.044C287.504 127.073 288.223 127.082 288.939 127.088C290.594 127.102 292.25 127.085 293.905 127.06C297.654 127.004 301.412 126.922 305.156 126.766C306.73 126.701 315.268 126.755 315.606 125.528C316.038 123.96 307.852 124.847 306.387 124.897C302.818 125.02 299.243 125.046 295.671 125.081C293.901 125.099 292.129 125.112 290.359 125.086C289.628 125.075 286.732 125.3 286.288 124.934C285.909 124.622 286.205 121.757 286.197 121.318C286.171 119.889 286.173 118.457 286.241 117.028C286.287 116.067 286.979 114.237 286.414 113.334C285.866 112.456 284.266 112.156 283.31 112.872Z" fill="#89C5CC"/>
<path opacity="0.5" fill-rule="evenodd" clip-rule="evenodd" d="M312.135 112.954C312.237 116.136 312.269 119.384 313.27 122.497C313.603 123.533 314.07 125.669 315.457 126.205C316.911 126.768 318.168 125.965 318.263 124.883C318.383 123.521 317.412 121.735 317.213 120.339C316.98 118.71 316.845 117.079 316.766 115.442C316.706 114.212 317.204 112.366 315.641 111.572C314.237 110.859 312.089 111.577 312.135 112.954Z" fill="#89C5CC"/>
<path opacity="0.5" fill-rule="evenodd" clip-rule="evenodd" d="M323.275 112.176C321.534 113.478 322.312 117.601 322.53 119.274C322.689 120.499 324.476 126.527 327.153 123.384C328.336 121.993 326.832 118.316 326.843 116.695C326.85 115.663 327.336 114.357 327.102 113.365C326.791 112.054 324.854 110.992 323.275 112.176Z" fill="#89C5CC"/>
<path opacity="0.5" fill-rule="evenodd" clip-rule="evenodd" d="M335.33 111.102C340.56 110.697 345.795 110.393 351.054 110.355C351.306 110.354 351.571 110.351 351.847 110.348C355.451 110.314 360.867 110.263 363.292 112.294C364.614 113.401 365.212 115.112 365.734 116.604C365.832 116.882 365.926 117.153 366.022 117.41C366.105 117.63 366.211 117.881 366.327 118.153C366.871 119.433 367.609 121.166 366.861 122.238C366.452 122.827 365.792 123.328 364.79 123.12C364.556 123.071 364.373 123.009 364.229 122.936C364.613 123.247 364.783 123.691 364.534 124.126C364.052 124.965 362.531 124.983 361.331 124.997C361.041 125 360.77 125.004 360.536 125.018C356.544 125.268 352.533 125.435 348.526 125.461C346.618 125.474 344.71 125.462 342.803 125.45C340.839 125.438 338.875 125.426 336.911 125.441C335.486 125.451 334.034 125.553 332.582 125.654C330.749 125.783 328.915 125.911 327.132 125.857C325.798 125.816 324.373 125.487 324.712 124.193C324.987 123.137 326.312 123.045 327.499 122.962C327.602 122.955 327.705 122.948 327.805 122.94C331.585 122.651 335.366 122.549 339.165 122.559C347.146 122.58 355.121 122.549 363.101 122.518C363.429 122.538 363.738 122.632 363.993 122.775C363.705 122.513 363.711 122.165 363.717 121.794C363.72 121.626 363.723 121.453 363.698 121.282C363.649 120.937 363.605 120.594 363.56 120.252C363.413 119.121 363.266 117.999 362.979 116.86C362.935 116.689 362.894 116.5 362.849 116.3C362.588 115.119 362.242 113.554 360.991 112.916C359.733 112.274 357.267 112.305 355.344 112.329C354.825 112.336 354.346 112.342 353.941 112.334C348.811 112.234 343.652 112.508 338.546 112.857C338.154 112.883 337.761 112.909 337.368 112.935C335.425 113.062 333.472 113.189 331.557 113.45C331.207 113.498 330.672 113.638 330.058 113.799C328.425 114.227 326.234 114.801 325.49 114.169C323.025 112.075 333.859 111.216 335.33 111.102Z" fill="#89C5CC"/>
<path opacity="0.5" fill-rule="evenodd" clip-rule="evenodd" d="M390.967 106.336C391.194 106.555 391.194 106.555 390.967 106.336V106.336ZM355.578 93.3654C352.402 94.7673 358.28 98.8796 359.778 99.516C363.148 100.947 367.778 101.163 371.541 101.566C376.303 102.075 381.485 102.263 386.062 103.434C388.012 103.934 389.251 104.713 390.528 105.91C391.175 106.517 392.731 109.131 394.152 108.512C397.008 107.266 389.311 102.035 387.614 101.472C383.759 100.194 379.202 99.8357 375.08 99.3394C371.247 98.8771 367.332 98.5339 363.594 97.72C361.538 97.2725 360.077 96.5503 358.892 95.1686C358.154 94.3072 357.548 92.5003 355.578 93.3654Z" fill="#C1DEE2"/>
<path opacity="0.5" fill-rule="evenodd" clip-rule="evenodd" d="M404.268 109.431C400.604 109.492 396.949 109.703 393.298 109.915C391.247 110.033 389.197 110.152 387.146 110.244C386.505 110.273 385.863 110.299 385.221 110.324C383.414 110.398 381.606 110.471 379.808 110.607C379.535 110.628 379.218 110.647 378.874 110.668C377.347 110.763 375.265 110.891 373.934 111.31C372.715 110.617 370.833 111.206 370.803 112.44C370.753 114.689 370.781 116.897 371.146 119.132C371.231 119.651 371.667 122.277 372.617 123.645C372.279 124.936 373.745 125.298 375.11 125.397C380.395 125.78 385.937 125.482 391.404 125.189C394.186 125.04 396.945 124.892 399.645 124.835C400.541 124.816 401.45 124.808 402.363 124.8C405.349 124.775 408.39 124.75 411.275 124.326C411.393 124.309 411.519 124.292 411.65 124.275C412.79 124.121 414.363 123.909 414.485 122.965C414.556 122.399 414.131 121.881 413.42 121.808C413.467 121.336 413.387 120.822 413.332 120.443C413.315 120.355 413.303 120.274 413.294 120.203C413.122 118.891 412.689 117.588 412.255 116.3C412.159 116.012 412.062 115.723 411.969 115.435C411.868 115.117 411.772 114.738 411.671 114.33C411.305 112.888 410.85 111.077 409.635 110.236C408.365 109.354 406.291 109.393 404.634 109.424C404.508 109.426 404.386 109.429 404.268 109.431ZM410.712 121.949C410.278 121.096 410.148 119.942 410.03 118.846V118.845C409.955 118.157 409.879 117.491 409.736 116.936C409.627 116.519 409.534 116.08 409.446 115.634C409.223 114.55 408.996 113.423 408.453 112.474C407.73 111.201 407.082 111.25 405.555 111.365C405.269 111.386 404.954 111.41 404.604 111.428C403.044 111.508 401.488 111.609 399.936 111.71C399.187 111.758 398.443 111.807 397.694 111.853C394.501 112.05 391.303 112.202 388.106 112.353C386.239 112.442 384.371 112.53 382.503 112.628C381.038 112.705 379.607 112.914 378.183 113.122C377.054 113.287 375.929 113.452 374.794 113.549C374.777 113.841 374.745 114.133 374.714 114.412C374.671 114.791 374.632 115.145 374.64 115.435C374.678 116.719 374.829 117.996 374.98 119.274C375.003 119.47 375.026 119.667 375.049 119.864C375.076 120.099 375.144 120.402 375.219 120.738C375.335 121.258 375.468 121.856 375.498 122.408C375.636 122.407 375.774 122.407 375.909 122.408C376.084 122.408 376.255 122.409 376.42 122.406C380.445 122.354 384.468 122.262 388.49 122.146C389.004 122.131 389.517 122.116 390.03 122.101C393.618 121.996 397.21 121.892 400.802 121.86C402.228 121.848 403.675 121.882 405.122 121.916C406.989 121.959 408.861 122.003 410.712 121.949Z" fill="#89C5CC"/>
</g>
<path d="M150.015 216.406H149.386C148.654 216.369 147.928 216.251 147.221 216.055C147.928 216.251 148.654 216.369 149.386 216.406H150.015Z" fill="#A65C18"/>
<path d="M151.817 216.248C152.216 216.175 152.603 216.09 153.026 215.981C152.603 216.139 152.216 216.139 151.817 216.248Z" fill="#A65C18"/>
<path d="M157.536 193.474C157.531 193.414 157.531 193.353 157.536 193.293C157.531 193.353 157.531 193.414 157.536 193.474V193.474Z" fill="#A65C18"/>
<path d="M159.423 211.129C159.616 210.839 159.786 210.549 159.955 210.246C159.786 210.549 159.616 210.839 159.423 211.129Z" fill="#A65C18"/>
<path d="M145.673 215.474C146.167 215.695 146.677 215.881 147.197 216.03C146.677 215.881 146.167 215.695 145.673 215.474V215.474Z" fill="#A65C18"/>
<path d="M140.038 197.141C139.832 197.516 139.651 197.903 139.481 198.351C139.651 197.903 139.832 197.516 140.038 197.141Z" fill="#A65C18"/>
<path d="M138.684 200.796C138.627 201.044 138.582 201.294 138.551 201.546C138.582 201.294 138.627 201.044 138.684 200.796V200.796Z" fill="#A65C18"/>
<path d="M150.015 216.405C150.627 216.408 151.238 216.355 151.841 216.248C151.238 216.355 150.627 216.408 150.015 216.405V216.405Z" fill="#A65C18"/>
<path d="M142.589 192.821C142.595 192.901 142.595 192.982 142.589 193.063C142.595 192.982 142.595 192.901 142.589 192.821C142.645 192.203 142.495 191.585 142.162 191.062C141.83 190.538 141.334 190.14 140.751 189.929C141.334 190.14 141.83 190.538 142.162 191.062C142.495 191.585 142.645 192.203 142.589 192.821Z" fill="#A65C18"/>
<path d="M139.845 209.835C140.196 210.504 140.6 211.143 141.054 211.747C140.6 211.143 140.196 210.504 139.845 209.835V209.835Z" fill="#A65C18"/>
<path d="M142.553 193.062C142.485 193.629 142.254 194.163 141.888 194.599C142.254 194.163 142.485 193.629 142.553 193.062V193.062Z" fill="#A65C18"/>
<path d="M159.423 211.13C158.246 212.94 156.599 214.396 154.658 215.341C156.599 214.396 158.246 212.94 159.423 211.13V211.13Z" fill="#A65C18"/>
<path d="M141.078 195.567C140.82 195.9 140.582 196.247 140.365 196.608C140.582 196.247 140.82 195.9 141.078 195.567V195.567Z" fill="#A65C18"/>
<path d="M139.022 199.513C138.885 199.934 138.772 200.362 138.684 200.795C138.772 200.362 138.885 199.934 139.022 199.513V199.513Z" fill="#A65C18"/>
<path d="M144.246 214.712C144.706 214.994 145.183 215.249 145.673 215.474C145.183 215.249 144.706 214.994 144.246 214.712V214.712Z" fill="#A65C18"/>
<path d="M160.125 189.783C159.709 189.81 159.304 189.927 158.937 190.125C158.57 190.323 158.251 190.598 158 190.932C157.75 191.265 157.575 191.648 157.486 192.056C157.398 192.463 157.399 192.885 157.488 193.292C157.399 192.885 157.398 192.463 157.486 192.056C157.575 191.648 157.75 191.265 158 190.932C158.251 190.598 158.57 190.323 158.937 190.125C159.304 189.927 159.709 189.81 160.125 189.783V189.783Z" fill="#A65C18"/>
<path d="M157.537 193.474C157.626 193.836 157.786 194.178 158.008 194.478V194.478C157.786 194.178 157.626 193.836 157.537 193.474V193.474Z" fill="#A65C18"/>
<path d="M138.381 204.208C138.459 206.167 138.958 208.086 139.844 209.835C138.958 208.086 138.459 206.167 138.381 204.208C138.352 203.317 138.408 202.426 138.55 201.546C138.408 202.426 138.352 203.317 138.381 204.208V204.208Z" fill="#A65C18"/>
<path d="M159.955 210.247C160.742 208.834 161.258 207.287 161.479 205.685C161.258 207.287 160.742 208.834 159.955 210.247V210.247Z" fill="#A65C18"/>
<path d="M144.247 214.712C143.008 213.926 141.922 212.922 141.042 211.747C141.922 212.922 143.008 213.926 144.247 214.712V214.712Z" fill="#A65C18"/>
<path d="M159.689 216.406H159.06C158.328 216.369 157.602 216.251 156.896 216.055C157.602 216.251 158.328 216.369 159.06 216.406H159.689Z" fill="#FFF377"/>
<path d="M161.503 216.248C161.902 216.175 162.289 216.09 162.712 215.981C162.289 216.139 161.902 216.139 161.503 216.248Z" fill="#FFF377"/>
<path d="M169.109 211.129C169.302 210.839 169.472 210.549 169.641 210.246C169.472 210.549 169.363 210.839 169.109 211.129Z" fill="#FFF377"/>
<path d="M155.36 215.474C155.854 215.695 156.363 215.881 156.884 216.03C156.363 215.881 155.854 215.695 155.36 215.474Z" fill="#FFF377"/>
<path d="M149.725 197.141C149.519 197.516 149.338 197.903 149.156 198.351C149.338 197.903 149.519 197.516 149.725 197.141Z" fill="#FFF377"/>
<path d="M148.37 200.796C148.31 201.038 148.273 201.292 148.225 201.546C148.273 201.292 148.31 201.038 148.37 200.796Z" fill="#FFF377"/>
<path d="M159.688 216.405C160.301 216.408 160.912 216.355 161.514 216.248C160.912 216.355 160.301 216.408 159.688 216.405V216.405Z" fill="#FFF377"/>
<path d="M152.276 192.821C152.282 192.901 152.282 192.982 152.276 193.063C152.282 192.982 152.282 192.901 152.276 192.821C152.332 192.203 152.182 191.585 151.849 191.062C151.517 190.538 151.021 190.14 150.438 189.929C151.021 190.14 151.517 190.538 151.849 191.062C152.182 191.585 152.332 192.203 152.276 192.821V192.821Z" fill="#FFF377"/>
<path d="M198.785 150.613C198.588 150.738 198.402 150.88 198.229 151.036C197.203 152.243 195.93 153.216 194.497 153.89C193.065 154.564 191.504 154.924 189.921 154.945C183.246 154.945 177.901 148.81 178.312 141.428C178.687 134.942 183.524 129.787 189.449 129.533C191.105 129.476 192.752 129.79 194.271 130.452C195.79 131.113 197.142 132.106 198.229 133.357C198.611 133.743 199.099 134.005 199.631 134.111C200.164 134.216 200.715 134.16 201.216 133.95C201.765 133.703 202.227 133.296 202.542 132.782C202.857 132.268 203.01 131.672 202.981 131.07V96.8848H127.038C122.334 96.8848 118.573 101.06 118.573 106.19V189.784H149.616C149.896 189.782 150.175 189.831 150.438 189.929C151.02 190.14 151.517 190.538 151.849 191.062C152.182 191.585 152.332 192.203 152.276 192.821C152.282 192.901 152.282 192.982 152.276 193.063C152.209 193.632 151.973 194.167 151.599 194.6C151.317 194.905 151.05 195.224 150.801 195.556C150.542 195.888 150.304 196.236 150.087 196.596L149.761 197.141C149.555 197.516 149.374 197.903 149.192 198.351C149.011 198.799 148.878 199.162 148.745 199.561C148.608 199.982 148.495 200.41 148.406 200.844C148.346 201.086 148.31 201.34 148.261 201.594C148.129 202.475 148.076 203.366 148.104 204.256C148.176 206.216 148.676 208.137 149.567 209.883C149.914 210.554 150.319 211.194 150.776 211.795C151.656 212.97 152.742 213.974 153.981 214.76C154.898 215.336 155.891 215.78 156.932 216.079C157.638 216.275 158.364 216.393 159.096 216.43H159.725C160.337 216.433 160.948 216.38 161.551 216.272C161.95 216.2 162.337 216.115 162.76 216.006C163.332 215.834 163.889 215.619 164.429 215.365C166.37 214.42 168.017 212.964 169.194 211.154C169.387 210.863 169.557 210.573 169.726 210.27C170.513 208.858 171.029 207.311 171.25 205.708C171.347 205.047 171.396 204.38 171.395 203.712C171.401 200.306 170.103 197.028 167.767 194.551V194.551C167.546 194.249 167.382 193.908 167.283 193.547V193.365C167.191 192.959 167.189 192.537 167.276 192.13C167.362 191.722 167.537 191.339 167.786 191.005C168.035 190.671 168.354 190.396 168.721 190.197C169.087 189.999 169.492 189.883 169.907 189.856H202.981V153.348C202.981 150.988 200.635 149.403 198.785 150.613Z" fill="#C5CFD6"/>
<path d="M256.129 189.783C255.455 189.771 254.807 189.522 254.298 189.08C253.79 188.637 253.453 188.029 253.348 187.363C253.257 186.894 253.27 186.41 253.385 185.946C253.499 185.482 253.714 185.049 254.013 184.676C255.211 183.377 256.138 181.851 256.74 180.189C257.342 178.527 257.607 176.762 257.52 174.996C257.29 168.51 252.574 163.222 246.636 162.822C239.877 162.362 234.265 168.219 234.265 175.504C234.256 178.914 235.555 182.197 237.893 184.676V184.676C238.231 185.125 238.442 185.655 238.504 186.213C238.567 186.771 238.478 187.335 238.249 187.847C238.019 188.359 237.656 188.799 237.198 189.123C236.74 189.447 236.203 189.641 235.644 189.686H202.993V224.96C202.941 225.439 203.033 225.922 203.257 226.348C203.48 226.774 203.826 227.123 204.249 227.352C204.672 227.581 205.154 227.678 205.632 227.631C206.111 227.585 206.565 227.396 206.936 227.09C208.016 225.819 209.368 224.807 210.892 224.131C212.416 223.454 214.073 223.13 215.739 223.182C221.689 223.412 226.55 228.579 226.913 235.077C227.336 242.458 221.979 248.594 215.316 248.594C213.739 248.583 212.183 248.237 210.75 247.577C209.318 246.918 208.042 245.961 207.008 244.77C206.781 244.53 206.51 244.337 206.21 244.201C205.822 244.055 205.404 244.012 204.994 244.074C204.585 244.137 204.198 244.304 203.872 244.559C203.545 244.814 203.29 245.149 203.129 245.531C202.969 245.913 202.91 246.33 202.957 246.742V280.951H278.719C283.411 280.951 287.184 276.777 287.184 271.646V189.723L256.129 189.783Z" fill="#C5CFD6"/>
<path d="M149.531 209.835C149.878 210.506 150.283 211.146 150.741 211.747C150.283 211.146 149.878 210.506 149.531 209.835V209.835Z" fill="#FFF377"/>
<path d="M152.24 193.062C152.173 193.631 151.937 194.167 151.562 194.599C151.937 194.167 152.173 193.631 152.24 193.062V193.062Z" fill="#FFF377"/>
<path d="M169.109 211.13C167.932 212.94 166.285 214.396 164.345 215.341C166.285 214.396 167.932 212.94 169.109 211.13Z" fill="#FFF377"/>
<path d="M150.764 195.567C150.506 195.9 150.268 196.247 150.051 196.608C150.268 196.247 150.506 195.9 150.764 195.567V195.567Z" fill="#FFF377"/>
<path d="M148.709 199.513C148.572 199.934 148.459 200.362 148.37 200.795C148.459 200.362 148.572 199.934 148.709 199.513V199.513Z" fill="#FFF377"/>
<path d="M153.933 214.712C154.39 214.999 154.867 215.254 155.36 215.474C154.867 215.254 154.39 214.999 153.933 214.712Z" fill="#FFF377"/>
<path d="M169.799 189.783C169.383 189.81 168.978 189.926 168.612 190.124C168.246 190.323 167.927 190.598 167.677 190.932C167.428 191.266 167.254 191.649 167.167 192.057C167.08 192.464 167.083 192.886 167.174 193.292C167.083 192.886 167.08 192.464 167.167 192.057C167.254 191.649 167.428 191.266 167.677 190.932C167.927 190.598 168.246 190.323 168.612 190.124C168.978 189.926 169.383 189.81 169.799 189.783V189.783Z" fill="#FFF377"/>
<path d="M167.211 193.474C167.31 193.835 167.474 194.176 167.695 194.478V194.478C167.474 194.176 167.31 193.835 167.211 193.474V193.474Z" fill="#FFF377"/>
<path d="M148.068 204.208C148.14 206.168 148.639 208.088 149.531 209.835C148.639 208.088 148.14 206.168 148.068 204.208C148.04 203.318 148.093 202.427 148.225 201.546C148.093 202.427 148.04 203.318 148.068 204.208V204.208Z" fill="#FFF377"/>
<path d="M169.642 210.247C170.428 208.834 170.945 207.287 171.165 205.685C170.945 207.287 170.428 208.834 169.642 210.247V210.247Z" fill="#FFF377"/>
<path d="M153.933 214.712C152.694 213.926 151.608 212.922 150.728 211.747C151.608 212.922 152.694 213.926 153.933 214.712V214.712Z" fill="#FFF377"/>
<path d="M226.937 235.138C226.574 228.64 221.713 223.473 215.763 223.243C214.097 223.191 212.44 223.515 210.916 224.192C209.392 224.868 208.04 225.88 206.96 227.151C206.589 227.457 206.135 227.646 205.656 227.692C205.178 227.739 204.696 227.642 204.273 227.413C203.85 227.184 203.504 226.835 203.281 226.409C203.057 225.983 202.965 225.5 203.017 225.021V189.784H169.786C169.26 189.829 168.756 190.016 168.327 190.324C167.898 190.632 167.56 191.051 167.348 191.535C167.137 192.019 167.059 192.551 167.125 193.076C167.19 193.6 167.395 194.097 167.718 194.515V194.515C170.054 196.992 171.353 200.27 171.346 203.675C171.346 210.936 165.735 216.829 158.987 216.369C153.062 215.97 148.346 210.682 148.104 204.196C148.025 202.443 148.293 200.691 148.893 199.043C149.492 197.394 150.412 195.88 151.599 194.588C151.994 194.132 152.239 193.566 152.3 192.966C152.354 192.578 152.327 192.183 152.22 191.807C152.112 191.43 151.928 191.08 151.677 190.779C151.426 190.478 151.116 190.233 150.765 190.06C150.414 189.886 150.031 189.788 149.64 189.771H118.573V271.695C118.573 276.826 122.382 281 127.038 281H202.981V246.803C202.934 246.391 202.993 245.974 203.154 245.592C203.314 245.21 203.569 244.875 203.896 244.62C204.222 244.365 204.609 244.198 205.018 244.135C205.428 244.073 205.846 244.116 206.234 244.262C206.534 244.398 206.805 244.591 207.032 244.831C208.064 246.019 209.335 246.974 210.763 247.633C212.191 248.293 213.743 248.641 215.316 248.655C222.003 248.655 227.409 242.519 226.937 235.138Z" fill="#DDE3E9"/>
<path d="M245.428 56.4072L233.637 88.0633C233.457 88.6297 233.097 89.1224 232.613 89.4671C232.129 89.8119 231.546 89.9902 230.952 89.9752C230.402 89.948 229.87 89.767 229.416 89.4525C228.963 89.1381 228.607 88.703 228.389 88.1964C227.822 86.59 226.922 85.1215 225.749 83.887C224.576 82.6525 223.155 81.6798 221.58 81.0326C216.006 78.8181 209.742 81.6014 207.166 87.4461C204.227 94.1137 207.069 101.967 213.212 104.763C214.649 105.406 216.21 105.725 217.784 105.695C219.358 105.666 220.906 105.29 222.318 104.593C222.53 104.516 222.749 104.459 222.971 104.424C225.099 104.073 226.732 106.505 225.91 108.683L213.382 142.433L243.614 155.925C244.136 156.119 244.703 156.161 245.249 156.046C245.794 155.931 246.296 155.664 246.696 155.275C247.096 154.886 247.378 154.392 247.508 153.849C247.639 153.307 247.614 152.739 247.435 152.21V152.138C246.147 148.952 246.095 145.4 247.29 142.179C249.805 135.426 256.964 132.316 263.119 135.535C268.464 138.355 271.004 145.216 268.984 151.266C268.482 152.899 267.644 154.407 266.523 155.695C265.403 156.983 264.025 158.022 262.478 158.745C262.068 158.97 261.714 159.287 261.446 159.671C261.178 160.055 261.001 160.496 260.931 160.959C260.795 161.64 260.892 162.346 261.206 162.965C261.519 163.583 262.031 164.079 262.66 164.372L291.477 177.211L320.318 99.7648C321.192 97.5289 321.197 95.0468 320.333 92.8072C319.469 90.5676 317.799 88.7328 315.651 87.6639" fill="#FF8427"/>
</svg>
