<svg width="115" height="100" viewBox="0 0 115 100" fill="none" xmlns="http://www.w3.org/2000/svg">
<path d="M7.9899 82.6985C4.05062 82.6985 0 85.8552 0 91.3805C0 96.4317 3.56144 99.9995 7.9899 99.9995C11.6454 99.9995 13.2746 97.5459 13.2746 97.5459V98.6154C13.2746 99.1209 13.7525 99.6849 14.3441 99.6849H16.9864V83.076H13.2746V85.1835C13.2746 85.1835 11.6317 82.6985 7.9899 82.6985ZM8.65111 86.0947C11.894 86.0947 13.595 88.9466 13.595 91.3792C13.595 94.0887 11.5754 96.6619 8.65799 96.6619C6.21926 96.6619 3.77635 94.6868 3.77635 91.3435C3.77635 88.3255 5.87863 86.0947 8.65111 86.0947Z" fill="black"/>
<path d="M22.1457 99.6848C21.5754 99.6848 21.0762 99.2758 21.0762 98.6153V83.0759H24.788V85.1312C25.6291 83.867 27.2724 82.6934 29.7946 82.6934C33.9171 82.6934 36.1123 85.9796 36.1123 89.0526V99.6848H33.5329C32.8565 99.6848 32.4005 99.1186 32.4005 98.5524V89.8705C32.4005 88.1671 31.3568 86.0984 28.9432 86.0984C26.3388 86.0984 24.788 88.5598 24.788 90.8771V99.6848H22.1457Z" fill="black"/>
<path d="M46.9333 82.6985C42.994 82.6985 38.9434 85.8551 38.9434 91.3804C38.9434 96.4316 42.5048 99.9995 46.9333 99.9995C50.5887 99.9995 52.2179 97.5459 52.2179 97.5459V98.6154C52.2179 99.1209 52.6959 99.6849 53.2875 99.6849H55.9298V74.7715H52.2179V85.1835C52.2179 85.1835 50.5751 82.6985 46.9333 82.6985ZM47.5945 86.0946C50.8373 86.0946 52.5384 88.9466 52.5384 91.3792C52.5384 94.0887 50.5187 96.6619 47.6013 96.6619C45.1626 96.6619 42.7197 94.6868 42.7197 91.3434C42.7197 88.3255 44.822 86.0946 47.5945 86.0946V86.0946Z" fill="black"/>
<path d="M61.089 99.6849C60.5188 99.6849 60.0195 99.2759 60.0195 98.6154V83.0759H63.7314V85.8441C64.3703 84.2934 65.749 82.8872 68.1982 82.8872C68.881 82.8872 69.5194 83.013 69.5194 83.013V86.8507C69.5194 86.8507 68.7222 86.5361 67.7578 86.5361C65.1534 86.5361 63.7314 88.9975 63.7314 91.3148V99.6849H61.089Z" fill="black"/>
<path d="M92.0402 99.6849C91.4699 99.6849 90.9707 99.2758 90.9707 98.6154V83.0759H94.6825V99.6849H92.0402Z" fill="black"/>
<path d="M105.568 82.6985C101.629 82.6985 97.5781 85.8551 97.5781 91.3804C97.5781 96.4316 101.14 99.9995 105.568 99.9995C109.224 99.9995 110.853 97.5459 110.853 97.5459V98.6154C110.853 99.1209 111.331 99.6849 111.922 99.6849H114.565V74.7715H110.853V85.1835C110.853 85.1835 109.21 82.6985 105.568 82.6985V82.6985ZM106.229 86.0946C109.472 86.0946 111.173 88.9466 111.173 91.3792C111.173 94.0887 109.153 96.6619 106.236 96.6619C103.797 96.6619 101.354 94.6868 101.354 91.3434C101.354 88.3255 103.457 86.0946 106.229 86.0946Z" fill="black"/>
<path d="M92.7988 79.4935C94.1547 79.4935 95.2538 78.3944 95.2538 77.0385C95.2538 75.6826 94.1547 74.5835 92.7988 74.5835C91.4429 74.5835 90.3438 75.6826 90.3438 77.0385C90.3438 78.3944 91.4429 79.4935 92.7988 79.4935Z" fill="black"/>
<path d="M79.3064 82.6929C75.1809 82.6929 70.6484 85.7723 70.6484 91.3509C70.6484 96.4343 74.5091 100 79.2975 100C85.1987 100 88.0802 95.2561 88.0802 91.3831C88.0802 86.6305 84.3697 82.6929 79.3064 82.6929ZM79.3199 86.1592C82.1728 86.1592 84.3008 88.4586 84.3008 91.3613C84.3008 94.3144 82.0418 96.5931 79.3284 96.5931C76.8096 96.5931 74.361 94.5433 74.361 91.411C74.361 88.2264 76.6898 86.1592 79.3199 86.1592V86.1592Z" fill="black"/>
<path d="M85.2422 19.3434L94.7392 2.89193C95.2751 1.96966 94.9511 0.798116 94.0413 0.262195C93.1315 -0.273718 91.9475 0.0378534 91.424 0.960134L81.8024 17.6235C74.4615 14.2709 66.1984 12.4014 57.3121 12.4014C48.4258 12.4014 40.1626 14.2709 32.8218 17.6235L23.2002 0.960134C22.6642 0.0378534 21.4927 -0.273718 20.5704 0.262195C19.6481 0.798116 19.3365 1.96966 19.8725 2.89193L29.3695 19.3434C12.9928 28.2173 1.90046 44.7934 0.0683594 64.1987H114.556C112.724 44.7934 101.631 28.2173 85.2422 19.3434ZM31.0271 48.1211C28.3724 48.1211 26.2287 45.9649 26.2287 43.3227C26.2287 40.6681 28.3849 38.5244 31.0271 38.5244C33.6817 38.5244 35.8254 40.6805 35.8254 43.3227C35.8379 45.9649 33.6817 48.1211 31.0271 48.1211ZM83.5846 48.1211C80.9299 48.1211 78.7863 45.9649 78.7863 43.3227C78.7863 40.6681 80.9424 38.5244 83.5846 38.5244C86.2393 38.5244 88.383 40.6805 88.383 43.3227C88.3954 45.9649 86.2393 48.1211 83.5846 48.1211Z" fill="#32DE84"/>
</svg>
