<svg width="371" height="100" viewBox="0 0 371 100" fill="none" xmlns="http://www.w3.org/2000/svg">
<path fill-rule="evenodd" clip-rule="evenodd" d="M108.836 74.1701V28.7155H114.69L142.513 65.2956V28.7155H148.078V74.1701H142.224L114.401 37.2292V74.1701H108.836ZM193.39 72.3663C189.705 73.7372 185.73 74.4587 181.538 74.4587C165.061 74.4587 156.822 66.5943 156.822 50.7934C156.822 35.8584 164.772 28.3548 180.671 28.3548C185.224 28.3548 189.488 29.0041 193.39 30.2307V35.2812C189.488 33.766 185.441 33.0445 181.322 33.0445C168.891 33.0445 162.676 38.9608 162.676 50.6491C162.676 63.2754 168.819 69.5525 181.032 69.5525C182.984 69.5525 185.152 69.2639 187.537 68.7588V53.5351H193.39V72.3663V72.3663ZM202.785 56.6376V28.7155H208.639V56.6376C208.639 65.3677 212.975 69.7689 221.72 69.7689C230.392 69.7689 234.8 65.3677 234.8 56.6376V28.7155H240.654V56.6376C240.654 68.5423 234.367 74.5308 221.72 74.5308C209.073 74.5308 202.785 68.5423 202.785 56.6376V56.6376ZM256.987 28.7155V69.4081H280.836V74.1701H251.133V28.7155H256.987V28.7155ZM289.291 74.1701H283.148L305.768 22.7271L328.388 74.1701H321.884L316.031 59.8843H300.999L302.589 55.1224H314.079L305.552 34.5597L289.291 74.1701V74.1701ZM334.676 74.1701V28.7155H354.116C362.788 28.7155 367.125 32.323 367.125 39.6102C367.125 45.5265 362.861 49.9276 354.405 52.7415L370.015 74.1701H362.283L347.829 53.7516V49.9276C356.501 48.5568 360.909 45.2379 360.909 39.8988C360.909 35.7141 358.525 33.6217 353.683 33.6217H340.674V74.1701H334.676V74.1701Z" fill="#B52E31"/>
<path fill-rule="evenodd" clip-rule="evenodd" d="M0 16.5945L46.6134 0L94.4553 16.3059L86.7225 77.8499L46.6134 100L7.15461 78.1385L0 16.5945Z" fill="#E23237"/>
<path fill-rule="evenodd" clip-rule="evenodd" d="M94.4552 16.3059L46.6133 0V100L86.7225 77.8499L94.4552 16.3059V16.3059Z" fill="#B52E31"/>
<path fill-rule="evenodd" clip-rule="evenodd" d="M46.6849 11.6885L17.6328 76.1906L28.4731 75.9742L34.3269 61.3999H60.2714L66.631 76.1185L76.9655 76.3349L46.6849 11.6885V11.6885ZM46.7571 32.3955L56.5857 52.8862H38.1571L46.7571 32.3955V32.3955Z" fill="white"/>
</svg>
