<svg width="82" height="100" viewBox="0 0 82 100" fill="none" xmlns="http://www.w3.org/2000/svg">
<path d="M44.7367 8.70224C51.2715 0.0422192 60.3564 0 60.3564 0C60.3564 0 61.7078 8.1419 55.2158 15.9851C48.284 24.36 40.405 22.9896 40.405 22.9896C40.405 22.9896 38.9255 16.4031 44.7367 8.70224V8.70224ZM41.2362 28.6929C44.598 28.6929 50.8374 24.0465 58.9588 24.0465C72.9384 24.0465 78.438 34.0482 78.438 34.0482C78.438 34.0482 67.6818 39.5776 67.6818 52.9944C67.6818 68.1298 81.0811 73.3459 81.0811 73.3459C81.0811 73.3459 71.7145 99.8531 59.0629 99.8531C53.252 99.8531 48.7344 95.9159 42.6119 95.9159C36.3725 95.9159 30.1808 100 26.1481 100C14.5953 100 0 74.8554 0 54.6431C0 34.7571 12.3539 24.3251 23.9414 24.3251C31.4743 24.3251 37.32 28.6929 41.2362 28.6929V28.6929Z" fill="#999999"/>
</svg>
