<svg width="200" height="100" viewBox="0 0 200 100" fill="none" xmlns="http://www.w3.org/2000/svg">
<path fill-rule="evenodd" clip-rule="evenodd" d="M0 3.63379H199.993V99.9964H0V3.63379V3.63379Z" fill="#C5C7C9"/>
<path fill-rule="evenodd" clip-rule="evenodd" d="M0 0H199.993V100H0V0V0Z" fill="url(#paint0_linear)"/>
<path fill-rule="evenodd" clip-rule="evenodd" d="M13.9219 32.0074V17.2379H16.6658L19.9224 27.6955C20.2237 28.6681 20.4449 29.3972 20.5795 29.8823C20.7365 29.3457 20.9801 28.5549 21.3135 27.5128L24.609 17.2379H27.0607V32.0074H25.3046V19.6449L21.3043 32.0074H19.6594L15.6786 19.4354V32.0074H13.9219V32.0074ZM30.1691 19.3255V17.2379H31.8621V19.3255H30.1691ZM30.1691 32.0074V21.3091H31.8621V32.0074H30.1691ZM41.3194 28.0873L42.9793 28.3211C42.7999 29.5489 42.3358 30.5118 41.5858 31.2064C40.8382 31.901 39.9186 32.2485 38.8293 32.2485C37.4664 32.2485 36.3669 31.7702 35.5406 30.8141C34.7099 29.858 34.2933 28.4864 34.2933 26.6981C34.2933 25.5428 34.4732 24.5317 34.8285 23.6651C35.1877 22.7984 35.7292 22.1486 36.4602 21.715C37.1874 21.2819 37.9826 21.0656 38.838 21.0656C39.922 21.0656 40.81 21.3607 41.4958 21.9493C42.1846 22.5374 42.6279 23.3691 42.8228 24.4525L41.1784 24.7242C41.0214 24.0053 40.7454 23.4658 40.3482 23.1008C39.9506 22.7401 39.4699 22.5574 38.9056 22.5574C38.0535 22.5574 37.3604 22.8845 36.8282 23.5411C36.2964 24.1944 36.0305 25.2297 36.0305 26.6461C36.0305 28.0839 36.2872 29.1289 36.8029 29.7822C37.3157 30.4326 37.986 30.7592 38.8128 30.7592C39.4767 30.7592 40.0279 30.539 40.4732 30.1025C40.9184 29.6656 41.2008 28.9948 41.3194 28.0873V28.0873ZM44.786 32.0074V21.3091H46.3059V22.9292C46.6933 22.1724 47.0525 21.6708 47.3826 21.4297C47.7097 21.1891 48.0718 21.0656 48.466 21.0656C49.0371 21.0656 49.6136 21.2615 50.2032 21.6499L49.6199 23.3351C49.2097 23.0702 48.7965 22.9394 48.3829 22.9394C48.0106 22.9394 47.6805 23.0599 47.3864 23.2967C47.0909 23.5377 46.8829 23.8678 46.7575 24.2911C46.5684 24.9337 46.4756 25.6385 46.4756 26.4055V32.0074H44.786V32.0074ZM50.9551 26.6568C50.9551 24.6761 51.4684 23.2077 52.4974 22.255C53.3529 21.4642 54.3984 21.0656 55.632 21.0656C57.0042 21.0656 58.126 21.5468 58.9946 22.5131C59.8666 23.476 60.2997 24.8069 60.2997 26.5052C60.2997 27.8846 60.1067 28.9676 59.7223 29.755C59.3378 30.5458 58.7764 31.1583 58.0424 31.5947C57.3051 32.0317 56.504 32.2485 55.632 32.2485C54.2375 32.2485 53.1094 31.7702 52.2471 30.8073C51.3848 29.8483 50.9551 28.4655 50.9551 26.6568V26.6568ZM52.6923 26.6568C52.6923 28.029 52.9713 29.0536 53.5293 29.7346C54.0868 30.419 54.7892 30.7592 55.632 30.7592C56.4719 30.7592 57.1709 30.4155 57.7289 29.7307C58.2835 29.0463 58.5625 28.0013 58.5625 26.5985C58.5625 25.2745 58.2835 24.2702 57.7221 23.5893C57.1607 22.9083 56.4656 22.568 55.632 22.568C54.7892 22.568 54.0868 22.9083 53.5293 23.5859C52.9713 24.2634 52.6923 25.2881 52.6923 26.6568V26.6568ZM61.9839 28.813L63.654 28.5306C63.7474 29.2495 64.0098 29.7997 64.4395 30.1847C64.8658 30.5667 65.4646 30.7592 66.2379 30.7592C67.0132 30.7592 67.5907 30.5871 67.9654 30.2508C68.3407 29.91 68.5292 29.511 68.5292 29.057C68.5292 28.6443 68.3625 28.3245 68.0296 28.0873C67.7982 27.9254 67.2212 27.7228 66.3016 27.4753C65.0646 27.138 64.2023 26.8493 63.7245 26.6019C63.2467 26.3579 62.8817 26.0172 62.6348 25.5836C62.3878 25.1505 62.2629 24.6727 62.2629 24.1502C62.2629 23.6719 62.3655 23.2315 62.5706 22.8257C62.7728 22.4169 63.0513 22.08 63.4008 21.8117C63.6633 21.6052 64.0229 21.4263 64.4745 21.2819C64.9295 21.1376 65.417 21.0656 65.9361 21.0656C66.7187 21.0656 67.4045 21.1891 67.997 21.4297C68.5905 21.6708 69.0265 21.9974 69.3089 22.4101C69.5908 22.8257 69.7828 23.3759 69.8883 24.0676L68.2376 24.3116C68.1608 23.7608 67.9431 23.3317 67.5843 23.022C67.2251 22.7124 66.7157 22.5574 66.0581 22.5574C65.2823 22.5574 64.7277 22.6949 64.3972 22.97C64.0643 23.2456 63.898 23.5684 63.898 23.9368C63.898 24.174 63.968 24.3835 64.1061 24.5726C64.2441 24.7685 64.4585 24.9269 64.7535 25.0577C64.9231 25.1228 65.4204 25.2779 66.2472 25.5185C67.4429 25.8626 68.276 26.1411 68.7475 26.3613C69.2219 26.5776 69.5942 26.8979 69.863 27.3135C70.1323 27.7296 70.2669 28.2453 70.2669 28.8645C70.2669 29.4697 70.1002 30.0374 69.7736 30.5735C69.4431 31.1067 68.9687 31.5189 68.3499 31.8115C67.7316 32.1041 67.0293 32.2485 66.2472 32.2485C64.9489 32.2485 63.9617 31.9593 63.2822 31.3818C62.6027 30.8039 62.1706 29.9475 61.9839 28.813V28.813ZM72.0216 26.6568C72.0216 24.6761 72.5349 23.2077 73.5639 22.255C74.4194 21.4642 75.4649 21.0656 76.6985 21.0656C78.0707 21.0656 79.1925 21.5468 80.0616 22.5131C80.9331 23.476 81.3662 24.8069 81.3662 26.5052C81.3662 27.8846 81.1732 28.9676 80.7887 29.755C80.4043 30.5458 79.8429 31.1583 79.1089 31.5947C78.3716 32.0317 77.5705 32.2485 76.6985 32.2485C75.304 32.2485 74.1758 31.7702 73.3136 30.8073C72.4518 29.8483 72.0216 28.4655 72.0216 26.6568V26.6568ZM73.7588 26.6568C73.7588 28.029 74.0378 29.0536 74.5958 29.7346C75.1533 30.419 75.8557 30.7592 76.6985 30.7592C77.5384 30.7592 78.2374 30.4155 78.7954 29.7307C79.35 29.0463 79.629 28.0013 79.629 26.5985C79.629 25.2745 79.35 24.2702 78.7886 23.5893C78.2272 22.9083 77.5321 22.568 76.6985 22.568C75.8557 22.568 75.1533 22.9083 74.5958 23.5859C74.0378 24.2634 73.7588 25.2881 73.7588 26.6568V26.6568ZM84.1275 32.0074V22.7192H82.6372V21.3091H84.1275V20.1713C84.1275 19.4524 84.1883 18.9162 84.3074 18.5687C84.4702 18.0977 84.7555 17.7162 85.1662 17.4235C85.577 17.1314 86.15 16.9871 86.8903 16.9871C87.3652 16.9871 87.8906 17.0454 88.4676 17.1693L88.2148 18.751C87.8649 18.682 87.5319 18.6479 87.2174 18.6479C86.7046 18.6479 86.3425 18.7646 86.1311 19.0023C85.9162 19.2356 85.8103 19.6765 85.8103 20.3224V21.3091H87.7526V22.7192H85.8103V32.0074H84.1275V32.0074ZM93.1367 30.384L93.3802 31.987C92.9058 32.0934 92.4791 32.1484 92.1048 32.1484C91.489 32.1484 91.0146 32.0453 90.6748 31.8358C90.338 31.6292 90.1012 31.3541 89.9632 31.0139C89.8256 30.6766 89.7547 29.9616 89.7547 28.8747V22.7192H88.5142V21.3091H89.7547V18.6582L91.4374 17.5713V21.3091H93.1367V22.7192H91.4374V28.9749C91.4374 29.494 91.4666 29.824 91.5244 29.9718C91.5852 30.1195 91.6814 30.2367 91.8156 30.3256C91.9502 30.4117 92.1427 30.4564 92.393 30.4564C92.5821 30.4564 92.829 30.4325 93.1367 30.384Z" fill="white" stroke="white" stroke-width="1.10229"/>
<path fill-rule="evenodd" clip-rule="evenodd" d="M36.5366 70.9018H24.1706L22.4689 77.3134H11.3789L24.5794 38.4711H36.4141L49.6219 77.3134H38.2621L36.5366 70.9018V70.9018ZM34.2628 62.4997L30.3782 48.5365L26.5179 62.4997H34.2628ZM45.2002 64.4624L55.53 63.7484C55.7507 65.6017 56.2091 67.0128 56.8954 67.9893C58.0085 69.5632 59.611 70.3409 61.6885 70.3409C63.2341 70.3409 64.4279 69.9428 65.2707 69.1378C66.1048 68.3329 66.5219 67.4016 66.5219 66.3435C66.5219 65.3397 66.1291 64.4352 65.3276 63.6395C64.5261 62.8433 62.6781 62.0928 59.7666 61.3876C55.0065 60.203 51.6119 58.6384 49.584 56.6757C47.5391 54.7134 46.5169 52.2175 46.5169 49.1786C46.5169 47.1799 47.0409 45.2901 48.0874 43.5174C49.1344 41.7452 50.7044 40.3522 52.8066 39.3305C54.9084 38.3175 57.7873 37.8105 61.443 37.8105C65.9328 37.8105 69.3595 38.7336 71.715 40.5782C74.0709 42.4228 75.4693 45.3625 75.9189 49.3866L65.6873 50.0472C65.4175 48.3018 64.8454 47.0263 63.9705 46.2306C63.1034 45.4437 61.9009 45.0456 60.3717 45.0456C59.1036 45.0456 58.1553 45.3353 57.5171 45.9322C56.8793 46.5198 56.56 47.2431 56.56 48.0937C56.56 48.7086 56.8225 49.2598 57.346 49.7575C57.8607 50.2727 59.0715 50.7432 60.9929 51.1861C65.7369 52.3171 69.1311 53.4652 71.1837 54.623C73.2364 55.7808 74.7334 57.2094 75.6652 58.9281C76.598 60.6371 77.0724 62.5541 77.0724 64.6797C77.0724 67.1669 76.4424 69.4635 75.1991 71.5618C73.9557 73.6684 72.2142 75.2608 69.9734 76.3457C67.7399 77.4311 64.9188 77.9735 61.5164 77.9735C55.5461 77.9735 51.4077 76.7073 49.1096 74.1569C46.8032 71.6158 45.5035 68.3874 45.2002 64.4624V64.4624ZM76.4867 38.4711H94.5284C98.4538 38.4711 101.398 39.5021 103.353 41.5732C105.308 43.6351 106.289 46.583 106.289 50.3904C106.289 54.3158 105.226 57.3814 103.091 59.5882C100.957 61.7944 97.7014 62.8978 93.3259 62.8978H87.3886V77.3134H76.4867V38.4711V38.4711ZM87.3886 55.0298H90.0464C92.1399 55.0298 93.6044 54.6322 94.455 53.8273C95.2969 53.0224 95.7222 51.991 95.7222 50.7432C95.7222 49.5223 95.3542 48.4826 94.6178 47.6412C93.8902 46.7911 92.5078 46.3662 90.4795 46.3662H87.3886V55.0298V55.0298Z" fill="white" stroke="white" stroke-width="1.37786"/>
<path d="M110.641 76.8459V43.7678H115.057V48.4676C117.192 44.8313 120.267 43.0135 124.283 43.0135C126.035 43.0135 127.637 43.3746 129.1 44.0872C130.572 44.8104 131.663 45.7461 132.39 46.9151C133.126 48.0744 133.629 49.4562 133.927 51.051C134.104 52.0936 134.197 53.9115 134.197 56.5061V76.8459H129.277V56.7185C129.277 54.4433 129.091 52.7313 128.709 51.5935C128.327 50.4663 127.647 49.5632 126.677 48.8929C125.699 48.2124 124.562 47.8722 123.248 47.8722C121.152 47.8722 119.354 48.6382 117.825 50.1474C116.306 51.6678 115.551 54.5385 115.551 58.7814V76.8459H110.641V76.8459ZM161.574 66.1919L166.652 66.9045C165.85 70.2962 164.37 72.9224 162.207 74.7938C160.036 76.6544 157.269 77.5901 153.905 77.5901C149.665 77.5901 146.302 76.1018 143.823 73.1241C141.335 70.1475 140.095 65.9688 140.095 60.589C140.095 55.0173 141.354 50.7006 143.86 47.6277C146.376 44.5553 149.628 43.0135 153.634 43.0135C157.511 43.0135 160.679 44.5232 163.13 47.5319C165.59 50.5411 166.82 54.7835 166.82 60.2376C166.82 60.5779 166.811 61.078 166.792 61.7371H145.174C145.351 65.3734 146.255 68.159 147.876 70.0838C149.498 72.0188 151.51 72.9866 153.933 72.9866C155.731 72.9866 157.269 72.4441 158.546 71.3597C159.823 70.2855 160.829 68.5634 161.574 66.1919V66.1919ZM145.444 57.1229H161.63C161.415 54.3475 160.791 52.2526 159.775 50.8707C158.21 48.7121 156.179 47.6277 153.691 47.6277C151.435 47.6277 149.535 48.489 147.997 50.2116C146.46 51.9337 145.611 54.2411 145.444 57.1229ZM183.555 71.8273L184.263 76.7823C182.884 77.1118 181.645 77.2814 180.555 77.2814C178.765 77.2814 177.386 76.9626 176.399 76.3142C175.42 75.676 174.731 74.8259 174.331 73.773C173.93 72.7309 173.725 70.5193 173.725 67.1597V48.1273H158.055V43.7678H173.725V35.5704L178.617 32.2107V43.7678H183.555V48.1273H178.617V67.4678C178.617 69.0733 178.7 70.0945 178.868 70.5514C179.045 71.0088 179.325 71.3704 179.716 71.647C180.107 71.9124 180.667 72.0509 181.393 72.0509C181.943 72.0509 182.661 71.9765 183.555 71.8273V71.8273Z" fill="white" stroke="white" stroke-width="1.37786"/>
<path fill-rule="evenodd" clip-rule="evenodd" d="M103.31 68.322C105.471 68.322 107.224 70.1 107.224 72.2917C107.224 74.4834 105.471 76.2614 103.31 76.2614C101.149 76.2614 99.3965 74.4834 99.3965 72.2917C99.3965 70.1 101.149 68.322 103.31 68.322Z" fill="white" stroke="white" stroke-width="1.37786"/>
<path fill-rule="evenodd" clip-rule="evenodd" d="M188.082 43.7312H190.06V45.6983H188.082V43.7312Z" fill="white" stroke="white" stroke-width="1.10229"/>
<path fill-rule="evenodd" clip-rule="evenodd" d="M98.192 24.9559C97.6223 25.493 97.023 25.7603 96.3955 25.7603C95.8686 25.7603 95.4491 25.6057 95.14 25.2976C94.8309 24.9889 94.6777 24.5933 94.6777 24.1125C94.6777 23.871 94.7137 23.6605 94.79 23.4807C94.8644 23.2979 94.9742 23.1385 95.1235 22.997C95.2698 22.8585 95.4613 22.7453 95.696 22.6578C95.8589 22.6038 96.0907 22.5503 96.3906 22.5008L97.4206 22.334C97.7584 22.2645 97.9835 22.2159 98.0938 22.1848C98.0919 21.8329 98.0578 21.5967 97.9961 21.4757C97.9363 21.3571 97.8235 21.2521 97.6554 21.1646C97.4906 21.0776 97.2699 21.0333 96.9943 21.0333C96.623 21.0333 96.3474 21.113 96.1656 21.2778C95.9833 21.4397 95.8705 21.6735 95.8278 21.9744L94.8673 21.7172C94.9217 21.27 95.1278 20.8972 95.4851 20.5993C95.8394 20.3008 96.3474 20.1516 97.0065 20.1516C97.7754 20.1516 98.3164 20.3038 98.6353 20.6124C98.9497 20.923 99.1048 21.3755 99.1048 21.9744V23.781L99.0975 24.2409C99.0975 24.9116 99.1938 25.3744 99.3877 25.6266H98.348C98.2547 25.4264 98.2017 25.2023 98.192 24.9559H98.192ZM98.0894 23.0665C97.8401 23.136 97.3924 23.2255 96.7406 23.3363C96.3187 23.4058 96.0455 23.5059 95.9187 23.6294C95.7889 23.7606 95.7223 23.9225 95.7223 24.1125C95.7223 24.3182 95.8015 24.4931 95.9614 24.6394C96.1199 24.7857 96.3454 24.8582 96.6346 24.8582C96.9773 24.8582 97.2748 24.7605 97.5261 24.5646C97.7798 24.3668 97.948 24.1281 98.0316 23.8399C98.0651 23.7402 98.0846 23.4831 98.0894 23.0665V23.0665Z" fill="white" stroke="white" stroke-width="1.10229"/>
<defs>
<linearGradient id="paint0_linear" x1="199.601" y1="-0.175399" x2="199.601" y2="100.438" gradientUnits="userSpaceOnUse">
<stop stop-color="#106BBD"/>
<stop offset="1" stop-color="#193A94"/>
</linearGradient>
</defs>
</svg>
