<svg width="348" height="100" viewBox="0 0 348 100" fill="none" xmlns="http://www.w3.org/2000/svg">
<path d="M59.764 94.6596C76.3612 91.7295 90.0696 89.3048 90.227 89.2714L90.5133 89.2107L74.8439 70.5838C66.2257 60.339 59.1745 51.9171 59.1745 51.8686C59.1745 51.7767 75.3545 7.24757 75.4454 7.08915C75.4758 7.03619 86.4868 26.0348 102.137 53.143C116.789 78.5222 128.868 99.4474 128.98 99.6435L129.185 100L79.3859 99.9936L29.5872 99.9872L59.764 94.6596V94.6596ZM250.736 90.1548C243.156 89.6691 238.747 85.3553 237.579 77.2809C237.268 75.1329 237.267 75.0772 237.235 61.1328L237.204 47.637H240.559H243.914L243.94 60.691C243.964 72.4561 243.979 73.8355 244.092 74.6632C244.548 78.0221 245.458 80.2809 247.006 81.9022C248.245 83.1998 249.696 83.9595 251.703 84.3627C252.651 84.5529 255.345 84.5533 256.209 84.3635C258.245 83.9158 259.876 83.0305 261.315 81.5927C262.956 79.9539 264.169 77.6287 264.757 74.9994L264.955 74.1133L264.977 60.9489L264.999 47.7845H268.424H271.849V68.4793V89.1741H268.459H265.069V85.8906C265.069 83.6597 265.045 82.6154 264.993 82.6326C264.951 82.6466 264.777 82.9128 264.606 83.2241C263.438 85.3532 261.492 87.3003 259.359 88.4733C256.803 89.8794 254.239 90.3794 250.736 90.155L250.736 90.1548ZM327.677 90.1214C325.001 89.9203 322.184 89.0009 319.881 87.5773C315.027 84.5767 312.155 79.6308 311.314 72.8243C311.023 70.469 310.988 67.3052 311.231 65.3038C311.774 60.8319 313.532 56.4419 316.036 53.3079C316.678 52.5044 318.134 51.0492 318.938 50.4077C321.109 48.6755 323.648 47.4643 326.344 46.8748C327.915 46.5314 330.681 46.3702 332.35 46.5248C336.542 46.9131 340.384 48.8858 342.996 51.9907C345.649 55.1452 347.108 59.5531 347.294 64.9809C347.323 65.8315 347.33 67.3229 347.31 68.295L347.272 70.0625L332.589 70.0811L317.906 70.0997V70.7545C317.906 72.748 318.391 75.0185 319.229 76.9503C319.952 78.6161 321.197 80.4352 322.216 81.3155C324.305 83.1205 326.862 84.2009 329.66 84.4609C330.697 84.5573 333.341 84.4558 334.524 84.2742C337.897 83.7562 341.104 82.434 343.693 80.4936C343.998 80.2653 344.29 80.052 344.341 80.0196C344.417 79.9722 344.435 80.5687 344.433 83.0759L344.43 86.1912L343.737 86.6201C340.807 88.4309 337.451 89.5936 333.897 90.0288C332.837 90.1587 328.945 90.2166 327.677 90.1213L327.677 90.1214ZM340.456 63.8472C340.456 60.508 339.048 56.7986 337.055 54.8885C335.633 53.5254 333.914 52.6923 331.871 52.376C330.904 52.2263 328.866 52.284 327.847 52.4898C325.692 52.9249 323.91 53.8717 322.355 55.4068C320.719 57.0225 319.493 58.9848 318.721 61.2206C318.444 62.0246 318.12 63.3445 318.019 64.0787L317.971 64.4285H329.213H340.456V63.8472ZM141.283 89.0818C141.3 89.0312 146.286 75.9406 152.363 59.9916L163.411 30.9934L166.961 30.9931L170.511 30.9929L170.806 31.7478C171.706 34.0546 192.925 89.111 192.925 89.1396C192.925 89.1585 191.225 89.1737 189.148 89.1734L185.372 89.1726L182.313 81.0353L179.255 72.898L166.941 72.8979L154.628 72.8977L154.521 73.1739C154.462 73.3258 153.155 76.9873 151.617 81.3106L148.82 89.1711L145.036 89.1724C142.04 89.1735 141.258 89.1545 141.283 89.0817V89.0818ZM177.008 66.6881C177.008 66.6753 174.949 61.0993 172.434 54.2971C167.728 41.5713 167.465 40.8056 167.093 38.7626C166.919 37.8046 166.831 37.778 166.727 38.6521C166.653 39.277 166.332 40.6752 166.085 41.4507C165.962 41.8355 163.843 47.6483 161.376 54.368C158.908 61.0877 156.89 66.6139 156.89 66.6486C156.89 66.6832 161.416 66.7116 166.949 66.7116C172.481 66.7116 177.008 66.7011 177.008 66.6881V66.6881ZM195.209 88.1141V87.0543L207.478 70.1995L219.746 53.3447L208.638 53.3079L197.531 53.271L197.511 50.454L197.492 47.637H213.558H229.623V48.5885V49.54L217.354 66.4867C210.605 75.8074 205.084 83.4491 205.084 83.4683C205.084 83.4874 210.539 83.5031 217.206 83.5031H229.329V86.3385V89.1739H212.269H195.209V88.1141ZM285.236 89.1248C285.209 89.0978 285.187 79.752 285.187 68.3564V47.637H288.54H291.893V51.9086C291.893 54.2579 291.922 56.1801 291.956 56.1801C291.991 56.1801 292.155 55.7955 292.319 55.3255C293.073 53.1717 294.38 51.1592 296.065 49.5597C297.582 48.1188 299.316 47.2572 301.362 46.9274C301.937 46.8348 302.424 46.8171 303.573 46.847C305.017 46.8846 305.772 46.9901 306.65 47.2769L306.926 47.3672V50.8454V54.3236L306.134 53.9273C304.735 53.2273 303.354 52.9503 301.694 53.0365C300.614 53.0926 299.905 53.2313 299.041 53.5552C297.264 54.2217 295.823 55.398 294.816 57.0038C293.358 59.3284 292.318 62.3165 292.011 65.0628C291.956 65.5557 291.924 69.5695 291.911 77.4825L291.892 89.1739H288.588C286.772 89.1739 285.263 89.1518 285.236 89.1248V89.1248ZM0 88.9793C0 88.9531 7.38336 76.144 16.4075 60.5146L32.8149 32.0975L51.9359 16.0609C62.4524 7.2408 71.0852 0.0135431 71.1198 0.0003623C71.1544 -0.0128159 71.0161 0.335164 70.8124 0.773655C70.6087 1.21215 61.2655 21.2402 50.0497 45.2804L29.6573 88.9898L14.8287 89.0084C6.6729 89.0186 0 89.0055 0 88.9793V88.9793Z" fill="#0089D6"/>
</svg>
