<svg width="601" height="75" viewBox="0 0 601 75" fill="none" xmlns="http://www.w3.org/2000/svg">
<path d="M158.248 70.3998C154.048 73.1998 147.248 74.3998 140.248 74.3998C117.948 74.3998 105.248 60.9998 105.248 39.4998C105.248 18.7998 117.848 4.2998 140.048 4.2998C146.648 4.2998 153.248 5.49982 158.148 8.99982V17.9998C153.248 14.8998 147.948 13.2998 140.048 13.2998C124.148 13.2998 114.548 23.8998 114.548 39.4998C114.548 55.0998 124.348 65.4998 140.548 65.4998C146.648 65.5998 152.748 64.0998 158.148 61.3998L158.248 70.3998Z" fill="#253858"/>
<path d="M164.748 47.5002C164.748 32.0002 173.848 20.7002 189.348 20.7002C204.848 20.7002 213.748 32.0002 213.748 47.5002C213.748 63.0002 204.748 74.5002 189.348 74.5002C173.948 74.5002 164.748 63.0002 164.748 47.5002ZM173.448 47.5002C173.448 57.3002 178.348 66.2002 189.348 66.2002C200.348 66.2002 205.048 57.3002 205.048 47.5002C205.048 37.7002 200.348 29.0002 189.348 29.0002C178.348 29.0002 173.448 37.7002 173.448 47.5002Z" fill="#253858"/>
<path d="M268.148 73.5002H259.248V42.3002C259.248 33.0002 255.548 28.9002 247.048 28.9002C238.848 28.9002 233.048 34.4002 233.048 44.8002V73.5002H224.148V21.8002H233.048V30.3002C236.248 24.3002 242.548 20.6002 249.348 20.8002C261.248 20.8002 268.048 29.0002 268.048 43.3002L268.148 73.5002Z" fill="#253858"/>
<path d="M292.848 21.7H306.148V29.9H292.848V73.5H284.148V30H275.748V21.8H284.148V16.1C284.148 6.50001 289.548 0 300.648 0C302.648 0 304.648 0.299988 306.648 0.799988V9C304.848 8.6 302.948 8.5 301.048 8.5C295.548 8.5 292.848 11.7 292.848 16.4V21.7Z" fill="#253858"/>
<path d="M329.648 73.8001C321.148 73.8001 315.748 69.8001 315.748 60.2001V0.100098H324.648V59.2001C324.648 63.9001 327.748 65.5001 331.548 65.5001C332.448 65.5001 333.248 65.5001 334.148 65.4001V73.4001C332.748 73.7001 331.148 73.8001 329.648 73.8001Z" fill="#253858"/>
<path d="M341.748 21.7001H350.648V52.9001C350.648 62.2001 354.348 66.3001 362.848 66.3001C371.048 66.3001 376.848 60.8001 376.848 50.4001V21.6001H385.748V73.5001H376.848V65.0001C373.648 71.0001 367.348 74.7001 360.548 74.5001C348.648 74.5001 341.848 66.3001 341.848 52.1001L341.748 21.7001Z" fill="#253858"/>
<path d="M423.848 74.5002C404.448 74.5002 396.048 63.3002 396.048 47.5002C396.048 31.9002 404.748 20.7002 420.448 20.7002C436.348 20.7002 442.748 31.8002 442.748 47.5002V51.5002H405.048C406.248 60.3002 411.948 66.0002 424.148 66.0002C429.548 66.0002 434.848 65.0002 439.848 63.2002V71.4002C435.648 73.7002 429.148 74.5002 423.848 74.5002ZM404.948 43.9002H433.848C433.348 34.3002 428.948 28.8002 420.048 28.8002C410.648 28.8002 405.848 34.9002 404.948 43.9002Z" fill="#253858"/>
<path d="M497.348 73.5002H488.448V42.3002C488.448 33.0002 484.748 28.9002 476.248 28.9002C468.048 28.9002 462.248 34.4002 462.248 44.8002V73.5002H453.348V21.8002H462.248V30.3002C465.448 24.3002 471.748 20.6002 478.548 20.8002C490.448 20.8002 497.248 29.0002 497.248 43.3002V73.5002H497.348Z" fill="#253858"/>
<path d="M546.248 72.1002C543.148 73.8002 538.348 74.5002 533.648 74.5002C515.248 74.5002 506.648 63.3002 506.648 47.5002C506.648 31.9002 515.248 20.7002 533.648 20.7002C537.848 20.6002 542.148 21.4002 545.948 23.2002V31.4002C542.248 29.7002 538.248 28.8002 534.248 28.9002C520.848 28.9002 515.348 37.4002 515.348 47.4002C515.348 57.4002 520.948 66.0002 534.448 66.0002C538.448 66.1002 542.448 65.5002 546.248 64.1002V72.1002Z" fill="#253858"/>
<path d="M581.148 74.5002C561.748 74.5002 553.348 63.3002 553.348 47.5002C553.348 31.9002 562.048 20.7002 577.748 20.7002C593.648 20.7002 600.048 31.8002 600.048 47.5002V51.5002H562.248C563.448 60.3002 569.148 66.0002 581.348 66.0002C586.748 66.0002 592.048 65.0002 597.048 63.2002V71.4002C592.948 73.7002 586.448 74.5002 581.148 74.5002ZM562.248 43.9002H591.148C590.648 34.3002 586.248 28.8002 577.348 28.8002C567.948 28.8002 563.148 34.9002 562.248 43.9002Z" fill="#253858"/>
<path d="M2.74824 58.0999C1.94824 59.2999 1.14824 60.7999 0.348244 61.8999C-0.351756 62.9999 0.0482448 64.3999 1.14824 65.0999L16.4482 74.4999C17.5482 75.1999 19.0482 74.7999 19.6482 73.6999C20.2482 72.6999 21.0482 71.2999 21.9482 69.8999C28.0482 59.8999 34.0482 61.0999 45.0482 66.3999L60.2482 73.5999C61.4482 74.1999 62.8482 73.6999 63.3482 72.4999C63.3482 72.4999 63.3482 72.4999 63.3482 72.3999L70.6482 55.8999C71.1482 54.6999 70.6482 53.3998 69.4482 52.7998C66.2482 51.2998 59.8482 48.2999 54.1482 45.4999C33.6482 35.6999 16.1482 36.2999 2.74824 58.0999Z" fill="url(#paint0_linear)"/>
<path d="M71.2481 20.8C72.0481 19.6 72.8481 18.1001 73.6481 17.0001C74.3481 15.9001 73.9481 14.5 72.8481 13.8L57.5481 4.40005C56.4481 3.70005 55.0481 4.00006 54.2481 5.00006L54.1481 5.10006C53.5481 6.10006 52.7481 7.50005 51.8481 8.90005C45.7481 18.9 39.7481 17.7 28.7481 12.4L13.6481 5.20007C12.4481 4.60007 11.0481 5.10004 10.5481 6.30004C10.5481 6.30004 10.5481 6.30005 10.5481 6.40005L3.24814 22.9C2.74814 24.1 3.24814 25.4001 4.44814 26.0001C7.64814 27.5001 14.0481 30.5 19.7481 33.3C40.3481 43.2 57.8481 42.5 71.2481 20.8Z" fill="url(#paint1_linear)"/>
<defs>
<linearGradient id="paint0_linear" x1="70.2908" y1="79.4412" x2="24.0528" y2="52.8717" gradientUnits="userSpaceOnUse">
<stop offset="0.18" stop-color="#0052CC"/>
<stop offset="1" stop-color="#2684FF"/>
</linearGradient>
<linearGradient id="paint1_linear" x1="3.74244" y1="-0.534147" x2="49.9922" y2="26.0472" gradientUnits="userSpaceOnUse">
<stop offset="0.18" stop-color="#0052CC"/>
<stop offset="1" stop-color="#2684FF"/>
</linearGradient>
</defs>
</svg>
