<svg width="323" height="132" viewBox="0 0 323 132" fill="none" xmlns="http://www.w3.org/2000/svg">
<path d="M0.490234 132C0.490234 102.109 0.490234 72.458 0.490234 42.5332C2.16038 43.5934 3.62602 44.4826 5.05758 45.406C11.67 49.681 18.2483 53.9901 24.8608 58.2309C25.9174 58.9149 26.1901 59.6673 25.747 60.8643C22.5771 70.2008 19.4413 79.5716 16.3055 88.9423C13.9196 96.1243 11.5677 103.34 9.14774 110.488C7.37534 115.755 5.50068 121.022 3.69419 126.289C3.55785 126.699 3.42152 127.109 3.52377 127.657C4.20546 127.144 4.95532 126.699 5.53476 126.083C9.52267 121.843 13.4083 117.499 17.3962 113.258C23.5655 106.795 29.803 100.433 36.0064 94.0039C41.0851 88.7371 46.1296 83.402 51.2082 78.1352C57.2071 71.8766 63.2401 65.6523 69.2731 59.4279C72.1362 56.4525 75.0334 53.4771 77.8624 50.4676C79.0554 49.2364 80.1461 47.9368 81.6117 46.8424C81.6117 47.5264 81.6117 48.1762 81.6117 48.8602C81.6117 61.1037 81.5776 73.3814 81.6458 85.6249C81.6458 87.0271 81.2027 87.8137 80.0097 88.4635C73.7041 91.8493 67.3984 95.2351 61.0927 98.6893C52.4012 103.443 43.7777 108.299 35.0862 113.053C27.8602 117.02 20.5661 120.953 13.3401 124.886C9.59084 126.938 5.84153 129.024 2.09221 131.111C1.71728 131.418 1.20601 131.658 0.490234 132Z" fill="#006BB6"/>
<path d="M0.0354923 0C26.5037 14.3323 52.6975 28.5279 79.2 42.8602C76.6286 44.7415 74.3315 46.4518 72.0001 48.1279C65.9316 52.4379 59.8289 56.7137 53.829 61.0578C52.9033 61.742 52.1833 61.742 51.2576 61.2631C45.8748 58.595 40.492 55.9611 35.075 53.3273C24.5494 48.1964 14.0581 42.9628 3.39544 38.1056C0.652625 36.8741 -0.0330782 35.4717 0.001207 32.701C0.138348 21.9261 0.0354923 11.117 0.0354923 0Z" fill="#006BB6"/>
<path d="M115.191 56.0353H112.923V43.0029C112.923 41.9733 112.987 40.7134 113.113 39.2232H113.059C112.842 40.0993 112.647 40.727 112.475 41.1063L105.82 56.0353H104.706L98.064 41.2147C97.8739 40.7811 97.6792 40.1173 97.48 39.2232H97.4257C97.4981 39.9999 97.5343 41.2688 97.5343 43.03V56.0353H95.334V36.6086H98.3493L104.326 50.1558C104.787 51.1944 105.086 51.9711 105.222 52.4859H105.303C105.693 51.4202 106.005 50.6254 106.241 50.1016L112.339 36.6086H115.191V56.0353Z" fill="#006BB6"/>
<path d="M121.168 38.6407C120.769 38.6407 120.43 38.5052 120.149 38.2343C119.868 37.9633 119.728 37.6201 119.728 37.2047C119.728 36.7892 119.868 36.446 120.149 36.1751C120.43 35.8951 120.769 35.7551 121.168 35.7551C121.575 35.7551 121.919 35.8951 122.2 36.1751C122.49 36.446 122.635 36.7892 122.635 37.2047C122.635 37.6021 122.49 37.9408 122.2 38.2207C121.919 38.5007 121.575 38.6407 121.168 38.6407ZM122.254 56.0353H120.027V42.163H122.254V56.0353Z" fill="#006BB6"/>
<path d="M136.244 55.3986C135.176 56.0398 133.908 56.3604 132.441 56.3604C130.458 56.3604 128.855 55.7192 127.633 54.4367C126.42 53.1452 125.813 51.4744 125.813 49.4243C125.813 47.1393 126.469 45.3059 127.782 43.9241C129.095 42.5333 130.847 41.8378 133.039 41.8378C134.261 41.8378 135.339 42.0636 136.271 42.5152V44.7911C135.239 44.0686 134.134 43.7073 132.957 43.7073C131.536 43.7073 130.368 44.2176 129.453 45.2382C128.548 46.2497 128.095 47.5818 128.095 49.2346C128.095 50.8603 128.52 52.1427 129.372 53.082C130.232 54.0213 131.382 54.4909 132.821 54.4909C134.035 54.4909 135.176 54.089 136.244 53.2852V55.3986Z" fill="#006BB6"/>
<path d="M146.866 44.4118C146.476 44.1138 145.915 43.9647 145.181 43.9647C144.231 43.9647 143.434 44.4118 142.791 45.3059C142.157 46.2 141.84 47.4193 141.84 48.9636V56.0353H139.613V42.163H141.84V45.0214H141.895C142.211 44.046 142.696 43.2874 143.348 42.7455C144 42.1946 144.729 41.9191 145.535 41.9191C146.114 41.9191 146.558 41.9823 146.866 42.1088V44.4118Z" fill="#006BB6"/>
<path d="M155.097 56.3604C153.041 56.3604 151.398 55.7147 150.166 54.4232C148.944 53.1226 148.333 51.4021 148.333 49.2617C148.333 46.9316 148.971 45.1117 150.248 43.8022C151.524 42.4926 153.249 41.8378 155.423 41.8378C157.496 41.8378 159.112 42.4745 160.272 43.748C161.44 45.0214 162.024 46.7871 162.024 49.0449C162.024 51.2576 161.394 53.0323 160.136 54.369C158.886 55.6966 157.206 56.3604 155.097 56.3604ZM155.26 43.7073C153.829 43.7073 152.697 44.195 151.864 45.1704C151.031 46.1368 150.614 47.4735 150.614 49.1804C150.614 50.8241 151.035 52.1201 151.878 53.0684C152.72 54.0167 153.847 54.4909 155.26 54.4909C156.699 54.4909 157.804 54.0258 158.574 53.0955C159.352 52.1653 159.742 50.8422 159.742 49.1262C159.742 47.3922 159.352 46.0555 158.574 45.1162C157.804 44.177 156.699 43.7073 155.26 43.7073Z" fill="#006BB6"/>
<path d="M164.74 55.534V53.1497C165.953 54.0438 167.289 54.4909 168.747 54.4909C170.703 54.4909 171.681 53.8406 171.681 52.5401C171.681 52.1698 171.595 51.8582 171.423 51.6054C171.26 51.3434 171.033 51.1131 170.744 50.9144C170.463 50.7158 170.128 50.5396 169.738 50.3861C169.358 50.2235 168.946 50.0565 168.502 49.8849C167.887 49.641 167.343 49.3972 166.873 49.1533C166.411 48.9004 166.021 48.6205 165.704 48.3134C165.397 47.9973 165.161 47.6405 164.998 47.2432C164.844 46.8458 164.767 46.3807 164.767 45.8478C164.767 45.1975 164.917 44.624 165.216 44.1273C165.514 43.6215 165.913 43.2016 166.411 42.8674C166.909 42.5242 167.475 42.2668 168.109 42.0952C168.751 41.9236 169.412 41.8378 170.092 41.8378C171.296 41.8378 172.373 42.0456 173.324 42.461V44.7098C172.301 44.0415 171.124 43.7073 169.793 43.7073C169.376 43.7073 169 43.757 168.665 43.8564C168.33 43.9467 168.041 44.0776 167.796 44.2492C167.561 44.4208 167.375 44.6285 167.239 44.8724C167.113 45.1072 167.049 45.3691 167.049 45.6581C167.049 46.0194 167.113 46.3219 167.239 46.5658C167.375 46.8096 167.57 47.0264 167.823 47.2161C168.077 47.4057 168.385 47.5773 168.747 47.7309C169.109 47.8844 169.521 48.0515 169.983 48.2321C170.599 48.4669 171.151 48.7108 171.64 48.9636C172.129 49.2075 172.545 49.4875 172.89 49.8036C173.234 50.1106 173.496 50.4674 173.677 50.8738C173.868 51.2802 173.963 51.7634 173.963 52.3234C173.963 53.0097 173.809 53.6058 173.501 54.1116C173.202 54.6173 172.799 55.0373 172.292 55.3715C171.785 55.7056 171.201 55.954 170.54 56.1166C169.879 56.2791 169.186 56.3604 168.462 56.3604C167.031 56.3604 165.791 56.085 164.74 55.534Z" fill="#006BB6"/>
<path d="M183.212 56.3604C181.157 56.3604 179.513 55.7147 178.282 54.4232C177.059 53.1226 176.448 51.4021 176.448 49.2617C176.448 46.9316 177.087 45.1117 178.363 43.8022C179.64 42.4926 181.365 41.8378 183.538 41.8378C185.612 41.8378 187.228 42.4745 188.387 43.748C189.555 45.0214 190.139 46.7871 190.139 49.0449C190.139 51.2576 189.51 53.0323 188.251 54.369C187.002 55.6966 185.322 56.3604 183.212 56.3604ZM183.375 43.7073C181.945 43.7073 180.813 44.195 179.98 45.1704C179.147 46.1368 178.73 47.4735 178.73 49.1804C178.73 50.8241 179.151 52.1201 179.993 53.0684C180.835 54.0167 181.963 54.4909 183.375 54.4909C184.815 54.4909 185.92 54.0258 186.689 53.0955C187.468 52.1653 187.857 50.8422 187.857 49.1262C187.857 47.3922 187.468 46.0555 186.689 45.1162C185.92 44.177 184.815 43.7073 183.375 43.7073Z" fill="#006BB6"/>
<path d="M200.571 37.4485C200.136 37.2047 199.642 37.0828 199.09 37.0828C197.533 37.0828 196.754 38.0627 196.754 40.0225V42.163H200.014V44.0596H196.754V56.0353H194.54V44.0596H192.163V42.163H194.54V39.9141C194.54 38.4601 194.961 37.3131 195.803 36.4731C196.645 35.6242 197.696 35.1997 198.954 35.1997C199.633 35.1997 200.172 35.281 200.571 35.4436V37.4485Z" fill="#006BB6"/>
<path d="M208.869 55.8998C208.344 56.1888 207.652 56.3333 206.791 56.3333C204.356 56.3333 203.138 54.9786 203.138 52.2692V44.0596H200.747V42.163H203.138V38.7762L205.365 38.0582V42.163H208.869V44.0596H205.365V51.8763C205.365 52.8065 205.524 53.4703 205.841 53.8677C206.157 54.2651 206.683 54.4638 207.416 54.4638C207.977 54.4638 208.462 54.3103 208.869 54.0032V55.8998Z" fill="#006BB6"/>
<path d="M96.1851 89.5601V63.6578H103.357C112.508 63.6578 117.084 67.8665 117.084 76.2838C117.084 80.2817 115.81 83.4969 113.263 85.9294C110.727 88.3498 107.329 89.5601 103.067 89.5601H96.1851ZM99.2276 66.4034V86.8145H103.103C106.508 86.8145 109.158 85.9053 111.053 84.087C112.949 82.2687 113.897 79.6917 113.897 76.3561C113.897 69.7209 110.359 66.4034 103.284 66.4034H99.2276Z" fill="#006BB6"/>
<path d="M136.552 71.0636L128.022 92.5224C126.501 96.3517 124.364 98.2664 121.611 98.2664C120.839 98.2664 120.193 98.1881 119.674 98.0316V95.3763C120.314 95.5931 120.899 95.7014 121.43 95.7014C122.927 95.7014 124.05 94.8103 124.799 93.0281L126.284 89.5239L119.04 71.0636H122.336L127.352 85.2972C127.413 85.4778 127.539 85.9475 127.733 86.7061H127.841C127.902 86.4171 128.022 85.9595 128.203 85.3333L133.473 71.0636H136.552Z" fill="#006BB6"/>
<path d="M155.151 89.5601H152.181V79.0113C152.181 75.0856 150.744 73.1228 147.871 73.1228C146.386 73.1228 145.154 73.6827 144.176 74.8026C143.21 75.9105 142.728 77.3134 142.728 79.0113V89.5601H139.758V71.0636H142.728V74.1343H142.8C144.2 71.7982 146.229 70.6301 148.885 70.6301C150.913 70.6301 152.465 71.2864 153.539 72.599C154.614 73.8995 155.151 75.7841 155.151 78.2527V89.5601Z" fill="#006BB6"/>
<path d="M174.04 89.5601H171.07V86.67H170.997C169.705 88.8857 167.804 89.9936 165.292 89.9936C163.445 89.9936 161.996 89.5059 160.946 88.5305C159.908 87.5551 159.389 86.2606 159.389 84.6469C159.389 81.1909 161.429 79.1799 165.51 78.6139L171.07 77.8372C171.07 74.6943 169.796 73.1228 167.248 73.1228C165.015 73.1228 162.999 73.8814 161.2 75.3987V72.3642C163.023 71.2081 165.123 70.6301 167.502 70.6301C171.86 70.6301 174.04 72.9301 174.04 77.5301V89.5601ZM171.07 80.2035L166.596 80.8176C165.22 81.0103 164.182 81.3535 163.481 81.8472C162.781 82.3289 162.431 83.1899 162.431 84.4302C162.431 85.3333 162.751 86.0739 163.391 86.6519C164.043 87.2179 164.906 87.5009 165.981 87.5009C167.454 87.5009 168.667 86.9891 169.621 85.9655C170.587 84.9299 171.07 83.6234 171.07 82.0459V80.2035Z" fill="#006BB6"/>
<path d="M205.967 89.5601H202.997V78.9391C202.997 76.8919 202.677 75.4108 202.037 74.4956C201.41 73.5804 200.347 73.1228 198.85 73.1228C197.582 73.1228 196.502 73.7008 195.608 74.8568C194.727 76.0129 194.286 77.3977 194.286 79.0113V89.5601H191.316V78.5778C191.316 74.9411 189.91 73.1228 187.097 73.1228C185.793 73.1228 184.718 73.6707 183.873 74.7665C183.028 75.8503 182.606 77.2652 182.606 79.0113V89.5601H179.636V71.0636H182.606V73.9898H182.678C183.994 71.75 185.914 70.6301 188.437 70.6301C189.705 70.6301 190.809 70.9854 191.751 71.6958C192.693 72.3943 193.339 73.3155 193.689 74.4595C195.065 71.9066 197.118 70.6301 199.846 70.6301C203.927 70.6301 205.967 73.1409 205.967 78.1624V89.5601Z" fill="#006BB6"/>
<path d="M213.103 66.3673C212.571 66.3673 212.119 66.1866 211.744 65.8254C211.37 65.4641 211.183 65.0065 211.183 64.4526C211.183 63.8987 211.37 63.4411 211.744 63.0798C212.119 62.7065 212.571 62.5199 213.103 62.5199C213.646 62.5199 214.105 62.7065 214.479 63.0798C214.865 63.4411 215.058 63.8987 215.058 64.4526C215.058 64.9824 214.865 65.434 214.479 65.8073C214.105 66.1806 213.646 66.3673 213.103 66.3673ZM214.551 89.5601H211.581V71.0636H214.551V89.5601Z" fill="#006BB6"/>
<path d="M233.205 88.7111C231.78 89.5661 230.09 89.9936 228.134 89.9936C225.49 89.9936 223.353 89.1386 221.723 87.4286C220.105 85.7066 219.296 83.4789 219.296 80.7453C219.296 77.6987 220.171 75.2542 221.922 73.4118C223.673 71.5573 226.009 70.6301 228.931 70.6301C230.561 70.6301 231.997 70.9312 233.241 71.5333V74.5678C231.864 73.6045 230.391 73.1228 228.822 73.1228C226.926 73.1228 225.369 73.8032 224.15 75.1639C222.942 76.5126 222.339 78.2888 222.339 80.4925C222.339 82.66 222.906 84.37 224.041 85.6223C225.188 86.8747 226.721 87.5009 228.641 87.5009C230.259 87.5009 231.78 86.965 233.205 85.8933V88.7111Z" fill="#006BB6"/>
<path d="M236.573 88.8917V85.7127C238.191 86.9048 239.972 87.5009 241.915 87.5009C244.523 87.5009 245.827 86.6339 245.827 84.8998C245.827 84.4061 245.712 83.9907 245.483 83.6535C245.266 83.3043 244.964 82.9972 244.578 82.7323C244.203 82.4673 243.757 82.2325 243.237 82.0278C242.73 81.8111 242.181 81.5883 241.589 81.3595C240.768 81.0344 240.044 80.7092 239.416 80.3841C238.801 80.0469 238.281 79.6736 237.859 79.2642C237.448 78.8427 237.134 78.3671 236.917 77.8372C236.712 77.3074 236.609 76.6872 236.609 75.9767C236.609 75.1097 236.808 74.3451 237.207 73.6827C237.605 73.0084 238.136 72.4484 238.801 72.0029C239.465 71.5453 240.219 71.2021 241.064 70.9733C241.921 70.7445 242.803 70.6301 243.708 70.6301C245.314 70.6301 246.751 70.9071 248.018 71.461V74.4595C246.654 73.5684 245.085 73.1228 243.31 73.1228C242.755 73.1228 242.253 73.189 241.807 73.3215C241.36 73.4419 240.974 73.6165 240.648 73.8453C240.334 74.0741 240.086 74.3511 239.905 74.6762C239.736 74.9893 239.652 75.3385 239.652 75.7239C239.652 76.2055 239.736 76.6089 239.905 76.9341C240.086 77.2592 240.346 77.5482 240.684 77.8011C241.022 78.054 241.432 78.2828 241.915 78.4875C242.398 78.6922 242.948 78.915 243.563 79.1558C244.384 79.4689 245.121 79.794 245.773 80.1312C246.425 80.4563 246.98 80.8296 247.439 81.2511C247.898 81.6605 248.248 82.1362 248.489 82.6781C248.743 83.22 248.87 83.8642 248.87 84.6108C248.87 85.526 248.664 86.3208 248.254 86.9951C247.855 87.6695 247.318 88.2294 246.642 88.675C245.966 89.1205 245.187 89.4517 244.306 89.6684C243.425 89.8852 242.501 89.9936 241.535 89.9936C239.628 89.9936 237.973 89.6263 236.573 88.8917Z" fill="#006BB6"/>
<path d="M262.742 88.7111V83.7438C264.48 85.0082 266.509 85.6404 268.827 85.6404C270.288 85.6404 271.422 85.3273 272.231 84.7011C273.052 84.0749 273.463 83.2019 273.463 82.082C273.463 80.926 272.956 80.0349 271.942 79.4087C270.94 78.7825 269.557 78.4694 267.794 78.4694H265.386V74.0982H267.613C270.994 74.0982 272.684 72.9783 272.684 70.7385C272.684 68.6312 271.386 67.5775 268.79 67.5775C267.052 67.5775 265.362 68.1374 263.72 69.2573V64.5971C265.543 63.6819 267.668 63.2243 270.094 63.2243C272.751 63.2243 274.815 63.8204 276.288 65.0125C277.773 66.2047 278.515 67.7521 278.515 69.6547C278.515 73.0385 276.795 75.1579 273.354 76.0129V76.1032C275.189 76.332 276.638 77.0003 277.701 78.1082C278.763 79.204 279.294 80.5527 279.294 82.1543C279.294 84.5747 278.407 86.4894 276.632 87.8983C274.857 89.3072 272.406 90.0116 269.279 90.0116C266.599 90.0116 264.42 89.5781 262.742 88.7111Z" fill="#006BB6"/>
<path d="M302.058 80.944C302.058 82.2205 301.835 83.4126 301.388 84.5205C300.942 85.6284 300.32 86.5917 299.523 87.4106C298.726 88.2174 297.778 88.8556 296.68 89.3252C295.581 89.7828 294.38 90.0116 293.076 90.0116C291.615 90.0116 290.305 89.7407 289.146 89.1988C287.999 88.6569 287.027 87.8742 286.23 86.8506C285.433 85.815 284.824 84.5506 284.401 83.0574C283.979 81.5642 283.767 79.8723 283.767 77.9817C283.767 75.754 284.039 73.7369 284.582 71.9306C285.138 70.1123 285.922 68.5589 286.937 67.2704C287.963 65.9819 289.2 64.9885 290.649 64.29C292.098 63.5796 293.728 63.2243 295.539 63.2243C297.543 63.2243 299.1 63.4591 300.211 63.9288V68.6974C298.895 67.9508 297.458 67.5775 295.901 67.5775C294.935 67.5775 294.06 67.7641 293.275 68.1374C292.49 68.5107 291.814 69.0406 291.247 69.727C290.691 70.4134 290.251 71.2443 289.925 72.2197C289.611 73.183 289.442 74.2608 289.418 75.4529H289.526C290.758 73.755 292.575 72.906 294.977 72.906C296.052 72.906 297.024 73.0987 297.893 73.4841C298.762 73.8694 299.505 74.4173 300.121 75.1278C300.736 75.8262 301.213 76.6692 301.551 77.6566C301.889 78.644 302.058 79.7398 302.058 80.944ZM296.462 81.3053C296.462 78.5236 295.321 77.1328 293.04 77.1328C292.52 77.1328 292.05 77.2291 291.627 77.4218C291.204 77.6144 290.842 77.8854 290.54 78.2346C290.239 78.5838 290.003 78.9993 289.834 79.4809C289.677 79.9506 289.599 80.4744 289.599 81.0524C289.599 81.6906 289.683 82.2867 289.852 82.8406C290.021 83.3946 290.257 83.8823 290.559 84.3037C290.872 84.7132 291.241 85.0383 291.663 85.2791C292.086 85.52 292.557 85.6404 293.076 85.6404C293.595 85.6404 294.06 85.538 294.47 85.3333C294.893 85.1166 295.249 84.8215 295.539 84.4482C295.841 84.0629 296.07 83.6053 296.227 83.0755C296.384 82.5336 296.462 81.9435 296.462 81.3053Z" fill="#006BB6"/>
<path d="M305.861 88.8917V84.0147C307.636 85.0985 309.526 85.6404 311.53 85.6404C313.039 85.6404 314.216 85.2852 315.061 84.5747C315.918 83.8522 316.347 82.8768 316.347 81.6485C316.347 79.0836 314.53 77.8011 310.896 77.8011C309.556 77.8011 308.01 77.9035 306.26 78.1082L307.238 63.6578H320.983V68.3181H311.602L311.24 73.5021C312.17 73.4299 312.973 73.3937 313.649 73.3937C316.317 73.3937 318.406 74.0922 319.915 75.489C321.424 76.8859 322.178 78.7644 322.178 81.1247C322.178 83.7378 321.279 85.8752 319.48 87.537C317.681 89.1868 315.242 90.0116 312.164 90.0116C309.665 90.0116 307.564 89.6383 305.861 88.8917Z" fill="#006BB6"/>
</svg>
