<svg width="100" height="100" viewBox="0 0 100 100" fill="none" xmlns="http://www.w3.org/2000/svg">
<path d="M86.423 100H13.577C6.10966 100 0 93.8903 0 86.423V13.577C0 6.10966 6.10966 0 13.577 0H86.423C93.8903 0 100 6.10966 100 13.577V86.423C100 93.8903 93.8903 100 86.423 100Z" fill="#353535"/>
<path d="M39.5552 81.3316C45.3254 81.3316 49.9991 76.6579 49.9991 70.8877V60.4438H39.5552C33.785 60.4438 29.1113 65.1175 29.1113 70.8877C29.1113 76.6579 33.785 81.3316 39.5552 81.3316Z" fill="#0ACF83"/>
<path d="M29.1113 50C29.1113 44.2298 33.785 39.5562 39.5552 39.5562H49.9991V60.4439H39.5552C33.785 60.4439 29.1113 55.7703 29.1113 50Z" fill="#A259FF"/>
<path d="M29.1113 29.1123C29.1113 23.3421 33.785 18.6685 39.5552 18.6685H49.9991V39.5562H39.5552C33.785 39.5562 29.1113 34.8826 29.1113 29.1123Z" fill="#F24E1E"/>
<path d="M50 18.6685H60.4439C66.2141 18.6685 70.8877 23.3421 70.8877 29.1123C70.8877 34.8826 66.2141 39.5562 60.4439 39.5562H50V18.6685Z" fill="#FF7262"/>
<path d="M70.8877 50C70.8877 55.7703 66.2141 60.4439 60.4439 60.4439C54.6736 60.4439 50 55.7703 50 50C50 44.2298 54.6736 39.5562 60.4439 39.5562C66.2141 39.5562 70.8877 44.2298 70.8877 50Z" fill="#1ABCFE"/>
</svg>
