<svg width="100" height="100" viewBox="0 0 100 100" fill="none" xmlns="http://www.w3.org/2000/svg">
<path d="M90.9348 0H9.06523C4.05859 0 0 4.05859 0 9.06523V90.9348C0 95.9414 4.05859 100 9.06523 100H90.9348C95.9414 100 100 95.9414 100 90.9348V9.06523C100 4.05859 95.9414 0 90.9348 0Z" fill="#DC395F"/>
<path d="M33.4248 31.5565C36.745 31.5565 39.5264 28.9611 39.5264 25.5595C39.5264 22.1602 36.745 19.5652 33.4248 19.5652C30.1047 19.5652 27.3241 22.1602 27.3241 25.5595C27.3241 28.9607 30.1047 31.5565 33.4248 31.5565ZM20.7739 63.666C20.4153 65.1874 20.2355 66.8302 20.2355 68.1703C20.2355 73.451 23.1066 76.9565 29.2081 76.9565C34.2683 76.9565 38.3707 73.9596 41.3245 69.1202L39.5209 76.3394H49.5692L55.3121 53.3666C56.7479 47.5501 59.5293 44.531 63.7468 44.531C67.0665 44.531 69.13 46.5902 69.13 49.9895C69.13 50.9743 69.0403 52.0471 68.6813 53.2109L65.7201 63.7703C65.2715 65.2917 65.0928 66.8139 65.0928 68.2447C65.0928 73.2576 68.0528 76.9242 74.2441 76.9242C79.538 76.9242 83.7547 73.5253 86.0878 65.3816L82.1403 63.8617C80.1661 69.3174 78.4612 70.3038 77.1152 70.3038C75.7692 70.3038 75.0513 69.4097 75.0513 67.6209C75.0513 66.8155 75.2315 65.9217 75.5 64.8454L78.3718 54.558C79.0893 52.1424 79.3589 50.0004 79.3589 48.0322C79.3589 40.3364 74.6927 36.32 69.0403 36.32C63.7467 36.32 58.3627 41.0823 55.6715 46.0945L57.6448 37.0982H42.3026L40.149 45.0221H47.3274L42.907 62.6722C39.4358 70.368 33.0596 70.493 32.2595 70.3143C30.9454 70.0186 30.1051 69.5209 30.1051 67.8182C30.1051 66.8357 30.2845 65.4244 30.7332 63.7228L37.4633 37.0982H20.4153L18.2617 45.0221H25.3495L20.7743 63.666" fill="white"/>
</svg>
