<svg xmlns="http://www.w3.org/2000/svg" viewBox="0 0 213 76"><defs><linearGradient id="a" x1="91.87%" x2="28.26%" y1="40.33%" y2="81.66%"><stop offset="18%" stop-color="#0052CC"/><stop offset="100%" stop-color="#2684FF"/></linearGradient><linearGradient id="b" x1="3878%" x2="5439%" y1="2561.07%" y2="1905.37%"><stop offset="18%" stop-color="#0052CC"/><stop offset="100%" stop-color="#2684FF"/></linearGradient></defs><g fill="none"><path fill="#253858" d="M109.28 9h7.92v40.2c0 10.65-4.66 18-15.58 18-3.23.05-6.44-.46-9.5-1.5V58a22.19 22.19 0 0 0 8.18 1.5c6.69 0 9-4 9-9.77L109.28 9zm22.35-3.09a4.94 4.94 0 0 1 5.28 5.28 5.28 5.28 0 0 1-10.56 0 4.94 4.94 0 0 1 5.28-5.28zm-3.87 16.9h7.57v44h-7.57v-44zm19-.01h7.39v7.74c2.55-5.19 7-8.89 15.58-8.36v7.39c-9.68-1-15.58 1.94-15.58 11.26v26h-7.39V22.8zm58.43 36.08c-2.82 5.81-8.1 8.8-14.87 8.8-11.7 0-17.6-9.94-17.6-22.88 0-12.41 6.16-22.88 18.48-22.88 6.42 0 11.35 2.9 14 8.62V22.8h7.57v44h-7.57l-.01-7.92zm-12.85 1.76c6.78 0 12.85-4.31 12.85-14.08V43c0-9.77-5.54-14.08-12-14.08-8.54 0-12.94 5.63-12.94 15.84.04 10.6 4.26 15.88 12.1 15.88h-.01z"/><path fill="#2684FF" d="M72.4 35.76L39.8 3.16 36.64 0 12.1 24.54.88 35.76a3 3 0 0 0 0 4.24L23.3 62.42l13.34 13.34 24.54-24.54.38-.38L72.4 40a3 3 0 0 0 0-4.24zM36.64 49.08l-11.2-11.2 11.2-11.2 11.2 11.2-11.2 11.2z"/><path fill="url(#a)" d="M36.64 26.68A18.86 18.86 0 0 1 36.56.09l-24.51 24.5 13.34 13.34 11.25-11.25z"/><path fill="url(#b)" d="M47.87 37.85L36.64 49.08a18.86 18.86 0 0 1 0 26.68l24.57-24.57-13.34-13.34z"/></g></svg>