<svg width="484" height="100" viewBox="0 0 484 100" fill="none" xmlns="http://www.w3.org/2000/svg">
<path d="M25 12.5C25 19.4035 19.4035 25 12.5 25C5.59644 25 0 19.4035 0 12.5C0 5.59644 5.59644 0 12.5 0C19.4035 0 25 5.59644 25 12.5Z" fill="#ACACAC"/>
<path d="M61.6673 12.5C61.6673 19.4035 56.444 25 50.0006 25C43.5573 25 38.334 19.4035 38.334 12.5C38.334 5.59644 43.5573 0 50.0006 0C56.444 0 61.6673 5.59644 61.6673 12.5Z" fill="#5BC1FF"/>
<path d="M98.3333 12.5C98.3333 19.4035 93.11 25 86.6667 25C80.2233 25 75 19.4035 75 12.5C75 5.59644 80.2233 0 86.6667 0C93.11 0 98.3333 5.59644 98.3333 12.5Z" fill="#2B6080"/>
<path d="M136.666 12.5C136.666 19.4035 131.07 25 124.166 25C117.262 25 111.666 19.4035 111.666 12.5C111.666 5.59644 117.262 0 124.166 0C131.07 0 136.666 5.59644 136.666 12.5Z" fill="#2B6080"/>
<path d="M25 50.8332C25 57.7368 19.4035 63.3332 12.5 63.3332C5.59644 63.3332 0 57.7368 0 50.8332C0 43.9297 5.59644 38.3333 12.5 38.3333C19.4035 38.3333 25 43.9297 25 50.8332Z" fill="#5BC1FF"/>
<path d="M61.6673 50.8332C61.6673 57.7368 56.444 63.3332 50.0006 63.3332C43.5573 63.3332 38.334 57.7368 38.334 50.8332C38.334 43.9297 43.5573 38.3333 50.0006 38.3333C56.444 38.3333 61.6673 43.9297 61.6673 50.8332Z" fill="#545454"/>
<path d="M98.3333 50.8332C98.3333 57.7368 93.11 63.3332 86.6667 63.3332C80.2233 63.3332 75 57.7368 75 50.8332C75 43.9297 80.2233 38.3333 86.6667 38.3333C93.11 38.3333 98.3333 43.9297 98.3333 50.8332Z" fill="#2B89BF"/>
<path d="M136.666 50.8332C136.666 57.7368 131.07 63.3332 124.166 63.3332C117.262 63.3332 111.666 57.7368 111.666 50.8332C111.666 43.9297 117.262 38.3333 124.166 38.3333C131.07 38.3333 136.666 43.9297 136.666 50.8332Z" fill="#185476"/>
<path d="M25 88.3337C25 94.777 19.4035 100 12.5 100C5.59644 100 0 94.777 0 88.3337C0 81.8903 5.59644 76.667 12.5 76.667C19.4035 76.667 25 81.8903 25 88.3337Z" fill="#58C0FF"/>
<path d="M61.6673 88.3337C61.6673 94.777 56.444 100 50.0006 100C43.5573 100 38.334 94.777 38.334 88.3337C38.334 81.8903 43.5573 76.667 50.0006 76.667C56.444 76.667 61.6673 81.8903 61.6673 88.3337Z" fill="#8D8D8D"/>
<path d="M98.3333 88.3337C98.3333 94.777 93.11 100 86.6667 100C80.2233 100 75 94.777 75 88.3337C75 81.8903 80.2233 76.667 86.6667 76.667C93.11 76.667 98.3333 81.8903 98.3333 88.3337Z" fill="#2B89BF"/>
<path d="M136.666 88.3337C136.666 94.777 131.07 100 124.166 100C117.262 100 111.666 94.777 111.666 88.3337C111.666 81.8903 117.262 76.667 124.166 76.667C131.07 76.667 136.666 81.8903 136.666 88.3337Z" fill="#6E6E6E"/>
<path d="M182.857 47.2138C182.857 43.3656 185.213 41.1666 188.48 41.1666C191.668 41.1666 193.6 43.2556 193.6 46.7583V61.5385H198.296V46.1928C198.296 40.2242 195.014 37.0985 190.082 37.0985C186.453 37.0985 184.082 38.7792 182.966 41.3394H182.668V37.4127H178.16V61.5385H182.857V47.2138Z" fill="#2B6080"/>
<path d="M214.757 62.0254C221.558 62.0254 226.003 57.0463 226.003 49.5855C226.003 42.0776 221.558 37.0985 214.757 37.0985C207.956 37.0985 203.511 42.0776 203.511 49.5855C203.511 57.0463 207.956 62.0254 214.757 62.0254ZM214.773 58.083C210.328 58.083 208.255 54.2034 208.255 49.5698C208.255 44.952 210.328 41.0253 214.773 41.0253C219.187 41.0253 221.26 44.952 221.26 49.5698C221.26 54.2034 219.187 58.083 214.773 58.083Z" fill="#2B6080"/>
<path d="M231.246 70.5857H235.942V57.7846H236.225C237.073 59.3238 238.801 62.0097 243.199 62.0097C249.042 62.0097 253.283 57.3291 253.283 49.5227C253.283 41.7007 248.979 37.0985 243.152 37.0985C238.675 37.0985 237.057 39.8315 236.225 41.3237H235.832V37.4127H231.246V70.5857ZM235.848 49.4756C235.848 44.4337 238.047 41.0881 242.146 41.0881C246.403 41.0881 248.539 44.685 248.539 49.4756C248.539 54.3133 246.34 58.0045 242.146 58.0045C238.11 58.0045 235.848 54.5489 235.848 49.4756Z" fill="#2B6080"/>
<path d="M285.639 39.8315C284.539 32.9519 279.152 28.9309 272.351 28.9309C264.026 28.9309 257.885 35.1666 257.885 45.4546C257.885 55.7427 263.995 61.9783 272.351 61.9783C279.419 61.9783 284.586 57.549 285.639 51.1876L280.738 51.1719C279.906 55.2872 276.45 57.549 272.382 57.549C266.869 57.549 262.707 53.3238 262.707 45.4546C262.707 37.6483 266.853 33.3603 272.398 33.3603C276.497 33.3603 279.937 35.6692 280.738 39.8315H285.639Z" fill="#2B6080"/>
<path d="M301.232 62.0254C308.033 62.0254 312.478 57.0463 312.478 49.5855C312.478 42.0776 308.033 37.0985 301.232 37.0985C294.431 37.0985 289.986 42.0776 289.986 49.5855C289.986 57.0463 294.431 62.0254 301.232 62.0254ZM301.248 58.083C296.803 58.083 294.729 54.2034 294.729 49.5698C294.729 44.952 296.803 41.0253 301.248 41.0253C305.661 41.0253 307.735 44.952 307.735 49.5698C307.735 54.2034 305.661 58.083 301.248 58.083Z" fill="#2B6080"/>
<path d="M317.72 61.5385H322.417V46.664C322.417 43.4127 324.694 41.1509 327.364 41.1509C329.972 41.1509 331.778 42.8787 331.778 45.5017V61.5385H336.459V46.1614C336.459 43.2556 338.233 41.1509 341.296 41.1509C343.778 41.1509 345.82 42.5331 345.82 45.8002V61.5385H350.516V45.3604C350.516 39.8472 347.438 37.0985 343.071 37.0985C339.6 37.0985 336.993 38.7635 335.83 41.3394H335.579C334.527 38.7006 332.312 37.0985 329.092 37.0985C325.904 37.0985 323.532 38.6849 322.527 41.3394H322.228V37.4127H317.72V61.5385Z" fill="#2B6080"/>
<path d="M356.811 61.5385H361.507V46.664C361.507 43.4127 363.785 41.1509 366.455 41.1509C369.062 41.1509 370.869 42.8787 370.869 45.5017V61.5385H375.549V46.1614C375.549 43.2556 377.324 41.1509 380.387 41.1509C382.869 41.1509 384.911 42.5331 384.911 45.8002V61.5385H389.607V45.3604C389.607 39.8472 386.528 37.0985 382.162 37.0985C378.691 37.0985 376.083 38.7635 374.921 41.3394H374.67C373.617 38.7006 371.403 37.0985 368.183 37.0985C364.994 37.0985 362.622 38.6849 361.617 41.3394H361.319V37.4127H356.811V61.5385Z" fill="#2B6080"/>
<path d="M406.3 62.0254C411.561 62.0254 415.284 59.4338 416.352 55.5071L411.907 54.706C411.059 56.9835 409.017 58.1458 406.347 58.1458C402.326 58.1458 399.624 55.5385 399.498 50.8892H416.65V49.2243C416.65 40.5069 411.436 37.0985 405.97 37.0985C399.247 37.0985 394.818 42.219 394.818 49.6327C394.818 57.1249 399.184 62.0254 406.3 62.0254ZM399.514 47.3709C399.703 43.9467 402.184 40.9781 406.001 40.9781C409.645 40.9781 412.033 43.6797 412.048 47.3709H399.514Z" fill="#2B6080"/>
<path d="M421.861 61.5385H426.558V46.8054C426.558 43.6483 428.992 41.3708 432.322 41.3708C433.296 41.3708 434.395 41.5436 434.772 41.6535V37.1613C434.301 37.0985 433.374 37.0514 432.777 37.0514C429.95 37.0514 427.531 38.6535 426.652 41.2451H426.4V37.4127H421.861V61.5385Z" fill="#2B6080"/>
<path d="M448.135 62.0254C453.837 62.0254 457.528 58.6013 458.046 53.9049H453.475C452.878 56.5123 450.852 58.0516 448.166 58.0516C444.193 58.0516 441.632 54.7374 441.632 49.4756C441.632 44.308 444.24 41.0567 448.166 41.0567C451.151 41.0567 452.973 42.9415 453.475 45.2033H458.046C457.543 40.3341 453.57 37.0985 448.088 37.0985C441.287 37.0985 436.889 42.219 436.889 49.5855C436.889 56.8578 441.13 62.0254 448.135 62.0254Z" fill="#2B6080"/>
<path d="M473.466 62.0254C478.728 62.0254 482.451 59.4338 483.519 55.5071L479.074 54.706C478.226 56.9835 476.184 58.1458 473.513 58.1458C469.492 58.1458 466.791 55.5385 466.665 50.8892H483.817V49.2243C483.817 40.5069 478.603 37.0985 473.136 37.0985C466.414 37.0985 461.985 42.219 461.985 49.6327C461.985 57.1249 466.351 62.0254 473.466 62.0254ZM466.681 47.3709C466.869 43.9467 469.351 40.9781 473.168 40.9781C476.812 40.9781 479.199 43.6797 479.215 47.3709H466.681Z" fill="#2B6080"/>
<path d="M270.462 79.7289C269.783 79.7289 269.191 79.5746 268.685 79.2658C268.18 78.9571 267.787 78.5252 267.507 77.9701C267.228 77.4118 267.088 76.7632 267.088 76.0241C267.088 75.2787 267.228 74.627 267.507 74.0687C267.787 73.5105 268.18 73.077 268.685 72.7683C269.191 72.4596 269.783 72.3052 270.462 72.3052C271.143 72.3052 271.736 72.4596 272.238 72.7683C272.744 73.077 273.137 73.5105 273.416 74.0687C273.696 74.627 273.836 75.2787 273.836 76.0241C273.836 76.7632 273.696 77.4118 273.416 77.9701C273.137 78.5252 272.744 78.9571 272.238 79.2658C271.736 79.5746 271.143 79.7289 270.462 79.7289ZM270.466 78.5548C270.909 78.5548 271.274 78.4394 271.56 78.2086C271.849 77.9778 272.062 77.6707 272.201 77.2871C272.342 76.9004 272.413 76.4778 272.413 76.0194C272.413 75.561 272.342 75.1384 272.201 74.7517C272.062 74.365 271.849 74.0563 271.56 73.8255C271.274 73.5916 270.909 73.4747 270.466 73.4747C270.024 73.4747 269.658 73.5916 269.369 73.8255C269.08 74.0563 268.864 74.365 268.723 74.7517C268.582 75.1384 268.511 75.561 268.511 76.0194C268.511 76.4778 268.582 76.9004 268.723 77.2871C268.864 77.6707 269.08 77.9778 269.369 78.2086C269.658 78.4394 270.024 78.5548 270.466 78.5548Z" fill="black"/>
<path d="M275.408 82.2783V72.3988H276.784V73.5635H276.902C276.987 73.4138 277.105 73.2408 277.255 73.0443C277.409 72.8478 277.623 72.6763 277.896 72.5297C278.173 72.38 278.534 72.3052 278.98 72.3052C279.564 72.3052 280.084 72.4518 280.54 72.7449C280.998 73.0381 281.36 73.4606 281.624 74.0126C281.887 74.5646 282.019 75.2288 282.019 76.0054C282.019 76.7788 281.889 77.4446 281.628 78.0028C281.368 78.5579 281.009 78.9836 280.554 79.2798C280.098 79.5761 279.579 79.7242 278.994 79.7242C278.554 79.7242 278.196 79.651 277.92 79.5044C277.643 79.3578 277.425 79.1863 277.265 78.9898C277.108 78.7934 276.987 78.6187 276.902 78.4659H276.817V82.2783H275.408ZM276.789 75.9913C276.789 76.746 276.952 77.3588 277.279 77.8297C277.606 78.2975 278.072 78.5314 278.679 78.5314C279.099 78.5314 279.451 78.4207 279.734 78.1993C280.02 77.9747 280.235 77.6707 280.38 77.2871C280.524 76.9035 280.596 76.4716 280.596 75.9913C280.596 75.5142 280.524 75.0885 280.38 74.7143C280.238 74.3369 280.026 74.0391 279.743 73.8208C279.461 73.6025 279.106 73.4934 278.679 73.4934C278.063 73.4934 277.593 73.7226 277.27 74.181C276.949 74.6363 276.789 75.2398 276.789 75.9913Z" fill="black"/>
<path d="M286.717 79.7289C286.007 79.7289 285.395 79.5761 284.88 79.2705C284.365 78.9649 283.967 78.5361 283.688 77.9841C283.411 77.429 283.273 76.7803 283.273 76.0381C283.273 75.3021 283.411 74.6535 283.688 74.0921C283.967 73.5308 284.357 73.0926 284.856 72.7777C285.359 72.4627 285.946 72.3052 286.618 72.3052C287.165 72.3052 287.682 72.4268 288.169 72.6701C288.659 72.9102 289.056 73.2953 289.361 73.8255C289.669 74.3525 289.823 75.0495 289.823 75.9165V76.4123H284.677C284.696 77.1047 284.892 77.6379 285.266 78.0122C285.64 78.3864 286.128 78.5735 286.732 78.5735C287.134 78.5735 287.481 78.4877 287.773 78.3162C288.065 78.1447 288.274 77.889 288.4 77.549L289.733 77.7876C289.573 78.3708 289.227 78.8401 288.697 79.1956C288.166 79.5512 287.506 79.7289 286.717 79.7289ZM284.682 75.3645H288.442C288.439 74.8156 288.272 74.3619 287.943 74.0032C287.613 73.6415 287.174 73.4606 286.628 73.4606C286.248 73.4606 285.915 73.5495 285.629 73.7273C285.346 73.9019 285.122 74.1342 284.955 74.4243C284.792 74.7112 284.701 75.0246 284.682 75.3645Z" fill="black"/>
<path d="M292.795 75.3177V79.5839H291.386V72.3988H292.738V73.5682H292.828C292.994 73.1877 293.255 72.8821 293.61 72.6514C293.968 72.4206 294.419 72.3052 294.962 72.3052C295.704 72.3052 296.299 72.5344 296.748 72.9928C297.201 73.4513 297.427 74.1249 297.427 75.0137V79.5839H296.018V75.1821C296.018 74.6613 295.881 74.2543 295.608 73.9611C295.335 73.6649 294.959 73.5168 294.482 73.5168C293.992 73.5168 293.588 73.6742 293.271 73.9892C292.954 74.3011 292.795 74.7439 292.795 75.3177Z" fill="black"/>
<path d="M308.252 74.1529L306.975 74.3775C306.893 74.1373 306.741 73.9175 306.518 73.7179C306.298 73.5152 305.968 73.4138 305.528 73.4138C305.129 73.4138 304.795 73.5027 304.525 73.6805C304.258 73.8551 304.126 74.0812 304.129 74.3588C304.126 74.602 304.214 74.7969 304.393 74.9435C304.575 75.0869 304.865 75.2055 305.264 75.299L306.414 75.561C307.733 75.8635 308.393 76.5121 308.393 77.5069C308.393 77.9404 308.268 78.324 308.016 78.6577C307.768 78.9914 307.421 79.2533 306.975 79.4436C306.532 79.6338 306.018 79.7289 305.434 79.7289C304.62 79.7289 303.959 79.5574 303.45 79.2144C302.941 78.8682 302.627 78.377 302.508 77.7408L303.87 77.535C304.039 78.246 304.558 78.6016 305.425 78.6016C305.886 78.6016 306.255 78.5064 306.532 78.3162C306.808 78.1229 306.947 77.8874 306.947 77.6099C306.947 77.1514 306.606 76.8474 305.924 76.6977L304.699 76.431C304.02 76.2814 303.521 76.0381 303.2 75.7013C302.88 75.3645 302.72 74.9419 302.72 74.4336C302.72 74.0095 302.839 73.6384 303.078 73.3203C303.317 72.9991 303.647 72.7496 304.067 72.5718C304.488 72.3941 304.971 72.3052 305.514 72.3052C306.296 72.3052 306.912 72.4736 307.361 72.8104C307.81 73.1472 308.107 73.5947 308.252 74.1529Z" fill="black"/>
<path d="M312.991 79.7289C312.313 79.7289 311.72 79.5746 311.215 79.2658C310.709 78.9571 310.316 78.5252 310.037 77.9701C309.757 77.4118 309.617 76.7632 309.617 76.0241C309.617 75.2787 309.757 74.627 310.037 74.0687C310.316 73.5105 310.709 73.077 311.215 72.7683C311.72 72.4596 312.313 72.3052 312.991 72.3052C313.673 72.3052 314.265 72.4596 314.768 72.7683C315.273 73.077 315.666 73.5105 315.946 74.0687C316.225 74.627 316.365 75.2787 316.365 76.0241C316.365 76.7632 316.225 77.4118 315.946 77.9701C315.666 78.5252 315.273 78.9571 314.768 79.2658C314.265 79.5746 313.673 79.7289 312.991 79.7289ZM312.996 78.5548C313.439 78.5548 313.803 78.4394 314.089 78.2086C314.378 77.9778 314.592 77.6707 314.73 77.2871C314.871 76.9004 314.942 76.4778 314.942 76.0194C314.942 75.561 314.871 75.1384 314.73 74.7517C314.592 74.365 314.378 74.0563 314.089 73.8255C313.803 73.5916 313.439 73.4747 312.996 73.4747C312.553 73.4747 312.187 73.5916 311.898 73.8255C311.609 74.0563 311.394 74.365 311.252 74.7517C311.111 75.1384 311.04 75.561 311.04 76.0194C311.04 76.4778 311.111 76.9004 311.252 77.2871C311.394 77.6707 311.609 77.9778 311.898 78.2086C312.187 78.4394 312.553 78.5548 312.996 78.5548Z" fill="black"/>
<path d="M322.522 76.6041V72.3988H323.936V79.5839H322.551V78.3396H322.475C322.309 78.7232 322.042 79.0428 321.674 79.2986C321.31 79.5512 320.856 79.6775 320.313 79.6775C319.618 79.6775 319.048 79.4498 318.602 78.9945C318.159 78.5361 317.938 77.8609 317.938 76.969V72.3988H319.347V76.8006C319.347 77.2902 319.483 77.68 319.756 77.9701C320.03 78.2601 320.385 78.4051 320.821 78.4051C321.085 78.4051 321.348 78.3396 321.608 78.2086C321.872 78.0776 322.091 77.8796 322.263 77.6145C322.439 77.3463 322.526 77.0095 322.522 76.6041Z" fill="black"/>
<path d="M325.829 79.5839V72.3988H327.191V73.5401H327.266C327.398 73.1534 327.631 72.8494 327.964 72.628C328.3 72.4034 328.68 72.2912 329.104 72.2912C329.195 72.2912 329.3 72.2943 329.42 72.3005C329.539 72.3068 329.633 72.3145 329.703 72.3239V73.6618C329.646 73.6462 329.546 73.629 329.401 73.6103C329.26 73.5885 329.115 73.5776 328.968 73.5776C328.468 73.5776 328.055 73.7304 327.728 74.036C327.402 74.3385 327.238 74.7252 327.238 75.1961V79.5839H325.829Z" fill="black"/>
<path d="M336.346 74.1529L335.069 74.3775C334.987 74.1373 334.834 73.9175 334.611 73.7179C334.392 73.5152 334.062 73.4138 333.622 73.4138C333.223 73.4138 332.888 73.5027 332.618 73.6805C332.351 73.8551 332.219 74.0812 332.222 74.3588C332.219 74.602 332.307 74.7969 332.486 74.9435C332.668 75.0869 332.959 75.2055 333.358 75.299L334.508 75.561C335.827 75.8635 336.487 76.5121 336.487 77.5069C336.487 77.9404 336.361 78.324 336.11 78.6577C335.862 78.9914 335.515 79.2533 335.069 79.4436C334.626 79.6338 334.112 79.7289 333.528 79.7289C332.714 79.7289 332.053 79.5574 331.544 79.2144C331.035 78.8682 330.721 78.377 330.601 77.7408L331.963 77.535C332.133 78.246 332.651 78.6016 333.518 78.6016C333.98 78.6016 334.349 78.5064 334.626 78.3162C334.902 78.1229 335.04 77.8874 335.04 77.6099C335.04 77.1514 334.699 76.8474 334.018 76.6977L332.793 76.431C332.114 76.2814 331.615 76.0381 331.294 75.7013C330.974 75.3645 330.813 74.9419 330.813 74.4336C330.813 74.0095 330.933 73.6384 331.172 73.3203C331.41 72.9991 331.74 72.7496 332.161 72.5718C332.582 72.3941 333.064 72.3052 333.608 72.3052C334.39 72.3052 335.006 72.4736 335.455 72.8104C335.904 73.1472 336.201 73.5947 336.346 74.1529Z" fill="black"/>
<path d="M341.155 79.7289C340.445 79.7289 339.833 79.5761 339.318 79.2705C338.802 78.9649 338.405 78.5361 338.126 77.9841C337.849 77.429 337.711 76.7803 337.711 76.0381C337.711 75.3021 337.849 74.6535 338.126 74.0921C338.405 73.5308 338.795 73.0926 339.294 72.7777C339.797 72.4627 340.384 72.3052 341.056 72.3052C341.603 72.3052 342.12 72.4268 342.607 72.6701C343.097 72.9102 343.494 73.2953 343.799 73.8255C344.107 74.3525 344.261 75.0495 344.261 75.9165V76.4123H339.115C339.134 77.1047 339.33 77.6379 339.704 78.0122C340.078 78.3864 340.566 78.5735 341.17 78.5735C341.572 78.5735 341.919 78.4877 342.211 78.3162C342.503 78.1447 342.712 77.889 342.838 77.549L344.171 77.7876C344.011 78.3708 343.665 78.8401 343.135 79.1956C342.604 79.5512 341.944 79.7289 341.155 79.7289ZM339.12 75.3645H342.88C342.877 74.8156 342.71 74.3619 342.381 74.0032C342.051 73.6415 341.612 73.4606 341.066 73.4606C340.686 73.4606 340.353 73.5495 340.067 73.7273C339.784 73.9019 339.56 74.1342 339.393 74.4243C339.23 74.7112 339.139 75.0246 339.12 75.3645Z" fill="black"/>
<path d="M352.455 79.7289C351.745 79.7289 351.133 79.5761 350.617 79.2705C350.102 78.9649 349.705 78.5361 349.425 77.9841C349.149 77.429 349.011 76.7803 349.011 76.0381C349.011 75.3021 349.149 74.6535 349.425 74.0921C349.705 73.5308 350.094 73.0926 350.594 72.7777C351.096 72.4627 351.684 72.3052 352.356 72.3052C352.903 72.3052 353.42 72.4268 353.906 72.6701C354.396 72.9102 354.794 73.2953 355.099 73.8255C355.406 74.3525 355.56 75.0495 355.56 75.9165V76.4123H350.415C350.434 77.1047 350.63 77.6379 351.004 78.0122C351.378 78.3864 351.866 78.5735 352.469 78.5735C352.871 78.5735 353.218 78.4877 353.511 78.3162C353.803 78.1447 354.012 77.889 354.137 77.549L355.471 77.7876C355.311 78.3708 354.965 78.8401 354.434 79.1956C353.903 79.5512 353.244 79.7289 352.455 79.7289ZM350.419 75.3645H354.18C354.177 74.8156 354.01 74.3619 353.68 74.0032C353.35 73.6415 352.912 73.4606 352.366 73.4606C351.985 73.4606 351.652 73.5495 351.367 73.7273C351.084 73.9019 350.859 74.1342 350.693 74.4243C350.529 74.7112 350.438 75.0246 350.419 75.3645Z" fill="black"/>
<path d="M361.388 74.9295V76.141H357.109V74.9295H361.388Z" fill="black"/>
<path d="M366.315 79.7289C365.614 79.7289 365.011 79.5714 364.505 79.2565C364.003 78.9384 363.616 78.5002 363.346 77.942C363.076 77.3838 362.941 76.7445 362.941 76.0241C362.941 75.2912 363.079 74.6457 363.355 74.0874C363.632 73.5292 364.021 73.0926 364.524 72.7777C365.03 72.4627 365.622 72.3052 366.3 72.3052C366.85 72.3052 367.34 72.4065 367.771 72.6093C368.201 72.8088 368.548 73.0895 368.812 73.4513C369.079 73.813 369.238 74.2356 369.288 74.719H367.917C367.841 74.3822 367.669 74.0921 367.398 73.8489C367.131 73.6056 366.773 73.484 366.324 73.484C365.737 73.484 365.262 73.7101 364.901 74.1623C364.543 74.6114 364.364 75.221 364.364 75.9913C364.364 76.7741 364.541 77.3962 364.896 77.8578C365.251 78.3162 365.727 78.5454 366.324 78.5454C366.726 78.5454 367.07 78.4363 367.356 78.218C367.642 77.9997 367.829 77.6972 367.917 77.3105H369.288C369.238 77.7751 369.085 78.1899 368.831 78.5548C368.576 78.9197 368.236 79.2066 367.808 79.4155C367.384 79.6244 366.886 79.7289 366.315 79.7289Z" fill="black"/>
<path d="M373.843 79.7289C373.165 79.7289 372.573 79.5746 372.067 79.2658C371.561 78.9571 371.168 78.5252 370.889 77.9701C370.609 77.4118 370.47 76.7632 370.47 76.0241C370.47 75.2787 370.609 74.627 370.889 74.0687C371.168 73.5105 371.561 73.077 372.067 72.7683C372.573 72.4596 373.165 72.3052 373.843 72.3052C374.525 72.3052 375.117 72.4596 375.62 72.7683C376.126 73.077 376.518 73.5105 376.798 74.0687C377.077 74.627 377.217 75.2787 377.217 76.0241C377.217 76.7632 377.077 77.4118 376.798 77.9701C376.518 78.5252 376.126 78.9571 375.62 79.2658C375.117 79.5746 374.525 79.7289 373.843 79.7289ZM373.848 78.5548C374.291 78.5548 374.655 78.4394 374.941 78.2086C375.23 77.9778 375.444 77.6707 375.582 77.2871C375.724 76.9004 375.794 76.4778 375.794 76.0194C375.794 75.561 375.724 75.1384 375.582 74.7517C375.444 74.365 375.23 74.0563 374.941 73.8255C374.655 73.5916 374.291 73.4747 373.848 73.4747C373.405 73.4747 373.039 73.5916 372.75 73.8255C372.461 74.0563 372.246 74.365 372.105 74.7517C371.963 75.1384 371.893 75.561 371.893 76.0194C371.893 76.4778 371.963 76.9004 372.105 77.2871C372.246 77.6707 372.461 77.9778 372.75 78.2086C373.039 78.4394 373.405 78.5548 373.848 78.5548Z" fill="black"/>
<path d="M378.79 79.5839V72.3988H380.142V73.5682H380.232C380.383 73.1722 380.629 72.8634 380.972 72.642C381.314 72.4175 381.724 72.3052 382.202 72.3052C382.685 72.3052 383.091 72.4175 383.417 72.642C383.747 72.8665 383.991 73.1753 384.148 73.5682H384.223C384.399 73.1846 384.674 72.879 385.048 72.6514C385.425 72.4206 385.874 72.3052 386.395 72.3052C387.052 72.3052 387.588 72.511 388.002 72.9227C388.42 73.3312 388.629 73.9456 388.629 74.7657V79.5839H387.22V74.8967C387.22 74.4102 387.086 74.0578 386.819 73.8395C386.556 73.6212 386.237 73.5121 385.863 73.5121C385.404 73.5121 385.048 73.6524 384.793 73.9331C384.539 74.2138 384.412 74.5708 384.412 75.0043V79.5839H383.007V74.8078C383.007 74.418 382.885 74.1046 382.64 73.8676C382.395 73.6306 382.076 73.5121 381.683 73.5121C381.284 73.5121 380.937 73.6649 380.642 73.9705C380.347 74.2761 380.199 74.6706 380.199 75.154V79.5839H378.79Z" fill="black"/>
<path d="M390.517 79.5839V72.3988H391.87V73.5682H391.959C392.11 73.1722 392.357 72.8634 392.699 72.642C393.041 72.4175 393.451 72.3052 393.929 72.3052C394.413 72.3052 394.818 72.4175 395.145 72.642C395.474 72.8665 395.718 73.1753 395.875 73.5682H395.95C396.126 73.1846 396.401 72.879 396.775 72.6514C397.152 72.4206 397.601 72.3052 398.123 72.3052C398.779 72.3052 399.315 72.511 399.729 72.9227C400.147 73.3312 400.356 73.9456 400.356 74.7657V79.5839H398.947V74.8967C398.947 74.4102 398.814 74.0578 398.547 73.8395C398.283 73.6212 397.964 73.5121 397.59 73.5121C397.132 73.5121 396.775 73.6524 396.521 73.9331C396.266 74.2138 396.139 74.5708 396.139 75.0043V79.5839H394.735V74.8078C394.735 74.418 394.612 74.1046 394.367 73.8676C394.122 73.6306 393.803 73.5121 393.411 73.5121C393.012 73.5121 392.664 73.6649 392.369 73.9705C392.074 74.2761 391.926 74.6706 391.926 75.154V79.5839H390.517Z" fill="black"/>
<path d="M405.364 79.7289C404.654 79.7289 404.041 79.5761 403.526 79.2705C403.011 78.9649 402.614 78.5361 402.334 77.9841C402.058 77.429 401.919 76.7803 401.919 76.0381C401.919 75.3021 402.058 74.6535 402.334 74.0921C402.614 73.5308 403.003 73.0926 403.503 72.7777C404.005 72.4627 404.593 72.3052 405.265 72.3052C405.812 72.3052 406.328 72.4268 406.815 72.6701C407.305 72.9102 407.703 73.2953 408.007 73.8255C408.315 74.3525 408.469 75.0495 408.469 75.9165V76.4123H403.324C403.342 77.1047 403.539 77.6379 403.913 78.0122C404.286 78.3864 404.775 78.5735 405.378 78.5735C405.78 78.5735 406.127 78.4877 406.42 78.3162C406.712 78.1447 406.921 77.889 407.046 77.549L408.38 77.7876C408.22 78.3708 407.874 78.8401 407.343 79.1956C406.812 79.5512 406.152 79.7289 405.364 79.7289ZM403.328 75.3645H407.089C407.085 74.8156 406.919 74.3619 406.589 74.0032C406.259 73.6415 405.821 73.4606 405.274 73.4606C404.894 73.4606 404.561 73.5495 404.275 73.7273C403.993 73.9019 403.768 74.1342 403.602 74.4243C403.438 74.7112 403.347 75.0246 403.328 75.3645Z" fill="black"/>
<path d="M410.033 79.5839V72.3988H411.394V73.5401H411.47C411.602 73.1534 411.834 72.8494 412.167 72.628C412.503 72.4034 412.883 72.2912 413.307 72.2912C413.399 72.2912 413.504 72.2943 413.623 72.3005C413.743 72.3068 413.837 72.3145 413.906 72.3239V73.6618C413.849 73.6462 413.749 73.629 413.604 73.6103C413.463 73.5885 413.318 73.5776 413.171 73.5776C412.671 73.5776 412.258 73.7304 411.932 74.036C411.605 74.3385 411.441 74.7252 411.441 75.1961V79.5839H410.033Z" fill="black"/>
<path d="M417.915 79.7289C417.214 79.7289 416.611 79.5714 416.105 79.2565C415.603 78.9384 415.216 78.5002 414.946 77.942C414.676 77.3838 414.541 76.7445 414.541 76.0241C414.541 75.2912 414.679 74.6457 414.956 74.0874C415.232 73.5292 415.622 73.0926 416.124 72.7777C416.63 72.4627 417.222 72.3052 417.901 72.3052C418.45 72.3052 418.94 72.4065 419.371 72.6093C419.801 72.8088 420.148 73.0895 420.412 73.4513C420.679 73.813 420.838 74.2356 420.888 74.719H419.517C419.441 74.3822 419.269 74.0921 418.999 73.8489C418.732 73.6056 418.373 73.484 417.924 73.484C417.337 73.484 416.862 73.7101 416.501 74.1623C416.143 74.6114 415.964 75.221 415.964 75.9913C415.964 76.7741 416.141 77.3962 416.496 77.8578C416.851 78.3162 417.327 78.5454 417.924 78.5454C418.326 78.5454 418.67 78.4363 418.956 78.218C419.242 77.9997 419.429 77.6972 419.517 77.3105H420.888C420.838 77.7751 420.685 78.1899 420.431 78.5548C420.177 78.9197 419.836 79.2066 419.408 79.4155C418.984 79.6244 418.486 79.7289 417.915 79.7289Z" fill="black"/>
<path d="M425.514 79.7289C424.804 79.7289 424.192 79.5761 423.676 79.2705C423.161 78.9649 422.764 78.5361 422.484 77.9841C422.208 77.429 422.07 76.7803 422.07 76.0381C422.07 75.3021 422.208 74.6535 422.484 74.0921C422.764 73.5308 423.153 73.0926 423.653 72.7777C424.156 72.4627 424.743 72.3052 425.415 72.3052C425.962 72.3052 426.479 72.4268 426.966 72.6701C427.456 72.9102 427.853 73.2953 428.158 73.8255C428.466 74.3525 428.62 75.0495 428.62 75.9165V76.4123H423.474C423.493 77.1047 423.689 77.6379 424.063 78.0122C424.437 78.3864 424.925 78.5735 425.528 78.5735C425.93 78.5735 426.278 78.4877 426.57 78.3162C426.862 78.1447 427.071 77.889 427.196 77.549L428.53 77.7876C428.37 78.3708 428.024 78.8401 427.493 79.1956C426.962 79.5512 426.303 79.7289 425.514 79.7289ZM423.479 75.3645H427.239C427.236 74.8156 427.069 74.3619 426.739 74.0032C426.41 73.6415 425.971 73.4606 425.425 73.4606C425.045 73.4606 424.712 73.5495 424.426 73.7273C424.143 73.9019 423.918 74.1342 423.752 74.4243C423.589 74.7112 423.497 75.0246 423.479 75.3645Z" fill="black"/>
<path d="M439.118 74.1529L437.841 74.3775C437.759 74.1373 437.607 73.9175 437.384 73.7179C437.164 73.5152 436.834 73.4138 436.395 73.4138C435.996 73.4138 435.661 73.5027 435.391 73.6805C435.124 73.8551 434.992 74.0812 434.995 74.3588C434.992 74.602 435.08 74.7969 435.259 74.9435C435.441 75.0869 435.732 75.2055 436.131 75.299L437.28 75.561C438.6 75.8635 439.259 76.5121 439.259 77.5069C439.259 77.9404 439.134 78.324 438.883 78.6577C438.634 78.9914 438.287 79.2533 437.841 79.4436C437.398 79.6338 436.885 79.7289 436.3 79.7289C435.487 79.7289 434.825 79.5574 434.316 79.2144C433.808 78.8682 433.493 78.377 433.374 77.7408L434.736 77.535C434.905 78.246 435.424 78.6016 436.291 78.6016C436.753 78.6016 437.122 78.5064 437.398 78.3162C437.675 78.1229 437.813 77.8874 437.813 77.6099C437.813 77.1514 437.472 76.8474 436.79 76.6977L435.565 76.431C434.887 76.2814 434.387 76.0381 434.067 75.7013C433.746 75.3645 433.586 74.9419 433.586 74.4336C433.586 74.0095 433.705 73.6384 433.944 73.3203C434.183 72.9991 434.513 72.7496 434.934 72.5718C435.355 72.3941 435.837 72.3052 436.38 72.3052C437.163 72.3052 437.778 72.4736 438.228 72.8104C438.677 73.1472 438.974 73.5947 439.118 74.1529Z" fill="black"/>
<path d="M443.857 79.7289C443.179 79.7289 442.587 79.5746 442.081 79.2658C441.575 78.9571 441.182 78.5252 440.903 77.9701C440.623 77.4118 440.483 76.7632 440.483 76.0241C440.483 75.2787 440.623 74.627 440.903 74.0687C441.182 73.5105 441.575 73.077 442.081 72.7683C442.587 72.4596 443.179 72.3052 443.857 72.3052C444.539 72.3052 445.131 72.4596 445.634 72.7683C446.14 73.077 446.532 73.5105 446.812 74.0687C447.091 74.627 447.231 75.2787 447.231 76.0241C447.231 76.7632 447.091 77.4118 446.812 77.9701C446.532 78.5252 446.14 78.9571 445.634 79.2658C445.131 79.5746 444.539 79.7289 443.857 79.7289ZM443.862 78.5548C444.305 78.5548 444.669 78.4394 444.955 78.2086C445.244 77.9778 445.458 77.6707 445.596 77.2871C445.737 76.9004 445.808 76.4778 445.808 76.0194C445.808 75.561 445.737 75.1384 445.596 74.7517C445.458 74.365 445.244 74.0563 444.955 73.8255C444.669 73.5916 444.305 73.4747 443.862 73.4747C443.419 73.4747 443.053 73.5916 442.764 73.8255C442.475 74.0563 442.26 74.365 442.119 74.7517C441.977 75.1384 441.907 75.561 441.907 76.0194C441.907 76.4778 441.977 76.9004 442.119 77.2871C442.26 77.6707 442.475 77.9778 442.764 78.2086C443.053 78.4394 443.419 78.5548 443.862 78.5548Z" fill="black"/>
<path d="M450.213 70.0037V79.5839H448.804V70.0037H450.213Z" fill="black"/>
<path d="M456.693 76.6041V72.3988H458.107V79.5839H456.721V78.3396H456.646C456.48 78.7232 456.213 79.0428 455.845 79.2986C455.481 79.5512 455.027 79.6775 454.483 79.6775C453.789 79.6775 453.219 79.4498 452.773 78.9945C452.33 78.5361 452.108 77.8609 452.108 76.969V72.3988H453.517V76.8006C453.517 77.2902 453.654 77.68 453.927 77.9701C454.2 78.2601 454.555 78.4051 454.992 78.4051C455.256 78.4051 455.518 78.3396 455.779 78.2086C456.043 78.0776 456.261 77.8796 456.434 77.6145C456.61 77.3463 456.696 77.0095 456.693 76.6041Z" fill="black"/>
<path d="M463.378 72.3988V73.5214H461.894V77.4742C461.894 77.8796 461.981 78.1416 462.153 78.2601C462.329 78.3755 462.532 78.4332 462.761 78.4332C462.874 78.4332 462.973 78.4254 463.058 78.4098C463.143 78.3942 463.209 78.3817 463.256 78.3723L463.51 79.5278C463.429 79.559 463.311 79.5901 463.157 79.6213C463.006 79.6556 462.819 79.6743 462.596 79.6775C462.226 79.6837 461.878 79.6182 461.555 79.481C461.234 79.3438 460.975 79.1317 460.777 78.8448C460.583 78.5579 460.485 78.1977 460.485 77.7642V73.5214H459.425V72.3988H460.485V70.6773H461.894V72.3988H463.378Z" fill="black"/>
<path d="M464.937 79.5839V72.3988H466.346V79.5839H464.937ZM465.649 71.2901C465.404 71.2901 465.193 71.209 465.017 71.0469C464.844 70.8816 464.758 70.6851 464.758 70.4574C464.758 70.2267 464.844 70.0302 465.017 69.868C465.193 69.7028 465.404 69.6201 465.649 69.6201C465.89 69.6201 466.099 69.7028 466.275 69.868C466.451 70.0302 466.539 70.2267 466.539 70.4574C466.539 70.6851 466.451 70.8816 466.275 71.0469C466.099 71.209 465.89 71.2901 465.649 71.2901Z" fill="black"/>
<path d="M471.29 79.7289C470.612 79.7289 470.019 79.5746 469.514 79.2658C469.008 78.9571 468.615 78.5252 468.336 77.9701C468.056 77.4118 467.916 76.7632 467.916 76.0241C467.916 75.2787 468.056 74.627 468.336 74.0687C468.615 73.5105 469.008 73.077 469.514 72.7683C470.019 72.4596 470.612 72.3052 471.29 72.3052C471.972 72.3052 472.564 72.4596 473.067 72.7683C473.572 73.077 473.965 73.5105 474.245 74.0687C474.524 74.627 474.664 75.2787 474.664 76.0241C474.664 76.7632 474.524 77.4118 474.245 77.9701C473.965 78.5252 473.572 78.9571 473.067 79.2658C472.564 79.5746 471.972 79.7289 471.29 79.7289ZM471.295 78.5548C471.738 78.5548 472.102 78.4394 472.388 78.2086C472.677 77.9778 472.891 77.6707 473.029 77.2871C473.17 76.9004 473.241 76.4778 473.241 76.0194C473.241 75.561 473.17 75.1384 473.029 74.7517C472.891 74.365 472.677 74.0563 472.388 73.8255C472.102 73.5916 471.738 73.4747 471.295 73.4747C470.852 73.4747 470.486 73.5916 470.197 73.8255C469.908 74.0563 469.693 74.365 469.551 74.7517C469.41 75.1384 469.339 75.561 469.339 76.0194C469.339 76.4778 469.41 76.9004 469.551 77.2871C469.693 77.6707 469.908 77.9778 470.197 78.2086C470.486 78.4394 470.852 78.5548 471.295 78.5548Z" fill="black"/>
<path d="M477.646 75.3177V79.5839H476.237V72.3988H477.589V73.5682H477.679C477.845 73.1877 478.106 72.8821 478.461 72.6514C478.819 72.4206 479.27 72.3052 479.813 72.3052C480.555 72.3052 481.15 72.5344 481.599 72.9928C482.051 73.4513 482.278 74.1249 482.278 75.0137V79.5839H480.869V75.1821C480.869 74.6613 480.732 74.2543 480.459 73.9611C480.185 73.6649 479.81 73.5168 479.333 73.5168C478.842 73.5168 478.439 73.6742 478.122 73.9892C477.804 74.3011 477.646 74.7439 477.646 75.3177Z" fill="black"/>
</svg>
