<svg width="170" height="170" viewBox="0 0 170 170" fill="none" xmlns="http://www.w3.org/2000/svg">
<path d="M84.75 169.5C131.556 169.5 169.5 131.556 169.5 84.75C169.5 37.9439 131.556 0 84.75 0C37.9439 0 0 37.9439 0 84.75C0 131.556 37.9439 169.5 84.75 169.5Z" fill="url(#paint0_linear)"/>
<mask id="mask0" mask-type="alpha" maskUnits="userSpaceOnUse" x="0" y="0" width="170" height="170">
<path d="M84.75 169.5C131.556 169.5 169.5 131.556 169.5 84.75C169.5 37.9439 131.556 0 84.75 0C37.9439 0 0 37.9439 0 84.75C0 131.556 37.9439 169.5 84.75 169.5Z" fill="url(#paint1_linear)"/>
</mask>
<g mask="url(#mask0)">
<path d="M199.25 110.21L118.33 38.96L29.4502 93.8L114.35 181.21L199.25 110.21Z" fill="url(#paint2_linear)"/>
</g>
<path d="M73.9996 80.62C73.037 80.4062 72.0396 80.4018 71.0752 80.6071C70.1107 80.8124 69.2016 81.2226 68.4096 81.81C67.1928 83.1274 66.1509 84.5962 65.3096 86.18C69.5558 87.0613 73.6793 88.4548 77.5896 90.33C77.8317 88.3991 77.8618 86.4475 77.6796 84.51C77.4537 83.5993 76.9962 82.7625 76.3513 82.0808C75.7065 81.3992 74.8964 80.896 73.9996 80.62Z" fill="white"/>
<path d="M126.22 57.0599C123.37 34.6999 109.7 30.2599 89.1397 39.4799C75.0497 45.9199 15.9197 67.22 24.9997 87.8C26.7997 91.88 37.3897 102.86 42.8597 103.38C54.7697 104.52 48.9997 88 58.7197 85.76C60.1235 85.5279 61.5559 85.5279 62.9597 85.76C63.9597 84.0299 65.6397 81.1899 66.9597 80.0899C68.0349 79.2624 69.2832 78.6886 70.6114 78.4115C71.9396 78.1344 73.3133 78.1612 74.6297 78.4899C75.9147 78.8932 77.0708 79.6276 77.9819 80.6194C78.8929 81.6112 79.5268 82.8254 79.8197 84.1399C80.0547 86.5616 79.9943 89.0029 79.6397 91.41C82.0897 92.84 83.9197 94.41 84.4897 95.94C85.9297 99.88 81.2197 107.42 80.8497 111.67C79.9997 121.72 84.9997 127 94.0897 130.22C111.09 136.22 122.09 128.69 125.36 110.93C128.49 93.9999 128.41 74.1799 126.22 57.0599Z" fill="white"/>
<defs>
<linearGradient id="paint0_linear" x1="26.52" y1="153.17" x2="156.36" y2="0.62" gradientUnits="userSpaceOnUse">
<stop stop-color="#B9F520"/>
<stop offset="0.14" stop-color="#9CED29"/>
<stop offset="0.56" stop-color="#4CD740"/>
<stop offset="0.85" stop-color="#19C94F"/>
<stop offset="1" stop-color="#06C455"/>
</linearGradient>
<linearGradient id="paint1_linear" x1="26.52" y1="153.17" x2="156.36" y2="0.62" gradientUnits="userSpaceOnUse">
<stop stop-color="#B9F520"/>
<stop offset="0.14" stop-color="#9CED29"/>
<stop offset="0.56" stop-color="#4CD740"/>
<stop offset="0.85" stop-color="#19C94F"/>
<stop offset="1" stop-color="#06C455"/>
</linearGradient>
<linearGradient id="paint2_linear" x1="57.9702" y1="79.47" x2="208.35" y2="158.33" gradientUnits="userSpaceOnUse">
<stop stop-opacity="0.3"/>
<stop offset="0.01" stop-opacity="0.3"/>
<stop offset="1" stop-color="#00730D" stop-opacity="0.1"/>
</linearGradient>
</defs>
</svg>
