<svg width="663" height="95" viewBox="0 0 663 95" fill="none" xmlns="http://www.w3.org/2000/svg">
<path d="M277.997 59.1165H318.649L297.154 24.5338L257.703 87.0609H239.748L287.733 11.9526C289.82 8.91789 293.297 7.08447 297.154 7.08447C300.884 7.08447 304.361 8.85467 306.384 11.8261L354.56 87.0609H336.605L328.133 73.0887H286.975L277.997 59.1165ZM464.503 73.0887V7.84314H449.267V79.4742C449.267 81.4341 450.026 83.3308 451.48 84.7849C452.934 86.239 454.894 87.0609 457.043 87.0609H526.525L535.502 73.0887H464.503ZM212.435 61.3926C227.23 61.3926 239.242 49.4436 239.242 34.6495C239.242 19.8554 227.23 7.84314 212.435 7.84314H145.78V87.0609H161.01V21.8153H211.424C218.505 21.8153 224.195 27.5685 224.195 34.6495C224.195 41.7304 218.505 47.4836 211.424 47.4836L168.471 47.4203L213.953 87.0609H236.081L205.481 61.3926H212.435ZM52.0214 87.0609C30.1525 87.0609 12.4058 69.3586 12.4058 47.4836C12.4058 25.6086 30.1525 7.84314 52.0214 7.84314H98.0659C119.941 7.84314 137.675 25.6086 137.675 47.4836C137.675 69.3586 119.941 87.0609 98.0659 87.0609H52.0214ZM97.0417 73.0887C111.21 73.0887 122.685 61.6454 122.685 47.4836C122.685 33.3218 111.21 21.8153 97.0417 21.8153H53.039C38.8772 21.8153 27.3957 33.3218 27.3957 47.4836C27.3957 61.6454 38.8772 73.0887 53.039 73.0887H97.0417ZM386.36 87.0609C364.485 87.0609 346.72 69.3586 346.72 47.4836C346.72 25.6086 364.485 7.84314 386.36 7.84314H441.048L432.133 21.8153H387.372C373.21 21.8153 361.704 33.3218 361.704 47.4836C361.704 61.6454 373.21 73.0887 387.372 73.0887H442.312L433.335 87.0609H386.36ZM572.677 73.0887C560.981 73.0887 551.055 65.2491 548.02 54.438H613.139L622.117 40.4659H548.02C551.055 29.7181 560.981 21.8153 572.677 21.8153H617.375L626.416 7.84314H571.665C549.79 7.84314 532.025 25.6086 532.025 47.4836C532.025 69.3586 549.79 87.0609 571.665 87.0609H618.64L627.617 73.0887H572.677Z" fill="#F80000"/>
<path d="M634.572 16.2515C634.572 12.3949 637.67 9.29706 641.526 9.29706C645.446 9.29706 648.544 12.3949 648.544 16.2515C648.544 20.1713 645.446 23.2692 641.526 23.2692C637.67 23.2692 634.572 20.1713 634.572 16.2515ZM641.526 25.2291C646.457 25.2291 650.441 21.2461 650.441 16.3148C650.441 11.3834 646.457 7.40039 641.526 7.40039C636.658 7.40039 632.675 11.3834 632.675 16.3148C632.675 21.2461 636.658 25.2291 641.526 25.2291ZM640.704 11.0041C642.095 11.0041 642.664 11.0673 643.297 11.3201C645.067 11.8892 645.256 13.4697 645.256 14.102C645.256 14.2284 645.256 14.5445 645.13 14.9238C645.067 15.3032 644.814 16.0619 643.929 16.6309C643.802 16.6941 643.739 16.7573 643.486 16.8837L645.762 20.9932H643.55L641.526 17.1998H640.136V20.9932H638.176V11.0041H640.704ZM641.4 15.5561C642.032 15.4929 642.664 15.4929 643.044 14.9238C643.233 14.671 643.297 14.4181 643.297 14.0387C643.297 13.533 642.98 13.0904 642.538 12.8375C642.095 12.6479 641.653 12.6479 640.704 12.6479H640.136V15.5561H641.4Z" fill="#F80000"/>
</svg>
