<svg width="103" height="100" viewBox="0 0 103 100" fill="none" xmlns="http://www.w3.org/2000/svg">
<path d="M0 0H102.139V100H0V0Z" fill="#00C8FF"/>
<path d="M8.02148 8.02148H93.583V91.9787H8.02148V8.02148Z" fill="#001D26"/>
<path d="M24.6136 28.0779C24.6136 28.0779 31.053 27.9084 36.3537 27.9084C41.7101 27.9084 45.5293 29.1686 48.0935 31.3831C50.5442 33.4757 52.1968 37.043 52.1968 41.1039C52.1968 45.1648 50.9428 48.4877 48.6628 50.8241C45.6994 53.839 42.2462 55.6237 36.3537 55.8705C34.7259 55.9388 33.2192 55.9551 33.2192 55.9551V69.1556H24.6133L24.6136 28.0779V28.0779ZM33.2189 48.6415C34.1538 48.7325 34.7398 48.6887 36.1256 48.6721C40.7419 48.6167 43.5905 45.8095 43.5905 41.5643C43.5905 37.7505 41.2416 34.6191 36.81 34.4568C35.0436 34.3923 33.2189 34.4568 33.2189 34.4568V48.6415V48.6415Z" fill="#00C8FF"/>
<path d="M55.4786 59.9594C57.213 61.0237 61.3059 62.6176 64.0958 62.6176C66.9461 62.6176 68.1231 61.613 68.1231 60.047C68.1231 58.4789 67.1936 56.8317 63.6606 55.6408C57.4008 53.5092 54.9833 50.9576 55.0461 47.3862C55.0461 41.618 59.8797 37.293 67.3789 37.293C70.9116 37.293 73.7338 38.4479 75.5914 39.3876V46.3104C74.2267 45.5574 70.2917 43.8763 67.6892 43.8763C65.3947 43.8763 64.0941 44.8166 64.0941 46.3824C64.0941 47.8245 65.2724 48.5768 68.9908 49.894C74.7536 51.8997 77.1711 54.8451 77.2322 59.3585C77.2322 65.0636 72.8345 69.6001 64.0941 69.3248C61.0944 69.2304 57.7712 68.0446 55.4779 66.7926L55.4786 59.9594V59.9594Z" fill="#00C8FF"/>
</svg>
