<svg width="116" height="113" viewBox="0 0 116 113" fill="none" xmlns="http://www.w3.org/2000/svg">
<path d="M2 18.1702C1.99993 15.0014 3.25323 11.9612 5.48639 9.71307C7.71955 7.46491 10.7513 6.19131 13.92 6.17019L94.54 5.98019C96.1109 5.97097 97.6681 6.27208 99.1223 6.86624C100.576 7.4604 101.899 8.3359 103.014 9.4425C104.129 10.5491 105.014 11.865 105.619 13.3147C106.225 14.7644 106.537 16.3193 106.54 17.8902L106.74 98.5202C106.74 101.689 105.487 104.729 103.254 106.977C101.02 109.225 97.9887 110.499 94.82 110.52L14.2 110.71C12.6291 110.719 11.0719 110.418 9.61771 109.824C8.16351 109.23 6.84098 108.354 5.72601 107.248C4.61105 106.141 3.7256 104.825 3.12051 103.376C2.51542 101.926 2.20262 100.371 2.20001 98.8002L2 18.1702Z" fill="white" stroke="#727272" stroke-width="2.71" stroke-miterlimit="10"/>
<path d="M33.9411 90.3303C33.9685 89.6867 33.84 89.0461 33.5667 88.4628C33.2933 87.8796 32.8832 87.371 32.3711 86.9803C30.68 85.8777 28.8279 85.0444 26.8811 84.5103C24.6947 83.8223 22.5538 82.9973 20.4711 82.0403C15.0711 79.4603 12.3644 75.9069 12.3511 71.3803C12.3056 69.2094 13.0122 67.0896 14.3511 65.3803C15.852 63.5534 17.8227 62.1704 20.0511 61.3803C22.7001 60.3842 25.5112 59.8891 28.3411 59.9203C31.106 59.8742 33.8505 60.4019 36.4011 61.4703C38.6337 62.3957 40.5581 63.9353 41.9511 65.9103C43.2691 67.6001 43.9742 69.6874 43.9511 71.8303H33.9511C33.9935 71.2113 33.8716 70.592 33.5976 70.0354C33.3237 69.4787 32.9074 69.0043 32.3911 68.6603C31.1966 67.7016 29.6905 67.2173 28.1611 67.3003C26.6581 67.218 25.1693 67.6288 23.9211 68.4703C23.4279 68.7822 23.0245 69.2172 22.7505 69.7324C22.4765 70.2477 22.3415 70.8254 22.3586 71.4087C22.3758 71.992 22.5445 72.5608 22.8483 73.0591C23.1521 73.5573 23.5804 73.9679 24.0911 74.2503C25.9472 75.4217 27.9702 76.3051 30.0911 76.8703C32.552 77.5879 34.9315 78.5598 37.1911 79.7703C41.6978 82.2903 43.9578 85.7769 43.9711 90.2303C44.035 91.8602 43.694 93.4805 42.9785 94.9464C42.263 96.4123 41.1954 97.6779 39.8711 98.6303C37.1311 100.63 33.3678 101.654 28.5811 101.7C25.4336 101.751 22.3091 101.156 19.4011 99.9503C16.9122 98.9661 14.7621 97.2814 13.2111 95.1003C11.8211 93.0403 11.1211 89.4903 11.1211 86.8103H21.1911C21.1911 88.9903 21.7811 91.8103 22.9311 92.8103C24.0811 93.8103 25.9311 94.3603 28.5511 94.3503C29.937 94.4411 31.3162 94.0911 32.4911 93.3503C32.9674 93.0095 33.35 92.5541 33.6034 92.0262C33.8569 91.4983 33.973 90.915 33.9411 90.3303V90.3303Z" fill="#727272"/>
<path d="M64.7601 101.63C62.8048 101.721 60.8511 101.42 59.0137 100.745C57.1762 100.07 55.4921 99.0348 54.0601 97.7003C52.6978 96.3731 51.6284 94.7755 50.9205 93.0102C50.2127 91.2449 49.8821 89.351 49.9501 87.4503V86.7103C49.8897 84.0209 50.4437 81.3532 51.5701 78.9103C52.5857 76.72 54.242 74.8894 56.3201 73.6603C58.5775 72.374 61.1428 71.7275 63.7401 71.7903C67.7401 71.7903 70.9268 73.0403 73.3001 75.5403C75.6734 78.0403 76.8501 81.537 76.8301 86.0303V89.6803H59.0501C59.2907 91.1035 60.0363 92.3923 61.1501 93.3103C62.3339 94.2691 63.8284 94.7602 65.3501 94.6903C66.6137 94.7501 67.8734 94.5093 69.026 93.9878C70.1785 93.4663 71.1909 92.6789 71.9801 91.6903L76.0701 96.5303C74.8578 98.1629 73.227 99.4378 71.3501 100.22C69.2798 101.157 67.0324 101.638 64.7601 101.63ZM63.6901 78.6903C61.0801 78.6903 59.5201 80.2503 59.0401 83.6903H68.0401V83.1903C68.0915 82.5882 68.0205 81.9819 67.8315 81.4079C67.6425 80.8339 67.3393 80.3041 66.9401 79.8503C66.5072 79.444 65.9951 79.1313 65.436 78.9317C64.8768 78.7321 64.2825 78.65 63.6901 78.6903V78.6903Z" fill="#727272"/>
<path d="M49.8105 30L58.7505 21.02L72.2906 34.48L109.461 0L115.471 14.92L70.7705 53.84L49.8105 30Z" fill="#42AF6F"/>
</svg>
