<svg width="500" height="100" viewBox="0 0 500 100" fill="none" xmlns="http://www.w3.org/2000/svg">
<path d="M0 10.443L58.2377 0C58.2577 33.3333 58.2377 66.6667 58.2377 100C38.8384 96.5524 19.4392 93.0447 0 89.5971V10.443ZM19.3992 33.0126C17.0193 35.8388 16.2793 39.7474 16.7193 43.3353C17.0793 46.4622 18.8192 49.3285 21.1792 51.3129C23.3391 53.1569 26.099 54.2794 28.0389 56.4442C29.4988 58.0678 29.8588 60.7737 28.3989 62.5175C27.2389 63.9206 25.239 64.0208 23.5991 63.7402C20.8392 63.3393 18.4993 61.6356 16.6793 59.5711L16.6993 68.2101C19.3792 70.2546 22.8391 70.9761 26.139 70.9561C28.4789 70.896 30.8588 70.3548 32.7587 68.9316C35.1386 67.1878 36.5185 64.3416 36.8585 61.4552C37.3385 58.0878 36.7785 54.4598 34.6986 51.6937C32.8787 49.3887 30.4388 47.705 27.9589 46.2217C26.6189 45.3999 25.279 44.5179 24.379 43.195C23.3191 41.3911 23.3591 38.8254 24.919 37.3422C26.2189 36.0794 28.1989 35.9792 29.8988 36.1796C31.9787 36.4001 33.9386 37.3422 35.5586 38.625V30.0461C32.8587 28.9437 29.8588 28.8234 26.9989 29.0439C24.099 29.4247 21.2591 30.7476 19.3992 33.0126ZM63.8774 16.7569C65.8774 14.7925 68.6572 13.5899 71.4771 13.8505C75.497 14.071 79.0368 17.2179 80.0368 21.0864C80.4368 22.5496 80.4568 24.073 80.2168 25.5562C86.6965 28.2421 91.9763 33.7142 94.4762 40.2886C97.3161 39.7474 100.396 40.5693 102.536 42.5336C105.916 45.44 106.836 50.7116 104.776 54.6803C102.936 58.4085 98.536 60.6334 94.4562 59.7915C91.9563 66.346 86.7365 71.818 80.2568 74.4839C80.8168 77.711 79.8368 81.1786 77.4969 83.5037C75.077 86.0092 71.1771 86.9313 67.8773 85.8088C66.3773 85.2876 64.9774 84.4458 63.9174 83.2431V69.4728C65.7974 67.5085 68.4773 66.3059 71.1971 66.4462C73.777 66.5063 76.1769 67.8092 77.9169 69.6332C83.3767 67.4684 87.7565 62.8783 89.7564 57.3462C88.1365 55.6625 86.9765 53.4977 86.7365 51.1525C86.3365 48.0457 87.5965 44.8988 89.7564 42.714C87.7565 37.1618 83.3567 32.5316 77.8569 30.3668C76.2969 32.1708 74.037 33.3534 71.6771 33.5939C68.7972 33.9146 65.8974 32.6719 63.8774 30.6274V16.7569ZM171.613 16.7168H178.533V44.4378C180.693 40.8699 183.973 37.8232 188.092 36.801C191.772 35.8789 195.772 35.9992 199.292 37.4624C202.372 38.7452 204.632 41.5113 205.712 44.6382C206.812 47.6649 207.052 50.912 207.072 54.099V80.0962H200.192V56.344C200.132 53.2171 200.012 49.99 198.652 47.1036C197.712 45.0591 195.952 43.3153 193.752 42.6538C190.392 41.5915 186.473 42.1126 183.653 44.2774C180.333 46.823 178.533 51.0323 178.473 55.1614V80.0561H171.593C171.613 58.9697 171.633 37.8433 171.613 16.7168ZM417.763 17.6989C420.303 16.7769 423.423 18.5207 423.703 21.2868C424.183 23.6721 422.303 26.1575 419.883 26.4181C417.723 26.7789 415.283 25.4159 414.823 23.191C414.223 20.9862 415.543 18.4005 417.763 17.6989ZM139.754 20.7056C143.514 19.1622 147.634 18.9617 151.614 19.2022C154.634 19.4027 157.734 19.8036 160.434 21.2267V29.2042C156.674 26.2578 151.734 25.2756 147.054 25.5562C143.934 25.7366 140.714 26.9794 138.754 29.4648C136.715 32.0906 136.715 35.8188 137.814 38.8254C139.314 42.0525 142.594 43.8364 145.494 45.6605C150.194 48.4265 155.174 50.9321 158.974 54.9609C161.594 57.6669 163.093 61.3951 162.953 65.2034C163.013 69.2323 161.534 73.3614 158.514 76.0874C154.934 79.4748 149.914 80.8779 145.114 81.0984C141.254 81.4191 137.354 80.6374 133.655 79.4949C132.235 79.0339 130.815 78.5328 129.595 77.6909L129.615 69.2724C132.895 72.1588 137.135 73.7823 141.374 74.4839C144.554 74.9449 147.894 74.7444 150.914 73.5217C152.874 72.6999 154.494 71.0162 155.094 68.9316C155.974 65.9651 155.614 62.5175 153.674 60.0321C152.114 58.0677 149.974 56.6446 147.894 55.2415C144.274 52.8162 140.294 50.9721 136.855 48.2862C134.355 46.342 131.935 44.0569 130.775 41.0503C129.435 37.6228 129.355 33.7543 130.435 30.2465C131.775 25.7968 135.515 22.4093 139.754 20.7056ZM327.227 20.1243H338.526C342.786 20.1443 347.166 19.8637 351.366 21.0463C355.426 22.1086 359.246 24.5741 361.446 28.2221C363.865 32.271 364.265 37.2419 363.545 41.7919C362.825 46.362 360.186 50.5111 356.466 53.197C353.786 55.2014 350.586 56.4241 347.306 56.9653C343.006 57.6869 338.626 57.2459 334.267 57.3662V80.0361H327.207C327.227 60.1122 327.267 40.1283 327.227 20.1243ZM334.287 26.5384V51.0523C338.946 50.912 343.766 51.5133 348.306 50.0902C350.986 49.2283 353.486 47.5246 354.886 45.0391C356.446 42.2129 356.726 38.8254 356.246 35.6785C355.846 33.173 354.626 30.7076 352.546 29.1842C349.846 27.1598 346.366 26.6386 343.106 26.5384H334.287ZM482.321 26.799C484.621 26.0774 486.901 25.3157 489.2 24.5741C489.22 28.8034 489.2 33.0126 489.2 37.2419H499.96V43.175H489.24V68.0297C489.3 69.7134 489.5 71.5173 490.44 72.9605C491.3 74.3235 492.94 74.9649 494.48 75.0651C496.42 75.3257 498.4 74.8046 500 73.7222V79.6753C497.52 80.9381 494.66 81.1786 491.92 80.9581C489.56 80.7577 487.12 79.9559 485.441 78.2121C483.221 75.9872 482.481 72.74 482.341 69.7134V43.1349H474.941V37.2419H482.341C482.321 33.7543 482.281 30.2866 482.321 26.799ZM225.351 37.3221C229.951 36.0393 234.991 35.6584 239.57 37.262C242.85 38.4045 245.49 41.0904 246.63 44.3375C247.99 47.8653 247.89 51.7539 247.85 55.4821V80.0561H240.97V73.2612C239.29 76.2077 236.811 78.7933 233.611 80.016C230.131 81.379 226.211 81.379 222.651 80.4169C218.791 79.3345 215.451 76.2277 214.511 72.259C213.771 69.1321 213.951 65.7045 215.231 62.6979C216.191 60.3327 218.051 58.4285 220.231 57.1658C222.651 55.7627 225.371 55.0611 228.131 54.6603C232.431 54.0589 236.691 53.4576 240.99 52.8362C240.93 49.99 240.57 46.8831 238.65 44.6182C237.091 42.734 234.531 41.9924 232.131 42.0726C227.071 41.9924 222.111 44.0369 218.271 47.284V40.1283C220.411 38.7853 222.911 38.0437 225.351 37.3221ZM228.851 60.2125C226.471 60.7537 223.731 61.375 222.271 63.5398C221.131 65.3638 220.991 67.6488 221.311 69.6933C221.791 72.1788 223.891 74.0629 226.271 74.7444C228.951 75.5061 231.931 75.2255 234.431 74.0228C237.41 72.4795 239.69 69.5731 240.49 66.3259C241.21 63.7603 240.85 61.0543 240.95 58.4285C236.931 59.09 232.891 59.5711 228.851 60.2125ZM289.488 40.2085C292.728 37.6228 296.848 36.1596 301.008 36.2397C304.828 36.1596 308.768 37.1217 311.827 39.4869C314.907 41.8721 316.947 45.44 317.867 49.1882C318.827 52.8362 318.747 56.6246 318.747 60.3929C308.708 60.3929 298.628 60.3728 288.568 60.3929C288.748 63.7603 289.328 67.268 291.328 70.0541C293.268 72.8803 296.508 74.6242 299.868 75.0251C305.508 75.8469 311.328 74.0229 315.767 70.455C315.747 72.6198 315.767 74.8246 315.767 76.9894C311.868 79.8757 306.948 80.9581 302.188 81.1185C298.168 81.2989 294.028 80.6574 290.528 78.5528C287.028 76.4682 284.469 73.0206 283.109 69.2323C281.609 65.1233 281.309 60.6534 281.569 56.3239C281.989 50.2105 284.649 44.077 289.488 40.2085ZM294.068 44.5179C290.988 46.9433 289.228 50.7316 288.688 54.56H311.648C311.628 51.3329 310.928 47.9254 308.808 45.3999C307.008 43.195 304.108 42.1126 301.328 42.1527C298.688 42.0325 296.048 42.8944 294.068 44.5179ZM383.565 36.4201C388.624 35.8789 394.064 36.3399 398.464 39.106C403.184 42.0124 406.084 47.2239 407.004 52.6158C407.864 57.7671 407.724 63.2191 405.904 68.1499C403.944 73.5017 399.644 78.0116 394.204 79.8757C389.604 81.4392 384.505 81.5594 379.805 80.3568C374.805 79.074 370.465 75.5462 368.085 70.9761C365.585 66.366 365.125 60.9341 365.585 55.7827C366.005 51.0724 367.625 46.382 370.845 42.8142C374.025 39.086 378.725 36.9613 383.565 36.4201ZM384.225 42.293C380.645 42.7541 377.305 44.7986 375.325 47.8252C372.705 51.814 372.225 56.805 372.585 61.4752C372.925 65.8048 374.785 70.2546 378.445 72.8002C381.285 74.8447 384.925 75.446 388.364 75.1453C391.144 74.9248 393.944 73.8825 395.924 71.9182C398.084 69.8938 399.304 67.0475 399.884 64.1612C400.504 60.9341 400.504 57.6268 400.084 54.3796C399.544 50.4109 397.724 46.342 394.244 44.1171C391.324 42.1928 387.624 41.8922 384.225 42.293ZM444.562 39.9679C446.862 37.8833 449.882 36.6005 452.962 36.2798C456.342 35.9591 459.942 36.2798 462.861 38.1038C466.141 40.1082 468.101 43.7162 468.901 47.3642C469.761 51.0523 469.521 54.8407 469.561 58.5488V80.016H462.681V55.4219C462.601 52.295 462.281 49.0078 460.682 46.2417C459.582 44.2774 457.602 42.8142 455.382 42.3732C452.802 41.812 449.982 42.0525 447.622 43.2953C443.442 45.5001 441.022 50.1904 440.962 54.8407C440.942 63.2592 440.962 71.6376 440.962 80.0561H434.083V37.2018H440.962V44.4177C442.002 42.8342 443.102 41.2508 444.562 39.9679ZM270.589 38.4045C273.469 36.2397 277.389 36.0593 280.749 37.0415V44.2774C278.669 42.8543 275.969 42.5937 273.549 43.0748C270.649 43.6961 268.509 46.1215 267.229 48.6871C265.609 52.0144 265.209 55.7827 265.329 59.4708V80.0561H258.45V37.2419H265.369V46.2016C266.329 43.195 267.949 40.2686 270.589 38.4045ZM415.703 37.2419H422.623V80.0762H415.743L415.703 37.2419Z" fill="#0072C6"/>
</svg>
