<svg width="111" height="100" viewBox="0 0 111 100" fill="none" xmlns="http://www.w3.org/2000/svg">
<path fill-rule="evenodd" clip-rule="evenodd" d="M22.4029 35.9314L55.0133 99.8848L0.201172 35.9314H22.4029Z" fill="#EA6C00"/>
<path fill-rule="evenodd" clip-rule="evenodd" d="M87.6342 35.9314L55.0238 99.8848L109.836 35.9314H87.6342Z" fill="#EA6C00"/>
<path fill-rule="evenodd" clip-rule="evenodd" d="M22.4023 35.9314H87.6232L55.0128 99.8848L22.4023 35.9314Z" fill="#FDAD00"/>
<path fill-rule="evenodd" clip-rule="evenodd" d="M55.0128 0.488281L24.1187 3.76037L22.4023 35.9313L55.0128 0.488281Z" fill="#FDD231"/>
<path fill-rule="evenodd" clip-rule="evenodd" d="M55.0126 0.488281L85.9066 3.76037L87.623 35.9313L55.0126 0.488281Z" fill="#FDD231"/>
<path fill-rule="evenodd" clip-rule="evenodd" d="M109.836 35.9314L85.9178 3.7605L87.6342 35.9314H109.836Z" fill="#FDAD00"/>
<path fill-rule="evenodd" clip-rule="evenodd" d="M0.201172 35.9314L24.1193 3.7605L22.4029 35.9314H0.201172Z" fill="#FDAD00"/>
<path fill-rule="evenodd" clip-rule="evenodd" d="M55.0128 0.488281L22.4023 35.9313H87.6232L55.0128 0.488281Z" fill="#FEEEB7"/>
</svg>
