<svg width="100" height="100" viewBox="0 0 100 100" fill="none" xmlns="http://www.w3.org/2000/svg">
<path d="M50 100C77.6142 100 100 77.6142 100 50C100 22.3858 77.6142 0 50 0C22.3858 0 0 22.3858 0 50C0 77.6142 22.3858 100 50 100Z" fill="#039BE5"/>
<path d="M22.8788 48.9168L71.0871 30.3293C73.3246 29.521 75.2788 30.8751 74.5538 34.2585L74.558 34.2543L66.3496 72.9251C65.7413 75.6668 64.1121 76.3335 61.833 75.0418L49.333 65.8293L43.3038 71.6376C42.6371 72.3043 42.0746 72.8668 40.783 72.8668L41.6705 60.146L64.8371 39.2168C65.8455 38.3293 64.6121 37.8293 63.283 38.7126L34.6538 56.7376L22.3121 52.8876C19.633 52.0376 19.5746 50.2085 22.8788 48.9168V48.9168Z" fill="white"/>
</svg>
