<svg width="101" height="101" viewBox="0 0 101 101" fill="none" xmlns="http://www.w3.org/2000/svg">
<path d="M99.9962 74.6265C99.9962 75.1739 99.9795 76.3614 99.9466 77.2787C99.8662 79.5231 99.6882 82.4192 99.4192 83.7388C99.0148 85.7218 98.4044 87.5935 97.6085 89.1514C96.6668 90.9942 95.4656 92.645 94.0382 94.0697C92.614 95.4916 90.9648 96.6881 89.1247 97.626C87.5586 98.424 85.6752 99.0348 83.6809 99.4374C82.3745 99.7012 79.5 99.8757 77.27 99.955C76.3518 99.9878 75.1641 100.004 74.6186 100.004L25.3777 99.9964C24.8302 99.9964 23.6429 99.9796 22.7256 99.9467C20.4812 99.8662 17.5851 99.6883 16.2654 99.4193C14.2824 99.0149 12.4107 98.4045 10.8528 97.6086C9.00987 96.6668 7.35918 95.4656 5.93448 94.0383C4.5126 92.6141 3.31612 90.965 2.37832 89.1248C1.58008 87.5587 0.969336 85.6753 0.5667 83.6811C0.303027 82.3746 0.128516 79.5002 0.0491211 77.27C0.0165039 76.352 0 75.1643 0 74.6189L0.0078125 25.3778C0.0078125 24.8303 0.0245117 23.6429 0.0574219 22.7256C0.137988 20.4812 0.31582 17.5851 0.584864 16.2655C0.989258 14.2825 1.59961 12.4107 2.39561 10.8528C3.33731 9.00996 4.53858 7.35918 5.96582 5.93447C7.39004 4.5127 9.03926 3.31611 10.8794 2.37822C12.4455 1.58018 14.329 0.969434 16.3233 0.566797C17.6296 0.303027 20.5041 0.128516 22.7342 0.0492188C23.6524 0.0165039 24.8401 0 25.3855 0L74.6264 0.00791016C75.1741 0.00791016 76.3614 0.0246094 77.2787 0.0575195C79.5231 0.138086 82.4191 0.315918 83.7388 0.584961C85.7217 0.989356 87.5935 1.59971 89.1514 2.3957C90.9943 3.3374 92.645 4.53867 94.0697 5.96592C95.4915 7.39014 96.688 9.03926 97.6258 10.8795C98.4241 12.4456 99.0348 14.329 99.4375 16.3232C99.7011 17.6297 99.8755 20.5041 99.955 22.7343C99.9877 23.6524 100.004 24.8401 100.004 25.3856L99.9962 74.6265V74.6265Z" fill="#33E74B"/>
<path d="M76.4957 23.6592C69.7253 16.8832 60.7214 13.1496 51.1282 13.1458C31.3624 13.1458 15.2754 29.2266 15.2675 48.9926C15.2649 55.3109 16.9162 61.4784 20.0543 66.9147L14.9668 85.4917L33.977 80.5067C39.2149 83.3625 45.112 84.8676 51.1139 84.8702H51.1287C70.8926 84.8702 86.981 68.7874 86.989 49.0211C86.9928 39.4423 83.2663 30.4353 76.4957 23.6592V23.6592ZM51.1287 78.8156H51.1165C45.7682 78.8135 40.5225 77.3772 35.9462 74.6623L34.8577 74.0166L23.5768 76.9749L26.5879 65.9796L25.879 64.8523C22.8954 60.1082 21.3196 54.6249 21.322 48.995C21.3284 32.5664 34.6994 19.2004 51.1402 19.2004C59.1012 19.2035 66.5849 22.307 72.2124 27.9389C77.8398 33.5708 80.9372 41.0573 80.9342 49.0189C80.9278 65.4489 67.5569 78.8156 51.1287 78.8156V78.8156ZM67.4778 56.4997C66.5816 56.0513 62.1764 53.8842 61.3551 53.5853C60.5338 53.2863 59.9365 53.1369 59.3389 54.0337C58.7418 54.9304 57.0246 56.9481 56.5017 57.5458C55.9791 58.1437 55.4564 58.2185 54.5604 57.7701C53.6643 57.3217 50.7772 56.3758 47.3548 53.3242C44.6912 50.9493 42.8928 48.0157 42.3701 47.1188C41.8474 46.222 42.3145 45.7374 42.7631 45.2907C43.1661 44.8894 43.6591 44.2445 44.1071 43.7214C44.5551 43.1985 44.7045 42.8247 45.0031 42.2269C45.3018 41.6291 45.1524 41.1059 44.9284 40.6576C44.7045 40.2092 42.9124 35.8002 42.1657 34.0068C41.4385 32.2601 40.6996 32.4964 40.1496 32.469C39.6275 32.443 39.0296 32.4375 38.4323 32.4375C37.835 32.4375 36.8642 32.6617 36.043 33.5584C35.2217 34.4552 32.9069 36.6223 32.9069 41.0312C32.9069 45.4401 36.1176 49.6996 36.5656 50.2973C37.0137 50.8952 42.8839 59.9429 51.8723 63.8229C54.0102 64.7457 55.6792 65.2969 56.9805 65.7098C59.127 66.3914 61.0804 66.2953 62.6244 66.0647C64.3459 65.8076 67.9256 63.8978 68.6724 61.8054C69.4191 59.7129 69.4191 57.9196 69.1951 57.5459C68.9711 57.1723 68.3738 56.9481 67.4778 56.4997V56.4997Z" fill="white"/>
</svg>
