<svg width="439" height="100" viewBox="0 0 439 100" fill="none" xmlns="http://www.w3.org/2000/svg">
<path fill-rule="evenodd" clip-rule="evenodd" d="M175.638 78.2689L164.301 56.5169L152.706 78.2689H140.238L157.916 50.1955L142.007 22.295H154.648L164.97 43.4924L176.155 22.295H187.718L171.377 50.0227L187.977 78.2689H175.638ZM216.061 78.2689V72.1769H215.889C212.811 76.9584 208.454 79.3491 202.816 79.3491C198.473 79.3491 195.05 78.1681 192.548 75.8062C190.046 73.4155 188.795 70.2182 188.795 66.2145C188.795 57.631 193.612 52.7487 203.248 51.5677L216.148 49.7963C216.148 43.7763 213.358 40.7664 207.778 40.7663C202.457 40.7664 197.567 42.4082 193.109 45.6918V36.8778C194.777 35.8697 197.164 34.9624 200.271 34.1558C203.406 33.3493 206.253 32.9461 208.813 32.946C220.203 32.9461 225.898 38.7069 225.898 50.2284V78.2689H216.061H216.061ZM206.613 58.0054C203.65 58.3799 201.565 59.1144 200.357 60.2089C199.178 61.2747 198.588 62.9309 198.588 65.1776C198.588 67.021 199.264 68.5332 200.616 69.7142C201.968 70.8663 203.737 71.4424 205.922 71.4424C208.885 71.4424 211.33 70.4199 213.257 68.3748C215.184 66.3297 216.148 63.7806 216.148 60.7274V56.7524L206.613 58.0054ZM289.508 78.2689V53.296C289.508 49.1771 288.861 46.1238 287.567 44.1364C286.301 42.1201 284.029 41.112 280.75 41.1119C278.132 41.112 275.932 42.3217 274.149 44.7412C272.366 47.132 271.474 50.0268 271.474 53.4256V78.2689H261.508V52.4319C261.508 44.8853 258.617 41.112 252.836 41.1119C250.133 41.112 247.903 42.2497 246.149 44.5252C244.423 46.8008 243.56 49.7675 243.56 53.4256V78.2689H233.594V34.0262H243.56V40.8527H243.733C246.926 35.5817 251.585 32.9461 257.712 32.946C260.645 32.9461 263.234 33.7238 265.477 35.2792C267.749 36.8058 269.346 38.9229 270.266 41.6304C273.631 35.8409 278.578 32.9461 285.107 32.946C294.714 32.9461 299.517 38.9373 299.517 50.9197V78.2689H289.508ZM332.65 78.2689V72.1769H332.477C329.399 76.9584 325.042 79.3491 319.404 79.3491C315.061 79.3491 311.639 78.1681 309.136 75.8062C306.634 73.4155 305.383 70.2182 305.383 66.2145C305.383 57.631 310.201 52.7487 319.836 51.5677L332.736 49.7963C332.736 43.7763 329.946 40.7664 324.366 40.7663C319.045 40.7664 314.155 42.4082 309.697 45.6918V36.8778C311.366 35.8697 313.753 34.9624 316.859 34.1558C319.994 33.3493 322.842 32.9461 325.401 32.946C336.791 32.9461 342.486 38.7069 342.486 50.2284V78.2689H332.649H332.65ZM323.201 58.0054C320.239 58.3799 318.153 59.1144 316.945 60.2089C315.766 61.2747 315.176 62.9309 315.176 65.1776C315.176 67.021 315.852 68.5332 317.204 69.7142C318.556 70.8663 320.325 71.4424 322.511 71.4424C325.473 71.4424 327.918 70.4199 329.845 68.3748C331.772 66.3297 332.736 63.7806 332.736 60.7274V56.7524L323.201 58.0054ZM375.87 43.7475C374.23 42.7394 372.303 42.2353 370.089 42.2353C367.212 42.2353 364.868 43.4739 363.056 45.951C361.273 48.4282 360.381 51.6542 360.381 55.6291V78.2689H350.415V34.0262H360.381V42.6241H360.554C362.682 36.3738 366.45 33.2485 371.858 33.2485C373.612 33.2485 374.949 33.4501 375.87 33.8534V43.7475H375.87ZM385.791 24.1321C384.094 24.1321 382.656 23.5849 381.477 22.4902C380.297 21.367 379.708 19.9988 379.708 18.3857C379.708 16.7151 380.297 15.3181 381.477 14.1948C382.656 13.0714 384.094 12.5098 385.791 12.5097C387.517 12.5098 388.969 13.0859 390.149 14.238C391.328 15.3614 391.917 16.7439 391.917 18.3857C391.917 19.9988 391.328 21.367 390.149 22.4902C388.969 23.5849 387.517 24.1321 385.791 24.1321ZM380.7 78.2689V34.0262H390.666V78.2689H380.7ZM428.332 78.2689V53.4256C428.332 45.2165 425.384 41.112 419.488 41.1119C416.525 41.112 414.038 42.2497 412.024 44.5252C410.04 46.7719 409.047 49.6379 409.047 53.1231V78.2689H399.081V34.0262H409.047V41.1119H409.22C412.441 35.6681 417.216 32.9461 423.543 32.946C433.38 32.9461 438.298 38.9949 438.299 51.0925V78.2689H428.332H428.332ZM32.3419 0C29.3146 0.00643681 26.3513 1.72944 24.8274 4.35794L1.12516 45.642C-0.375052 48.2776 -0.375052 51.7224 1.12516 54.358L24.8274 95.6421C26.3515 98.2706 29.3146 99.9941 32.3419 100H79.7461C82.7734 99.9936 85.7365 98.2706 87.2606 95.6421L110.963 54.358C112.463 51.7224 112.463 48.2776 110.963 45.642L87.2606 4.35794C85.7365 1.72944 82.7734 0.00595407 79.7461 0H32.3419ZM32.7721 24.1517C32.8372 24.1453 32.9055 24.1453 32.9708 24.1517H41.1473C41.5093 24.1592 41.8604 24.3689 42.0411 24.684L55.9116 49.4677C55.9814 49.5903 56.0264 49.7268 56.0434 49.8669C56.0605 49.7268 56.1055 49.5902 56.1753 49.4677L70.0126 24.684C70.1991 24.3594 70.5666 24.1485 70.9394 24.1517H79.1159C79.84 24.1581 80.3822 25.0725 80.0429 25.7152L66.5036 50L80.0429 74.2515C80.4143 74.8979 79.8587 75.8547 79.1159 75.8483H70.9394C70.5601 75.8451 70.1904 75.6196 70.0126 75.2828L56.1753 50.499C56.1055 50.3765 56.0605 50.2399 56.0434 50.0998C56.0264 50.24 55.9814 50.3765 55.9116 50.499L42.0411 75.2828C41.8686 75.6101 41.5156 75.8334 41.1473 75.8483H32.9708C32.228 75.8547 31.6726 74.8979 32.044 74.2515L45.5833 50L32.044 25.7152C31.7195 25.1289 32.1154 24.2769 32.7721 24.1517Z" fill="#3498DB"/>
</svg>
