<svg width="270" height="56" viewBox="0 0 270 56" fill="none" xmlns="http://www.w3.org/2000/svg">
<path d="M28.0233 54.2862C13.4795 54.2862 1.72311 42.5124 1.72311 28.0051C1.72311 13.4794 13.4795 1.71377 28.0233 1.71377C42.5415 1.71377 54.303 13.4774 54.303 28.0051C54.303 42.5124 42.5425 54.2862 28.0233 54.2862ZM28.0233 0C12.549 0 0 12.5465 0 28.0071C0 43.4657 12.548 56 28.0233 56C43.4802 56 56.0271 43.4657 56.0271 28.0071C56.0271 12.5465 43.4812 0 28.0233 0V0Z" fill="#78BE20"/>
<path d="M3.87891 27.8267C13.4403 30.8316 22.4583 40.1547 25.1864 52.0725C11.7468 50.324 3.90955 39.2861 3.87891 27.8267Z" fill="#78BE20"/>
<path d="M52.035 27.8267C42.4757 30.8316 33.3443 40.1547 30.7285 52.0725C44.1671 50.324 52.0044 39.2861 52.035 27.8267Z" fill="#78BE20"/>
<path d="M27.9863 52.0729C17.7937 36.351 19.9948 14.7855 27.9965 3.1709C35.6254 14.7845 38.0145 36.3469 27.9863 52.0729Z" fill="#78BE20"/>
<path d="M80.8839 2.99992V11.6742H69.6983V2.99992H64V24.9999H69.6983V15.9799H80.8839V24.9999H86.5823V2.99992H80.8839Z" fill="black"/>
<path d="M98.071 20.9142V15.8228H109.503V11.8628H98.071V7.08564H111.015V2.99992H92.4078V24.9999H111.473V20.9142H98.071Z" fill="black"/>
<path d="M159.952 13.5599C161.957 12.6171 163.224 10.9199 163.224 8.71992C163.224 5.29421 160.058 2.99992 153.902 2.99992H141.873V24.9999H154.606C161.078 24.9999 164.455 22.7999 164.455 18.9971C164.455 16.2314 162.696 14.3456 159.952 13.5599ZM153.199 6.8342C155.978 6.8342 157.49 7.68278 157.49 9.41135C157.49 11.1399 155.978 12.0199 153.199 12.0199H147.536V6.8342H153.199ZM154.184 21.1656H147.536V15.7285H154.184C157.138 15.7285 158.721 16.6085 158.721 18.4628C158.721 20.3485 157.138 21.1656 154.184 21.1656Z" fill="black"/>
<path d="M187.165 24.9999H193.145L182.135 2.99992H176.507L165.533 24.9999H171.372L173.553 20.2856H184.985L187.165 24.9999ZM175.382 16.4199L179.286 7.99706L183.191 16.4199H175.382Z" fill="black"/>
<path d="M195.7 24.9999H213.744V20.8513H201.398V2.99992H195.7V24.9999Z" fill="black"/>
<path d="M216.928 24.9999H222.627V2.99992H216.928V24.9999Z" fill="black"/>
<path d="M247.078 7.08564V2.99992H228.47V24.9999H234.168V16.9856H245.565V12.8999H234.168V7.08564H247.078Z" fill="black"/>
<path d="M256.598 20.9142V15.8228H268.03V11.8628H256.598V7.08564H269.543V2.99992H250.935V24.9999H270V20.9142H256.598Z" fill="black"/>
<path fill-rule="evenodd" clip-rule="evenodd" d="M134.486 14.5965C137.73 15.6137 138.352 18.0094 138.486 20.6809C138.556 22.091 138.651 23.4973 139.5 24.8275C138.931 25.0938 138.396 24.9662 137.893 24.9755C136.666 24.9981 135.439 24.9917 134.213 24.9804C133.077 24.9696 132.976 24.9093 132.733 23.8526C132.574 23.1652 132.499 22.4596 132.396 21.7608C132.28 20.9682 132.225 20.1641 132.053 19.3828C131.67 17.6334 130.704 16.76 128.87 16.5503C126.475 16.2765 124.066 16.4842 121.665 16.4275C121.025 16.4127 120.981 16.7912 120.983 17.2594C120.992 19.3332 120.987 21.4074 120.987 23.4812C120.987 23.8111 120.994 24.1416 120.976 24.471C120.958 24.7992 120.772 24.9784 120.416 24.9781C118.649 24.9764 116.883 24.9773 115.117 24.9749C114.692 24.9743 114.502 24.7517 114.504 24.3546C114.506 24.0717 114.5 23.789 114.5 23.5061C114.5 17.19 114.5 10.8735 114.5 4.55742C114.5 4.2275 114.509 3.89759 114.509 3.56767C114.509 3.14954 114.732 2.97808 115.155 2.99988C115.4 3.01234 115.646 3.00016 115.891 3.00016C120.7 2.99988 125.508 2.99846 130.317 3.00073C132.109 3.00158 133.831 3.33291 135.418 4.14481C138.052 5.49279 139.175 7.78619 138.605 10.4997C138.316 11.8761 137.508 12.8977 136.315 13.6502C135.827 13.9579 135.285 14.1868 134.486 14.5965ZM125.251 12.8257C126.572 12.8257 127.893 12.8367 129.214 12.817C129.501 12.8126 129.79 12.71 130.071 12.6317C131.728 12.1704 132.531 10.9285 132.235 9.297C131.979 7.88743 130.989 7.02597 129.205 6.95078C126.712 6.84572 124.212 6.8916 121.716 6.85266C121.115 6.84332 120.973 7.11758 120.98 7.632C121 9.13728 121.015 10.6434 120.974 12.1479C120.956 12.8234 121.298 12.917 121.872 12.9048C122.998 12.8808 124.125 12.8976 125.251 12.8976C125.251 12.8738 125.251 12.8497 125.251 12.8257Z" fill="black"/>
<path d="M81.4268 28.3978V42.4862L68.8448 28.3978H64V51.6022H69.7848V37.5138L82.403 51.6022H87.2116V28.3978H81.4268Z" fill="#78BE20"/>
<path d="M104.444 52C111.639 52 115.905 48.221 115.905 41.3923V28.3978H110.12V41.1934C110.12 45.6022 108.059 47.4254 104.48 47.4254C100.937 47.4254 98.8397 45.6022 98.8397 41.1934V28.3978H92.9826V41.3923C92.9826 48.221 97.2489 52 104.444 52Z" fill="#78BE20"/>
<path d="M126.512 51.6022H132.369V32.7735H140.468V28.3978H118.413V32.7735H126.512V51.6022Z" fill="#78BE20"/>
<path d="M170.206 51.6022H176.063V28.3978H170.206V51.6022Z" fill="#78BE20"/>
<path d="M187.312 51.6022H193.169V32.7735H201.268V28.3978H179.213V32.7735H187.312V51.6022Z" fill="#78BE20"/>
<path d="M204.419 51.6022H210.276V28.3978H204.419V51.6022Z" fill="#78BE20"/>
<path d="M228.539 52C236.493 52 242.387 46.9282 242.387 40C242.387 33.0718 236.493 28 228.539 28C220.549 28 214.692 33.105 214.692 40C214.692 46.895 220.549 52 228.539 52ZM228.539 47.4254C224.02 47.4254 220.621 44.4088 220.621 40C220.621 35.5912 224.02 32.5746 228.539 32.5746C233.058 32.5746 236.457 35.5912 236.457 40C236.457 44.4088 233.058 47.4254 228.539 47.4254Z" fill="#78BE20"/>
<path d="M264.215 28.3978V42.4862L251.633 28.3978H246.788V51.6022H252.573V37.5138L265.191 51.6022H270V28.3978H264.215Z" fill="#78BE20"/>
<path fill-rule="evenodd" clip-rule="evenodd" d="M161.687 41.0486C164.801 42.1583 165.398 44.7718 165.526 47.6861C165.594 49.2245 165.685 49.7586 166.5 51.2097C165.954 51.5002 165.44 51.3611 164.957 51.3711C163.78 51.3958 162.602 51.3889 161.424 51.3765C160.334 51.3648 160.237 51.299 160.004 50.1462C159.851 49.3963 159.779 49.6266 159.681 48.8643C159.569 47.9996 159.516 47.1223 159.352 46.27C158.983 44.3616 158.057 43.4088 156.295 43.18C153.997 42.8813 151.684 43.1079 149.378 43.0461C148.764 43.0299 148.722 43.4428 148.724 43.9536C148.733 46.2159 148.728 48.4787 148.728 50.741C148.728 51.1009 148.734 50.4615 148.717 50.8208C148.7 51.1788 148.521 51.3744 148.179 51.3741C146.484 51.3722 144.788 51.3731 143.092 51.3705C142.684 51.3699 142.502 51.1271 142.504 50.6938C142.506 50.3852 142.5 50.0768 142.5 49.7682C142.5 42.8779 142.5 36.9872 142.5 30.0969C142.5 29.737 142.509 29.3771 142.509 29.0172C142.509 28.561 142.723 28.374 143.129 28.3978C143.364 28.4114 143.6 28.3981 143.836 28.3981C148.452 28.3978 153.068 28.3962 157.685 28.3987C159.405 28.3996 161.058 28.7611 162.582 29.6468C165.111 31.1173 166.189 33.6192 165.641 36.5794C165.364 38.081 164.588 39.1954 163.443 40.0163C162.974 40.3519 162.454 40.6017 161.687 41.0486ZM152.821 39.1168C154.09 39.1168 155.358 39.1289 156.626 39.1074C156.901 39.1026 157.179 38.9906 157.449 38.9052C159.039 38.4019 159.81 37.0471 159.526 35.2674C159.281 33.7296 158.33 32.7899 156.617 32.7078C154.224 32.5932 151.824 32.6433 149.428 32.6008C148.851 32.5906 148.715 32.8898 148.721 33.451C148.741 35.0931 148.755 36.7362 148.716 38.3774C148.698 39.1143 149.027 39.2164 149.577 39.2032C150.658 39.1769 151.74 39.1953 152.821 39.1953C152.821 39.1693 152.821 39.1431 152.821 39.1168Z" fill="#78BE20"/>
</svg>
