<svg width="93" height="93" viewBox="0 0 93 93" fill="none" xmlns="http://www.w3.org/2000/svg">
<path d="M79.0971 58.3154H14.3008V17.4254H79.0971V58.3154Z" fill="white"/>
<path d="M22.6764 91.6523V87.1616H16.6607V91.6523H14.6875V81.4818H16.6607V85.6819H22.6764V81.4818H24.6486V91.6523H22.6764Z" fill="#FF3300"/>
<path d="M32.481 82.9482L30.1011 87.823H34.8486L32.481 82.9482ZM36.7227 91.6523L35.5393 89.2168H29.3962L28.1987 91.6523H26.085L31.3684 81.4817H33.7068L38.9619 91.6523H36.7227Z" fill="#FF3300"/>
<path d="M45.3017 82.9057H42.3717V85.9207H45.3017C46.8653 85.9207 47.5268 85.497 47.5268 84.3967C47.5268 83.3417 46.8653 82.9057 45.3017 82.9057ZM47.8948 91.6523C47.7665 91.105 47.64 90.3464 47.5268 89.9066L47.2182 88.6544C46.9219 87.4843 46.4991 87.3456 44.9921 87.3456H42.3717V91.6523H40.3994V81.4818H45.7669C48.4289 81.4818 49.5566 82.5556 49.5566 84.2155C49.5566 86.032 47.5834 86.5529 47.1201 86.6218C48.3449 86.7237 49.0206 87.0634 49.2886 88.6393L49.6547 90.3841C49.7538 90.9352 49.8944 91.457 49.9925 91.6523H47.8948V91.6523Z" fill="#FF3300"/>
<path d="M64.3478 91.6523V82.7632L60.193 91.6523H58.0368L53.88 82.7632V91.6523H52.1201V81.4818H55.2474L59.2069 90.0199L63.1513 81.4818H66.2644V91.6523H64.3478Z" fill="#FF3300"/>
<path d="M74.0991 82.9482L71.7164 87.823H76.4639L74.0991 82.9482V82.9482ZM78.3389 91.6523L77.1528 89.2168H71.0115L69.8141 91.6523H67.7031L72.9828 81.4817H75.324L80.5763 91.6523H78.3389Z" fill="#FF3300"/>
<path d="M89.5252 91.6523L83.7916 83.2284V91.6523H82.0166V81.4818H84.7201L90.4528 89.9066V81.4818H92.2287V91.6523H89.5252Z" fill="#FF3300"/>
<path d="M2.70906 88.03C1.84846 88.03 1.27849 88.582 1.27849 89.5068C1.27849 90.4297 1.80788 90.9581 2.70906 90.9581C3.58665 90.9581 4.13868 90.3835 4.13868 89.4889C4.13868 88.582 3.61779 88.03 2.70906 88.03V88.03ZM2.9931 91.6328C2.07587 91.6328 1.55593 91.3101 1.24736 90.8902C1.24736 91.0157 1.21621 91.3733 1.20772 91.4819H0.219727C0.228219 91.2686 0.251807 90.8166 0.251807 90.642V85.7785H1.27849V88.1338C1.65878 87.6978 2.15609 87.3657 3.00254 87.3657C4.20946 87.3657 5.222 88.1102 5.222 89.4832C5.222 90.7958 4.20285 91.6328 2.9931 91.6328" fill="#FF3300"/>
<path d="M8.09883 93H6.9674L7.8063 91.4893L5.64062 87.5165H6.82585L8.37532 90.6202L9.83703 87.5165H10.9269L8.09883 93V93Z" fill="#FF3300"/>
<path d="M76.3041 53.8229H60.4735V22.0031H65.6975V49.2311C65.6975 50.7173 66.9054 51.9252 68.3897 51.9252C69.8769 51.9252 71.0819 50.7173 71.0819 49.2311L71.0791 43.691H76.3041V53.8229ZM56.6725 32.6097C56.6725 34.1931 55.2872 37.0024 53.231 37.0024C55.2872 37.0024 56.6725 38.7821 56.6725 40.1296V49.667C56.6725 51.2891 55.3674 53.8229 51.4494 53.8229H41.0014V22.0031H51.4494C53.4669 22.0031 56.6725 23.6659 56.6725 27.1875V32.6097V32.6097ZM37.0437 48.2818C37.0437 51.4505 34.9866 54.2965 29.1275 54.2965C23.2703 54.2965 21.2131 50.5767 21.2131 48.2818V43.691H26.4362L26.4391 49.2311C26.4391 50.7173 27.646 51.9252 29.1313 51.9252C30.6175 51.9252 31.8207 50.6796 31.8207 49.1934L31.8197 22.0031H37.0437V48.2818V48.2818ZM23.8251 34.1771C25.4935 34.1771 26.8467 35.5294 26.8467 37.2015C26.8467 38.8699 25.4935 40.224 23.8251 40.224C22.1549 40.224 20.8026 38.8699 20.8026 37.2015C20.8026 35.5294 22.1549 34.1771 23.8251 34.1771ZM28.6538 22.0031L23.8251 33.0042L18.9965 22.0031H28.6538V22.0031ZM0 75.9844H92.4489V0.000147285H0V75.9844V75.9844ZM49.0752 25.0105H46.2254V35.6954L49.0752 35.7049C50.9747 35.7049 51.4494 35.3793 51.4494 30.3941C51.4494 25.4078 50.9747 25.0105 49.0752 25.0105V25.0105ZM49.3913 38.3905H46.2254V51.2099L49.3913 51.2174C51.4494 51.2174 51.4494 49.8237 51.4494 44.8394C51.4494 39.8513 51.4494 38.3905 49.3913 38.3905" fill="#FF3300"/>
</svg>
