<svg width="1390" height="1451" viewBox="0 0 1390 1451" fill="none" xmlns="http://www.w3.org/2000/svg">
<path d="M336.673 337.116C401.702 463.885 420.807 530.32 422.231 547.692C434.772 694.528 367.294 756.455 304.554 829.495C241.814 902.536 14.5352 911.679 80.099 1121.78C132.55 1289.87 372.455 1329.24 485.851 1327.91C517.371 1334.49 631.36 1329.24 835.153 1255.63C1038.95 1182.01 1198.64 977.787 1253.01 884.876C1300.13 802.465 1412.8 616.73 1367 438C1309.75 214.588 1163.62 116.054 948.233 44.9557C732.85 -26.143 537.887 54.7821 500.638 64.9066C463.389 75.0311 255.387 178.655 336.673 337.116Z" fill="#FF5600" fill-opacity="0.2"/>
<path d="M159 442.5C156.451 431.705 151.5 427.5 144.5 428C137.501 428.5 132.306 437.422 134.302 441C136.918 445.688 142.239 442.74 141.499 452C140.903 459.463 144.5 470.5 153.5 466C161.636 461.932 160.906 450.571 159 442.5Z" stroke="#FF5600" stroke-width="5"/>
<path fill-rule="evenodd" clip-rule="evenodd" d="M341.933 670.529C340.099 653.196 319.433 587.229 251.433 462.029C166.433 305.529 308.886 188.197 341.933 168.25C414 124.75 624 84.987 855.933 155.529C1072.93 221.529 1215.5 299.25 1278 521.25C1328 698.85 1225.6 904.529 1180.43 988.029C1128.27 1082.2 973.433 1290.13 771.433 1368.53C569.433 1446.93 455.6 1454.86 423.933 1449.03C310.6 1453.03 69.8331 1419.33 13.4331 1252.53C-36.2446 1105.61 61.7953 1055.02 145.384 1011.88C180.42 993.802 212.917 977.033 230.933 955.029C236.162 948.644 241.427 942.339 246.674 936.056C302.644 869.034 356.561 804.472 341.933 670.529ZM120.669 512.25C175.187 512.25 252.269 562.135 274.669 657.735C297.494 755.146 270.511 841.62 199.649 911.25C173.051 937.386 120.669 966.235 120.669 966.235C97.0026 980.402 63.924 976.474 42.5002 954.75C13.2494 925.089 33.5375 887.839 56.5796 845.533C72.7688 815.808 90.3174 783.588 92.9997 749.75C98.4825 680.582 85.8096 659.452 67.9161 629.616C64.5965 624.081 61.0971 618.247 57.5007 611.75C39.9628 580.069 66.1511 512.25 120.669 512.25Z" fill="#C4C4C4"/>
<path d="M1081 156C1213.5 209.333 1535 384.5 1301.5 1000" stroke="#FF5600" stroke-width="5" stroke-linecap="round" stroke-linejoin="round"/>
<path fill-rule="evenodd" clip-rule="evenodd" d="M1002.15 143.757L1014.63 149.176L1019.14 168.083L1038.75 176.598L1044.94 162.335C1048.88 164.046 1053.46 162.239 1055.17 158.301L1058.26 151.169L1061.83 152.718L1064.93 145.586L1061.36 144.038L1064.46 136.907C1066.17 132.969 1064.36 128.39 1060.42 126.679L1066.62 112.416L1047 103.901L1030.11 113.52L1017.63 108.101C1006.38 103.214 989.712 104.086 984.934 115.091C980.155 126.097 990.899 138.871 1002.15 143.757ZM1054.23 140.942L1057.33 133.81L1014.54 115.232C1006.72 111.837 994.546 112.474 992.065 118.187C989.584 123.901 997.43 133.231 1005.25 136.625L1048.04 155.204L1051.13 148.073L1029.74 138.784L1032.84 131.652L1054.23 140.942ZM1025.8 162.5L1023.55 153.046L1037.81 159.239L1034.71 166.37L1025.8 162.5ZM1053.29 123.583L1039.03 117.39L1047.47 112.581L1056.39 116.451L1053.29 123.583ZM1020.59 130.573C1018.88 134.512 1014.3 136.318 1010.36 134.608C1006.42 132.898 1004.62 128.319 1006.33 124.381C1008.04 120.442 1012.62 118.636 1016.56 120.346C1020.49 122.056 1022.3 126.635 1020.59 130.573Z" fill="#FF5600"/>
<circle cx="1310" cy="1098" r="24.5" stroke="#FF5600" stroke-width="5"/>
<circle cx="1230" cy="1118" r="24.5" stroke="#FF5600" stroke-width="5"/>
<circle cx="1242.5" cy="1037.5" r="12" stroke="#FF5600" stroke-width="5"/>
</svg>
