<svg width="222" height="169" viewBox="0 0 222 169" fill="none" xmlns="http://www.w3.org/2000/svg">
<path d="M177.648 107.93C176.031 105.857 173.088 91.1799 177.233 83.5928C175.99 84.6707 175.782 84.6293 175.782 84.6293L175.285 84.422L173.668 83.8001L171.72 86.0804L171.347 87.4485L170.891 90.3093L170.518 93.0041L170.145 95.6161L169.855 98.5183L169.772 101.586V103.867L170.186 104.903L172.093 106.023L174.58 106.727L177.648 107.93Z" fill="#E7EAF3"/>
<path d="M197.378 94.6209C197.254 93.7088 197.171 88.858 201.523 84.3803C201.274 83.2195 200.86 81.644 200.86 81.644L201.565 81.0221L201.44 80.1929L200.57 77.8297L199.368 75.5909L197.668 73.1033L196.383 71.6522L195.098 69.7865L194.021 69.2061L194.601 70.1182L196.052 74.2641L196.715 79.2808L196.549 83.5926L196.217 88.0703L195.554 92.2162L196.01 93.004L197.378 94.6209Z" fill="#E7EAF3"/>
<path d="M201.813 164.149V167.963H213.295V166.305L205.461 163.942" stroke="#1E2022" stroke-linecap="round" stroke-linejoin="round"/>
<path d="M153.482 162.822V165.227L154.726 166.554H157.71L158.829 168.295H151.161L148.259 163.61L150.125 161.081" stroke="#1E2022" stroke-linecap="round" stroke-linejoin="round"/>
<path d="M192.031 106.727C192.031 106.727 206.414 128.245 207.658 132.888C208.901 137.532 205.834 164.19 205.834 164.19H201.606C201.606 164.19 198.414 144.994 199.326 138.236C196.135 136.288 182.249 127.457 181.088 122.896" fill="#1E2022"/>
<path d="M169.813 104.323L166.414 135.044L149.875 160.957L153.482 163.32L177.938 136.62C177.938 136.62 190.663 110.044 191.989 106.769C189.461 107.598 174.414 109.132 169.813 104.323Z" fill="#1E2022"/>
<path opacity="0.05" d="M169.813 104.323L166.414 135.044L149.875 160.957L153.482 163.32L177.938 136.62C177.938 136.62 190.663 110.044 191.989 106.769C189.461 107.598 174.414 109.132 169.813 104.323Z" fill="white"/>
<path d="M169.896 117.548H135.907V135.708H169.896V117.548Z" fill="#FF5600"/>
<path d="M155.803 113.444C158.166 115.019 158.787 118.212 157.212 120.575C155.637 122.938 152.445 123.56 150.083 121.985C147.72 120.409 147.098 117.217 148.673 114.854C149.212 114.066 149.917 113.444 150.787 113.029" stroke="#FF5600" stroke-width="6" stroke-miterlimit="10"/>
<path d="M167.036 79.0322C165.046 81.1881 159.077 87.5315 157.295 91.3043C155.264 95.6991 154.559 100.964 153.855 103.411C152.943 106.562 150.58 110.251 150.58 112.242C150.58 113.319 151.824 115.019 152.736 115.019C153.647 115.019 155.886 114.853 156.383 111.62C157.171 106.52 160.487 98.394 161.855 96.6941C163.015 95.2845 170.808 86.9925 173.668 83.8001" stroke="#1E2022" stroke-width="0.5" stroke-miterlimit="10"/>
<path d="M193.109 68.2524C197.13 70.8644 202.477 80.1929 201.316 81.2708C200.694 81.8513 198.622 82.8463 196.466 83.634" stroke="#1E2022" stroke-width="0.5" stroke-miterlimit="10"/>
<path d="M190.663 66.2212C201.979 72.3987 193.938 100.343 192.073 106.727C188.467 108.344 171.264 107.722 169.855 104.281C169.606 102.374 169.897 94.3309 171.637 86.039" stroke="#1E2022" stroke-width="0.5" stroke-miterlimit="10" stroke-linecap="round"/>
<path d="M179.762 67.7965C181.295 66.3869 182.995 65.4748 184.985 65.1846" stroke="#1E2022" stroke-width="0.5" stroke-miterlimit="10"/>
<path d="M188.342 64.1065C188.549 64.148 188.798 64.1894 189.046 64.1894C192.114 64.1894 194.642 60.2922 194.642 55.4414C194.642 54.5293 194.559 53.6172 194.352 52.7051" stroke="#1E2022" stroke-width="0.5" stroke-linecap="round" stroke-linejoin="round"/>
<path d="M192.86 51.959C193.274 51.5444 193.523 51.0054 193.565 50.3835C193.855 50.881 194.269 52.2907 194.352 52.7467C194.684 52.3321 195.347 51.5858 195.347 50.3006C195.347 47.6886 193.274 45.4498 188.839 45.4498C186.932 45.4498 182.373 46.9838 180.466 46.9838C175.119 46.9838 175.243 45.0767 169.813 45.0767C166.953 45.0767 163.761 46.9423 160.114 48.5178C156.342 50.1348 151.368 49.886 151.368 56.6854C151.368 58.9657 152.072 66.387 159.948 66.387C165.668 66.387 171.223 61.246 176.528 61.246C178.725 61.246 180.383 61.8264 182.249 61.8264C183.409 61.8264 184.736 61.6191 185.109 61.246V58.0121C185.109 58.0121 184.86 58.2194 183.948 58.2194C183.616 58.2194 183.326 57.9707 183.202 57.4317" stroke="#1E2022" stroke-width="0.5" stroke-linecap="round" stroke-linejoin="round"/>
<path d="M180.093 67.9209C183.492 69.9939 177.855 84.9609 175.99 84.6707C174.083 84.3804 166.663 79.9857 166.663 78.12C166.622 76.2958 176.529 65.765 180.093 67.9209Z" stroke="#1E2022" stroke-width="0.5" stroke-miterlimit="10"/>
<path d="M195.513 92.1334C195.969 93.0455 196.508 93.9161 197.005 94.2893C203.015 99.0986 214.331 104.447 215.119 104.779C215.616 104.986 216.445 105.608 216.984 106.064C217.399 107.266 218.767 107.888 219.969 107.473C221.171 107.059 221.792 105.691 221.378 104.488C221.046 103.576 220.217 102.996 219.264 102.954C218.891 102.83 218.145 102.623 216.735 101.876C215.326 101.13 204.176 92.009 202.228 90.9725C202.269 88.0703 201.316 83.1781 200.86 81.644" stroke="#1E2022" stroke-width="0.5" stroke-miterlimit="10"/>
<path d="M184.984 65.1846V68.6672C184.984 69.0403 186.601 69.2062 187.306 69.2062" stroke="#1E2022" stroke-width="0.5" stroke-linecap="round" stroke-linejoin="round"/>
<path d="M184.984 61.2456V65.1843" stroke="#1E2022" stroke-width="0.5" stroke-linecap="round" stroke-linejoin="round"/>
<path d="M190.58 63.9409V66.1797" stroke="#1E2022" stroke-width="0.5" stroke-miterlimit="10" stroke-linecap="round"/>
<path d="M190.882 55.1794C190.932 54.8859 190.771 54.6139 190.523 54.5718C190.274 54.5298 190.033 54.7337 189.983 55.0272C189.933 55.3207 190.094 55.5927 190.343 55.6347C190.591 55.6767 190.832 55.4729 190.882 55.1794Z" fill="#1E2022"/>
<path d="M190.166 59.3804C190.332 59.8364 190.705 60.1681 191.161 60.2925" stroke="#1E2022" stroke-width="0.5" stroke-linecap="round" stroke-linejoin="round"/>
<path d="M90.3132 121.256L111.518 121.112C111.412 114.651 108.992 108.442 104.699 103.613C102.006 100.521 98.5952 98.1354 94.7672 96.666C90.9382 95.1967 86.8082 94.6881 82.7372 95.1847C81.7002 95.2921 80.6712 95.4584 79.6532 95.6827H79.5952L85.3422 121.236L90.3132 121.256Z" fill="#BDC5D1"/>
<path d="M96.8348 146.225C100.844 144.36 104.289 141.47 106.823 137.848C109.358 134.226 110.891 129.999 111.269 125.594C111.269 125.326 111.326 125.058 111.346 124.789C111.365 124.521 111.346 124.445 111.346 124.272C111.346 123.765 111.346 123.257 111.394 122.73V122.663V122.596L90.1788 122.73H85.1978L79.6138 148.294C81.4198 148.684 83.2638 148.874 85.1118 148.859C89.1658 148.856 93.1698 147.956 96.8348 146.225Z" fill="#D0D4DA"/>
<path d="M82.6801 121.906L76.9331 96.3525C71.1181 97.6639 65.9241 100.92 62.2091 105.582C58.4941 110.244 56.4801 116.033 56.5001 121.995C56.5201 127.956 58.5731 133.732 62.3191 138.369C66.0661 143.006 71.2811 146.226 77.1051 147.498L82.6801 121.935" fill="#E8E8E8"/>
<path d="M41.3136 142.788H16.6096C16.1106 142.788 15.7061 143.193 15.7061 143.692C15.7061 144.191 16.1106 144.595 16.6096 144.595H41.3136C41.8125 144.595 42.2171 144.191 42.2171 143.692C42.2171 143.193 41.8125 142.788 41.3136 142.788Z" fill="#FF5600"/>
<path d="M41.3136 138H16.6096C16.1106 138 15.7061 138.405 15.7061 138.904V138.904C15.7061 139.403 16.1106 139.807 16.6096 139.807H41.3136C41.8125 139.807 42.2171 139.403 42.2171 138.904C42.2171 138.405 41.8125 138 41.3136 138Z" fill="#FF5600"/>
<path d="M41.1075 147.493H16.4035C15.9045 147.493 15.5 147.898 15.5 148.397C15.5 148.896 15.9045 149.3 16.4035 149.3H41.1075C41.6065 149.3 42.011 148.896 42.011 148.397C42.011 147.898 41.6065 147.493 41.1075 147.493Z" fill="#FF5600"/>
<path d="M71.5 135L45.5 154.5H15" stroke="black" stroke-width="0.2"/>
<path d="M18.4314 11.1411H12.4932V64.7201H18.4314V11.1411Z" fill="#E8E8E8"/>
<path d="M29.887 29.3389H23.9487V64.7199H29.887V29.3389Z" fill="#E8E8E8"/>
<path d="M41.342 17.7969H35.4038V64.9869H41.342V17.7969Z" fill="#E8E8E8"/>
<path d="M52.8064 13.209H46.8682V64.719H52.8064V13.209Z" fill="#E8E8E8"/>
<path d="M64.2619 30.4312H58.3237V64.7191H64.2619V30.4312Z" fill="#E8E8E8"/>
<path d="M75.717 37.1538H69.7788V64.7188H75.717V37.1538Z" fill="#E8E8E8"/>
<path d="M87.1717 16.6382H81.2334V64.7192H87.1717V16.6382Z" fill="#E8E8E8"/>
<path d="M98.627 25.3062H92.6885V64.7191H98.627V25.3062Z" fill="#E8E8E8"/>
<path d="M110.092 18.3809H104.154V64.7179H110.092V18.3809Z" fill="#E8E8E8"/>
<path d="M121.547 33.1499H115.608V64.7189H121.547V33.1499Z" fill="#E8E8E8"/>
<path d="M133.002 27.146H127.063V64.719H133.002V27.146Z" fill="#BDC5D1"/>
<path d="M15.3667 47.0579C21.1134 41.4709 25.4235 32.6909 38.8324 32.6909C56.0726 32.6909 57.5092 53.2829 71.876 53.2829C80.0356 53.2829 90.5528 39.3959 95.8208 39.3959" stroke="#FF5600"/>
<path d="M1 3V71.96H141.794" stroke="#A6A6A6" stroke-width="0.5"/>
<path d="M142 0.592719C142 0.265358 143.011 0 144.257 0H215.743C216.99 0 218 0.265358 218 0.592719V25.684C218 26.0113 216.99 26.2767 215.743 26.2767H144.257C143.011 26.2767 142 26.0113 142 25.684V0.592719Z" fill="#E8E8E8"/>
<path d="M192.881 7.54004H175.094C174.424 7.54004 173.881 8.08301 173.881 8.75281C173.881 9.4226 174.424 9.96557 175.094 9.96557H192.881C193.551 9.96557 194.094 9.4226 194.094 8.75281C194.094 8.08301 193.551 7.54004 192.881 7.54004Z" fill="white"/>
<path d="M213.345 13.0269H174.514C174.164 13.0269 173.881 13.3103 173.881 13.66C173.881 14.0096 174.164 14.2931 174.514 14.2931H213.345C213.694 14.2931 213.978 14.0096 213.978 13.66C213.978 13.3103 213.694 13.0269 213.345 13.0269Z" fill="white"/>
<path d="M213.767 15.5591H174.514C174.164 15.5591 173.881 15.8425 173.881 16.1922C173.881 16.5419 174.164 16.8253 174.514 16.8253H213.767C214.117 16.8253 214.4 16.5419 214.4 16.1922C214.4 15.8425 214.117 15.5591 213.767 15.5591Z" fill="white"/>
<path d="M213.767 18.936H174.514C174.164 18.936 173.881 19.2195 173.881 19.5691C173.881 19.9188 174.164 20.2023 174.514 20.2023H213.767C214.117 20.2023 214.4 19.9188 214.4 19.5691C214.4 19.2195 214.117 18.936 213.767 18.936Z" fill="white"/>
<path d="M165.851 13.5425C165.851 15.4512 165.251 17.3114 164.135 18.8599C163.019 20.4084 161.445 21.5667 159.634 22.1708C157.824 22.7748 155.869 22.794 154.047 22.2257C152.225 21.6573 150.628 20.5302 149.482 19.004C148.336 17.4777 147.699 15.6296 147.661 13.7213C147.624 11.8131 148.188 9.9414 149.273 8.37124C150.358 6.80112 151.909 5.61209 153.708 4.97257C155.506 4.33304 157.46 4.27543 159.293 4.80787L156.755 13.5425H165.851Z" fill="#BDC5D1"/>
<path d="M160.767 3.81299C162.547 4.34408 164.123 5.4078 165.281 6.861C166.439 8.3142 167.124 10.0872 167.244 11.9414L158.167 12.5292L160.767 3.81299Z" fill="#FF5600"/>
</svg>
