<svg width="288" height="223" viewBox="0 0 288 223" fill="none" xmlns="http://www.w3.org/2000/svg">
<circle cx="1.43692" cy="1.43692" r="1.43668" fill="#EAEAEA"/>
<circle cx="25.205" cy="1.43668" r="1.43668" fill="#EAEAEA"/>
<circle cx="48.9733" cy="1.43668" r="1.43668" fill="#EAEAEA"/>
<circle cx="72.7419" cy="1.43668" r="1.43668" fill="#EAEAEA"/>
<circle cx="96.5097" cy="1.43668" r="1.43668" fill="#EAEAEA"/>
<circle cx="120.278" cy="1.43668" r="1.43668" fill="#EAEAEA"/>
<circle cx="144.047" cy="1.43668" r="1.43668" fill="#EAEAEA"/>
<circle cx="167.815" cy="1.43668" r="1.43668" fill="#EAEAEA"/>
<circle cx="191.583" cy="1.43668" r="1.43668" fill="#EAEAEA"/>
<circle cx="215.351" cy="1.43668" r="1.43668" fill="#EAEAEA"/>
<circle cx="1.43668" cy="25.205" r="1.43668" fill="#EAEAEA"/>
<circle cx="25.205" cy="25.205" r="1.43668" fill="#EAEAEA"/>
<circle cx="48.9733" cy="25.205" r="1.43668" fill="#EAEAEA"/>
<circle cx="72.7419" cy="25.205" r="1.43668" fill="#EAEAEA"/>
<circle cx="96.5097" cy="25.205" r="1.43668" fill="#EAEAEA"/>
<circle cx="120.278" cy="25.205" r="1.43668" fill="#EAEAEA"/>
<circle cx="144.047" cy="25.205" r="1.43668" fill="#EAEAEA"/>
<circle cx="167.815" cy="25.205" r="1.43668" fill="#EAEAEA"/>
<circle cx="191.583" cy="25.205" r="1.43668" fill="#EAEAEA"/>
<circle cx="215.351" cy="25.205" r="1.43668" fill="#EAEAEA"/>
<circle cx="1.43668" cy="48.9733" r="1.43668" fill="#EAEAEA"/>
<circle cx="25.205" cy="48.9733" r="1.43668" fill="#EAEAEA"/>
<circle cx="48.9733" cy="48.9733" r="1.43668" fill="#EAEAEA"/>
<circle cx="72.7419" cy="48.9733" r="1.43668" fill="#EAEAEA"/>
<circle cx="96.5097" cy="48.9733" r="1.43668" fill="#EAEAEA"/>
<circle cx="120.278" cy="48.9733" r="1.43668" fill="#EAEAEA"/>
<circle cx="144.047" cy="48.9733" r="1.43668" fill="#EAEAEA"/>
<circle cx="167.815" cy="48.9733" r="1.43668" fill="#EAEAEA"/>
<circle cx="191.583" cy="48.9733" r="1.43668" fill="#EAEAEA"/>
<circle cx="215.351" cy="48.9733" r="1.43668" fill="#EAEAEA"/>
<circle cx="1.43668" cy="72.7423" r="1.43668" fill="#EAEAEA"/>
<circle cx="25.205" cy="72.7423" r="1.43668" fill="#EAEAEA"/>
<circle cx="48.9733" cy="72.7423" r="1.43668" fill="#EAEAEA"/>
<circle cx="72.7419" cy="72.7423" r="1.43668" fill="#EAEAEA"/>
<circle cx="96.5097" cy="72.7423" r="1.43668" fill="#EAEAEA"/>
<circle cx="120.278" cy="72.7423" r="1.43668" fill="#EAEAEA"/>
<circle cx="144.047" cy="72.7423" r="1.43668" fill="#EAEAEA"/>
<circle cx="167.815" cy="72.7423" r="1.43668" fill="#EAEAEA"/>
<circle cx="191.583" cy="72.7423" r="1.43668" fill="#EAEAEA"/>
<circle cx="215.351" cy="72.7423" r="1.43668" fill="#EAEAEA"/>
<circle cx="1.43668" cy="96.5099" r="1.43668" fill="#EAEAEA"/>
<circle cx="25.205" cy="96.5099" r="1.43668" fill="#EAEAEA"/>
<circle cx="48.9733" cy="96.5099" r="1.43668" fill="#EAEAEA"/>
<circle cx="72.7419" cy="96.5099" r="1.43668" fill="#EAEAEA"/>
<circle cx="96.5097" cy="96.5099" r="1.43668" fill="#EAEAEA"/>
<circle cx="120.278" cy="96.5099" r="1.43668" fill="#EAEAEA"/>
<circle cx="144.047" cy="96.5099" r="1.43668" fill="#EAEAEA"/>
<circle cx="167.815" cy="96.5099" r="1.43668" fill="#EAEAEA"/>
<circle cx="191.583" cy="96.5099" r="1.43668" fill="#EAEAEA"/>
<circle cx="215.351" cy="96.5099" r="1.43668" fill="#EAEAEA"/>
<circle cx="1.43668" cy="120.278" r="1.43668" fill="#EAEAEA"/>
<circle cx="25.205" cy="120.278" r="1.43668" fill="#EAEAEA"/>
<circle cx="48.9733" cy="120.278" r="1.43668" fill="#EAEAEA"/>
<circle cx="72.7419" cy="120.278" r="1.43668" fill="#EAEAEA"/>
<circle cx="96.5097" cy="120.278" r="1.43668" fill="#EAEAEA"/>
<circle cx="120.278" cy="120.278" r="1.43668" fill="#EAEAEA"/>
<circle cx="144.047" cy="120.278" r="1.43668" fill="#EAEAEA"/>
<circle cx="167.815" cy="120.278" r="1.43668" fill="#EAEAEA"/>
<circle cx="191.583" cy="120.278" r="1.43668" fill="#EAEAEA"/>
<circle cx="215.351" cy="120.278" r="1.43668" fill="#EAEAEA"/>
<circle cx="1.43668" cy="144.047" r="1.43668" fill="#EAEAEA"/>
<circle cx="25.205" cy="144.047" r="1.43668" fill="#EAEAEA"/>
<circle cx="48.9733" cy="144.047" r="1.43668" fill="#EAEAEA"/>
<circle cx="72.7419" cy="144.047" r="1.43668" fill="#EAEAEA"/>
<circle cx="96.5097" cy="144.047" r="1.43668" fill="#EAEAEA"/>
<circle cx="120.278" cy="144.047" r="1.43668" fill="#EAEAEA"/>
<circle cx="144.047" cy="144.047" r="1.43668" fill="#EAEAEA"/>
<circle cx="167.815" cy="144.047" r="1.43668" fill="#EAEAEA"/>
<circle cx="191.583" cy="144.047" r="1.43668" fill="#EAEAEA"/>
<circle cx="215.351" cy="144.047" r="1.43668" fill="#EAEAEA"/>
<circle cx="48.9733" cy="167.815" r="1.43668" fill="#EAEAEA"/>
<circle cx="72.7419" cy="167.815" r="1.43668" fill="#EAEAEA"/>
<circle cx="96.5097" cy="167.815" r="1.43668" fill="#EAEAEA"/>
<circle cx="120.278" cy="167.815" r="1.43668" fill="#EAEAEA"/>
<circle cx="144.047" cy="167.815" r="1.43668" fill="#EAEAEA"/>
<circle cx="167.815" cy="167.815" r="1.43668" fill="#EAEAEA"/>
<circle cx="191.583" cy="167.815" r="1.43668" fill="#EAEAEA"/>
<circle cx="215.351" cy="167.815" r="1.43668" fill="#EAEAEA"/>
<circle cx="48.9733" cy="191.583" r="1.43668" fill="#EAEAEA"/>
<circle cx="72.7419" cy="191.583" r="1.43668" fill="#EAEAEA"/>
<circle cx="96.5097" cy="191.583" r="1.43668" fill="#EAEAEA"/>
<circle cx="120.278" cy="191.583" r="1.43668" fill="#EAEAEA"/>
<circle cx="144.047" cy="191.583" r="1.43668" fill="#EAEAEA"/>
<circle cx="167.815" cy="191.583" r="1.43668" fill="#EAEAEA"/>
<circle cx="191.583" cy="191.583" r="1.43668" fill="#EAEAEA"/>
<circle cx="215.351" cy="191.583" r="1.43668" fill="#EAEAEA"/>
<circle cx="1.43668" cy="215.351" r="1.43668" fill="#EAEAEA"/>
<circle cx="25.205" cy="215.351" r="1.43668" fill="#EAEAEA"/>
<circle cx="48.9733" cy="215.351" r="1.43668" fill="#EAEAEA"/>
<circle cx="72.7419" cy="215.351" r="1.43668" fill="#EAEAEA"/>
<circle cx="96.5097" cy="215.351" r="1.43668" fill="#EAEAEA"/>
<circle cx="120.278" cy="215.351" r="1.43668" fill="#EAEAEA"/>
<circle cx="144.047" cy="215.351" r="1.43668" fill="#EAEAEA"/>
<circle cx="167.815" cy="215.351" r="1.43668" fill="#EAEAEA"/>
<circle cx="191.583" cy="215.351" r="1.43668" fill="#EAEAEA"/>
<circle cx="215.351" cy="215.351" r="1.43668" fill="#EAEAEA"/>
<path d="M22.6216 34.6587V34.4087H22.3716V34.6587H22.6216ZM22.3716 123C22.3716 123.138 22.4835 123.25 22.6216 123.25C22.7597 123.25 22.8716 123.138 22.8716 123H22.3716ZM22.8716 123L22.8716 121.996H22.3716L22.3716 123H22.8716ZM22.8716 119.988L22.8716 117.981H22.3716L22.3716 119.988H22.8716ZM22.8716 115.973L22.8716 113.965H22.3716L22.3716 115.973H22.8716ZM22.8716 111.957L22.8716 109.95H22.3716L22.3716 111.957H22.8716ZM22.8716 107.942L22.8716 105.934H22.3716L22.3716 107.942H22.8716ZM22.8716 103.926L22.8716 101.919H22.3716L22.3716 103.926H22.8716ZM22.8716 99.9108L22.8716 97.903H22.3716L22.3716 99.9108H22.8716ZM22.8716 95.8953L22.8716 93.8875H22.3716L22.3716 95.8953H22.8716ZM22.8716 91.8798L22.8716 89.872H22.3716L22.3716 91.8798H22.8716ZM22.8716 87.8643L22.8716 85.8565H22.3716L22.3716 87.8643H22.8716ZM22.8716 83.8487L22.8716 81.841H22.3716L22.3716 83.8487H22.8716ZM22.8716 79.8332L22.8716 77.8255H22.3716L22.3716 79.8332H22.8716ZM22.8716 75.8177L22.8716 73.81H22.3716L22.3716 75.8177H22.8716ZM22.8716 71.8022L22.8716 69.7945H22.3716L22.3716 71.8022H22.8716ZM22.8716 67.7867L22.8716 65.7789H22.3716L22.3716 67.7867H22.8716ZM22.8716 63.7712L22.8716 61.7634H22.3716L22.3716 63.7712H22.8716ZM22.8716 59.7557L22.8716 57.7479H22.3716L22.3716 59.7557H22.8716ZM22.8716 55.7402L22.8716 53.7324H22.3716L22.3716 55.7402H22.8716ZM22.8716 51.7246L22.8716 49.7169H22.3716L22.3716 51.7246H22.8716ZM22.8716 47.7091L22.8716 45.7014H22.3716L22.3716 47.7091H22.8716ZM22.8716 43.6936L22.8716 41.6859H22.3716L22.3716 43.6936H22.8716ZM22.8716 39.6781L22.8716 37.6703H22.3716L22.3716 39.6781H22.8716ZM22.8716 35.6626L22.8716 34.6587H22.3716L22.3716 35.6626H22.8716ZM22.6216 34.9087H23.6512V34.4087H22.6216V34.9087ZM25.7104 34.9087H27.7697V34.4087H25.7104V34.9087ZM29.8289 34.9087H31.8881V34.4087H29.8289V34.9087ZM33.9474 34.9087H36.0066V34.4087H33.9474V34.9087ZM38.0658 34.9087H40.1251V34.4087H38.0658V34.9087ZM42.1843 34.9087H43.2139V34.4087H42.1843V34.9087Z" fill="black"/>
<path d="M257.278 49.5V36.5742H212.741" stroke="black" stroke-width="0.5" stroke-dasharray="2 2"/>
<path d="M234.268 165.137H228.531V208.458H234.268V165.137Z" fill="#D0D4DA"/>
<path d="M225.428 183.374H219.69V208.468H225.428V183.374Z" fill="#E8E8E8"/>
<path d="M216.587 179.457H210.85V208.458H216.587V179.457Z" fill="#D0D4DA"/>
<path d="M207.737 196.774H202V208.468H207.737V196.774Z" fill="#E8E8E8"/>
<path d="M251.958 155.675H246.221V208.459H251.958V155.675Z" fill="#D0D4DA"/>
<path d="M243.118 160.503H237.381V208.469H243.118V160.503Z" fill="#E8E8E8"/>
<path d="M269.648 150.456H263.911V208.469H269.648V150.456Z" fill="#D0D4DA"/>
<path d="M260.799 139H255.062V208.468H260.799V139Z" fill="#FF5600"/>
<path d="M265.813 74.2556L287.018 74.1119C286.912 67.651 284.492 61.4425 280.199 56.6132C277.506 53.5207 274.095 51.1354 270.267 49.666C266.438 48.1967 262.308 47.6881 258.237 48.1847C257.2 48.2921 256.171 48.4584 255.153 48.6827H255.095L260.842 74.2364L265.813 74.2556Z" fill="#FF5600"/>
<path d="M272.335 99.2247C276.344 97.36 279.789 94.4705 282.323 90.8481C284.858 87.2258 286.391 82.9988 286.769 78.5941C286.769 78.3259 286.826 78.0577 286.846 77.7895C286.865 77.5213 286.846 77.4447 286.846 77.2723C286.846 76.7647 286.846 76.2571 286.894 75.7303V75.6632V75.5962L265.679 75.7303H260.698L255.114 101.294C256.92 101.684 258.764 101.874 260.612 101.859C264.666 101.856 268.67 100.956 272.335 99.2247V99.2247Z" fill="#D0D4DA"/>
<path d="M258.18 74.9062L252.433 49.3525C246.618 50.6639 241.424 53.9195 237.709 58.5815C233.994 63.2436 231.98 69.0334 232 74.9945C232.02 80.9557 234.073 86.7317 237.819 91.3687C241.566 96.0056 246.781 99.2261 252.605 100.498L258.18 74.9349" fill="#E8E8E8"/>
<g filter="url(#filter0_d)">
<path d="M68 85.6708C68 85.3003 68.8152 85 69.8207 85H127.477C128.483 85 129.298 85.3003 129.298 85.6708V114.068C129.298 114.438 128.483 114.739 127.477 114.739H69.8207C68.8152 114.739 68 114.438 68 114.068V85.6708Z" fill="white"/>
</g>
<rect x="75.2827" y="92.2827" width="31.3218" height="3.61406" rx="1.80703" fill="#D0D4DA"/>
<rect x="75.6621" y="100.324" width="48.7898" height="1.80703" rx="0.903514" fill="#E8E8E8"/>
<rect x="75.2827" y="105.028" width="48.7898" height="1.80703" rx="0.903514" fill="#E8E8E8"/>
<g filter="url(#filter1_d)">
<path d="M37 12.4043C37 11.6287 39.3946 11 42.3484 11H211.715C214.669 11 217.063 11.6287 217.063 12.4043V71.8517C217.063 72.6272 214.669 73.256 211.715 73.256H42.3484C39.3946 73.256 37 72.6272 37 71.8517V12.4043Z" fill="white"/>
</g>
<rect x="112.533" y="28.8638" width="47.8892" height="5.7467" rx="2.87335" fill="#C4C4C4"/>
<rect x="112.533" y="41.8638" width="95" height="3" rx="1.5" fill="#D0D4DA"/>
<rect x="112.533" y="47.8638" width="96" height="3" rx="1.5" fill="#D0D4DA"/>
<rect x="112.533" y="55.8638" width="96" height="3" rx="1.5" fill="#D0D4DA"/>
<path d="M125.821 196.15H183.477C183.969 196.15 184.407 196.216 184.718 196.32C184.874 196.371 184.989 196.43 185.062 196.487C185.138 196.546 185.148 196.587 185.148 196.605V222.213C185.148 222.231 185.138 222.272 185.062 222.331C184.989 222.388 184.874 222.447 184.718 222.498C184.407 222.602 183.969 222.668 183.477 222.668H125.821C125.33 222.668 124.891 222.602 124.581 222.498C124.425 222.447 124.309 222.388 124.236 222.331C124.161 222.272 124.15 222.231 124.15 222.213V196.605C124.15 196.587 124.161 196.546 124.236 196.487C124.309 196.43 124.425 196.371 124.581 196.32C124.891 196.216 125.33 196.15 125.821 196.15Z" fill="white" stroke="#E8E8E8" stroke-width="0.3"/>
<rect x="131.662" y="208.451" width="48.7898" height="1.80703" rx="0.903514" fill="#D0D4DA"/>
<rect x="131.662" y="203.663" width="48.7898" height="1.80703" rx="0.903514" fill="#D0D4DA"/>
<rect x="131.283" y="213.155" width="48.7898" height="1.80703" rx="0.903514" fill="#D0D4DA"/>
<rect x="191.206" y="95.7881" width="26.511" height="1.80703" rx="0.903514" fill="#D0D4DA"/>
<rect x="191.206" y="91" width="26.511" height="1.80703" rx="0.903514" fill="#D0D4DA"/>
<rect x="191" y="100.493" width="26.511" height="1.80703" rx="0.903514" fill="#D0D4DA"/>
<path d="M247 88L221 107.5H190.5" stroke="black" stroke-width="0.2"/>
<path d="M25.4314 127.141H19.4932V180.72H25.4314V127.141Z" fill="#E8E8E8"/>
<path d="M36.8868 145.339H30.9485V180.72H36.8868V145.339Z" fill="#E8E8E8"/>
<path d="M48.3418 133.797H42.4036V180.987H48.3418V133.797Z" fill="#E8E8E8"/>
<path d="M59.8064 129.209H53.8682V180.719H59.8064V129.209Z" fill="#E8E8E8"/>
<path d="M71.2617 146.431H65.3235V180.719H71.2617V146.431Z" fill="#E8E8E8"/>
<path d="M82.7168 153.154H76.7786V180.719H82.7168V153.154Z" fill="#E8E8E8"/>
<path d="M94.1719 132.638H88.2336V180.719H94.1719V132.638Z" fill="#E8E8E8"/>
<path d="M105.627 141.306H99.6885V180.719H105.627V141.306Z" fill="#E8E8E8"/>
<path d="M117.092 134.381H111.154V180.718H117.092V134.381Z" fill="#E8E8E8"/>
<path d="M128.547 149.15H122.608V180.719H128.547V149.15Z" fill="#E8E8E8"/>
<path d="M140.002 143.146H134.063V180.719H140.002V143.146Z" fill="#FF5600"/>
<path d="M22.3669 163.058C28.1136 157.471 32.4237 148.691 45.8326 148.691C63.0728 148.691 64.5094 169.283 78.8762 169.283C87.0358 169.283 97.553 155.396 102.821 155.396" stroke="#FF5600"/>
<path d="M8 119V187.96H148.794" stroke="#A6A6A6" stroke-width="0.5"/>
<path d="M195 215H278.327" stroke="#A6A6A6" stroke-width="0.5"/>
<path d="M258 136.607V105" stroke="black" stroke-width="0.5" stroke-dasharray="2 2"/>
<path d="M93.5092 43.086C93.5092 47.608 92.0867 52.0154 89.4432 55.6842C86.7996 59.353 83.0689 62.0973 78.7794 63.5284C74.4898 64.9596 69.8588 65.0051 65.5419 63.6585C61.225 62.312 57.4412 59.6416 54.726 56.0255C52.0108 52.4094 50.502 48.0307 50.4131 43.5096C50.3242 38.9885 51.6598 34.554 54.2307 30.8339C56.8017 27.1139 60.4777 24.2968 64.7383 22.7816C68.9989 21.2664 73.6281 21.1299 77.9706 22.3914L71.9591 43.086H93.5092Z" fill="#E8E8E8"/>
<path d="M81.464 20.0335C85.6827 21.2918 89.4148 23.812 92.1582 27.255C94.9016 30.698 96.5248 34.8986 96.8093 39.2917L75.3042 40.6845L81.464 20.0335Z" fill="#FF5600"/>
<defs>
<filter id="filter0_d" x="55" y="75" width="87.2982" height="55.7387" filterUnits="userSpaceOnUse" color-interpolation-filters="sRGB">
<feFlood flood-opacity="0" result="BackgroundImageFix"/>
<feColorMatrix in="SourceAlpha" type="matrix" values="0 0 0 0 0 0 0 0 0 0 0 0 0 0 0 0 0 0 127 0"/>
<feOffset dy="3"/>
<feGaussianBlur stdDeviation="6.5"/>
<feColorMatrix type="matrix" values="0 0 0 0 0 0 0 0 0 0 0 0 0 0 0 0 0 0 0.12 0"/>
<feBlend mode="normal" in2="BackgroundImageFix" result="effect1_dropShadow"/>
<feBlend mode="normal" in="SourceGraphic" in2="effect1_dropShadow" result="shape"/>
</filter>
<filter id="filter1_d" x="24" y="1" width="206.063" height="88.256" filterUnits="userSpaceOnUse" color-interpolation-filters="sRGB">
<feFlood flood-opacity="0" result="BackgroundImageFix"/>
<feColorMatrix in="SourceAlpha" type="matrix" values="0 0 0 0 0 0 0 0 0 0 0 0 0 0 0 0 0 0 127 0"/>
<feOffset dy="3"/>
<feGaussianBlur stdDeviation="6.5"/>
<feColorMatrix type="matrix" values="0 0 0 0 0 0 0 0 0 0 0 0 0 0 0 0 0 0 0.12 0"/>
<feBlend mode="normal" in2="BackgroundImageFix" result="effect1_dropShadow"/>
<feBlend mode="normal" in="SourceGraphic" in2="effect1_dropShadow" result="shape"/>
</filter>
</defs>
</svg>
