<svg width="209" height="167" viewBox="0 0 209 167" fill="none" xmlns="http://www.w3.org/2000/svg">
<path d="M32.4148 119.396V47.3799H20.021V102.936C25.2023 106.294 29.3889 112.845 32.4148 119.396Z" fill="#BDC5D1"/>
<path d="M20.021 143.732V150.034H23.7101C22.2593 148.044 21.0158 145.93 20.021 143.732Z" fill="#BDC5D1"/>
<path d="M32.2485 47.3799V119.105C35.1086 125.2 36.9739 131.294 37.72 134.736C38.9221 140.374 42.9014 144.064 42.9014 149.786C42.9014 149.868 42.9014 149.951 42.9014 150.034H85.5542V47.3799H32.2485Z" fill="#E7EAF3"/>
<path d="M20.9327 53.3501H14.9224V100.78" stroke="#E7EAF3" stroke-width="2" stroke-miterlimit="10"/>
<path d="M112.332 19.5601V86.6005H114.28" stroke="#E7EAF3" stroke-miterlimit="10"/>
<path d="M175.751 160.109L163.067 138.757" stroke="#1E2022" stroke-linecap="round" stroke-linejoin="round"/>
<path d="M181.472 160.109L168.829 138.798" stroke="#1E2022" stroke-linecap="round" stroke-linejoin="round"/>
<path d="M140.353 158.45L152.042 138.798" stroke="#1E2022" stroke-linecap="round" stroke-linejoin="round"/>
<path d="M171.15 91.1196H189.181L176.083 138.633H142.839V136.933H167.503L168.041 125.863" stroke="#1E2022" stroke-width="0.5" stroke-linecap="round" stroke-linejoin="round"/>
<path d="M118.301 157.082L115.731 161.394L106.321 155.756L114.902 157.207L115.938 155.507" stroke="#1E2022" stroke-width="0.5" stroke-linecap="round" stroke-linejoin="round"/>
<path d="M131.233 122.256C128.498 122.256 114.86 154.014 114.86 155.175C114.86 156.336 117.803 157.662 118.259 157.662C118.923 157.041 131.98 138.176 133.347 136.85C134.715 135.523 131.233 122.256 131.233 122.256Z" fill="black"/>
<path d="M138.86 106.46C138.031 105.797 136.995 105.424 135.917 105.465C133.762 105.465 131.979 106.792 131.979 108.45" stroke="#1E2022" stroke-width="0.5" stroke-linecap="round" stroke-linejoin="round"/>
<path d="M151.296 100.158C149.928 101.402 148.104 103.558 147.233 106.045" stroke="#1E2022" stroke-width="0.5" stroke-linecap="round" stroke-linejoin="round"/>
<path d="M158.674 93.0685C158.218 92.8612 157.679 92.7368 157.181 92.7368C154.404 92.7368 149.679 97.7949 149.679 98.4583C149.679 98.9972 152.207 101.195 154.611 101.899" stroke="#1E2022" stroke-width="0.5" stroke-linecap="round" stroke-linejoin="round"/>
<path d="M153.948 106.875C154.446 99.4118 156.767 92.2807 163.026 90.3735" stroke="#1E2022" stroke-width="0.5" stroke-linecap="round" stroke-linejoin="round"/>
<path d="M177.078 100.656C179.896 111.269 177.99 125.988 176.705 126.941C174.715 128.434 157.223 128.6 156.062 127.066C155.565 126.444 154.031 119.727 153.824 112.182" stroke="#1E2022" stroke-width="0.5" stroke-linecap="round" stroke-linejoin="round"/>
<path d="M169.327 90.2905C171.731 91.0368 173.596 92.861 174.923 95.2243" stroke="#1E2022" stroke-width="0.5" stroke-linecap="round" stroke-linejoin="round"/>
<path d="M166.176 92.4878C167.751 92.4878 169.327 92.1562 169.327 91.4928V84.7349" stroke="#1E2022" stroke-width="0.5" stroke-linecap="round" stroke-linejoin="round"/>
<path d="M163.026 87.9272V90.3734" stroke="#1E2022" stroke-width="0.5" stroke-linecap="round" stroke-linejoin="round"/>
<path d="M165.596 87.8447C164.933 88.052 164.228 88.1349 163.565 88.0105C160.166 87.4716 158.093 82.9525 158.881 77.8944C158.922 77.6871 158.964 77.4798 159.005 77.2725" stroke="#1E2022" stroke-width="0.5" stroke-linecap="round" stroke-linejoin="round"/>
<path d="M170.653 81.8745C170.321 82.8696 169.907 83.8646 169.327 84.7352" stroke="#1E2022" stroke-width="0.5" stroke-linecap="round" stroke-linejoin="round"/>
<path d="M172.104 69.4365C173.015 67.861 175.295 65.249 179.772 65.249C182.798 65.249 185.865 66.866 189.72 66.866C192.746 66.866 195.606 65.6636 199.254 65.6636C205.762 65.6636 207.793 69.934 207.793 72.5874C207.793 79.3039 202.321 81.9159 198.259 81.9159C191.751 81.9159 190.964 77.4382 183.212 77.4382C175.71 77.4382 176.705 71.3436 175.088 71.3436C174.715 71.3436 174.3 71.3851 173.927 71.468" stroke="#1E2022" stroke-width="0.5" stroke-miterlimit="10"/>
<path d="M170.197 83.74C173.513 83.74 175.088 80.3403 175.088 76.0285C175.088 68.9389 168.829 67.4878 166.135 67.4878C158.964 67.4878 157.43 72.9605 157.43 74.536C157.43 76.1114 158.425 77.2723 158.922 77.3138C159.254 75.4066 160.746 72.8361 160.829 72.7532C161.492 73.4165 162.28 73.9141 163.15 74.2872" stroke="#1E2022" stroke-width="0.5" stroke-linecap="round" stroke-linejoin="round"/>
<path d="M169.865 78.5159C170.114 78.3916 170.321 78.3501 170.611 78.3501C171.565 78.3501 172.352 79.1378 172.352 80.0914C172.352 81.045 171.565 81.8327 170.611 81.8327C170.446 81.8327 170.238 81.7913 170.072 81.7498" stroke="#1E2022" stroke-width="0.5" stroke-linecap="round" stroke-linejoin="round"/>
<path d="M153.865 112.181C155.938 113.01 157.886 113.674 160.332 113.674C162.238 113.674 165.886 112.471 168.622 109.528" stroke="#1E2022" stroke-width="0.5" stroke-linecap="round" stroke-linejoin="round"/>
<path d="M163.067 103.931C161.617 105.009 160.373 106.377 159.461 107.952C157.803 107.621 150.964 105.921 144.912 105.921C144.332 105.921 142.881 105.465 142.259 105.465C138.694 105.465 137.99 107.372 137.99 107.952C137.99 108.533 138.114 108.533 138.238 108.533C146.073 108.533 150.135 110.647 153.865 112.181" stroke="#1E2022" stroke-width="0.5" stroke-linecap="round" stroke-linejoin="round"/>
<path d="M171.689 95.5146C173.679 94.9342 175.544 94.9342 176.705 96.0536C180.518 99.7435 170.902 109.984 169.327 109.818C167.793 109.652 162.239 103.807 162.156 102.024C162.156 101.402 163.399 100.075 165.223 98.7899" stroke="#1E2022" stroke-width="0.5" stroke-linecap="round" stroke-linejoin="round"/>
<path d="M184.539 108.989H98.5698V111.767H184.539V108.989Z" fill="black"/>
<path d="M179.896 153.144V111.021" stroke="#1E2022" stroke-linecap="round" stroke-linejoin="round"/>
<path d="M108.477 153.144V111.021" stroke="#1E2022" stroke-linecap="round" stroke-linejoin="round"/>
<path d="M173.845 161.601V111.021" stroke="#1E2022" stroke-linecap="round" stroke-linejoin="round"/>
<path d="M102.093 161.601V111.021" stroke="#1E2022" stroke-linecap="round" stroke-linejoin="round"/>
<path d="M144.746 160.979L157.927 138.798" stroke="#1E2022" stroke-linecap="round" stroke-linejoin="round"/>
<path d="M144.373 108.492H130.114V108.989H144.373V108.492Z" fill="black"/>
<path d="M124.269 97.8778H114.28V75.2822H145.451V97.8778H131.731" stroke="#1E2022" stroke-width="0.5" stroke-linecap="round" stroke-linejoin="round"/>
<path d="M125.472 93.6489L121.161 108.989H128.705L132.891 93.6489H125.472Z" stroke="#1E2022" stroke-linecap="round" stroke-linejoin="round"/>
<path d="M131.565 20.6799C135.171 17.1558 135.213 11.4343 131.689 7.82732C129.161 5.21535 125.306 4.38616 121.907 5.71287C118.094 -0.132957 110.301 -1.74989 104.498 2.06441C102.384 3.43258 100.767 5.38119 99.7723 7.70294C95.1298 5.83725 89.8241 8.07608 87.9588 12.7196C86.9225 15.3315 87.1298 18.2752 88.5391 20.7213L131.565 20.6799Z" fill="#E7EAF3"/>
<path d="M109.181 18.9385V33.5323H64.4561V47.3799" stroke="#E7EAF3" stroke-miterlimit="10"/>
<path d="M39.4199 161.602C40.622 161.602 42.9433 157.58 42.9433 149.786C42.9433 144.064 38.9225 140.374 37.7619 134.736C35.9381 126.071 26.9018 100.573 12.7671 100.573C11.1505 100.573 8.95361 103.972 8.95361 111.021C8.95361 119.561 17.2023 128.392 17.2023 130.216C17.1609 151.112 35.6065 161.602 39.4199 161.602Z" stroke="#1E2022" stroke-width="0.5" stroke-linecap="round" stroke-linejoin="round"/>
<path d="M39.5028 161.601C39.5028 160.44 37.8448 152.77 36.9743 150.863C36.1038 148.956 32.7463 139.337 32.2075 136.725C31.6686 134.113 21.9277 108.201 12.7256 101.692" stroke="#1E2022" stroke-width="0.5" stroke-linecap="round" stroke-linejoin="round"/>
<path d="M35.2747 146.344L19.855 143.235" stroke="#1E2022" stroke-width="0.5" stroke-linecap="round" stroke-linejoin="round"/>
<path d="M36.0625 148.5L21.9277 147.339" stroke="#1E2022" stroke-width="0.5" stroke-linecap="round" stroke-linejoin="round"/>
<path d="M31.6271 134.736L17.2852 130.382" stroke="#1E2022" stroke-width="0.5" stroke-linecap="round" stroke-linejoin="round"/>
<path d="M32.9946 139.462L37.347 136.311" stroke="#1E2022" stroke-width="0.5" stroke-linecap="round" stroke-linejoin="round"/>
<path d="M24.7046 118.566L29.0155 113.674" stroke="#1E2022" stroke-width="0.5" stroke-linecap="round" stroke-linejoin="round"/>
<path d="M23.3369 115.954L27.026 110.979" stroke="#1E2022" stroke-width="0.5" stroke-linecap="round" stroke-linejoin="round"/>
<path d="M81.1608 53.8477H36.6841V62.4298H81.1608V53.8477Z" fill="#77838F"/>
<path d="M77.9273 58.574C78.7514 58.574 79.4195 57.9057 79.4195 57.0814C79.4195 56.2571 78.7514 55.5889 77.9273 55.5889C77.1031 55.5889 76.4351 56.2571 76.4351 57.0814C76.4351 57.9057 77.1031 58.574 77.9273 58.574Z" fill="white"/>
<path d="M52.021 57.0815H75.192" stroke="white" stroke-width="2" stroke-linecap="round" stroke-linejoin="round"/>
<path d="M81.1608 68.3584H36.6841V76.9406H81.1608V68.3584Z" fill="#77838F"/>
<path d="M77.9273 73.0432C78.7514 73.0432 79.4195 72.375 79.4195 71.5507C79.4195 70.7263 78.7514 70.0581 77.9273 70.0581C77.1031 70.0581 76.4351 70.7263 76.4351 71.5507C76.4351 72.375 77.1031 73.0432 77.9273 73.0432Z" fill="white"/>
<path d="M52.021 71.5508H75.192" stroke="white" stroke-width="2" stroke-linecap="round" stroke-linejoin="round"/>
<path d="M81.1608 82.8276H36.6841V91.4098H81.1608V82.8276Z" fill="#77838F"/>
<path d="M77.9273 87.5544C78.7514 87.5544 79.4195 86.8862 79.4195 86.0619C79.4195 85.2376 78.7514 84.5693 77.9273 84.5693C77.1031 84.5693 76.4351 85.2376 76.4351 86.0619C76.4351 86.8862 77.1031 87.5544 77.9273 87.5544Z" fill="white"/>
<path d="M52.021 86.0615H75.192" stroke="white" stroke-width="2" stroke-linecap="round" stroke-linejoin="round"/>
<path d="M81.1608 97.3389H36.6841V105.921H81.1608V97.3389Z" fill="#77838F"/>
<path d="M77.9273 102.024C78.7514 102.024 79.4195 101.355 79.4195 100.531C79.4195 99.7068 78.7514 99.0386 77.9273 99.0386C77.1031 99.0386 76.4351 99.7068 76.4351 100.531C76.4351 101.355 77.1031 102.024 77.9273 102.024Z" fill="white"/>
<path d="M52.021 100.531H75.192" stroke="white" stroke-width="2" stroke-linecap="round" stroke-linejoin="round"/>
<path d="M81.1608 111.808H36.6841V120.39H81.1608V111.808Z" fill="#77838F"/>
<path d="M77.9273 116.534C78.7514 116.534 79.4195 115.866 79.4195 115.042C79.4195 114.218 78.7514 113.549 77.9273 113.549C77.1031 113.549 76.4351 114.218 76.4351 115.042C76.4351 115.866 77.1031 116.534 77.9273 116.534Z" fill="white"/>
<path d="M52.021 115.042H75.192" stroke="white" stroke-width="2" stroke-linecap="round" stroke-linejoin="round"/>
<path d="M22.8809 60.0249H29.5544" stroke="white" stroke-linecap="round" stroke-linejoin="round"/>
<path d="M22.8809 61.7661H29.5544" stroke="white" stroke-linecap="round" stroke-linejoin="round"/>
<path d="M22.8809 71.7583H29.5544" stroke="white" stroke-linecap="round" stroke-linejoin="round"/>
<path d="M22.8809 73.4995H29.5544" stroke="white" stroke-linecap="round" stroke-linejoin="round"/>
<path d="M22.8809 86.0615H29.5544" stroke="white" stroke-linecap="round" stroke-linejoin="round"/>
<path d="M22.8809 87.7617H29.5544" stroke="white" stroke-linecap="round" stroke-linejoin="round"/>
<path d="M22.8809 99.8677H29.5544" stroke="white" stroke-linecap="round" stroke-linejoin="round"/>
<path d="M22.8809 101.609H29.5544" stroke="white" stroke-linecap="round" stroke-linejoin="round"/>
<path d="M160.332 71.8823C160.456 72.214 160.622 72.5042 160.87 72.753" stroke="#1E2022" stroke-width="0.5" stroke-linecap="round" stroke-linejoin="round"/>
<path d="M140.601 159.736L141.513 164.67L130.943 166.701L138.155 162.058L137.824 160.109" stroke="#1E2022" stroke-width="0.5" stroke-linecap="round" stroke-linejoin="round"/>
<path d="M176.705 128.724C176.705 127.853 176.87 126.858 176.331 126.609C163.399 121.261 144.497 120.598 141.596 120.598C138.694 120.598 130.155 120.888 130.155 123.334C130.155 132.165 135.046 159.28 136.041 160.275C136.497 160.772 140.642 160.441 141.14 159.902C141.098 157.663 142.383 135.233 141.223 132.497C152.083 136.477 164.394 138.342 167.668 138.342C177.078 138.384 176.705 129.76 176.705 128.724Z" fill="black"/>
<path opacity="0.05" d="M176.705 128.724C176.705 127.853 176.87 126.858 176.331 126.609C163.399 121.261 144.497 120.598 141.596 120.598C138.694 120.598 130.155 120.888 130.155 123.334C130.155 132.165 135.046 159.28 136.041 160.275C136.497 160.772 140.642 160.441 141.14 159.902C141.098 157.663 142.383 135.233 141.223 132.497C152.083 136.477 164.394 138.342 167.668 138.342C177.078 138.384 176.705 129.76 176.705 128.724Z" fill="white"/>
<path d="M17.1606 130.216C17.1606 129.139 14.342 125.697 12.0207 121.344C7.70984 118.11 3.85492 116.162 1.78238 116.162C0.580311 116.162 0 118.359 0 119.52C0 131.668 13.0155 145.764 24.3731 151.029C20.3938 145.888 17.1606 138.964 17.1606 130.216Z" fill="#77838F"/>
<path d="M165.886 79.3454C166.092 79.3454 166.259 79.1783 166.259 78.9723C166.259 78.7662 166.092 78.5991 165.886 78.5991C165.68 78.5991 165.513 78.7662 165.513 78.9723C165.513 79.1783 165.68 79.3454 165.886 79.3454Z" fill="white"/>
<path d="M160.871 78.9724C161.077 78.9724 161.244 78.8053 161.244 78.5992C161.244 78.3931 161.077 78.2261 160.871 78.2261C160.665 78.2261 160.498 78.3931 160.498 78.5992C160.498 78.8053 160.665 78.9724 160.871 78.9724Z" fill="white"/>
<path d="M161.907 83.2837C161.907 83.2837 162.943 84.9835 164.643 83.6983" stroke="#1E2022" stroke-width="0.5" stroke-linecap="round" stroke-linejoin="round"/>
<path d="M157.022 40H169.603C170.168 40 170.625 40.4576 170.625 41.0222V53.603C170.625 54.1675 170.168 54.6251 169.603 54.6251H157.022C156.458 54.6251 156 54.1675 156 53.603V41.0222C156 40.4576 156.458 40 157.022 40Z" fill="#FF5600"/>
<path d="M161.46 45.5972V48.2108C161.457 48.5049 161.334 48.6574 161.103 48.6574C160.876 48.6574 160.749 48.507 160.738 48.2182H159.703C159.699 49.0967 160.303 49.4621 161.036 49.4621C161.881 49.4621 162.477 48.9557 162.481 48.2108V45.5972H161.46Z" fill="white"/>
<path d="M165.026 46.7883H166.016C166.013 46.0403 165.435 45.5449 164.512 45.5449C163.606 45.5449 162.965 46.0324 162.971 46.7584C162.969 47.3545 163.382 47.6857 164.058 47.831L164.438 47.9127C164.862 48.006 165.007 48.1119 165.011 48.2849C165.007 48.4731 164.836 48.6052 164.505 48.6052C164.108 48.6052 163.874 48.4191 163.857 48.0689H162.874C162.878 49.0261 163.526 49.4539 164.52 49.4539C165.486 49.4539 166.065 49.0371 166.068 48.2849C166.065 47.7041 165.718 47.2968 164.877 47.1159L164.564 47.0488C164.203 46.9728 164.041 46.8664 164.05 46.684C164.052 46.5168 164.192 46.3936 164.512 46.3936C164.847 46.3936 165.005 46.5409 165.026 46.7883Z" fill="white"/>
<path d="M140.022 20H152.603C153.168 20 153.625 20.4576 153.625 21.0222V33.603C153.625 34.1675 153.168 34.6251 152.603 34.6251H140.022C139.458 34.6251 139 34.1675 139 33.603V21.0222C139 20.4576 139.458 20 140.022 20Z" fill="#FF5600"/>
<path d="M141.331 29.6025H142.359V28.0614H142.373C142.493 28.3518 142.768 28.5677 143.17 28.5677C143.781 28.5677 144.295 28.0912 144.295 27.101C144.295 26.0657 143.744 25.6338 143.178 25.6338C142.753 25.6338 142.485 25.8796 142.373 26.17H142.351V25.671H141.331V29.6025ZM142.336 27.101C142.336 26.6764 142.508 26.4232 142.79 26.4232C143.073 26.4232 143.237 26.6764 143.237 27.101C143.237 27.5251 143.073 27.7783 142.79 27.7783C142.508 27.7783 142.336 27.5178 142.336 27.101Z" fill="white"/>
<path d="M145.753 26.922C145.755 26.639 145.918 26.4676 146.17 26.4676C146.432 26.4676 146.581 26.639 146.579 26.922V28.5303H147.607V26.7061C147.609 26.0802 147.214 25.6335 146.609 25.6335C146.186 25.6335 145.874 25.8495 145.745 26.2144H145.715V24.7178H144.725V28.5303H145.753V26.922Z" fill="white"/>
<path d="M148.114 29.6025H149.141V28.0614H149.156C149.275 28.3518 149.551 28.5677 149.953 28.5677C150.564 28.5677 151.077 28.0912 151.077 27.101C151.077 26.0657 150.526 25.6338 149.96 25.6338C149.536 25.6338 149.268 25.8796 149.156 26.17H149.134V25.671H148.114V29.6025ZM149.119 27.101C149.119 26.6764 149.29 26.4232 149.573 26.4232C149.856 26.4232 150.02 26.6764 150.02 27.101C150.02 27.5251 149.856 27.7783 149.573 27.7783C149.29 27.7783 149.119 27.5178 149.119 27.101Z" fill="white"/>
<path d="M123.022 49H135.603C136.168 49 136.625 49.4576 136.625 50.0222V62.603C136.625 63.1675 136.168 63.6251 135.603 63.6251H123.022C122.458 63.6251 122 63.1675 122 62.603V50.0222C122 49.4576 122.458 49 123.022 49Z" fill="#FF5600"/>
<path d="M124.835 56.8014C124.837 56.5184 125 56.3469 125.252 56.3469C125.514 56.3469 125.663 56.5184 125.661 56.8014V58.4097H126.689V56.5855C126.691 55.9596 126.296 55.5129 125.691 55.5129C125.269 55.5129 124.956 55.7289 124.827 56.0938H124.797V54.5972H123.807V58.4097H124.835V56.8014Z" fill="white"/>
<path d="M128.901 55.5499H128.409V54.8647H127.382V55.5499H127.017V56.2948H127.382V57.5864C127.375 58.1861 127.745 58.4891 128.454 58.4503C128.687 58.4372 128.86 58.3889 128.953 58.3606L128.804 57.6388C128.765 57.6477 128.665 57.6682 128.603 57.6682C128.469 57.6682 128.409 57.6089 128.409 57.4899V56.2948H128.901V55.5499Z" fill="white"/>
<path d="M129.321 58.4094H130.348V56.7414C130.348 56.4919 130.478 56.3394 130.691 56.3394C130.903 56.3394 131.041 56.4919 131.041 56.7414V58.4094H132.024V56.7414C132.024 56.4919 132.154 56.3394 132.366 56.3394C132.578 56.3394 132.716 56.4919 132.716 56.7414V58.4094H133.743V56.4809C133.743 55.8943 133.368 55.5127 132.82 55.5127C132.396 55.5127 132.053 55.7439 131.956 56.0935H131.927C131.867 55.7439 131.547 55.5127 131.145 55.5127C130.748 55.5127 130.445 55.736 130.326 56.0935H130.296V55.5499H129.321V58.4094Z" fill="white"/>
<path d="M135.277 54.5972H134.25V58.4097H135.277V54.5972Z" fill="white"/>
<path d="M172.022 21H184.603C185.168 21 185.625 21.4576 185.625 22.0222V34.603C185.625 35.1675 185.168 35.6251 184.603 35.6251H172.022C171.458 35.6251 171 35.1675 171 34.603V22.0222C171 21.4576 171.458 21 172.022 21Z" fill="#FF5600"/>
<path d="M175.233 30.4618C176.08 30.4618 176.6 29.9759 176.611 29.2179H175.658C175.635 29.5177 175.473 29.6797 175.248 29.6797C174.978 29.6797 174.801 29.449 174.801 28.9799C174.801 28.5107 174.978 28.2801 175.248 28.2801C175.475 28.2801 175.63 28.4421 175.658 28.7414H176.611C176.605 27.997 176.075 27.5132 175.233 27.5132C174.303 27.5132 173.751 28.1087 173.751 28.9872C173.751 29.8658 174.303 30.4618 175.233 30.4618Z" fill="white"/>
<path d="M179.648 28.4809C179.622 27.8759 179.12 27.5132 178.293 27.5132C177.476 27.5132 176.971 27.8481 176.975 28.4436C176.971 28.8944 177.264 29.1828 177.846 29.285L178.353 29.3746C178.576 29.4155 178.677 29.4753 178.68 29.5827C178.677 29.7022 178.541 29.7693 178.353 29.7693C178.12 29.7693 177.956 29.6687 177.928 29.4863H176.908C176.964 30.0723 177.47 30.4618 178.345 30.4618C179.136 30.4618 179.719 30.0765 179.723 29.4637C179.719 29.0412 179.436 28.7954 178.852 28.6895L178.271 28.5852C178.053 28.5459 177.992 28.4677 177.995 28.3844C177.992 28.2649 178.139 28.1978 178.315 28.1978C178.518 28.1978 178.688 28.3058 178.703 28.4809H179.648Z" fill="white"/>
<path d="M182.73 28.4809C182.704 27.8759 182.201 27.5132 181.375 27.5132C180.558 27.5132 180.053 27.8481 180.057 28.4436C180.053 28.8944 180.345 29.1828 180.928 29.285L181.434 29.3746C181.658 29.4155 181.758 29.4753 181.762 29.5827C181.758 29.7022 181.622 29.7693 181.434 29.7693C181.202 29.7693 181.038 29.6687 181.01 29.4863H179.99C180.046 30.0723 180.552 30.4618 181.427 30.4618C182.218 30.4618 182.801 30.0765 182.804 29.4637C182.801 29.0412 182.518 28.7954 181.933 28.6895L181.352 28.5852C181.135 28.5459 181.073 28.4677 181.077 28.3844C181.073 28.2649 181.22 28.1978 181.397 28.1978C181.6 28.1978 181.769 28.3058 181.784 28.4809H182.73Z" fill="white"/>
<path d="M187.022 44H199.603C200.168 44 200.625 44.4576 200.625 45.0222V57.603C200.625 58.1675 200.168 58.6251 199.603 58.6251H187.022C186.458 58.6251 186 58.1675 186 57.603V45.0222C186 44.4576 186.458 44 187.022 44Z" fill="#FF5600"/>
<path d="M192.4 51.0268C192.318 50.0812 191.625 49.5449 190.665 49.5449C189.637 49.5449 188.826 50.23 188.826 51.5033C188.826 52.7708 189.615 53.4617 190.665 53.4617C191.782 53.4617 192.348 52.687 192.4 52.0391L191.35 52.0317C191.298 52.3578 191.067 52.5606 190.687 52.5606C190.183 52.5606 189.89 52.2031 189.89 51.5033C189.89 50.8407 190.173 50.446 190.695 50.446C191.093 50.446 191.32 50.6803 191.35 51.0268H192.4Z" fill="white"/>
<path d="M194.344 53.4097H195.089L195.232 52.5384H195.722L195.848 51.7941H195.353L195.45 51.2133H195.937L196.064 50.4684H195.571L195.714 49.5972H194.97L194.826 50.4684H194.23L194.374 49.5972H193.629L193.486 50.4684H192.996L192.87 51.2133H193.365L193.268 51.7941H192.78L192.654 52.5384H193.147L193.004 53.4097H193.748L193.892 52.5384H194.487L194.344 53.4097ZM194.013 51.7941L194.109 51.2133H194.705L194.608 51.7941H194.013Z" fill="white"/>
</svg>
