<svg width="331" height="227" viewBox="0 0 331 227" fill="none" xmlns="http://www.w3.org/2000/svg">
<circle cx="60.5" cy="1.5" r="1.5" fill="#EAEAEA"/>
<circle cx="85.3159" cy="1.5" r="1.5" fill="#EAEAEA"/>
<circle cx="110.132" cy="1.5" r="1.5" fill="#EAEAEA"/>
<circle cx="134.948" cy="1.5" r="1.5" fill="#EAEAEA"/>
<circle cx="159.764" cy="1.5" r="1.5" fill="#EAEAEA"/>
<circle cx="184.58" cy="1.5" r="1.5" fill="#EAEAEA"/>
<circle cx="209.396" cy="1.5" r="1.5" fill="#EAEAEA"/>
<circle cx="234.212" cy="1.5" r="1.5" fill="#EAEAEA"/>
<circle cx="259.027" cy="1.5" r="1.5" fill="#EAEAEA"/>
<circle cx="283.843" cy="1.5" r="1.5" fill="#EAEAEA"/>
<circle cx="60.5" cy="26.3159" r="1.5" fill="#EAEAEA"/>
<circle cx="85.3159" cy="26.3159" r="1.5" fill="#EAEAEA"/>
<circle cx="110.132" cy="26.3159" r="1.5" fill="#EAEAEA"/>
<circle cx="134.948" cy="26.3159" r="1.5" fill="#EAEAEA"/>
<circle cx="159.764" cy="26.3159" r="1.5" fill="#EAEAEA"/>
<circle cx="184.58" cy="26.3159" r="1.5" fill="#EAEAEA"/>
<circle cx="209.396" cy="26.3159" r="1.5" fill="#EAEAEA"/>
<circle cx="234.212" cy="26.3159" r="1.5" fill="#EAEAEA"/>
<circle cx="259.027" cy="26.3159" r="1.5" fill="#EAEAEA"/>
<circle cx="283.843" cy="26.3159" r="1.5" fill="#EAEAEA"/>
<circle cx="60.5" cy="51.1318" r="1.5" fill="#EAEAEA"/>
<circle cx="85.3159" cy="51.1318" r="1.5" fill="#EAEAEA"/>
<circle cx="110.132" cy="51.1318" r="1.5" fill="#EAEAEA"/>
<circle cx="134.948" cy="51.1318" r="1.5" fill="#EAEAEA"/>
<circle cx="159.764" cy="51.1318" r="1.5" fill="#EAEAEA"/>
<circle cx="184.58" cy="51.1318" r="1.5" fill="#EAEAEA"/>
<circle cx="209.396" cy="51.1318" r="1.5" fill="#EAEAEA"/>
<circle cx="234.212" cy="51.1318" r="1.5" fill="#EAEAEA"/>
<circle cx="259.027" cy="51.1318" r="1.5" fill="#EAEAEA"/>
<circle cx="283.843" cy="51.1318" r="1.5" fill="#EAEAEA"/>
<circle cx="60.5" cy="75.9482" r="1.5" fill="#EAEAEA"/>
<circle cx="85.3159" cy="75.9482" r="1.5" fill="#EAEAEA"/>
<circle cx="110.132" cy="75.9482" r="1.5" fill="#EAEAEA"/>
<circle cx="134.948" cy="75.9482" r="1.5" fill="#EAEAEA"/>
<circle cx="159.764" cy="75.9482" r="1.5" fill="#EAEAEA"/>
<circle cx="184.58" cy="75.9482" r="1.5" fill="#EAEAEA"/>
<circle cx="209.396" cy="75.9482" r="1.5" fill="#EAEAEA"/>
<circle cx="234.212" cy="75.9482" r="1.5" fill="#EAEAEA"/>
<circle cx="259.027" cy="75.9482" r="1.5" fill="#EAEAEA"/>
<circle cx="283.843" cy="75.9482" r="1.5" fill="#EAEAEA"/>
<circle cx="60.5" cy="100.764" r="1.5" fill="#EAEAEA"/>
<circle cx="85.3159" cy="100.764" r="1.5" fill="#EAEAEA"/>
<circle cx="110.132" cy="100.764" r="1.5" fill="#EAEAEA"/>
<circle cx="134.948" cy="100.764" r="1.5" fill="#EAEAEA"/>
<circle cx="159.764" cy="100.764" r="1.5" fill="#EAEAEA"/>
<circle cx="184.58" cy="100.764" r="1.5" fill="#EAEAEA"/>
<circle cx="209.396" cy="100.764" r="1.5" fill="#EAEAEA"/>
<circle cx="234.212" cy="100.764" r="1.5" fill="#EAEAEA"/>
<circle cx="259.027" cy="100.764" r="1.5" fill="#EAEAEA"/>
<circle cx="283.843" cy="100.764" r="1.5" fill="#EAEAEA"/>
<circle cx="60.5" cy="125.58" r="1.5" fill="#EAEAEA"/>
<circle cx="85.3159" cy="125.58" r="1.5" fill="#EAEAEA"/>
<circle cx="110.132" cy="125.58" r="1.5" fill="#EAEAEA"/>
<circle cx="134.948" cy="125.58" r="1.5" fill="#EAEAEA"/>
<circle cx="159.764" cy="125.58" r="1.5" fill="#EAEAEA"/>
<circle cx="184.58" cy="125.58" r="1.5" fill="#EAEAEA"/>
<circle cx="209.396" cy="125.58" r="1.5" fill="#EAEAEA"/>
<circle cx="234.212" cy="125.58" r="1.5" fill="#EAEAEA"/>
<circle cx="259.027" cy="125.58" r="1.5" fill="#EAEAEA"/>
<circle cx="283.843" cy="125.58" r="1.5" fill="#EAEAEA"/>
<circle cx="60.5" cy="150.396" r="1.5" fill="#EAEAEA"/>
<circle cx="85.3159" cy="150.396" r="1.5" fill="#EAEAEA"/>
<circle cx="110.132" cy="150.396" r="1.5" fill="#EAEAEA"/>
<circle cx="134.948" cy="150.396" r="1.5" fill="#EAEAEA"/>
<circle cx="159.764" cy="150.396" r="1.5" fill="#EAEAEA"/>
<circle cx="184.58" cy="150.396" r="1.5" fill="#EAEAEA"/>
<circle cx="209.396" cy="150.396" r="1.5" fill="#EAEAEA"/>
<circle cx="234.212" cy="150.396" r="1.5" fill="#EAEAEA"/>
<circle cx="259.027" cy="150.396" r="1.5" fill="#EAEAEA"/>
<circle cx="283.843" cy="150.396" r="1.5" fill="#EAEAEA"/>
<circle cx="110.132" cy="175.211" r="1.5" fill="#EAEAEA"/>
<circle cx="134.948" cy="175.211" r="1.5" fill="#EAEAEA"/>
<circle cx="159.764" cy="175.211" r="1.5" fill="#EAEAEA"/>
<circle cx="184.58" cy="175.211" r="1.5" fill="#EAEAEA"/>
<circle cx="209.396" cy="175.211" r="1.5" fill="#EAEAEA"/>
<circle cx="234.212" cy="175.211" r="1.5" fill="#EAEAEA"/>
<circle cx="259.027" cy="175.211" r="1.5" fill="#EAEAEA"/>
<circle cx="283.843" cy="175.211" r="1.5" fill="#EAEAEA"/>
<circle cx="110.132" cy="200.027" r="1.5" fill="#EAEAEA"/>
<circle cx="134.948" cy="200.027" r="1.5" fill="#EAEAEA"/>
<circle cx="159.764" cy="200.027" r="1.5" fill="#EAEAEA"/>
<circle cx="184.58" cy="200.027" r="1.5" fill="#EAEAEA"/>
<circle cx="209.396" cy="200.027" r="1.5" fill="#EAEAEA"/>
<circle cx="234.212" cy="200.027" r="1.5" fill="#EAEAEA"/>
<circle cx="259.027" cy="200.027" r="1.5" fill="#EAEAEA"/>
<circle cx="283.843" cy="200.027" r="1.5" fill="#EAEAEA"/>
<circle cx="60.5" cy="224.843" r="1.5" fill="#EAEAEA"/>
<circle cx="85.3159" cy="224.843" r="1.5" fill="#EAEAEA"/>
<circle cx="110.132" cy="224.843" r="1.5" fill="#EAEAEA"/>
<circle cx="134.948" cy="224.843" r="1.5" fill="#EAEAEA"/>
<circle cx="159.764" cy="224.843" r="1.5" fill="#EAEAEA"/>
<circle cx="184.58" cy="224.843" r="1.5" fill="#EAEAEA"/>
<circle cx="209.396" cy="224.843" r="1.5" fill="#EAEAEA"/>
<circle cx="234.212" cy="224.843" r="1.5" fill="#EAEAEA"/>
<circle cx="259.027" cy="224.843" r="1.5" fill="#EAEAEA"/>
<circle cx="283.843" cy="224.843" r="1.5" fill="#EAEAEA"/>
<rect x="108" y="201" width="46" height="24" rx="2" fill="#DFDFDF"/>
<path d="M120.846 211.125L113.627 220.45H147.386L139.743 203.778L128.489 219.885L120.846 211.125Z" fill="white"/>
<rect x="155" y="177" width="30" height="15.6522" rx="2" fill="#DFDFDF"/>
<path d="M163.378 183.603L158.67 189.685H180.687L175.702 178.812L168.363 189.316L163.378 183.603Z" fill="white"/>
<rect x="42.5" y="170.5" width="55" height="47.9991" stroke="#D0D4DA"/>
<path d="M42 219.001L97.5 170.473" stroke="#D0D4DA" stroke-width="0.5"/>
<path d="M97.5002 218.528L42.0003 170" stroke="#D0D4DA" stroke-width="0.5"/>
<rect x="202.25" y="190.25" width="110.5" height="13.5" rx="2.75" fill="white" stroke="#D0D4DA" stroke-width="0.5"/>
<path d="M307.943 196.126C307.943 197.562 306.739 198.752 305.222 198.752C303.704 198.752 302.5 197.562 302.5 196.126C302.5 194.69 303.704 193.5 305.222 193.5C306.739 193.5 307.943 194.69 307.943 196.126Z" stroke="#D0D4DA"/>
<path d="M303.933 198.627L302.322 201.128" stroke="#D0D4DA"/>
<g filter="url(#filter0_d)">
<rect x="13" y="11" width="124.059" height="33.744" rx="3" fill="white"/>
</g>
<ellipse cx="29.3756" cy="27.872" rx="12.4059" ry="11.9096" fill="#F1F1F1"/>
<rect x="47.7366" y="20.9246" width="51.6085" height="5.95482" rx="2.97741" fill="#D0D4DA"/>
<rect x="47.7366" y="31.8423" width="80.3901" height="2.97741" rx="1.48871" fill="#D0D4DA"/>
<rect x="54" y="62" width="52" height="6" rx="3" fill="#D0D4DA"/>
<rect x="54" y="73" width="59" height="3" rx="1.5" fill="#D0D4DA"/>
<path d="M178 32.05H273C274.629 32.05 275.95 33.3708 275.95 35V162C275.95 163.629 274.629 164.95 273 164.95H178C176.371 164.95 175.05 163.629 175.05 162V35C175.05 33.3708 176.371 32.05 178 32.05Z" fill="white" stroke="#D0D4DA" stroke-width="0.1"/>
<rect x="179" y="37" width="93" height="74" rx="3" fill="url(#paint0_linear)"/>
<circle cx="184" cy="141" r="4" fill="#7540EE"/>
<circle cx="198" cy="141" r="4" fill="#FFAB00"/>
<circle cx="212" cy="141" r="4" fill="#E3D9FC"/>
<circle cx="184" cy="153" r="4" fill="#FF5630"/>
<circle cx="198" cy="153" r="4" fill="#4E5D78"/>
<circle cx="212" cy="153" r="4" fill="#B0B7C3"/>
<circle cx="226" cy="141" r="4" fill="#5B7FFF"/>
<circle cx="240" cy="141" r="4" fill="#8F98AA"/>
<circle cx="254" cy="141" r="4" fill="#5B7FFF"/>
<circle cx="268" cy="141" r="4" fill="#0A1F44"/>
<path d="M179 117C179 116.448 179.448 116 180 116H206C206.552 116 207 116.448 207 117V124C207 124.552 206.552 125 206 125H180C179.448 125 179 124.552 179 124V117Z" fill="white"/>
<path fill-rule="evenodd" clip-rule="evenodd" d="M206 116.2H180C179.558 116.2 179.2 116.558 179.2 117V124C179.2 124.442 179.558 124.8 180 124.8H206C206.442 124.8 206.8 124.442 206.8 124V117C206.8 116.558 206.442 116.2 206 116.2ZM180 116C179.448 116 179 116.448 179 117V124C179 124.552 179.448 125 180 125H206C206.552 125 207 124.552 207 124V117C207 116.448 206.552 116 206 116H180Z" fill="#8F98AA"/>
<path d="M216 117C216 116.448 216.448 116 217 116H229C229.552 116 230 116.448 230 117V124C230 124.552 229.552 125 229 125H217C216.448 125 216 124.552 216 124V117Z" fill="white"/>
<path fill-rule="evenodd" clip-rule="evenodd" d="M229 116.2H217C216.558 116.2 216.2 116.558 216.2 117V124C216.2 124.442 216.558 124.8 217 124.8H229C229.442 124.8 229.8 124.442 229.8 124V117C229.8 116.558 229.442 116.2 229 116.2ZM217 116C216.448 116 216 116.448 216 117V124C216 124.552 216.448 125 217 125H229C229.552 125 230 124.552 230 124V117C230 116.448 229.552 116 229 116H217Z" fill="#8F98AA"/>
<path d="M238 117C238 116.448 238.448 116 239 116H251C251.552 116 252 116.448 252 117V124C252 124.552 251.552 125 251 125H239C238.448 125 238 124.552 238 124V117Z" fill="white"/>
<path fill-rule="evenodd" clip-rule="evenodd" d="M251 116.2H239C238.558 116.2 238.2 116.558 238.2 117V124C238.2 124.442 238.558 124.8 239 124.8H251C251.442 124.8 251.8 124.442 251.8 124V117C251.8 116.558 251.442 116.2 251 116.2ZM239 116C238.448 116 238 116.448 238 117V124C238 124.552 238.448 125 239 125H251C251.552 125 252 124.552 252 124V117C252 116.448 251.552 116 251 116H239Z" fill="#8F98AA"/>
<path d="M258 117C258 116.448 258.448 116 259 116H271C271.552 116 272 116.448 272 117V124C272 124.552 271.552 125 271 125H259C258.448 125 258 124.552 258 124V117Z" fill="white"/>
<path fill-rule="evenodd" clip-rule="evenodd" d="M271 116.2H259C258.558 116.2 258.2 116.558 258.2 117V124C258.2 124.442 258.558 124.8 259 124.8H271C271.442 124.8 271.8 124.442 271.8 124V117C271.8 116.558 271.442 116.2 271 116.2ZM259 116C258.448 116 258 116.448 258 117V124C258 124.552 258.448 125 259 125H271C271.552 125 272 124.552 272 124V117C272 116.448 271.552 116 271 116H259Z" fill="#8F98AA"/>
<path d="M188.352 130H188.705V128.699H190.256V130H190.608V127.091H190.256V128.386H188.705V127.091H188.352V130Z" fill="#8F98AA"/>
<path d="M191.313 130H193.092V129.687H191.666V128.699H192.978V128.386H191.666V127.403H193.069V127.091H191.313V130Z" fill="#8F98AA"/>
<path d="M193.874 127.091H193.46L194.397 128.545L193.46 130H193.874L194.624 128.812H194.647L195.397 130H195.812L194.897 128.545L195.812 127.091H195.397L194.647 128.301H194.624L193.874 127.091Z" fill="#8F98AA"/>
<path d="M185.392 122H185.676L185.808 121.193H186.239L186.284 120.909H185.855L185.974 120.182H186.409L186.454 119.898H186.021L186.153 119.091H185.869L185.737 119.898H184.999L185.131 119.091H184.847L184.714 119.898H184.284L184.239 120.182H184.668L184.548 120.909H184.114L184.068 121.193H184.501L184.369 122H184.653L184.785 121.193H185.524L185.392 122ZM184.832 120.909L184.952 120.182H185.69L185.571 120.909H184.832Z" fill="#2D3034"/>
<path d="M187.79 122.04C188.378 122.047 188.762 121.604 188.762 121.062C188.762 120.5 188.346 120.097 187.847 120.097C187.548 120.097 187.29 120.243 187.131 120.483H187.109C187.11 119.768 187.386 119.358 187.836 119.358C188.143 119.358 188.327 119.551 188.393 119.818H188.739C188.668 119.361 188.325 119.045 187.836 119.045C187.181 119.045 186.779 119.625 186.779 120.659C186.779 121.734 187.313 122.034 187.79 122.04ZM187.79 121.727C187.425 121.727 187.158 121.416 187.16 121.068C187.161 120.72 187.441 120.409 187.802 120.409C188.158 120.409 188.421 120.702 188.421 121.062C188.421 121.432 188.147 121.727 187.79 121.727Z" fill="#2D3034"/>
<path d="M189.372 122H190.423C191.11 122 191.394 121.665 191.394 121.227C191.394 120.767 191.076 120.517 190.809 120.5V120.472C191.059 120.403 191.281 120.239 191.281 119.864C191.281 119.437 190.997 119.091 190.389 119.091H189.372V122ZM189.724 121.687V120.676H190.44C190.821 120.676 191.059 120.932 191.059 121.227C191.059 121.483 190.883 121.687 190.423 121.687H189.724ZM189.724 120.369V119.403H190.389C190.775 119.403 190.946 119.608 190.946 119.864C190.946 120.17 190.696 120.369 190.377 120.369H189.724Z" fill="#2D3034"/>
<path d="M192.888 122.04C193.476 122.047 193.86 121.604 193.86 121.062C193.86 120.5 193.443 120.097 192.945 120.097C192.645 120.097 192.388 120.243 192.229 120.483H192.206C192.208 119.768 192.483 119.358 192.934 119.358C193.24 119.358 193.425 119.551 193.49 119.818H193.837C193.766 119.361 193.422 119.045 192.934 119.045C192.279 119.045 191.877 119.625 191.877 120.659C191.877 121.734 192.411 122.034 192.888 122.04ZM192.888 121.727C192.523 121.727 192.256 121.416 192.257 121.068C192.259 120.72 192.539 120.409 192.899 120.409C193.256 120.409 193.519 120.702 193.519 121.062C193.519 121.432 193.245 121.727 192.888 121.727Z" fill="#2D3034"/>
<path d="M194.469 122H196.248V121.687H194.822V120.699H196.134V120.386H194.822V119.403H196.225V119.091H194.469V122Z" fill="#2D3034"/>
<path d="M196.86 122H197.212V120.699H198.474V120.386H197.212V119.403H198.604V119.091H196.86V122Z" fill="#2D3034"/>
<path d="M200.105 122C200.992 122 201.492 121.449 201.492 120.54C201.492 119.636 200.992 119.091 200.145 119.091H199.208V122H200.105ZM199.56 121.687V119.403H200.122C200.804 119.403 201.151 119.835 201.151 120.54C201.151 121.25 200.804 121.687 200.083 121.687H199.56Z" fill="#2D3034"/>
<path d="M220.324 119.091H219.972L219.244 119.574V119.932L219.955 119.46H219.972V122H220.324V119.091Z" fill="#6A6F79"/>
<path d="M222.109 122.04C222.751 122.04 223.121 121.496 223.121 120.546C223.121 119.602 222.746 119.051 222.109 119.051C221.473 119.051 221.098 119.602 221.098 120.546C221.098 121.496 221.467 122.04 222.109 122.04ZM222.109 121.727C221.686 121.727 221.439 121.303 221.439 120.546C221.439 119.79 221.689 119.358 222.109 119.358C222.53 119.358 222.78 119.79 222.78 120.546C222.78 121.303 222.533 121.727 222.109 121.727Z" fill="#6A6F79"/>
<path d="M223.673 122H224.043L225.338 119.421V119.091H223.474V119.404H224.974V119.426L223.673 122Z" fill="#6A6F79"/>
<path d="M242.324 119.091H241.972L241.244 119.574V119.932L241.955 119.46H241.972V122H242.324V119.091Z" fill="#6A6F79"/>
<path d="M244.183 119.091H243.831L243.104 119.574V119.932L243.814 119.46H243.831V122H244.183V119.091Z" fill="#6A6F79"/>
<path d="M245.969 122.04C246.611 122.04 246.98 121.496 246.98 120.546C246.98 119.602 246.605 119.051 245.969 119.051C245.332 119.051 244.957 119.602 244.957 120.546C244.957 121.496 245.327 122.04 245.969 122.04ZM245.969 121.727C245.546 121.727 245.298 121.303 245.298 120.546C245.298 119.79 245.548 119.358 245.969 119.358C246.389 119.358 246.639 119.79 246.639 120.546C246.639 121.303 246.392 121.727 245.969 121.727Z" fill="#6A6F79"/>
<path d="M261.301 122H263.136V121.688H261.784V121.665L262.437 120.966C262.937 120.431 263.085 120.181 263.085 119.858C263.085 119.409 262.721 119.051 262.21 119.051C261.7 119.051 261.312 119.398 261.312 119.909H261.648C261.648 119.578 261.862 119.358 262.199 119.358C262.514 119.358 262.756 119.551 262.756 119.858C262.756 120.127 262.598 120.325 262.261 120.693L261.301 121.744V122Z" fill="#6A6F79"/>
<path d="M264.632 122.04C265.186 122.04 265.592 121.631 265.592 121.074C265.592 120.51 265.2 120.097 264.666 120.097C264.47 120.097 264.28 120.166 264.16 120.261H264.143L264.246 119.404H265.462V119.091H263.95L263.774 120.523L264.104 120.563C264.224 120.476 264.43 120.413 264.609 120.415C264.98 120.418 265.251 120.699 265.251 121.08C265.251 121.453 264.99 121.727 264.632 121.727C264.334 121.727 264.096 121.536 264.069 121.273H263.729C263.75 121.716 264.132 122.04 264.632 122.04Z" fill="#6A6F79"/>
<path d="M267.139 122.04C267.703 122.04 268.122 121.686 268.122 121.21C268.122 120.841 267.904 120.573 267.537 120.511V120.489C267.831 120.399 268.014 120.158 268.014 119.83C268.014 119.418 267.689 119.051 267.151 119.051C266.648 119.051 266.23 119.361 266.213 119.818H266.554C266.567 119.529 266.843 119.358 267.145 119.358C267.466 119.358 267.674 119.553 267.674 119.847C267.674 120.154 267.433 120.352 267.088 120.352H266.855V120.665H267.088C267.53 120.665 267.776 120.889 267.776 121.21C267.776 121.519 267.507 121.727 267.134 121.727C266.797 121.727 266.53 121.554 266.509 121.273H266.151C266.172 121.73 266.576 122.04 267.139 122.04Z" fill="#6A6F79"/>
<path d="M222.352 130H222.705V128.864H223.341C223.366 128.864 223.391 128.864 223.415 128.862L224.028 130H224.438L223.78 128.798C224.151 128.672 224.324 128.369 224.324 127.983C224.324 127.469 224.017 127.091 223.335 127.091H222.352V130ZM222.705 128.545V127.403H223.324C223.795 127.403 223.977 127.633 223.977 127.983C223.977 128.332 223.795 128.545 223.33 128.545H222.705Z" fill="#8F98AA"/>
<path d="M246.341 128H246.704C246.596 127.438 246.125 127.051 245.511 127.051C244.766 127.051 244.239 127.625 244.239 128.546C244.239 129.466 244.761 130.04 245.534 130.04C246.227 130.04 246.721 129.578 246.721 128.858V128.546H245.614V128.858H246.381C246.371 129.381 246.027 129.71 245.534 129.71C244.994 129.71 244.579 129.301 244.579 128.546C244.579 127.79 244.994 127.381 245.511 127.381C245.932 127.381 246.217 127.618 246.341 128Z" fill="#8F98AA"/>
<path d="M264.352 130H265.403C266.091 130 266.375 129.665 266.375 129.227C266.375 128.767 266.057 128.517 265.79 128.5V128.472C266.04 128.403 266.261 128.239 266.261 127.864C266.261 127.437 265.977 127.091 265.369 127.091H264.352V130ZM264.705 129.687V128.676H265.42C265.801 128.676 266.04 128.932 266.04 129.227C266.04 129.483 265.864 129.687 265.403 129.687H264.705ZM264.705 128.369V127.403H265.369C265.756 127.403 265.926 127.608 265.926 127.864C265.926 128.17 265.676 128.369 265.358 128.369H264.705Z" fill="#8F98AA"/>
<path d="M175 133H276" stroke="#8F98AA" stroke-width="0.1"/>
<g filter="url(#filter1_d)">
<rect x="193" y="71" width="125" height="14" rx="3" fill="white"/>
</g>
<path fill-rule="evenodd" clip-rule="evenodd" d="M199 75.0635V75.7723H206.089V75.0635H199ZM205.38 78.304V76.785C205.38 76.4083 205.051 76.1268 204.671 76.1268H200.418C200.037 76.1268 199.709 76.4083 199.709 76.785V78.304C199.709 78.6807 200.037 78.9622 200.418 78.9622H204.671C205.051 78.9622 205.38 78.6807 205.38 78.304ZM200.418 78.2532V76.8355H204.671V78.2532H200.418ZM199 80.0255V79.3166H206.089V80.0255H199Z" fill="#8F98AA"/>
<path fill-rule="evenodd" clip-rule="evenodd" d="M220.266 74H220.975V81.0886H220.266V74ZM221.987 80.3797H223.506C223.883 80.3797 224.165 80.0513 224.165 79.6709V75.4177C224.165 75.0373 223.883 74.7089 223.506 74.7089H221.987C221.611 74.7089 221.329 75.0373 221.329 75.4177V79.6709C221.329 80.0513 221.611 80.3797 221.987 80.3797ZM222.038 75.4176H223.456V79.6708H222.038V75.4176ZM225.228 74H224.519V81.0886H225.228V74Z" fill="#8F98AA"/>
<path fill-rule="evenodd" clip-rule="evenodd" d="M235.861 74H235.152V81.0886H235.861V74ZM234.798 76.7848V78.3038C234.798 78.6805 234.469 78.962 234.089 78.962H229.481C229.101 78.962 228.772 78.6805 228.772 78.3038V76.7848C228.772 76.4081 229.101 76.1266 229.481 76.1266H234.089C234.469 76.1266 234.798 76.4081 234.798 76.7848ZM229.481 76.8353V78.2531H234.089V76.8353H229.481Z" fill="#8F98AA"/>
<path fill-rule="evenodd" clip-rule="evenodd" d="M250.747 74H250.038V81.0886H250.747V74ZM257.127 76.7848V78.3038C257.127 78.6805 256.798 78.962 256.418 78.962H251.81C251.43 78.962 251.101 78.6805 251.101 78.3038V76.7848C251.101 76.4081 251.43 76.1266 251.81 76.1266H256.418C256.798 76.1266 257.127 76.4081 257.127 76.7848ZM251.81 76.8353V78.2531H256.418V76.8353H251.81Z" fill="#8F98AA"/>
<path fill-rule="evenodd" clip-rule="evenodd" d="M262.797 77.1899V74.7089C262.797 74.3285 263.079 74 263.456 74H264.975C265.351 74 265.633 74.3285 265.633 74.7089V77.1899H267.76V77.8987H265.633V80.3797C265.633 80.7602 265.351 81.0886 264.975 81.0886H263.456C263.079 81.0886 262.797 80.7602 262.797 80.3797V77.8987H260.671V77.1899H262.797ZM264.924 74.7089H263.506V80.3797H264.924V74.7089Z" fill="#8F98AA"/>
<path fill-rule="evenodd" clip-rule="evenodd" d="M271.304 74V74.7089H278.392V74H271.304ZM275.608 81.0886H274.089C273.712 81.0886 273.43 80.7602 273.43 80.3797V75.7722C273.43 75.3917 273.712 75.0633 274.089 75.0633H275.608C275.984 75.0633 276.266 75.3917 276.266 75.7722V80.3797C276.266 80.7602 275.984 81.0886 275.608 81.0886ZM275.557 80.3798V75.7722H274.139V80.3798H275.557Z" fill="#8F98AA"/>
<path fill-rule="evenodd" clip-rule="evenodd" d="M296.873 80.0253H295.354C294.978 80.0253 294.696 79.6969 294.696 79.3165V74.7089C294.696 74.3285 294.978 74 295.354 74H296.873C297.25 74 297.532 74.3285 297.532 74.7089V79.3165C297.532 79.6969 297.25 80.0253 296.873 80.0253ZM296.823 74.7089H295.405V79.3165H296.823V74.7089ZM292.57 80.3797V81.0886H299.658V80.3797H292.57Z" fill="#8F98AA"/>
<path fill-rule="evenodd" clip-rule="evenodd" d="M285.127 78.962H282.646C282.265 78.962 281.937 78.6805 281.937 78.3038V76.7848C281.937 76.4081 282.265 76.1266 282.646 76.1266H285.127V74H285.836V76.1266H288.317C288.697 76.1266 289.025 76.4081 289.025 76.7848V78.3038C289.025 78.6805 288.697 78.962 288.317 78.962H285.836V81.0886H285.127V78.962ZM282.646 76.8354V78.2532H288.317V76.8354H282.646Z" fill="#8F98AA"/>
<path fill-rule="evenodd" clip-rule="evenodd" d="M210.342 74H216.013C216.404 74 216.721 74.3174 216.721 74.7089V80.3797C216.721 80.7712 216.404 81.0886 216.013 81.0886H210.342C209.95 81.0886 209.633 80.7712 209.633 80.3797V74.7089C209.633 74.3174 209.95 74 210.342 74ZM210.342 74.7089V80.3798H216.013V74.7089H210.342ZM213.532 76.481V78.6076H213.886V79.3165H212.468V78.6076H212.823V76.481H212.114V76.8354H211.405V75.7722H214.949V76.8354H214.24V76.481H213.532Z" fill="#8F98AA"/>
<path fill-rule="evenodd" clip-rule="evenodd" d="M311 80.0253C311 79.5624 310.704 79.1685 310.291 79.0225V76.0661C310.704 75.9201 311 75.5263 311 75.0633C311 74.4761 310.524 74 309.937 74C309.474 74 309.08 74.2959 308.934 74.7089H305.269C305.123 74.2959 304.729 74 304.266 74C303.679 74 303.203 74.4761 303.203 75.0633C303.203 75.5263 303.499 75.9201 303.911 76.0661V79.0225C303.499 79.1685 303.203 79.5624 303.203 80.0253C303.203 80.6126 303.679 81.0886 304.266 81.0886C304.729 81.0886 305.123 80.7927 305.269 80.3797H308.934C309.08 80.7927 309.474 81.0886 309.937 81.0886C310.524 81.0886 311 80.6126 311 80.0253ZM309.582 76.0661V79.0225C309.28 79.1293 309.041 79.3688 308.934 79.6709H305.269C305.162 79.3688 304.922 79.1293 304.62 79.0225V76.0661C304.922 75.9593 305.162 75.7198 305.269 75.4177H308.934C309.041 75.7198 309.28 75.9593 309.582 76.0661ZM304.266 75.4177C304.462 75.4177 304.62 75.259 304.62 75.0633C304.62 74.8675 304.462 74.7089 304.266 74.7089C304.07 74.7089 303.911 74.8675 303.911 75.0633C303.911 75.259 304.07 75.4177 304.266 75.4177ZM310.291 75.0633C310.291 75.259 310.133 75.4177 309.937 75.4177C309.741 75.4177 309.582 75.259 309.582 75.0633C309.582 74.8675 309.741 74.7089 309.937 74.7089C310.133 74.7089 310.291 74.8675 310.291 75.0633ZM304.266 80.3797C304.462 80.3797 304.62 80.2211 304.62 80.0253C304.62 79.8296 304.462 79.6709 304.266 79.6709C304.07 79.6709 303.911 79.8296 303.911 80.0253C303.911 80.2211 304.07 80.3797 304.266 80.3797ZM310.291 80.0253C310.291 80.2211 310.133 80.3797 309.937 80.3797C309.741 80.3797 309.582 80.2211 309.582 80.0253C309.582 79.8296 309.741 79.6709 309.937 79.6709C310.133 79.6709 310.291 79.8296 310.291 80.0253Z" fill="#8F98AA"/>
<path d="M43 93.05H67C68.077 93.05 68.95 93.923 68.95 95V119C68.95 120.077 68.077 120.95 67 120.95H43C41.923 120.95 41.05 120.077 41.05 119V95C41.05 93.923 41.923 93.05 43 93.05Z" fill="white" stroke="#D0D4DA" stroke-width="0.1"/>
<path d="M51.4658 103.727V108.713C51.4587 109.274 51.2244 109.565 50.784 109.565C50.3508 109.565 50.1093 109.278 50.088 108.727H48.1136C48.1065 110.403 49.257 111.1 50.6562 111.1C52.2684 111.1 53.4048 110.134 53.4119 108.713V103.727H51.4658Z" fill="#FFAB00"/>
<path d="M58.268 106H60.1572C60.1501 104.573 59.0493 103.628 57.2879 103.628C55.5585 103.628 54.3369 104.558 54.3476 105.943C54.344 107.08 55.1324 107.712 56.4214 107.989L57.1459 108.145C57.9555 108.323 58.2325 108.525 58.2396 108.855C58.2325 109.214 57.9058 109.466 57.2737 109.466C56.5173 109.466 56.0699 109.111 56.0379 108.443H54.1629C54.17 110.269 55.4058 111.085 57.3021 111.085C59.1452 111.085 60.2496 110.29 60.2567 108.855C60.2496 107.747 59.5891 106.97 57.9839 106.625L57.3874 106.497C56.6984 106.352 56.3895 106.149 56.4072 105.801C56.4108 105.482 56.6771 105.247 57.2879 105.247C57.9271 105.247 58.229 105.528 58.268 106Z" fill="#FFAB00"/>
<path d="M77 93.05H101C102.077 93.05 102.95 93.923 102.95 95V119C102.95 120.077 102.077 120.95 101 120.95H77C75.923 120.95 75.05 120.077 75.05 119V95C75.05 93.923 75.923 93.05 77 93.05Z" fill="white" stroke="#D0D4DA" stroke-width="0.1"/>
<path d="M79.4971 113.045H81.4573V110.105H81.4857C81.713 110.659 82.2385 111.071 83.0056 111.071C84.1704 111.071 85.1505 110.162 85.1505 108.273C85.1505 106.298 84.0993 105.474 83.0198 105.474C82.2101 105.474 81.6988 105.943 81.4857 106.497H81.4431V105.545H79.4971V113.045ZM81.4147 108.273C81.4147 107.463 81.7414 106.98 82.2812 106.98C82.8209 106.98 83.1334 107.463 83.1334 108.273C83.1334 109.082 82.8209 109.565 82.2812 109.565C81.7414 109.565 81.4147 109.068 81.4147 108.273Z" fill="#5B7FFF"/>
<path d="M87.9319 107.932C87.9355 107.392 88.248 107.065 88.7274 107.065C89.2281 107.065 89.5122 107.392 89.5086 107.932V111H91.4688V107.52C91.4724 106.326 90.7195 105.474 89.5654 105.474C88.7593 105.474 88.1627 105.886 87.9177 106.582H87.8609V103.727H85.9717V111H87.9319V107.932Z" fill="#5B7FFF"/>
<path d="M92.4365 113.045H94.3968V110.105H94.4252C94.6524 110.659 95.178 111.071 95.945 111.071C97.1098 111.071 98.0899 110.162 98.0899 108.273C98.0899 106.298 97.0388 105.474 95.9592 105.474C95.1496 105.474 94.6382 105.943 94.4252 106.497H94.3825V105.545H92.4365V113.045ZM94.3541 108.273C94.3541 107.463 94.6808 106.98 95.2206 106.98C95.7604 106.98 96.0729 107.463 96.0729 108.273C96.0729 109.082 95.7604 109.565 95.2206 109.565C94.6808 109.565 94.3541 109.068 94.3541 108.273Z" fill="#5B7FFF"/>
<path d="M110 93.05H134C135.077 93.05 135.95 93.923 135.95 95V119C135.95 120.077 135.077 120.95 134 120.95H110C108.923 120.95 108.05 120.077 108.05 119V95C108.05 93.923 108.923 93.05 110 93.05Z" fill="white" stroke="#D0D4DA" stroke-width="0.1"/>
<path d="M113.457 107.932C113.461 107.392 113.773 107.065 114.253 107.065C114.753 107.065 115.038 107.392 115.034 107.932V111H116.994V107.52C116.998 106.326 116.245 105.474 115.091 105.474C114.285 105.474 113.688 105.886 113.443 106.582H113.386V103.727H111.497V111H113.457V107.932Z" fill="#FF8367"/>
<path d="M121.215 105.545H120.277V104.238H118.317V105.545H117.621V106.966H118.317V109.43C118.303 110.574 119.009 111.152 120.362 111.078C120.806 111.053 121.137 110.961 121.314 110.907L121.03 109.53C120.956 109.547 120.764 109.586 120.647 109.586C120.391 109.586 120.277 109.473 120.277 109.246V106.966H121.215V105.545Z" fill="#FF8367"/>
<path d="M122.015 111H123.975V107.818C123.975 107.342 124.223 107.051 124.628 107.051C125.033 107.051 125.296 107.342 125.296 107.818V111H127.171V107.818C127.171 107.342 127.419 107.051 127.824 107.051C128.229 107.051 128.492 107.342 128.492 107.818V111H130.452V107.321C130.452 106.202 129.735 105.474 128.691 105.474C127.881 105.474 127.228 105.915 127.043 106.582H126.986C126.873 105.915 126.262 105.474 125.495 105.474C124.738 105.474 124.16 105.9 123.932 106.582H123.875V105.545H122.015V111Z" fill="#FF8367"/>
<path d="M133.379 103.727H131.419V111H133.379V103.727Z" fill="#FF8367"/>
<path d="M43 126.05H67C68.077 126.05 68.95 126.923 68.95 128V152C68.95 153.077 68.077 153.95 67 153.95H43C41.923 153.95 41.05 153.077 41.05 152V128C41.05 126.923 41.923 126.05 43 126.05Z" fill="white" stroke="#D0D4DA" stroke-width="0.1"/>
<path d="M49.125 144.1C50.7408 144.1 51.7316 143.173 51.7529 141.727H49.9347C49.8921 142.299 49.5831 142.608 49.1535 142.608C48.6385 142.608 48.3012 142.168 48.3012 141.273C48.3012 140.378 48.6385 139.938 49.1535 139.938C49.5867 139.938 49.8814 140.247 49.9347 140.818H51.7529C51.7422 139.398 50.7302 138.475 49.125 138.475C47.3495 138.475 46.2983 139.611 46.2983 141.287C46.2983 142.963 47.3495 144.1 49.125 144.1Z" fill="#5B7FFF"/>
<path d="M57.5475 140.321C57.4977 139.167 56.5389 138.475 54.9622 138.475C53.4033 138.475 52.4409 139.114 52.448 140.25C52.4409 141.11 52.9984 141.66 54.11 141.855L55.0759 142.026C55.502 142.104 55.6938 142.218 55.7009 142.423C55.6938 142.651 55.4345 142.779 55.0759 142.779C54.632 142.779 54.3195 142.587 54.2662 142.239H52.3202C52.4267 143.357 53.3926 144.1 55.0617 144.1C56.5709 144.1 57.6824 143.365 57.6895 142.196C57.6824 141.39 57.1426 140.921 56.0276 140.719L54.9196 140.52C54.5041 140.445 54.3869 140.296 54.394 140.137C54.3869 139.909 54.6675 139.781 55.0048 139.781C55.3919 139.781 55.7151 139.987 55.7435 140.321H57.5475Z" fill="#5B7FFF"/>
<path d="M63.4264 140.321C63.3766 139.167 62.4178 138.475 60.8411 138.475C59.2822 138.475 58.3198 139.114 58.3269 140.25C58.3198 141.11 58.8774 141.66 59.9889 141.855L60.9548 142.026C61.3809 142.104 61.5727 142.218 61.5798 142.423C61.5727 142.651 61.3134 142.779 60.9548 142.779C60.5109 142.779 60.1984 142.587 60.1451 142.239H58.1991C58.3056 143.357 59.2715 144.1 60.9406 144.1C62.4498 144.1 63.5613 143.365 63.5684 142.196C63.5613 141.39 63.0215 140.921 61.9065 140.719L60.7985 140.52C60.383 140.445 60.2658 140.296 60.2729 140.137C60.2658 139.909 60.5464 139.781 60.8837 139.781C61.2708 139.781 61.594 139.987 61.6224 140.321H63.4264Z" fill="#5B7FFF"/>
<path d="M77 126.05H101C102.077 126.05 102.95 126.923 102.95 128V152C102.95 153.077 102.077 153.95 101 153.95H77C75.923 153.95 75.05 153.077 75.05 152V128C75.05 126.923 75.923 126.05 77 126.05Z" fill="white" stroke="#D0D4DA" stroke-width="0.1"/>
<path d="M87.2586 139.455C87.1024 137.651 85.7813 136.628 83.949 136.628C81.9887 136.628 80.4404 137.935 80.4404 140.364C80.4404 142.782 81.9461 144.1 83.949 144.1C86.0796 144.1 87.1592 142.622 87.2586 141.386L85.2558 141.372C85.1563 141.994 84.716 142.381 83.9916 142.381C83.0292 142.381 82.4717 141.699 82.4717 140.364C82.4717 139.1 83.0115 138.347 84.0058 138.347C84.7657 138.347 85.199 138.794 85.2558 139.455H87.2586Z" fill="#D0D4DA"/>
<path d="M90.9669 144H92.3873L92.6608 142.338H93.5947L93.8362 140.918H92.8916L93.0763 139.81H94.0067L94.2481 138.389H93.3071L93.5805 136.727H92.1601L91.8866 138.389H90.7503L91.0237 136.727H89.6032L89.3298 138.389H88.3959L88.1544 139.81H89.099L88.9143 140.918H87.9839L87.7425 142.338H88.6835L88.4101 144H89.8305L90.104 142.338H91.2403L90.9669 144ZM90.3348 140.918L90.5194 139.81H91.6558L91.4711 140.918H90.3348Z" fill="#D0D4DA"/>
<path d="M110 126.05H134C135.077 126.05 135.95 126.923 135.95 128V152C135.95 153.077 135.077 153.95 134 153.95H110C108.923 153.95 108.05 153.077 108.05 152V128C108.05 126.923 108.923 126.05 110 126.05Z" fill="white" stroke="#D0D4DA" stroke-width="0.1"/>
<path d="M119.259 139.455C119.102 137.651 117.781 136.628 115.949 136.628C113.989 136.628 112.44 137.935 112.44 140.364C112.44 142.782 113.946 144.1 115.949 144.1C118.08 144.1 119.159 142.622 119.259 141.386L117.256 141.372C117.156 141.994 116.716 142.381 115.992 142.381C115.029 142.381 114.472 141.699 114.472 140.364C114.472 139.1 115.011 138.347 116.006 138.347C116.766 138.347 117.199 138.794 117.256 139.455H119.259Z" fill="#D0D4DA"/>
<path d="M122.356 143.006H123.947V141.173H125.779V139.582H123.947V137.75H122.356V139.582H120.524V141.173H122.356V143.006Z" fill="#D0D4DA"/>
<path d="M129.29 143.006H130.881V141.173H132.713V139.582H130.881V137.75H129.29V139.582H127.457V141.173H129.29V143.006Z" fill="#D0D4DA"/>
<path d="M15 56.05H39C40.077 56.05 40.95 56.923 40.95 58V82C40.95 83.077 40.077 83.95 39 83.95H15C13.923 83.95 13.05 83.077 13.05 82V58C13.05 56.923 13.923 56.05 15 56.05Z" fill="white" stroke="#D0D4DA" stroke-width="0.1"/>
<path d="M18.824 71.8976L24.1081 74.0141V72.2243L20.7984 71.0808V71.0098L24.1081 69.8663V68.0766L18.824 70.193V71.8976Z" fill="black"/>
<path d="M28.9962 66.3862H27.3343L24.9905 75.0936H26.6525L28.9962 66.3862Z" fill="black"/>
<path d="M35.1628 71.8976V70.193L29.8787 68.0766V69.8663L33.1883 71.0098V71.0808L29.8787 72.2243V74.0141L35.1628 71.8976Z" fill="black"/>
<defs>
<filter id="filter0_d" x="0" y="1" width="150.059" height="59.744" filterUnits="userSpaceOnUse" color-interpolation-filters="sRGB">
<feFlood flood-opacity="0" result="BackgroundImageFix"/>
<feColorMatrix in="SourceAlpha" type="matrix" values="0 0 0 0 0 0 0 0 0 0 0 0 0 0 0 0 0 0 127 0"/>
<feOffset dy="3"/>
<feGaussianBlur stdDeviation="6.5"/>
<feColorMatrix type="matrix" values="0 0 0 0 0 0 0 0 0 0 0 0 0 0 0 0 0 0 0.08 0"/>
<feBlend mode="normal" in2="BackgroundImageFix" result="effect1_dropShadow"/>
<feBlend mode="normal" in="SourceGraphic" in2="effect1_dropShadow" result="shape"/>
</filter>
<filter id="filter1_d" x="180" y="61" width="151" height="40" filterUnits="userSpaceOnUse" color-interpolation-filters="sRGB">
<feFlood flood-opacity="0" result="BackgroundImageFix"/>
<feColorMatrix in="SourceAlpha" type="matrix" values="0 0 0 0 0 0 0 0 0 0 0 0 0 0 0 0 0 0 127 0"/>
<feOffset dy="3"/>
<feGaussianBlur stdDeviation="6.5"/>
<feColorMatrix type="matrix" values="0 0 0 0 0 0 0 0 0 0 0 0 0 0 0 0 0 0 0.12 0"/>
<feBlend mode="normal" in2="BackgroundImageFix" result="effect1_dropShadow"/>
<feBlend mode="normal" in="SourceGraphic" in2="effect1_dropShadow" result="shape"/>
</filter>
<linearGradient id="paint0_linear" x1="256.5" y1="51.3889" x2="189.356" y2="111.554" gradientUnits="userSpaceOnUse">
<stop stop-color="#FF5600"/>
<stop offset="1" stop-color="#FFEC9E"/>
</linearGradient>
</defs>
</svg>
