<svg width="289" height="227" viewBox="0 0 289 227" fill="none" xmlns="http://www.w3.org/2000/svg">
<path d="M248.66 27.5274C249.753 24.3521 247.874 20.4971 244.698 19.4035L220.527 11.0807C217.351 9.98708 213.497 11.8679 212.403 15.0432L204.081 39.2135C202.987 42.3888 204.867 46.2438 208.043 47.3376L220.128 51.4988L224.845 37.8018L220.413 36.276L222.494 30.2332L226.925 31.7591L227.736 29.4048C229.134 25.3444 233.442 22.7375 237.191 24.0285L242.076 25.7104L239.995 31.7532L235.111 30.0713C234.576 29.8872 233.729 30.3215 233.394 31.2936L232.565 33.701L238.608 35.7817L236.527 41.8245L230.484 39.7438L225.768 53.4408L232.214 55.6602C235.39 56.7538 239.244 54.873 240.338 51.6977L248.66 27.5274Z" fill="#06C455"/>
<path d="M277.072 107.027L261.98 101.83C255.847 99.7182 249.139 102.99 247.027 109.123L241.83 124.215C239.718 130.349 242.99 137.057 249.123 139.169L264.215 144.365C270.349 146.477 277.057 143.206 279.169 137.072L284.365 121.98C286.477 115.847 283.205 109.139 277.072 107.027ZM275.412 135.779C274.012 139.847 269.577 142.01 265.509 140.609L250.417 135.413C246.348 134.012 244.185 129.577 245.586 125.509L250.783 110.417C252.184 106.348 256.618 104.185 260.687 105.586L275.779 110.783C279.847 112.184 282.01 116.618 280.609 120.687L275.412 135.779Z" fill="#06C455"/>
<path d="M266.423 113.44C261.098 111.607 255.274 114.447 253.44 119.772C251.607 125.097 254.447 130.921 259.772 132.755C265.097 134.588 270.921 131.748 272.755 126.423C274.588 121.098 271.748 115.274 266.423 113.44ZM261.066 128.998C257.807 127.876 256.075 124.325 257.197 121.066C258.319 117.807 261.87 116.075 265.129 117.197C268.388 118.319 270.121 121.87 268.998 125.129C267.876 128.388 264.325 130.121 261.066 128.998Z" fill="#06C455"/>
<path d="M275.277 119.158C276.555 119.598 277.948 118.919 278.388 117.641C278.828 116.363 278.149 114.97 276.871 114.53C275.593 114.09 274.2 114.769 273.76 116.047C273.32 117.325 273.999 118.718 275.277 119.158Z" fill="#06C455"/>
<mask id="mask0" mask-type="alpha" maskUnits="userSpaceOnUse" x="0" y="0" width="280" height="227">
<rect width="280" height="227" fill="#C4C4C4"/>
</mask>
<g mask="url(#mask0)">
<path d="M143.719 157.523C132.061 191.381 95.163 209.378 61.3051 197.719C27.4472 186.061 9.45075 149.163 21.109 115.305C32.7672 81.4473 69.6653 63.4508 103.523 75.1091C137.381 86.7673 155.377 123.665 143.719 157.523Z" fill="#06C455"/>
<path d="M141.089 55.7923C142.35 52.1293 142.878 48.2539 142.641 44.3871C142.405 40.5203 141.409 36.738 139.71 33.2561C138.012 29.7741 135.645 26.6608 132.743 24.0938C129.842 21.5268 126.463 19.5565 122.8 18.2952C119.137 17.034 115.262 16.5065 111.395 16.743C107.528 16.9795 103.746 17.9754 100.264 19.6736C96.7822 21.3718 93.6688 23.7393 91.1018 26.6407C88.5349 29.5422 86.5645 32.9208 85.3032 36.5838L113.196 46.188L141.089 55.7923Z" fill="#F1F1F1"/>
<circle cx="153.152" cy="131.335" r="97.5" transform="rotate(19 153.152 131.335)" stroke="#E9E9E9"/>
<rect x="217.513" y="82.6362" width="2" height="36" rx="1" transform="rotate(-71 217.513 82.6362)" fill="#06C455"/>
<rect x="223.543" y="80.4819" width="2" height="36" rx="1" transform="rotate(-71 223.543 80.4819)" fill="#06C455"/>
<rect x="229.573" y="78.3276" width="2" height="36" rx="1" transform="rotate(-71 229.573 78.3276)" fill="#06C455"/>
<rect x="236.548" y="76.499" width="2" height="36" rx="1" transform="rotate(-71 236.548 76.499)" fill="#06C455"/>
<rect x="243.524" y="74.6704" width="2" height="36" rx="1" transform="rotate(-71 243.524 74.6704)" fill="#06C455"/>
<g filter="url(#filter0_d)">
<path d="M248.298 93.9062L166.613 331.139C165.722 333.728 164.331 336.117 162.517 338.169C160.703 340.22 158.503 341.894 156.043 343.095C153.582 344.296 150.908 345.001 148.175 345.168C145.442 345.336 142.703 344.963 140.113 344.071L42.8481 310.58C40.259 309.689 37.871 308.296 35.8203 306.481C33.7697 304.667 32.0967 302.466 30.897 300.004C29.6972 297.543 28.9941 294.869 28.828 292.136C28.6619 289.402 29.0359 286.663 29.9287 284.075L111.614 46.8421C113.414 41.6149 117.217 37.3167 122.186 34.8932C127.155 32.4697 132.883 32.1194 138.11 33.9193L235.416 67.4242C240.632 69.2323 244.918 73.0361 247.334 78.0009C249.749 82.9657 250.096 88.6859 248.298 93.9062Z" fill="white"/>
</g>
<path d="M248.298 93.9062L247.171 97.1794L110.487 50.1153L111.614 46.8421C113.414 41.6149 117.217 37.3167 122.186 34.8932C127.155 32.4697 132.883 32.1194 138.11 33.9193L235.416 67.4242C240.632 69.2323 244.918 73.0361 247.334 78.0009C249.749 82.9657 250.096 88.6859 248.298 93.9062Z" fill="white"/>
<path d="M98.2734 82.108L99.3345 82.4733L90.58 107.898L89.5189 107.533C89.2035 107.424 88.9125 107.255 88.6626 107.033C88.4127 106.812 88.2088 106.544 88.0625 106.244C87.9162 105.944 87.8305 105.619 87.8101 105.286C87.7897 104.953 87.8352 104.619 87.9438 104.303L95.0439 83.6831C95.2633 83.046 95.7268 82.5221 96.3324 82.2267C96.9381 81.9313 97.6363 81.8886 98.2734 82.108Z" fill="white"/>
<path d="M85.5229 119.593L86.4538 119.914L81.0736 135.539L80.1427 135.218C79.5879 135.027 79.1316 134.624 78.8744 134.096C78.6171 133.569 78.58 132.961 78.771 132.406L82.7002 120.995C82.7917 120.716 82.9376 120.458 83.1296 120.237C83.3215 120.015 83.5556 119.834 83.8183 119.703C84.0809 119.573 84.3669 119.496 84.6595 119.477C84.9522 119.458 85.2457 119.497 85.5229 119.593Z" fill="white"/>
<path d="M163.216 55.3724C162.949 56.1414 162.46 56.8141 161.811 57.3054C161.162 57.7966 160.381 58.0845 159.569 58.1327C158.756 58.1808 157.947 57.987 157.245 57.5758C156.542 57.1645 155.977 56.5543 155.622 55.8222C155.266 55.0901 155.135 54.2689 155.245 53.4624C155.356 52.6559 155.703 51.9003 156.243 51.2909C156.782 50.6816 157.491 50.2459 158.278 50.0389C159.065 49.8319 159.896 49.8628 160.666 50.1279C161.178 50.3042 161.651 50.5799 162.056 50.9391C162.462 51.2983 162.792 51.734 163.029 52.2211C163.266 52.7083 163.404 53.2374 163.436 53.7782C163.468 54.3189 163.393 54.8607 163.216 55.3724Z" fill="#F1F1F1"/>
<path d="M171.654 58.2784C171.526 58.6506 171.29 58.9764 170.977 59.2147C170.664 59.4529 170.287 59.5929 169.894 59.617C169.501 59.641 169.11 59.548 168.77 59.3497C168.43 59.1514 168.156 58.8567 167.984 58.5029C167.811 58.1491 167.747 57.752 167.8 57.362C167.853 56.972 168.021 56.6064 168.282 56.3116C168.543 56.0168 168.885 55.8059 169.266 55.7057C169.646 55.6055 170.048 55.6204 170.42 55.7486C170.92 55.9204 171.33 56.2835 171.561 56.7579C171.793 57.2324 171.826 57.7793 171.654 58.2784Z" fill="#F1F1F1"/>
<path d="M211.485 69.3841L178.753 58.1135C177.863 57.807 176.893 58.2801 176.587 59.1702L176.094 60.6016C175.787 61.4916 176.26 62.4616 177.15 62.7681L209.883 74.0386C210.773 74.3451 211.743 73.872 212.049 72.982L212.542 71.5506C212.848 70.6605 212.375 69.6905 211.485 69.3841Z" fill="#F1F1F1"/>
<path d="M238.417 94.1089L118.245 52.7304C115.634 51.8313 112.789 53.2192 111.89 55.8301L35.7173 277.051C34.8183 279.662 36.2061 282.507 38.817 283.406L158.989 324.785C161.6 325.684 164.445 324.296 165.344 321.685L241.517 100.464C242.416 97.8533 241.028 95.0079 238.417 94.1089Z" fill="#F1F1F1"/>
<path d="M118.681 80.7296C124.028 82.5896 129.87 79.7631 131.73 74.4165C133.59 69.0698 130.763 63.2277 125.417 61.3678C120.07 59.5078 114.228 62.3343 112.368 67.6809C110.508 73.0276 113.334 78.8697 118.681 80.7296Z" fill="url(#paint0_linear)"/>
<mask id="mask1" mask-type="alpha" maskUnits="userSpaceOnUse" x="109" y="58" width="27" height="27">
<path d="M118.681 80.7296C124.028 82.5896 129.87 79.7631 131.73 74.4165C133.59 69.0698 130.763 63.2277 125.417 61.3678C120.07 59.5078 114.228 62.3343 112.368 67.6809C110.508 73.0276 113.334 78.8697 118.681 80.7296Z" fill="url(#paint1_linear)"/>
</mask>
<g mask="url(#mask1)">
<path d="M134.116 78.5069L127.704 67.1525L115.372 69.8849L121.597 83.2435L134.116 78.5069Z" fill="url(#paint2_linear)"/>
</g>
<path d="M120.985 70.1497C120.883 70.087 120.77 70.0469 120.651 70.032C120.533 70.0171 120.413 70.0278 120.299 70.0635C120.108 70.1656 119.93 70.292 119.771 70.4395C120.221 70.7089 120.637 71.0319 121.009 71.4015C121.114 71.1905 121.195 70.9688 121.251 70.7403C121.261 70.6272 121.242 70.5135 121.196 70.41C121.149 70.3065 121.076 70.2168 120.985 70.1497Z" fill="white"/>
<path d="M127.886 69.5334C128.449 66.8659 127.064 65.8155 124.349 66.0517C122.484 66.2275 114.883 66.3109 115.102 69.0225C115.146 69.5601 115.919 71.2352 116.523 71.5119C117.839 72.1154 117.836 69.9991 119.035 70.1295C119.205 70.1587 119.368 70.2157 119.52 70.2979C119.703 70.1401 120.007 69.8824 120.202 69.8092C120.358 69.7574 120.523 69.7415 120.686 69.7626C120.848 69.7837 121.004 69.8414 121.142 69.9312C121.272 70.0284 121.375 70.1582 121.44 70.3077C121.505 70.4572 121.529 70.6211 121.51 70.7829C121.441 71.0688 121.337 71.3453 121.2 71.6062C121.423 71.8669 121.57 72.1189 121.574 72.3163C121.582 72.8236 120.745 73.4978 120.534 73.9685C120.037 75.0828 120.398 75.8846 121.309 76.6136C123.012 77.9745 124.568 77.5515 125.647 75.6527C126.678 73.8432 127.456 71.576 127.886 69.5334Z" fill="white"/>
<path d="M137.483 78.9841L138.889 79.4734L141.004 73.3964L139.597 72.9071L137.483 78.9841Z" fill="#424242"/>
<path d="M141.783 80.558C143.181 81.0442 144.203 80.7087 144.505 79.8405C145.145 78.0001 142.055 77.7912 142.333 76.9925C142.417 76.7494 142.744 76.649 143.352 76.8604C143.777 77.0084 144.207 77.2553 144.577 77.6758L145.363 76.8692C145.011 76.4547 144.351 76.0595 143.708 75.836C142.345 75.3619 141.329 75.7091 141.021 76.5946C140.372 78.4611 143.465 78.6613 143.199 79.4253C143.109 79.6857 142.817 79.7691 142.192 79.5517C141.619 79.3524 141.049 78.9496 140.725 78.5355L139.936 79.3508C140.27 79.7883 140.993 80.2831 141.783 80.558Z" fill="#424242"/>
<path d="M150.492 76.2885L149.704 78.5544C149.498 78.0546 149.076 77.7032 148.503 77.5039C147.183 77.0448 145.841 77.6291 145.331 79.0962C144.82 80.5634 145.51 81.8543 146.829 82.3134C147.455 82.5308 148.019 82.5033 148.499 82.213L148.312 82.7513L149.606 83.2013L151.847 76.7596L150.492 76.2885ZM147.45 81.2837C146.773 81.0481 146.421 80.3808 146.702 79.5734C146.983 78.766 147.673 78.4611 148.35 78.6966C149.019 78.9292 149.371 79.5965 149.09 80.4039C148.809 81.2113 148.119 81.5162 147.45 81.2837Z" fill="#424242"/>
<path d="M154.34 84.8484L155.981 85.4192L154.799 81.991L157.432 80.6881L155.818 80.1264L153.186 81.313L154.454 77.6668L153.1 77.1957L150.859 83.6373L152.213 84.1084L152.627 82.9191L153.502 82.5032L154.34 84.8484Z" fill="#424242"/>
<path d="M161.247 87.3289C162.732 87.8453 164.155 87.2215 164.645 85.8151C165.134 84.4087 164.405 83.0358 162.92 82.5194C161.436 82.003 160.003 82.6238 159.514 84.0302C159.025 85.4366 159.763 86.8125 161.247 87.3289ZM161.634 86.2177C160.956 85.9821 160.605 85.3148 160.886 84.5074C161.166 83.7 161.856 83.395 162.534 83.6306C163.211 83.8662 163.554 84.5305 163.273 85.3379C162.992 86.1453 162.311 86.4532 161.634 86.2177Z" fill="#424242"/>
<path d="M172.368 85.806C171.665 85.5614 170.957 85.6365 170.418 85.9841C170.266 85.3571 169.798 84.9121 169.147 84.6856C168.548 84.4772 167.955 84.5044 167.469 84.7829L167.656 84.2447L166.362 83.7947L164.738 88.4653L166.092 88.9364L166.907 86.5924C167.197 85.759 167.758 85.5163 168.357 85.7247C168.922 85.921 169.122 86.38 168.859 87.1353L168.002 89.6008L169.356 90.0719L170.171 87.728C170.461 86.8945 171.023 86.6519 171.63 86.8633C172.177 87.0535 172.395 87.5186 172.132 88.2739L171.275 90.7394L172.629 91.2105L173.559 88.5366C174.054 87.1129 173.479 86.1926 172.368 85.806Z" fill="#424242"/>
<path d="M178.331 87.8803C177.697 87.6598 177.074 87.6866 176.571 87.9591L176.761 87.4122L175.468 86.9622L173.843 91.6328L175.197 92.1039L176 89.7947C176.299 88.9352 176.907 88.6989 177.558 88.9254C178.157 89.1338 178.384 89.6019 178.121 90.3572L177.263 92.8227L178.618 93.2938L179.548 90.6199C180.043 89.1962 179.433 88.2638 178.331 87.8803Z" fill="#424242"/>
<path d="M182.374 88.6347C182.877 88.8099 183.331 88.5978 183.488 88.1463C183.633 87.7296 183.403 87.2993 182.899 87.1242C182.396 86.949 181.942 87.1611 181.794 87.5865C181.646 88.0119 181.87 88.4596 182.374 88.6347ZM179.845 93.7209L181.2 94.192L182.824 89.5214L181.47 89.0503L179.845 93.7209Z" fill="#424242"/>
<path d="M150.087 10.029C149.407 10.828 148.505 11.4069 147.495 11.692C146.485 11.9771 145.413 11.9557 144.415 11.6303C143.418 11.305 142.539 10.6905 141.892 9.86485C141.244 9.03921 140.856 8.0397 140.778 6.99329C140.7 5.94687 140.934 4.90077 141.451 3.98785C141.969 3.07493 142.746 2.3364 143.684 1.86606C144.622 1.39573 145.679 1.21481 146.72 1.34629C147.761 1.47777 148.739 1.91571 149.531 2.6045C150.583 3.51948 151.231 4.81237 151.335 6.20244C151.439 7.59251 150.991 8.96755 150.087 10.029Z" fill="#06C455"/>
<path d="M144.178 5.27393L144.445 8.14238L148.974 7.11572" stroke="white" stroke-width="1.06" stroke-linecap="round" stroke-linejoin="round"/>
<path d="M51.2483 105.356C51.2393 106.405 50.9187 107.428 50.3272 108.295C49.7358 109.161 48.9001 109.833 47.9263 110.223C46.9526 110.614 45.8847 110.707 44.8582 110.489C43.8318 110.272 42.8931 109.754 42.1614 109.002C41.4297 108.25 40.938 107.298 40.7487 106.266C40.5594 105.234 40.6811 104.169 41.0983 103.206C41.5155 102.243 42.2095 101.426 43.0919 100.859C43.9744 100.291 45.0056 99.9987 46.0547 100.018C47.4489 100.045 48.7765 100.62 49.7489 101.619C50.7214 102.619 51.2602 103.962 51.2483 105.356Z" fill="white"/>
<path d="M43.667 105.489L45.7058 107.535L48.5244 103.836" stroke="#06C455" stroke-width="1.06" stroke-linecap="round" stroke-linejoin="round"/>
<path d="M9.85009 133.801C9.20915 134.632 8.3358 135.253 7.34095 135.587C6.3461 135.92 5.27464 135.95 4.26261 135.673C3.25058 135.396 2.34364 134.825 1.65699 134.032C0.970328 133.238 0.53492 132.259 0.406051 131.218C0.277183 130.176 0.460672 129.12 0.933212 128.184C1.40575 127.247 2.14603 126.472 3.06003 125.956C3.97404 125.441 5.02054 125.209 6.06664 125.29C7.11273 125.371 8.11124 125.761 8.93535 126.41C10.0307 127.273 10.7412 128.533 10.9125 129.917C11.0838 131.301 10.702 132.697 9.85009 133.801Z" fill="#06C455"/>
<path d="M3.72031 129.328L4.12399 132.188L8.60232 130.953" stroke="white" stroke-width="1.06" stroke-linecap="round" stroke-linejoin="round"/>
<path d="M47.798 70.0801C47.6732 70.4424 47.4439 70.7596 47.1388 70.9915C46.8338 71.2234 46.4669 71.3597 46.0845 71.3831C45.702 71.4065 45.3212 71.3159 44.9902 71.1229C44.6592 70.9299 44.3929 70.643 44.2249 70.2986C44.0569 69.9543 43.9949 69.5678 44.0465 69.1881C44.0982 68.8084 44.2613 68.4526 44.5152 68.1656C44.7691 67.8787 45.1024 67.6734 45.4729 67.5759C45.8435 67.4783 46.2346 67.4928 46.5969 67.6176C46.8383 67.6992 47.0611 67.8279 47.2524 67.9962C47.4437 68.1645 47.5997 68.3691 47.7114 68.5982C47.8231 68.8272 47.8883 69.0761 47.9032 69.3305C47.918 69.5848 47.8823 69.8396 47.798 70.0801Z" fill="white"/>
<path d="M197.075 34.1023C196.951 34.4633 196.723 34.7795 196.419 35.0112C196.116 35.2429 195.751 35.3797 195.37 35.4046C194.989 35.4294 194.609 35.3411 194.278 35.1508C193.947 34.9604 193.68 34.6765 193.509 34.3347C193.339 33.9929 193.274 33.6085 193.322 33.2297C193.369 32.8508 193.528 32.4945 193.777 32.2055C194.027 31.9165 194.356 31.7076 194.724 31.6051C195.092 31.5026 195.481 31.5111 195.844 31.6294C196.089 31.7091 196.315 31.8367 196.51 32.0047C196.704 32.1727 196.864 32.3778 196.978 32.6079C197.093 32.8381 197.16 33.0888 197.177 33.3453C197.194 33.6019 197.159 33.8592 197.075 34.1023Z" fill="white"/>
<path d="M22.0097 39.7409C21.8107 40.319 21.4447 40.8251 20.958 41.1951C20.4713 41.5652 19.8858 41.7827 19.2756 41.82C18.6653 41.8573 18.0577 41.7128 17.5295 41.4048C17.0014 41.0968 16.5764 40.6391 16.3084 40.0896C16.0404 39.5401 15.9414 38.9234 16.0238 38.3176C16.1063 37.7118 16.3665 37.144 16.7716 36.6861C17.1767 36.2282 17.7086 35.9007 18.2998 35.7451C18.8911 35.5894 19.5152 35.6126 20.0933 35.8116C20.4779 35.9426 20.8329 36.1484 21.1377 36.4171C21.4425 36.6858 21.6911 37.0122 21.8692 37.3774C22.0474 37.7426 22.1515 38.1395 22.1756 38.5451C22.1997 38.9508 22.1433 39.3571 22.0097 39.7409Z" fill="white"/>
<path d="M250.915 173.555C250.716 174.134 250.349 174.64 249.862 175.01C249.375 175.381 248.789 175.598 248.178 175.635C247.567 175.671 246.96 175.526 246.431 175.217C245.903 174.908 245.479 174.45 245.211 173.899C244.944 173.349 244.846 172.732 244.93 172.125C245.014 171.519 245.276 170.952 245.682 170.495C246.089 170.037 246.622 169.711 247.214 169.557C247.806 169.403 248.431 169.428 249.009 169.63C249.392 169.762 249.745 169.968 250.049 170.237C250.352 170.506 250.6 170.832 250.777 171.197C250.954 171.561 251.057 171.957 251.081 172.362C251.105 172.767 251.048 173.172 250.915 173.555Z" fill="white"/>
<path d="M72.5813 30.7149C72.3832 31.2895 72.0201 31.7929 71.5375 32.1623C71.0549 32.5316 70.4741 32.7505 69.8678 32.7916C69.2614 32.8327 68.6564 32.6942 68.1284 32.3933C67.6003 32.0924 67.1727 31.6425 66.8989 31.1C66.6251 30.5574 66.5174 29.9461 66.5891 29.3426C66.6608 28.7391 66.9088 28.1702 67.3021 27.7069C67.6954 27.2435 68.2166 26.9064 68.8004 26.7377C69.3843 26.5689 70.0049 26.576 70.5847 26.7581C70.9798 26.8806 71.3461 27.0814 71.6619 27.3485C71.9777 27.6156 72.2364 27.9435 72.4228 28.3128C72.6091 28.682 72.7191 29.085 72.7464 29.4977C72.7736 29.9104 72.7174 30.3244 72.5813 30.7149Z" fill="white"/>
<path d="M30.3027 181.144C30.1036 181.722 29.7376 182.228 29.251 182.598C28.7643 182.969 28.1788 183.186 27.5685 183.223C26.9583 183.261 26.3507 183.116 25.8225 182.808C25.2944 182.5 24.8694 182.042 24.6014 181.493C24.3334 180.943 24.2343 180.327 24.3168 179.721C24.3992 179.115 24.6595 178.547 25.0646 178.089C25.4697 177.632 26.0015 177.304 26.5928 177.148C27.184 176.993 27.8082 177.016 28.3862 177.215C29.1614 177.482 29.7988 178.046 30.1582 178.783C30.5176 179.52 30.5696 180.369 30.3027 181.144Z" fill="white"/>
<path opacity="0.3" d="M30.9621 145.022C30.7631 145.6 30.3971 146.106 29.9104 146.476C29.4237 146.846 28.8382 147.063 28.228 147.101C27.6177 147.138 27.0101 146.994 26.4819 146.686C25.9538 146.378 25.5288 145.92 25.2608 145.37C24.9928 144.821 24.8938 144.204 24.9762 143.598C25.0587 142.993 25.3189 142.425 25.724 141.967C26.1291 141.509 26.661 141.181 27.2522 141.026C27.8435 140.87 28.4676 140.893 29.0457 141.092C29.8209 141.359 30.4583 141.923 30.8177 142.66C31.1771 143.397 31.229 144.246 30.9621 145.022Z" fill="white"/>
<path opacity="0.3" d="M274.817 197.281C274.513 198.171 273.951 198.951 273.204 199.522C272.456 200.092 271.556 200.429 270.617 200.488C269.679 200.547 268.743 200.326 267.93 199.853C267.117 199.38 266.462 198.677 266.049 197.832C265.636 196.987 265.483 196.039 265.609 195.107C265.735 194.174 266.134 193.301 266.757 192.596C267.38 191.891 268.198 191.387 269.108 191.147C270.017 190.907 270.977 190.943 271.867 191.249C273.057 191.659 274.036 192.524 274.589 193.655C275.142 194.786 275.224 196.09 274.817 197.281Z" fill="white"/>
<path opacity="0.3" d="M23.035 234.339C22.7288 235.228 22.1656 236.006 21.4167 236.575C20.6679 237.145 19.767 237.479 18.8281 237.536C17.8893 237.593 16.9547 237.37 16.1426 236.895C15.3304 236.421 14.6774 235.716 14.266 234.87C13.8546 234.024 13.7034 233.075 13.8316 232.143C13.9597 231.212 14.3614 230.339 14.9858 229.635C15.6102 228.932 16.4293 228.43 17.3394 228.192C18.2494 227.954 19.2095 227.992 20.0982 228.3C20.6879 228.503 21.2318 228.82 21.6987 229.234C22.1656 229.648 22.5464 230.149 22.8192 230.71C23.092 231.271 23.2515 231.88 23.2885 232.503C23.3255 233.125 23.2394 233.749 23.035 234.339Z" fill="white"/>
<path opacity="0.3" d="M251.952 37.4792C251.752 38.0577 251.386 38.5641 250.899 38.9342C250.412 39.3044 249.826 39.5216 249.215 39.5584C248.604 39.5952 247.996 39.45 247.468 39.1411C246.94 38.8322 246.515 38.3735 246.248 37.8231C245.981 37.2727 245.883 36.6554 245.967 36.0493C246.05 35.4432 246.312 34.8757 246.719 34.4185C247.125 33.9613 247.659 33.635 248.251 33.481C248.843 33.327 249.467 33.3522 250.045 33.5533C250.429 33.6853 250.782 33.8917 251.086 34.1606C251.389 34.4296 251.636 34.7557 251.813 35.1205C251.991 35.4852 252.094 35.8813 252.118 36.2861C252.141 36.6908 252.085 37.0963 251.952 37.4792Z" fill="white"/>
<path opacity="0.2" d="M226.349 195.756C226.152 196.335 225.787 196.843 225.301 197.215C224.815 197.587 224.23 197.806 223.619 197.845C223.009 197.884 222.4 197.741 221.871 197.434C221.342 197.126 220.916 196.669 220.646 196.12C220.377 195.57 220.277 194.953 220.359 194.347C220.441 193.741 220.701 193.172 221.106 192.714C221.511 192.255 222.043 191.927 222.634 191.771C223.226 191.615 223.85 191.638 224.429 191.837C224.813 191.968 225.167 192.173 225.471 192.441C225.776 192.709 226.024 193.034 226.203 193.398C226.381 193.762 226.486 194.158 226.511 194.563C226.536 194.967 226.481 195.373 226.349 195.756Z" fill="white"/>
<path d="M43.5725 129.129C43.4963 129.103 43.4259 129.062 43.3655 129.008C43.3052 128.955 43.2559 128.89 43.2205 128.818C43.1852 128.745 43.1645 128.667 43.1595 128.586C43.1546 128.506 43.1656 128.425 43.1918 128.349L44.6119 124.225C44.6649 124.071 44.7769 123.944 44.9233 123.873C45.0696 123.801 45.2384 123.791 45.3923 123.844C45.5463 123.897 45.6729 124.009 45.7443 124.155C45.8157 124.302 45.826 124.47 45.773 124.624L44.3668 128.708C44.3449 128.79 44.3064 128.866 44.2539 128.932C44.2013 128.998 44.1357 129.052 44.0612 129.092C43.9867 129.131 43.9048 129.155 43.8208 129.161C43.7367 129.168 43.6522 129.157 43.5725 129.129Z" fill="white"/>
<path d="M46.3446 127.777L42.2206 126.357C42.1443 126.331 42.074 126.29 42.0136 126.236C41.9532 126.183 41.9039 126.118 41.8686 126.046C41.8332 125.973 41.8125 125.895 41.8076 125.814C41.8027 125.734 41.8136 125.653 41.8399 125.577C41.8661 125.5 41.9072 125.43 41.9606 125.37C42.014 125.309 42.0788 125.26 42.1513 125.225C42.2238 125.189 42.3025 125.169 42.383 125.164C42.4635 125.159 42.5441 125.17 42.6204 125.196L46.7444 126.616C46.8206 126.642 46.891 126.683 46.9514 126.737C47.0118 126.79 47.061 126.855 47.0964 126.927C47.1317 127 47.1525 127.079 47.1574 127.159C47.1623 127.24 47.1513 127.32 47.1251 127.396C47.0988 127.473 47.0578 127.543 47.0044 127.603C46.9509 127.664 46.8861 127.713 46.8137 127.748C46.7412 127.784 46.6625 127.805 46.582 127.809C46.5015 127.814 46.4208 127.803 46.3446 127.777Z" fill="white"/>
<path d="M59.4309 85.9282C59.277 85.8752 59.1503 85.7632 59.079 85.6168C59.0076 85.4704 58.9972 85.3017 59.0503 85.1477L60.4668 81.0337C60.5199 80.8797 60.6319 80.7531 60.7782 80.6817C60.9246 80.6103 61.0933 80.6 61.2473 80.653C61.4013 80.706 61.5279 80.8181 61.5993 80.9644C61.6707 81.1108 61.681 81.2795 61.628 81.4335L60.2114 85.5475C60.1584 85.7015 60.0464 85.8281 59.9 85.8995C59.7536 85.9709 59.5849 85.9812 59.4309 85.9282Z" fill="white"/>
<path d="M62.1995 84.586L58.0754 83.166C57.9397 83.0984 57.8332 82.9838 57.7758 82.8435C57.7183 82.7032 57.7139 82.5468 57.7632 82.4034C57.8126 82.2601 57.9124 82.1396 58.044 82.0644C58.1757 81.9892 58.3302 81.9645 58.4787 81.9948L62.6027 83.4148C62.7385 83.4824 62.845 83.597 62.9024 83.7373C62.9599 83.8776 62.9643 84.034 62.915 84.1773C62.8656 84.3207 62.7658 84.4412 62.6342 84.5164C62.5025 84.5915 62.348 84.6163 62.1995 84.586Z" fill="white"/>
<path d="M233.41 226.149C233.256 226.093 233.13 225.979 233.059 225.831C232.989 225.683 232.979 225.514 233.032 225.359L234.449 221.245C234.517 221.109 234.631 221.003 234.772 220.945C234.912 220.888 235.068 220.883 235.212 220.933C235.355 220.982 235.475 221.082 235.551 221.213C235.626 221.345 235.651 221.5 235.62 221.648L234.204 225.762C234.15 225.919 234.036 226.048 233.887 226.12C233.738 226.193 233.566 226.203 233.41 226.149Z" fill="white"/>
<path d="M236.182 224.798L232.067 223.381C231.98 223.363 231.898 223.327 231.826 223.275C231.754 223.223 231.694 223.156 231.65 223.079C231.606 223.002 231.579 222.916 231.571 222.827C231.562 222.739 231.573 222.65 231.602 222.566C231.631 222.482 231.677 222.405 231.738 222.34C231.799 222.276 231.873 222.225 231.956 222.191C232.038 222.157 232.126 222.142 232.215 222.145C232.304 222.148 232.391 222.17 232.471 222.21L236.585 223.626C236.72 223.694 236.827 223.809 236.884 223.949C236.942 224.089 236.946 224.246 236.897 224.389C236.848 224.532 236.748 224.653 236.616 224.728C236.485 224.803 236.33 224.828 236.182 224.798Z" fill="white"/>
<path d="M261.862 150.506C261.708 150.453 261.581 150.341 261.51 150.195C261.438 150.048 261.428 149.88 261.481 149.726L262.901 145.602C262.969 145.466 263.083 145.36 263.223 145.302C263.364 145.245 263.52 145.24 263.663 145.29C263.807 145.339 263.927 145.439 264.002 145.57C264.078 145.702 264.102 145.856 264.072 146.005L262.652 150.129C262.626 150.206 262.584 150.277 262.53 150.338C262.475 150.399 262.41 150.448 262.336 150.483C262.262 150.519 262.182 150.539 262.101 150.543C262.02 150.546 261.938 150.534 261.862 150.506Z" fill="white"/>
<path d="M264.634 149.154L260.52 147.737C260.366 147.684 260.239 147.572 260.168 147.426C260.096 147.28 260.086 147.111 260.139 146.957C260.192 146.803 260.304 146.676 260.451 146.605C260.597 146.534 260.766 146.523 260.92 146.576L265.034 147.993C265.188 148.046 265.314 148.158 265.386 148.304C265.457 148.451 265.467 148.619 265.414 148.773C265.361 148.927 265.249 149.054 265.103 149.125C264.957 149.197 264.788 149.207 264.634 149.154Z" fill="white"/>
<rect x="106.452" y="83.1328" width="63.5195" height="95.2792" transform="rotate(19 106.452 83.1328)" fill="white"/>
<rect x="168.513" y="104.502" width="63.5195" height="95.2792" transform="rotate(19 168.513 104.502)" fill="white"/>
<path opacity="0.5" d="M117.72 134.468L113.818 153.135L93.6921 146.205L101.846 129.002L117.72 134.468Z" fill="#D0D4DA"/>
<path opacity="0.5" fill-rule="evenodd" clip-rule="evenodd" d="M111.775 135.44C111.725 135.465 111.668 135.469 111.618 135.452L111.585 135.431C111.558 135.42 111.535 135.403 111.515 135.382C111.495 135.36 111.48 135.334 111.471 135.305C111.461 135.277 111.457 135.246 111.459 135.215C111.461 135.184 111.469 135.154 111.482 135.126C112.607 132.486 112.872 130.484 112.216 129.386C112.039 129.1 111.8 128.866 111.517 128.7C111.502 128.691 111.486 128.682 111.47 128.673C111.276 128.571 111.078 128.503 110.841 128.467C110.486 128.413 110.125 128.441 109.784 128.548C108.499 128.978 107.438 130.706 106.719 133.485C106.712 133.516 106.699 133.545 106.68 133.57C106.662 133.595 106.639 133.616 106.612 133.632C106.585 133.648 106.555 133.659 106.524 133.663C106.493 133.667 106.461 133.665 106.43 133.657L106.388 133.651C106.332 133.632 106.286 133.592 106.258 133.541C106.23 133.489 106.223 133.429 106.238 133.372C107.003 130.382 108.134 128.608 109.603 128.102C109.919 128.001 110.249 127.956 110.58 127.969C110.588 127.968 110.597 127.968 110.606 127.968C111.01 127.978 111.401 128.088 111.748 128.291C111.91 128.386 112.06 128.499 112.196 128.628C112.202 128.626 112.206 128.625 112.208 128.638C112.208 128.638 112.208 128.639 112.208 128.639C112.359 128.786 112.494 128.952 112.607 129.137C113.348 130.404 113.104 132.483 111.888 135.318C111.865 135.372 111.825 135.416 111.775 135.44Z" fill="#251354"/>
<path d="M143.744 131.755L137.415 162.094L104.617 150.801L117.876 122.848L143.744 131.755Z" fill="#BDC5D1"/>
<path fill-rule="evenodd" clip-rule="evenodd" d="M133.923 133.354C133.842 133.394 133.751 133.401 133.669 133.372L133.615 133.339C133.572 133.321 133.534 133.294 133.502 133.259C133.471 133.224 133.446 133.182 133.431 133.135C133.415 133.089 133.409 133.039 133.412 132.989C133.415 132.939 133.427 132.89 133.448 132.844C135.272 128.566 135.701 125.321 134.639 123.542C134.351 123.079 133.963 122.698 133.506 122.431C133.469 122.409 133.432 122.388 133.394 122.368C133.091 122.213 132.779 122.108 132.409 122.052C131.835 121.965 131.249 122.01 130.697 122.184C128.615 122.88 126.894 125.681 125.729 130.185C125.718 130.234 125.697 130.281 125.667 130.322C125.637 130.363 125.599 130.397 125.556 130.423C125.512 130.449 125.464 130.466 125.413 130.473C125.363 130.479 125.311 130.476 125.262 130.462L125.194 130.453C125.103 130.422 125.027 130.358 124.982 130.275C124.937 130.191 124.925 130.093 124.949 130.001C126.19 125.155 128.022 122.28 130.403 121.46C130.917 121.296 131.454 121.223 131.992 121.245C132.004 121.244 132.017 121.243 132.03 121.244C132.684 121.259 133.318 121.439 133.881 121.768C134.142 121.92 134.385 122.103 134.606 122.313C134.615 122.309 134.622 122.308 134.625 122.329C134.625 122.33 134.625 122.331 134.625 122.332C134.871 122.569 135.088 122.839 135.272 123.137C136.473 125.191 136.078 128.561 134.107 133.155C134.07 133.243 134.005 133.314 133.923 133.354Z" fill="#251354"/>
<path opacity="0.5" d="M178.779 155.492L174.878 174.16L154.752 167.23L162.906 150.026L178.779 155.492Z" fill="#D0D4DA"/>
<path opacity="0.5" fill-rule="evenodd" clip-rule="evenodd" d="M172.835 156.465C172.784 156.49 172.728 156.494 172.677 156.476L172.644 156.456C172.618 156.445 172.594 156.428 172.575 156.406C172.555 156.384 172.54 156.358 172.531 156.33C172.521 156.301 172.517 156.271 172.519 156.24C172.521 156.209 172.528 156.178 172.541 156.15C173.667 153.511 173.931 151.508 173.276 150.41C173.099 150.125 172.859 149.89 172.577 149.725C172.561 149.716 172.546 149.706 172.529 149.698C172.336 149.596 172.137 149.528 171.9 149.492C171.546 149.438 171.185 149.466 170.844 149.573C169.559 150.003 168.497 151.731 167.778 154.51C167.771 154.54 167.759 154.569 167.74 154.594C167.722 154.619 167.698 154.641 167.672 154.657C167.645 154.673 167.615 154.683 167.584 154.687C167.552 154.692 167.521 154.689 167.49 154.681L167.448 154.675C167.392 154.656 167.346 154.617 167.318 154.565C167.29 154.513 167.282 154.453 167.297 154.397C168.063 151.406 169.193 149.633 170.663 149.127C170.978 149.025 171.309 148.981 171.639 148.993C171.648 148.992 171.657 148.992 171.666 148.992C172.07 149.002 172.461 149.113 172.808 149.316C172.97 149.41 173.12 149.523 173.256 149.653C173.261 149.65 173.266 149.65 173.267 149.662C173.267 149.663 173.268 149.663 173.268 149.664C173.419 149.81 173.553 149.977 173.667 150.161C174.408 151.428 174.164 153.507 172.948 156.342C172.925 156.396 172.885 156.44 172.835 156.465Z" fill="#251354"/>
<path d="M204.804 152.78L198.474 183.118L165.676 171.825L178.936 143.873L204.804 152.78Z" fill="#BDC5D1"/>
<path fill-rule="evenodd" clip-rule="evenodd" d="M194.983 154.378C194.902 154.419 194.811 154.425 194.729 154.397L194.675 154.364C194.632 154.346 194.594 154.318 194.562 154.283C194.531 154.248 194.506 154.206 194.491 154.16C194.475 154.113 194.468 154.064 194.471 154.014C194.475 153.964 194.487 153.914 194.508 153.868C196.332 149.591 196.761 146.345 195.699 144.566C195.411 144.103 195.023 143.723 194.566 143.455C194.53 143.434 194.494 143.414 194.458 143.394C194.154 143.238 193.84 143.133 193.469 143.077C192.895 142.989 192.309 143.034 191.757 143.208C189.675 143.905 187.954 146.705 186.789 151.209C186.777 151.259 186.756 151.305 186.727 151.346C186.697 151.387 186.659 151.422 186.615 151.447C186.572 151.473 186.523 151.49 186.473 151.497C186.422 151.504 186.371 151.5 186.322 151.487L186.254 151.478C186.163 151.447 186.087 151.383 186.042 151.299C185.997 151.215 185.985 151.118 186.009 151.026C187.25 146.18 189.082 143.305 191.463 142.485C191.976 142.32 192.514 142.248 193.051 142.269C193.064 142.268 193.077 142.268 193.089 142.268C193.744 142.284 194.378 142.463 194.941 142.792C195.202 142.945 195.445 143.128 195.666 143.338C195.675 143.333 195.681 143.332 195.685 143.353C195.685 143.354 195.685 143.355 195.685 143.356C195.931 143.593 196.148 143.864 196.332 144.162C197.533 146.215 197.138 149.585 195.167 154.18C195.13 154.267 195.064 154.338 194.983 154.378Z" fill="#251354"/>
<rect x="74.3984" y="176.224" width="63.5195" height="95.2792" transform="rotate(19 74.3984 176.224)" fill="white"/>
<rect x="136.459" y="197.593" width="63.5195" height="95.2792" transform="rotate(19 136.459 197.593)" fill="white"/>
<path opacity="0.5" d="M85.666 227.558L81.7645 246.226L61.6384 239.296L69.7925 222.092L85.666 227.558Z" fill="#D0D4DA"/>
<path opacity="0.5" fill-rule="evenodd" clip-rule="evenodd" d="M79.721 228.531C79.6708 228.556 79.6147 228.56 79.564 228.542L79.5308 228.522C79.5045 228.511 79.4808 228.494 79.4613 228.472C79.4417 228.451 79.4267 228.425 79.4171 228.396C79.4074 228.368 79.4034 228.337 79.4053 228.306C79.4072 228.275 79.4149 228.245 79.4279 228.216C80.553 225.577 80.8179 223.575 80.1627 222.477C79.985 222.191 79.7458 221.956 79.4637 221.791C79.4479 221.782 79.432 221.773 79.416 221.764C79.2223 221.662 79.0238 221.594 78.7869 221.558C78.4326 221.504 78.0711 221.532 77.7304 221.639C76.4458 222.069 75.3839 223.797 74.6648 226.576C74.658 226.607 74.645 226.635 74.6266 226.661C74.6083 226.686 74.5849 226.707 74.558 226.723C74.5311 226.739 74.5012 226.75 74.47 226.754C74.4389 226.758 74.4071 226.756 74.3768 226.747L74.3347 226.742C74.2788 226.723 74.2321 226.683 74.2042 226.632C74.1762 226.58 74.169 226.52 74.184 226.463C74.9492 223.473 76.0799 221.699 77.5492 221.193C77.8648 221.092 78.1955 221.047 78.5259 221.06C78.5347 221.059 78.5436 221.058 78.5525 221.059C78.9563 221.068 79.3475 221.179 79.6948 221.382C79.8563 221.476 80.0063 221.59 80.1424 221.719C80.1478 221.716 80.152 221.716 80.1539 221.729C80.1539 221.729 80.154 221.73 80.1541 221.73C80.3057 221.876 80.4398 222.043 80.553 222.227C81.2941 223.494 81.0507 225.574 79.8343 228.409C79.8117 228.463 79.7712 228.506 79.721 228.531Z" fill="#251354"/>
<path d="M111.69 224.846L105.361 255.185L72.5628 243.891L85.8226 215.939L111.69 224.846Z" fill="#BDC5D1"/>
<path fill-rule="evenodd" clip-rule="evenodd" d="M101.87 226.445C101.788 226.485 101.697 226.492 101.615 226.463L101.561 226.43C101.519 226.412 101.48 226.385 101.449 226.35C101.417 226.314 101.393 226.273 101.377 226.226C101.361 226.18 101.355 226.13 101.358 226.08C101.361 226.03 101.373 225.98 101.395 225.935C103.218 221.657 103.647 218.412 102.585 216.633C102.297 216.169 101.91 215.789 101.453 215.521C101.421 215.503 101.389 215.485 101.357 215.468C101.049 215.308 100.732 215.2 100.356 215.143C99.7814 215.056 99.1954 215.101 98.6433 215.275C96.5613 215.971 94.8403 218.772 93.6749 223.276C93.6638 223.325 93.6428 223.372 93.613 223.413C93.5833 223.454 93.5455 223.488 93.5019 223.514C93.4582 223.54 93.4097 223.557 93.3592 223.564C93.3087 223.57 93.2573 223.567 93.2081 223.554L93.1399 223.544C93.0493 223.513 92.9737 223.449 92.9283 223.366C92.883 223.282 92.8713 223.184 92.8956 223.093C94.1359 218.246 95.9683 215.371 98.3497 214.551C98.8622 214.387 99.3991 214.315 99.9357 214.336C99.9491 214.334 99.9624 214.334 99.9758 214.334C100.63 214.35 101.264 214.53 101.827 214.858C102.089 215.011 102.332 215.194 102.552 215.404C102.561 215.4 102.568 215.399 102.571 215.42C102.571 215.421 102.571 215.422 102.571 215.423C102.817 215.66 103.035 215.93 103.218 216.228C104.419 218.282 104.025 221.652 102.053 226.246C102.016 226.334 101.951 226.405 101.87 226.445Z" fill="#251354"/>
<rect x="223.453" y="101.026" width="12.7039" height="1.05866" transform="rotate(19 223.453 101.026)" fill="#06C455"/>
<rect x="222.419" y="104.029" width="12.7039" height="1.05866" transform="rotate(19 222.419 104.029)" fill="#06C455"/>
<rect x="221.385" y="107.032" width="12.7039" height="1.05866" transform="rotate(19 221.385 107.032)" fill="#06C455"/>
<rect x="107.732" y="89.1719" width="48.6983" height="3.17597" transform="rotate(19 107.732 89.1719)" fill="#D0D4DA"/>
<rect x="101.968" y="164.443" width="35.9944" height="10.5866" rx="1.5" transform="rotate(19 101.968 164.443)" fill="#06C455"/>
<rect x="86.9531" y="159.273" width="10.5866" height="10.5866" rx="1.5" transform="rotate(19 86.9531 159.273)" fill="#BDC5D1"/>
<path fill-rule="evenodd" clip-rule="evenodd" d="M89.6646 167.859L87.9676 168.152L89.4049 163.978C89.4902 163.731 89.7418 163.593 89.967 163.67L92.0051 164.372C92.2303 164.449 92.3437 164.713 92.2584 164.961L90.8211 169.135L89.6646 167.859Z" fill="white"/>
<path d="M112.199 174.684L113.202 171.772L113.716 171.949L113.341 173.038L113.363 173.046C113.407 173.002 113.464 172.958 113.532 172.915C113.601 172.871 113.684 172.842 113.781 172.827C113.88 172.812 113.993 172.827 114.121 172.871C114.29 172.929 114.427 173.025 114.533 173.158C114.64 173.291 114.704 173.455 114.726 173.649C114.749 173.843 114.719 174.062 114.636 174.305C114.553 174.544 114.444 174.735 114.307 174.875C114.171 175.016 114.02 175.107 113.854 175.149C113.688 175.19 113.519 175.181 113.347 175.122C113.222 175.079 113.126 175.023 113.058 174.953C112.989 174.882 112.94 174.809 112.91 174.733C112.882 174.657 112.863 174.587 112.854 174.524L112.824 174.514L112.705 174.858L112.199 174.684ZM113.08 173.766C113.007 173.977 112.993 174.164 113.037 174.325C113.081 174.486 113.185 174.594 113.349 174.651C113.519 174.709 113.671 174.687 113.805 174.583C113.939 174.48 114.042 174.326 114.112 174.121C114.182 173.917 114.196 173.735 114.154 173.574C114.112 173.413 114.005 173.303 113.833 173.244C113.668 173.187 113.519 173.207 113.387 173.304C113.255 173.399 113.153 173.553 113.08 173.766Z" fill="white"/>
<path d="M116.407 175.105L116.842 173.84L117.357 174.017L116.605 176.201L116.106 176.029L116.24 175.641L116.217 175.633C116.125 175.738 116.01 175.811 115.87 175.849C115.732 175.889 115.58 175.88 115.416 175.824C115.202 175.75 115.052 175.619 114.965 175.43C114.879 175.24 114.881 175.014 114.971 174.751L115.45 173.361L115.965 173.538L115.514 174.849C115.466 174.987 115.466 175.11 115.514 175.218C115.561 175.325 115.647 175.4 115.77 175.443C115.846 175.469 115.926 175.476 116.01 175.463C116.094 175.451 116.171 175.416 116.241 175.359C116.313 175.301 116.368 175.216 116.407 175.105Z" fill="white"/>
<path d="M117.174 177.308C117.103 177.284 117.04 177.256 116.985 177.224C116.93 177.193 116.887 177.164 116.857 177.137L117.114 176.779C117.216 176.85 117.308 176.887 117.392 176.892C117.475 176.897 117.562 176.848 117.652 176.745L117.737 176.642L117.713 174.14L118.259 174.328L118.194 176.15L118.217 176.158L119.29 174.683L119.839 174.875L118.12 177.018C117.999 177.169 117.861 177.272 117.706 177.328C117.552 177.384 117.375 177.377 117.174 177.308Z" fill="white"/>
<path d="M121.394 176.418L120.953 177.698L120.438 177.521L121.19 175.337L121.682 175.506L121.554 175.877L121.58 175.886C121.672 175.782 121.785 175.713 121.92 175.679C122.056 175.644 122.206 175.655 122.369 175.711C122.594 175.789 122.751 175.923 122.838 176.113C122.926 176.303 122.925 176.529 122.834 176.79L122.355 178.181L121.84 178.004L122.292 176.693C122.342 176.547 122.343 176.419 122.296 176.311C122.249 176.203 122.16 176.126 122.027 176.08C121.891 176.033 121.766 176.039 121.649 176.096C121.533 176.153 121.448 176.26 121.394 176.418Z" fill="white"/>
<path d="M123.816 178.732C123.603 178.658 123.434 178.548 123.31 178.4C123.186 178.252 123.11 178.079 123.082 177.881C123.055 177.682 123.08 177.47 123.157 177.245C123.235 177.02 123.346 176.837 123.489 176.698C123.634 176.558 123.8 176.468 123.989 176.428C124.178 176.387 124.379 176.403 124.593 176.477C124.806 176.55 124.974 176.661 125.098 176.81C125.223 176.958 125.299 177.131 125.326 177.33C125.353 177.528 125.328 177.74 125.25 177.966C125.173 178.191 125.062 178.373 124.919 178.513C124.775 178.653 124.609 178.742 124.419 178.782C124.23 178.822 124.029 178.805 123.816 178.732ZM123.961 178.32C124.078 178.361 124.185 178.362 124.284 178.325C124.383 178.288 124.471 178.222 124.546 178.127C124.622 178.032 124.683 177.918 124.729 177.785C124.775 177.651 124.797 177.524 124.796 177.402C124.795 177.28 124.767 177.173 124.712 177.082C124.657 176.991 124.571 176.926 124.455 176.886C124.337 176.845 124.228 176.844 124.127 176.881C124.027 176.919 123.939 176.985 123.863 177.081C123.787 177.176 123.726 177.29 123.68 177.424C123.634 177.556 123.612 177.684 123.613 177.806C123.615 177.928 123.644 178.033 123.699 178.124C123.756 178.214 123.843 178.28 123.961 178.32Z" fill="white"/>
<path d="M125.706 179.335L125.841 176.938L126.366 177.119L126.221 178.787L126.241 178.794L127.162 177.393L127.681 177.572L127.548 179.234L127.569 179.241L128.473 177.845L128.999 178.026L127.629 179.997L127.092 179.812L127.191 178.195L127.161 178.185L126.244 179.52L125.706 179.335Z" fill="white"/>
<path fill-rule="evenodd" clip-rule="evenodd" d="M105.996 168.647C106.04 168.651 106.084 168.661 106.129 168.676L109.539 170.13C109.85 170.243 110.067 170.608 109.799 170.894C109.747 170.949 109.522 171.171 109.166 171.519C109.02 171.661 108.871 171.807 108.722 171.952L108.578 172.092L108.533 172.135C108.398 172.296 108.197 172.386 107.986 172.381L107.945 172.38L105.423 171.512L105.42 171.51L104.926 171.34C104.781 171.298 104.628 171.373 104.577 171.5L104.495 171.735C104.454 171.881 104.53 172.035 104.655 172.087L104.697 172.101C104.901 171.845 105.251 171.732 105.578 171.845C105.904 171.957 106.111 172.262 106.113 172.589L106.699 172.791C106.903 172.535 107.253 172.421 107.58 172.534C107.994 172.677 108.215 173.129 108.072 173.543C107.929 173.958 107.477 174.178 107.063 174.035C106.736 173.923 106.53 173.618 106.527 173.291L105.941 173.089C105.738 173.346 105.387 173.459 105.061 173.346C104.734 173.234 104.527 172.929 104.525 172.601L104.468 172.582C104.08 172.423 103.873 171.998 103.99 171.578L104.081 171.315C104.238 170.924 104.665 170.715 105.083 170.835L105.429 169.034L105.438 168.998C105.494 168.836 105.478 168.615 105.416 168.488C105.4 168.455 105.3 168.39 105.11 168.325L105.282 167.824C105.593 167.931 105.798 168.065 105.892 168.256C105.947 168.369 105.982 168.504 105.996 168.647ZM107.235 173.535C107.373 173.583 107.524 173.509 107.571 173.371C107.619 173.233 107.546 173.082 107.407 173.035C107.269 172.987 107.118 173.06 107.071 173.199C107.023 173.337 107.097 173.488 107.235 173.535ZM105.569 172.682C105.522 172.82 105.371 172.893 105.233 172.846C105.095 172.798 105.021 172.648 105.069 172.509C105.117 172.371 105.267 172.298 105.405 172.345C105.544 172.393 105.617 172.543 105.569 172.682Z" fill="white"/>
<rect x="164.029" y="185.812" width="35.9944" height="10.5866" rx="1.5" transform="rotate(19 164.029 185.812)" fill="#06C455"/>
<rect x="149.014" y="180.643" width="10.5866" height="10.5866" rx="1.5" transform="rotate(19 149.014 180.643)" fill="#BDC5D1"/>
<path fill-rule="evenodd" clip-rule="evenodd" d="M151.725 189.228L150.028 189.521L151.465 185.347C151.551 185.1 151.802 184.962 152.028 185.039L154.066 185.741C154.291 185.819 154.404 186.082 154.319 186.33L152.882 190.504L151.725 189.228Z" fill="white"/>
<path d="M174.26 196.053L175.262 193.141L175.777 193.318L175.402 194.407L175.423 194.415C175.468 194.371 175.524 194.327 175.592 194.284C175.662 194.24 175.745 194.211 175.842 194.196C175.94 194.182 176.054 194.196 176.182 194.24C176.35 194.298 176.488 194.394 176.593 194.527C176.7 194.66 176.765 194.824 176.787 195.018C176.81 195.213 176.78 195.431 176.696 195.674C176.614 195.914 176.504 196.104 176.368 196.245C176.231 196.385 176.08 196.476 175.914 196.518C175.748 196.559 175.58 196.551 175.408 196.491C175.283 196.448 175.186 196.392 175.118 196.322C175.05 196.252 175.001 196.178 174.971 196.102C174.942 196.026 174.923 195.956 174.914 195.894L174.884 195.883L174.766 196.227L174.26 196.053ZM175.14 195.135C175.068 195.346 175.053 195.533 175.097 195.694C175.142 195.855 175.246 195.963 175.41 196.02C175.579 196.078 175.731 196.056 175.866 195.952C176 195.849 176.102 195.695 176.173 195.49C176.243 195.287 176.257 195.104 176.215 194.943C176.172 194.783 176.066 194.673 175.894 194.613C175.728 194.556 175.579 194.576 175.447 194.673C175.316 194.769 175.213 194.923 175.14 195.135Z" fill="white"/>
<path d="M178.467 196.474L178.903 195.209L179.417 195.386L178.665 197.57L178.166 197.398L178.3 197.01L178.277 197.002C178.186 197.108 178.07 197.18 177.931 197.219C177.792 197.258 177.641 197.249 177.477 197.193C177.263 197.119 177.112 196.988 177.026 196.799C176.94 196.609 176.942 196.383 177.032 196.12L177.511 194.73L178.026 194.907L177.574 196.218C177.526 196.356 177.527 196.479 177.574 196.587C177.622 196.694 177.708 196.77 177.831 196.812C177.907 196.838 177.986 196.845 178.07 196.832C178.154 196.82 178.231 196.785 178.302 196.728C178.374 196.67 178.429 196.585 178.467 196.474Z" fill="white"/>
<path d="M179.234 198.677C179.164 198.653 179.101 198.625 179.045 198.593C178.99 198.562 178.948 198.534 178.918 198.506L179.175 198.148C179.276 198.219 179.369 198.257 179.452 198.261C179.535 198.266 179.622 198.217 179.713 198.114L179.798 198.011L179.773 195.509L180.319 195.697L180.255 197.519L180.277 197.527L181.35 196.052L181.899 196.244L180.18 198.387C180.059 198.538 179.922 198.641 179.767 198.697C179.613 198.753 179.435 198.746 179.234 198.677Z" fill="white"/>
<path d="M183.454 197.788L183.014 199.067L182.499 198.89L183.251 196.706L183.743 196.875L183.615 197.247L183.641 197.255C183.733 197.151 183.846 197.082 183.981 197.048C184.117 197.013 184.266 197.024 184.429 197.08C184.655 197.158 184.811 197.292 184.899 197.482C184.987 197.672 184.985 197.898 184.894 198.159L184.415 199.55L183.901 199.373L184.352 198.062C184.402 197.916 184.404 197.789 184.356 197.68C184.31 197.572 184.22 197.495 184.088 197.449C183.952 197.402 183.826 197.408 183.71 197.465C183.594 197.522 183.509 197.629 183.454 197.788Z" fill="white"/>
<path d="M185.877 200.101C185.663 200.027 185.495 199.917 185.371 199.769C185.246 199.621 185.17 199.448 185.142 199.25C185.115 199.051 185.141 198.839 185.218 198.614C185.296 198.389 185.406 198.206 185.55 198.067C185.694 197.927 185.861 197.837 186.05 197.797C186.239 197.756 186.44 197.772 186.653 197.846C186.866 197.919 187.035 198.03 187.159 198.179C187.284 198.327 187.36 198.5 187.387 198.7C187.414 198.898 187.389 199.109 187.311 199.335C187.234 199.56 187.123 199.742 186.979 199.883C186.836 200.022 186.669 200.111 186.48 200.151C186.291 200.191 186.09 200.174 185.877 200.101ZM186.021 199.689C186.138 199.73 186.246 199.731 186.344 199.694C186.444 199.657 186.531 199.591 186.606 199.496C186.683 199.401 186.744 199.287 186.79 199.154C186.836 199.02 186.858 198.893 186.856 198.771C186.856 198.649 186.828 198.543 186.772 198.451C186.718 198.361 186.632 198.295 186.515 198.255C186.398 198.214 186.289 198.213 186.188 198.25C186.088 198.288 186 198.355 185.923 198.45C185.847 198.545 185.786 198.659 185.74 198.793C185.695 198.925 185.672 199.053 185.674 199.175C185.675 199.297 185.704 199.403 185.76 199.493C185.817 199.583 185.904 199.649 186.021 199.689Z" fill="white"/>
<path d="M187.767 200.704L187.902 198.308L188.426 198.488L188.281 200.156L188.301 200.163L189.223 198.762L189.742 198.941L189.608 200.603L189.629 200.611L190.533 199.214L191.06 199.395L189.689 201.366L189.153 201.181L189.252 199.564L189.222 199.554L188.304 200.889L187.767 200.704Z" fill="white"/>
<path fill-rule="evenodd" clip-rule="evenodd" d="M168.057 190.016C168.101 190.02 168.145 190.03 168.19 190.045L171.599 191.499C171.911 191.612 172.128 191.977 171.86 192.263C171.808 192.318 171.583 192.54 171.226 192.888C171.081 193.031 170.932 193.176 170.783 193.321L170.638 193.461L170.594 193.504C170.459 193.665 170.257 193.755 170.047 193.75L170.006 193.749L167.484 192.881L167.48 192.879L166.986 192.709C166.842 192.667 166.689 192.742 166.637 192.869L166.556 193.104C166.515 193.25 166.59 193.404 166.715 193.456L166.758 193.47C166.962 193.214 167.312 193.101 167.638 193.214C167.965 193.326 168.171 193.631 168.174 193.958L168.76 194.16C168.963 193.904 169.313 193.791 169.64 193.903C170.055 194.046 170.275 194.498 170.133 194.912C169.99 195.327 169.538 195.547 169.123 195.405C168.796 195.292 168.59 194.987 168.588 194.66L168.002 194.459C167.798 194.715 167.448 194.828 167.121 194.715C166.794 194.603 166.588 194.298 166.586 193.971L166.529 193.951C166.141 193.792 165.933 193.367 166.051 192.947L166.142 192.684C166.298 192.293 166.726 192.084 167.144 192.204L167.489 190.403L167.499 190.367C167.555 190.205 167.539 189.984 167.477 189.857C167.461 189.824 167.361 189.759 167.171 189.694L167.343 189.193C167.654 189.3 167.859 189.434 167.952 189.625C168.007 189.738 168.043 189.873 168.057 190.016ZM169.296 194.904C169.434 194.952 169.584 194.878 169.632 194.74C169.68 194.602 169.606 194.451 169.468 194.404C169.33 194.356 169.179 194.43 169.132 194.568C169.084 194.706 169.157 194.857 169.296 194.904ZM167.63 194.051C167.582 194.189 167.432 194.262 167.294 194.215C167.155 194.167 167.082 194.017 167.13 193.878C167.177 193.74 167.328 193.667 167.466 193.714C167.604 193.762 167.678 193.913 167.63 194.051Z" fill="white"/>
<rect x="105.664" y="95.1777" width="28.5838" height="3.17597" transform="rotate(19 105.664 95.1777)" fill="#D0D4DA"/>
<rect x="169.793" y="110.541" width="48.6983" height="3.17597" transform="rotate(19 169.793 110.541)" fill="#D0D4DA"/>
<rect x="167.725" y="116.547" width="28.5838" height="3.17597" transform="rotate(19 167.725 116.547)" fill="#D0D4DA"/>
<rect x="75.678" y="182.263" width="48.6983" height="3.17597" transform="rotate(19 75.678 182.263)" fill="#D0D4DA"/>
<rect x="73.6101" y="188.269" width="28.5838" height="3.17597" transform="rotate(19 73.6101 188.269)" fill="#D0D4DA"/>
<rect x="137.739" y="203.632" width="48.6983" height="3.17597" transform="rotate(19 137.739 203.632)" fill="#D0D4DA"/>
<rect x="135.671" y="209.638" width="28.5838" height="3.17597" transform="rotate(19 135.671 209.638)" fill="#D0D4DA"/>
<path d="M235.721 130.432L236.863 130.825C237.547 131.06 238.111 131.559 238.428 132.21C238.746 132.861 238.792 133.611 238.556 134.296L222.357 181.342C222.121 182.027 221.622 182.591 220.971 182.908C220.32 183.226 219.57 183.272 218.885 183.036L217.744 182.643L235.721 130.432Z" fill="white"/>
</g>
<defs>
<filter id="filter0_d" x="17.1389" y="21.1328" width="243.946" height="335.725" filterUnits="userSpaceOnUse" color-interpolation-filters="sRGB">
<feFlood flood-opacity="0" result="BackgroundImageFix"/>
<feColorMatrix in="SourceAlpha" type="matrix" values="0 0 0 0 0 0 0 0 0 0 0 0 0 0 0 0 0 0 127 0"/>
<feOffset/>
<feGaussianBlur stdDeviation="3"/>
<feColorMatrix type="matrix" values="0 0 0 0 0 0 0 0 0 0 0 0 0 0 0 0 0 0 0.1 0"/>
<feBlend mode="normal" in2="BackgroundImageFix" result="effect1_dropShadow"/>
<feBlend mode="normal" in="SourceGraphic" in2="effect1_dropShadow" result="shape"/>
</filter>
<linearGradient id="paint0_linear" x1="112.678" y1="76.5504" x2="133.572" y2="64.2842" gradientUnits="userSpaceOnUse">
<stop stop-color="#B9F520"/>
<stop offset="0.14" stop-color="#9CED29"/>
<stop offset="0.56" stop-color="#4CD740"/>
<stop offset="0.85" stop-color="#19C94F"/>
<stop offset="1" stop-color="#06C455"/>
</linearGradient>
<linearGradient id="paint1_linear" x1="112.678" y1="76.5504" x2="133.572" y2="64.2842" gradientUnits="userSpaceOnUse">
<stop stop-color="#B9F520"/>
<stop offset="0.14" stop-color="#9CED29"/>
<stop offset="0.56" stop-color="#4CD740"/>
<stop offset="0.85" stop-color="#19C94F"/>
<stop offset="1" stop-color="#06C455"/>
</linearGradient>
<linearGradient id="paint2_linear" x1="119.2" y1="69.3814" x2="133.244" y2="84.3652" gradientUnits="userSpaceOnUse">
<stop stop-opacity="0.3"/>
<stop offset="0.01" stop-opacity="0.3"/>
<stop offset="1" stop-color="#00730D" stop-opacity="0.1"/>
</linearGradient>
</defs>
</svg>
