<svg width="341" height="235" viewBox="0 0 341 235" fill="none" xmlns="http://www.w3.org/2000/svg">
<mask id="mask0" mask-type="alpha" maskUnits="userSpaceOnUse" x="0" y="0" width="341" height="235">
<rect width="341" height="235" fill="#C4C4C4"/>
</mask>
<g mask="url(#mask0)">
<path d="M144.719 157.523C133.061 191.381 96.163 209.378 62.3051 197.719C28.4472 186.061 10.4507 149.163 22.109 115.305C33.7672 81.4473 70.6653 63.4508 104.523 75.1091C138.381 86.7673 156.377 123.665 144.719 157.523Z" fill="#FF8427"/>
<path d="M142.089 55.7923C143.35 52.1293 143.878 48.2539 143.641 44.3871C143.405 40.5203 142.409 36.738 140.711 33.2561C139.012 29.7741 136.645 26.6608 133.744 24.0938C130.842 21.5268 127.463 19.5565 123.801 18.2952C120.138 17.034 116.262 16.5065 112.395 16.743C108.529 16.9795 104.746 17.9754 101.264 19.6736C97.7824 21.3718 94.6691 23.7393 92.1021 26.6407C89.5351 29.5422 87.5647 32.9208 86.3035 36.5838L114.196 46.188L142.089 55.7923Z" fill="#F1F1F1"/>
<circle cx="154.152" cy="131.335" r="97.5" transform="rotate(19 154.152 131.335)" stroke="#E9E9E9"/>
<rect x="218.513" y="82.6362" width="2" height="36" rx="1" transform="rotate(-71 218.513 82.6362)" fill="#FF8427"/>
<rect x="224.543" y="80.4819" width="2" height="36" rx="1" transform="rotate(-71 224.543 80.4819)" fill="#FF8427"/>
<rect x="230.573" y="78.3276" width="2" height="36" rx="1" transform="rotate(-71 230.573 78.3276)" fill="#FF8427"/>
<rect x="237.548" y="76.499" width="2" height="36" rx="1" transform="rotate(-71 237.548 76.499)" fill="#FF8427"/>
<rect x="244.524" y="74.6704" width="2" height="36" rx="1" transform="rotate(-71 244.524 74.6704)" fill="#FF8427"/>
<g filter="url(#filter0_d)">
<path d="M249.298 93.9062L167.613 331.139C166.722 333.728 165.331 336.117 163.517 338.169C161.703 340.22 159.503 341.894 157.043 343.095C154.582 344.296 151.908 345.001 149.175 345.168C146.442 345.336 143.703 344.963 141.113 344.071L43.8481 310.58C41.259 309.689 38.871 308.296 36.8203 306.481C34.7697 304.667 33.0967 302.466 31.897 300.004C30.6972 297.543 29.9941 294.869 29.828 292.136C29.6619 289.402 30.0359 286.663 30.9287 284.075L112.614 46.8421C114.414 41.6149 118.217 37.3167 123.186 34.8932C128.155 32.4697 133.883 32.1194 139.11 33.9193L236.416 67.4242C241.632 69.2323 245.918 73.0361 248.334 78.0009C250.749 82.9657 251.096 88.6859 249.298 93.9062Z" fill="white"/>
</g>
<path d="M249.298 93.9062L248.171 97.1794L111.487 50.1153L112.614 46.8421C114.414 41.6149 118.217 37.3167 123.186 34.8932C128.155 32.4697 133.883 32.1194 139.11 33.9193L236.416 67.4242C241.632 69.2323 245.918 73.0361 248.334 78.0009C250.749 82.9657 251.096 88.6859 249.298 93.9062Z" fill="white"/>
<path d="M99.2734 82.108L100.334 82.4733L91.58 107.898L90.5189 107.533C90.2035 107.424 89.9125 107.255 89.6626 107.033C89.4127 106.812 89.2088 106.544 89.0625 106.244C88.9162 105.944 88.8305 105.619 88.8101 105.286C88.7897 104.953 88.8352 104.619 88.9438 104.303L96.0439 83.6831C96.2633 83.046 96.7268 82.5221 97.3324 82.2267C97.9381 81.9313 98.6363 81.8886 99.2734 82.108Z" fill="white"/>
<path d="M86.5229 119.593L87.4538 119.914L82.0736 135.539L81.1427 135.218C80.5879 135.027 80.1316 134.624 79.8744 134.096C79.6171 133.569 79.58 132.961 79.771 132.406L83.7002 120.995C83.7917 120.716 83.9376 120.458 84.1296 120.237C84.3215 120.015 84.5556 119.834 84.8183 119.703C85.0809 119.573 85.3669 119.496 85.6595 119.477C85.9522 119.458 86.2457 119.497 86.5229 119.593Z" fill="white"/>
<path d="M164.215 55.3724C163.948 56.1414 163.459 56.8141 162.81 57.3054C162.161 57.7966 161.381 58.0845 160.569 58.1327C159.756 58.1808 158.947 57.987 158.245 57.5758C157.542 57.1645 156.977 56.5543 156.621 55.8222C156.265 55.0901 156.134 54.2689 156.245 53.4624C156.356 52.6559 156.703 51.9003 157.242 51.2909C157.782 50.6816 158.491 50.2459 159.278 50.0389C160.065 49.8319 160.896 49.8628 161.666 50.1279C162.178 50.3042 162.65 50.5799 163.056 50.9391C163.461 51.2983 163.792 51.734 164.029 52.2211C164.266 52.7083 164.404 53.2374 164.436 53.7782C164.468 54.3189 164.393 54.8607 164.215 55.3724Z" fill="#F1F1F1"/>
<path d="M172.654 58.2784C172.526 58.6506 172.29 58.9764 171.977 59.2147C171.664 59.4529 171.287 59.5929 170.894 59.617C170.501 59.641 170.11 59.548 169.77 59.3497C169.43 59.1514 169.156 58.8567 168.983 58.5029C168.811 58.1491 168.747 57.752 168.8 57.362C168.853 56.972 169.021 56.6064 169.282 56.3116C169.542 56.0168 169.885 55.8059 170.265 55.7057C170.646 55.6055 171.048 55.6204 171.42 55.7486C171.919 55.9204 172.33 56.2835 172.561 56.7579C172.792 57.2324 172.826 57.7793 172.654 58.2784Z" fill="#F1F1F1"/>
<path d="M212.485 69.3841L179.753 58.1135C178.863 57.807 177.893 58.2801 177.587 59.1702L177.094 60.6016C176.787 61.4916 177.26 62.4616 178.15 62.7681L210.883 74.0386C211.773 74.3451 212.743 73.872 213.049 72.982L213.542 71.5506C213.848 70.6605 213.375 69.6905 212.485 69.3841Z" fill="#F1F1F1"/>
<path d="M239.417 94.1089L119.245 52.7304C116.634 51.8313 113.789 53.2192 112.89 55.8301L36.7173 277.051C35.8183 279.662 37.2061 282.507 39.817 283.406L159.989 324.785C162.6 325.684 165.445 324.296 166.344 321.685L242.517 100.464C243.416 97.8533 242.028 95.0079 239.417 94.1089Z" fill="#F1F1F1"/>
<path d="M151.087 10.029C150.407 10.828 149.505 11.4069 148.495 11.692C147.485 11.9771 146.413 11.9557 145.415 11.6303C144.418 11.305 143.539 10.6905 142.892 9.86485C142.244 9.03921 141.856 8.0397 141.778 6.99329C141.7 5.94687 141.934 4.90077 142.451 3.98785C142.969 3.07493 143.746 2.3364 144.684 1.86606C145.622 1.39573 146.679 1.21481 147.72 1.34629C148.761 1.47777 149.739 1.91571 150.531 2.6045C151.583 3.51948 152.231 4.81237 152.335 6.20244C152.439 7.59251 151.991 8.96755 151.087 10.029Z" fill="#FF8427"/>
<path d="M145.178 5.27393L145.445 8.14238L149.974 7.11572" stroke="white" stroke-width="1.06" stroke-linecap="round" stroke-linejoin="round"/>
<path d="M52.2483 105.356C52.2393 106.405 51.9187 107.428 51.3272 108.295C50.7358 109.161 49.9001 109.833 48.9263 110.223C47.9526 110.614 46.8847 110.707 45.8582 110.489C44.8318 110.272 43.8931 109.754 43.1614 109.002C42.4297 108.25 41.938 107.298 41.7487 106.266C41.5594 105.234 41.6811 104.169 42.0983 103.206C42.5155 102.243 43.2095 101.426 44.0919 100.859C44.9744 100.291 46.0056 99.9987 47.0547 100.018C48.4489 100.045 49.7765 100.62 50.7489 101.619C51.7214 102.619 52.2602 103.962 52.2483 105.356Z" fill="white"/>
<path d="M44.667 105.489L46.7058 107.535L49.5244 103.836" stroke="#FF8427" stroke-width="1.06" stroke-linecap="round" stroke-linejoin="round"/>
<path d="M10.8501 133.802C10.2092 134.632 9.3358 135.254 8.34095 135.587C7.3461 135.92 6.27464 135.951 5.26261 135.674C4.25058 135.397 3.34364 134.826 2.65699 134.032C1.97033 133.239 1.53492 132.259 1.40605 131.218C1.27718 130.177 1.46067 129.121 1.93321 128.184C2.40575 127.247 3.14603 126.472 4.06003 125.957C4.97404 125.442 6.02054 125.21 7.06664 125.29C8.11273 125.371 9.11124 125.761 9.93535 126.41C11.0307 127.274 11.7412 128.534 11.9125 129.918C12.0838 131.302 11.702 132.698 10.8501 133.802Z" fill="#FF8427"/>
<path d="M4.72031 129.328L5.12399 132.188L9.60232 130.953" stroke="white" stroke-width="1.06" stroke-linecap="round" stroke-linejoin="round"/>
<path d="M339.252 138.648C339.365 140.234 339.006 141.818 338.22 143.2C337.434 144.582 336.256 145.7 334.834 146.412C333.413 147.125 331.813 147.401 330.235 147.205C328.657 147.009 327.173 146.35 325.97 145.311C324.766 144.272 323.897 142.9 323.473 141.368C323.049 139.836 323.088 138.212 323.586 136.702C324.083 135.192 325.017 133.863 326.269 132.884C327.522 131.904 329.036 131.317 330.621 131.198C332.754 131.042 334.86 131.74 336.479 133.137C338.097 134.534 339.095 136.516 339.252 138.648Z" fill="#FF8427"/>
<path d="M327.713 139.87L331.104 142.706L334.909 136.694" stroke="white" stroke-width="1.62" stroke-linecap="round" stroke-linejoin="round"/>
<path d="M48.798 70.0801C48.6732 70.4424 48.4439 70.7596 48.1388 70.9915C47.8338 71.2234 47.4669 71.3597 47.0845 71.3831C46.702 71.4065 46.3212 71.3159 45.9902 71.1229C45.6592 70.9299 45.3929 70.643 45.2249 70.2986C45.0569 69.9543 44.9949 69.5678 45.0465 69.1881C45.0982 68.8084 45.2613 68.4526 45.5152 68.1656C45.7691 67.8787 46.1024 67.6734 46.4729 67.5759C46.8435 67.4783 47.2346 67.4928 47.5969 67.6176C47.8383 67.6992 48.0611 67.8279 48.2524 67.9962C48.4437 68.1645 48.5997 68.3691 48.7114 68.5982C48.8231 68.8272 48.8883 69.0761 48.9032 69.3305C48.918 69.5848 48.8823 69.8396 48.798 70.0801Z" fill="white"/>
<path d="M198.075 34.1023C197.951 34.4633 197.723 34.7795 197.419 35.0112C197.116 35.2429 196.751 35.3797 196.37 35.4046C195.989 35.4294 195.609 35.3411 195.278 35.1508C194.947 34.9604 194.68 34.6765 194.509 34.3347C194.339 33.9929 194.274 33.6085 194.322 33.2297C194.369 32.8508 194.528 32.4945 194.777 32.2055C195.027 31.9165 195.356 31.7076 195.724 31.6051C196.092 31.5026 196.481 31.5111 196.844 31.6294C197.089 31.7091 197.315 31.8367 197.51 32.0047C197.704 32.1727 197.864 32.3778 197.978 32.6079C198.093 32.8381 198.16 33.0888 198.177 33.3453C198.194 33.6019 198.159 33.8592 198.075 34.1023Z" fill="white"/>
<path d="M23.0097 39.7409C22.8107 40.319 22.4447 40.8251 21.958 41.1951C21.4713 41.5652 20.8858 41.7827 20.2756 41.82C19.6653 41.8573 19.0577 41.7128 18.5295 41.4048C18.0014 41.0968 17.5764 40.6391 17.3084 40.0896C17.0404 39.5401 16.9414 38.9234 17.0238 38.3176C17.1063 37.7118 17.3665 37.144 17.7716 36.6861C18.1767 36.2282 18.7086 35.9007 19.2998 35.7451C19.8911 35.5894 20.5152 35.6126 21.0933 35.8116C21.4779 35.9426 21.8329 36.1484 22.1377 36.4171C22.4425 36.6858 22.6911 37.0122 22.8692 37.3774C23.0474 37.7426 23.1515 38.1395 23.1756 38.5451C23.1997 38.9508 23.1433 39.3571 23.0097 39.7409Z" fill="white"/>
<path d="M251.915 173.555C251.716 174.134 251.349 174.64 250.862 175.01C250.375 175.381 249.789 175.598 249.178 175.635C248.567 175.671 247.96 175.526 247.431 175.217C246.903 174.908 246.479 174.45 246.211 173.899C245.944 173.349 245.846 172.732 245.93 172.125C246.014 171.519 246.276 170.952 246.682 170.495C247.089 170.037 247.622 169.711 248.214 169.557C248.806 169.403 249.431 169.428 250.009 169.63C250.392 169.762 250.745 169.968 251.049 170.237C251.352 170.506 251.6 170.832 251.777 171.197C251.954 171.561 252.057 171.957 252.081 172.362C252.105 172.767 252.048 173.172 251.915 173.555Z" fill="white"/>
<path d="M73.5813 30.7149C73.3832 31.2895 73.0201 31.7929 72.5375 32.1623C72.0549 32.5316 71.4741 32.7505 70.8678 32.7916C70.2614 32.8327 69.6564 32.6942 69.1284 32.3933C68.6003 32.0924 68.1727 31.6425 67.8989 31.1C67.6251 30.5574 67.5174 29.9461 67.5891 29.3426C67.6608 28.7391 67.9088 28.1702 68.3021 27.7069C68.6954 27.2435 69.2166 26.9064 69.8004 26.7377C70.3843 26.5689 71.0049 26.576 71.5847 26.7581C71.9798 26.8806 72.3461 27.0814 72.6619 27.3485C72.9777 27.6156 73.2364 27.9435 73.4228 28.3128C73.6091 28.682 73.7191 29.085 73.7464 29.4977C73.7736 29.9104 73.7174 30.3244 73.5813 30.7149Z" fill="white"/>
<path d="M31.3027 181.144C31.1036 181.722 30.7376 182.228 30.251 182.598C29.7643 182.969 29.1788 183.186 28.5685 183.223C27.9583 183.261 27.3507 183.116 26.8225 182.808C26.2944 182.5 25.8694 182.042 25.6014 181.493C25.3334 180.943 25.2343 180.327 25.3168 179.721C25.3992 179.115 25.6595 178.547 26.0646 178.089C26.4697 177.632 27.0015 177.304 27.5928 177.148C28.184 176.993 28.8082 177.016 29.3862 177.215C30.1614 177.482 30.7988 178.046 31.1582 178.783C31.5176 179.52 31.5696 180.369 31.3027 181.144Z" fill="white"/>
<path opacity="0.3" d="M31.9621 145.022C31.7631 145.6 31.3971 146.106 30.9104 146.476C30.4237 146.846 29.8382 147.063 29.228 147.101C28.6177 147.138 28.0101 146.994 27.4819 146.686C26.9538 146.378 26.5288 145.92 26.2608 145.37C25.9928 144.821 25.8938 144.204 25.9762 143.598C26.0587 142.993 26.3189 142.425 26.724 141.967C27.1291 141.509 27.661 141.181 28.2522 141.026C28.8435 140.87 29.4676 140.893 30.0457 141.092C30.8209 141.359 31.4583 141.923 31.8177 142.66C32.1771 143.397 32.229 144.246 31.9621 145.022Z" fill="white"/>
<path opacity="0.3" d="M275.817 197.281C275.513 198.171 274.951 198.951 274.204 199.522C273.456 200.092 272.556 200.429 271.617 200.488C270.679 200.547 269.743 200.326 268.93 199.853C268.117 199.38 267.462 198.677 267.049 197.832C266.636 196.987 266.483 196.039 266.609 195.107C266.735 194.174 267.134 193.301 267.757 192.596C268.38 191.891 269.198 191.387 270.108 191.147C271.017 190.907 271.977 190.943 272.867 191.249C274.057 191.659 275.036 192.524 275.589 193.655C276.142 194.786 276.224 196.09 275.817 197.281Z" fill="white"/>
<path opacity="0.3" d="M327.847 83.8131C327.54 84.702 326.978 85.4802 326.229 86.0493C325.481 86.6183 324.581 86.9527 323.642 87.0101C322.704 87.0675 321.77 86.8453 320.958 86.3717C320.145 85.8981 319.492 85.1943 319.08 84.3493C318.668 83.5043 318.515 82.5561 318.642 81.6246C318.769 80.693 319.169 79.82 319.792 79.1159C320.415 78.4118 321.233 77.9082 322.142 77.6689C323.051 77.4295 324.011 77.4651 324.9 77.7712C325.49 77.9744 326.034 78.2919 326.502 78.7055C326.969 79.1191 327.351 79.6208 327.624 80.1818C327.898 80.7429 328.059 81.3523 328.097 81.9754C328.135 82.5985 328.05 83.2229 327.847 83.8131Z" fill="white"/>
<path opacity="0.3" d="M24.035 234.339C23.7288 235.228 23.1656 236.006 22.4167 236.575C21.6679 237.145 20.767 237.479 19.8281 237.536C18.8893 237.593 17.9547 237.37 17.1426 236.895C16.3304 236.421 15.6774 235.716 15.266 234.87C14.8546 234.024 14.7034 233.075 14.8316 232.143C14.9597 231.212 15.3614 230.339 15.9858 229.635C16.6102 228.932 17.4293 228.43 18.3394 228.192C19.2494 227.954 20.2095 227.992 21.0982 228.3C21.6879 228.503 22.2318 228.82 22.6987 229.234C23.1656 229.648 23.5464 230.149 23.8192 230.71C24.092 231.271 24.2515 231.88 24.2885 232.503C24.3255 233.125 24.2394 233.749 24.035 234.339Z" fill="white"/>
<path opacity="0.3" d="M252.952 37.4792C252.752 38.0577 252.386 38.5641 251.899 38.9342C251.412 39.3044 250.826 39.5216 250.215 39.5584C249.604 39.5952 248.996 39.45 248.468 39.1411C247.94 38.8322 247.515 38.3735 247.248 37.8231C246.981 37.2727 246.883 36.6554 246.967 36.0493C247.05 35.4432 247.312 34.8757 247.719 34.4185C248.125 33.9613 248.659 33.635 249.251 33.481C249.843 33.327 250.467 33.3522 251.045 33.5533C251.429 33.6853 251.782 33.8917 252.086 34.1606C252.389 34.4296 252.636 34.7557 252.813 35.1205C252.991 35.4852 253.094 35.8813 253.118 36.2861C253.141 36.6908 253.085 37.0963 252.952 37.4792Z" fill="white"/>
<path opacity="0.2" d="M227.349 195.756C227.152 196.335 226.787 196.843 226.301 197.215C225.815 197.587 225.23 197.806 224.619 197.845C224.009 197.884 223.4 197.741 222.871 197.434C222.342 197.126 221.916 196.669 221.646 196.12C221.377 195.57 221.277 194.953 221.359 194.347C221.441 193.741 221.701 193.172 222.106 192.714C222.511 192.255 223.043 191.927 223.634 191.771C224.226 191.615 224.85 191.638 225.429 191.837C225.813 191.968 226.167 192.173 226.471 192.441C226.776 192.709 227.024 193.034 227.203 193.398C227.381 193.762 227.486 194.158 227.511 194.563C227.536 194.967 227.481 195.373 227.349 195.756Z" fill="white"/>
<path d="M44.5725 129.129C44.4963 129.103 44.4259 129.062 44.3655 129.008C44.3052 128.955 44.2559 128.89 44.2205 128.818C44.1852 128.745 44.1645 128.667 44.1595 128.586C44.1546 128.506 44.1656 128.425 44.1918 128.349L45.6119 124.225C45.6649 124.071 45.7769 123.944 45.9233 123.873C46.0696 123.801 46.2384 123.791 46.3923 123.844C46.5463 123.897 46.6729 124.009 46.7443 124.155C46.8157 124.302 46.826 124.47 46.773 124.624L45.3668 128.708C45.3449 128.79 45.3064 128.866 45.2539 128.932C45.2013 128.998 45.1357 129.052 45.0612 129.092C44.9867 129.131 44.9048 129.155 44.8208 129.161C44.7367 129.168 44.6522 129.157 44.5725 129.129Z" fill="white"/>
<path d="M47.3446 127.777L43.2206 126.357C43.1443 126.331 43.074 126.29 43.0136 126.236C42.9532 126.183 42.9039 126.118 42.8686 126.046C42.8332 125.973 42.8125 125.895 42.8076 125.814C42.8027 125.734 42.8136 125.653 42.8399 125.577C42.8661 125.5 42.9072 125.43 42.9606 125.37C43.014 125.309 43.0788 125.26 43.1513 125.225C43.2238 125.189 43.3025 125.169 43.383 125.164C43.4635 125.159 43.5441 125.17 43.6204 125.196L47.7444 126.616C47.8206 126.642 47.891 126.683 47.9514 126.737C48.0118 126.79 48.061 126.855 48.0964 126.927C48.1317 127 48.1525 127.079 48.1574 127.159C48.1623 127.24 48.1513 127.32 48.1251 127.396C48.0988 127.473 48.0578 127.543 48.0044 127.603C47.9509 127.664 47.8861 127.713 47.8137 127.748C47.7412 127.784 47.6625 127.805 47.582 127.809C47.5015 127.814 47.4208 127.803 47.3446 127.777Z" fill="white"/>
<path d="M60.4309 85.9282C60.277 85.8752 60.1503 85.7632 60.079 85.6168C60.0076 85.4704 59.9972 85.3017 60.0503 85.1477L61.4668 81.0337C61.5199 80.8797 61.6319 80.7531 61.7782 80.6817C61.9246 80.6103 62.0933 80.6 62.2473 80.653C62.4013 80.706 62.5279 80.8181 62.5993 80.9644C62.6707 81.1108 62.681 81.2795 62.628 81.4335L61.2114 85.5475C61.1584 85.7015 61.0464 85.8281 60.9 85.8995C60.7536 85.9709 60.5849 85.9812 60.4309 85.9282Z" fill="white"/>
<path d="M63.1995 84.586L59.0754 83.166C58.9397 83.0984 58.8332 82.9838 58.7758 82.8435C58.7183 82.7032 58.7139 82.5468 58.7632 82.4034C58.8126 82.2601 58.9124 82.1396 59.044 82.0644C59.1757 81.9892 59.3302 81.9645 59.4787 81.9948L63.6027 83.4148C63.7385 83.4824 63.845 83.597 63.9024 83.7373C63.9599 83.8776 63.9643 84.034 63.915 84.1773C63.8656 84.3207 63.7658 84.4412 63.6342 84.5164C63.5025 84.5915 63.348 84.6163 63.1995 84.586Z" fill="white"/>
<path d="M234.41 226.149C234.256 226.093 234.13 225.979 234.059 225.831C233.989 225.683 233.979 225.514 234.032 225.359L235.449 221.245C235.517 221.109 235.631 221.003 235.772 220.945C235.912 220.888 236.068 220.883 236.212 220.933C236.355 220.982 236.475 221.082 236.551 221.213C236.626 221.345 236.651 221.5 236.62 221.648L235.204 225.762C235.15 225.919 235.036 226.048 234.887 226.12C234.738 226.193 234.566 226.203 234.41 226.149Z" fill="white"/>
<path d="M237.182 224.798L233.067 223.381C232.98 223.363 232.898 223.327 232.826 223.275C232.754 223.223 232.694 223.156 232.65 223.079C232.606 223.002 232.579 222.916 232.571 222.827C232.562 222.739 232.573 222.65 232.602 222.566C232.631 222.482 232.677 222.405 232.738 222.34C232.799 222.276 232.873 222.225 232.956 222.191C233.038 222.157 233.126 222.142 233.215 222.145C233.304 222.148 233.391 222.17 233.471 222.21L237.585 223.626C237.72 223.694 237.827 223.809 237.884 223.949C237.942 224.089 237.946 224.246 237.897 224.389C237.848 224.532 237.748 224.653 237.616 224.728C237.485 224.803 237.33 224.828 237.182 224.798Z" fill="white"/>
<path d="M262.862 150.506C262.708 150.453 262.581 150.341 262.51 150.195C262.438 150.048 262.428 149.88 262.481 149.726L263.901 145.602C263.969 145.466 264.083 145.36 264.223 145.302C264.364 145.245 264.52 145.24 264.663 145.29C264.807 145.339 264.927 145.439 265.002 145.57C265.078 145.702 265.102 145.856 265.072 146.005L263.652 150.129C263.626 150.206 263.584 150.277 263.53 150.338C263.475 150.399 263.41 150.448 263.336 150.483C263.262 150.519 263.182 150.539 263.101 150.543C263.02 150.546 262.938 150.534 262.862 150.506Z" fill="white"/>
<path d="M265.634 149.154L261.52 147.737C261.366 147.684 261.239 147.572 261.168 147.426C261.096 147.28 261.086 147.111 261.139 146.957C261.192 146.803 261.304 146.676 261.451 146.605C261.597 146.534 261.766 146.523 261.92 146.576L266.034 147.993C266.188 148.046 266.314 148.158 266.386 148.304C266.457 148.451 266.467 148.619 266.414 148.773C266.361 148.927 266.249 149.054 266.103 149.125C265.957 149.197 265.788 149.207 265.634 149.154Z" fill="white"/>
<rect x="107.452" y="83.1328" width="63.5195" height="95.2792" transform="rotate(19 107.452 83.1328)" fill="white"/>
<rect x="169.513" y="104.502" width="63.5195" height="95.2792" transform="rotate(19 169.513 104.502)" fill="white"/>
<path opacity="0.5" d="M118.72 134.467L114.818 153.135L94.6921 146.205L102.846 129.002L118.72 134.467Z" fill="#D0D4DA"/>
<path opacity="0.5" fill-rule="evenodd" clip-rule="evenodd" d="M112.775 135.44C112.725 135.465 112.668 135.469 112.618 135.451L112.585 135.431C112.558 135.42 112.535 135.403 112.515 135.381C112.495 135.359 112.48 135.334 112.471 135.305C112.461 135.276 112.457 135.246 112.459 135.215C112.461 135.184 112.469 135.153 112.482 135.125C113.607 132.486 113.872 130.483 113.216 129.385C113.039 129.1 112.8 128.865 112.517 128.7C112.502 128.691 112.486 128.682 112.47 128.673C112.276 128.571 112.078 128.503 111.841 128.467C111.486 128.413 111.125 128.441 110.784 128.548C109.499 128.978 108.438 130.706 107.719 133.485C107.712 133.515 107.699 133.544 107.68 133.569C107.662 133.595 107.639 133.616 107.612 133.632C107.585 133.648 107.555 133.658 107.524 133.662C107.493 133.667 107.461 133.664 107.43 133.656L107.388 133.65C107.332 133.631 107.286 133.592 107.258 133.54C107.23 133.488 107.223 133.428 107.238 133.372C108.003 130.382 109.134 128.608 110.603 128.102C110.919 128.001 111.249 127.956 111.58 127.969C111.588 127.968 111.597 127.967 111.606 127.967C112.01 127.977 112.401 128.088 112.748 128.291C112.91 128.385 113.06 128.498 113.196 128.628C113.202 128.625 113.206 128.625 113.208 128.637C113.208 128.638 113.208 128.638 113.208 128.639C113.359 128.785 113.494 128.952 113.607 129.136C114.348 130.403 114.104 132.483 112.888 135.317C112.865 135.371 112.825 135.415 112.775 135.44Z" fill="#251354"/>
<path d="M144.744 131.755L138.415 162.093L105.617 150.8L118.876 122.848L144.744 131.755Z" fill="#BDC5D1"/>
<path fill-rule="evenodd" clip-rule="evenodd" d="M134.923 133.353C134.842 133.394 134.751 133.4 134.669 133.372L134.615 133.339C134.572 133.321 134.534 133.293 134.502 133.258C134.471 133.223 134.446 133.181 134.431 133.135C134.415 133.089 134.409 133.039 134.412 132.989C134.415 132.939 134.427 132.889 134.448 132.843C136.272 128.566 136.701 125.321 135.639 123.541C135.351 123.078 134.963 122.698 134.506 122.43C134.469 122.408 134.432 122.388 134.394 122.367C134.091 122.212 133.779 122.108 133.409 122.052C132.835 121.964 132.249 122.009 131.697 122.183C129.615 122.88 127.894 125.68 126.729 130.184C126.718 130.234 126.697 130.28 126.667 130.321C126.637 130.362 126.599 130.397 126.556 130.423C126.512 130.448 126.464 130.465 126.413 130.472C126.363 130.479 126.311 130.475 126.262 130.462L126.194 130.453C126.103 130.422 126.027 130.358 125.982 130.274C125.937 130.19 125.925 130.093 125.949 130.001C127.19 125.155 129.022 122.28 131.403 121.46C131.917 121.295 132.454 121.223 132.992 121.244C133.004 121.243 133.017 121.243 133.03 121.243C133.684 121.259 134.318 121.438 134.881 121.767C135.142 121.92 135.385 122.103 135.606 122.313C135.615 122.308 135.622 122.307 135.625 122.328C135.625 122.329 135.625 122.33 135.625 122.331C135.871 122.568 136.088 122.839 136.272 123.137C137.473 125.19 137.078 128.561 135.107 133.155C135.07 133.242 135.005 133.313 134.923 133.353Z" fill="#251354"/>
<path opacity="0.5" d="M179.779 155.492L175.878 174.16L155.752 167.23L163.906 150.026L179.779 155.492Z" fill="#D0D4DA"/>
<path opacity="0.5" fill-rule="evenodd" clip-rule="evenodd" d="M173.835 156.465C173.784 156.49 173.728 156.494 173.677 156.476L173.644 156.456C173.618 156.445 173.594 156.428 173.575 156.406C173.555 156.384 173.54 156.358 173.531 156.33C173.521 156.301 173.517 156.271 173.519 156.24C173.521 156.209 173.528 156.178 173.541 156.15C174.667 153.511 174.931 151.508 174.276 150.41C174.099 150.125 173.859 149.89 173.577 149.725C173.561 149.716 173.546 149.706 173.529 149.698C173.336 149.596 173.137 149.528 172.9 149.492C172.546 149.438 172.185 149.466 171.844 149.573C170.559 150.003 169.497 151.731 168.778 154.51C168.771 154.54 168.759 154.569 168.74 154.594C168.722 154.619 168.698 154.641 168.672 154.657C168.645 154.673 168.615 154.683 168.584 154.687C168.552 154.692 168.521 154.689 168.49 154.681L168.448 154.675C168.392 154.656 168.346 154.617 168.318 154.565C168.29 154.513 168.282 154.453 168.297 154.397C169.063 151.406 170.193 149.633 171.663 149.127C171.978 149.025 172.309 148.981 172.639 148.993C172.648 148.992 172.657 148.992 172.666 148.992C173.07 149.002 173.461 149.113 173.808 149.316C173.97 149.41 174.12 149.523 174.256 149.653C174.261 149.65 174.266 149.65 174.267 149.662C174.267 149.663 174.268 149.663 174.268 149.664C174.419 149.81 174.553 149.977 174.667 150.161C175.408 151.428 175.164 153.507 173.948 156.342C173.925 156.396 173.885 156.44 173.835 156.465Z" fill="#251354"/>
<path d="M205.804 152.78L199.474 183.118L166.676 171.825L179.936 143.873L205.804 152.78Z" fill="#BDC5D1"/>
<path fill-rule="evenodd" clip-rule="evenodd" d="M195.983 154.378C195.902 154.419 195.811 154.425 195.729 154.397L195.675 154.364C195.632 154.346 195.594 154.318 195.562 154.283C195.531 154.248 195.506 154.206 195.491 154.16C195.475 154.113 195.468 154.064 195.471 154.014C195.475 153.964 195.487 153.914 195.508 153.868C197.332 149.591 197.761 146.345 196.699 144.566C196.411 144.103 196.023 143.723 195.566 143.455C195.53 143.434 195.494 143.414 195.458 143.394C195.154 143.238 194.84 143.133 194.469 143.077C193.895 142.989 193.309 143.034 192.757 143.208C190.675 143.905 188.954 146.705 187.789 151.209C187.777 151.259 187.756 151.305 187.727 151.346C187.697 151.387 187.659 151.422 187.615 151.447C187.572 151.473 187.523 151.49 187.473 151.497C187.422 151.504 187.371 151.5 187.322 151.487L187.254 151.478C187.163 151.447 187.087 151.383 187.042 151.299C186.997 151.215 186.985 151.118 187.009 151.026C188.25 146.18 190.082 143.305 192.463 142.485C192.976 142.32 193.514 142.248 194.051 142.269C194.064 142.268 194.077 142.268 194.089 142.268C194.744 142.284 195.378 142.463 195.941 142.792C196.202 142.945 196.445 143.128 196.666 143.338C196.675 143.333 196.681 143.332 196.685 143.353C196.685 143.354 196.685 143.355 196.685 143.356C196.931 143.593 197.148 143.864 197.332 144.162C198.533 146.215 198.138 149.585 196.167 154.18C196.13 154.267 196.064 154.338 195.983 154.378Z" fill="#251354"/>
<rect x="75.3984" y="176.224" width="63.5195" height="95.2792" transform="rotate(19 75.3984 176.224)" fill="white"/>
<rect x="137.459" y="197.593" width="63.5195" height="95.2792" transform="rotate(19 137.459 197.593)" fill="white"/>
<path opacity="0.5" d="M86.666 227.558L82.7645 246.226L62.6384 239.296L70.7925 222.092L86.666 227.558Z" fill="#D0D4DA"/>
<path opacity="0.5" fill-rule="evenodd" clip-rule="evenodd" d="M80.721 228.531C80.6708 228.556 80.6147 228.56 80.564 228.542L80.5308 228.522C80.5045 228.511 80.4808 228.494 80.4613 228.472C80.4417 228.451 80.4267 228.425 80.4171 228.396C80.4074 228.368 80.4034 228.337 80.4053 228.306C80.4072 228.275 80.4149 228.245 80.4279 228.216C81.553 225.577 81.8179 223.575 81.1627 222.477C80.985 222.191 80.7458 221.956 80.4637 221.791C80.4479 221.782 80.432 221.773 80.416 221.764C80.2223 221.662 80.0238 221.594 79.7869 221.558C79.4326 221.504 79.0711 221.532 78.7304 221.639C77.4458 222.069 76.3839 223.797 75.6648 226.576C75.658 226.607 75.645 226.635 75.6266 226.661C75.6083 226.686 75.5849 226.707 75.558 226.723C75.5311 226.739 75.5012 226.75 75.47 226.754C75.4389 226.758 75.4071 226.756 75.3768 226.747L75.3347 226.742C75.2788 226.723 75.2321 226.683 75.2042 226.632C75.1762 226.58 75.169 226.52 75.184 226.463C75.9492 223.473 77.0799 221.699 78.5492 221.193C78.8648 221.092 79.1955 221.047 79.5259 221.06C79.5347 221.059 79.5436 221.058 79.5525 221.059C79.9563 221.068 80.3475 221.179 80.6948 221.382C80.8563 221.476 81.0063 221.59 81.1424 221.719C81.1478 221.716 81.152 221.716 81.1539 221.729C81.1539 221.729 81.154 221.73 81.1541 221.73C81.3057 221.876 81.4398 222.043 81.553 222.227C82.2941 223.494 82.0507 225.574 80.8343 228.409C80.8117 228.463 80.7712 228.506 80.721 228.531Z" fill="#251354"/>
<path d="M112.69 224.846L106.361 255.185L73.5628 243.891L86.8226 215.939L112.69 224.846Z" fill="#BDC5D1"/>
<path fill-rule="evenodd" clip-rule="evenodd" d="M102.87 226.445C102.788 226.485 102.697 226.492 102.615 226.463L102.561 226.43C102.519 226.412 102.48 226.385 102.449 226.35C102.417 226.314 102.393 226.273 102.377 226.226C102.361 226.18 102.355 226.13 102.358 226.08C102.361 226.03 102.373 225.98 102.395 225.935C104.218 221.657 104.647 218.412 103.585 216.633C103.297 216.169 102.91 215.789 102.453 215.521C102.421 215.503 102.389 215.485 102.357 215.468C102.049 215.308 101.732 215.2 101.356 215.143C100.781 215.056 100.195 215.101 99.6433 215.275C97.5613 215.971 95.8403 218.772 94.6749 223.276C94.6638 223.325 94.6428 223.372 94.613 223.413C94.5833 223.454 94.5455 223.488 94.5019 223.514C94.4582 223.54 94.4097 223.557 94.3592 223.564C94.3087 223.57 94.2573 223.567 94.2081 223.554L94.1399 223.544C94.0493 223.513 93.9737 223.449 93.9283 223.366C93.883 223.282 93.8713 223.184 93.8956 223.093C95.1359 218.246 96.9683 215.371 99.3497 214.551C99.8622 214.387 100.399 214.315 100.936 214.336C100.949 214.334 100.962 214.334 100.976 214.334C101.63 214.35 102.264 214.53 102.827 214.858C103.089 215.011 103.332 215.194 103.552 215.404C103.561 215.4 103.568 215.399 103.571 215.42C103.571 215.421 103.571 215.422 103.571 215.423C103.817 215.66 104.035 215.93 104.218 216.228C105.419 218.282 105.025 221.652 103.053 226.246C103.016 226.334 102.951 226.405 102.87 226.445Z" fill="#251354"/>
<path d="M175.441 244.214L169.111 274.552L136.313 263.259L149.573 235.307L175.441 244.214Z" fill="#BDC5D1"/>
<path fill-rule="evenodd" clip-rule="evenodd" d="M165.62 245.812C165.538 245.853 165.448 245.859 165.365 245.831L165.312 245.798C165.269 245.78 165.231 245.752 165.199 245.717C165.167 245.682 165.143 245.64 165.127 245.594C165.112 245.548 165.105 245.498 165.108 245.448C165.111 245.398 165.124 245.348 165.145 245.302C166.968 241.025 167.398 237.78 166.336 236C166.048 235.537 165.66 235.157 165.203 234.889C165.168 234.868 165.132 234.849 165.096 234.829C164.792 234.672 164.478 234.567 164.106 234.511C163.532 234.423 162.946 234.468 162.394 234.642C160.312 235.339 158.591 238.139 157.425 242.644C157.414 242.693 157.393 242.739 157.363 242.78C157.334 242.821 157.296 242.856 157.252 242.882C157.209 242.908 157.16 242.924 157.11 242.931C157.059 242.938 157.008 242.935 156.958 242.921L156.89 242.912C156.8 242.881 156.724 242.817 156.679 242.733C156.633 242.649 156.622 242.552 156.646 242.46C157.886 237.614 159.719 234.739 162.1 233.919C162.613 233.755 163.15 233.682 163.687 233.703C163.7 233.702 163.713 233.702 163.726 233.702C164.381 233.718 165.014 233.897 165.577 234.226C165.839 234.379 166.082 234.562 166.302 234.772C166.311 234.767 166.318 234.766 166.321 234.787C166.321 234.788 166.322 234.789 166.322 234.79C166.568 235.027 166.785 235.298 166.968 235.596C168.169 237.649 167.775 241.02 165.803 245.614C165.767 245.701 165.701 245.772 165.62 245.812Z" fill="#251354"/>
<circle cx="117.561" cy="62.8751" r="1.90391" transform="rotate(19 117.561 62.8751)" fill="#FF8427"/>
<ellipse cx="122.961" cy="64.7347" rx="1.77698" ry="1.90391" transform="rotate(19 122.961 64.7347)" fill="#FF8427"/>
<ellipse cx="128.242" cy="66.553" rx="1.77698" ry="1.90391" transform="rotate(19 128.242 66.553)" fill="#FF8427"/>
<circle cx="133.643" cy="68.4127" r="1.90391" transform="rotate(19 133.643 68.4127)" fill="#FF8427"/>
<circle cx="115.66" cy="68.3956" r="1.90391" transform="rotate(19 115.66 68.3956)" fill="#FF8427"/>
<ellipse cx="121.061" cy="70.2552" rx="1.77698" ry="1.90391" transform="rotate(19 121.061 70.2552)" fill="#FF8427"/>
<ellipse cx="126.341" cy="72.0735" rx="1.77698" ry="1.90391" transform="rotate(19 126.341 72.0735)" fill="#FF8427"/>
<circle cx="131.742" cy="73.9332" r="1.90391" transform="rotate(19 131.742 73.9332)" fill="#FF8427"/>
<ellipse cx="113.801" cy="73.7961" rx="1.90391" ry="1.77698" transform="rotate(19 113.801 73.7961)" fill="#FF8427"/>
<circle cx="119.201" cy="75.6557" r="1.77698" transform="rotate(19 119.201 75.6557)" fill="#FF8427"/>
<circle cx="124.482" cy="77.474" r="1.77698" transform="rotate(19 124.482 77.474)" fill="#FF8427"/>
<ellipse cx="129.882" cy="79.3337" rx="1.90391" ry="1.77698" transform="rotate(19 129.882 79.3337)" fill="#FF8427"/>
<path d="M140.416 75.9947C140.596 75.4712 141.019 75.2824 141.464 75.4355C141.897 75.5848 142.062 75.9595 141.898 76.436L141.206 78.4466L141.845 78.6666L142.564 76.579C142.843 75.7671 142.543 75.1881 141.872 74.9571C141.379 74.7871 140.977 74.9047 140.706 75.2007L140.665 75.1867L140.849 74.6526L140.236 74.4414L139.106 77.7234L139.745 77.9434L140.416 75.9947Z" fill="#FF8427"/>
<path d="M144.061 79.5039C144.987 79.8224 145.824 79.3533 146.174 78.3384C146.526 77.317 146.154 76.4315 145.229 76.1129C144.304 75.7943 143.466 76.2635 143.114 77.2848C142.765 78.2997 143.136 79.1853 144.061 79.5039ZM144.248 78.9683C143.644 78.7601 143.543 78.1352 143.76 77.5049C143.977 76.8767 144.443 76.4396 145.047 76.6478C145.648 76.8546 145.746 77.4859 145.529 78.114C145.312 78.7444 144.849 79.175 144.248 78.9683Z" fill="#FF8427"/>
<path d="M145.903 81.4407L146.542 81.6607L147.142 79.9193L147.18 79.9325C147.224 80.1816 147.333 80.6279 147.931 80.8339C148.726 81.1076 149.522 80.6695 149.888 79.6076C150.254 78.5435 149.884 77.7159 149.092 77.4429C148.483 77.2332 148.135 77.5292 147.951 77.6932L147.898 77.6748L148.081 77.1428L147.457 76.928L145.903 81.4407ZM147.518 78.7845C147.754 78.0986 148.21 77.7465 148.768 77.9386C149.347 78.1379 149.469 78.7273 149.245 79.379C149.018 80.0371 148.546 80.4362 147.976 80.2398C147.426 80.0507 147.281 79.4747 147.518 78.7845Z" fill="#FF8427"/>
<path d="M154.743 79.8048C154.916 78.8175 154.371 78.0181 153.446 77.6995C152.314 77.3096 151.186 77.8702 150.704 79.2698C150.223 80.6693 150.762 81.8038 151.898 82.1952C152.86 82.5262 153.77 82.1657 154.211 81.3497L153.546 81.118C153.239 81.6388 152.663 81.7846 152.11 81.5941C151.36 81.3358 150.992 80.5661 151.36 79.4956C151.726 78.4337 152.491 78.0446 153.245 78.3043C153.803 78.4963 154.163 78.9715 154.077 79.5753L154.743 79.8048Z" fill="#FF8427"/>
<path d="M155.825 83.5544C156.75 83.8729 157.588 83.4038 157.938 82.3889C158.289 81.3676 157.918 80.482 156.993 80.1634C156.067 79.8449 155.229 80.314 154.878 81.3353C154.528 82.3503 154.9 83.2358 155.825 83.5544ZM156.012 83.0188C155.407 82.8106 155.307 82.1857 155.524 81.5554C155.74 80.9272 156.206 80.4901 156.811 80.6984C157.411 80.9051 157.509 81.5364 157.293 82.1646C157.076 82.7949 156.612 83.2255 156.012 83.0188Z" fill="#FF8427"/>
<path d="M158.091 84.2605L158.73 84.4804L159.426 82.457C159.579 82.0147 159.994 81.8137 160.358 81.9388C160.712 82.0609 160.877 82.3805 160.754 82.7374L160.003 84.9189L160.64 85.1382L161.36 83.0464C161.496 82.6511 161.836 82.4479 162.253 82.5914C162.591 82.7076 162.804 82.9913 162.651 83.4357L161.913 85.5767L162.552 85.7967L163.31 83.5959C163.568 82.8459 163.278 82.3278 162.684 82.1232C162.212 81.9606 161.779 82.065 161.501 82.361L161.466 82.3492C161.447 81.9409 161.221 81.6193 160.783 81.4684C160.349 81.3191 159.952 81.4238 159.691 81.7378L159.65 81.7238L159.834 81.1897L159.221 80.9785L158.091 84.2605Z" fill="#FF8427"/>
<path d="M163.408 86.0915L164.047 86.3115L164.744 84.288C164.896 83.8457 165.312 83.6447 165.675 83.7698C166.03 83.8919 166.195 84.2116 166.072 84.5684L165.321 86.75L165.958 86.9692L166.678 84.8774C166.814 84.4821 167.154 84.2789 167.571 84.4224C167.908 84.5386 168.121 84.8223 167.968 85.2667L167.231 87.4077L167.87 87.6277L168.628 85.4269C168.886 84.6769 168.596 84.1588 168.002 83.9543C167.53 83.7917 167.097 83.896 166.818 84.192L166.784 84.1802C166.764 83.772 166.538 83.4503 166.1 83.2995C165.666 83.1501 165.27 83.2548 165.008 83.5688L164.968 83.5549L165.152 83.0207L164.539 82.8095L163.408 86.0915Z" fill="#FF8427"/>
<path d="M170.118 88.4758C170.834 88.7223 171.461 88.5441 171.791 88.06L171.224 87.7428C171.001 88.0129 170.669 88.0753 170.306 87.9503C169.759 87.7619 169.514 87.2807 169.714 86.6423L172.048 87.4457L172.126 87.2193C172.534 86.0334 171.984 85.3255 171.241 85.0694C170.326 84.7545 169.484 85.2436 169.136 86.2522C168.785 87.2714 169.15 88.1425 170.118 88.4758ZM169.881 86.1644C170.067 85.7075 170.544 85.4199 171.063 85.5987C171.559 85.7694 171.757 86.2487 171.586 86.7516L169.881 86.1644Z" fill="#FF8427"/>
<path d="M172.258 89.1385L172.896 89.3585L173.587 87.3543C173.734 86.9248 174.172 86.729 174.625 86.885C174.758 86.9306 174.899 87.0056 174.945 87.0382L175.156 86.4271C175.095 86.3965 174.971 86.3467 174.89 86.3187C174.505 86.1863 174.101 86.2909 173.86 86.6023L173.826 86.5905L174.005 86.0692L173.388 85.8565L172.258 89.1385Z" fill="#FF8427"/>
<path d="M175.809 90.4354C176.585 90.7025 177.247 90.4096 177.538 89.795L176.916 89.5809C176.712 89.9076 176.365 90.0221 175.999 89.8963C175.459 89.7102 175.266 89.1394 175.512 88.4236C175.754 87.7206 176.261 87.4005 176.795 87.5844C177.201 87.7242 177.361 88.0659 177.323 88.3972L177.945 88.6113C178.105 87.9253 177.716 87.299 176.97 87.0423C176.045 86.7237 175.207 87.2143 174.862 88.2164C174.521 89.2057 174.856 90.1073 175.809 90.4354Z" fill="#FF8427"/>
<path d="M179.255 91.622C179.971 91.8684 180.598 91.6902 180.928 91.2061L180.361 90.8889C180.139 91.159 179.806 91.2215 179.443 91.0964C178.896 90.9081 178.651 90.4268 178.851 89.7885L181.185 90.5919L181.263 90.3654C181.671 89.1795 181.121 88.4716 180.378 88.2156C179.463 87.9007 178.621 88.3898 178.273 89.3983C177.923 90.4175 178.287 91.2887 179.255 91.622ZM179.018 89.3106C179.204 88.8536 179.681 88.566 180.2 88.7448C180.696 88.9155 180.894 89.3948 180.723 89.8977L179.018 89.3106Z" fill="#FF8427"/>
<rect x="224.453" y="101.026" width="12.7039" height="1.05866" transform="rotate(19 224.453 101.026)" fill="#FF8427"/>
<rect x="223.419" y="104.029" width="12.7039" height="1.05866" transform="rotate(19 223.419 104.029)" fill="#FF8427"/>
<rect x="222.385" y="107.032" width="12.7039" height="1.05866" transform="rotate(19 222.385 107.032)" fill="#FF8427"/>
<rect x="108.732" y="89.1719" width="48.6983" height="3.17597" transform="rotate(19 108.732 89.1719)" fill="#D0D4DA"/>
<rect x="102.968" y="164.443" width="35.9944" height="10.5866" rx="1.5" transform="rotate(19 102.968 164.443)" fill="#FF8427"/>
<rect x="87.9531" y="159.273" width="10.5866" height="10.5866" rx="1.5" transform="rotate(19 87.9531 159.273)" fill="#BDC5D1"/>
<path fill-rule="evenodd" clip-rule="evenodd" d="M90.6646 167.859L88.9676 168.152L90.4049 163.978C90.4902 163.731 90.7418 163.593 90.967 163.67L93.0051 164.372C93.2303 164.449 93.3437 164.713 93.2584 164.961L91.8211 169.135L90.6646 167.859Z" fill="white"/>
<path d="M113.199 174.684L114.202 171.772L114.716 171.949L114.341 173.038L114.363 173.046C114.407 173.002 114.464 172.958 114.532 172.915C114.601 172.871 114.684 172.842 114.781 172.827C114.88 172.812 114.993 172.827 115.121 172.871C115.29 172.929 115.427 173.025 115.533 173.158C115.64 173.291 115.704 173.455 115.726 173.649C115.749 173.843 115.719 174.062 115.636 174.305C115.553 174.544 115.444 174.735 115.307 174.875C115.171 175.016 115.02 175.107 114.854 175.149C114.688 175.19 114.519 175.181 114.347 175.122C114.222 175.079 114.126 175.023 114.058 174.953C113.989 174.882 113.94 174.809 113.91 174.733C113.882 174.657 113.863 174.587 113.854 174.524L113.824 174.514L113.705 174.858L113.199 174.684ZM114.08 173.766C114.007 173.977 113.993 174.164 114.037 174.325C114.081 174.486 114.185 174.594 114.349 174.651C114.519 174.709 114.671 174.687 114.805 174.583C114.939 174.48 115.042 174.326 115.112 174.121C115.182 173.917 115.196 173.735 115.154 173.574C115.112 173.413 115.005 173.303 114.833 173.244C114.668 173.187 114.519 173.207 114.387 173.304C114.255 173.399 114.153 173.553 114.08 173.766Z" fill="white"/>
<path d="M117.407 175.105L117.842 173.84L118.357 174.017L117.605 176.201L117.106 176.029L117.24 175.641L117.217 175.633C117.125 175.738 117.01 175.811 116.87 175.849C116.732 175.889 116.58 175.88 116.416 175.824C116.202 175.75 116.052 175.619 115.965 175.43C115.879 175.24 115.881 175.014 115.971 174.751L116.45 173.361L116.965 173.538L116.514 174.849C116.466 174.987 116.466 175.11 116.514 175.218C116.561 175.325 116.647 175.4 116.77 175.443C116.846 175.469 116.926 175.476 117.01 175.463C117.094 175.451 117.171 175.416 117.241 175.359C117.313 175.301 117.368 175.216 117.407 175.105Z" fill="white"/>
<path d="M118.174 177.308C118.103 177.284 118.04 177.256 117.985 177.224C117.93 177.193 117.887 177.164 117.857 177.137L118.114 176.779C118.216 176.85 118.308 176.887 118.392 176.892C118.475 176.897 118.562 176.848 118.652 176.745L118.737 176.642L118.713 174.14L119.259 174.328L119.194 176.15L119.217 176.158L120.29 174.683L120.839 174.875L119.12 177.018C118.999 177.169 118.861 177.272 118.706 177.328C118.552 177.384 118.375 177.377 118.174 177.308Z" fill="white"/>
<path d="M122.394 176.418L121.953 177.698L121.438 177.521L122.19 175.337L122.682 175.506L122.554 175.877L122.58 175.886C122.672 175.782 122.785 175.713 122.92 175.679C123.056 175.644 123.206 175.655 123.369 175.711C123.594 175.789 123.751 175.923 123.838 176.113C123.926 176.303 123.925 176.529 123.834 176.79L123.355 178.181L122.84 178.004L123.292 176.693C123.342 176.547 123.343 176.419 123.296 176.311C123.249 176.203 123.16 176.126 123.027 176.08C122.891 176.033 122.766 176.039 122.649 176.096C122.533 176.153 122.448 176.26 122.394 176.418Z" fill="white"/>
<path d="M124.816 178.732C124.603 178.658 124.434 178.548 124.31 178.4C124.186 178.252 124.11 178.079 124.082 177.881C124.055 177.682 124.08 177.47 124.157 177.245C124.235 177.02 124.346 176.837 124.489 176.698C124.634 176.558 124.8 176.468 124.989 176.428C125.178 176.387 125.379 176.403 125.593 176.477C125.806 176.55 125.974 176.661 126.098 176.81C126.223 176.958 126.299 177.131 126.326 177.33C126.353 177.528 126.328 177.74 126.25 177.966C126.173 178.191 126.062 178.373 125.919 178.513C125.775 178.653 125.609 178.742 125.419 178.782C125.23 178.822 125.029 178.805 124.816 178.732ZM124.961 178.32C125.078 178.361 125.185 178.362 125.284 178.325C125.383 178.288 125.471 178.222 125.546 178.127C125.622 178.032 125.683 177.918 125.729 177.785C125.775 177.651 125.797 177.524 125.796 177.402C125.795 177.28 125.767 177.173 125.712 177.082C125.657 176.991 125.571 176.926 125.455 176.886C125.337 176.845 125.228 176.844 125.127 176.881C125.027 176.919 124.939 176.985 124.863 177.081C124.787 177.176 124.726 177.29 124.68 177.424C124.634 177.556 124.612 177.684 124.613 177.806C124.615 177.928 124.644 178.033 124.699 178.124C124.756 178.214 124.843 178.28 124.961 178.32Z" fill="white"/>
<path d="M126.706 179.335L126.841 176.938L127.366 177.119L127.221 178.787L127.241 178.794L128.162 177.393L128.681 177.572L128.548 179.234L128.569 179.241L129.473 177.845L129.999 178.026L128.629 179.997L128.092 179.812L128.191 178.195L128.161 178.185L127.244 179.52L126.706 179.335Z" fill="white"/>
<path fill-rule="evenodd" clip-rule="evenodd" d="M106.996 168.647C107.04 168.651 107.084 168.661 107.129 168.676L110.539 170.13C110.85 170.243 111.067 170.608 110.799 170.894C110.747 170.949 110.522 171.171 110.166 171.519C110.02 171.661 109.871 171.807 109.722 171.952L109.578 172.092L109.533 172.135C109.398 172.296 109.197 172.386 108.986 172.381L108.945 172.38L106.423 171.512L106.42 171.51L105.926 171.34C105.781 171.298 105.628 171.373 105.577 171.5L105.495 171.735C105.454 171.881 105.53 172.035 105.655 172.087L105.697 172.101C105.901 171.845 106.251 171.732 106.578 171.845C106.904 171.957 107.111 172.262 107.113 172.589L107.699 172.791C107.903 172.535 108.253 172.421 108.58 172.534C108.994 172.677 109.215 173.129 109.072 173.543C108.929 173.958 108.477 174.178 108.063 174.035C107.736 173.923 107.53 173.618 107.527 173.291L106.941 173.089C106.738 173.346 106.387 173.459 106.061 173.346C105.734 173.234 105.527 172.929 105.525 172.601L105.468 172.582C105.08 172.423 104.873 171.998 104.99 171.578L105.081 171.315C105.238 170.924 105.665 170.715 106.083 170.835L106.429 169.034L106.438 168.998C106.494 168.836 106.478 168.615 106.416 168.488C106.4 168.455 106.3 168.39 106.11 168.325L106.282 167.824C106.593 167.931 106.798 168.065 106.892 168.256C106.947 168.369 106.982 168.504 106.996 168.647ZM108.235 173.535C108.373 173.583 108.524 173.509 108.571 173.371C108.619 173.233 108.546 173.082 108.407 173.035C108.269 172.987 108.118 173.06 108.071 173.199C108.023 173.337 108.097 173.488 108.235 173.535ZM106.569 172.682C106.522 172.82 106.371 172.893 106.233 172.846C106.095 172.798 106.021 172.648 106.069 172.509C106.117 172.371 106.267 172.298 106.405 172.345C106.544 172.393 106.617 172.543 106.569 172.682Z" fill="white"/>
<rect x="165.029" y="185.812" width="35.9944" height="10.5866" rx="1.5" transform="rotate(19 165.029 185.812)" fill="#FF8427"/>
<rect x="150.014" y="180.643" width="10.5866" height="10.5866" rx="1.5" transform="rotate(19 150.014 180.643)" fill="#BDC5D1"/>
<path fill-rule="evenodd" clip-rule="evenodd" d="M152.725 189.228L151.028 189.521L152.465 185.347C152.551 185.1 152.802 184.962 153.028 185.039L155.066 185.741C155.291 185.819 155.404 186.082 155.319 186.33L153.882 190.504L152.725 189.228Z" fill="white"/>
<path d="M175.26 196.053L176.262 193.141L176.777 193.318L176.402 194.407L176.423 194.415C176.468 194.371 176.524 194.327 176.592 194.284C176.662 194.24 176.745 194.211 176.842 194.196C176.94 194.182 177.054 194.196 177.182 194.24C177.35 194.298 177.488 194.394 177.593 194.527C177.7 194.66 177.765 194.824 177.787 195.018C177.81 195.213 177.78 195.431 177.696 195.674C177.614 195.914 177.504 196.104 177.368 196.245C177.231 196.385 177.08 196.476 176.914 196.518C176.748 196.559 176.58 196.551 176.408 196.491C176.283 196.448 176.186 196.392 176.118 196.322C176.05 196.252 176.001 196.178 175.971 196.102C175.942 196.026 175.923 195.956 175.914 195.894L175.884 195.883L175.766 196.227L175.26 196.053ZM176.14 195.135C176.068 195.346 176.053 195.533 176.097 195.694C176.142 195.855 176.246 195.963 176.41 196.02C176.579 196.078 176.731 196.056 176.866 195.952C177 195.849 177.102 195.695 177.173 195.49C177.243 195.287 177.257 195.104 177.215 194.943C177.172 194.783 177.066 194.673 176.894 194.613C176.728 194.556 176.579 194.576 176.447 194.673C176.316 194.769 176.213 194.923 176.14 195.135Z" fill="white"/>
<path d="M179.467 196.474L179.903 195.209L180.417 195.386L179.665 197.57L179.166 197.398L179.3 197.01L179.277 197.002C179.186 197.108 179.07 197.18 178.931 197.219C178.792 197.258 178.641 197.249 178.477 197.193C178.263 197.119 178.112 196.988 178.026 196.799C177.94 196.609 177.942 196.383 178.032 196.12L178.511 194.73L179.026 194.907L178.574 196.218C178.526 196.356 178.527 196.479 178.574 196.587C178.622 196.694 178.708 196.77 178.831 196.812C178.907 196.838 178.986 196.845 179.07 196.832C179.154 196.82 179.231 196.785 179.302 196.728C179.374 196.67 179.429 196.585 179.467 196.474Z" fill="white"/>
<path d="M180.234 198.677C180.164 198.653 180.101 198.625 180.045 198.593C179.99 198.562 179.948 198.534 179.918 198.506L180.175 198.148C180.276 198.219 180.369 198.257 180.452 198.261C180.535 198.266 180.622 198.217 180.713 198.114L180.798 198.011L180.773 195.509L181.319 195.697L181.255 197.519L181.277 197.527L182.35 196.052L182.899 196.244L181.18 198.387C181.059 198.538 180.922 198.641 180.767 198.697C180.613 198.753 180.435 198.746 180.234 198.677Z" fill="white"/>
<path d="M184.454 197.788L184.014 199.067L183.499 198.89L184.251 196.706L184.743 196.875L184.615 197.247L184.641 197.255C184.733 197.151 184.846 197.082 184.981 197.048C185.117 197.013 185.266 197.024 185.429 197.08C185.655 197.158 185.811 197.292 185.899 197.482C185.987 197.672 185.985 197.898 185.894 198.159L185.415 199.55L184.901 199.373L185.352 198.062C185.402 197.916 185.404 197.789 185.356 197.68C185.31 197.572 185.22 197.495 185.088 197.449C184.952 197.402 184.826 197.408 184.71 197.465C184.594 197.522 184.509 197.629 184.454 197.788Z" fill="white"/>
<path d="M186.877 200.101C186.663 200.027 186.495 199.917 186.371 199.769C186.246 199.621 186.17 199.448 186.142 199.25C186.115 199.051 186.141 198.839 186.218 198.614C186.296 198.389 186.406 198.206 186.55 198.067C186.694 197.927 186.861 197.837 187.05 197.797C187.239 197.756 187.44 197.772 187.653 197.846C187.866 197.919 188.035 198.03 188.159 198.179C188.284 198.327 188.36 198.5 188.387 198.7C188.414 198.898 188.389 199.109 188.311 199.335C188.234 199.56 188.123 199.742 187.979 199.883C187.836 200.022 187.669 200.111 187.48 200.151C187.291 200.191 187.09 200.174 186.877 200.101ZM187.021 199.689C187.138 199.73 187.246 199.731 187.344 199.694C187.444 199.657 187.531 199.591 187.606 199.496C187.683 199.401 187.744 199.287 187.79 199.154C187.836 199.02 187.858 198.893 187.856 198.771C187.856 198.649 187.828 198.543 187.772 198.451C187.718 198.361 187.632 198.295 187.515 198.255C187.398 198.214 187.289 198.213 187.188 198.25C187.088 198.288 187 198.355 186.923 198.45C186.847 198.545 186.786 198.659 186.74 198.793C186.695 198.925 186.672 199.053 186.674 199.175C186.675 199.297 186.704 199.403 186.76 199.493C186.817 199.583 186.904 199.649 187.021 199.689Z" fill="white"/>
<path d="M188.767 200.704L188.902 198.308L189.426 198.488L189.281 200.156L189.301 200.163L190.223 198.762L190.742 198.941L190.608 200.603L190.629 200.611L191.533 199.214L192.06 199.395L190.689 201.366L190.153 201.181L190.252 199.564L190.222 199.554L189.304 200.889L188.767 200.704Z" fill="white"/>
<path fill-rule="evenodd" clip-rule="evenodd" d="M169.057 190.016C169.101 190.02 169.145 190.03 169.19 190.045L172.599 191.499C172.911 191.612 173.128 191.977 172.86 192.263C172.808 192.318 172.583 192.54 172.226 192.888C172.081 193.031 171.932 193.176 171.783 193.321L171.638 193.461L171.594 193.504C171.459 193.665 171.257 193.755 171.047 193.75L171.006 193.749L168.484 192.881L168.48 192.879L167.986 192.709C167.842 192.667 167.689 192.742 167.637 192.869L167.556 193.104C167.515 193.25 167.59 193.404 167.715 193.456L167.758 193.47C167.962 193.214 168.312 193.101 168.638 193.214C168.965 193.326 169.171 193.631 169.174 193.958L169.76 194.16C169.963 193.904 170.313 193.791 170.64 193.903C171.055 194.046 171.275 194.498 171.133 194.912C170.99 195.327 170.538 195.547 170.123 195.405C169.796 195.292 169.59 194.987 169.588 194.66L169.002 194.459C168.798 194.715 168.448 194.828 168.121 194.715C167.794 194.603 167.588 194.298 167.586 193.971L167.529 193.951C167.141 193.792 166.933 193.367 167.051 192.947L167.142 192.684C167.298 192.293 167.726 192.084 168.144 192.204L168.489 190.403L168.499 190.367C168.555 190.205 168.539 189.984 168.477 189.857C168.461 189.824 168.361 189.759 168.171 189.694L168.343 189.193C168.654 189.3 168.859 189.434 168.952 189.625C169.007 189.738 169.043 189.873 169.057 190.016ZM170.296 194.904C170.434 194.952 170.584 194.878 170.632 194.74C170.68 194.602 170.606 194.451 170.468 194.404C170.33 194.356 170.179 194.43 170.132 194.568C170.084 194.706 170.157 194.857 170.296 194.904ZM168.63 194.051C168.582 194.189 168.432 194.262 168.294 194.215C168.155 194.167 168.082 194.017 168.13 193.878C168.177 193.74 168.328 193.667 168.466 193.714C168.604 193.762 168.678 193.913 168.63 194.051Z" fill="white"/>
<rect x="106.664" y="95.1777" width="28.5838" height="3.17597" transform="rotate(19 106.664 95.1777)" fill="#D0D4DA"/>
<rect x="170.793" y="110.541" width="48.6983" height="3.17597" transform="rotate(19 170.793 110.541)" fill="#D0D4DA"/>
<rect x="168.725" y="116.547" width="28.5838" height="3.17597" transform="rotate(19 168.725 116.547)" fill="#D0D4DA"/>
<rect x="76.678" y="182.263" width="48.6983" height="3.17597" transform="rotate(19 76.678 182.263)" fill="#D0D4DA"/>
<rect x="74.6101" y="188.269" width="28.5838" height="3.17597" transform="rotate(19 74.6101 188.269)" fill="#D0D4DA"/>
<rect x="138.739" y="203.632" width="48.6983" height="3.17597" transform="rotate(19 138.739 203.632)" fill="#D0D4DA"/>
<rect x="136.671" y="209.638" width="28.5838" height="3.17597" transform="rotate(19 136.671 209.638)" fill="#D0D4DA"/>
<path d="M236.721 130.432L237.863 130.825C238.547 131.06 239.111 131.559 239.428 132.21C239.746 132.861 239.792 133.611 239.556 134.296L223.357 181.342C223.121 182.027 222.622 182.591 221.971 182.908C221.32 183.226 220.57 183.272 219.885 183.036L218.744 182.643L236.721 130.432Z" fill="white"/>
</g>
<defs>
<filter id="filter0_d" x="18.1389" y="21.1328" width="243.946" height="335.725" filterUnits="userSpaceOnUse" color-interpolation-filters="sRGB">
<feFlood flood-opacity="0" result="BackgroundImageFix"/>
<feColorMatrix in="SourceAlpha" type="matrix" values="0 0 0 0 0 0 0 0 0 0 0 0 0 0 0 0 0 0 127 0"/>
<feOffset/>
<feGaussianBlur stdDeviation="3"/>
<feColorMatrix type="matrix" values="0 0 0 0 0 0 0 0 0 0 0 0 0 0 0 0 0 0 0.1 0"/>
<feBlend mode="normal" in2="BackgroundImageFix" result="effect1_dropShadow"/>
<feBlend mode="normal" in="SourceGraphic" in2="effect1_dropShadow" result="shape"/>
</filter>
</defs>
</svg>
