<svg width="256" height="336" viewBox="0 0 256 336" fill="none" xmlns="http://www.w3.org/2000/svg">
<path d="M255.675 203.838C255.675 239.646 226.646 268.675 190.838 268.675C155.029 268.675 126 239.646 126 203.838C126 168.029 155.029 139 190.838 139C226.646 139 255.675 168.029 255.675 203.838Z" fill="#E3E3E3"/>
<path d="M81.4314 56.5C81.4314 52.626 80.6684 48.7899 79.1858 45.2108C77.7033 41.6317 75.5304 38.3797 72.791 35.6403C70.0517 32.901 66.7997 30.7281 63.2206 29.2456C59.6415 27.763 55.8054 27 51.9314 27C48.0574 27 44.2213 27.763 40.6422 29.2456C37.0631 30.7281 33.8111 32.901 31.0717 35.6404C28.3324 38.3797 26.1595 41.6317 24.6769 45.2108C23.1944 48.7899 22.4314 52.626 22.4314 56.5L51.9314 56.5H81.4314Z" fill="#F1F1F1"/>
<circle cx="117.431" cy="124" r="97.5" stroke="#E9E9E9"/>
<rect x="162.431" y="57" width="2" height="36" rx="1" transform="rotate(-90 162.431 57)" fill="#06C455"/>
<rect x="167.431" y="53" width="2" height="36" rx="1" transform="rotate(-90 167.431 53)" fill="#06C455"/>
<rect x="172.431" y="49" width="2" height="36" rx="1" transform="rotate(-90 172.431 49)" fill="#06C455"/>
<rect x="178.431" y="45" width="2" height="36" rx="1" transform="rotate(-90 178.431 45)" fill="#06C455"/>
<rect x="184.431" y="41" width="2" height="36" rx="1" transform="rotate(-90 184.431 41)" fill="#06C455"/>
<g filter="url(#filter0_d)">
<path d="M195.208 57.6333V308.535C195.21 311.274 194.672 313.985 193.625 316.516C192.578 319.046 191.043 321.345 189.107 323.282C187.171 325.218 184.873 326.755 182.343 327.803C179.813 328.851 177.102 329.391 174.363 329.391H71.4937C68.7554 329.391 66.0439 328.851 63.5142 327.803C60.9845 326.755 58.6861 325.218 56.7503 323.282C54.8145 321.345 53.2793 319.046 52.2324 316.516C51.1854 313.985 50.6473 311.274 50.6487 308.535V57.6333C50.6487 52.1049 52.8448 46.8029 56.754 42.8937C60.6632 38.9845 65.9652 36.7883 71.4937 36.7883H174.406C179.927 36.7995 185.218 39.0007 189.118 42.9086C193.018 46.8166 195.208 52.1122 195.208 57.6333Z" fill="white"/>
</g>
<g opacity="0.25">
<path opacity="0.25" d="M205.731 225.452C205.731 225.452 202.725 260.387 184.167 284.006" stroke="white" stroke-width="0.75" stroke-linecap="round" stroke-linejoin="round"/>
<path opacity="0.25" d="M217.599 247.059C217.599 247.059 206.928 257.349 197.484 259.667" stroke="white" stroke-width="0.75" stroke-linecap="round" stroke-linejoin="round"/>
<path opacity="0.25" d="M186.009 242.761C186.009 248.223 187.067 263.32 192.943 270.042" stroke="white" stroke-width="0.75" stroke-linecap="round" stroke-linejoin="round"/>
<path opacity="0.25" d="M205.022 272.763C205.022 272.763 200.872 277.188 186.908 280.28" stroke="white" stroke-width="0.75" stroke-linecap="round" stroke-linejoin="round"/>
<path opacity="0.25" d="M195.939 288.908C191.263 290.069 186.339 289.698 181.89 287.849" stroke="white" stroke-width="0.75" stroke-linecap="round" stroke-linejoin="round"/>
</g>
<path d="M195.208 57.6333V61.0951H50.6487V57.6333C50.6487 52.1049 52.8448 46.8029 56.754 42.8937C60.6632 38.9845 65.9652 36.7883 71.4937 36.7883H174.406C179.927 36.7995 185.218 39.0007 189.118 42.9086C193.018 46.8166 195.208 52.1122 195.208 57.6333Z" fill="white"/>
<path d="M195.209 305.01V308.472C195.206 314.001 193.007 319.303 189.096 323.212C185.185 327.121 179.882 329.317 174.353 329.317H71.4514C68.7136 329.318 66.0024 328.78 63.4727 327.733C60.9431 326.686 58.6446 325.15 56.7087 323.214C54.7728 321.278 53.2374 318.98 52.1903 316.45C51.1433 313.921 50.6051 311.209 50.6064 308.472V305.01H195.209Z" fill="white"/>
<path d="M49.5161 95.3215H50.6383V122.211H49.5161C49.1825 122.211 48.8521 122.146 48.5438 122.018C48.2355 121.89 47.9554 121.703 47.7195 121.467C47.4836 121.231 47.2964 120.951 47.1687 120.643C47.0411 120.335 46.9753 120.004 46.9753 119.671V97.8623C46.9753 97.1885 47.243 96.5422 47.7195 96.0657C48.196 95.5892 48.8423 95.3215 49.5161 95.3215V95.3215Z" fill="white"/>
<path d="M49.6642 134.916H50.6488V151.441H49.6642C49.0774 151.441 48.5146 151.208 48.0997 150.793C47.6848 150.378 47.4516 149.815 47.4516 149.229V137.16C47.4474 136.867 47.5016 136.576 47.6109 136.303C47.7202 136.031 47.8825 135.784 48.0884 135.575C48.2942 135.366 48.5396 135.2 48.8101 135.087C49.0807 134.974 49.371 134.915 49.6642 134.916V134.916Z" fill="white"/>
<path d="M102.216 48.8995C102.214 49.7136 101.97 50.5087 101.517 51.1846C101.063 51.8604 100.419 52.3866 99.6663 52.6967C98.9136 53.0067 98.0859 53.0868 97.2878 52.9267C96.4896 52.7666 95.7568 52.3735 95.1819 51.7972C94.6071 51.2208 94.2159 50.487 94.0579 49.6885C93.8998 48.8899 93.982 48.0624 94.294 47.3105C94.606 46.5587 95.1338 45.9161 95.8108 45.4641C96.4878 45.012 97.2836 44.7708 98.0977 44.7708C98.6394 44.7708 99.1757 44.8776 99.6761 45.0852C100.176 45.2929 100.631 45.5972 101.013 45.9807C101.396 46.3642 101.699 46.8194 101.905 47.3203C102.112 47.8212 102.217 48.3578 102.216 48.8995V48.8995Z" fill="#F1F1F1"/>
<path d="M111.141 48.8995C111.141 49.2931 111.024 49.6779 110.805 50.0052C110.587 50.3325 110.276 50.5876 109.912 50.7382C109.548 50.8889 109.148 50.9283 108.762 50.8515C108.376 50.7747 108.021 50.5851 107.743 50.3068C107.465 50.0284 107.275 49.6738 107.198 49.2877C107.122 48.9017 107.161 48.5015 107.312 48.1378C107.462 47.7741 107.717 47.4633 108.045 47.2446C108.372 47.0259 108.757 46.9092 109.15 46.9092C109.678 46.9092 110.185 47.1189 110.558 47.4921C110.931 47.8654 111.141 48.3716 111.141 48.8995Z" fill="#F1F1F1"/>
<path d="M152.418 46.4326H117.799C116.858 46.4326 116.095 47.1957 116.095 48.1371V49.6509C116.095 50.5923 116.858 51.3554 117.799 51.3554H152.418C153.359 51.3554 154.122 50.5923 154.122 49.6509V48.1371C154.122 47.1957 153.359 46.4326 152.418 46.4326Z" fill="#F1F1F1"/>
<path d="M130.664 319.499C131.673 315.238 129.037 310.965 124.776 309.955C120.515 308.946 116.242 311.582 115.232 315.843C114.223 320.104 116.859 324.377 121.12 325.387C125.381 326.396 129.654 323.761 130.664 319.499Z" fill="#F1F1F1"/>
<path d="M185.932 61.0422H58.8354C56.074 61.0422 53.8354 63.2808 53.8354 66.0422V300.01C53.8354 302.771 56.074 305.01 58.8355 305.01H185.932C188.693 305.01 190.932 302.771 190.932 300.01V66.0422C190.932 63.2808 188.693 61.0422 185.932 61.0422Z" fill="#F1F1F1"/>
<path d="M68.363 87.3742C74.0239 87.3921 78.6275 82.8176 78.6454 77.1567C78.6633 71.4958 74.0888 66.8922 68.4279 66.8743C62.767 66.8563 58.1634 71.4309 58.1455 77.0917C58.1276 82.7526 62.7021 87.3562 68.363 87.3742Z" fill="#06C455"/>
<path d="M67.0968 76.6205C66.9805 76.5943 66.8599 76.5934 66.7432 76.6179C66.6264 76.6423 66.5163 76.6916 66.4203 76.7623C66.2726 76.9212 66.1461 77.0984 66.0437 77.2897C66.5569 77.3979 67.0551 77.568 67.5273 77.7963C67.5573 77.5628 67.5617 77.3268 67.5404 77.0924C67.5134 76.9822 67.4584 76.8808 67.3807 76.7981C67.303 76.7154 67.2052 76.6543 67.0968 76.6205Z" fill="white"/>
<path d="M73.4214 73.7913C73.0853 71.0859 71.4337 70.5436 68.9436 71.6509C67.237 72.4243 60.0775 74.9778 61.1678 77.4703C61.3839 77.9644 62.6605 79.2964 63.3219 79.3614C64.7619 79.5039 64.0704 77.5037 65.2468 77.2365C65.4166 77.2089 65.5899 77.2095 65.7596 77.2381C65.8812 77.0292 66.0855 76.6864 66.2455 76.5539C66.3759 76.4542 66.5271 76.3853 66.6878 76.3523C66.8486 76.3193 67.0147 76.3231 67.1738 76.3633C67.329 76.4126 67.4686 76.5018 67.5784 76.6221C67.6882 76.7424 67.7644 76.8895 67.7993 77.0486C67.8268 77.3416 67.8186 77.6368 67.7747 77.9278C68.0705 78.1017 68.2912 78.2923 68.3596 78.4776C68.5322 78.9546 67.9597 79.8647 67.9133 80.3786C67.8067 81.5937 68.4094 82.2342 69.5075 82.6272C71.5612 83.3593 72.8945 82.4529 73.2968 80.3061C73.6818 78.2598 73.6798 75.8626 73.4214 73.7913Z" fill="white"/>
<path d="M85.5723 79.6023L87.0614 79.607L87.0817 73.1728L85.5927 73.1681L85.5723 79.6023Z" fill="#424242"/>
<path d="M90.1507 79.6903C91.6305 79.695 92.4874 79.0451 92.4903 78.1259C92.4965 76.1773 89.5066 76.9859 89.5093 76.1402C89.5101 75.8829 89.7865 75.6815 90.4299 75.6836C90.8803 75.685 91.3672 75.7785 91.8535 76.0558L92.3347 75.037C91.8668 74.7598 91.1136 74.6011 90.4334 74.599C88.9903 74.5944 88.1425 75.2535 88.1396 76.1911C88.1333 78.1673 91.1232 77.3495 91.1207 78.1584C91.1198 78.4341 90.8711 78.608 90.2093 78.6059C89.6026 78.6039 88.9322 78.4088 88.4919 78.1225L88.0107 79.1504C88.4693 79.4552 89.3142 79.6877 90.1507 79.6903Z" fill="#424242"/>
<path d="M96.9951 72.8182L96.9875 75.2172C96.6303 74.8116 96.1161 74.617 95.5095 74.615C94.1123 74.6106 93.0338 75.5999 93.0289 77.1533C93.0239 78.7067 94.0962 79.7028 95.4934 79.7072C96.1552 79.7093 96.6797 79.4996 97.0396 79.0687L97.0378 79.6386L98.4074 79.6429L98.429 72.8227L96.9951 72.8182ZM95.7453 78.5315C95.0283 78.5292 94.4784 78.0127 94.4811 77.1579C94.4838 76.3031 95.037 75.7901 95.7539 75.7924C96.4617 75.7946 97.0116 76.3111 97.0089 77.1659C97.0061 78.0207 96.453 78.5337 95.7453 78.5315Z" fill="#424242"/>
<path d="M103.42 79.6588L105.158 79.6643L102.924 76.8078L104.989 74.7186L103.28 74.7132L101.178 76.692L101.19 72.8314L99.7561 72.8269L99.7345 79.6471L101.168 79.6517L101.172 78.3924L101.864 77.7144L103.42 79.6588Z" fill="#424242"/>
<path d="M110.758 79.7556C112.33 79.7606 113.473 78.7071 113.478 77.2181C113.483 75.729 112.346 74.6684 110.775 74.6634C109.203 74.6584 108.05 75.7118 108.046 77.2009C108.041 78.6899 109.187 79.7506 110.758 79.7556ZM110.762 78.5791C110.045 78.5768 109.495 78.0603 109.498 77.2055C109.501 76.3506 110.054 75.8377 110.771 75.8399C111.488 75.8422 112.028 76.3587 112.026 77.2135C112.023 78.0683 111.479 78.5813 110.762 78.5791Z" fill="#424242"/>
<path d="M120.778 74.6951C120.033 74.6927 119.389 74.994 118.992 75.4983C118.644 74.9549 118.057 74.6865 117.367 74.6843C116.733 74.6823 116.181 74.9011 115.812 75.3228L115.814 74.7529L114.444 74.7486L114.429 79.6937L115.863 79.6982L115.87 77.2165C115.873 76.3341 116.325 75.9219 116.959 75.9239C117.557 75.9258 117.895 76.2945 117.893 77.0942L117.885 79.7046L119.319 79.7092L119.326 77.2274C119.329 76.345 119.781 75.9328 120.424 75.9349C121.003 75.9367 121.361 76.3055 121.358 77.1052L121.35 79.7156L122.784 79.7202L122.793 76.8891C122.798 75.3817 121.954 74.6988 120.778 74.6951Z" fill="#424242"/>
<path d="M127.091 74.7151C126.42 74.713 125.84 74.9409 125.453 75.3625L125.454 74.7834L124.085 74.7791L124.069 79.7242L125.503 79.7288L125.511 77.2838C125.514 76.3738 126.011 75.9526 126.701 75.9547C127.335 75.9567 127.701 76.3256 127.699 77.1253L127.691 79.7357L129.125 79.7402L129.134 76.9092C129.138 75.4018 128.258 74.7188 127.091 74.7151Z" fill="#424242"/>
<path d="M131.159 74.1121C131.692 74.1138 132.052 73.7657 132.053 73.2877C132.055 72.8465 131.697 72.5145 131.164 72.5128C130.631 72.5111 130.271 72.8592 130.27 73.3096C130.269 73.76 130.626 74.1104 131.159 74.1121ZM130.424 79.7444L131.858 79.7489L131.874 74.8038L130.44 74.7992L130.424 79.7444Z" fill="#424242"/>
<path d="M75.0403 10.3007C74.6573 11.2776 73.9925 12.1187 73.1305 12.7171C72.2685 13.3155 71.2481 13.6441 70.1989 13.6613C69.1497 13.6785 68.119 13.3835 67.2378 12.8137C66.3567 12.2439 65.6648 11.425 65.25 10.4611C64.8352 9.49724 64.7162 8.43182 64.9082 7.40018C65.1002 6.36855 65.5945 5.41726 66.3283 4.66716C67.0621 3.91705 68.0023 3.40197 69.0295 3.18734C70.0567 2.97272 71.1244 3.06823 72.0972 3.46175C73.3894 3.98451 74.4233 4.9959 74.9743 6.27634C75.5253 7.55677 75.549 9.00288 75.0403 10.3007V10.3007Z" fill="#06C455"/>
<path d="M67.905 7.72803L69.0907 10.3535L73.0395 7.908" stroke="white" stroke-width="1.06" stroke-linecap="round" stroke-linejoin="round"/>
<path d="M12.6218 132.613C12.9549 133.608 12.9848 134.679 12.7077 135.691C12.4306 136.703 11.859 137.61 11.0655 138.296C10.272 138.983 9.29243 139.418 8.25112 139.547C7.2098 139.675 6.15376 139.492 5.2171 139.019C4.28044 138.546 3.50543 137.805 2.99047 136.891C2.47551 135.977 2.24385 134.93 2.3249 133.884C2.40595 132.838 2.79606 131.84 3.44569 131.016C4.09531 130.192 4.97515 129.58 5.97346 129.257C7.30025 128.828 8.74278 128.94 9.98765 129.568C11.2325 130.196 12.1791 131.29 12.6218 132.613Z" fill="white"/>
<path d="M5.49683 135.207L8.09054 136.477L9.55148 132.062" stroke="#06C455" stroke-width="1.06" stroke-linecap="round" stroke-linejoin="round"/>
<path d="M32.7399 196.986C32.4044 197.98 31.7809 198.852 30.9488 199.491C30.1167 200.13 29.1134 200.508 28.0664 200.576C27.0194 200.643 25.9758 200.398 25.0683 199.872C24.1608 199.345 23.4302 198.561 22.9693 197.618C22.5085 196.676 22.3382 195.617 22.48 194.578C22.6218 193.538 23.0693 192.564 23.7658 191.78C24.4623 190.995 25.3763 190.435 26.3916 190.171C27.407 189.906 28.4781 189.95 29.4687 190.296C30.7853 190.755 31.8675 191.716 32.48 192.968C33.0926 194.221 33.186 195.665 32.7399 196.986Z" fill="#06C455"/>
<path d="M25.4878 194.753L26.8005 197.325L30.6329 194.7" stroke="white" stroke-width="1.06" stroke-linecap="round" stroke-linejoin="round"/>
<path d="M40.8747 87.9374C40.8747 88.3205 40.7611 88.6951 40.5482 89.0137C40.3353 89.3323 40.0327 89.5806 39.6787 89.7272C39.3247 89.8739 38.9352 89.9122 38.5594 89.8375C38.1836 89.7627 37.8384 89.5782 37.5674 89.3073C37.2965 89.0363 37.112 88.6911 37.0372 88.3153C36.9625 87.9395 37.0008 87.55 37.1475 87.196C37.2941 86.842 37.5424 86.5394 37.861 86.3265C38.1796 86.1137 38.5542 86 38.9373 86C39.1922 85.9986 39.4447 86.0478 39.6804 86.1446C39.9161 86.2415 40.1302 86.3842 40.3104 86.5643C40.4906 86.7445 40.6332 86.9586 40.7301 87.1943C40.8269 87.43 40.8761 87.6826 40.8747 87.9374V87.9374Z" fill="white"/>
<path d="M203.306 246.937C203.306 247.321 203.192 247.695 202.98 248.014C202.767 248.332 202.464 248.581 202.11 248.727C201.756 248.874 201.367 248.912 200.991 248.837C200.615 248.763 200.27 248.578 199.999 248.307C199.728 248.036 199.543 247.691 199.469 247.315C199.394 246.939 199.432 246.55 199.579 246.196C199.725 245.842 199.974 245.539 200.292 245.327C200.611 245.114 200.986 245 201.369 245C201.883 245 202.375 245.204 202.739 245.567C203.102 245.931 203.306 246.424 203.306 246.937V246.937Z" fill="white"/>
<path d="M127.306 17.7643C127.306 18.1461 127.193 18.5194 126.982 18.8372C126.77 19.1551 126.469 19.4034 126.117 19.5509C125.765 19.6984 125.377 19.7386 125.002 19.6664C124.627 19.5942 124.282 19.4128 124.01 19.145C123.738 18.8772 123.551 18.535 123.473 18.1613C123.394 17.7876 123.428 17.3991 123.57 17.0446C123.712 16.6901 123.955 16.3854 124.269 16.1688C124.584 15.9521 124.955 15.8332 125.337 15.8269C125.594 15.8227 125.849 15.8697 126.088 15.9652C126.327 16.0606 126.544 16.2027 126.727 16.383C126.911 16.5633 127.056 16.7783 127.156 17.0155C127.255 17.2526 127.306 17.5072 127.306 17.7643Z" fill="white"/>
<path d="M18.614 78.0913C18.614 78.7027 18.4327 79.3004 18.093 79.8087C17.7533 80.3171 17.2705 80.7133 16.7057 80.9473C16.1408 81.1812 15.5192 81.2425 14.9196 81.1232C14.3199 81.0039 13.7691 80.7095 13.3368 80.2772C12.9045 79.8448 12.6101 79.294 12.4908 78.6944C12.3715 78.0947 12.4327 77.4732 12.6667 76.9083C12.9007 76.3435 13.2969 75.8607 13.8053 75.521C14.3136 75.1813 14.9113 75 15.5227 75C15.929 74.9986 16.3316 75.0776 16.7073 75.2325C17.083 75.3873 17.4243 75.615 17.7117 75.9023C17.999 76.1896 18.2266 76.531 18.3815 76.9067C18.5364 77.2823 18.6154 77.685 18.614 78.0913V78.0913Z" fill="white"/>
<path d="M223.614 132.091C223.614 132.703 223.432 133.301 223.092 133.81C222.752 134.318 222.269 134.715 221.703 134.948C221.138 135.182 220.516 135.243 219.916 135.122C219.316 135.002 218.765 134.707 218.333 134.273C217.901 133.84 217.608 133.288 217.49 132.688C217.371 132.088 217.434 131.466 217.67 130.901C217.905 130.336 218.303 129.854 218.813 129.516C219.323 129.177 219.921 128.998 220.533 129C220.939 129 221.34 129.08 221.715 129.236C222.089 129.391 222.429 129.619 222.715 129.906C223.002 130.193 223.228 130.534 223.382 130.909C223.537 131.284 223.615 131.686 223.614 132.091V132.091Z" fill="white"/>
<path d="M8.49164 55.0928C8.49142 55.7005 8.31205 56.2947 7.97598 56.8011C7.6399 57.3074 7.16202 57.7035 6.60208 57.9397C6.04214 58.176 5.42498 58.242 4.82776 58.1294C4.23053 58.0168 3.67974 57.7307 3.24423 57.3068C2.80873 56.8829 2.50783 56.34 2.37916 55.7461C2.25049 55.1521 2.29975 54.5334 2.52079 53.9673C2.74183 53.4012 3.12484 52.9128 3.62193 52.5631C4.11903 52.2135 4.70816 52.0181 5.31567 52.0015C5.72907 51.9887 6.14082 52.0593 6.52636 52.209C6.9119 52.3587 7.26334 52.5846 7.55972 52.8731C7.85611 53.1616 8.09136 53.5068 8.25147 53.8881C8.41158 54.2695 8.49326 54.6792 8.49164 55.0928V55.0928Z" fill="white"/>
<path d="M17.4916 211.091C17.4916 211.703 17.3103 212.3 16.9707 212.809C16.631 213.317 16.1482 213.713 15.5833 213.947C15.0185 214.181 14.3969 214.242 13.7973 214.123C13.1976 214.004 12.6468 213.709 12.2145 213.277C11.7822 212.845 11.4878 212.294 11.3685 211.694C11.2492 211.095 11.3104 210.473 11.5444 209.908C11.7784 209.343 12.1746 208.861 12.6829 208.521C13.1913 208.181 13.789 208 14.4004 208C15.2202 208 16.0065 208.326 16.5862 208.905C17.166 209.485 17.4916 210.271 17.4916 211.091Z" fill="white"/>
<path opacity="0.3" d="M6.35468 176.722C6.35468 177.333 6.17338 177.931 5.83371 178.439C5.49403 178.947 5.01124 179.344 4.44638 179.578C3.88152 179.812 3.25997 179.873 2.66032 179.754C2.06068 179.634 1.50986 179.34 1.07754 178.908C0.645216 178.475 0.350796 177.924 0.231519 177.325C0.112241 176.725 0.173458 176.104 0.40743 175.539C0.641402 174.974 1.03762 174.491 1.54598 174.151C2.05434 173.812 2.65201 173.63 3.2634 173.63C4.08326 173.63 4.86954 173.956 5.44927 174.536C6.029 175.116 6.35468 175.902 6.35468 176.722Z" fill="white"/>
<path opacity="0.3" d="M253.938 146.743C253.94 147.683 253.663 148.603 253.142 149.386C252.621 150.17 251.88 150.78 251.011 151.142C250.143 151.503 249.187 151.599 248.264 151.417C247.341 151.234 246.493 150.783 245.827 150.118C245.162 149.454 244.708 148.607 244.524 147.685C244.339 146.762 244.433 145.806 244.792 144.937C245.152 144.068 245.761 143.325 246.543 142.802C247.325 142.279 248.244 142 249.185 142C250.444 142 251.651 142.499 252.542 143.388C253.433 144.278 253.935 145.484 253.938 146.743V146.743Z" fill="white"/>
<path opacity="0.3" d="M220.938 61.7534C220.938 62.6935 220.659 63.6125 220.137 64.3942C219.615 65.1759 218.872 65.7851 218.004 66.1449C217.135 66.5047 216.18 66.5988 215.257 66.4154C214.335 66.232 213.488 65.7793 212.824 65.1145C212.159 64.4497 211.706 63.6028 211.523 62.6807C211.339 61.7586 211.433 60.8029 211.793 59.9343C212.153 59.0658 212.762 58.3234 213.544 57.8011C214.326 57.2788 215.245 57 216.185 57C216.809 57 217.427 57.123 218.004 57.3618C218.581 57.6007 219.105 57.9508 219.546 58.3922C219.987 58.8336 220.337 59.3576 220.576 59.9343C220.815 60.511 220.938 61.1292 220.938 61.7534Z" fill="white"/>
<path opacity="0.3" d="M27.9381 263.753C27.9381 264.694 27.6591 265.613 27.1363 266.395C26.6135 267.177 25.8705 267.786 25.0014 268.146C24.1322 268.505 23.1759 268.599 22.2535 268.415C21.3312 268.23 20.4842 267.777 19.8199 267.111C19.1555 266.445 18.7037 265.597 18.5214 264.674C18.3392 263.751 18.4349 262.795 18.7963 261.927C19.1577 261.059 19.7686 260.317 20.5516 259.796C21.3347 259.275 22.2548 258.998 23.1954 259C23.8191 259 24.4367 259.123 25.0128 259.362C25.5889 259.601 26.1122 259.951 26.5528 260.393C26.9933 260.834 27.3424 261.359 27.5802 261.935C27.8179 262.512 27.9395 263.13 27.9381 263.753Z" fill="white"/>
<path opacity="0.3" d="M180.292 3.0913C180.292 3.70315 180.11 4.30123 179.77 4.80982C179.43 5.3184 178.947 5.71461 178.381 5.94827C177.816 6.18193 177.194 6.24252 176.594 6.12239C175.994 6.00225 175.443 5.70678 175.011 5.27339C174.579 4.84001 174.286 4.28821 174.167 3.68786C174.049 3.08752 174.112 2.46563 174.348 1.90096C174.583 1.33629 174.981 0.854236 175.491 0.515838C176.001 0.17744 176.599 -0.00207723 177.211 1.81359e-05C177.617 1.57419e-05 178.018 0.08005 178.393 0.235531C178.767 0.391012 179.107 0.618881 179.393 0.906073C179.68 1.19326 179.906 1.53413 180.06 1.90912C180.215 2.28411 180.293 2.68585 180.292 3.0913V3.0913Z" fill="white"/>
<path opacity="0.2" d="M207.614 161.081C207.616 161.693 207.437 162.291 207.098 162.801C206.76 163.311 206.278 163.709 205.713 163.944C205.148 164.18 204.526 164.243 203.926 164.124C203.326 164.006 202.774 163.713 202.341 163.281C201.907 162.849 201.612 162.298 201.492 161.698C201.371 161.098 201.432 160.476 201.666 159.911C201.899 159.345 202.296 158.862 202.804 158.522C203.313 158.182 203.911 158 204.523 158C204.928 157.999 205.33 158.077 205.705 158.231C206.08 158.386 206.421 158.612 206.708 158.899C206.995 159.185 207.223 159.525 207.378 159.899C207.534 160.274 207.614 160.675 207.614 161.081V161.081Z" fill="white"/>
<path d="M13.104 157.59C13.0234 157.59 12.9435 157.574 12.869 157.543C12.7945 157.512 12.7269 157.467 12.6698 157.41C12.6128 157.353 12.5676 157.285 12.5367 157.211C12.5059 157.136 12.49 157.056 12.49 156.976V152.614C12.49 152.451 12.5547 152.295 12.6698 152.18C12.785 152.065 12.9412 152 13.104 152C13.2669 152 13.423 152.065 13.5382 152.18C13.6533 152.295 13.718 152.451 13.718 152.614V156.933C13.7238 157.017 13.7123 157.102 13.684 157.181C13.6558 157.261 13.6115 157.334 13.5539 157.395C13.4963 157.457 13.4266 157.506 13.3492 157.539C13.2718 157.573 13.1883 157.59 13.104 157.59V157.59Z" fill="white"/>
<path d="M15.2848 155.409H10.9231C10.8425 155.409 10.7626 155.393 10.6881 155.362C10.6136 155.331 10.5459 155.286 10.4889 155.229C10.4319 155.172 10.3867 155.104 10.3558 155.03C10.325 154.955 10.3091 154.875 10.3091 154.795C10.3091 154.714 10.325 154.634 10.3558 154.56C10.3867 154.485 10.4319 154.418 10.4889 154.361C10.5459 154.304 10.6136 154.258 10.6881 154.227C10.7626 154.197 10.8425 154.181 10.9231 154.181H15.2848C15.3654 154.181 15.4453 154.197 15.5198 154.227C15.5942 154.258 15.6619 154.304 15.719 154.361C15.776 154.418 15.8212 154.485 15.8521 154.56C15.8829 154.634 15.8988 154.714 15.8988 154.795C15.8988 154.875 15.8829 154.955 15.8521 155.03C15.8212 155.104 15.776 155.172 15.719 155.229C15.6619 155.286 15.5942 155.331 15.5198 155.362C15.4453 155.393 15.3654 155.409 15.2848 155.409V155.409Z" fill="white"/>
<path d="M14.0335 111.579C13.8706 111.579 13.7144 111.514 13.5993 111.399C13.4841 111.284 13.4194 111.128 13.4194 110.965V106.614C13.4194 106.451 13.4841 106.295 13.5993 106.18C13.7144 106.065 13.8706 106 14.0335 106C14.1963 106 14.3525 106.065 14.4676 106.18C14.5828 106.295 14.6475 106.451 14.6475 106.614V110.965C14.6475 111.128 14.5828 111.284 14.4676 111.399C14.3525 111.514 14.1963 111.579 14.0335 111.579V111.579Z" fill="white"/>
<path d="M16.2142 109.409H11.8525C11.7022 109.389 11.5642 109.316 11.4642 109.202C11.3642 109.088 11.3091 108.941 11.3091 108.79C11.3091 108.638 11.3642 108.492 11.4642 108.378C11.5642 108.264 11.7022 108.19 11.8525 108.17H16.2142C16.3645 108.19 16.5026 108.264 16.6025 108.378C16.7025 108.492 16.7577 108.638 16.7577 108.79C16.7577 108.941 16.7025 109.088 16.6025 109.202C16.5026 109.316 16.3645 109.389 16.2142 109.409V109.409Z" fill="white"/>
<path d="M224.185 187.519C224.022 187.516 223.865 187.449 223.75 187.333C223.636 187.216 223.571 187.058 223.571 186.895V182.543C223.591 182.393 223.665 182.255 223.779 182.155C223.893 182.055 224.039 182 224.191 182C224.342 182 224.489 182.055 224.603 182.155C224.717 182.255 224.79 182.393 224.81 182.543V186.895C224.81 187.06 224.744 187.219 224.627 187.336C224.51 187.453 224.351 187.519 224.185 187.519V187.519Z" fill="white"/>
<path d="M226.366 185.339H222.015C221.927 185.35 221.837 185.343 221.752 185.317C221.667 185.291 221.589 185.247 221.522 185.189C221.455 185.13 221.401 185.058 221.365 184.977C221.328 184.896 221.309 184.808 221.309 184.719C221.309 184.63 221.328 184.543 221.365 184.462C221.401 184.381 221.455 184.308 221.522 184.25C221.589 184.191 221.667 184.148 221.752 184.122C221.837 184.096 221.927 184.088 222.015 184.1H226.366C226.516 184.12 226.654 184.193 226.754 184.307C226.854 184.421 226.909 184.568 226.909 184.719C226.909 184.871 226.854 185.017 226.754 185.131C226.654 185.245 226.516 185.319 226.366 185.339V185.339Z" fill="white"/>
<path d="M226.46 106.734C226.297 106.734 226.141 106.669 226.026 106.554C225.911 106.439 225.846 106.283 225.846 106.12V101.758C225.866 101.608 225.939 101.47 226.053 101.37C226.167 101.27 226.314 101.215 226.465 101.215C226.617 101.215 226.763 101.27 226.877 101.37C226.991 101.47 227.065 101.608 227.085 101.758V106.12C227.085 106.202 227.068 106.282 227.037 106.357C227.005 106.433 226.959 106.501 226.901 106.558C226.843 106.615 226.774 106.66 226.698 106.69C226.622 106.721 226.541 106.735 226.46 106.734V106.734Z" fill="white"/>
<path d="M228.641 104.553H224.29C224.127 104.553 223.971 104.488 223.856 104.373C223.741 104.258 223.676 104.102 223.676 103.939C223.676 103.776 223.741 103.62 223.856 103.505C223.971 103.39 224.127 103.325 224.29 103.325H228.641C228.804 103.325 228.96 103.39 229.075 103.505C229.19 103.62 229.255 103.776 229.255 103.939C229.255 104.102 229.19 104.258 229.075 104.373C228.96 104.488 228.804 104.553 228.641 104.553Z" fill="white"/>
<rect x="57.583" y="93.6277" width="63.5195" height="95.2792" fill="white"/>
<rect x="123.22" y="93.6277" width="63.5195" height="95.2792" fill="white"/>
<path opacity="0.5" d="M84.9494 138.497L87.338 157.418H66.0522L68.1613 138.497H84.9494Z" fill="#D0D4DA"/>
<path opacity="0.5" fill-rule="evenodd" clip-rule="evenodd" d="M79.645 141.352C79.6056 141.392 79.5539 141.414 79.5002 141.414L79.4623 141.406C79.4337 141.404 79.4058 141.395 79.3803 141.381C79.3548 141.367 79.3321 141.348 79.3137 141.324C79.2953 141.3 79.2815 141.272 79.2732 141.242C79.2649 141.212 79.2623 141.181 79.2654 141.15C79.4699 138.288 79.0685 136.309 78.0916 135.484C77.8304 135.272 77.5279 135.128 77.2074 135.063C77.1895 135.06 77.1715 135.056 77.1535 135.053C76.9372 135.02 76.7273 135.02 76.4916 135.063C76.139 135.128 75.8063 135.271 75.519 135.484C74.4444 136.309 74.0029 138.288 74.2278 141.15C74.2313 141.181 74.2283 141.212 74.2192 141.242C74.2101 141.272 74.1949 141.3 74.1747 141.324C74.1544 141.347 74.1295 141.367 74.1014 141.381C74.0733 141.395 74.0427 141.404 74.0112 141.406L73.9696 141.414C73.9105 141.414 73.8536 141.392 73.8103 141.352C73.767 141.312 73.7405 141.258 73.7363 141.199C73.4864 138.123 73.9779 136.078 75.2025 135.121C75.468 134.923 75.766 134.773 76.0826 134.677C76.0906 134.673 76.0989 134.67 76.1074 134.667C76.4924 134.545 76.8983 134.522 77.2927 134.601C77.4762 134.638 77.6548 134.696 77.8257 134.774C77.8299 134.77 77.8337 134.768 77.8396 134.78C77.8399 134.78 77.8401 134.78 77.8403 134.781C78.0313 134.87 78.2124 134.984 78.3793 135.121C79.4926 136.078 79.9394 138.123 79.7122 141.199C79.7084 141.258 79.6843 141.312 79.645 141.352Z" fill="#251354"/>
<path d="M108.673 127.46L112.566 158.206H77.8777L81.3147 127.46H108.673Z" fill="#BDC5D1"/>
<path fill-rule="evenodd" clip-rule="evenodd" d="M99.9076 132.169C99.8438 132.233 99.7599 132.269 99.6729 132.269L99.6115 132.255C99.5652 132.252 99.52 132.239 99.4786 132.216C99.4372 132.193 99.4005 132.161 99.3707 132.122C99.3409 132.084 99.3186 132.039 99.3051 131.99C99.2916 131.942 99.2873 131.891 99.2924 131.841C99.6238 127.203 98.9733 123.995 97.39 122.658C96.9668 122.314 96.4765 122.081 95.9571 121.976C95.9151 121.968 95.8729 121.96 95.8307 121.953C95.4937 121.905 95.1646 121.908 94.7966 121.975C94.2253 122.08 93.6859 122.313 93.2204 122.657C91.4788 123.994 90.7633 127.202 91.1278 131.84C91.1334 131.89 91.1286 131.941 91.1138 131.99C91.099 132.038 91.0745 132.083 91.0417 132.122C91.0089 132.16 90.9685 132.192 90.9229 132.215C90.8774 132.238 90.8277 132.251 90.7768 132.255L90.7092 132.268C90.6135 132.268 90.5212 132.233 90.4511 132.168C90.3809 132.103 90.3381 132.015 90.3312 131.92C89.9262 126.935 90.7227 123.62 92.7074 122.069C93.1391 121.747 93.6239 121.503 94.1388 121.348C94.1503 121.343 94.1622 121.338 94.1743 121.335C94.7982 121.136 95.456 121.1 96.0953 121.227C96.3924 121.287 96.6817 121.381 96.9584 121.507C96.9654 121.5 96.9717 121.497 96.9815 121.516C96.9819 121.517 96.9824 121.518 96.9829 121.519C97.2924 121.663 97.5859 121.847 97.8564 122.07C99.6606 123.62 100.385 126.935 100.017 131.921C100.01 132.016 99.9714 132.104 99.9076 132.169Z" fill="#251354"/>
<path opacity="0.5" d="M149.528 138.497L151.916 157.418H130.63L132.739 138.497H149.528Z" fill="#D0D4DA"/>
<path opacity="0.5" fill-rule="evenodd" clip-rule="evenodd" d="M144.223 141.352C144.184 141.392 144.132 141.414 144.078 141.414L144.04 141.406C144.012 141.404 143.984 141.395 143.958 141.381C143.933 141.367 143.91 141.348 143.892 141.324C143.873 141.3 143.86 141.272 143.851 141.242C143.843 141.212 143.84 141.181 143.844 141.15C144.048 138.288 143.647 136.309 142.67 135.484C142.409 135.272 142.106 135.128 141.786 135.063C141.768 135.06 141.75 135.056 141.732 135.053C141.515 135.02 141.305 135.02 141.07 135.063C140.717 135.128 140.384 135.271 140.097 135.484C139.023 136.309 138.581 138.288 138.806 141.15C138.809 141.181 138.806 141.212 138.797 141.242C138.788 141.272 138.773 141.3 138.753 141.324C138.733 141.347 138.708 141.367 138.68 141.381C138.651 141.395 138.621 141.404 138.589 141.406L138.548 141.414C138.489 141.414 138.432 141.392 138.388 141.352C138.345 141.312 138.319 141.258 138.314 141.199C138.065 138.123 138.556 136.078 139.781 135.121C140.046 134.923 140.344 134.773 140.661 134.677C140.669 134.673 140.677 134.67 140.686 134.667C141.071 134.545 141.476 134.522 141.871 134.601C142.054 134.638 142.233 134.696 142.404 134.774C142.408 134.77 142.412 134.768 142.418 134.78C142.418 134.78 142.418 134.78 142.418 134.781C142.609 134.87 142.791 134.984 142.957 135.121C144.071 136.078 144.518 138.123 144.29 141.199C144.286 141.258 144.262 141.312 144.223 141.352Z" fill="#251354"/>
<path d="M173.251 127.46L177.144 158.206H142.456L145.893 127.46H173.251Z" fill="#BDC5D1"/>
<path fill-rule="evenodd" clip-rule="evenodd" d="M164.486 132.169C164.422 132.233 164.338 132.269 164.251 132.269L164.19 132.255C164.143 132.252 164.098 132.239 164.057 132.216C164.015 132.193 163.979 132.161 163.949 132.122C163.919 132.084 163.897 132.039 163.883 131.99C163.87 131.942 163.866 131.891 163.871 131.841C164.202 127.203 163.551 123.995 161.968 122.658C161.545 122.314 161.055 122.081 160.535 121.976C160.495 121.968 160.454 121.961 160.413 121.954C160.075 121.905 159.744 121.908 159.375 121.976C158.803 122.08 158.264 122.313 157.799 122.657C156.057 123.994 155.341 127.202 155.706 131.84C155.711 131.891 155.707 131.941 155.692 131.99C155.677 132.038 155.653 132.083 155.62 132.122C155.587 132.16 155.547 132.192 155.501 132.215C155.456 132.238 155.406 132.251 155.355 132.255L155.287 132.268C155.192 132.268 155.099 132.233 155.029 132.168C154.959 132.104 154.916 132.015 154.909 131.921C154.504 126.935 155.301 123.62 157.286 122.069C157.717 121.747 158.202 121.503 158.717 121.348C158.728 121.343 158.74 121.338 158.752 121.335C159.376 121.136 160.034 121.1 160.673 121.227C160.971 121.287 161.26 121.381 161.537 121.507C161.544 121.5 161.55 121.497 161.56 121.516C161.56 121.517 161.561 121.518 161.561 121.519C161.871 121.663 162.164 121.847 162.435 122.07C164.239 123.62 164.963 126.935 164.595 131.921C164.589 132.016 164.55 132.104 164.486 132.169Z" fill="#251354"/>
<rect x="57.583" y="192.083" width="63.5195" height="95.2792" fill="white"/>
<rect x="123.22" y="192.083" width="63.5195" height="95.2792" fill="white"/>
<path opacity="0.5" d="M84.9494 236.952L87.338 255.872H66.0522L68.1613 236.952H84.9494Z" fill="#D0D4DA"/>
<path opacity="0.5" fill-rule="evenodd" clip-rule="evenodd" d="M79.645 239.807C79.6056 239.847 79.5539 239.869 79.5002 239.869L79.4623 239.861C79.4337 239.859 79.4058 239.85 79.3803 239.836C79.3548 239.822 79.3321 239.803 79.3137 239.779C79.2953 239.755 79.2815 239.727 79.2732 239.697C79.2649 239.667 79.2623 239.636 79.2654 239.605C79.4699 236.743 79.0685 234.764 78.0916 233.939C77.8304 233.727 77.5279 233.583 77.2074 233.518C77.1895 233.515 77.1715 233.511 77.1535 233.508C76.9372 233.475 76.7273 233.475 76.4916 233.518C76.139 233.583 75.8063 233.727 75.519 233.939C74.4444 234.764 74.0029 236.743 74.2278 239.605C74.2313 239.636 74.2283 239.667 74.2192 239.697C74.2101 239.727 74.1949 239.755 74.1747 239.779C74.1544 239.803 74.1295 239.822 74.1014 239.836C74.0733 239.85 74.0427 239.859 74.0112 239.861L73.9696 239.869C73.9105 239.869 73.8536 239.847 73.8103 239.807C73.767 239.767 73.7405 239.713 73.7363 239.655C73.4864 236.578 73.9779 234.533 75.2025 233.576C75.468 233.378 75.766 233.228 76.0826 233.132C76.0906 233.128 76.0989 233.125 76.1074 233.122C76.4924 233 76.8983 232.977 77.2927 233.056C77.4762 233.093 77.6548 233.151 77.8257 233.229C77.8299 233.225 77.8337 233.223 77.8396 233.235C77.8399 233.235 77.8401 233.235 77.8403 233.236C78.0313 233.325 78.2124 233.439 78.3793 233.576C79.4926 234.533 79.9394 236.578 79.7122 239.655C79.7084 239.713 79.6843 239.767 79.645 239.807Z" fill="#251354"/>
<path d="M108.673 225.915L112.566 256.661H77.8777L81.3147 225.915H108.673Z" fill="#BDC5D1"/>
<path fill-rule="evenodd" clip-rule="evenodd" d="M99.9076 230.624C99.8438 230.688 99.7599 230.724 99.6729 230.724L99.6115 230.71C99.5652 230.707 99.52 230.694 99.4786 230.671C99.4372 230.648 99.4005 230.616 99.3707 230.577C99.3409 230.539 99.3186 230.494 99.3051 230.446C99.2916 230.397 99.2873 230.346 99.2924 230.296C99.6238 225.658 98.9733 222.45 97.39 221.113C96.9668 220.769 96.4765 220.536 95.9571 220.431C95.9213 220.424 95.8854 220.418 95.8494 220.412C95.5059 220.36 95.1714 220.362 94.7966 220.431C94.2253 220.535 93.6859 220.768 93.2204 221.113C91.4788 222.449 90.7633 225.657 91.1278 230.296C91.1334 230.346 91.1286 230.397 91.1138 230.445C91.099 230.493 91.0745 230.538 91.0417 230.577C91.0089 230.616 90.9685 230.648 90.9229 230.67C90.8774 230.693 90.8277 230.707 90.7768 230.71L90.7092 230.723C90.6135 230.724 90.5212 230.688 90.4511 230.623C90.3809 230.559 90.3381 230.47 90.3312 230.376C89.9262 225.39 90.7227 222.075 92.7074 220.524C93.1386 220.202 93.6226 219.959 94.1368 219.804C94.149 219.798 94.1615 219.794 94.1743 219.79C94.7982 219.592 95.456 219.555 96.0953 219.682C96.3925 219.742 96.6819 219.836 96.9586 219.962C96.9655 219.955 96.9718 219.952 96.9815 219.971C96.9819 219.972 96.9823 219.973 96.9827 219.974C97.2923 220.118 97.5858 220.303 97.8564 220.525C99.6606 222.075 100.385 225.39 100.017 230.376C100.01 230.471 99.9714 230.559 99.9076 230.624Z" fill="#251354"/>
<path opacity="0.5" d="M150.586 234.835L152.975 253.756H131.689L133.798 234.835H150.586Z" fill="#D0D4DA"/>
<path opacity="0.5" fill-rule="evenodd" clip-rule="evenodd" d="M145.282 237.69C145.243 237.73 145.191 237.752 145.137 237.752L145.099 237.744C145.071 237.742 145.043 237.733 145.017 237.719C144.992 237.705 144.969 237.685 144.951 237.662C144.932 237.638 144.919 237.61 144.91 237.58C144.902 237.55 144.899 237.519 144.903 237.488C145.107 234.626 144.706 232.647 143.729 231.822C143.468 231.609 143.165 231.465 142.845 231.401C142.809 231.394 142.773 231.388 142.737 231.383C142.54 231.357 142.345 231.361 142.129 231.4C141.776 231.465 141.443 231.609 141.156 231.821C140.082 232.646 139.64 234.625 139.865 237.487C139.868 237.518 139.866 237.549 139.856 237.579C139.847 237.609 139.832 237.637 139.812 237.661C139.792 237.685 139.767 237.704 139.739 237.718C139.711 237.732 139.68 237.741 139.648 237.743L139.607 237.751C139.548 237.751 139.491 237.729 139.447 237.689C139.404 237.649 139.378 237.595 139.374 237.536C139.124 234.46 139.615 232.415 140.84 231.458C141.107 231.258 141.407 231.108 141.725 231.012C141.732 231.01 141.738 231.007 141.745 231.005C142.13 230.883 142.535 230.86 142.93 230.939C143.113 230.976 143.292 231.034 143.462 231.112C143.467 231.107 143.471 231.105 143.477 231.117C143.477 231.117 143.478 231.118 143.478 231.119C143.669 231.208 143.85 231.322 144.017 231.459C145.13 232.416 145.577 234.461 145.349 237.537C145.346 237.596 145.322 237.65 145.282 237.69Z" fill="#251354"/>
<path d="M174.31 223.798L178.203 254.544H143.515L146.952 223.798H174.31Z" fill="#BDC5D1"/>
<path fill-rule="evenodd" clip-rule="evenodd" d="M165.545 228.507C165.481 228.571 165.397 228.607 165.31 228.607L165.248 228.593C165.202 228.59 165.157 228.576 165.116 228.554C165.074 228.531 165.037 228.499 165.008 228.46C164.978 228.422 164.956 228.377 164.942 228.328C164.929 228.28 164.924 228.229 164.929 228.179C165.261 223.541 164.61 220.333 163.027 218.996C162.604 218.652 162.113 218.418 161.594 218.314C161.554 218.306 161.514 218.299 161.474 218.292C161.135 218.243 160.804 218.246 160.434 218.313C159.862 218.418 159.323 218.651 158.857 218.995C157.116 220.332 156.4 223.54 156.765 228.178C156.77 228.228 156.766 228.279 156.751 228.328C156.736 228.376 156.711 228.421 156.679 228.46C156.646 228.498 156.605 228.53 156.56 228.553C156.514 228.576 156.465 228.589 156.414 228.593L156.346 228.606C156.25 228.606 156.158 228.57 156.088 228.506C156.018 228.441 155.975 228.353 155.968 228.258C155.563 223.273 156.36 219.958 158.344 218.407C158.776 218.085 159.26 217.841 159.775 217.686C159.787 217.681 159.799 217.676 159.811 217.673C160.435 217.474 161.093 217.438 161.732 217.565C162.029 217.625 162.319 217.719 162.595 217.845C162.602 217.838 162.609 217.835 162.618 217.854C162.619 217.855 162.619 217.856 162.62 217.856C162.929 218.001 163.223 218.185 163.493 218.408C165.298 219.958 166.022 223.273 165.654 228.259C165.647 228.354 165.608 228.442 165.545 228.507Z" fill="#251354"/>
<rect x="174.035" y="72.4546" width="12.7039" height="1.05866" fill="#06C455"/>
<rect x="174.035" y="75.6304" width="12.7039" height="1.05866" fill="#06C455"/>
<rect x="174.035" y="78.8064" width="12.7039" height="1.05866" fill="#06C455"/>
<rect x="60.759" y="98.9209" width="48.6983" height="3.17597" fill="#D0D4DA"/>
<rect x="79.8149" y="171.968" width="35.9944" height="10.5866" rx="1.5" fill="#06C455"/>
<rect x="63.9351" y="171.968" width="10.5866" height="10.5866" rx="1.5" fill="#BDC5D1"/>
<path fill-rule="evenodd" clip-rule="evenodd" d="M69.2938 179.203L67.7849 180.033V175.618C67.7849 175.356 67.9779 175.144 68.216 175.144L70.3717 175.144C70.6098 175.144 70.8028 175.356 70.8028 175.618L70.8028 180.033L69.2938 179.203Z" fill="white"/>
<path d="M92.8225 178.32V175.24H93.3669V176.392H93.3894C93.4175 176.336 93.4566 176.276 93.5067 176.213C93.5579 176.149 93.627 176.094 93.7142 176.049C93.8025 176.003 93.9143 175.98 94.0496 175.98C94.228 175.98 94.3889 176.026 94.5323 176.117C94.6767 176.208 94.791 176.342 94.8752 176.518C94.9604 176.695 95.003 176.911 95.003 177.168C95.003 177.422 94.9614 177.637 94.8782 177.815C94.795 177.992 94.6817 178.127 94.5383 178.221C94.395 178.314 94.2325 178.361 94.0511 178.361C93.9188 178.361 93.809 178.339 93.7218 178.294C93.6345 178.25 93.5644 178.197 93.5112 178.135C93.4591 178.072 93.4185 178.012 93.3894 177.956H93.3579V178.32H92.8225ZM93.3564 177.165C93.3564 177.389 93.4035 177.57 93.4977 177.708C93.5919 177.845 93.7258 177.914 93.8992 177.914C94.0787 177.914 94.215 177.843 94.3082 177.702C94.4015 177.561 94.4481 177.382 94.4481 177.165C94.4481 176.95 94.402 176.773 94.3097 176.634C94.2175 176.496 94.0807 176.427 93.8992 176.427C93.7238 176.427 93.5894 176.494 93.4962 176.628C93.403 176.762 93.3564 176.941 93.3564 177.165Z" fill="white"/>
<path d="M96.938 177.349V176.01H97.4823V178.32H96.9545V177.909H96.9304C96.8783 178.039 96.7926 178.145 96.6733 178.227C96.555 178.309 96.4091 178.35 96.2357 178.35C96.0091 178.35 95.8242 178.275 95.6808 178.124C95.5375 177.973 95.4658 177.759 95.4658 177.481V176.01H96.0101V177.397C96.0101 177.543 96.0502 177.659 96.1304 177.746C96.2106 177.832 96.3159 177.875 96.4462 177.875C96.5264 177.875 96.6041 177.855 96.6793 177.816C96.7545 177.777 96.8162 177.719 96.8643 177.642C96.9134 177.564 96.938 177.466 96.938 177.349Z" fill="white"/>
<path d="M98.3805 179.182C98.3063 179.182 98.2376 179.176 98.1744 179.164C98.1123 179.153 98.0627 179.139 98.0256 179.123L98.1519 178.7C98.2712 178.735 98.3709 178.74 98.4511 178.717C98.5313 178.695 98.5975 178.62 98.6496 178.493L98.6963 178.368L97.8587 176.01H98.4361L98.9684 177.755H98.9925L99.5263 176.01L100.108 176.013L99.1805 178.6C99.1153 178.781 99.0186 178.923 98.8902 179.027C98.7629 179.13 98.593 179.182 98.3805 179.182Z" fill="white"/>
<path d="M102.081 176.967V178.32H101.537V176.01H102.057V176.403H102.084C102.137 176.274 102.222 176.172 102.338 176.096C102.455 176.019 102.6 175.98 102.773 175.98C103.011 175.98 103.203 176.056 103.347 176.207C103.492 176.359 103.565 176.573 103.564 176.849V178.32H103.019V176.933C103.019 176.779 102.979 176.658 102.899 176.571C102.82 176.484 102.71 176.44 102.57 176.44C102.426 176.44 102.309 176.486 102.218 176.579C102.126 176.67 102.081 176.799 102.081 176.967Z" fill="white"/>
<path d="M105.125 178.365C104.899 178.365 104.703 178.315 104.538 178.216C104.373 178.117 104.244 177.978 104.153 177.8C104.063 177.62 104.018 177.412 104.018 177.174C104.018 176.935 104.063 176.727 104.153 176.549C104.244 176.369 104.373 176.23 104.538 176.13C104.703 176.03 104.899 175.98 105.125 175.98C105.35 175.98 105.546 176.03 105.711 176.13C105.877 176.23 106.006 176.369 106.096 176.549C106.186 176.727 106.231 176.935 106.231 177.174C106.231 177.412 106.186 177.62 106.096 177.8C106.006 177.978 105.877 178.117 105.711 178.216C105.546 178.315 105.35 178.365 105.125 178.365ZM105.128 177.929C105.251 177.929 105.353 177.895 105.434 177.828C105.517 177.761 105.578 177.67 105.618 177.556C105.659 177.441 105.679 177.313 105.679 177.173C105.679 177.031 105.659 176.903 105.618 176.789C105.578 176.674 105.517 176.582 105.434 176.514C105.353 176.446 105.251 176.412 105.128 176.412C105.003 176.412 104.899 176.446 104.816 176.514C104.734 176.582 104.672 176.674 104.631 176.789C104.59 176.903 104.57 177.031 104.57 177.173C104.57 177.313 104.59 177.441 104.631 177.556C104.672 177.67 104.734 177.761 104.816 177.828C104.899 177.895 105.003 177.929 105.128 177.929Z" fill="white"/>
<path d="M107.108 178.32L106.455 176.01H107.01L107.416 177.634H107.437L107.852 176.01H108.401L108.816 177.625H108.839L109.239 176.01H109.795L109.141 178.32H108.574L108.141 176.759H108.11L107.676 178.32H107.108Z" fill="white"/>
<path fill-rule="evenodd" clip-rule="evenodd" d="M84.9917 174.631C85.0348 174.621 85.0801 174.615 85.1271 174.615L88.8243 174.88C89.1556 174.885 89.4797 175.16 89.3197 175.517C89.2885 175.587 89.1478 175.87 88.9241 176.315C88.8328 176.497 88.7391 176.683 88.6454 176.869L88.5548 177.048L88.5269 177.103C88.4508 177.299 88.2902 177.45 88.0895 177.514L88.0505 177.526L85.3829 177.526L85.3792 177.526L84.8567 177.526C84.7063 177.533 84.586 177.653 84.5789 177.791L84.5784 178.04C84.5875 178.191 84.7086 178.312 84.8436 178.32L84.8887 178.32C84.9977 178.012 85.2918 177.791 85.6375 177.791C85.9833 177.791 86.2774 178.012 86.3864 178.32H87.006C87.115 178.012 87.4092 177.791 87.7549 177.791C88.1934 177.791 88.5489 178.146 88.5489 178.585C88.5489 179.023 88.1934 179.379 87.7549 179.379C87.4092 179.379 87.115 179.158 87.006 178.849L86.3864 178.849C86.2774 179.158 85.9833 179.379 85.6375 179.379C85.2917 179.379 84.9975 179.158 84.8886 178.849L84.8285 178.849C84.4102 178.825 84.0752 178.491 84.0496 178.055L84.0499 177.778C84.0708 177.356 84.407 177.019 84.8409 176.997L84.5815 175.182L84.5789 175.144C84.5789 174.973 84.4918 174.77 84.3917 174.67C84.3658 174.644 84.2503 174.615 84.0496 174.615V174.085C84.3782 174.085 84.6155 174.145 84.766 174.295C84.8547 174.384 84.9327 174.501 84.9917 174.631ZM87.755 178.85C87.9011 178.85 88.0196 178.731 88.0196 178.585C88.0196 178.439 87.9011 178.32 87.755 178.32C87.6088 178.32 87.4903 178.439 87.4903 178.585C87.4903 178.731 87.6088 178.85 87.755 178.85ZM85.9023 178.585C85.9023 178.731 85.7838 178.85 85.6376 178.85C85.4915 178.85 85.373 178.731 85.373 178.585C85.373 178.439 85.4915 178.32 85.6376 178.32C85.7838 178.32 85.9023 178.439 85.9023 178.585Z" fill="white"/>
<rect x="145.452" y="171.968" width="35.9944" height="10.5866" rx="1.5" fill="#06C455"/>
<rect x="129.572" y="171.968" width="10.5866" height="10.5866" rx="1.5" fill="#BDC5D1"/>
<path fill-rule="evenodd" clip-rule="evenodd" d="M134.93 179.203L133.421 180.033V175.618C133.421 175.356 133.614 175.144 133.853 175.144H136.008C136.246 175.144 136.439 175.356 136.439 175.618L136.439 180.033L134.93 179.203Z" fill="white"/>
<path d="M158.459 178.32V175.24H159.004V176.392H159.026C159.054 176.336 159.093 176.276 159.143 176.213C159.195 176.149 159.264 176.094 159.351 176.049C159.439 176.003 159.551 175.98 159.686 175.98C159.865 175.98 160.026 176.026 160.169 176.117C160.313 176.208 160.428 176.342 160.512 176.518C160.597 176.695 160.64 176.911 160.64 177.168C160.64 177.422 160.598 177.637 160.515 177.815C160.432 177.992 160.318 178.127 160.175 178.221C160.032 178.314 159.869 178.361 159.688 178.361C159.555 178.361 159.446 178.339 159.358 178.294C159.271 178.25 159.201 178.197 159.148 178.135C159.096 178.072 159.055 178.012 159.026 177.956H158.995V178.32H158.459ZM158.993 177.165C158.993 177.389 159.04 177.57 159.134 177.708C159.229 177.845 159.362 177.914 159.536 177.914C159.715 177.914 159.852 177.843 159.945 177.702C160.038 177.561 160.085 177.382 160.085 177.165C160.085 176.95 160.039 176.773 159.946 176.634C159.854 176.496 159.717 176.427 159.536 176.427C159.36 176.427 159.226 176.494 159.133 176.628C159.04 176.762 158.993 176.941 158.993 177.165Z" fill="white"/>
<path d="M162.575 177.349V176.01H163.119V178.32H162.591V177.909H162.567C162.515 178.039 162.429 178.145 162.31 178.227C162.192 178.309 162.046 178.35 161.872 178.35C161.646 178.35 161.461 178.275 161.318 178.124C161.174 177.973 161.102 177.759 161.102 177.481V176.01H161.647V177.397C161.647 177.543 161.687 177.659 161.767 177.746C161.847 177.832 161.953 177.875 162.083 177.875C162.163 177.875 162.241 177.855 162.316 177.816C162.391 177.777 162.453 177.719 162.501 177.642C162.55 177.564 162.575 177.466 162.575 177.349Z" fill="white"/>
<path d="M164.017 179.182C163.943 179.182 163.874 179.176 163.811 179.164C163.749 179.153 163.699 179.139 163.662 179.123L163.789 178.7C163.908 178.735 164.008 178.74 164.088 178.717C164.168 178.695 164.234 178.62 164.286 178.493L164.333 178.368L163.495 176.01H164.073L164.605 177.755H164.629L165.163 176.01L165.745 176.013L164.817 178.6C164.752 178.781 164.655 178.923 164.527 179.027C164.4 179.13 164.23 179.182 164.017 179.182Z" fill="white"/>
<path d="M167.718 176.967V178.32H167.173V176.01H167.694V176.403H167.721C167.774 176.274 167.858 176.172 167.975 176.096C168.092 176.019 168.237 175.98 168.409 175.98C168.648 175.98 168.839 176.056 168.984 176.207C169.129 176.359 169.201 176.573 169.2 176.849V178.32H168.656V176.933C168.656 176.779 168.616 176.658 168.536 176.571C168.456 176.484 168.347 176.44 168.206 176.44C168.063 176.44 167.946 176.486 167.854 176.579C167.763 176.67 167.718 176.799 167.718 176.967Z" fill="white"/>
<path d="M170.761 178.365C170.536 178.365 170.34 178.315 170.175 178.216C170.009 178.117 169.881 177.978 169.79 177.8C169.7 177.62 169.654 177.412 169.654 177.174C169.654 176.935 169.7 176.727 169.79 176.549C169.881 176.369 170.009 176.23 170.175 176.13C170.34 176.03 170.536 175.98 170.761 175.98C170.987 175.98 171.182 176.03 171.348 176.13C171.514 176.23 171.642 176.369 171.733 176.549C171.823 176.727 171.868 176.935 171.868 177.174C171.868 177.412 171.823 177.62 171.733 177.8C171.642 177.978 171.514 178.117 171.348 178.216C171.182 178.315 170.987 178.365 170.761 178.365ZM170.764 177.929C170.888 177.929 170.99 177.895 171.071 177.828C171.153 177.761 171.214 177.67 171.254 177.556C171.296 177.441 171.316 177.313 171.316 177.173C171.316 177.031 171.296 176.903 171.254 176.789C171.214 176.674 171.153 176.582 171.071 176.514C170.99 176.446 170.888 176.412 170.764 176.412C170.64 176.412 170.536 176.446 170.453 176.514C170.371 176.582 170.309 176.674 170.268 176.789C170.227 176.903 170.206 177.031 170.206 177.173C170.206 177.313 170.227 177.441 170.268 177.556C170.309 177.67 170.371 177.761 170.453 177.828C170.536 177.895 170.64 177.929 170.764 177.929Z" fill="white"/>
<path d="M172.745 178.32L172.092 176.01H172.647L173.053 177.634H173.074L173.489 176.01H174.038L174.453 177.625H174.476L174.876 176.01H175.432L174.778 178.32H174.211L173.778 176.759H173.746L173.313 178.32H172.745Z" fill="white"/>
<path fill-rule="evenodd" clip-rule="evenodd" d="M150.628 174.631C150.671 174.621 150.717 174.615 150.764 174.615L154.461 174.88C154.792 174.885 155.116 175.16 154.956 175.517C154.925 175.587 154.785 175.87 154.561 176.315C154.47 176.497 154.376 176.683 154.282 176.869L154.191 177.048L154.164 177.103C154.088 177.299 153.927 177.45 153.726 177.514L153.687 177.526L151.02 177.526L151.016 177.526L150.493 177.526C150.343 177.533 150.223 177.653 150.216 177.791L150.215 178.04C150.224 178.191 150.345 178.312 150.48 178.32H150.525C150.634 178.012 150.929 177.791 151.274 177.791C151.62 177.791 151.914 178.012 152.023 178.32H152.643C152.752 178.012 153.046 177.791 153.392 177.791C153.83 177.791 154.186 178.146 154.186 178.585C154.186 179.023 153.83 179.379 153.392 179.379C153.046 179.379 152.752 179.158 152.643 178.849L152.023 178.849C151.914 179.158 151.62 179.379 151.274 179.379C150.928 179.379 150.634 179.158 150.525 178.849L150.465 178.849C150.047 178.825 149.712 178.491 149.686 178.055L149.687 177.778C149.708 177.356 150.044 177.019 150.478 176.997L150.218 175.182L150.216 175.144C150.216 174.973 150.128 174.77 150.028 174.67C150.003 174.644 149.887 174.615 149.686 174.615V174.085C150.015 174.085 150.252 174.145 150.403 174.295C150.491 174.384 150.569 174.501 150.628 174.631ZM153.392 178.85C153.538 178.85 153.656 178.731 153.656 178.585C153.656 178.439 153.538 178.32 153.392 178.32C153.245 178.32 153.127 178.439 153.127 178.585C153.127 178.731 153.245 178.85 153.392 178.85ZM151.539 178.585C151.539 178.731 151.42 178.85 151.274 178.85C151.128 178.85 151.01 178.731 151.01 178.585C151.01 178.439 151.128 178.32 151.274 178.32C151.42 178.32 151.539 178.439 151.539 178.585Z" fill="white"/>
<rect x="79.8149" y="267.248" width="35.9944" height="10.5866" rx="1.5" fill="#06C455"/>
<rect x="63.9351" y="267.248" width="10.5866" height="10.5866" rx="1.5" fill="#BDC5D1"/>
<path fill-rule="evenodd" clip-rule="evenodd" d="M69.2938 274.483L67.7849 275.313L67.7849 270.898C67.7849 270.636 67.9779 270.424 68.216 270.424L70.3717 270.424C70.6098 270.424 70.8028 270.636 70.8028 270.898V275.313L69.2938 274.483Z" fill="white"/>
<path d="M92.806 273.365H93.3117V273.021H93.3415C93.4225 273.181 93.5915 273.404 93.9665 273.404C94.4807 273.404 94.8656 272.996 94.8656 272.277C94.8656 271.55 94.4693 271.155 93.9651 271.155C93.5801 271.155 93.4196 271.387 93.3415 271.544H93.3202V270.456H92.806V273.365ZM93.3102 272.274C93.3102 271.851 93.4921 271.577 93.823 271.577C94.1653 271.577 94.3415 271.868 94.3415 272.274C94.3415 272.683 94.1625 272.982 93.823 272.982C93.4949 272.982 93.3102 272.698 93.3102 272.274ZM96.6934 272.448C96.6934 272.78 96.4562 272.945 96.2289 272.945C95.9818 272.945 95.817 272.77 95.817 272.493V271.183H95.3028V272.573C95.3028 273.097 95.6011 273.394 96.0301 273.394C96.3568 273.394 96.5869 273.222 96.6863 272.977H96.709V273.365H97.2076V271.183H96.6934V272.448ZM98.056 274.179C98.4565 274.179 98.6881 273.972 98.8117 273.629L99.6881 271.186L99.1384 271.183L98.6341 272.831H98.6114L98.1085 271.183H97.5631L98.3543 273.411L98.3102 273.529C98.2122 273.77 98.0645 273.789 97.8401 273.725L97.7207 274.124C97.7903 274.154 97.9153 274.179 98.056 274.179ZM101.551 272.087C101.551 271.771 101.742 271.59 102.013 271.59C102.279 271.59 102.438 271.764 102.438 272.056V273.365H102.952V271.976C102.953 271.453 102.655 271.155 102.205 271.155C101.878 271.155 101.654 271.311 101.554 271.554H101.529V271.183H101.037V273.365H101.551V272.087ZM104.426 273.408C105.066 273.408 105.472 272.958 105.472 272.283C105.472 271.607 105.066 271.155 104.426 271.155C103.787 271.155 103.381 271.607 103.381 272.283C103.381 272.958 103.787 273.408 104.426 273.408ZM104.429 272.996C104.076 272.996 103.902 272.681 103.902 272.281C103.902 271.882 104.076 271.563 104.429 271.563C104.777 271.563 104.951 271.882 104.951 272.281C104.951 272.681 104.777 272.996 104.429 272.996ZM106.3 273.365H106.837L107.246 271.891H107.276L107.685 273.365H108.22L108.838 271.183H108.313L107.935 272.709H107.914L107.522 271.183H107.003L106.611 272.718H106.591L106.208 271.183H105.683L106.3 273.365Z" fill="white"/>
<path fill-rule="evenodd" clip-rule="evenodd" d="M84.9917 269.911C85.0348 269.9 85.0801 269.895 85.1271 269.895L88.8243 270.159C89.1556 270.165 89.4797 270.44 89.3197 270.797C89.2885 270.866 89.1478 271.149 88.9241 271.595C88.8328 271.777 88.7391 271.963 88.6454 272.148L88.5548 272.328L88.5269 272.383C88.4508 272.579 88.2902 272.73 88.0895 272.793L88.0505 272.806L85.3829 272.806L85.3792 272.806L84.8567 272.806C84.7063 272.813 84.586 272.933 84.5789 273.071L84.5784 273.319C84.5875 273.471 84.7086 273.592 84.8436 273.6H84.8887C84.9977 273.291 85.2918 273.071 85.6375 273.071C85.9833 273.071 86.2774 273.291 86.3864 273.6H87.006C87.115 273.291 87.4092 273.071 87.7549 273.071C88.1934 273.071 88.5489 273.426 88.5489 273.865C88.5489 274.303 88.1934 274.659 87.7549 274.659C87.4092 274.659 87.115 274.438 87.006 274.129H86.3864C86.2774 274.438 85.9833 274.659 85.6375 274.659C85.2917 274.659 84.9975 274.437 84.8886 274.129L84.8285 274.129C84.4102 274.105 84.0752 273.77 84.0496 273.335L84.0499 273.057C84.0708 272.636 84.407 272.299 84.8409 272.277L84.5815 270.461L84.5789 270.424C84.5789 270.253 84.4918 270.049 84.3917 269.949C84.3658 269.923 84.2503 269.895 84.0496 269.895V269.365C84.3782 269.365 84.6155 269.425 84.766 269.575C84.8547 269.664 84.9327 269.78 84.9917 269.911ZM87.755 274.129C87.9011 274.129 88.0196 274.011 88.0196 273.865C88.0196 273.718 87.9011 273.6 87.755 273.6C87.6088 273.6 87.4903 273.718 87.4903 273.865C87.4903 274.011 87.6088 274.129 87.755 274.129ZM85.9023 273.865C85.9023 274.011 85.7838 274.129 85.6376 274.129C85.4915 274.129 85.373 274.011 85.373 273.865C85.373 273.718 85.4915 273.6 85.6376 273.6C85.7838 273.6 85.9023 273.718 85.9023 273.865Z" fill="white"/>
<rect x="145.452" y="267.248" width="35.9944" height="10.5866" rx="1.5" fill="#06C455"/>
<rect x="129.572" y="267.248" width="10.5866" height="10.5866" rx="1.5" fill="#BFB8F4"/>
<path fill-rule="evenodd" clip-rule="evenodd" d="M134.93 274.483L133.421 275.313L133.421 270.898C133.421 270.636 133.614 270.424 133.853 270.424L136.008 270.424C136.246 270.424 136.439 270.636 136.439 270.898V275.313L134.93 274.483Z" fill="white"/>
<path d="M158.442 273.365H158.948V273.021H158.978C159.059 273.181 159.228 273.404 159.603 273.404C160.117 273.404 160.502 272.996 160.502 272.277C160.502 271.55 160.106 271.155 159.602 271.155C159.217 271.155 159.056 271.387 158.978 271.544H158.957V270.456H158.442V273.365ZM158.947 272.274C158.947 271.851 159.129 271.577 159.459 271.577C159.802 271.577 159.978 271.868 159.978 272.274C159.978 272.683 159.799 272.982 159.459 272.982C159.131 272.982 158.947 272.698 158.947 272.274ZM162.33 272.448C162.33 272.78 162.093 272.945 161.865 272.945C161.618 272.945 161.453 272.77 161.453 272.493V271.183H160.939V272.573C160.939 273.097 161.238 273.394 161.667 273.394C161.993 273.394 162.223 273.222 162.323 272.977H162.346V273.365H162.844V271.183H162.33V272.448ZM163.692 274.179C164.093 274.179 164.325 273.972 164.448 273.629L165.325 271.186L164.775 271.183L164.271 272.831H164.248L163.745 271.183H163.2L163.991 273.411L163.947 273.529C163.849 273.77 163.701 273.789 163.477 273.725L163.357 274.124C163.427 274.154 163.552 274.179 163.692 274.179ZM167.188 272.087C167.188 271.771 167.378 271.59 167.649 271.59C167.915 271.59 168.074 271.764 168.074 272.056V273.365H168.588V271.976C168.59 271.453 168.292 271.155 167.841 271.155C167.515 271.155 167.29 271.311 167.191 271.554H167.165V271.183H166.674V273.365H167.188V272.087ZM170.063 273.408C170.702 273.408 171.108 272.958 171.108 272.283C171.108 271.607 170.702 271.155 170.063 271.155C169.424 271.155 169.017 271.607 169.017 272.283C169.017 272.958 169.424 273.408 170.063 273.408ZM170.066 272.996C169.712 272.996 169.539 272.681 169.539 272.281C169.539 271.882 169.712 271.563 170.066 271.563C170.414 271.563 170.587 271.882 170.587 272.281C170.587 272.681 170.414 272.996 170.066 272.996ZM171.936 273.365H172.473L172.882 271.891H172.912L173.321 273.365H173.857L174.475 271.183H173.949L173.571 272.709H173.55L173.158 271.183H172.64L172.247 272.718H172.228L171.844 271.183H171.32L171.936 273.365Z" fill="white"/>
<path fill-rule="evenodd" clip-rule="evenodd" d="M150.628 269.911C150.671 269.9 150.717 269.895 150.764 269.895L154.461 270.159C154.792 270.165 155.116 270.44 154.956 270.797C154.925 270.866 154.785 271.149 154.561 271.595C154.47 271.777 154.376 271.963 154.282 272.148L154.191 272.328L154.164 272.383C154.088 272.579 153.927 272.73 153.726 272.793L153.687 272.806L151.02 272.806L151.016 272.806L150.493 272.806C150.343 272.813 150.223 272.933 150.216 273.071L150.215 273.319C150.224 273.471 150.345 273.592 150.48 273.6L150.525 273.6C150.634 273.291 150.929 273.071 151.274 273.071C151.62 273.071 151.914 273.291 152.023 273.6H152.643C152.752 273.291 153.046 273.071 153.392 273.071C153.83 273.071 154.186 273.426 154.186 273.865C154.186 274.303 153.83 274.659 153.392 274.659C153.046 274.659 152.752 274.438 152.643 274.129L152.023 274.129C151.914 274.438 151.62 274.659 151.274 274.659C150.928 274.659 150.634 274.437 150.525 274.129L150.465 274.129C150.047 274.105 149.712 273.77 149.686 273.335L149.687 273.057C149.708 272.636 150.044 272.299 150.478 272.277L150.218 270.461L150.216 270.424C150.216 270.253 150.128 270.049 150.028 269.949C150.003 269.923 149.887 269.895 149.686 269.895V269.365C150.015 269.365 150.252 269.425 150.403 269.575C150.491 269.664 150.569 269.78 150.628 269.911ZM153.392 274.129C153.538 274.129 153.656 274.011 153.656 273.865C153.656 273.718 153.538 273.6 153.392 273.6C153.245 273.6 153.127 273.718 153.127 273.865C153.127 274.011 153.245 274.129 153.392 274.129ZM151.539 273.865C151.539 274.011 151.42 274.129 151.274 274.129C151.128 274.129 151.01 274.011 151.01 273.865C151.01 273.718 151.128 273.6 151.274 273.6C151.42 273.6 151.539 273.718 151.539 273.865Z" fill="white"/>
<rect x="60.759" y="105.273" width="28.5838" height="3.17597" fill="#D0D4DA"/>
<rect x="126.396" y="98.9209" width="48.6983" height="3.17597" fill="#D0D4DA"/>
<rect x="126.396" y="105.273" width="28.5838" height="3.17597" fill="#D0D4DA"/>
<rect x="60.759" y="197.376" width="48.6983" height="3.17597" fill="#D0D4DA"/>
<rect x="60.759" y="203.728" width="28.5838" height="3.17597" fill="#D0D4DA"/>
<rect x="126.396" y="197.376" width="48.6983" height="3.17597" fill="#D0D4DA"/>
<rect x="126.396" y="203.728" width="28.5838" height="3.17597" fill="#D0D4DA"/>
<path d="M195.208 96.2637H196.415C197.14 96.2637 197.834 96.5514 198.347 97.0637C198.859 97.5759 199.147 98.2706 199.147 98.995V148.752C199.147 149.476 198.859 150.171 198.347 150.683C197.834 151.196 197.14 151.483 196.415 151.483H195.208V96.2637Z" fill="white"/>
<path d="M240.777 186.391C240.777 183.033 237.745 180 234.386 180H208.822C205.463 180 202.431 183.033 202.431 186.391V211.954C202.431 215.313 205.463 218.346 208.823 218.346H221.604V203.86H216.918V197.469H221.604V194.979C221.604 190.684 224.829 186.817 228.794 186.817H233.96V193.208H228.794C228.229 193.208 227.569 193.894 227.569 194.923V197.469H233.96V203.86H227.569V218.346H234.386C237.745 218.346 240.777 215.313 240.777 211.954V186.391Z" fill="#06C455"/>
<path d="M34.1573 290H18.1957C11.7089 290 6.4314 295.277 6.4314 301.764L6.4314 317.726C6.4314 324.213 11.7089 329.49 18.1957 329.49H34.1573C40.6441 329.49 45.9216 324.213 45.9216 317.726V301.764C45.9215 295.277 40.6441 290 34.1573 290ZM41.9489 317.726C41.9489 322.029 38.4604 325.517 34.1573 325.517H18.1957C13.8926 325.517 10.4041 322.029 10.4041 317.726L10.4041 301.764C10.4041 297.461 13.8926 293.973 18.1957 293.973H34.1573C38.4604 293.973 41.9489 297.461 41.9489 301.764V317.726Z" fill="#06C455"/>
<path d="M26.1765 299.532C20.5447 299.532 15.9629 304.114 15.9629 309.745C15.9629 315.377 20.5447 319.959 26.1765 319.959C31.8082 319.959 36.39 315.377 36.39 309.745C36.39 304.113 31.8082 299.532 26.1765 299.532ZM26.1765 315.986C22.7297 315.986 19.9356 313.192 19.9356 309.745C19.9356 306.299 22.7298 303.504 26.1765 303.504C29.6232 303.504 32.4173 306.299 32.4173 309.745C32.4173 313.192 29.6231 315.986 26.1765 315.986Z" fill="#06C455"/>
<path d="M36.4098 302.055C37.7614 302.055 38.8572 300.959 38.8572 299.608C38.8572 298.256 37.7614 297.16 36.4098 297.16C35.0581 297.16 33.9624 298.256 33.9624 299.608C33.9624 300.959 35.0581 302.055 36.4098 302.055Z" fill="#06C455"/>
<defs>
<filter id="filter0_d" x="44.6487" y="30.7883" width="156.56" height="304.602" filterUnits="userSpaceOnUse" color-interpolation-filters="sRGB">
<feFlood flood-opacity="0" result="BackgroundImageFix"/>
<feColorMatrix in="SourceAlpha" type="matrix" values="0 0 0 0 0 0 0 0 0 0 0 0 0 0 0 0 0 0 127 0"/>
<feOffset/>
<feGaussianBlur stdDeviation="3"/>
<feColorMatrix type="matrix" values="0 0 0 0 0 0 0 0 0 0 0 0 0 0 0 0 0 0 0.1 0"/>
<feBlend mode="normal" in2="BackgroundImageFix" result="effect1_dropShadow"/>
<feBlend mode="normal" in="SourceGraphic" in2="effect1_dropShadow" result="shape"/>
</filter>
</defs>
</svg>
