<svg width="79" height="79" viewBox="0 0 79 79" fill="none" xmlns="http://www.w3.org/2000/svg">
<rect width="79" height="79" fill="#FF8427"/>
<path fill-rule="evenodd" clip-rule="evenodd" d="M12.7283 17H5V56.9083H12.7283V17ZM23.0191 30.1921C21.3473 30.1921 19.8076 30.4946 18.4136 31.1197L18.4111 31.1208C17.0265 31.7467 15.9027 32.6465 15.0969 33.8522L15.0957 33.854C14.296 35.0557 13.8947 36.4395 13.8947 37.9659C13.8947 40.9926 15.4711 43.282 18.1913 44.8664L18.1924 44.8671C19.1832 45.4421 20.4921 46.0095 22.0974 46.5752L22.1025 46.577C23.6732 47.1196 24.6312 47.6015 25.098 47.9872L25.1062 47.9939C25.4317 48.257 25.6081 48.612 25.6081 49.2166C25.6081 49.7039 25.46 50.0268 25.1189 50.2982C24.7297 50.5968 24.1004 50.8101 23.1254 50.8101C21.7672 50.8101 20.9268 50.4988 20.4409 50.0605C19.9992 49.6621 19.716 49.036 19.716 47.972V46.8634H13.211V47.972C13.211 49.7255 13.6303 51.3088 14.4856 52.6789L14.4893 52.6848C15.3516 54.0472 16.5745 55.0831 18.1009 55.8223L18.1061 55.8248C19.635 56.5533 21.3125 56.9085 23.1254 56.9085C25.701 56.9085 27.8673 56.2957 29.53 54.9546L29.5335 54.9518C31.241 53.5617 32.1131 51.6011 32.1131 49.1838C32.1131 47.0192 31.4083 45.1714 30.0218 43.7151C28.6746 42.3002 26.6176 41.1982 23.966 40.3384C22.596 39.8921 21.629 39.4358 21.0125 38.9935C20.4915 38.613 20.3845 38.2769 20.3845 37.9823C20.3845 37.5317 20.5272 37.195 20.9036 36.889L20.9116 36.8824C21.3045 36.5561 21.9428 36.3232 22.9431 36.3232C23.9588 36.3232 24.6056 36.5923 25.013 36.9827L25.0196 36.9889C25.3983 37.3452 25.6233 37.8535 25.6233 38.6701V39.7787H32.1131V38.6701C32.1131 37.0228 31.7128 35.522 30.9062 34.2036C30.1125 32.8897 29.0053 31.8997 27.628 31.2176C26.2516 30.525 24.709 30.1921 23.0191 30.1921ZM58.9371 28.3074H52.6257V56.9084H58.9371V48.6752L61.8319 45.3732L68.9474 56.9084H76.6796L66.3707 40.1961L76.7936 28.3074H67.841L58.9371 38.4634V28.3074ZM35.2249 17H15.9488V29.1942H26.0922V25.499H31.824V25.503H35.2249C37.6571 25.503 39.3725 26.3953 40.5343 28.0617L40.5369 28.0654C41.7252 29.7552 42.3964 32.361 42.3964 36.0608V38.0474C42.3669 41.5935 41.6802 44.1484 40.4698 45.866C39.2912 47.5385 37.5721 48.4293 35.1572 48.4293H33.0148V56.8805H35.2925L35.2976 56.8805C38.319 56.8624 41.0625 56.0615 43.5042 54.4577C45.9506 52.8509 47.8447 50.5826 49.1758 47.6759C50.5211 44.7711 51.1812 41.4763 51.1812 37.8198V36.0866C51.1812 32.4269 50.5124 29.1221 49.1511 26.2001C47.7915 23.2642 45.8841 20.9869 43.4358 19.3964C41.0061 17.7909 38.2605 17 35.2249 17Z" fill="white"/>
</svg>
