<svg width="200" height="166" viewBox="0 0 200 166" fill="none" xmlns="http://www.w3.org/2000/svg">
<path d="M90.4873 108.542C90.4873 107.381 90.4873 100.706 91.8552 97.4306C92.6427 96.3941 93.2231 95.7307 93.2231 95.7307L91.8552 94.0723L92.0624 92.6212L94.8396 88.8484L98.6117 84.9926L101.389 83.583L103.793 83.7488L104.29 83.9561L102.052 86.8169L100.435 90.6312L99.4407 93.5748L98.6531 95.8136L98.0728 99.1719L97.5754 101.328L97.1194 104.479L94.7153 106.386L91.6894 108.791L90.4873 108.542Z" fill="#E7EAF3"/>
<path d="M118.177 98.5083C118.177 99.5448 113.368 119.984 104.664 124.711C117.016 126.121 119.876 125.001 119.876 125.001L122.446 123.757L123.524 120.316L123.897 114.014L123.855 108.873L123.482 101.991L121.949 100.872L120.291 100.83L119.793 100.706L118.84 99.7106L118.177 98.5083Z" fill="#E7EAF3"/>
<path d="M1.16064 42.3306V89.7191H70.9638L69.9689 88.4339L70.342 85.5317L71.3368 83.5831L69.6373 82.132L67.9378 80.7223L67.1088 78.9396L67.9378 77.7787L76.2695 85.1585L81.2435 89.7191H84.3524V42.3306H1.16064Z" fill="#E7EAF3"/>
<path d="M142.218 72.6377V102.572C146.073 103.815 151.461 105.474 156.435 106.262C157.181 105.888 158.052 105.723 158.881 105.723C161.285 105.723 163.275 107.174 163.275 108.956C163.275 110.739 161.327 112.19 158.881 112.19C157.762 112.232 156.643 111.859 155.731 111.195C154.031 110.988 147.606 110.159 142.176 109.413V162.854H189.099V72.6377H142.218Z" fill="#E7EAF3"/>
<path d="M155.772 111.195C154.487 111.03 150.384 110.532 146.114 109.952V111.361H155.98C155.897 111.32 155.855 111.278 155.772 111.195Z" fill="#377DFF"/>
<path d="M146.28 103.815C149.43 104.769 153.036 105.681 156.435 106.22C157.181 105.847 158.052 105.681 158.881 105.681C161.285 105.681 163.275 107.132 163.275 108.915C163.275 109.869 162.694 110.739 161.824 111.32H185.202V103.774H146.28V103.815Z" fill="#BDC5D1"/>
<path d="M199.876 72.6377H188.974V162.896H199.876V72.6377Z" fill="#BDC5D1"/>
<path d="M185.202 78.3174H146.114V85.8631H185.202V78.3174Z" fill="#BDC5D1"/>
<path d="M148.933 82.505C149.665 82.505 150.259 81.911 150.259 81.1783C150.259 80.4456 149.665 79.8516 148.933 79.8516C148.2 79.8516 147.606 80.4456 147.606 81.1783C147.606 81.911 148.2 82.505 148.933 82.505Z" fill="white"/>
<path d="M171.689 81.1782H151.337" stroke="white" stroke-width="2" stroke-linecap="round" stroke-linejoin="round"/>
<path d="M185.202 91.0874H146.114V98.6331H185.202V91.0874Z" fill="#BDC5D1"/>
<path d="M148.933 95.233C149.665 95.233 150.259 94.639 150.259 93.9063C150.259 93.1736 149.665 92.5796 148.933 92.5796C148.2 92.5796 147.606 93.1736 147.606 93.9063C147.606 94.639 148.2 95.233 148.933 95.233Z" fill="white"/>
<path d="M171.689 93.9067H151.337" stroke="white" stroke-width="2" stroke-linecap="round" stroke-linejoin="round"/>
<path d="M171.689 106.635H161.99" stroke="white" stroke-width="2" stroke-linecap="round" stroke-linejoin="round"/>
<path d="M185.202 116.543H146.114V124.089H185.202V116.543Z" fill="#BDC5D1"/>
<path d="M148.933 120.731C149.665 120.731 150.259 120.137 150.259 119.404C150.259 118.672 149.665 118.078 148.933 118.078C148.2 118.078 147.606 118.672 147.606 119.404C147.606 120.137 148.2 120.731 148.933 120.731Z" fill="white"/>
<path d="M171.689 119.404H151.337" stroke="white" stroke-width="2" stroke-linecap="round" stroke-linejoin="round"/>
<path d="M185.202 129.313H146.114V136.859H185.202V129.313Z" fill="#BDC5D1"/>
<path d="M148.933 133.459C149.665 133.459 150.259 132.865 150.259 132.132C150.259 131.4 149.665 130.806 148.933 130.806C148.2 130.806 147.606 131.4 147.606 132.132C147.606 132.865 148.2 133.459 148.933 133.459Z" fill="white"/>
<path d="M171.689 132.132H151.337" stroke="white" stroke-width="2" stroke-linecap="round" stroke-linejoin="round"/>
<path d="M197.347 83.749H191.461" stroke="white" stroke-linecap="round" stroke-linejoin="round"/>
<path d="M197.347 85.2827H191.461" stroke="white" stroke-linecap="round" stroke-linejoin="round"/>
<path d="M197.347 94.0723H191.461" stroke="white" stroke-linecap="round" stroke-linejoin="round"/>
<path d="M197.347 95.6064H191.461" stroke="white" stroke-linecap="round" stroke-linejoin="round"/>
<path d="M197.347 106.635H191.461" stroke="white" stroke-linecap="round" stroke-linejoin="round"/>
<path d="M197.347 108.168H191.461" stroke="white" stroke-linecap="round" stroke-linejoin="round"/>
<path d="M197.347 118.782H191.461" stroke="white" stroke-linecap="round" stroke-linejoin="round"/>
<path d="M197.347 120.316H191.461" stroke="white" stroke-linecap="round" stroke-linejoin="round"/>
<path d="M11.648 49.2129H49.4925C52.0625 49.2129 54.135 51.2859 54.135 53.8564V78.7737C54.135 81.3442 52.0625 83.4172 49.4925 83.4172H11.648C9.07802 83.4172 7.00548 81.3442 7.00548 78.7737V53.8564C6.96403 51.2859 9.07802 49.2129 11.648 49.2129Z" fill="#BDC5D1"/>
<path d="M121.783 100.789C124.933 103.277 132.228 107.63 134.301 108.169C136.456 108.749 152.912 110.822 155.814 111.195C156.726 111.859 157.845 112.191 158.964 112.191C161.368 112.191 163.358 110.739 163.358 108.957C163.358 107.174 161.41 105.723 158.964 105.723C158.135 105.723 157.265 105.889 156.518 106.262C148.477 104.977 139.399 101.535 137.285 100.955C135.669 99.0892 132.477 96.4772 130.404 94.8188" stroke="#1E2022" stroke-width="0.5" stroke-linecap="round" stroke-linejoin="round"/>
<path d="M75.9795 91.2114C81.5339 99.5034 88.8707 108.707 91.1919 108.707C92.1867 108.707 95.0054 106.386 97.2437 104.23" stroke="#1E2022" stroke-width="0.5" stroke-linecap="round" stroke-linejoin="round"/>
<path d="M93.223 95.6891C92.4355 96.6427 91.4407 97.9279 91.1091 98.5498C89.8241 97.4304 68.6013 77.9028 68.1039 77.9028C67.6479 77.9028 67.2748 78.276 67.2334 78.732C67.2334 81.3025 69.0987 81.4269 71.4199 83.9145" stroke="#1E2022" stroke-width="0.5" stroke-linecap="round" stroke-linejoin="round"/>
<path d="M104.208 83.873C99.275 81.3855 91.7309 91.9577 91.8967 93.7405C92.0211 94.9013 95.0884 97.5962 98.0729 99.1302" stroke="#1E2022" stroke-width="0.5" stroke-linecap="round" stroke-linejoin="round"/>
<path d="M123.316 101.908C124.477 112.314 123.606 122.804 122.321 123.84C119.088 126.452 98.2385 124.048 97.0779 122.638C95.9587 121.27 95.1297 83.2096 109.637 80.5977" stroke="#1E2022" stroke-width="0.5" stroke-linecap="round" stroke-linejoin="round"/>
<path d="M113.617 80.8467C115.399 81.4686 116.85 82.7538 118.093 84.5366" stroke="#1E2022" stroke-width="0.5" stroke-linecap="round" stroke-linejoin="round"/>
<path d="M116.436 86.2777C116.767 85.5729 117.306 84.9924 117.969 84.5778C122.902 81.5927 130.695 92.4966 130.529 94.3209C130.363 96.1451 123.151 101.452 120.166 100.83C119.544 100.706 118.591 99.379 117.762 97.5133" stroke="#1E2022" stroke-width="0.5" stroke-linecap="round" stroke-linejoin="round"/>
<path d="M71.4199 83.9146C69.6375 85.5315 69.4717 88.2678 71.0883 90.0921C72.3318 91.4602 74.28 91.9163 75.9795 91.2529" stroke="#1E2022" stroke-width="0.5" stroke-linecap="round" stroke-linejoin="round"/>
<path d="M83.8136 0.373047H24.4561V35.5724H83.8136V0.373047Z" fill="#E7EAF3"/>
<path d="M20.8497 0H0V35.1994H20.8497V0Z" fill="#E7EAF3"/>
<path d="M30.7983 30.4729C32.5393 28.3999 35.6066 24.8758 41.161 23.6735C49.4926 21.8907 51.8968 12.1477 55.8761 12.1477C60.8916 12.1477 63.0056 15.0084 65.0781 15.0084C69.2232 15.0084 73.617 11.1526 75.8968 5.47266" stroke="#00C9A7" stroke-linecap="round" stroke-linejoin="round"/>
<path d="M17.8239 5.55566H3.06738V6.92384H17.8239V5.55566Z" fill="#FF5600"/>
<path d="M17.8239 10.1162H3.06738V11.4844H17.8239V10.1162Z" fill="#FF5600"/>
<path d="M17.8239 14.6353H3.06738V16.0034H17.8239V14.6353Z" fill="#FF5600"/>
<path d="M17.7824 19.1958H3.02588V20.564H17.7824V19.1958Z" fill="#FF5600"/>
<path d="M17.7824 23.7153H3.02588V25.0835H17.7824V23.7153Z" fill="#FF5600"/>
<path d="M17.7824 28.2759H3.02588V29.6441H17.7824V28.2759Z" fill="#FF5600"/>
<path d="M30.3422 53.8564H10.4458V55.2246H30.3422V53.8564Z" fill="white"/>
<path d="M30.3422 58.3755H10.4458V59.7437H30.3422V58.3755Z" fill="white"/>
<path d="M30.3422 62.936H10.4458V64.3042H30.3422V62.936Z" fill="white"/>
<path d="M30.3007 67.4551H10.4043V68.8233H30.3007V67.4551Z" fill="white"/>
<path d="M30.3007 72.0156H10.4043V73.3838H30.3007V72.0156Z" fill="white"/>
<path d="M30.3007 76.5347H10.4043V77.9028H30.3007V76.5347Z" fill="white"/>
<path d="M43.0263 46.145H67.1506C69.7206 46.145 71.7931 48.218 71.7931 50.7885V61.651C71.7931 64.2215 69.7206 66.2945 67.1506 66.2945H43.0263C40.4563 66.2945 38.3838 64.2215 38.3838 61.651V50.7885C38.3838 48.2595 40.4563 46.145 43.0263 46.145Z" fill="white"/>
<path d="M54.3008 49.876C54.9189 49.876 55.42 49.3749 55.42 48.7566C55.42 48.1384 54.9189 47.6372 54.3008 47.6372C53.6827 47.6372 53.1816 48.1384 53.1816 48.7566C53.1816 49.3749 53.6827 49.876 54.3008 49.876Z" fill="#FF5600"/>
<path d="M54.3008 64.8848C54.9189 64.8848 55.42 64.3836 55.42 63.7654C55.42 63.1472 54.9189 62.646 54.3008 62.646C53.6827 62.646 53.1816 63.1472 53.1816 63.7654C53.1816 64.3836 53.6827 64.8848 54.3008 64.8848Z" fill="#FF5600"/>
<path d="M54.3008 49.1299V63.4335" stroke="#FF5600" stroke-linecap="round" stroke-linejoin="round"/>
<path d="M57.0366 50.9956V59.329" stroke="#FF5600" stroke-linecap="round" stroke-linejoin="round"/>
<path d="M54.3008 63.7653L57.0365 59.3291" stroke="#FF5600" stroke-linecap="round" stroke-linejoin="round"/>
<path d="M159.213 47.2642C156.062 44.1548 156.021 39.0967 159.088 35.9457C161.327 33.6654 164.684 32.9191 167.668 34.08C171.026 28.939 177.865 27.4879 183.005 30.8462C184.829 32.0485 186.28 33.7898 187.15 35.7799C191.254 34.1215 195.896 36.1116 197.554 40.2161C198.466 42.4964 198.301 45.1083 197.057 47.2642H159.213Z" fill="#E7EAF3"/>
<path d="M192.788 46.6011V73.5499" stroke="#E7EAF3" stroke-miterlimit="10"/>
<path d="M141.016 61.5267C142.425 64.2215 145.534 65.2166 147.979 65.2166C153.824 65.2166 156.062 59.578 156.062 57.6709" stroke="#E7EAF3" stroke-linecap="round" stroke-linejoin="round"/>
<path d="M140.643 33.0435C141.928 35.4896 142.591 38.1016 142.591 40.3818C142.591 45.7716 141.679 49.4615 141.016 52.6954" stroke="#E7EAF3" stroke-linecap="round" stroke-linejoin="round"/>
<path d="M111.13 29.5193C115.109 26.2025 119.544 23.7563 124.85 23.7563C129.202 23.7563 132.726 25.0416 135.461 27.0317" stroke="#E7EAF3" stroke-linecap="round" stroke-linejoin="round"/>
<path d="M89.7827 46.7251C93.9278 46.7251 97.7413 43.201 101.803 38.8892" stroke="#E7EAF3" stroke-linecap="round" stroke-linejoin="round"/>
<path d="M109.057 30.7217H103.212V36.5675H109.057V30.7217Z" fill="#377DFF"/>
<path d="M138.073 32.1728C139.492 32.1728 140.643 31.0219 140.643 29.6022C140.643 28.1826 139.492 27.0317 138.073 27.0317C136.654 27.0317 135.503 28.1826 135.503 29.6022C135.503 31.0219 136.654 32.1728 138.073 32.1728Z" fill="#00C9A7"/>
<path d="M145.244 57.2563L139.482 53.5249L139.109 60.3243L145.244 57.2563Z" fill="#FFC107"/>
<path d="M113.617 75.208C113.617 75.208 113.451 82.1733 113.492 83.1683C113.492 83.7487 111.378 84.1219 109.679 83.956" stroke="#1E2022" stroke-width="0.5" stroke-linecap="round" stroke-linejoin="round"/>
<path d="M109.72 78.8979C109.472 78.9393 109.223 78.9393 108.974 78.9393C105.824 78.8978 103.296 75.2494 103.378 70.8547C103.378 69.1548 103.834 67.455 104.663 65.9624" stroke="#1E2022" stroke-width="0.5" stroke-linecap="round" stroke-linejoin="round"/>
<path d="M114.239 69.7769C115.275 69.8183 116.063 70.6475 116.021 71.684C115.98 72.7205 115.151 73.5082 114.114 73.4668C113.741 73.4668 113.368 73.3424 113.078 73.1351" stroke="#1E2022" stroke-width="0.5" stroke-linecap="round" stroke-linejoin="round"/>
<path d="M116.518 70.7721C117.513 70.0673 117.637 65.0921 115.192 63.4752C112.788 61.8997 106.156 61.6095 102.964 57.5879" stroke="#1E2022" stroke-width="0.5" stroke-linecap="round" stroke-linejoin="round"/>
<path d="M104.498 63.1019C103.793 62.6044 101.555 59.6608 101.182 58.873" stroke="#1E2022" stroke-width="0.5" stroke-linecap="round" stroke-linejoin="round"/>
<path d="M102.342 64.3042C101.555 63.475 100.974 62.0654 100.726 61.1118" stroke="#1E2022" stroke-width="0.5" stroke-linecap="round" stroke-linejoin="round"/>
<path d="M107.857 70.5178C108.106 70.4758 108.27 70.222 108.224 69.9511C108.178 69.6802 107.94 69.4946 107.691 69.5367C107.443 69.5787 107.279 69.8324 107.325 70.1033C107.371 70.3743 107.609 70.5598 107.857 70.5178Z" fill="#1E2022"/>
<path d="M105.866 69.4453C105.866 69.9843 105.575 71.4768 104.995 72.8036" stroke="#1E2022" stroke-width="0.5" stroke-linecap="round" stroke-linejoin="round"/>
<path d="M107.067 75.001C107.523 74.8766 107.896 74.545 108.021 74.1304" stroke="#1E2022" stroke-width="0.5" stroke-linecap="round" stroke-linejoin="round"/>
<path d="M97.1191 122.638V165.3H121.451V124.297C116.352 126.121 98.1969 123.965 97.1191 122.638Z" fill="#1E2022"/>
<path d="M134.259 108.168C136.415 108.749 152.871 110.822 155.772 111.195" stroke="#1E2022" stroke-width="0.5" stroke-linecap="round" stroke-linejoin="round"/>
</svg>
