<svg xmlns="http://www.w3.org/2000/svg" width="1388" height="459" fill="none"><style><![CDATA[.B{fill:#fff}.C{fill-rule:evenodd}.D{fill:#c4c4c4}.E{fill:#fdc2a3}.F{stroke-linejoin:round}.G{fill:#f5f5f5}]]></style><g class="C"><g stroke="#fff" class="E F"><path d="M955.8 21.2l-4.5-4-13.6-4.1-9.4-2.1-6.2.9-5.3 2.9 5.8.8 6.6 3.2 8 1.7 11.5 1.3 7.1-.6zm-178.7-7.3l.9-.6-5.7-.9-2.8.7-1.3 1-1.5-1.2-5.2.1-6.2.8 7.7.1-1.1 1.3 4.4 1 3.6-.7.1-.7 2.9-.3 4.2-.6zm200.5 9.9l-1.5-1.8-12.5-2.6-3-.3-2.2.5 1.2 6 18-1.8zm15.2 6.3l-9.2-.7 3.4-1.2-8.2-1.5-6.1 1.9-1 2 1.5 2.1-6.9-.1-5.3 2.6-4.3-1.1-9.3.5.3 1.3-9.2.7-4.9 2.4-4.2.2-1.2 3.3 5.5 2.6-7.7.7-9.5-.3-5.8 1.1 4.8 5.4 6.9 4.3-9.6-3-7.9.3-5.1 2 4.5 3.8-4.9-1-2.1-5-4.2-2.8-1.8.1 3.6 3.7-4.6 3.5 8.1 4.2.4 5.4 2.9 2.9 4.7.5.4 3.5 4.4 3.1-1.9 2.6.5 2.7-3.7 1.4-.5 2-5.3-.8 3.5-7.8-.5-3.6-6.7-3.3-3.8-7.3-3.7-3.7-3.6-1.6.8-4.2-2.9-2.9-11.3-1.4-2.1 1 .5 4.7-4.3 4.7 1.2 1.7 4.7 4.1.1 2.6 5.3.5.8 1.1 5.8 2.9-1 2.8-18.5-6.1-6.6-1.7-12.8-1.6L844 68l5.9 3.1-2.7 3.6-6.4-3.2-5 2.2-7.6.1-2.1 1.9-5.3-.6 2.5-3.3-3.2-.2-12.3 4.6-7.6 2.6.4 3.5-6 1.2-4-1.9-1.2-3 5-.7-3.6-3-12.2-1.8 4.3 3.4-.8 3.2 4.7 3.3-1.1 3.8-4.6-1.9-4-.3-8 5.4 4.2 4.1-3.2 1.4-11.4-3.5-2.1 2.1 3.3 2.4.2 2.7-3.8-1.4-6-1.7-1.9-5.8-1-2.6-8-4 2.9-.7 20.1 4.2 6.4-1.5 3.7-2.9-1.6-3.6-4-2.6-17.6-6.1-11.6-1.3-7.6-3.2-3.6 1.8-6.4 2.2-3.2.5.4 3.7 7.2 3.7-2.8 4.1 6.4 6.3-1.7 4.8 4.9 4.1-.9 3.7 7.3 3.9-.9 2.9-3.3 3.3-7.9 7.4 5.3 2.8-4.5 3.2.9 1-2.6 3.4 2.5 5.5-1.6 1.9 2.4 1.4 1 2.8 2.1 3.6 5.2 1.5 1 1.4 2.3-.7 4.8 1.4 1 2.9-.6 1.6 3.7 3.9 2.2 1.1-.1 1.1 3.4 1.1 1.7 1.6-1.6 1.3-3.9-.2-.8.6 1.5 2 2 3.9 1.8.2 1-1.4 1.5.3 4.8-.5 3.8 3.4-.9 1.3.7 1.9 4 .2 2.2 2.7.2 1.2 6.6 2.2 3.5-1 3.6 2.9 2.9-.1 7.6 2 .4 1.9-1.3 3.2 1.8 3.4-.3 2.1-4.7.5-2.2 1.7.4 2.8 4.2-1 .4 1.3-6.8 2.6 3.2 2.4-3.2 5.2-3.4 1 5 3.6 6.2 2.4 7.4 5.1.5-.7 4.5 1.1 7.7 1 7.5 2.9 1.1 1.2 2.9-1 5.1 1.3 2.1 2.5 3.5 1.4 1.5.2 4.3 3.8 2.4.4.5-1.5 2.6-2.5-7.3-7.3-.4-4.1-5.9-5.9 3.5-6.3 4.6-1.1 1.4-3.7-2.8-1-.2-3.2-4.2-4.1-3.6.2-5.3-4.3 1.7-4.7-1.7-1.2 2.1-6.8 6 3.6-.7-4.6 8.1-6.6 7.5-.2 18.5 6.7 4.3-2.5 7.6-.2 7.3 3.2.8-1.8 6.9.3.2-3-9.4-4.2 3.6-2.9-1.5-1.7 3.9-1.6-5-4.1 1.4-2.1 16.8-2.1 1.7-1.5 10.8-2.2 3.1-2.5 9 1.3 4.3 6.3 4.3-1.5 7 2.1 1.2 3.3 4.4-.4 9.1-5.7-.8 1.9 8.3 4.7 18.1 15.5 1.1-3.3 8.3 3.6 6.2-1.6 3.2 1.1 4.1 3.6 3.9 1.2 3.3 2.6 6-.9 4.3 3.8 1.7-.5 4.7-1 6.6-5.4 5.9-2.9 5.3 1.9 5.1.1 4.7 2.9 5 .2 7.9 1.6 2.4-4.3-4-3.6 1.3-6.4 6.9 2.5 4.8.8 6.6 1.5 3.7 4.6 8.4 2.6 3.9-1.1 5.7-.8 5.4.8 6.5 3 4.9 3.1h4.5l6.7 1 3.6-1.6 5.8-1 4.5-4.4 3.3.7 3.9 2.1 5.5-.5 7.3 2.3 4.4-3.9-1.9-2.7-.1-6.5 1.2-2-2.5-3.3-3.7-1.5 1.7-3 5.1-1.1 6.2-.2 8.5 1.8 5.9 2.3 7.7 6.1 3.8 2.7 4.4 3.7 6.1 6.1 9.9 1.9 8.9 4.5 6 5.8h7.5l2.6-2.5 6.9-1.8 1.3 5.6-.4 2.3 2.8 6.8.6 6-6.8-1.1-2.9 2.2 4.7 5.3 3.8 7.3-2.5.1 1.9 3.1 1.4 1.1-.4-2 4-4.5 5.1 3 3.2-.1 4.4-3.6 1-3.7 2.1-7.1 1.9-7.2-1.3-4.3 1-9-5.2-9.9-5.5-7.3-1.3-6.2-4.7-5.1-12.7-6.7-5.6-.4-.3 3-5.8-1.3-5.7-3.8-8-.7 4.9-14.1 3.5-11.5 13.1-1.8 14.9 1 2.5-2.8 7.9.8 4.3 4.3 6.4-.6 8.4-1.6-7.7-3.5V113l9.1-1.9 12.1 7.1 3.6-6.4-3.2-4.7 4.7-.5 6.5 8.1-2.4 4.6-.8 6 .3 7.5-5.7 1.3 2.8 2.7-.1 3.6 6.4 8.3 26.5 22.2 5.7 4.3 1.6-5.7-4.5-6.2 5.7-1.5-5.4-6.9 5-3.1-4.7-2.6-3.4-5 4.1-.2-9-8.6-6.7-1.4-2.9-2.4-1.1-5.6-3.1-3.9 7 .8 1.3-2.5 4.7 2.2 6.1-4.6 11.4 4-1.7-2.6 2-3.6 1.5-4 3.1-.7 6.5-4.3 9.8 1.2-.9-1.5-3.8-2.3-4.1-1.6-9.1-4.6-8.1-3 6.1.4 2-2.5L1336 71l-9.4-2.3-15.7-2.6-7.9.3-15.2-1.4 1.8 2.3 8.5 3.4-2.5 1.8-14.2-4.8-6.8.6-9.2-1.1-7 .2-3.9 1.1-7.2-1.6-5.1-3.8-6.5-2.2-9.2-.9-14.7 1-16.1-4-7.8-3-40.1-3.4-2.1 2.2 9.3 4.8-7.5-.7-1 1.5-9.7-1.6-5 1.4-9.3-2.4 3 5.5-8.9-2.1-10-4.1-.4-2.2-6-3.3-9.8-2.6h-6.1l-9.3-.9 4.7 3.9-17.2-.8-3.9-2.3-13.3-.9-5.3.8-.1 1.3-5.8-3.2-2.3.9-7.2-1.2-5.6-.7 1.1-1.5 6.6-2.8 2.3-1.5-2.4-2.5-5.5-1.9-11.5-2.3-10.8-.1-1.9 1.2-4.1-2.4zM830.6 61.7l-9.9-4.3-3.1-4.3 3.3-4.9 2.8-5 8.6-4.7 9.8-2.4 11.3-2.4 1.3-1.5-4.2-1.9-6.6.6-4.9 1.8-11.7.9-10.1 3.1-6.8 2.7 2.5 2.2-6.6 4.4 3.9.7-5.4 4.3 1.6 2.8-3.4 1.1 1.9 2.8 7.9 1.4 2.2 2.3 13.4.7 2.2-.4zm314-24.7l-17.9-2.6-10.2-.2-3.4.9 3.4 3.4 12.4 3.2 4.5-1.2 14.2.2-3-3.7zm25.2 2.3l-11.7-1.3-8.2-.7 1.7 1.6 10.3 2 6.8.4 1.1-2zm-12.5 9.5l-2.5-1.4-8.3-1.9-4.1.5-.8 2 1.1.2 8.8.6h5.8zm162.6 12.3l-6-3.6-1.4 2.2 3.5 1.6 3.9-.2zM707.5 155l-.6-1.5.2-1.7-2.2-.9-5-1.1-6.3 2-.7 2.6 5.9.7 8.7-.1zm589.7 21.8l-7.2-6.2-5.1-6-6.8-5.8-4.9-4-1.3.8 4.4 2.8-1.9 2.8 6.8 8.3 7.8 6 6.4 8.3 2.4 4.6 5.5 6.8 3.8 6 4.6 5.2-.1-4.8 6.5 3.8-3-4.4-9.5-6.3-3.7-9 8.9 2-13.6-10.9z"/><path d="M313.7 181.8h-1.6l-1.3 2.4H174.9l-1.6 5.1-2.4 5.1-2.3 1.6 1.1-5.9-5.8-2.1-1.4 1.2-.4 2.9-1.8 5.4-4.2 8.3-8 11.2-5.4 5.8-1.1 4.7-2.8 5.3-3.9 5.2 1 3.4-1.9 5.2 1.5 5.4 1.3 2.2-.8 1.5.4 9 2.5 6.5-.8 3.5 1 1 4.6.7 1.3 1.7 2.8.3-.1 1.9 2.2.7 2.1 3.7-.3 3.2 6.3-.5 7-.7-1 1.3 7.1 3.1 10.7 4.4h15l.8-2.6h9.3l1.3 2.2 2.1 2 2.4 2.8.8 3.3.4 3.5 2.2 1.9 4 1.9 4.8-5 4.4-.1 3.1 2.5 1.6 4.4 1 3.7 2.4 3.6.2 4.5.8 3 3.9 2 3.6 1.4 2.1-.2-.6-2.2.4-3.1 1-4.4 1.9-2.8 3.7-3.1 6-2.7 6.1-4.7 4.9-1.5 3.5-.4 3.5 1.4 4.9-.8 3.3 3.4 3.8.2 2.4-1.2 1.7.9 1.3-.8-.9-1.3.7-2.5-.5-1.7 2.4-1 4.2-.4 4.7.7 6.2-.8 3 1.5 2 3 .9.3 6.1-2.9 1.9 1 3 5.3.8 3.5-2 4.2.4 2.5 1.6 4.9 2 5.5 1.8 1.4.4 2.8 2.6.8 1.7-.8 2-3.9.7-2.5.9-4.3-1.2-7.4.5-2.7-1.5-4.5-.7-5.4.1-4.4 1.8-4.5 3.5-3.8 3.7-3 6.9-4.1 1.3-2.2 3.3-2.3 2.8-.4 4.4-3.8 6-1.9 4.6-4.8.9-6.5.1-2.2-1.4-.4 1.5-6.2-3-2.1 3.2 1v-4.1l1.9-2.7-1 5.3 2 2.5-2.9 4.4.4.2 4.4-5.1 2.4-2.5.6-2.5-.9-1.1-.1-3.5 1.2 1.6 1.1.4-.1 1.6 5.2-4.9 2.5-4.5-1.4-.3 2.1-1.8-.4.8h3.3l7.8-1.9-1.1-1.2-7.9 1.2 4.8-1.8 3.1-.3 2.4-.3 4.1-1.1 2.4.1 3.8-1 1-1.7-1.1-1.4-.2 2.2-2.1-.1-.6-3.3 1.1-3.3 1.4-1.3 3.9-3.7 5.9-1.8 6-2.1 6.3-3-.2-2-2.1-3.5 2.8-8.5-1.5-1.8-3.7 1.1-1.1-1.7-5.5 4.7-3.2 4.9-2.7 2.8-2.5.9-1.7.3-1 1.6h-17l-2.7 1.2-6.7 4.2.2.9-.6 2.4-4.6 2-3.9-.5-4-.2-2.6.7-.4 2.4-5.8 3.7-4.5 1.8-2.9.8-3.7 1.7-4 .9-2.5-.3-2.7-1.3 2.7-2.4 2-2.2 3.7-3.4.7-2.5.5-3.5-1.6-.7-4.3 2.8-.9-.1.3-1.5 3.8-2.5 1.6-2.8.7-2.8-2.7-2.4-3.7-1.3-1.7 2.4-1.4.6-2.2 3.1.4-2.1-2.6 1.5-2.1 2-2.6 3.1-1.3 2.6.1 3.8-1.8 4-3.3 3-1.4.9-1.6.7h-1.8l-.3-.4-.1-3.3.7-1.6.7-1.5.6-3 2.5-3.5 2.9-4.3 4.6-4.7h-.7l-5.4 4-.4-.7 2.9-2.3 4.7-4 3.7-.5 4.4-1.3 3.7.7h.1l4.7-.5-1.5-2.5-1.2-.2-1.4-.3-.4-1.7-5.1.5-5 1.4-2.5-2.3-2.5-.8 3.1-3.3-5.3 2-4.9 2.1-4.6 1.5-2.1-2.1-5.5 1.3.4-.9 4.6-2.6 4.7-2.5 5.9-2.1-5.3-1.6-4.4.8-3.8-1.9-4.6-1-3.2-.4-1-1 .8-3.4zM73.1 134.9l6.9-2.8v-1.8l-2.6-.4-3.4.9-6.4 2.1-2.2 2.7.7 1.6 7-2.3zm-38.7-16.4l2.3-2.3-2.9-.5-5.7 1 .8 1.6 1.6 1.1 3.9-.9zm1.2-22.3l-3.1 2.2.4.5 4.2-.4.3 1.1 1.7 1.2 4.9-1.2 1.2-.6-3.3-.8-1.6-1.5-3.4.6-1.3-1.1zM160.5 56l-4.4-1.1-10.2 2.8-3.2-.3-11 2.3-4.8.6-7.8 2.5-4.8 2.6-8.6 2.5-7.6.1-6.3 2.9 3.2 1.7.7 2.3-.8 2.7 2.3 2.1-1.2 3.5-9.2.2 4.3-2.8h-3.4l-13.1 2.7-9.1 2.3 1 3.3-1.2 2.2 4.5 1.4 6.9-.7 1.8 1.3 2.9-1.3 6.1-1.2h2.7l-5.9 2.1 1.1 1-2.5 2.6-5.5 1.8-2.5-.5-7 2.7-1.8-.9-4.1.4-5.3 3-7.6 3.1-5.8 3.4.3 2.4-4 3.3 1.4 1.4.5 2.7 7.2-1.1.4 2.1-3.3 2.1-3.6 3.5H45l7.2-2.3-1.6 2.9 3.6-2.1-.4 3 4.8-2.2.4 1.1 7.2-1.8-6.2 3.4-5.7 4.5-5.7 2.1-2.3 1.2-10.3 3.6-4.9 2.4-6.5.7-8.5 3.3-6.6 1.8-8.1 2.8-.4 1 10-1.7 6-2 6.9-2 6.1-1.7 2.8.5 8.1-2.6 4.5-2.8 10.5-3.1 3.9-2.6 6.6-1.8 7.6-2.5 8.9-4.2-.2-2.9 11.1-4.1 7.4-3.9 9.2-3.2-.4 1.4-6.7 1.8-8.3 5.7-3.2 3.5 6.4-1.3 6.1-1.9 6.5-1.3 2.9-.3 3.5-4.1 6.3-1.2 2.6 2.5 6 2.7 6.7-.5 5.7 2 3.2 1.1 3.3 6.1 3.7 1.7 7.1.2 4.1.4-2.7 5.5 1.6 4.9-3.3 5.2 2.5 1.9.6 2.2 5.1-2.9 3.1-3.7-4.6-3.8 1.5-6.8 1.1-4.2-1.7-2.7-.7-2.4.5-3-6.4 1.9-7.6 3.3-.2-3.9-.6-2.6-2.7-1.6-4.2-.1 35.4-32.4 24.3-20.2-3.5-.7-4.1-1.6-6.5.8-2.2-.7-7.1-.5-6.2-1.6-4.8.5-4.9-.9 2-1.2-6.3-.3-3.3 1 .5-2.4z"/></g><path d="M266.717 213.9L265 215.4l-1.717-1.5c-14.442-12.6-21.783-23.62-21.783-33.3 0-13.707 10.698-23.5 23.5-23.5s23.5 9.793 23.5 23.5c0 9.68-7.34 20.7-21.783 33.3zm583-106L848 109.4l-1.717-1.5C831.84 95.3 824.5 84.28 824.5 74.6c0-13.707 10.698-23.5 23.5-23.5s23.5 9.793 23.5 23.5c0 9.68-7.34 20.7-21.783 33.3z" class="B"/><g fill="#ededed"><path d="M649.2 226.5l-1.1-5.2-3.2 2.3-1 2.3 1.4 4.2 2.4 1.2 1.5-4.8zm-31.5-50.9l-2.4-2.4-2.2-.1-.7-2.2-4.3 1.2-1.4 5.1-11.3 4.8-4.6-2.6 1.4 7-8.2-1.6-6.4 1.3.4 4.6 7.5 2.4 3.6 3.1 5.1 6.5-1 12.3-2.7 3.7 2 2.4 9.4 2.8 1.9-1.3 5.7 2.8 6-.8.5-3.7 7.4-2 10 1.6 4.5-3.4.5-2.7-2.7-.8-1.5-4.8 1.7-1.8-1.6-2.4.2-1.7-1.8-2.7-2.4.9v-2.8l3.5-3.5-.2-1.6 2.3.6 1.3-1 .5-4.5 2.3-4.2-7.1-1.2-2.4-1.6-1.4.1-1.1-.5-4.4-2.8-2.5.4-3.4-2.9zm375.7 80.9H988l-3.8-.5-2.5 2.9-2.1.7-1.5 1.3-2.6-2.1-1-5.4-1.6-.3v-2l-3.2-1.5-1.7 2.3.2 2.6-.6.9-3.2-.1-.9 3-2.1-1.3-3.3 2.1-1.8-.8-4.3-1.4h-2.9l-1.6-.2-2.9-1.7-.3 2.3-4.1 1.2.1 5.2-2.5 2-4 .9-.4 3-3.9.8-5.9-2.4-.5 8-.5 4.7 2.5.9-1.6 3.5 2.7 5.1 1.1 4 4.3 1.1 1.1 4-3.9 5.8 9.6 3.2 5.3-.9 3.3.8.9-1.4 3.8.5 6.6-2.6-.8-5.4 2.3-3.6h4l.2-1.7 4-.9 2.1.6 1.7-1.8-1.1-3.8 1.5-3.8 3-1.6-3-4.2 5.1.2.9-2.3-.8-2.5 2-2.7-1.4-3.2-1.9-2.8 2.4-2.8 5.3-1.3 5.8-.8 2.4-1.2 2.8-.7-1.4-1.9zM701 223.2l-2 3.1.5 1.9 1 1-.5 1.9-.1 4.3.7 3 3 2.1.2 1.4 1 .4 2.1-3 .1-2.1 1.6-.9v-1.6l-2.3-1.6-.9-2.6.4-2.1-.5-2.3-1.3-.6-1.3-1.6-1.3.5-.4-1.2zm206.4 108.1l-1.3-2.2-3 3.9-3.7 4.1-3.3 4.3-3.3-.2-4.6-.2-4.2 1-.3-1.7-1 .3.4 1.5 2.6 6.4 16.8 3.2 1-1.3-.1-2.6 1.4-2.6-.3-2.6 2.4-1.3-1.1-.8.1-4.2h2.8l-1.3-5zm-64.9-83.5l-.9-4.4-2.5-1.1-2.5-1.7 1-2-3.1-2.2.7-1.5-2.2-1.1-1.4-1.7-6.9 1 1.3 2.2v3.1l4.2 1.5 2.4 1.9 1-.2 1.8 1.7h2.3l.2 1 2.8 3.7 1.8-.2zm-158.8-61.1l-2.3-1.2-2.3.3-4-1.9-1.7.5-2.6 2.5-3.8-2-1.5 2.9-1.7.8 1 4-.4 1.1-1.7-1.3-2.4-.2-3.4 1.2-4.4-.3-.6 1.6-2.6-1.7-1.5.3.2 1.1-.7 1.6 2.3 1.1 2.6.2 3.1.9.5-1.2 4.8-1.1 1.3 2.2 7.2 1.6 4.2.4 2.4-1.4 4.3-.1.9-1.1 1.3-4-1.1-1.3h2.8l.2-2.6-.7-2.1.3-.8z"/><path d="M833.6 241.6l-1 .2 1.2 2.4 3.2 2.9 3.7.9-2.8-3.7-.2-1h-2.3l-1.8-1.7zm10.4-9.3l-4.3-3.8-1.5-.2-1.1.9 3.2 3.4-.6.7-2.8-.4-4.2-1.8-1.1 1 1.4 1.7 2.2 1.1-.7 1.5 3.1 2.2-1 2 2.5 1.7 2.5 1.1.9 4.4 5.3-4.7 1.9-.5 1.9 1.9-1.2 3.1 3.8 3.4 1.3-.3-.8-3.2 1.7-1.5.4-2.2-.1-5 4.2-.5-2-1.7-2.5-.2-3.5-4.5-3.4-3.2-2.6 2.5-.5 1.5-2.4-.4zm266 122.3l-4.5-10.1-1.5.1-.2 4-3.5-3.3 1.1-3.6 2.4-.4 1.6-5.3-3.4-1.1-5 .1-5.4-.9-1.2-4.4-2.7-.4-4.8-2.7-1.2 4.3 4.6 3.4-3.1 2.4-.8 2.3 3.7 1.7-.4 3.8 2.6 4.8 1.6 5.2 2.2.6 1.7.7.6-1.2 2.5 1.3 1.3-3.5-.9-2.6 5.1.2 2.8 3.7 1.5 3.1.8 3.2 2 3.3-1.1-5.1 2.1 1-.5-4.6zM745.1 217l-3-.7-4-2.2-5.8 1.4-2.3 1.6-7.5-.3-4-1-1.9.5-1.8-2.6-1.1 1.4.7 2.3 2.8 2.6-1.7 1.9-.7 2 .6.7-.7.9 2.8 2 .8 4.1 3.8.2 3.9-1.7 3.9 2.1 4.6-.6-.3-3 5-2 4.5.8-2.1-3.5 1.3-4.4 2.2-2.5zm-59.4-9.4l-2.3.1-1 1.3-1.9-1.4-.9 2.5 2.7 2.9 1.3 1.9 2.5 2.3 2 1.4 2.2 2.5 4.7 2.4.4-3.4 1.5-1.4.9-.6 1.2-.3.5-2.9-2.7-2.3 1-2.7H696l-2.4-1.4-3.5.1-4.4-1zm50.6-65.5l-5.2-1.5-4.6 2.3-2.6 1 .9 2.6-3.5 2-.5 3.4-4.8 2.2h-4.6l.6 2.7 1.7 2.3.3 2.4-2.7 1.2 1.9 2.9.5 2.7 2.2-.3 2.4-1.6 3.7-.2 5 .5 5.6 1.5 3.8.1 2 .9 1.6-1.1 1.5 1.5 4.3-.3 2 .6-.2-3.1 1.2-1.4 4.1-.3-2-3.9-1.5-2 .8-.6 3.9.2 1.6-1.3-1.7-1.6-3.4-1.1.1-1.1-2.2-1.1-3.7-3.9.6-1.6-1-2.9-4.8-1.4-2.3.7-1-1.4zM258 393.8l1.4-2.2 1-.2 1.3-1.7 1-3.2-.3-.6.9-2.3-.4-1 1.3-2.7.3-1.8h-1.1l.1-.9h-1l-2.5 3.9-.9-.8-.7.3-.1 1-.7 5-1.2 7.2h1.6zm840.2-75.6l-2.7-1.8-2.9-.1-4.2-1.5-2.6 1.6-2.6 4.8.3 1.2 5.5 2.5 3.2-1 4.7.4 4.4-.2-.4-3.9-2.7-2zM647.8 193.3l-5.4-1.9-1 1.4h-4.2l-1.3 1-2.3-.6.2 1.6-3.5 3.5v2.8l2.4-.9 1.8 2.7 2.2 1.3 2.4-.3 2.7-2.1.9 1 2.4-.2.9-2.5 3.8.8 2.1-1.1.3-2.5-2.6-.2-2.3-1.1.7-1.6-.2-1.1z"/><path d="M1210.7 376l.6-3.6 2-2.8-1.6-2.5-3.2-.1-5.8 1.8-2.2 2.8 1 5.5 4.9 2 4.3-3.1zm13.2-196.5l-6.1-6.1-4.4-3.7-3.8-2.7-7.7-6.1-5.9-2.3-8.5-1.8-6.2.2-5.1 1.1-1.7 3 3.7 1.5 2.5 3.3-1.2 2 .1 6.5 1.9 2.7-4.4 3.9-7.3-2.3.6 4.6.3 6.2 2.7 2.6 2.4-.8 5.4 1 2.5-2.3 5.1 2 7.2 4.3.7 2.2-4.3-.7-6.8.8-2.4 1.8-1.4 4.1-6.3 2.4-3.1 3.3-5.9-1.3-3.2-.5-.4 4 2.9 2.3 1.9 2.1-2.5 2-1.9 3.3-4.9 2.2-7.5.2-7.2 2.2-4.4 3.3-3.2-2-6.2.1-9.3-3.8-5.5-.9-6.4.8-11.2-1.3-5.5.1-4.7-3.6-4.9-5.7-3.4-.7-7.9-3.8-7.2-.9-6.4-1-3-2.7-1.3-7.3-5.8-5-8.1-2.3-5.7-3.3-3.3-4.4-1.7.5-1.8 4.2-3.8.6 2.5 6.2-1.6 2.8-10.7-2 1 11.1-2 1.4-9 2.4 8.7 10.7-2.9 1.6 1.7 3.5-.2 1.4-6.8 3.4-1 2.4-6.4.8-.6 4-5.7-.9-3.2 1.2-4 3 1.1 1.5-1 1.5 3 5.9 1.6-.6 3.5 1.4.6 2.5 1.8 3.7 1.4 1.9 4.7 3 2.9 5 9.4 2.6 7.6 7.5.8 5.2 3 3.3.6 3.3-4.1-.9 3.2 7 6.2 4 8.5 4.4 1.9-1.5 4.7 2 6.4 4.1 3.2.9 2.5 3.1 4.5 1.2 5 2.8 6.4 1.5 6.5.6 3-1.4 1.5 5.1 2.6-4.8 2.6-1.6 4.2 1.5 2.9.1 2.7 1.8 4.2-.8 3.9-4.8 5.3-4 4.9 1.5 3.2-2.6 3.5 3.9-1.2 2.7 6.1.9 3-.4 2.7 3.7 2.7 1.5 1.3 4.9.8 5.3-4.1 5.3.7 7.5 5.6-1 2.3 5.8 3.7 1.3-.8 5.2 4.5 2.4 2.5 1.2 3.8-1.8.6 2.6.7 1.5 2.9.1-1.9-7.2 2.7-1 2.7-1.5h4.3l5.3-.7 4.1-3.4 3 2.4 5.2 1.1-.2 3.7 3 2.6 5.9 1.6 2.4-1 7.7 2-.9 2.5 2.2 4.6 3-.4.8-6.7 5.6-.9 7.2-3.2 2.5-3.2 2.3 2.1 2.8-2.9 6.1-.7 6.6-5.3 6.3-5.9 3.3-7.6 2.3-8.4 2.1-6.9 2.8-.5-.1-5.1-.8-5.1-3.8-2-2.5-3.4 2.8-1.7-1.6-4.7-5.4-4.9-5.4-5.8-4.6-6.3-7.1-3.5.9-4.6 3.8-3.2 1-3.5 6.7-1.8-2.4-3.4-3.4-.2-5.8-2.5-3.9 4.6-4.9-1.9-1.5-2.9-4.7-1-4.7-4.4 1.2-3 5-.3 1.2-4.1 3.6-4.4 3.4-2.2 4.4 3.3-1.9 4.2 2.3 2.5-1.4 3 4.8-1.8 2.4-2.9 6.3-1.9 2.1-4 3.8-3.4 1-4.4 3.6 2 4.6.2-2.7-3.3 6.3-2.6-.1-3.5 5.5 3.6-1.9-3.1 2.5-.1-3.8-7.3-4.7-5.3 2.9-2.2 6.8 1.1-.6-6-2.8-6.8.4-2.3-1.3-5.6-6.9 1.8-2.6 2.5h-7.5l-6-5.8-8.9-4.5-9.9-1.9zM284.6 425.3l-1.4 1.3-1.7-.4-.8-1.3-1.7-.5-1.4.8-3.5-1.7-.9.8-1.4 1.2 1.5.9-.9 2-.1 2 .7 1.3 1.7.6 1.2 1.8 1.2-1.6-.3-1.8 1.4 1.1.3 1.9 1.9.8 2.1 1.3 1.5 1.5.1 1.4-.7 1.1 1.1 1.3 2.9 1.4.4-1.2.5-1.3-.1-1.2.8-.7-1.1-1 .1-2.5 2.2-.6-2.4-2.7-2-2.6-1.2-3.4zm388.3-254.1l-2.1.6-1.4-.7-1.1 1.2-3.4 1.2-1.7 1.5-3.4 1.3 1 1.9.7 2.6 2.6 1.5 2.9 2.6 3.8 2 2.6-2.5 1.7-.5 4 1.9 2.3-.3 2.3 1.2.6-1.4 2.2.1 1.6-.6.1-.6.9-.3.2-1.4 1.1-.3.6-1.1h1.5l-2.6-3.1-3.6-.3-.7-2-3.4-.6-.6 1.5-2.7-1.2.1-1.7-3.7-.6-2.4-1.9zm-13.5-27.3l-1.7-3-6.7 2 .9 2.5 5.1 3.4 2.4-4.9zm-8.6-5.1l-2.6-.9-.7-1.6 1.3-2-.1-3-3.6 1.6-1.5 1.7-4 .4-1.2 1.7-.7 1.6.4 6.1 2.1 3.4 3.6.8 3-.9-1.5-3 3.1-4.3 1.4.7 1-2.3zm65.9-18.6l-5.5.9-5.4 1.6.9 3.4 3.3 2.1 1.5-.8.1 3.5 3.7-1 2.1.7 4.4 2.2h3.8l1.6-1.9-2.5-5.5 2.6-3.4-.9-1-4.6.2-5.1-1zm.2-53.1l.8-3.8-5.7-2.1-5.8 1.8-1.1 3.9-3.4 2.4L697 68l-5.3.3-5.1-2.9-2.1 1.4 5.9 2.7 7.2 3.7 1.7 8.4 1.9 2.2 6.4 2.6.9 2.3-2.6 1.2-8.7 6.1-3.3 3.6-1.5 3.3 2.9 5.2-.1 5.7 4.7 1.9 3.1 3.1 7.1-1.2 7.5-2.1 8-.5 7.9-7.4 3.3-3.3.9-2.9-7.3-3.9.9-3.7-4.9-4.1 1.7-4.8-6.4-6.3 2.8-4.1-7.2-3.7-.4-3.7zm-143.4 83.1l-4.9-3.7-3.9.3.8 3.2-1.1 3.2 2.9-.1 3.5 1.3 2.7-4.2zm13-24.3l-5.5.5-3.6-.4-3.7 4.8-1.9 6.1 2.2 3 .1 5.8 2.6-2.8 1.4 1.6-1.7 2.7 1 1.6 5.7 1.1h.1l3.1 3.8-.8 3.5-7.1-.6-1 4 2.6 3.3-5.1 1.9 1.3 2.4 7.5 1-4.3 1.3-7.3 6.5 2.5 1.2 3.5-2.3 4.5.7 3.3-2.9 2.2 1.2 8.3-1.7 6.5.1 4.3-3.3-1.9-3.1 2.4-1.8.5-3.9-5.8-1.2-1.3-2.3-2.9-6.9-3.2-1-4.1-7.1-.4-.6-4.8-.4 4.2-5.3 1.3-4.9h-5l-4.7.8 5-6.4zm237 97L816 220l-7.7-1-4.5-1.1-.5.7 2.2 1.9 3 .7 3.4 2.3 2.1 4.2-.3 2.7 5.4-.3 5.6 3 6.9-1 1.1-1 4.2 1.8 2.8.4.6-.7-3.2-3.4 1.1-.9-3.5-1.4-2.1-2.5-5.1-1.3-2.9 1-1.1-1.2zm-98.1 44.7l-.8 2.8 6.6 1.2v1.1l7.6-.6.5-1.9-2.8.8v-1.1l-3.9-.5-4.1.4-3.1-2.2zm11.5-37.4l-2.7-1.6.3 3-4.6.6-3.9-2.1-3.9 1.7-3.8-.2-1 .2-.7 1.1-2.8-.1-1.9 1.3-3.3.6v1.6l-1.6.9-.1 2.1-2.1 3 .5 1.9 2.9 3.6 2.3 3 1.3 4.3 2.3 5.1 4.6 2.9 3.4-.1-2.4-5.7 3.3-.7-1.9-3.3 5 1.7-.4-3.7-2.7-1.8-3.2-3 1.8-1.4-2.8-3-1.6-3.8.9-1.3 3 3.2h2.9l2.5-1-3.9-3.6 6.1-1.6 2.7.6 3.2.2 1.1-.7 1.2-3.9zM258.3 381.6l-5.1-.1H248l-.4 3.6H245l1.8 2.1 1.9 1.5.5 1.4.8.4-.4 2.1h-7.1l-3.3 5.2.7 1.2-.8 1.5-.4 1.9 2.7 2.6 2.5 1.3 3.4.1 2.8 1.1.2-1 2.1-1.6 1.1-.7-.2-.7 1.4-.4 1.3-1.6-.3-1.3.5-1.2 2.8-1.8 2.8-2.4-1.5-.8-.6.9-1.7-1.1h-1.6l1.2-7.2.7-5z"/><path d="M289.6 399.5l-1.3-1.8-1.9-1-1.5-1.4-1.6-1.2-.8-.1-2.5-.9-1.1.5-1.5.2-1.3-.4-1.7-.4-.8.7-1.8.7-2.6.2-2.5-.6-.9.4-.5-.6-1.6.1-1.3 1.1-.6-.2-2.8 2.4-2.8 1.8-.5 1.2.3 1.3-1.3 1.6 1.5.5 1.1 1.3 1.6 1 .1.9 2.5-.8 1.1.5.7.7-.6 2.5 1.7.6.7 2 1.8-.3.8-1.5h.8l.2-3.1 1.3-.2h1.2l1.4-1.7 1.5 1.3.6-.8 1.1-.7 2.1-1.8.3-1.3.5.1.8-1.5.6-.2.9.9 1.1.3 1.3-.8h1.4l2-.8.9-.9 1.9.2zm398.9-196.4l-4-2.6-1.6-.8-3.9 1.7-.3 2.5-1.7.6.2 1.7-2-.1-1.8-1-.8 1-3.5-.2-.2.1v2.2l1.7 2 1.3-2.6 3.3 1 .3 2 2.5 2.6-1 .5 4.6 4.5 4.8 1.8 3.1 2.2 5 2.3.5-1-4.7-2.4-2.2-2.5-2-1.4-2.5-2.3-1.3-1.9-2.7-2.9.9-2.5 1.9 1.4 1-1.3 2.3-.1 4.4 1 3.5-.1 2.4 1.4 1.7-2.3-1.7-1.8-1.5-2.4-1.8.9-4.2-1.2z"/><path d="M702.6 186.5l-1.6.4-1 1.5-2.2.7-.6-.4-2.3 1-1.9.2-.3 1.2-4.1.8-1.9-.7-2.6-1.6-.2 2.6h-2.8l1.1 1.3-1.3 4 .8.1 1.2 2.1 1.6.8 4 2.6 4.2 1.2 1.8-.9 3.7-1.6 3.2.2 3.8-1.1 2.6-4.3 1.9-4.2 2.9-1.3-.6-1.6-2.9-1.7-1 .6-5.5-1.9zm335 116.3l-8.5-4.4-6.2-4-3.2-7 4.1.9-.6-3.3-3-3.3-.8-5.2-7.6-7.5-3.7 5.4-5.7 1-8.5-1.6-1.9 2.8 3.2 5.6 2.9 4.3 5 3.1-3.7 3.7 1 4.5-3.9 6.3-2.1 6.5-4.5 6.7-6.4-.5-4.9 6.6 4 2.9 1.3 4.9 3.5 3.2 1.8 5.5h-12l-3.2 4.2 7.1 5.4 1.9 2.5-2.4 2.3 8 7.7 4 .8 7.6-3.8 1.7 5.9.8 7.8 2.5 8.1 3.6 12.3 5.8 8.8 1.3 3.9 2 8 3.4 6.1 2.2 3 2.5 6.4 3.1 8.9 5.5 6 2.2-1.8 1.7-4.4 5-1.8-1.8-2.1 2.2-4.8 2.9-.3-.7-10.8 1.9-6.1-.7-5.3-1.9-8.2 1.2-4.9 2.5-.3 4.8-2.3 2.6-1.6-.3-2.9 5-4.2 3.7-4 5.3-7.5 7.4-4.2 2.4-3.8-.9-4.8 6.6-1.3 3.7.1.5-2.4-1.6-5.2-2.6-4.8.4-3.8-3.7-1.7.8-2.3 3.1-2.4-4.6-3.4 1.2-4.3 4.8 2.7 2.7.4 1.2 4.4 5.4.9 5-.1 3.4 1.1-1.6 5.3-2.4.4-1.1 3.6 3.5 3.3.2-4 1.5-.1 4.5 10.1 2.4-1.5-.9-2.7.9-2.1-.9-6.6 4.6 1.4 1.5-5.2-.3-3.1 2.1-5.4-.9-3.6 6.1-4.4 4.1 1.1-1.3-3.9 1.6-1.2-.9-2.4-6.1-.9 1.2-2.7-3.5-3.9-3.2 2.6-4.9-1.5-5.3 4-3.9 4.8-4.2.8 2.7 2 .4 3.9-4.4.2-4.7-.4-3.2 1-5.5-2.5-.3-1.2-1.5-5.1-3 1.4.1 2.7 1.5 4.1-.1 2.5-4.6.1-6.8-1.5-4.3-.6-3.8-3.2-7.6-.9-7.7-3.5-5.8-3.1-5.7-2.5.9-5.9 2.8-2.9zM570.8 154.4l-3.5-1.3-2.9.1 1.1-3.2-.8-3.2-3.7 2.8-6.7 4.7 2.1 6.1-4.2 6.4 6.7.9 8.7-3.6 3.9-5.4-.7-4.3zM837 247.1l-3.2-2.9-1.2-2.4-3.3 1.8 2.9 7.3-.7 2 3.7 5.2 4.7 7.8 3.7 1.9 1 3.8-2.3 2.2-.5 5 4.6 6.1 7 3.4 3.5 4.9-.2 4.6h1.7l.5 3.3 3.4 3.4 1.7-2.5 3.7 2.1 2.8-1 5.1 8.4 4.3 6.1 5.5 1.8 6.1 4.9 6.9 2.1 5.1-3.1 4-1.1 2.8 1.1 3.2 7.8 6.3.8 6.1 1.5 10.5 1.9 1.2-7.4 7.4-3.3-.9-2.9-2.7-1-1-5.7-5.6-2.7-2.8-3.9-3.2-3.3 3.9-5.8-1.1-4-4.3-1.1-1.1-4-2.7-5.1 1.6-3.5-2.5-.9.5-4.7.5-8-1.6-5.5-3.9-.2-7.3-5.7-4.3-.7-6.5-3.3-3.8-.6-2.1 1.2-3.5-.2-3 3.7-4.4 1.2-.2 1.6-7.9 1.7-7.6-1.1-4.3-3.3-5.2-1.3-2.5-4.8-1.3.3-3.8-3.4 1.2-3.1-1.9-1.9-1.9.5-5.3 4.7-1.8.2-3.7-.9z"/><path d="M830.8 257.6l-6.2-.9-2.1 1-2.1 4.1-2.7 1.6 1.2 4.7-.9 7.8-11 6.7 3.1 7.7 6.7 1.7 8.5 4.5 16.7 12.7 10.2.5 3.2-6.1 3.7.5 3.2.4-3.4-3.4-.5-3.3h-1.7l.2-4.6-3.5-4.9-7-3.4-4.6-6.1.5-5 2.3-2.2-1-3.8-3.7-1.9-4.7-7.8-2.3 1.1-2.1-1.6zm-39.5 25.6l-1.4.1-.4 1.1h-1.8l-.1.1-.6 1.6-.6 4.8-1.1 2.9.4.4-1.4 2.1 3.9 9.2.7 1.7 1.7-10.2-.4-2.4-2.4.8.1-1.7 1.2-.8-1.4-.7.7-4.3 2 .9.7-2h-.1l.6-1-.3-2.6z"/><path d="M681.3 251.3l-4 .5-5.2.7-6.2-.6-.6 3.4 7.5 3.3 2.7.7 4.2 2.4.9-3.3-.9-2 1.6-5.1zm-33.7-18.9l-2.5 1.9-2.8-.3 1.3 3.6.4 7.6 2.1 1.7 2-2.1 2.4.4.4-8.4-3.3-4.4zm14.3-34.3l-1.3-2.2-4.8 1.1-.5 1.2-3.1-.9-.3 2.5-2.1 1.1-3.8-.8-.9 2.5-2.4.2-.9-1-2.7 2.1-2.4.3-2.2-1.3-.2 1.7 1.6 2.4-1.7 1.8 1.5 4.8 2.7.8-.5 2.7 2.1-.5 2.8-2.8 2.3-.9 4.2 2.1 2.6.7 1.9 6 3.6 3.6 4.9 4 4.2 2.8 3.9.4 2.3 2.5 3.4 1.2 1.7 2.7 2.2.8 1.8 3.2 2.3 3.7-1.1 1.3-.8 3.5.1 2 2.1-.5 2.5-5.6 2.1-.4.4-3.3-3.9-2.3 1.9-4.1 4.5 1 3.1 3 .8-2.3-.6-1.2-4.7-3.2-3.9-1.9-4.8-2.3 1.4-1.2-1.4-1.4-4 .1-6-5-2.9-5.1-4.9-3.1-1.9-3.1.5-1.8-.4-3 3.9-2.2 4.1.9-1.4-2.7.3-3-7.2-1.6zm148.2 92.2l-3.1-7.7-9.6 6.7-6.3-2.5-.7 2 .4 3.9-.6 1.9.4 2.4-1.7 10.2.3.9 6.1 1 2.1-2 1.1-2.3 4-.8.7-2.2 1.7-1-6.1-6.4 10.4-3.1.9-1zm505.9-12.7l-4.5-1.3-1.1 2.7-3.3-.8-1.3 3.8 1.2 3 4.2 1.8-.1-3.7 2.1-1.5 3.1 2.1 1.3-3.9-1.6-2.2zm24.4-19.3l-3.6-6.7 1.3-6.4-2.8-5.2-8.1-8.7-4.8 1.2.2 3.9 5.1 7.1 1 7.9-1.7 2.5-4.5 6.5-5-3.1v11.5l-6.3-1.3-9.6 1.9-1.9 4.4-3.9 3.3-1.1 4-4.3 2 4 4.3 4.1 1.9.9 5.7 3.5 2.5 2.5-2.7-.8-10.8-7.3-4.7 6.1-.1 5-3 8.6-1.4 2.4 4.8 4.6 2.4 4.4-7.3 9.1-.4 5.4-3 .6-4.6-2.5-3.2-.6-5.2zm-11.8-44.2l-5.3-2.1-10.4-6.4 1.9 4.8 4.3 8.5-5.2.4.6 4.7 4.6 6.1h5.7l-1.6-6.8 10.8 4.2.4-6.1 6.4-1.7-6-6.9-1.7 2.6-4.5-1.3zm-396.3-67.6l-9-1.3-3.1 2.5-10.8 2.2-1.7 1.5-16.8 2.1-1.4 2.1 5 4.1-3.9 1.6 1.5 1.7-3.6 2.9 9.4 4.2-.2 3-6.9-.3-.8 1.8-7.3-3.2-7.6.2-4.3 2.5-6.6-2.4-11.9-4.3-7.5.2-8.1 6.6.7 4.6-6-3.6-2.1 6.8 1.7 1.2-1.7 4.7 5.3 4.3 3.6-.2 4.2 4.1.2 3.2 2.8 1 4.4-1.3 5-2.7 4.7 1.5 4.9-.3 1.9 3.9.6 6-4.6-.9-4 1 .9 4.5-5-.6.6 2 3.2 1.6 3.7 5.5 6.4 2.1 1.5 2.1-.7 2.6.7 1.5 1.8-2 5.5-1.3 3.8 1.7 4.9 4.9 2.5-.3-6.2-22.8 11.9-3.6 1.1.5 9.1 4.5 4.8 2.3 6.5 5.5 5.7-.9 8.6-.5 7.5 4.5 1.5 6.2 2.5.1 2.6 5 6.6.2 2.3 3h1.9l.9-4.5 5.4-4.3 2.5-1.2.3-2.7 3.1-.8 9.1 2.1-.5-3.6 2.5-1.3 8.1 2.6 1.6-.7 8.6.2 7.8.6 3.3 2.2 3.5.9-1.7-3.5 2.9-1.6-8.7-10.7 9-2.4 2-1.4-1-11.1 10.7 2 1.6-2.8-2.5-6.2 3.8-.6 1.8-4.2-4.3-3.8-6 .9-3.3-2.6-3.9-1.2-4.1-3.6-3.2-1.1-6.2 1.6-8.3-3.6-1.1 3.3-18.1-15.5-8.3-4.7.8-1.9-9.1 5.7-4.4.4-1.2-3.3-7-2.1-4.3 1.5-4.3-6.3z"/><path d="M1010.7 225.3l-3.5-.9-3.3-2.2-7.8-.6-8.6-.2-1.6.7-8.1-2.6-2.5 1.3.5 3.6-9.1-2.1-3.1.8-.3 2.7 1.8.6-3.1 4.1 4.6 2.3 3.2-1.6 7.1 3.3-5.2 4.5-4.1-.6-1.4 2-5.9-1.1.6 3.7 5.4-.5 7.1 2 9.5-.9 1-1.5-1.1-1.5 4-3 3.2-1.2 5.7.9.6-4 6.4-.8 1-2.4 6.8-3.4.2-1.4zm187.6 179.2l-5.2-2.3-2 4.3-4.9-2.4-5.3-1-7.1 1.3-3 5.2 2.1 7.7 3.4 6.6 2.6 3.3 4.7.9 4.7-2.5 5.8-.5-2.8-3.8 8.9-4.9-.1-7.7-1.8-4.2zm62.5-150.1l6.2 5.5-3.4 1.1 5.2 6.8 1.1 4.8 2.1 3.5 4.5-.5 3.2-2.7 4.2-1.2.5-3.6-3.4-7.5-3.3-4.2-8.2-7.6.1 1.6-2.1.4-3.5.3-.7 2.9-2.4-.2-.1.6zm-401.7 49.7l-3.7-.5-3.2 6.1 4.9.6 1.7 3.1 3.8-.2-2.4-4.8.3-1.5-1.4-2.8z"/><path d="M1198.3 404.5l.2-6.4-2-4.5-4.8-4.4-4.3-5.6-5.7-7.5-7.3-3.8 1.3-2.3 3.3-1.7-3-5.5-6.8-.1-3.4-5.7-4-5.1-2.7 1 1.9 7.2-2.9-.1-.7-1.5-4.1 4.1-.8 2.4 2.6 1.9.9 3.8 3.8.3-.4 6.7 1 5.7 5.3-3.8 1.8 1.2 3.2-.2.8-2.2 4.3.4 4.9 5.2 1.3 6.3 5.2 5.5.5 5.4-1.5 2.9 4.9 2.4 2-4.3 5.2 2.3zm-407-121.3l.9-3.5 2.6-2.4-1.2-2.5-2.4-.3-.1.2-2.1 4.5-1.3 5.2h1.8l.4-1.1 1.4-.1zm-67.4-139.3l-5-2.9-2.5-.4-.9-1.3-4.4.6-7.9-.4-5 1.9 1.7 5 5 1.1 2.2.9-.2 1.7.6 1.5 2.5.6 1.4 1.9h4.6l4.8-2.2.5-3.4 3.5-2-.9-2.6zM742 206l1.2-.7.5-2.1 1.1-2-.5-1.1 1-.5.6.9 3 .2 1.2-.5-1-.6.2-1-2-1.5-1.1-2.6-1.9-1.1v-2.1l-2.5-1.6-2-.3-3.9-1.9-3.2.6-1.1.9 1.6.6 1.8 1.9 1.9 2.6 3.4 3.7.6 2.7-.2 2.7 1.3 2.8z"/><path d="M459.8 196.4l.7 3 3.4.8 4.7-.1-3.3 2.5-1.9.4-5.6-2.6-.5-2.1 2.5-1.9zm15.3-14l-.2 1.1-2.5.1-5.7-1.9-3.5-2.9 1.9-.6 5.9 1.6 4.1 2.6zm-305.3 1.4l-.2 3.4-3 .9-6.3-2.8v-2.2l-2.9-2.2.4-1.8-4.3-1.1.6-3.3 1.4-1.5 4.1 1.4 2.4.9 4.1.7.1 2.1.4 2.9 3.2 2.6zm339.8-13.9l-3.9 3.8-4.9 5.4 3.8-2 2.9 1.3-2.4 2.1 3.9 1.7 2.7-1.5 4.3 1.9-2.8 4.6 3.7-1.1-.3 3.3.5 3.9-3.5 5.5-2.3.2-3-1.2 2.5-5.1-1.2-.8-7.3 5.4-2.9-.2 4.4-2.9-4.4-1.5-5.4.3-9.6-.1-.2-1.9 3.8-2.2-1.6-1.7 5.3-3.7 8.1-9.8 4.2-3.5 4.9-2.2 2.1.3-1.4 1.7zM147 154.5l1.9-2 1.6.8 4.9-.5-7.1 6.9.2 4.9h-1.9l-.7-2.8.6-2.8-.9-1.9 1.4-2.6zm282.4-50.2l.4 1.2-3.5 3-1.7-.5-.1-1.7.4-.4 2.8-1.7 1.7.1zm-8.4-3.1l-.8 1.1-7.1 3.2-3-.2v-1.5l4.9-2.7 6 .1zm-6.6-16l2.7.5-.9 2.5 2.8-.9 1.5 1.5 3.4 1.9 3.7 1.7-1.3 2.7 3.4-.4 1.9 1.8-4.9 1.8-5.9-1.3-.8-2.6-6.2 3-8.2 3 .8-3.4-6.3.6 5.7-2.8 3.6-4.4 5-5.2zm51-9.4l-3.7 1.7-4.9.2.7-2.6 3.8-3.1 4.2-.7 2.3 1.5-1.4 2.3-1 .7zm-78.3-11l.8 2-4.2 1.9-4.1-1.6-3.8.6-3.5-2.4 5-1.7 4.9-2.3 3 1.5 1.6 1 .3 1zm16.6-1.1l6.6 1-4.3 5.5 8.7-4.2 2.2 3.5-4.2 4 1.3 3.7 7.2-4 6.5-4.6 4.6-5.9 5.5.4 5.4.8 3.5 2.6-1.7 2.7-5 2.9.8 2.9-2.3 2.7-10.8 3.8-6.5.9-3.2-1.7-3.2 2.8-7.4 4.7-2.9 2.4-7.7 3.8-6.4.4-5.1 2.4-2.9 3.7-5.6.7-8.6 4.6-9.4 6.5-4.9 4.6-4.9 6.8 6 1-1.5 5.5-.7 4.5 7.1-1.2 7 2.6 3.3 2.2 1.7 2.9 4.8 1.6 3.6 2.5 7.5.4 4.8.6-3.6 5.2-1.7 6 .1 6.8 4.4 5.8 4.6-1.9 5.6-6.3 2.2-9.6-1.7-3.2 9-2.8 7.5-4.2 4.7-4.1 1.7-4-.5-5-3.1-4.5 8.8-6.1 1-5.3 3.8-9 3.9-1.3 6.6 1.6 4.2.5 4.5-1.5 3 2 3.6 3.3.1 2.2 7.7.5-2.6 4.9-2.2 7.3 3.7 1 1.6 3.4 8.1-3.2 7.4-6.5 4.3-2.7 1 5.2 2.6 7.5 2 7.1-3.4 3.7 4.8 3.4 2.8 3.4 6.9 1.6 2.3 1.9v5.1l3.4.8 1.1 2.3-2 6.8-4.2 2.3-4.2 2.1-8.7 2.2-7.8 5.1-8.6 1-10-1.3-7.3-.1-5.2.5-5.7 4.4-7.2 2.7-10.1 8.3-7.8 5.7 4.6-1 10.9-8.2 12.1-5.2 7.6-.6 3.3 3.1-6.1 4.1-.6 6.8.1 4.6 5.5 3.1 8.6-.8 7.1-7-1 4.5 2.6 2.2-7.5 4.1-12.2 3.7-5.8 2.4-7.1 4.5-3.7-.5 1.5-5.2 10.4-5.1-8.1.2-5.9.8-2.1-3.5 2.8-8.5-1.5-1.8-3.7 1.1-1.1-1.7-5.5 4.7-3.2 4.9-2.7 2.8-2.5.9-1.7.3-1 1.6h-17l-2.7 1.2-6.7 4.2-.1-.1-.9-.4-1.9.8-1.9 1.4-1.8-1.2-4.6.9-3.9.9-1.9.7-2.3 2.1 1.8.6 1.7-.3.3-.1-.3 1.8-4.7.8-2.8.8-1.7.9-2.6-.6-1.6.3-2.9 1.7-4.5 2-2.7-.4 2-2.2 3.7-3.4 4.1-2 1.1-1.7.8-2.9 3.8-3.4.9-3.9 1 3.8 3.8.8 2.4-2-1.4-4.7-.8-2-4-1.2-3.8-.6-3.8-.1-3.4-.7-.5-1.4-1.3.9-1.2-.2 1.9-2.1-1.8-.8 1.9-2.3-1.2-1.9 1.7-1.7-5.2-1-.1-3.5-.8-.8-3.3-.2-4-1.2-1.5.8-1.8 1.5-3.2 1-3.2 2.4-5.3-1.6-4.4.8-3.8-1.9-4.6-1-3.2-.4-1-1 .8-3.4h-1.6l-1.3 2.4H174.2l-5.4-6.1-1.6-2.7-6.9-2.5 1.3-5.5 3.6-3.7-4.1-2.6 3.1-4.9-2.1-4.4 2.5-3.1 5.1-2.9 3.1-3.7-4.6-3.8 1.5-6.8 1.1-4.2-1.7-2.7-.7-2.4.5-3-6.4 1.9-7.6 3.3-.2-3.9-.6-2.6-2.7-1.6-4.2-.1 35.4-32.4 24.3-20.2 5.9 1.3 3.3 2.6 3.7.5 6.2-2.3 7-1.6 5.2.6 8.8-2.3 8.2-1.4.2 2.2 4.5-1.2 3.8-2.5 2.1.6 1.4 4.7 9.4-3.6-3.9 4.1 5.9-.9 3.3-1.6 4.5.3 3.8 2.3 7.5 1.9 4.7 1 4.4-.4 2.8 2.8-8.5 2.6 6.4 1.2 11.8-.6 4.4-1 1.4 3.3 7-2.8-2-2.3 4.4-1.8 5.2-.3 3.8-.5 2.1 1.3 1.5 2.9 5-.4 5.1 2.4 7.2-.8 5.9.1 2.4-3.4 4.5-.9 4.8 1.8-4.2 5.2 6.2-4.4 3.2.2 6.3-5.5-1.6-3.3-2.9-2.1 5.5-5.8 8.1-3.8 4.5.8 1.9 2.3.4 6-5.7 2.6zM332 44.8l2.8 1-4.7 2.4 10.4-1.5 2.6 2.6 7.3-2.7 1.7 1.7-2.2 5.1 4.3-2.1L357 46l4.2-.8 3 .9 2.2 2-2.7 5.1-2.4 3.6 4.2 2.6 5 2.5-2.6 2.4-7 .4.7 2.1-3.1 1.9-6.7-.8-5.7-1.5-5 .4-9.4 1.8-11.2.8-7.8.5.3-2.5-4.1-1.5-4.2.6-.6-4.2 3.3-.6 7.1-.9 5.5.3 6.2-1-6.5-1.2-9 .4-5.6-.1v-1.9l11.5-2.1-6.2.1-5.4-1.4 7.8-3.9 5.1-2 14.1-3.2zm40.2-1.6l1.7 1.1-7 3.4-2.2-3.6 2.1-.7 5.4-.2zm105-.1l4.4 2.8-.7 1.4-8.2-.2-4.8.7-.9-.3-2-2.8 1.7-1.8 2.1-.3 8.4.5zm-29.3-.7l-5.7 3.2.3 3.2 7.1-4.1 11.6-2.1 2.3 5.3-3.3 3.4 9-1.5 5.2-2.1 6.8 2.6 3.6 2.5-1.1 2.3 8.2-1.2 1.9 3.3 8.3 2.1 2.2 2.1.8 5-9 2.5 7.7 3.5 5.9 1.2 3.2 5.1 6.4.3-3.3 3.9-10.7 6.5-4-2.4-3.8-5.4-5.8.7-2.3 3.2 2.7 3.3 4.4 2.5 1 1.5v5.6l-3.6 4.1-4.7-1.5-8.5-4.6 3.5 4.9 2.8 3.5-.3 2-10.7-2.3-7.6-3.3-3.8-2.8 2.4-1.6-4.7-2.9-4.7-2.7-.9 1.6-13 .9-2.4-1.9 5.4-4.2 8-.1 9.2-.7-.2-2 3.2-2.7 8.6-5.4.4-2.4-.5-1.9-4.6-2.6-7.1-1.8 3.5-1.4-2-3.3-3.3-.3-2-1.8-3.2 1.6-7.9.6-13.8-1.2-7.3-1.5-5.9-.8L420 58l6.1-2.3-5.6-.1 3.3-5.2 7.1-4.6 5.8-2.1 11.2-1.3zm-62.8 2.2l7.1-2.4 3.5 1 7.5-.6-.5 1.5-6 2.4 3.8 2.2-5.1 4.7-8.4 2-3.4-.5-.9-2-5.8-3.9 1.7-1.7 7.4.7-.9-3.4zm35 2l-5.6 1-7.7 3.9-4.3-.2 1.8-4.5 2.5-2.6 4.2-2.1 5.2-1.4 7.8.2 6.1 1.2-10 4.5zm-117.7 5.9l-2.6 2.3-13.4 2.5.6-2.3-5.9-2.7 4.3-2.2 7.4-3.8 7.6-3.3.3-3.1 14-.8 4.1 1.1 9.4.2 1.9 1.5 1.6 2.1-6.4 1.3-13.8 3.6-9.1 3.6zm121.8-17.6l-.3 1.6-4.1 1.9-5.1-.4-3.2-1.3 4.4-2.2 6.9-1.3 1.4 1.7zm-10.1-6.3l1.1-.7.2 2.3-2.8 2.5-5.8 3.7-6.8.5-3.2-.8 3.4-2.9-6.6.4 4.3-3.8 3.8.1 7.6-1.6 4.8.3zm-36.2-.5l-1.8 2.3-.7 1.8 4.3-.8 3.7.2-2.3 2.4-5.1 2.3-13.8.8-12.2 2.2-5.9.1 1.5-1.6 10.6-2.2-17.8.5-4.1-.8 11.6-4.8 5.4-1.4 8.2 1.6 2.8 2.9 6.1.4.7-4.7 5.7-1.7 3.1.5zm46.3-2.3l7.1.3 2.3 1.6 7.3-.1 1.4 1.6-2.8 1.9 3.1 1.1 1.2 1.1 4.8.3 5.1.4 7-1.1 8-.4 5.8.3 2.3 1.9-1 2-3.5 1.4-6.7 1-4.3-.6-11.6.8-8 .1-5.5-.6-8.5-1.6 1.5-2.8 2.2-2.4-1.4-2.1-7-.6-2.6-1.5 3.8-2zm-73.9-1.6l6-.7-5.8 3.7-5.2 1.6-3.8.3-9.8 2.1-7 .7-3.6-1 11.6-3.7 12.1-3.1 5.5.1zm87.5-.6l-1 .5-1.9.1-6.4-.3.6-1.3 7.2.1 1.5.9zm-56.2-1.7l-3.2 1.4-8.6 1.3-3.3-1.5 5.1-1.5 5.9-.5 4.1.8zm1.3-3.7l3.3.9-5.6.9h-6l1-.7 5.7-1.3 1.6.2zm52.7 1.7l-3 1.7-6.6 1-1.6-1.1.7-1.8 2.1-1.8 4.4.1 1.7.3 2.3 1.6zM419 18.2l-.1 2.2-1.1 1.9-5.2-.5-4-1.5-7.7-.2 5.3-1.4-2.8-1.1 2.1-1.7 6.1.6 7.4 1.7zm54.2-6.7l-.6 2.8 2.6 1.5-6.4 1.3-10.5 3.4-6.8.4-6.7-.6-1.6-1.9 2.1-1.6 4.3-1.2h-6.5l-2-1.5.3-1.9 4.9-1.9 4.1-1.3 3.9-.3-.3-.9 8.2-.2 1.6 2.2 4.7.9 4.7.8zM544.1.3l7 .2 8.5.3 6.7.4 5.2 1-1.1 1.1-9.7 1.6-9 .8-3.9.9h7.4l-10.3 2.5-6.8 1.1-9.3 3.5-7.9.8-3.2.9-11.1.4 4.3.6-3.3.8.8 2.2-5 1.6-6.8 1.3-3.6 1.9-6.5 1.4-.5 1.1 6.4-.2-1 1.1-12.6 3-8.4-1.4-11.7.8-4.9-.6-6.7-.3 2-2.3 8-1.1 2-3.4 2.5-.3 7.5 2-1.7-3-4.8-.9 4.9-1.7 7.5-1.1 2.8-1.6-3-1.7 1.1-2.2 9.3.2 2.2.4 7.2-1.5-7.2-.5-12.4.3-4.4-1.5-.8-1.6-2.5-1.2 1.1-1.3 6-.8 4.1-.1 7.4-.6 6.7-1.4 3.9.2 2.3 1 5-2 5.1-.6 6.4-.4 10.3-.2 1.4.4 10.2-.6 6.9.3zM242.3 329.1l3.6 1.4 2.1-.2-3.1 5.6-1.8 4.5-1.8 8.6-1.1 3.1.5 3.4 1.2 3.1.4 5 3 4.7.7 3.6 1.8 3.2 5.6 1.7 1.9 2.6 5.1-1.8 4.3-.6 4.3-1.1 3.6-1.1 3.9-2.6 1.8-3.7 1.2-5.4 1.2-1.8 4-1.7 6-1.5 4.8.2 3.4-.5 1.2 1.3-.6 3.1-3.5 3.8-1.8 3.9.9 1.1-1.2 2.7-2 5-1.2-1.6-1.2.1h-1l-2.5 3.9-.9-.8-.7.3-.1 1-5.1-.1H274l-.4 3.6H271l1.8 2.1 1.9 1.5.5 1.4.8.4-.4 2.1h-7.1l-3.3 5.2.7 1.2-.8 1.5-.4 1.9-5.5-6.9-2.6-2.1-4.4-1.6-3.1.4-4.8 2.4-2.9.7-3.7-1.7-4-1.2-4.8-2.9-4-.9-5.9-3-4.2-3-1.2-1.7-3-.4-5.4-2-1.9-2.9-5.3-3.6-2.2-4-.8-3.1 1.9-.7-.3-1.8 1.6-1.6.3-2.2-1.4-2.9v-2.5l-1.3-3.2-3.8-6.4-4.5-4.9-1.9-4-4.1-2.6-.7-1.5 1.8-4-2.5-1.5-2.4-3.1-.3-4.4-2.7-.5-2.3-3.4-1.7-3.1.4-2-1.5-4.7-.4-4.9.9-2.4-3.1-2.5-1.9.2-2.4-1.7-1.8 2.6-.1 3-1 4.8 1.1 2.6 2.7 4.4.4 1.4.7.5.1 2.2 1-.1v4.1l1.2 1.6.6 2.3 2.6 3.2.5 5.9 1 2.8.9 3-.4 3.4 2.6.2 1.6 2.9 1.5 2.8-.4 1.2-2.7 2.3h-1l-.7-3.9-2.9-3.6-3.3-3.1-2.5-1.6 1.2-4.7-.1-3.4-2.1-2-3.1-2.9-.9.9-1-1.7-2.9-1.5-2.3-3.7.6-.5 2.1.3 2.7-2.3 1-2.9-2.9-4.5-2.6-1.8-.8-4-.7-4.1-.7-5.1-.2-5.7 6.3-.5 7-.7-1 1.3 7.1 3.1 10.7 4.4h15l.8-2.6h9.3l1.3 2.2 2.1 2 2.4 2.8.8 3.3.4 3.5 2.2 1.9 4 1.9 4.8-5 4.4-.1 3.1 2.5 1.6 4.4 1 3.7 2.4 3.6.2 4.5.8 3 3.9 2zm475.2-101.6l-2.8-2-2.4.1-1.7.4-1.1.2-2.9 1-.1 1.2h-.7l-.4 2.1.9 2.6 2.3 1.6 3.3-.6 1.9-1.3 2.8.1.7-1.1 1-.2-.8-4.1zm439.9 131l-.6-2.6-3.8 1.8-2.5-1.2-4.5-2.4.8-5.2-3.7-1.3-2.3-5.8-5.6 1-.7-7.5 4.1-5.3-.8-5.3-1.3-4.9-2.7-1.5-2.7-3.7-3 .4.9 2.4-1.6 1.2 1.3 3.9-4.1-1.1-6.1 4.4.9 3.6-2.1 5.4.3 3.1-1.5 5.2-4.6-1.4.9 6.6-.9 2.1.9 2.7-2.4 1.5.5 4.6-2.1-1 1.1 5.1 4.6 5.2 3.4.9-.4 2.2 5.4 7.4 1.9 5.9-.9 7.9 3.6 1.5 3.2.6 5.8-4.6 3.2-3.1 3.1 5.2 2 8.1 2.6 7.6 2.6 3.3.2 6.9 2.2 3.8-1.3 4.8.9 4.8 2.2-6.6 2.6-5.9-2.8-5.8-.2-3-1-3.5-4.2-5.1-1.7-3.2 1.7-1.1 1.4-5.6-2.9-4.2-4.1-4.6-3.5-5.6 2.2-1.1 1.5-6.9 3.9-.3 2.8-2.8 3-1.4.8-2.4 4.1-4.1zm-453.9-136l.4-.6-2-1.2-1.8-.7-.8-.8-1.5-1.1-.9.6-1.5 1.4-.4 3.4-.5 1 2.3 1.2 1.6 2.1 1.1.4-.5-1.9 2-3.1.4 1.2 1.3-.5.8-1.4z"/><path d="M1097.2 174.8l-3.7-4.6-6.6-1.5-4.8-.8-6.9-2.5-1.3 6.4 4 3.6-2.4 4.3-7.9-1.6-5-.2-4.7-2.9-5.1-.1-5.3-1.9-5.9 2.9-6.6 5.4-4.7 1 3.3 4.4 5.7 3.3 8.1 2.3 5.8 5 1.3 7.3 3 2.7 6.4 1 7.2.9 7.9 3.8 3.4.7 4.9 5.7 4.7 3.6 5.5-.1 11.2 1.3 6.4-.8 5.5.9 9.3 3.8 6.2-.1 3.2 2 4.4-3.3 7.2-2.2 7.5-.2 4.9-2.2 1.9-3.3 2.5-2-1.9-2.1-2.9-2.3.4-4 3.2.5 5.9 1.3 3.1-3.3 6.3-2.4 1.4-4.1 2.4-1.8 6.8-.8 4.3.7-.7-2.2-7.2-4.3-5.1-2-2.5 2.3-5.4-1-2.4.8-2.7-2.6-.3-6.2-.6-4.6-5.5.5-3.9-2.1-3.3-.7-4.5 4.4-5.8 1-3.6 1.6-6.7-1h-4.5l-4.9-3.1-6.5-3-5.4-.8-5.7.8-3.9 1.1-8.4-2.6zM289.6 399.5l-1.9-.2-.9.9-2 .8h-1.4l-1.3.8-1.1-.3-.9-.9-.6.2-.8 1.5-.5-.1-.3 1.3-2.1 1.8-1.1.7-.6.8-1.5-1.3-1.4 1.7H270l-1.3.2-.2 3.1h-.8l-.8 1.5-1.8.3-.4.4-.9-1-.7 1 2.6 2.9 2.2 2 1 2.1 2.5 2.6 1.8 2 .9-.8 3.5 1.7 1.4-.8 1.7.5.8 1.3 1.7.4 1.4-1.3-.8-1.1-.1-1.7 1.2-1.6-.2-1.7.7-2.7.9-.7.1-2.8-.2-1.7.4-2.8.9-2.5 1.4-2.2-.3-2.3.4-1.4.6-.6zM712.3 55.8l-6.9 1.1-7.3-.3L693 61l-6.7-.3-8.5 2.3-10.1 6.8-6.4 4-8.8 10.7-7.1 7.8-8.1 5.8-11.2 4.8-3.9 3.6 1.9 13.4 1.9 6.3 6.4 3 6-1.4 8.5-6.8 3.3 3.6 1.7-3.3 3.4-4 .9-6.9-3.1-2.9-1-7.6 2.3-5.3 4.3.1 1.3-2.2-1.8-1.9 5.7-7.9 3.4-6.1 2.2-3.9 4 .1.6-3.1 7.9.9v-3.5l2.5-.3 2.1-1.4 5.1 2.9 5.3-.3 4.7 1.3 3.4-2.4 1.1-3.9 5.8-1.8 5.7 2.1-.8 3.8 3.2-.5 6.4-2.2-5.4-3.3 4.8-1.4-13.6-3.9zm-22.6-33.3l-5.6-1-1.9-1.7-7.2.9 2.6 1.5-2.2 1.2 6.7 1.1 7.6-2zm-25.4-8.3l-4.8-1.6-5.1.2-1 1.5h-5l-2.2-1.5-9.3 1.6 3.2 3.5 7.6 3.8 5.7 1.4-3 1.7 8.4 2.9 4.4-.2.9-3.9 3-.9 1.2-3.4 8.5-1.8-12.5-3.3zm24.2-3.1l-9.1-1-3.2 1.2-5.3-1-10.4 1.2 4.3 2h5.1l.9 1.3 10.6.7 10.1-.5 4.3-2.4-7.3-1.5zm390.2 306.4l-6.5-.6-6.4-1.5-5-2.8-4.5-1.2-2.5-3.1-3.2-.9-6.4-4.1-4.7-2-1.9 1.5-2.8 2.9-.9 5.9 5.7 2.5 5.8 3.1 7.7 3.5 7.6.9 3.8 3.2 4.3.6 6.8 1.5 4.6-.1.1-2.5-1.5-4.1-.1-2.7zm-154.2 43l2.1-2 .8-1.8 1.6-3.8-.1-1.4-2.1-.8-1.6-2.1-2.9-3.7-3.3-1.1-4.1-.9-3.3-2.3-2.9-4.3h-2.8l-.1 4.2 1.1.8-2.4 1.3.3 2.6-1.4 2.6.1 2.6 2.9 4.5-2.6 12.7-16.1 6.4 5.2 10.5 2.1 4.4 2.5-.3 3.6-2.2 3.1.6 2.5-1.8-.2-2.5 2.1-1.6h3.4l1.2-1.3.2-3.1 3.3-2.4h2.6l.4-.8-1-4.2.6-3.2 1-1.5 2.5.3 1.7-4.4zm-16.6-30.4l.2-2.6-.7-.6-1.3 2.2 1.3 2.2.5-1.2zm103.9-61.1l-9.4-2.6-2.9-5-4.7-3-2.8.7-2.4 1.2-5.8.8-5.3 1.3-2.4 2.8 1.9 2.8 1.4 3.2-2 2.7.8 2.5-.9 2.3-5.1-.2 3 4.2-3 1.6-1.5 3.8 1.1 3.8-1.7 1.8-2.1-.6-4 .9-.2 1.7h-4l-2.3 3.6.8 5.4-6.6 2.6-3.8-.5-.9 1.4-3.3-.8-5.3.9-9.6-3.2 3.2 3.3 2.8 3.9 5.6 2.7 1 5.7 2.7 1 .9 2.9-7.4 3.3-1.2 7.4 7.6-.9 8.9-.1 9.9-1.2 4.9 4.8 2.1 4.6 4.2 1.6 3.2-4.2h12l-1.8-5.5-3.5-3.2-1.3-4.9-4-2.9 4.9-6.6 6.4.5 4.5-6.7 2.1-6.5 3.9-6.3-1-4.5 3.7-3.7-5-3.1-2.9-4.3-3.2-5.6 1.9-2.8 8.5 1.6 5.7-1 3.7-5.4zM692.9 151l-4.6-.1-.5-1.4-4.8-1.1-5.7 2.1-7.1 2.8-3.1 1.7 1.4 3.1-1.2 1.6 2 2.2 1.4 3.3-.1 2.1 2.3 3.9 2.4 1.9 3.7.6-.1 1.7 2.7 1.2.6-1.5 3.4.6.7 2 3.6.3 2.6 3.1.3.4 1.9-.9 2.7 2.2 2.8-1.3 2.4.6 3.4-.8 4.9 2.3 1.1.4-1.6-2.8 3.8-5.1 2.3-.7.3-1.8-3.1-5.3-.5-2.7-1.9-2.9 2.7-1.2-.3-2.4-1.7-2.3-.6-2.7-1.4-1.9-2.5-.6-8.7.1-5.9-.7zm575.3 74l-5.5-3.6.1 3.5-6.3 2.6 2.7 3.3-4.6-.2-3.6-2-1 4.4-3.8 3.4-2.1 4 3.3 1.7 3.4.7.8 1 .4 3.5 1.1 1.2-.9.7-.1 2.9 1.9 1 1.6.6.8 1.2 1.3-.5v-1.3l3.1 1.3.1-.6 2.4.2.7-2.9 3.5-.3 2.1-.4-.1-1.6-4.3-2.8-2.6-1 .2-.7-1.2-2.8 1.3-1.7 2.9-1 1-1.9.3-1.1 1.9-1.4-2.8-4.5.3-2.1.9-2 2.2.3-1.4-1.1zm-707.1 33.6l-.4-2.1 2-2.5.8-1.7-1.8-1.9 1.6-4.3-2-3.8 2.2-.5.3-3 .9-.9.2-4.9 2.4-1.7-1.3-3.1-3-.2-.9.8h-3l-1.2-3.1-2.1.9-1.9 1.6.1 2.1.9 2.2.1 2.7-1.3 3.8-.4 2.5-2.2 2.3-.6 4.2 1.2 2.4 2.3.6.4 4-1 5.1 2.8-.7 2.7.9 2.2-1.7zm229.3 30.2l-2-.9-.7 4.3 1.4.7-1.2.8-.1 1.7 2.4-.8.6-1.9-.4-3.9zm91.1 49.4l.8-3.8-.5-3.7-1.9-2-1.4.7-1.1 3.3.8 4.7 1.8 1.2 1.5-.4zM731.6 189h-2.1l-1 1.5-3.6.6-1.6.9-2.4-1.5h-3.2l-3.2-.7-1.9 1.3-2.9 1.3-1.9 4.2-2.6 4.3-3.8 1.1 2.9 2.5.8 1.9 3.2 1.5.7 2.5 3.1 1.8 1.4-1.3 1.4.7-1.1 1.1 1 1 1.8 2.6 1.9-.5 4 1 7.5.3 2.3-1.6 5.8-1.4 4 2.2 3 .7.4-7.4 1.6.5 2.3-1.3-.4-1.6-2.4-1.1-2.2 1-2.4-1.1-1.3-2.8.2-2.7-.6-2.7-3.4-3.7-1.9-2.6-1.8-1.9-1.6-.6z"/><path d="M262.7 409.7l.6-2.5-.7-.7-1.1-.5-2.5.8-.1-.9-1.6-1-1.1-1.3-1.5-.5-1.4.4.2.7-1.1.7-2.1 1.6-.2 1 1.4 1.3 3.1.4 2.2 1.3 1.9.6 3.3.1.7-1.5zm445.6-201.8l-3.2-1.5-.8-1.9-2.9-2.5-3.2-.2-3.7 1.6 1.5 2.4 1.7 1.8-1.7 2.3h1.8l-1 2.7 2.7 2.3-.5 2.9-1.2.3 1.5 1.1.8.8 1.8.7 2 1.2-.4.6 1.2-.5.5-2 .9-.4.8.9 1 .4.8 1 .8.3 1.1 1.1h.8l-.5 1.5-.5.7.2.5 1.7-.4 2.4-.1.7-.9-.6-.7.7-2 1.7-1.9-2.8-2.6-.7-2.3 1.1-1.4-1-1 1.1-1.1-1.4-.7-1.4 1.3-3.1-1.8-.7-2.5zm2.6-24.3l-4.9-2.3-3.4.8-2.4-.6-2.8 1.3-2.7-2.2-1.9.9-.3-.4H691l-.6 1.1-1.1.3-.2 1.4-.9.3-.1.6-1.6.6-2.2-.1-.6 1.4-.3.8.7 2.1 2.6 1.6 1.9.7 4.1-.8.3-1.2 1.9-.2 2.3-1 .6.4 2.2-.7 1-1.5 1.6-.4 5.5 1.9 1-.6.7-2.5 1.1-1.7zm-28 16.1l-1.2-2.1-.8-.1-.9 1.1-4.3.1-2.4 1.4-4.2-.4-.3 3 1.4 2.7-1.1.5 3.5.2.8-1 1.8 1 2 .1-.2-1.7 1.7-.6.3-2.5 3.9-1.7zm18.3-115.9l-1.9-2.2-1.7-8.4-7.2-3.7-5.9-2.7-2.5.3v3.5l-7.9-.9-.6 3.1-4-.1-2.2 3.9-3.4 6.1-5.7 7.9 1.8 1.9-1.3 2.2-4.3-.1-2.3 5.3 1 7.6 3.1 2.9-.9 6.9-3.4 4-1.7 3.3 4.2 8.4 4.4 6.7 2 5.7 5.3-.3 2.2-4.7 5.7.5 2-5.5.6-10 4.6-1.3 3.3-6.6-4.8-3.3-3.6-4 2.1-8.1 7.7-4.9 6.1-4.5-1.2-3.5 3.4-3.9 7-1.5zM807 282.6l11-6.7.9-7.8-1.2-4.7 2.7-1.6 2.1-4.1-5.9 1.1-2.8-.2-5.7 2.5h-4.3l-3-1.2-5.5 1.8-1.9-1.3.1 3.6-1.2 1.5-1.2 1.4-1 2.6 1.1 5 2.4.3 1.2 2.5-2.6 2.4-.9 3.5.3 2.6-.6 1h.1l6.3 2.5 9.6-6.7zm379.2 121.5l1.5-2.9-.5-5.4-5.2-5.5-1.3-6.3-4.9-5.2-4.3-.4-.8 2.2-3.2.2-1.8-1.2-5.3 3.8-1-5.7.4-6.7-3.8-.3-.9-3.8-2.6-1.9-3 1.4-2.8 2.8-3.9.3-1.5 6.9-2.2 1.1 3.5 5.6 4.1 4.6 2.9 4.2-1.4 5.6-1.7 1.1 1.7 3.2 4.2 5.1 1 3.5.2 3 2.8 5.8-2.6 5.9-2.2 6.6-1.3 6.1-.3 3.9 1.2 3.6.7-3.8 2.9 3.1 3.2 3.5 1.1 3.2 2.4 2.4.9-1.1 4.7 2.8.6 3.3 3.7-.8 1.7-2.6-3.1-3.3-3.4-.8-3.3-3.6-1.4-5.5-2.6-5.8-3.7-.2-.7-4.6 1.4-5.6 2.2-9.3-.2-7 4.9-.1-.3 5 4.7-.1 5.3 2.9-2.1-7.7 3-5.2 7.1-1.3 5.3 1zM967.6 238.4l-2.1.2-1.3-1.8.2-2.9-6.4 1.5-.5 4-1.5 3.5-4.4-.3-.6 2.8 4.2 1.6 2.4 4.7-1.3 6.6 1.8.8 3.3-2.1 2.1 1.3.9-3 3.2.1.6-.9-.2-2.6 1.7-2.3 3.2 1.5v2l1.6.3 1 5.4 2.6 2.1 1.5-1.3 2.1-.7 2.5-2.9 3.8.5h5.4l-1.8-3.7-.6-2.5-3.5-1.4-1.6.6-3-5.9-9.5.9-7.1-2-5.4.5-.6-3.7 5.9 1.1 1.4-2z"/><path d="M949.1 256.9l-.8-4-7.7-2.7-6.2-3.2-4.2-3-7-4.4-4.3-6.4-2-1.2-5.5.3-2.3-1.3-1.9-4.9-7.8-3.3-3.3 3.6-3.8 2.2 1.6 3.1-5.8.1-2.5.3-4.9-4.9-3.8-1.7-5.5 1.3-1.8 2 2.5 4-.5-4.5 3.7-1.6 2.4 3.6 4.6 3.7-4 2-5.3-1.5.1 5.2 3.5.4-.4 4.4 4.5 2.1.7 6.8 1.8 4.5 4.4-1.2 3-3.7 3.5.2 2.1-1.2 3.8.6 6.5 3.3 4.3.7 7.3 5.7 3.9.2 1.6 5.5 5.9 2.4 3.9-.8.4-3 4-.9 2.5-2-.1-5.2 4.1-1.2.3-2.3 2.9 1.7 1.6.2zm-287.6 27.2l-2-1-1.5-3-2.8-.1-1.1-3.5 3.4-3.2.5-5.6-1.9-1.6-.1-3 2.5-3.2-.4-1.3-4.4 2.4.1-3.3-3.7-.7-5.6 2.6-1 3.3 1 6.2-1.1 5.3-3.2 3.6.6 4.8 4.5 3.8v1.5l3.4 2.6 2.6 11.3 2.6-1.4.4-2.7-.7-2.6 3.7-2.5 1.5-2 2.6-1.8.1-4.9zm128.6-52.5l-9.7-4.4-8.5.2-5.7 1.7-5.6 4-9.9-.8-1.6 4.8-7.9.2-5.1 6.1 3.6 3-2 5 4.2 3.6 3.7 6.4 5.8-.1 5.4 3.5 3.6-.8.9-2.7 5.7.2 4.6 3.5 8-.7 3.1-3.7 4.6 1.5 3.2-.6-1.7 2.4 2.3 3 1.2-1.4 1.2-1.5-.1-3.6 1.9 1.3 5.5-1.8 3 1.2h4.3l5.7-2.5 2.8.2 5.9-1.1 2.1-1 6.2.9 2.1 1.6 2.3-1.1-3.7-5.2.7-2-2.9-7.3 3.3-1.8-2.4-1.9-4.2-1.5v-3.1l-1.3-2.2-5.6-3-5.4.3-5.5 3.2-4.5-.6-5.8 1-7.8-2.4zm-49.6 4l2-1.9 6.1-.4.7-1.5-4.7-2-.9-2.4-4.5-.8-5 2 2.7 1.6-1.2 3.9-1.1.7.1 1.3 1.9 2.9 3.9-3.4zm21.5-71.9l-4.8.5-1.5-.3-1 1.4-1.8-.2-4.1.3-1.2 1.4.2 3.1-2-.6-4.3.3-1.5-1.5-1.6 1.1-2-.9-3.8-.1-5.6-1.5-5-.5-3.7.2-2.4 1.6-2.2.3 3.1 5.3-.3 1.8-2.3.7-3.8 5.1 1.6 2.8-1.1-.4-1.1 1.7-.7 2.5 2.9 1.7.6 1.6 1.9-1.3 3.2.7h3.2l2.4 1.5 1.6-.9 3.6-.6 1-1.5h2.1l1.1-.9 3.2-.6 3.9 1.9 2 .3 2.5 1.6v2.1l1.9 1.1 1.1 2.6 2 1.5-.2 1 1 .6-1.2.5-3-.2-.6-.9-1 .5.5 1.1-1.1 2-.5 2.1-1.2.7 2.4 1.1 2.2-1 2.4 1.1 3.3-4.6 1.3-3.4 4.5-.8.7 2.4 8 1.5 1.7 1.4-4.5 2.1-.7 1.2 5.8 1.8-.6 2.9 3 1.3 6.3-3.6 5.3-1.1.6-2.2-5.1.4-2.7-1.5-1-3.9 3.9-2.3 4.6-.3 3-2 3.9-.5-.4-2.8 2.2-1.7 4.7-.5.3-2.1-1.8-3.4 1.3-3.2-.4-1.9-7.6-2-2.9.1-3.6-2.9-3.5 1-6.6-2.2-.2-1.2-2.2-2.7-4-.2-.7-1.9.9-1.3-3.8-3.4z"/><path d="M963.3 225.8l-2.5 1.2-5.4 4.3-.9 4.5h-1.9l-2.3-3-6.6-.2-2.6-5-2.5-.1-1.5-6.2-7.5-4.5-8.6.5-5.7.9-6.5-5.5-4.8-2.3-9.1-4.5-1.1-.5-11.9 3.6 6.2 22.8 5.8-.1-1.6-3.1 3.8-2.2 3.3-3.6 7.8 3.3 1.9 4.9 2.3 1.3 5.5-.3 2 1.2 4.3 6.4 7 4.4 4.2 3 6.2 3.2 7.7 2.7.8 4h2.9l4.3 1.4 1.3-6.6-2.4-4.7-4.2-1.6.6-2.8 4.4.3 1.5-3.5.5-4 6.4-1.5-.2 2.9 1.3 1.8 2.1-.2 4.1.6 5.2-4.5-7.1-3.3-3.2 1.6-4.6-2.3 3.1-4.1-1.8-.6zm231.8 131.9l-5.9-1.6-3-2.6.2-3.7-5.2-1.1-3-2.4-4.1 3.4-5.3.7h-4.3l-2.7 1.5 4 5.1 3.4 5.7 6.8.1 3 5.5-3.3 1.7-1.3 2.3 7.3 3.8 5.7 7.5 4.3 5.6 4.8 4.4 2 4.5-.2 6.4 1.8 4.2.1 7.7-8.9 4.9 2.8 3.8-5.8.5-4.7 2.5 4.5 3.7-1.3 4.3 2.3 4 6.6-5.9 4.1-5.3 6.1-4.1 4.3-4.2-.4-11.2-4-11.7-4.1-5.1-5.6-4-6.4-8.3-5.3-6.7.5-4.4 3.7-6 6.5-5.5zM608.5 248.4v-.2h-.5l-.3-.4-.2.4v.2h.5l.4.1.1-.1zm-.8-1.6h.3l.6-.7v-.3l-.3-.2-1.1.2-.2.3v.3l-.3.1-.1.4.1.2.8.1.2-.4zm-17.2-28.1l-8.2-.2-4.2.3-5.4-1h-6.8l-6.2-1.1-7.4 4.5 2 2.6-.4 4.4 1.9-1.6 2.1-.9 1.2 3.1h3l.9-.8 3 .2 1.3 3.1-2.4 1.7-.2 4.9-.9.9-.3 3-2.2.5 2 3.8-1.6 4.3 1.8 1.9-.8 1.7-2 2.5.4 2.1 4.8 1 1.4 3.7 2 2.2 2.5.6 2.1-2.5 3.3-2.3 5 .1h6.7l3.8-5 3.9-1.3 1.2-4.2 3-2.9-2-3.7 2-5.1 3.1-3.5.5-2.1 6.6-1.3 4.8-4.2-.3-3.5-6 .8-5.7-2.8-1.9 1.3-9.4-2.8-2-2.4zm26 22.6l.1-.3.1-.2.1-.1-.2-.2v-.1l.2-.2-.2-.1-1.3.4-.7.4-2.1 1.5v.3l.1.2h.4l.2.4.4-.4.3-.1.3.1.3.2.1.6.1.2.6.1.9.4.4-.2.5-.3.2-.6.6-1 .3-.4-.1-.4-.6-.2-.5.2-.5-.2zm6-.3l.1-.4v-.1l-.5-.7-.9-.3-1 .1-.1.1v.4l.1.1.6.1 1.6.7h.1zM362.1 415.6l-.1-.1-.3-.6-.3-.3-.1.1-.1.3.3.3.3.4.3.1v-.2z"/><path d="M608.9 224.4l.2-.4v-.1l-.2-.1-.7-.2-.3-.1-.2.1-.2.2-.1.3.1.1v.4l.1.2h.4l.3-.1.5-.3h.1zm-203.2 65.1l.4-.6h-.1l-.5.5-.6.2.1.1h.1l.6-.2zm14.7 122.1l.4-.4-.3-.3-.6-.8-.3.1v1l.1.3.5.3.2-.2zm-117.9-39.8l-.1-.3-.1.1v.6h.7l.3-.2h.6l-.1-.2-.8-.1-.1.1-.2.1-.2-.1zm8-2.3l-.1-.1h-.1l-.3.1h-.2l-.2.2h.2l.4-.2h.3zm.8-.1l.5-.2-.1-.1h-.1l-.1.1h-.1l-.5.3h.2l.2-.1zm917.1-15.8v-.4l-.4-.2h-.3l.1.2.4.5.2-.1zm-1.3 0l-.1-.5.2-.3-.9.3-.1.3v.1l.2.1h.7zm1.6-1.2l-.1-.3-.2-.1-.1-.3-.1-.2-.3-.1-.2-.1h-.4l-.1.1h-.2l-.2.2v.2l-.5.4v.2l.3.2.5-.1.6.2.8.3v-.5l.2-.1zM647.9 196.3v-.2l.1-.2-.1-.1-.1-.2-.1-.1v-.2l-.1-.1v-.2l-.1-.1-.2.6v.5l.1.2h.1l.4.1zm29.2 70.4l-.7-.7-.5-.1.1.6.4.4h.5l.2-.2zm-1.4-1.2v-.2l-.3-.1-.4.1.1.1.3.2.3-.1zm97.7 5.6l-.3-.1-.5.2-.4.4-.4.3-.5-.3.2.9.6 1.1.2.3.3.2 1.1.3h.9l.2.1.2.4h.4v-.4l.2-.2.3-.2h.3l.6-.1.6-.2.5-.4.9-1h1.2l.6-.1-.2-.4-.1-.1-.4-.5-.2-.4.1-.6 2.5-1.9.5-.5-.8.2-.6.4-.4.2-.7.4-2.3.8-.8.1h-.8l-1-.1-.9-.2v.7l-.2.6-.6.2-.3-.1zm-402 146.5v-.6l-.9-.4v.3l.1.2.3.1.1.2-.1.6.2.3.3-.7zm131.7-99.7l-.2-.2-.7.5h-.6l.2.4.7.4.6-1.1zm13.5-2.1v-.1h-.1l-.1.1-1.3-.1-.2.6-.5.4v.7l.5.7.3.1.5.1.7-.4.2-.4.1-.8-.1-.4v-.5zm-9.7.8l.5-.4v-.2l-.1-.3-.5-.3h-.2l-.2.2-.2.4.3.5.2.1h.2zm4.7-2.3l1.2-1v-.3l-1 .1-1.1 1-.3.1-1 .1h-.5l-.4.2.2.3.4 1 .7.9.6-.2.3-.2.4-.6.5-1.4zm11.6 1.3l1.5-.5.3-1 .3-1.1v-.7l-.2-.3h-.5l-.3.2-.1.6-.7 1.3-.5 1.2-.7.6-.7.2.1.1.7.1.8-.7zm-19.7-2l.5-.5.1-.3-.1-.5.2-.2-.1-.4-.3-.4h-.7l-.4.6.6 1.2.1.5h.1zm22.4-2.7l.9-.3.5-.3.1-.9.2-.3-.2-.3-.2.2-.2.4-.6.2-.8.4-.2.3-.2.9.4.1.3-.4z"/></g></g><mask id="A" mask-type="alpha" maskUnits="userSpaceOnUse" x="830" y="57" width="36" height="36"><circle cx="848" cy="75" r="18" class="D"/></mask><g mask="url(#A)"><path d="M876.504 69.027h-54.922V57.95a.95.95 0 0 1 .947-.95h53.028a.95.95 0 0 1 .947.95v11.077z" class="G"/><path d="M875.557 93H822.53a.95.95 0 0 1-.947-.95V80.973h54.922V92.05a.95.95 0 0 1-.947.95z" fill="#ff4b55"/><path d="M876.504 69.027h-54.922v11.947h54.922V69.027z" fill="#41479b"/></g><mask id="B" mask-type="alpha" maskUnits="userSpaceOnUse" x="246" y="162" width="37" height="37"><circle cx="264.5" cy="180.1" r="18" class="D"/></mask><g mask="url(#B)"><path d="M291.72 196.95a1.15 1.15 0 0 1-1.147 1.148h-52.226c-.63 0-1.148-.517-1.148-1.148v-33.703c0-.63.517-1.148 1.148-1.148h52.226a1.15 1.15 0 0 1 1.147 1.148v33.703z" fill="#fff7ee"/><path d="M290.572 162.1h-31.078v3.462h32.226v-2.314a1.15 1.15 0 0 0-1.148-1.148zm-31.077 13.015v2.16c0 .716-.582 1.302-1.294 1.302h33.52v-3.462h-32.226zm32.225 6.507H237.2v3.462h54.52v-3.462zm0 6.508H237.2v3.462h54.52v-3.462zm0 8.82v-2.314H237.2v2.314a1.15 1.15 0 0 0 1.148 1.148h52.226a1.15 1.15 0 0 0 1.147-1.148zm0-28.342h-32.225v3.462h32.225v-3.462z" fill="#e02424"/><path d="M238.347 162.1c-.63 0-1.148.517-1.148 1.148v15.33h22.226c.71 0 1.293-.586 1.293-1.302V162.1h-22.37z" fill="#0853a4"/><g class="B"><path d="M249.46 166.7c-.026 0-.052-.006-.076-.02l-.313-.168-.313.168a.16.16 0 0 1-.173-.012c-.05-.038-.076-.102-.066-.165l.06-.357-.253-.253c-.045-.045-.06-.112-.042-.173s.07-.105.133-.114l.35-.052.157-.325c.027-.058.084-.094.147-.094s.12.036.147.094l.157.325.35.052c.062.01.114.053.133.114a.17.17 0 0 1-.042.173l-.253.253.06.357c.01.063-.015.127-.065.165-.03.02-.063.032-.097.032zm0 2.92c-.026 0-.052-.006-.076-.02l-.313-.17-.313.17a.16.16 0 0 1-.077.019.16.16 0 0 1-.096-.032c-.05-.038-.076-.1-.066-.165l.06-.357-.253-.253a.17.17 0 0 1-.042-.172c.02-.06.07-.105.133-.115l.35-.052.157-.325c.027-.057.084-.094.147-.094s.12.037.147.094l.157.325.35.052c.062.01.114.054.133.115a.17.17 0 0 1-.042.172l-.253.253.06.357a.17.17 0 0 1-.065.165c-.03.022-.063.032-.097.032zm0 2.92a.16.16 0 0 1-.076-.02l-.313-.168-.313.168a.16.16 0 0 1-.173-.012c-.05-.038-.076-.102-.066-.165l.06-.357-.253-.253c-.045-.045-.06-.112-.042-.173s.07-.105.133-.114l.35-.052.157-.325c.027-.058.084-.094.147-.094s.12.036.147.094l.157.325.35.052c.062.01.114.054.133.114a.17.17 0 0 1-.042.173l-.253.253.06.357c.01.063-.015.127-.065.165-.03.02-.063.032-.097.032zm0 2.92c-.026 0-.052-.006-.076-.02l-.313-.17-.313.17a.16.16 0 0 1-.077.019.16.16 0 0 1-.096-.032c-.05-.038-.076-.102-.066-.165l.06-.357-.253-.253a.17.17 0 0 1-.042-.172c.02-.06.07-.106.133-.115l.35-.052.157-.325c.027-.057.084-.094.147-.094s.12.037.147.094l.157.325.35.052c.062.01.114.054.133.115a.17.17 0 0 1-.042.172l-.253.253.06.357c.01.063-.015.127-.065.165-.03.02-.063.032-.097.032zm-1.848-10.22a.16.16 0 0 1-.077-.02l-.313-.168-.313.168a.16.16 0 0 1-.076.02.16.16 0 0 1-.097-.033c-.05-.037-.076-.1-.065-.164l.06-.357-.253-.253c-.044-.045-.06-.112-.04-.173s.07-.105.133-.115l.35-.052.156-.325c.028-.057.085-.093.147-.093s.12.036.147.093l.157.325.35.052c.062.01.113.054.132.115s.003.128-.04.173l-.253.253.06.357c.01.063-.014.127-.065.164-.028.022-.062.033-.096.033zm0 2.92a.16.16 0 0 1-.077-.02l-.313-.17-.313.17a.16.16 0 0 1-.076.02c-.034 0-.068-.01-.097-.032-.05-.038-.076-.102-.065-.165l.06-.357-.253-.253c-.044-.045-.06-.112-.04-.173s.07-.105.133-.114l.35-.052.156-.325c.028-.058.085-.094.147-.094s.12.037.147.094l.157.325.35.052c.062.01.113.054.132.114s.003.128-.04.173l-.253.253.06.357a.17.17 0 0 1-.065.165.16.16 0 0 1-.096.032zm0 2.92a.16.16 0 0 1-.077-.019l-.313-.17-.313.17a.16.16 0 0 1-.076.02c-.034 0-.068-.01-.097-.032-.05-.037-.076-.1-.065-.164l.06-.357-.253-.253c-.044-.045-.06-.112-.04-.173s.07-.105.133-.115l.35-.052.156-.325c.028-.057.085-.093.147-.093s.12.036.147.093l.157.325.35.052c.062.01.113.054.132.115s.003.128-.04.173l-.253.253.06.357c.01.063-.014.127-.065.164a.16.16 0 0 1-.096.032zm0 2.93a.16.16 0 0 1-.077-.019l-.313-.17-.313.17a.16.16 0 0 1-.076.02c-.034 0-.068-.01-.097-.032-.05-.038-.076-.102-.065-.165l.06-.357-.253-.253a.17.17 0 0 1-.04-.173c.02-.063.07-.105.133-.114l.35-.052.156-.325c.028-.057.085-.094.147-.094s.12.037.147.094l.157.325.35.052c.062.01.113.054.132.114s.003.128-.04.173l-.253.253.06.357a.17.17 0 0 1-.065.165.16.16 0 0 1-.096.032z"/><path d="M247.612 176.9a.16.16 0 0 1-.077-.019l-.313-.17-.313.17a.16.16 0 0 1-.076.02c-.034 0-.068-.01-.097-.032a.17.17 0 0 1-.065-.165l.06-.357-.253-.252c-.044-.045-.06-.112-.04-.173s.07-.106.133-.115l.35-.052.156-.325c.028-.057.085-.094.147-.094s.12.037.147.094l.157.325.35.052c.062.01.113.054.132.115s.003.128-.04.173l-.253.252.06.357a.17.17 0 0 1-.065.165c-.028.022-.062.032-.096.032zm5.438-10.2c-.026 0-.052-.006-.076-.02l-.313-.168-.313.168a.16.16 0 0 1-.173-.012c-.05-.038-.076-.102-.066-.165l.06-.357-.253-.253c-.045-.045-.06-.112-.042-.173s.07-.105.133-.114l.35-.052.156-.325c.028-.058.085-.094.148-.094s.12.036.147.094l.157.325.35.052c.062.01.114.053.133.114s.003.128-.042.173l-.253.253.06.357c.01.063-.015.127-.066.165a.16.16 0 0 1-.096.032zm0 2.92c-.026 0-.052-.006-.076-.02l-.313-.17-.313.17a.16.16 0 0 1-.173-.012c-.05-.038-.076-.1-.066-.165l.06-.357-.253-.253a.17.17 0 0 1-.042-.172c.02-.06.07-.105.133-.115l.35-.052.156-.325c.028-.057.085-.094.148-.094s.12.037.147.094l.157.325.35.052c.062.01.114.054.133.115a.17.17 0 0 1-.042.172l-.253.253.06.357c.01.064-.015.127-.066.165-.028.022-.062.032-.096.032zm0 2.92a.16.16 0 0 1-.076-.02l-.313-.168-.313.168a.16.16 0 0 1-.173-.012c-.05-.038-.076-.102-.066-.165l.06-.357-.253-.253c-.045-.045-.06-.112-.042-.173s.07-.105.133-.114l.35-.052.156-.325c.028-.058.085-.094.148-.094s.12.036.147.094l.157.325.35.052c.062.01.114.054.133.114s.003.128-.042.173l-.253.253.06.357c.01.063-.015.127-.066.165a.16.16 0 0 1-.096.032z"/><path d="M253.05 175.45c-.026 0-.052-.006-.076-.02l-.313-.17-.313.17a.16.16 0 0 1-.173-.012c-.05-.038-.076-.102-.066-.165l.06-.357-.253-.253a.17.17 0 0 1-.042-.172c.02-.06.07-.106.133-.115l.35-.052.156-.325c.028-.057.085-.094.148-.094s.12.037.147.094l.157.325.35.052c.062.01.114.054.133.115a.17.17 0 0 1-.042.172l-.253.253.06.357c.01.063-.015.127-.066.165a.16.16 0 0 1-.096.032zm-1.85-10.22a.16.16 0 0 1-.076-.02l-.313-.168-.313.168a.16.16 0 0 1-.076.02.16.16 0 0 1-.097-.033c-.05-.037-.076-.1-.065-.164l.06-.357-.253-.253a.17.17 0 0 1-.041-.173c.02-.06.07-.105.132-.115l.35-.052.157-.325c.027-.057.085-.093.147-.093s.12.036.147.093l.157.325.35.052c.062.01.113.054.132.115a.17.17 0 0 1-.041.173l-.253.253.06.357c.01.063-.014.127-.065.164-.028.022-.062.033-.097.033zm0 2.92a.16.16 0 0 1-.076-.02l-.313-.17-.313.17a.16.16 0 0 1-.076.02c-.034 0-.068-.01-.097-.032a.17.17 0 0 1-.065-.165l.06-.357-.253-.253a.17.17 0 0 1-.041-.173c.02-.06.07-.105.132-.114l.35-.052.157-.325c.027-.058.085-.094.147-.094s.12.037.147.094l.157.325.35.052c.062.01.113.054.132.114a.17.17 0 0 1-.041.173l-.253.253.06.357a.17.17 0 0 1-.065.165c-.028.02-.062.032-.097.032zm0 2.92c-.026 0-.052-.006-.076-.02l-.313-.17-.313.17a.16.16 0 0 1-.076.02c-.034 0-.068-.01-.097-.032-.05-.037-.076-.1-.065-.164l.06-.357-.253-.253a.17.17 0 0 1-.041-.173c.02-.06.07-.105.132-.115l.35-.052.157-.325c.027-.057.085-.093.147-.093s.12.036.147.093l.157.325.35.052c.062.01.113.054.132.115a.17.17 0 0 1-.041.173l-.253.253.06.357c.01.063-.014.127-.065.164-.028.02-.062.032-.097.032z"/><path d="M251.2 174c-.026 0-.052-.006-.076-.02l-.313-.17-.313.17a.16.16 0 0 1-.076.02c-.034 0-.068-.01-.097-.032a.17.17 0 0 1-.065-.165l.06-.357-.253-.253c-.045-.044-.06-.1-.04-.173s.07-.105.132-.114l.35-.052.157-.325c.027-.057.085-.094.147-.094s.12.037.147.094l.157.325.35.052c.062.01.113.054.132.114a.17.17 0 0 1-.041.173l-.253.253.06.357a.17.17 0 0 1-.065.165c-.028.02-.062.032-.097.032zm0 2.9c-.026 0-.052-.006-.076-.02l-.313-.17-.313.17a.16.16 0 0 1-.076.02c-.034 0-.068-.01-.097-.032-.05-.037-.076-.1-.065-.165l.06-.357-.253-.252a.17.17 0 0 1-.041-.173c.02-.06.07-.106.132-.115l.35-.052.157-.325c.027-.057.085-.094.147-.094s.12.037.147.094l.157.325.35.052c.062.01.113.054.132.115a.17.17 0 0 1-.041.173l-.253.252.06.357a.17.17 0 0 1-.065.165c-.028.022-.062.032-.097.032zm5.44-10.2c-.026 0-.052-.006-.077-.02l-.313-.168-.313.168a.16.16 0 0 1-.076.02c-.034 0-.068-.01-.097-.032-.05-.038-.076-.102-.065-.165l.06-.357-.253-.253c-.045-.045-.06-.112-.042-.173s.07-.105.133-.114l.35-.052.156-.325c.028-.058.085-.094.147-.094s.12.036.148.094l.156.325.35.052c.062.01.114.053.133.114s.003.128-.042.173l-.253.253.06.357c.01.063-.015.127-.066.165a.16.16 0 0 1-.096.032zm0 2.92c-.026 0-.052-.006-.077-.02l-.313-.17-.313.17a.16.16 0 0 1-.076.02c-.034 0-.068-.01-.097-.032a.17.17 0 0 1-.065-.165l.06-.357-.253-.253a.17.17 0 0 1-.042-.172c.02-.06.07-.105.133-.115l.35-.052.156-.325c.028-.057.085-.094.147-.094s.12.037.148.094l.156.325.35.052c.062.01.114.054.133.115a.17.17 0 0 1-.042.172l-.253.253.06.357c.01.064-.015.127-.066.165-.028.022-.062.032-.096.032zm0 2.92c-.026 0-.052-.007-.077-.02l-.313-.168-.313.168a.16.16 0 0 1-.076.02c-.034 0-.068-.01-.097-.032-.05-.038-.076-.102-.065-.165l.06-.357-.253-.253c-.045-.045-.06-.112-.042-.173s.07-.105.133-.114l.35-.052.156-.325c.028-.058.085-.094.147-.094s.12.036.148.094l.156.325.35.052c.062.01.114.054.133.114s.003.128-.042.173l-.253.253.06.357c.01.063-.015.127-.066.165a.16.16 0 0 1-.096.032zm0 2.92c-.026 0-.052-.006-.077-.02l-.313-.17-.313.17a.16.16 0 0 1-.076.02c-.034 0-.068-.01-.097-.032-.05-.038-.076-.102-.065-.165l.06-.357-.253-.253a.17.17 0 0 1-.042-.172c.02-.06.07-.106.133-.115l.35-.052.156-.325c.028-.057.085-.094.147-.094s.12.037.148.094l.156.325.35.052c.062.01.114.054.133.115a.17.17 0 0 1-.042.172l-.253.253.06.357c.01.063-.015.127-.066.165a.16.16 0 0 1-.096.032zm-1.847-10.22a.16.16 0 0 1-.076-.02l-.313-.168-.313.168a.16.16 0 0 1-.077.02c-.034 0-.068-.01-.096-.033a.17.17 0 0 1-.066-.164l.06-.357-.253-.253c-.045-.045-.06-.112-.042-.173s.07-.105.133-.115l.35-.052.157-.325c.027-.057.084-.093.147-.093s.12.036.147.093l.157.325.35.052c.06.01.113.054.132.115s.003.128-.042.173l-.253.253.06.357c.01.063-.015.127-.065.164a.16.16 0 0 1-.097.033zm0 2.92a.16.16 0 0 1-.076-.02l-.313-.17-.313.17a.16.16 0 0 1-.173-.012c-.05-.038-.076-.102-.066-.165l.06-.357-.253-.253c-.045-.045-.06-.112-.042-.173s.07-.105.133-.114l.35-.052.157-.325c.027-.058.084-.094.147-.094s.12.037.147.094l.157.325.35.052c.06.01.113.054.132.114s.003.128-.042.173l-.253.253.06.357c.01.063-.015.127-.065.165-.03.02-.063.032-.097.032zm0 2.92c-.026 0-.052-.006-.076-.02l-.313-.17-.313.17a.16.16 0 0 1-.173-.012.17.17 0 0 1-.066-.164l.06-.357-.253-.253c-.045-.045-.06-.112-.042-.173s.07-.105.133-.115l.35-.052.157-.325c.027-.057.084-.093.147-.093s.12.036.147.093l.157.325.35.052c.06.01.113.054.132.115s.003.128-.042.173l-.253.253.06.357c.01.063-.015.127-.065.164-.03.02-.063.032-.097.032zm0 2.93c-.026 0-.052-.006-.076-.02l-.313-.17-.313.17a.16.16 0 0 1-.173-.012c-.05-.038-.076-.102-.066-.165l.06-.357-.253-.253c-.045-.044-.06-.1-.042-.173s.07-.105.133-.114l.35-.052.157-.325c.027-.057.084-.094.147-.094s.12.037.147.094l.157.325.35.052c.06.01.113.054.132.114s.003.128-.042.173l-.253.253.06.357c.01.063-.015.127-.065.165-.03.02-.063.032-.097.032z"/><path d="M254.793 176.9c-.026 0-.052-.006-.076-.02l-.313-.17-.313.17a.16.16 0 0 1-.173-.012.17.17 0 0 1-.066-.165l.06-.357-.253-.252c-.045-.045-.06-.112-.042-.173s.07-.106.133-.115l.35-.052.157-.325c.027-.057.084-.094.147-.094s.12.037.147.094l.157.325.35.052c.06.01.113.054.132.115s.003.128-.042.173l-.253.252.06.357a.17.17 0 0 1-.065.165c-.03.022-.063.032-.097.032zm3.587-11.67a.16.16 0 0 1-.076-.02l-.313-.168-.313.168a.16.16 0 0 1-.076.02c-.035 0-.068-.01-.097-.033a.17.17 0 0 1-.066-.164l.06-.357-.253-.253c-.045-.045-.06-.112-.042-.173s.07-.105.133-.115l.35-.052.156-.325c.028-.057.085-.093.148-.093s.12.036.147.093l.157.325.35.052c.062.01.114.054.133.115s.003.128-.042.173l-.253.253.06.357c.01.063-.015.127-.065.164a.16.16 0 0 1-.097.033zm0 2.92a.16.16 0 0 1-.076-.02l-.313-.17-.313.17a.16.16 0 0 1-.076.02c-.035 0-.068-.01-.097-.032-.05-.038-.076-.102-.066-.165l.06-.357-.253-.253c-.045-.045-.06-.112-.042-.173s.07-.105.133-.114l.35-.052.156-.325c.028-.058.085-.094.148-.094s.12.037.147.094l.157.325.35.052c.062.01.114.054.133.114s.003.128-.042.173l-.253.253.06.357c.01.063-.015.127-.065.165-.03.02-.063.032-.097.032zm0 2.92c-.026 0-.052-.006-.076-.02l-.313-.17-.313.17a.16.16 0 0 1-.076.02c-.035 0-.068-.01-.097-.032a.17.17 0 0 1-.066-.164l.06-.357-.253-.253c-.045-.045-.06-.112-.042-.173s.07-.105.133-.115l.35-.052.156-.325c.028-.057.085-.093.148-.093s.12.036.147.093l.157.325.35.052c.062.01.114.054.133.115s.003.128-.042.173l-.253.253.06.357c.01.063-.015.127-.065.164-.03.02-.063.032-.097.032zm0 2.93c-.026 0-.052-.006-.076-.02l-.313-.17-.313.17a.16.16 0 0 1-.076.02c-.035 0-.068-.01-.097-.032-.05-.038-.076-.102-.066-.165l.06-.357-.253-.253c-.045-.044-.06-.1-.042-.173s.07-.105.133-.114l.35-.052.156-.325c.028-.057.085-.094.148-.094s.12.037.147.094l.157.325.35.052c.062.01.114.054.133.114s.003.128-.042.173l-.253.253.06.357c.01.063-.015.127-.065.165-.03.02-.063.032-.097.032zm0 2.9c-.026 0-.052-.006-.076-.02l-.313-.17-.313.17a.16.16 0 0 1-.076.02c-.035 0-.068-.01-.097-.032a.17.17 0 0 1-.066-.165l.06-.357-.253-.252c-.045-.045-.06-.112-.042-.173s.07-.106.133-.115l.35-.052.156-.325c.028-.057.085-.094.148-.094s.12.037.147.094l.157.325.35.052c.062.01.114.054.133.115s.003.128-.042.173l-.253.252.06.357a.17.17 0 0 1-.065.165c-.03.022-.063.032-.097.032z"/></g></g><g class="C E"><path d="M667.1 158.4l-2.4-1.9-5.5-2.4-2.5 1.7-4.7 1.1-.1-2.1-4.9-1.4-.2-2.3-3 .9-3.6-.8.4 3.4 1.2 2.2-3 3-1-1.3-3.9.3-.9 1.3 1 2-1 5.6-1.1 2.3H629l1.1 6.4-.4 4.2 1 1.4-.2 2.7 2.4 1.6 7.1 1.2-2.3 4.2-.5 4.5h4.2l1-1.4 5.4 1.9 1.5-.3 2.6 1.7.6-1.6 4.4.3 3.4-1.2 2.4.2 1.7 1.3.4-1.1-1-4 1.7-.8 1.5-2.9-2.9-2.6-2.6-1.5-.7-2.6-1-1.9 3.4-1.3 1.7-1.5 3.4-1.2 1.1-1.2 1.4.7 2.1-.6-2.3-3.9.1-2.1-1.4-3.3-2-2.2 1.2-1.6-1.4-3.1z" stroke="#fff" class="F"/><path d="M629 170h2.9l1.1-2.3 1-5.6-1-2-3.9-.2-6.5 2.6-3.9 8.9-7.2 3.2 2 2.5 8.5 6 9 2.5-.9-9.2-1.1-6.4z"/></g><g class="B"><path d="M629 170v-.5a.5.5 0 0 0-.493.585L629 170zm2.9 0v.5a.5.5 0 0 0 .451-.284l-.45-.216zm1.1-2.3l.45.216c.02-.04.034-.084.04-.128L633 167.7zm1-5.6l.492.088c.02-.106.004-.215-.045-.312l-.447.224zm-1-2l.447-.224c-.08-.16-.24-.266-.42-.275l-.026.5zm-3.9-.2l.026-.5a.5.5 0 0 0-.212.035l.186.464zm-6.5 2.6l-.186-.464a.5.5 0 0 0-.272.263l.458.2zm-3.9 8.9l.203.457a.5.5 0 0 0 .255-.256l-.458-.2zm-7.2 3.2l-.203-.457a.5.5 0 0 0-.187.769l.4-.312zm2 2.5l-.4.312c.03.037.063.07.102.097l.288-.41zm8.5 6l-.288.41a.52.52 0 0 0 .154.073l.134-.482zm9 2.5l-.134.482a.5.5 0 0 0 .632-.531l-.498.05zm-.9-9.2l.498-.05c-.001-.012-.003-.024-.005-.036l-.493.085zm-1.1-5.9h2.9v-1H629v1zm3.35-.284l1.1-2.3-.902-.432-1.1 2.3.902.432zm1.14-2.428l1-5.6-.984-.176-1 5.6.984.176zm.955-5.912l-1-2-.894.448 1 2 .894-.448zm-1.42-2.275l-3.9-.2-.05.998 3.9.2.05-.998zm-4.112-.165l-6.5 2.6.372.928 6.5-2.6-.372-.928zm-6.772 2.863l-3.9 8.9.916.402 3.9-8.9-.916-.402zm-3.645 8.644l-7.2 3.2.406.914 7.2-3.2-.406-.914zm-7.386 3.97l2 2.5.78-.624-2-2.5-.78.624zm2.102 2.597l8.5 6 .576-.817-8.5-6-.576.817zm8.654 6.073l9 2.5.268-.964-9-2.5-.268.964zm9.632 1.97l-.9-9.2-.995.098.9 9.2.996-.098zm-.906-9.236l-1.1-6.4-.986.17 1.1 6.4.986-.17z"/><path d="M621.217 171.8l-1.717 1.5-1.717-1.5C603.34 159.2 596 148.18 596 138.5c0-13.707 10.698-23.5 23.5-23.5s23.5 9.793 23.5 23.5c0 9.68-7.34 20.7-21.783 33.3z" class="C"/></g><mask id="C" mask-type="alpha" maskUnits="userSpaceOnUse" x="601" y="119" width="36" height="36"><circle cx="619" cy="137" r="18" class="D"/></mask><g mask="url(#C)"><path d="M647.262 131.027H592.18V119.95a.95.95 0 0 1 .949-.95h53.183a.95.95 0 0 1 .95.95v11.077z" fill="#ff4b55"/><path d="M646.312 155.08H593.13a.95.95 0 0 1-.949-.949v-11.078h55.082v11.078a.95.95 0 0 1-.95.949z" fill="#41479b"/><path d="M647.262 131.027H592.18v12.027h55.082v-12.027z" class="B"/><path d="M633.393 131.027H605.17v12.107h28.223v-12.107z" fill="#151515"/><path d="M618.24 123.513l-.128.055-.058.03c-.088.05-.223.136-.328.32l-.063.1a.46.46 0 0 1-.121.12.55.55 0 0 1-.157.064.99.99 0 0 0-.279.122l-.433.28c-.09.072-.176.078-.212.167a.33.33 0 0 0-.019.123c0 .06.023.117.055.162s.07.076.105.094c.014.008.018.1.018.155v.077a.43.43 0 0 0 .03.157c.03.08.086.148.156.204a.73.73 0 0 0 .305.14.74.74 0 0 0 .244.011l.057-.01c-.002.042-.005.07.01.112a.3.3 0 0 0 .021.047 1.25 1.25 0 0 0 .286.32l-.658.027-.426-.033c-.23-.03-.385-.09-.557-.21l-.126-.1a.62.62 0 0 1-.052-.05.59.59 0 0 1-.153-.483c.03-.136.118-.26.082-.343l-.048.022c-.246.12-.543.42-.568.696-.065.814.323 1.017.715 1.14.25.078.458.1.67.107h.22l.1-.003c.12-.004.265-.013.43-.053l.073-.02a.35.35 0 0 1 .259-.001l-.073.097a2.25 2.25 0 0 0-.128.209l-.06.114-.052.104-.06.124-.122.223-.07.107-.084.11c0 .006.004.012.012.017.02.014.068.022.12.026.073.006.154.005.178.005.046 0 .1-.013.135-.03l.1-.04c.13-.043.254-.048.35-.043.05.002.07.015.08.03.007.02.006.03.008.033.017.035.078.013.074.08a.42.42 0 0 1-.02.094l-.057.06-.285.287-.066.068c-.206.206-.547.485-.794.232-.162-.167.136-.44.046-.483-.016-.008-.046-.008-.094.003-.266.048-.464.168-.605.325l-.154-.195-.265-.36c-.08-.106-.162-.208-.25-.298l-.134-.13-.795-.75-.298-.29-.697-.68-.036-.04a7.31 7.31 0 0 1-.638-.927l-.035-.073c-.07-.175-.117-.338.017-.546a1.43 1.43 0 0 0 .102-.18.73.73 0 0 0 .045-.119.85.85 0 0 0 .045-.188l.013-.142c.01-.106-.02-.242-.065-.326-.017-.033-.04-.065-.068-.097l-.024-.03c.03-.068.06-.14.08-.223.103-.354.097-.784-.15-.942l-.2-.13-.06.232c-.008.032-.02.053-.057.113l-.062.105c-.03.054-.1.11-.17.167l-.098.08c-.036-.018-.074-.034-.114-.047l-.064-.018-.06-.01-.066-.006c-.03-.001-.044 0-.056.001a.3.3 0 0 0-.058.01c-.028.01-.04.014-.05.02a.52.52 0 0 0-.081.054.86.86 0 0 0-.131.138c-.007-.028-.015-.055-.025-.08l-.007-.02-.02-.053-.013-.03-.02-.04c-.005-.01-.01-.02-.017-.032l-.02-.032-.02-.034-.018-.026-.027-.034a.13.13 0 0 0-.015-.018l-.033-.037a.88.88 0 0 0-.566-.253c-.04-.058-.088-.116-.145-.176a1.22 1.22 0 0 0-.687-.341c-.027-.003-.068-.006-.116-.006-.076 0-.143.01-.2.025l-.25.073.163.204c.072.09.225.302.278.533l-.034.024-.017.014-.017.015-.02.018-.034.034-.08.095-.027.037c-.003.006-.007.01-.01.017l-.015.024c-.003.007-.007.013-.01.02s-.01.015-.013.023l-.012.026c-.006.01-.01.02-.015.033s-.007.017-.01.025l-.008.02c-.002.008-.005.015-.007.023s-.005.014-.006.02l-.005.023c-.002.008-.004.014-.004.02s-.003.016-.003.024c-.022.218-.02.426-.014.63l-.068.025-.02.01a.64.64 0 0 0-.048.021l-.02.01-.047.027-.072.046c-.007.005-.014.012-.02.017l-.03.025-.026.024v.02l-.028.03c-.014.002-.026 0-.038 0-.14 0-.278.04-.437.12-.09.046-.268.177-.348.294l-.083.12.102.103a6.27 6.27 0 0 0 .463.316l.048.028c.005.012.004.02.004.03l-.002.056v.035l.001.027.002.03.003.027.003.028.005.025.004.026.006.024c.003.008.005.017.007.025s.005.016.007.023l.01.025.008.02c.006.015.012.03.02.043.003.007.006.014.01.02l.012.023c.004.008.01.015.013.022l.028.044.015.023.015.02.018.024c.005.007.01.012.015.018l.028.036.047.054c.102.112.318.186.536.207.136.013.272.006.38-.026.037-.01.077-.037.117-.068l.034-.03c.007.02.016.038.026.057.033.056.078.104.124.156a.43.43 0 0 0 .089.076c.066.044.147.08.245.14l-.018.01-.053.03-.065.045-.024.018-.033.028-.02.02c-.01.01-.02.02-.028.03s-.013.013-.018.02a.39.39 0 0 0-.025.032l-.015.02-.024.038-.034.07-.02.058c-.003.008-.004.016-.006.023s-.006.024-.01.036l-.006.026c-.003.012-.004.023-.006.035l-.004.028c-.002.012-.002.024-.004.037l-.001.027-.002.042-.001.024.001.067.003.066a.37.37 0 0 0-.025.034c-.048.072-.138.147-.24.2-.092.05-.177.076-.194.08l-.365.084.297.225c.055.04.342.217.65.262a1.11 1.11 0 0 0 .176.015.71.71 0 0 0 .189-.024.32.32 0 0 0 .042.03l.044.026.053.022c.03.01.048.012.07.015.03.002.058 0 .086-.001a.84.84 0 0 0 .167-.026l.062-.02c.006-.003.013-.004.02-.008.014-.005.028-.01.04-.017l.06-.034c.05-.035.093-.092.138-.154l.126-.17c.118.157.3.325.358.472.008.025.013.043.016.062.015.097.04.28-.06.36-.014.012-.03.02-.05.027-.195.066-.287-.138-.378-.188-.085.214-.046.32.02.5.01.026.033.057.064.09a1.45 1.45 0 0 0 .368.255c.052.025.098.042.127.044-.2.16-.284.427-.336.718l-.024.15-.016.132c-.007.12.027.168.167.074l.02-.014c.317-.218.33-.27.455-.12l.118.145.072.08a4.26 4.26 0 0 0 .356.346c.113.098.375.124.462.142a2.91 2.91 0 0 0-.107.369l-.028.142c-.016.1-.053.808.09.605.006-.008.012-.017.018-.03l.02-.03a.57.57 0 0 1 .077-.089.38.38 0 0 1 .037-.033c.01-.008.02-.015.03-.022.05-.038.104-.068.156-.086.227-.07.467-.167.515-.105-.13.242-.223.37-.223.687a2.11 2.11 0 0 0 .027.304l.048.185.04.123c-.085.04-.194.097-.316.168l-1.405.867c-.45.26-1.157.753-1.808.537l-.042-.017-.045-.025-.04-.03c-.018-.015-.027-.024-.036-.034l-.032-.034-.028-.034c-.105-.132-.2-.292-.472-.35a.53.53 0 0 0-.097-.203c-.185-.244-.54-.295-.805-.295a1.49 1.49 0 0 0-.306.027l-.255.064.16.21c.02.026.037.042.05.054s.04.037.12.193c.02.037.04.08.058.123.003.006.005.013.01.02l-.053.03-.028.018-.036.025-.02.017c-.02.017-.042.036-.06.055l-.025.025c-.008.01-.016.02-.024.03s-.015.02-.023.03-.014.02-.02.03l-.022.036-.016.027a.5.5 0 0 0-.029.062l-.024.07-.016.07c-.002.007-.003.014-.003.02-.003.018-.004.034-.005.05-.001.04 0 .062.003.083s.008.045.014.067l.023.062.01.02c.004.007.007.013.01.02l.016.022c.023.03.038.048.055.064a.68.68 0 0 0-.318.189c-.04.04-.08.083-.12.128-.01.013-.02.025-.027.04s-.016.03-.02.04l-.016.05-.007.043c-.06.02-.12.046-.18.08a1.48 1.48 0 0 0-.539.66l-.002.006c-.014.05-.053.22-.047.35l.015.308.254-.17c.086-.058.34-.138.596-.138.018.02.02.036.025.05.006.024.01.04.016.052a.25.25 0 0 0 .023.041.4.4 0 0 0 .03.041.68.68 0 0 0 .074.069l.04.032.058.043a1.02 1.02 0 0 0 .324.114l.05.013c.038.01.07.023.097.038l.044.026.012.08.007.03c.008.035.02.07.032.106l.012.03.013.03.016.034.012.023.03.053c-.107.413.19.918.264.996l.213.226.08-.3c.01-.035.02-.053.158-.26.022-.033.06-.067.1-.104l.056-.054.078.027.02.005c.068.012.2.008.3-.01l.12-.024c.122-.027.23-.066.32-.14.017-.013.033-.028.05-.043.24-.254.338-.38.364-.657l.008-.253.186-.01.12-.01.06-.005.07-.012a.55.55 0 0 0 .211-.096c.007-.004.014-.01.02-.014a.2.2 0 0 0 .019.042c.074.13.18.22.22.26l.025.02.022.015c.016.01.02.013.025.016l.026.014.032.018.032.016.02.01.067.03c.02.08.02.18.02.276v.1l-.006.038-.04.264.255-.07c.018-.006.038-.01.058-.013.13-.027.327-.065.5-.34.037-.06.1-.176.13-.316l.068-.036.03-.02.032-.022c.018-.014.028-.022.037-.032s.02-.02.028-.03l.028-.04.027-.048c.072-.15.082-.35.07-.516-.003-.057.001-.084.01-.103.015-.03.045-.04.084-.044l.097-.01.044-.01c.318-.066.42-.112.52-.066.192.097.118.493-.056.594a.96.96 0 0 0 .203-.072l.094-.047c.018-.01.035-.022.05-.033.143-.103.21-.25.264-.322.02-.026.04-.042.06-.04.043 0 .043-.005.078.026.006.006.01.013.014.02.007.015.01.023.01.032.003.014.003.02.003.025.002.017.002.034 0 .05v.068c-.001.044-.003.096.007.16.042.255.295.678.456.758.024.012.045.016.063.013l.004-.223v-.064l.013-.273c.006-.064.008-.14.023-.207.01-.04.022-.074.043-.102.08-.1.288-.194.376-.268l.284-.243.03.084c.037.094.08.184.14.264l.024.03.023.028.048.047c.075.066.463.388.52.208-.192-.362-.196-.758-.066-.855l.292-.22c.24.288 1.224 1.014 1.525 1.2.16.092 1.245.955 1.336 1.048-.158-.02-.36-.034-.524-.042l-.197-.007c-.024 0-.037.005-.04.015-.008.022.04.07.1.13l.198.172a6.49 6.49 0 0 1 .424.431l.073.083c.127.14.298.33.337.49.002.008.004.016.007.023l-.08-.015-.067-.012c-.08-.018-.224-.035-.336-.047l-.08-.01-.335-.026-.446-.014a6.68 6.68 0 0 0-.47.005l-.316.02-.69.073c-.187.013-.41.062-.636.095l-.176.022-.042.003c-.177.013-.342.004-.483-.054-.203-.083-.445-.214-.445-.444l.003-.04.01-.04.017-.037.02-.027c.025-.028.038-.04.054-.052l.06-.04.066-.038.043-.025c-.12-.104-.382-.09-.556-.06-.033.006-.064.015-.096.023-.098.03-.2.072-.293.122-.09.046-.208.162-.298.287a.82.82 0 0 0-.117.218.25.25 0 0 0-.013.072c0 .114.026.28 0 .3-.022.013-.06-.004-.11-.013l-.092-.007-.104-.004-.118-.001-.204.004c-.012.001-.025.001-.037.001l-.053.002c-.183.007-.373.08-.552.173l-.383.22c-.024.012-.07.045-.13.09l-.02.016-.018.015c-.26.2-.7.625-.78.827l-.007.025c-.004.018.005.073.028.08.527-.24 1.273-.283 1.85-.164l.372.06.555.057.208.028c.032.062.01.124-.027.2-.03.05-.068.103-.104.16-.02.03-.038.06-.052.09l-.084.197-.148.433a.52.52 0 0 0-.014.053c-.054.196-.082.385-.136.613l-.082.3a.21.21 0 0 1-.013.035c-.106.265-.408.422-.94.497l-.142.02-.166.012c-.084.004-.16.002-.238-.005l-.075-.003c-.247-.013-.412-.022-.428-.282a2.03 2.03 0 0 0-.028-.231 1.39 1.39 0 0 0-.112-.375l-.035-.064-.038-.056a1 1 0 0 0-.089-.111c-.078-.084-.165-.146-.263-.17-.17-.397-.733-.66-.9-.693l-.25-.047.05.252.028.135c.014.067.014.067.014.093l.003.08.001.022c.004.103.006.167-.01.378l-.028.02c-.01.01-.015.012-.02.017-.047.045-.09.114-.13.177l-.028.048c-.006.01-.01.018-.016.027a1.18 1.18 0 0 0-.066.189l-.042-.018-.05-.02a.45.45 0 0 0-.187-.049l-.074.005h-.02l-.06.01-.072.02-.055.024c-.025.013-.04.023-.055.033-.04.028-.07.054-.097.084l-.048.054-.076-.007h-.014a1.5 1.5 0 0 0-.743.257l-.002.002-.004.003c-.026.022-.095.087-.16.198l-.14.242.278.02a.84.84 0 0 1 .491.164l.005.15.004.05.003.03.014.082c.001.007.003.015.005.023l.02.078.032.094c.002.007.005.014.008.02.01.028.024.056.038.083.117.23.3.396.696.366-.015.025-.028.052-.04.078-.032.067-.054.13-.057.168-.008.112-.007.21.008.3-.162.332-.105.775-.096.83l.043.288.232-.175c.048-.036.062-.044.223-.125l.07-.035a.43.43 0 0 1 .048-.021c.01.012.022.022.032.03.025.022.036.03.048.038l.052.032.02.01.038.017c.006.003.013.005.02.007l.038.014c.008.002.016.003.024.006l.04.01.027.005.056.007a.37.37 0 0 0 .047.003c.01.001.018 0 .026 0h.044c.01 0 .017-.002.027-.002l.044-.005.025-.003.045-.01.024-.005.046-.013c.007-.002.015-.004.02-.007l.047-.016c.006-.003.013-.005.02-.008l.05-.024.072-.04a.46.46 0 0 0 .054-.045c.118-.113.202-.3.335-.387.148-.1.312-.1.455-.078-.002.025-.002.05-.001.075a.34.34 0 0 0 .009.065c.018.066.065.198.127.256l.026.024.065.063.067.063c-.005.056-.004.112.008.184.015.088-.005.2-.023.307l-.003.013-.013.067a.48.48 0 0 0-.031.066l-.1.264.28-.028c.175-.018.405-.072.633-.333a1.23 1.23 0 0 0 .188-.281c.013-.004.026-.01.04-.015.027-.012.045-.022.062-.033l.05-.034c.006-.004.012-.01.017-.014s.02-.017.028-.025.013-.012.02-.018.017-.017.024-.025l.02-.02.02-.026c.005-.008.01-.015.017-.023l.02-.03c.005-.007.01-.015.014-.023.01-.013.016-.027.025-.042l.016-.032.016-.033.01-.028c.005-.01.008-.02.012-.03l.01-.03.008-.03.01-.03.007-.028.007-.03.004-.026.004-.032.005-.054.036-.004.054-.01.054-.016a.42.42 0 0 0 .051-.024l.053-.033a2.02 2.02 0 0 0 .436.537 1.62 1.62 0 0 0 .541.327c.1.034.196.054.3.058l-.093-.132c-.135-.19-.308-.45-.308-.604.028.013.056.028.085.045.096.056.2.124.316.175.092.043.2.06.3.055l.08-.006c.078-.01.2-.07.257-.097l-.21-.173-.127-.12-.1-.1a.7.7 0 0 1-.069-.08c-.02-.03-.04-.06-.044-.074l.04-.008.044-.007.036-.004c.01-.002.02-.003.03-.004s.018-.001.027-.002l.036-.002.78-.01h.04l.065-.003c.07-.002.138-.047.193-.073.025-.013.047-.02.065-.02l.054-.002.25-.014.054-.007a1.06 1.06 0 0 0 .124-.028l.073-.02c.01-.004.026-.008.04-.012l.138-.038.052-.017c0-.028-.015-.06-.038-.095-.04-.057-.097-.113-.148-.16l-.053-.05a.85.85 0 0 1-.111-.12c-.098-.13-.164-.303-.174-.527-.006-.094-.006-.16-.002-.225l.006-.084c0-.04.013-.14.022-.18l.05-.266.07-.262.042-.154c.02-.062.03-.136.037-.212.01-.125.01-.25.01-.324.82-.034 2.134-.165 2.896-.504l-.15.75-.015.084-.033.167c-.08.385-.195.807-.408 1.05-.07.077-.282.2-.472.256-.07.02-.136.032-.19.03-.192-.008-.337-.374-.49-.3-.066.4.014.804.417.985a1.31 1.31 0 0 0 .517.098.27.27 0 0 0 .04-.003l.11-.018.03-.003c.018.002.02.003.022.004.036.035-.036.1-.085.175l-.03.052c-.022.047-.043.107-.063.178-.118.426-.167 1.23.046 1.59.007.01.37.713.504.683.037-.023.05-.07.05-.154 0-.487.113-.965.4-1.338.046-.062.096-.122.152-.177.082-.083.16-.2.236-.336.08-.146.154-.315.22-.495l.193.256.03.038.23.277.093.106c.305.326.31.445.052.885-.13.22-.362.53-.603.876s-.528.608-.825.657a.54.54 0 0 1-.1.005c-.155-.007-.34-.067-.533-.045l-.077.013c-.01.002-.018.005-.027.007l-.04.013c-.01.003-.02.007-.028.012s-.023.01-.034.015-.017.01-.026.015-.02.013-.03.02-.016.01-.022.016-.02.017-.03.026-.01.01-.017.017c-.013.012-.024.025-.035.04l-.047.066a.86.86 0 0 0-.171-.019c-.45 0-.927.39-.988.695l-.048.244.244-.037.188-.022a.33.33 0 0 1 .054.005.79.79 0 0 0 .09.013c.024.003.038.01.08.033.057.03.13.07.256.1l.001.062.001.022a.41.41 0 0 0 .006.049l.005.025.01.034.02.05.027.053c.056.1.132.12.1.193a.2.2 0 0 1-.027.052l-.114.178a.61.61 0 0 0-.08.298c0 .066.01.127.026.183l.022.063.04.102-.033.06c-.1.204-.115.612-.06.812l.002.008c.02.056.064.13.135.232l.166.244.13-.263c.076-.156.168-.253.353-.397.016.01.033.018.05.026.026.012.043.02.06.024l.067.018.07.013c.006 0 .013.001.02.001l.055.004h.076c.072-.003.134-.012.195-.026.01-.003.02-.004.03-.007l.04-.012.036-.01.037-.013.036-.014.034-.014.036-.017c.01-.006.02-.01.032-.016l.033-.02.028-.018c.01-.006.02-.014.03-.02l.025-.018.03-.027.017-.014c.042-.04.08-.096.12-.152l.05-.07a.84.84 0 0 1 .075-.093c.016-.018.036-.02.057-.01.046.018.096.08.126.107.005.005.01.01.018.016l.02.016c.05.2.16.41.34.636l.01.012.21.27.093-.33a.45.45 0 0 1 .08-.132l.108-.16c.02-.03.045-.06.072-.1.045-.052.096-.112.134-.188l.05-.012.05-.015.02-.007c.01-.003.02-.007.028-.01l.02-.01a.16.16 0 0 0 .027-.012c.007-.003.014-.007.02-.01s.016-.01.025-.013l.02-.013.024-.014.02-.014.022-.015.02-.015c.008-.006.015-.01.02-.018a.28.28 0 0 0 .02-.016l.022-.02.018-.016.024-.024.027-.028.02-.024.016-.02.018-.022.016-.022.015-.022.015-.023a.27.27 0 0 0 .014-.022l.015-.024.013-.023.013-.025c.004-.007.008-.015.01-.023l.012-.026c.004-.008.007-.015.01-.023l.012-.028c.002-.008.004-.016.008-.023l.01-.028c.002-.008.004-.015.007-.022.01-.038.02-.078.026-.118l.007-.052c.001-.006.001-.013.002-.02s.001-.023.002-.034v-.02-.035c0-.007 0-.013-.001-.02s0-.024-.002-.037l-.006-.056-.01-.057-.013-.057c-.01-.04-.02-.073-.035-.11-.025-.064-.1-.132-.2-.186.05-.033.096-.078.127-.103l.02-.014a.65.65 0 0 0 .142-.174l.13.06c.038.015.07.025.104.03.053.01.1.013.176.005l.096-.01h.01l.04-.006.023-.002.06-.012c.044-.01.093-.025.137-.042.032.054.067.1.1.142l.065.09.134.195.147-.187c.12-.15.177-.238.196-.572.01-.23-.058-.44-.19-.58a.36.36 0 0 0-.02-.018l-.004-.028-.003-.022a.91.91 0 0 0-.088-.167c-.01-.013-.016-.024-.016-.035l.006-.02c.01-.015.012-.016.013-.017l.02-.017a.14.14 0 0 1 .018-.012l.03-.016.036-.017.036-.015.025-.01.04-.014.144-.046.03-.01.03-.01c.02-.007.044-.017.068-.028.056-.027.12-.066.172-.108.04-.032.074-.065.097-.098.01-.013.016-.026.02-.04.004-.004.015-.03.013-.033-.018-.002-.085-.014-.146-.03-.03-.007-.06-.016-.08-.024-.008-.004-.015-.008-.02-.01.004-.001.01-.003.022-.008l.398-.187c.01-.007.015-.01.017-.012.074-.066.14-.145.184-.206.035-.044.06-.053.04-.097-.004-.008-.03-.018-.06-.022l-.25-.022-.153-.01-.023-.002-.027-.004-.022-.005-.026-.007-.02-.008-.02-.013c-.017-.027-.005-.04.014-.055.045-.03.133-.054.155-.066a.97.97 0 0 0 .171-.112 1.06 1.06 0 0 0 .118-.113c.053-.057.08-.105.118-.167.01-.018.035-.08.043-.11.106-.018.326-.22.445-.403a.64.64 0 0 0 .067-.129c.015-.047.02-.066.017-.09-.01-.04-.027-.035-.06-.03-.083.01-.205.062-.27.066-.014.001-.027 0-.038 0s-.024-.003-.03-.004l-.022-.008c-.014-.013-.015-.015-.016-.017-.004-.02-.004-.024-.003-.028l.007-.022.013-.025.018-.028c.05-.07.13-.15.203-.237.013-.128.122-.24.188-.33.144-.207.205-.3.214-.47 0-.05.008-.09-.036-.12-.022-.013-.052-.018-.087-.018l-.15.016-.03.003-.03.003-.107.02-.055.007c-.04.004-.106.002-.162-.005-.018-.001-.034-.004-.048-.008-.262-.035-.768-.445-.9-.625-.103-.136-.6-.547-.82-.638-.014-.006-.028-.01-.04-.013.107-.932.142-2.044.074-3.07a5.38 5.38 0 0 0 .978 1.172l1.515 1.303c.288.3.527.583.716.918a3.4 3.4 0 0 1 .267.602c.013.045.023.092.032.14.053.283.046.594.046.9 0 .108-.08.41-.02.46.023.02.068.004.148-.078a2.9 2.9 0 0 0 .567-.779l.106-.208c.047-.102.094-.242.127-.377.023-.092.04-.18.043-.247.001-.013.001-.026.001-.04l.002-.328-.002-.066c-.004-.064-.02-.14-.04-.215l-.07-.256.001-.022.003-.022c.01-.02.016-.026.023-.03.015-.004.018-.003.02-.003l.023.004c.022.01.03.013.036.018l.018.01.058.04c.08.053.22.1.342.128.07.016.133.026.173.026l.16-.002.374-.024c.37-.035.733-.12 1.056-.277.14-.07.297-.14.402-.252.03-.03.055-.06.082-.1l.064-.07a.31.31 0 0 0 .035-.043l.016-.033.04-.077c-.033-.008-.063-.005-.093 0-.04.007-.08.016-.124.018h-.023a4.27 4.27 0 0 1-.547-.065 7.5 7.5 0 0 1-1-.26l-.117-.04-.02-.012c-.012-.012-.013-.015-.014-.017.001-.02.002-.023.003-.026l.01-.018c.038-.053.146-.12.26-.185l.254-.137.032-.018.05-.03c.153-.123.236-.25.32-.4.027-.048.11-.223.167-.348l.052-.124c.02-.068.083-.206.107-.3l.006-.025.003-.02c.01-.076.007-.125-.02-.138-.034-.015-.1.005-.157.045-.113.067-.26.187-.398.288l-.17.112c-.06.034-.137.07-.22.106a5.65 5.65 0 0 1-.571.211 1.28 1.28 0 0 0-.27.131l-.11.074-.02.015c.026-.215.14-.493.183-.69.058-.232.058-.436.054-.66a1.55 1.55 0 0 0 .424-.268 2.04 2.04 0 0 0 .24-.244 1.43 1.43 0 0 0 .088-.121c.122-.18.305-.495.268-.647a2.85 2.85 0 0 0 .591-.492c.24-.298.362-.597.373-.918.08-.056.162-.122.255-.21.278-.263.36-.614.362-1.09a1.24 1.24 0 0 0 .188-.242c.154-.257.35-.906.226-1.294.317-.414.51-1.003.36-1.5l-.016-.05c.153-.347.24-.725.12-1.138-.022-.078-.05-.158-.09-.24l.04-.114a.73.73 0 0 0 .031-.13c.016-.1.023-.22.018-.34l-.005-.088-.016-.132-.005-.03c-.001-.01-.004-.018-.005-.027l-.01-.047c-.013-.052-.026-.1-.04-.124a.32.32 0 0 0-.024-.049c-.01-.02-.02-.033-.028-.045-.15.058-.245.326-.537.52l-.246.172-.44.317-.035.023c-.085.058-.154.11-.21.162-.014-.317-.045-.638-.15-.89-.217-.533-.353-.85-.614-1.3l-.054-.093-.067-.112c-.247-.417-.6-.987-.926-1.277.257-.136.62-.23.97-.063.086.042.157.108.213.186.132.184.18.438.154.637a.65.65 0 0 0 .08-.03l.025-.013.052-.028.03-.02.044-.03.033-.025c.006-.006.013-.01.02-.016s.014-.013.022-.02.017-.015.026-.023l.064-.064.056-.065c.01-.01.017-.02.025-.03l.03-.04.025-.036.026-.04.023-.036.027-.05.03-.06.02-.04.017-.04.014-.037.014-.04.01-.037.01-.038.013-.065.003-.035.002-.034c.001-.012.001-.023 0-.033l-.002-.032-.004-.03-.01-.036a1.05 1.05 0 0 0-.279-.426c.31-.158.72-.624.685-1.445l.046-.094.012-.026a.31.31 0 0 1 .014-.032l.022-.052.03-.078c.046-.132.07-.285.088-.425l.008-.065c.01-.106-.01-.346-.04-.53l-.025-.147c.036-.1.06-.19.07-.252.02-.147.03-.3.02-.455-.016-.236-.08-.472-.217-.68-.037-.053-.072-.1-.112-.142l.005-.072c0-.56-.13-1.08-.546-1.277.005.97-.75 1.43-.934 2.37-.107-.165-.268-.305-.453-.382-.007-.003-.013-.005-.02-.007l-.052-.02c-.02-.007-.043-.012-.064-.017-.032-.008-.055-.01-.08-.015s-.04-.004-.056-.004c-.008 0-.016-.002-.024-.002h-.03-.046a.8.8 0 0 0-.234.056 1.19 1.19 0 0 0-.348.199c-.118.1-.208.235-.298.43-.122.274.16.177.297.163.957-.12.638 1.163.554 1.326-.124.24-.22.416-.398.63a4.48 4.48 0 0 1-.326.351l-.065.064-.156.152-.09.1-.06.06a3.79 3.79 0 0 1-.71-1.1c-.107-.257-.177-.523-.183-.777l-.001-.1c.004-.215.057-.368.184-.5l.027-.026.027-.022.027-.018.028-.015.03-.01.038-.01.03-.004.03-.002.035.001.04.005.033.008.04.01c.014.004.022.008.03.01l.034.012.034.015.03.014.037.016.026.01c.006.003.013.007.02.01l.024.01.022.006c.01.003.016.004.02.005.023-.001.027-.003.032-.005-.082-.148-.13-.44-.362-.643-.098-.086-.23-.156-.412-.19-.38-.07-.676.074-.873.295-.06.063-.12.16-.17.248-.007-.01-.008-.024-.01-.04l-.015-.13-.01-.066c-.056-.332-.24-.642-.3-.894l-.02-.08-.036-.183c-.024-.14-.04-.288-.037-.436.005-.2.013-.644.11-.873l-.118.083a1.49 1.49 0 0 0-.574.788l-.05.17c-.363.352-.675.913-.6 1.54.007.06.02.125.04.19-.025.034-.048.07-.067.1-.15.302-.135.77-.056 1.06l.035.106c.034.087.084.172.145.252a1.96 1.96 0 0 0-.044.205c-.043.282.005.466.056.635.02.067.054.135.102.2l.05.066.024.027.034.037c.067.067.136.123.21.17-.353.09-.42.36-.4.73a.64.64 0 0 0 .014.08 1.17 1.17 0 0 0 .127.314c.04.07.085.137.134.192.03.033.142.132.25.213.057.043.107.078.145.097s.064.025.064.003l-.005-.203c-.002-.186.018-.378.2-.494.02-.014.043-.028.068-.04a.51.51 0 0 1 .122-.034c.12-.02.272-.018.393-.005l.105.018c.195.048.44.25.543.33l-.454.644-.517.83-.03.055c-.135.247-.375.782-.543 1.28l-.012.037-.012.04-.062.206-.034.13-.04.183c-.28-.3-.42-.29-.748-.45a1.29 1.29 0 0 1-.202-.122h-.001l-.047-.037-.04-.038c-.08-.08-.114-.147-.148-.2l-.013-.016a.07.07 0 0 0-.016-.014l-.018-.012c-.013-.006-.017-.007-.02-.008-.022.013-.026.03-.03.048l-.01.04-.015.062a.36.36 0 0 1-.008.035l-.012.05-.04.16-.05.24-.017.147-.002.08.002.077.008.078.014.088.018.08.028.095a1 1 0 0 0 .078.189c-.074.135-.12.393-.126.556-.01.206.08.452.205.65l.05.075c-.054.14-.1.327-.097.507.001.066.008.13.023.194.024.097.047.177.077.25a.77.77 0 0 0 .071.14.9.9 0 0 0 .084.111c.007.008.017.016.025.024a.9.9 0 0 0 .083.074c-.014.178-.014.318-.004.445l.014.135.013.077.052.227c.08.254.173.405.37.554-.015.247.01.428.068.582l.047.113c.15.34.325.59.464.67l.04.02.024.012a1.35 1.35 0 0 0 .105.314 1.55 1.55 0 0 0 .194.314l.1.124a1.37 1.37 0 0 0 .33.303l.305.15c.124.37.565 1.075 1.058 1.132a1.44 1.44 0 0 1-.004.322l-.002.02c-.033.23-.125.428-.264.543s-.32.143-.536.045c-.11-.05-.23-.133-.356-.256l-.28-.3c-.195-.23-.363-.47-.5-.68l-.016-.026c-.142-.225-.6-1.07-.69-1.243l-.026-.05-.812-1.575-.76-1.736c-.12-.278-.306-.59-.435-.88l-.074-.18c.19.016.384.008.592-.02a.18.18 0 0 0-.02-.051c-.054-.097-.193-.203-.296-.297a.67.67 0 0 1-.096-.1c-.17-.256-.348-.635-.48-.85.015-.012.03-.026.044-.04l.045-.05.1-.126.09-.15.03-.058c.004-.01.01-.018.014-.027l.026-.054.02-.042.023-.05.02-.048.02-.047.026-.068.015-.043.026-.074.01-.032.018-.063.007-.028.016-.067.017-.096c.03-.282.096-1.11 0-1.32.167.086.32.214.515.297.052.022.108.04.165.053l.044.01.162.028.083.01c.1.01.18.015.27.01.02-.002.043-.006.07-.01.102-.02.237-.064.275-.117-.007-.057-.06-.1-.13-.128l-.052-.018c-.167-.043-.215-.114-.267-.193-.048-.07-.115-.188-.16-.3l-.026-.07-.018-.053c-.075-.22-.234-.632-.327-.82.017-.202.087-.233.117-.378a1.55 1.55 0 0 0 .009-.378 1.11 1.11 0 0 0-.052-.241l-.044-.125c.01-.02.018-.04.026-.06a1.4 1.4 0 0 0 .082-.755l-.034-.165a.29.29 0 0 0-.04-.09c-.036-.056-.084-.11-.122-.16-.001-.02-.003-.028-.002-.035 0-.02.016-.04.11-.093.02-.012.053-.033.088-.057.065-.047.137-.107.166-.15l.022-.03c.032-.043.068-.092.08-.142.052-.243.074-.326.082-.52.01-.163-.02-.33-.04-.5v.012c-.015.052-.136.21-.168.244-.06.06-.132.14-.236.145a2.02 2.02 0 0 1-.323-.012c-.137-.018-.243-.052-.326-.097a.6.6 0 0 1-.151-.114c.148-.106.22-.238.285-.336.096-.146.118-.45.1-.753-.01-.127-.027-.253-.05-.367l-.032-.153c-.023-.097-.048-.18-.072-.242s-.054-.1-.1-.125c-.08-.057-.19-.042-.295-.02a1.61 1.61 0 0 0-.444.153l-.12-.1c-.828-.85-3.7.08-3.7.08zm9.93 11.64c-.15-.168-.24-.265-.296-.278-.072-.017-.088.106-.097.4-.013.454-.345.96-.493 1.467l-.01.028c-.712-1.64-.942-2.34-1.025-2.853l-.014-.1c-.02-.162-.044-.445-.04-.58.017-.476.043-.837.122-1.225.157-.78.642-1.82 1.144-2.44l.416-.472a2.98 2.98 0 0 1 .391.43c.7.93 1.022 2.33 1.044 3.596.014.907-.13 1.546-.245 2.254-.05.295-.162 1.106-.297 1.455.001-.56-.266-1.303-.602-1.682zm-10.223-9.114c.01-.082.018-.174.04-.232l.112-.18c.06-.016.12-.027.182-.03l.08-.001.02.002.044.005a.17.17 0 0 1 .022.004l.037.01c.007.001.014.004.02.006.012.004.024.01.036.015l.056.03c.022.014.035.025.05.037l.037.038.032.043.01.018.017.03.01.02.015.036c.013.034.018.052.023.07l.013.06.004.023.005.04c0 .008.001.016.002.024l.002.035.001.055-.001.03-.006.085c.014.084.124.107.13.233.002.03-.002.063-.014.105-.07-.066-.146-.117-.227-.158-.23-.115-.498-.14-.768-.137l.014-.313zm-5.417 4.13c-.028-.02-.048-.044-.06-.074l.06.074z" fill="#ffc107"/><path d="M612.883 122.364c-.022.084-.06.128-.135.26s-.236.22-.358.344c-.174.163-.2.42.057.57.462.264.75-.972.436-1.175zm-3.134-.46c.092.114.3.42.332.746.01.177.266.376.47.287.415-.172.28-.495.027-.76a1.05 1.05 0 0 0-.576-.288c-.05-.004-.162-.013-.254.014zm-1.305 2.58a.99.99 0 0 1 .284-.24c.187-.097.393-.155.628-.036.166.1.236.164.232.372-.01.168-.096.238-.222.287-.223.084-.32.004-.498-.098a7.5 7.5 0 0 1-.424-.286zm1.384 3.03a1.52 1.52 0 0 0 .571.23c.275.044.56-.01.6-.433.008-.075-.026-.12-.066-.177s-.114-.07-.188-.083a.46.46 0 0 0-.209.009c-.07.018-.127.053-.157.1a.79.79 0 0 1-.3.256 1.05 1.05 0 0 1-.24.097zm-1.135 6.112c.044.057.057.026.184.27.07.128.104.27.213.407.15.185.515.256.6-.04.2-.768-.865-.666-.987-.635zm3.793 4.066c.127-.035.297-.02.46-.278.144-.234.218-.587-.114-.742a.29.29 0 0 0-.218-.008c-.06.017-.092.07-.135.132s-.053.124-.048.195a.48.48 0 0 0 .03.189c.04.12.036.257.036.384-.002.14-.002.067-.01.128zm-3.073.738c.017-.067.035-.093.183-.318.083-.12.24-.204.306-.363.083-.225-.066-.57-.345-.5-.72.2-.222 1.087-.144 1.17zm-2-1.793a1.38 1.38 0 0 1 .8-.163c.205.013.5-.16.45-.38-.07-.43-.436-.495-.75-.314a1.32 1.32 0 0 0-.458.566 1.13 1.13 0 0 0-.04.291zm3.693 5.012c.056.287.04.168.048.335.004.124.008.2-.013.46s.362.57.602.327c.576-.584-.45-1.087-.637-1.122zm-2.03 1.912c.253.018.397.062.676.265.153.114.454.132.528-.058.153-.362-.1-.57-.436-.582a1.24 1.24 0 0 0-.646.22c-.03.027-.078.08-.122.155zm1.288 2.672c.07-.054.1-.062.318-.177.13-.066.3-.084.427-.212.166-.172.15-.557-.14-.592-.74-.097-.62.892-.606.98zm2.6.742a.74.74 0 0 0 .52-.274c.183-.212.35-.53.048-.737-.074-.05-.188-.04-.262-.022-.065.017-.096.057-.148.105a.3.3 0 0 0-.079.186.55.55 0 0 0 0 .194c.022.124-.004.26-.027.384-.025.137-.02.084-.05.164zm5.6 2.455c.262-.04.222-.022.375-.005.135.014.16.106.423.15.25.048.625-.385.37-.583-.445-.35-1.112.15-1.17.437zm.925 2.685c.114-.23.258-.354.528-.553.2-.154.245-.34.127-.5-.2-.3-.558-.14-.72.185-.08.16-.096.517-.048.7a1.12 1.12 0 0 0 .113.19zm2.5-.124c.026-.093.083-.146.2-.34.083-.128.218-.212.23-.4.018-.238-.3-.5-.532-.366-.545.33.03 1.016.092 1.095zm2.418-2.146c.1-.128.144-.182.16-.477.013-.283-.122-.6-.5-.574-.082.008-.175.088-.222.15-.04.053-.035.102-.044.177-.01.07.018.132.053.2s.104.062.166.092c.1.053.135.084.218.22.044.075.105.14.157.22zm-5.517-23.11a.19.19 0 0 1-.206.144c-.033 0-.068 0-.106-.003l-.136-.1c-.134-.087-.082-.025-.277-.22a.54.54 0 0 0-.059-.05l.25.025c.073.007.45.12.535.213zm-1.118-.23c-.85.075-1.65.092-2-.435-.116-.174-.125-.262-.134-.494-.035.025-.216.165-.246.335-.02.134-.04.266.026.424.056.142.082.166.143.232.112.13.324.245.5.295.333.095.635.083.933.062l.82-.095.023-.33-.057.007z" fill="#e6332a"/><path d="M618.15 126.744l-.11-.12c-.008-.013-.04-.06-.06-.047s-.016.176-.01.28a1.07 1.07 0 0 1 .267-.006l-.086-.107zm-.553-.885l-.002.046c-.002.04.004.077.036.113.04.038.095.115.147.157s.064.004.065-.055c.002-.037-.001-.08-.001-.1.003-.064.02-.186.04-.275l-.286.124z" class="G"/></g><path d="M668.717 169.9L667 171.4l-1.717-1.5c-14.442-12.6-21.783-23.62-21.783-33.3 0-13.707 10.698-23.5 23.5-23.5s23.5 9.793 23.5 23.5c0 9.68-7.34 20.7-21.783 33.3z" class="B C"/><mask id="D" mask-type="alpha" maskUnits="userSpaceOnUse" x="649" y="119" width="37" height="37"><circle cx="667.5" cy="137.1" r="18" class="D"/></mask><g mask="url(#D)"><path d="M694.98 131.136h-55.02v11.928h55.02v-11.928z" fill="#d80027"/><path d="M639.96 119.96a.86.86 0 0 1 .86-.86h53.3a.86.86 0 0 1 .86.86v11.176h-55.02V119.96z" fill="#1e1e1e"/><path d="M694.98 154.24a.86.86 0 0 1-.86.859h-53.3a.86.86 0 0 1-.86-.859v-11.177h55.02v11.177z" fill="#ffda44"/></g><g class="C"><path d="M725.6 136.2h-3.8l-4.4-2.2-2.1-.7-3.7 1-.2 4.6-3.6.1-4.4-4.5-4 2.1-1.7 3.7.5 4.5 5-1.9 7.9.4 4.4-.6.9 1.3 2.5.4 5 2.9 2.6-1 4.6-2.3-2.1-3.6-1-2.8-2.4-1.4z" stroke="#fff" class="E F"/><path d="M715.717 137.9L714 139.4l-1.717-1.5c-14.442-12.6-21.783-23.62-21.783-33.3 0-13.706 10.698-23.5 23.5-23.5s23.5 9.793 23.5 23.5c0 9.68-7.34 20.7-21.783 33.3z" class="B"/></g><mask id="E" mask-type="alpha" maskUnits="userSpaceOnUse" x="695" y="86" width="37" height="37"><circle cx="713.5" cy="104.1" r="18" class="D"/></mask><g mask="url(#E)"><path d="M741.666 123.303h-54.808a.98.98 0 0 1-.979-.979V87.08a.98.98 0 0 1 .979-.979h54.808a.98.98 0 0 1 .979.979v35.245a.98.98 0 0 1-.979.979z" fill="#c8414b"/><path d="M740.228 100.933h-53.546v6.462h53.546v-6.462z" class="G"/></g></svg>