<svg width="1913" height="590" viewBox="0 0 1913 590" fill="none" xmlns="http://www.w3.org/2000/svg">
<g opacity="0.6">
<path d="M1825.72 112.128L1882.84 114.333L1908.08 143.98L1876.22 171.442L1819.11 169.237L1793.84 139.57L1825.72 112.128Z" fill="#EFF0F3"/>
<path d="M121.729 127.78L178.847 129.986L204.082 159.651L172.23 187.113L115.111 184.908L89.8453 155.241L121.729 127.78Z" fill="#EFF0F3"/>
<path d="M301.75 134.731L358.868 136.936L384.103 166.602L352.25 194.063L295.132 191.858L269.866 162.192L301.75 134.731Z" fill="#EFF0F3"/>
<path opacity="0.2" d="M481.771 141.68L538.889 143.885L564.124 173.551L532.271 201.012L475.153 198.807L449.887 169.14L481.771 141.68Z" fill="#EFF0F3"/>
<path d="M1674.8 133.257L1731.92 135.462L1757.16 165.109L1725.3 192.571L1668.19 190.366L1642.92 160.699L1674.8 133.257Z" fill="#EFF0F3"/>
<path d="M294.797 194.745L351.916 196.95L377.153 226.598L345.3 254.059L288.182 251.854L262.916 222.187L294.797 194.745Z" fill="#EFF0F3"/>
<path d="M474.818 201.695L531.936 203.9L557.173 233.548L525.321 261.009L468.202 258.804L442.936 229.137L474.818 201.695Z" fill="#EFF0F3"/>
<path d="M654.839 208.644L711.957 210.849L737.194 240.497L705.342 267.959L648.223 265.753L622.957 236.087L654.839 208.644Z" fill="#EFF0F3"/>
<path d="M194.361 281.263L251.479 283.469L276.716 313.116L244.862 340.596L187.743 338.39L162.479 308.706L194.361 281.263Z" fill="#EFF0F3"/>
<path opacity="0.4" d="M287.847 254.741L344.965 256.947L370.202 286.594L338.349 314.056L281.231 311.851L255.965 282.184L287.847 254.741Z" fill="#EFF0F3"/>
<path d="M664.518 517.103L721.636 519.308L746.873 548.956L715.02 576.418L657.902 574.212L632.636 544.546L664.518 517.103Z" fill="#EFF0F3"/>
<path d="M1827.23 344.545L1884.35 346.75L1909.59 376.397L1877.73 403.859L1820.62 401.654L1795.35 371.987L1827.23 344.545Z" fill="#EFF0F3"/>
<path opacity="0.2" d="M280.898 314.737L338.016 316.942L363.249 346.625L331.398 374.069L274.28 371.864L249.012 342.215L280.898 314.737Z" fill="#EFF0F3"/>
<path d="M460.917 321.686L518.036 323.891L543.269 353.575L511.418 381.019L454.3 378.813L429.032 349.165L460.917 321.686Z" fill="#EFF0F3"/>
<path d="M820.959 335.587L878.077 337.792L903.31 367.475L871.46 394.919L814.341 392.714L789.073 363.065L820.959 335.587Z" fill="#EFF0F3"/>
<path d="M964.611 371.283L989.845 400.948L957.995 428.392L900.877 426.186L875.609 396.538L907.492 369.077L964.611 371.283Z" fill="#EFF0F3"/>
<path d="M258.324 448.73L315.442 450.935L340.677 480.6L308.827 508.044L251.708 505.839L226.44 476.19L258.324 448.73Z" fill="#EFF0F3"/>
<path d="M633.987 388.652L691.105 390.857L716.34 420.522L684.49 447.966L627.371 445.761L602.103 416.112L633.987 388.652Z" fill="#EFF0F3"/>
<path d="M784.59 364.333L809.825 393.999L777.974 421.442L720.856 419.237L695.588 389.588L727.472 362.128L784.59 364.333Z" fill="#EFF0F3"/>
<path d="M604.571 357.383L629.806 387.048L597.955 414.492L540.837 412.287L515.569 382.638L547.453 355.177L604.571 357.383Z" fill="#EFF0F3"/>
<path d="M424.549 350.433L449.783 380.098L417.933 407.542L360.815 405.337L335.547 375.688L367.43 348.228L424.549 350.433Z" fill="#EFF0F3"/>
<path opacity="0.7" d="M611.521 297.369L636.758 327.017L604.904 354.497L547.785 352.291L522.521 322.607L554.403 295.164L611.521 297.369Z" fill="#EFF0F3"/>
<path d="M431.502 290.419L456.739 320.066L424.884 347.546L367.766 345.341L342.502 315.656L374.383 288.214L431.502 290.419Z" fill="#EFF0F3"/>
<path d="M187.411 341.278L244.529 343.483L269.764 373.149L237.913 400.592L180.795 398.387L155.527 368.738L187.411 341.278Z" fill="#EFF0F3"/>
<path d="M1041.02 588.418L983.902 586.212L958.634 556.564L990.518 529.103L1047.64 531.308L1072.87 560.974L1041.02 588.418Z" fill="#EFF0F3"/>
<path d="M471.636 477.308L496.873 506.956L465.02 534.418L407.902 532.212L382.636 502.546L414.517 475.103L471.636 477.308Z" fill="#EFF0F3"/>
<path d="M625.422 177.377L650.659 207.025L618.807 234.486L561.688 232.281L536.422 202.615L568.304 175.172L625.422 177.377Z" fill="#EFF0F3"/>
<path d="M60.5177 461.103L117.636 463.308L142.873 492.956L111.02 520.418L53.9021 518.212L28.6361 488.546L60.5177 461.103Z" fill="#EFF0F3"/>
<path d="M145.52 203.103L202.638 205.308L227.875 234.956L196.02 262.436L138.902 260.23L113.638 230.546L145.52 203.103Z" fill="#EFF0F3"/>
<path d="M272.333 103.463L297.568 133.128L265.715 160.59L208.597 158.385L183.331 128.718L215.214 101.258L272.333 103.463Z" fill="#EFF0F3"/>
<path d="M92.3108 96.512L117.546 126.178L85.6931 153.639L28.5748 151.434L3.30882 121.767L35.1925 94.3069L92.3108 96.512Z" fill="#EFF0F3"/>
<path d="M465.518 42.1032L522.636 44.3084L547.873 73.956L516.02 101.418L458.902 99.2124L433.636 69.5457L465.518 42.1032Z" fill="#EFF0F3"/>
<path d="M424.549 350.433L449.783 380.098L417.933 407.542L360.815 405.337L335.547 375.688L367.43 348.228L424.549 350.433Z" fill="#EFF0F3"/>
<path d="M1174.02 521.436L1116.9 519.23L1091.64 489.546L1123.52 462.103L1180.64 464.308L1205.87 493.956L1174.02 521.436Z" fill="#EFF0F3"/>
<path d="M93.9247 367.8L151.043 370.006L176.278 399.671L144.428 427.115L87.3091 424.91L62.0411 395.261L93.9247 367.8Z" fill="#EFF0F3"/>
<path opacity="0.5" d="M452.353 110.413L477.588 140.078L445.735 167.54L388.617 165.335L363.351 135.668L395.234 108.208L452.353 110.413Z" fill="#EFF0F3"/>
<path d="M458.342 263.124L515.461 265.329L540.698 294.977L508.845 322.438L451.727 320.233L426.461 290.566L458.342 263.124Z" fill="#EFF0F3"/>
<path d="M804.482 397.034L861.601 399.24L886.836 428.905L854.985 456.349L797.867 454.144L772.599 424.495L804.482 397.034Z" fill="#EFF0F3"/>
<path d="M1826.46 275.131L1883.58 277.336L1908.82 307.002L1876.97 334.445L1819.85 332.24L1794.58 302.591L1826.46 275.131Z" fill="#EFF0F3"/>
<path d="M782.018 305.752L807.255 335.4L775.4 362.879L718.282 360.674L693.018 330.99L724.899 303.547L782.018 305.752Z" fill="#EFF0F3"/>
<path d="M84.3983 369.235L141.517 371.44L166.752 401.105L134.901 428.549L77.7827 426.344L52.5147 396.695L84.3983 369.235Z" fill="#EFF0F3"/>
<path d="M1351.21 127.219L1406.91 129.37L1431.52 158.303L1400.46 185.086L1344.75 182.936L1320.11 154.001L1351.21 127.219Z" stroke="#D0D4DA" stroke-width="2"/>
<path d="M686.561 159.674L717.657 132.891L773.364 135.042L797.975 163.975L766.909 190.759L711.203 188.608L686.561 159.674Z" stroke="#D0D4DA" stroke-width="2"/>
<path d="M1046.6 173.574L1077.7 146.791L1133.41 148.942L1158.02 177.875L1126.95 204.658L1071.24 202.508L1046.6 173.574Z" stroke="#D0D4DA" stroke-width="2"/>
<path d="M1226.62 180.524L1257.72 153.742L1313.43 155.893L1338.04 184.826L1306.97 211.609L1251.27 209.459L1226.62 180.524Z" stroke="#D0D4DA" stroke-width="2"/>
<path d="M859.631 226.62L890.725 199.856L946.432 202.006L971.045 230.922L939.979 257.705L884.273 255.554L859.631 226.62Z" stroke="#D0D4DA" stroke-width="2"/>
<path d="M1039.65 233.571L1070.75 206.806L1126.45 208.957L1151.07 237.872L1120 264.656L1064.3 262.505L1039.65 233.571Z" stroke="#D0D4DA" stroke-width="2"/>
<path d="M1393.62 460.256L1449.32 462.407L1473.94 491.322L1442.87 518.105L1387.16 515.955L1362.52 487.021L1393.62 460.256Z" stroke="#D0D4DA" stroke-width="2"/>
<path d="M1130.21 417.895L1099.15 444.661L1043.44 442.51L1018.8 413.594L1049.89 386.812L1105.6 388.963L1130.21 417.895Z" stroke="#D0D4DA" stroke-width="2"/>
<path d="M1230.65 331.34L1199.58 358.141L1143.88 355.99L1119.24 327.038L1150.33 300.274L1206.04 302.424L1230.65 331.34Z" stroke="#D0D4DA" stroke-width="2"/>
<path d="M977.262 233.329L1032.97 235.48L1057.58 264.395L1026.52 291.178L970.81 289.028L946.168 260.093L977.262 233.329Z" stroke="#D0D4DA" stroke-width="2"/>
<path d="M797.239 226.378L852.946 228.529L877.559 257.444L846.494 284.227L790.787 282.077L766.145 253.143L797.239 226.378Z" stroke="#D0D4DA" stroke-width="2"/>
<path d="M1310.23 424.846L1279.17 451.611L1223.46 449.461L1198.82 420.544L1229.92 393.762L1285.62 395.913L1310.23 424.846Z" stroke="#D0D4DA" stroke-width="2"/>
<path d="M1324.14 304.818L1293.07 331.601L1237.37 329.45L1212.72 300.516L1243.82 273.752L1299.52 275.902L1324.14 304.818Z" stroke="#D0D4DA" stroke-width="2"/>
<path d="M1331.09 244.822L1300.02 271.605L1244.31 269.454L1219.67 240.52L1250.77 213.756L1306.47 215.906L1331.09 244.822Z" stroke="#D0D4DA" stroke-width="2"/>
<path opacity="0.3" d="M1164.23 180.284L1219.94 182.434L1244.55 211.349L1213.49 238.133L1157.78 235.982L1133.14 207.048L1164.23 180.284Z" stroke="#D0D4DA" stroke-width="2"/>
<path d="M804.19 166.382L859.897 168.533L884.51 197.448L853.444 224.231L797.738 222.081L773.096 193.147L804.19 166.382Z" stroke="#D0D4DA" stroke-width="2"/>
<path d="M1403.72 398.322L1372.65 425.088L1316.95 422.937L1292.3 394.021L1323.4 367.239L1379.11 369.389L1403.72 398.322Z" stroke="#D0D4DA" stroke-width="2"/>
<path d="M1410.67 338.291L1379.61 365.093L1323.9 362.942L1299.26 333.99L1330.35 307.225L1386.06 309.376L1410.67 338.291Z" stroke="#D0D4DA" stroke-width="2"/>
<path d="M1417.62 278.294L1386.56 305.078L1330.85 302.927L1306.21 273.993L1337.3 247.228L1393.01 249.379L1417.62 278.294Z" stroke="#D0D4DA" stroke-width="2"/>
<path d="M1171.18 120.269L1226.89 122.42L1251.5 151.353L1220.44 178.136L1164.73 175.985L1140.09 147.051L1171.18 120.269Z" stroke="#D0D4DA" stroke-width="2"/>
<path d="M991.163 113.319L1046.87 115.469L1071.48 144.402L1040.42 171.186L984.709 169.035L960.067 140.101L991.163 113.319Z" stroke="#D0D4DA" stroke-width="2"/>
<path d="M631.122 99.4178L686.828 101.568L711.44 130.502L680.374 157.285L624.667 155.134L600.025 126.2L631.122 99.4178Z" stroke="#D0D4DA" stroke-width="2"/>
<path d="M1490.25 431.796L1459.19 458.562L1403.48 456.411L1378.84 427.494L1409.94 400.712L1465.64 402.863L1490.25 431.796Z" stroke="#D0D4DA" stroke-width="2"/>
<path d="M1497.21 371.799L1466.14 398.565L1410.43 396.415L1385.79 367.498L1416.89 340.698L1472.6 342.849L1497.21 371.799Z" stroke="#D0D4DA" stroke-width="2"/>
<path d="M1816.11 89.5945L1785.05 116.378L1729.34 114.227L1704.7 85.2931L1735.79 58.5286L1791.5 60.6793L1816.11 89.5945Z" stroke="#D0D4DA" stroke-width="2"/>
<path d="M1511.11 251.772L1480.04 278.556L1424.34 276.405L1399.69 247.471L1430.79 220.706L1486.5 222.857L1511.11 251.772Z" stroke="#D0D4DA" stroke-width="2"/>
<path d="M1518.06 191.775L1486.99 218.559L1431.29 216.408L1406.64 187.474L1437.74 160.692L1493.45 162.842L1518.06 191.775Z" stroke="#D0D4DA" stroke-width="2"/>
<path d="M1583.74 405.273L1552.68 432.039L1496.97 429.888L1472.33 400.971L1503.42 374.189L1559.13 376.34L1583.74 405.273Z" stroke="#D0D4DA" stroke-width="2"/>
<path d="M1846.34 212.121L1815.27 238.923L1759.57 236.772L1734.93 207.82L1766.02 181.055L1821.73 183.206L1846.34 212.121Z" stroke="#D0D4DA" stroke-width="2"/>
<path d="M1597.64 285.245L1566.58 312.028L1510.87 309.878L1486.23 280.944L1517.32 254.179L1573.03 256.33L1597.64 285.245Z" stroke="#D0D4DA" stroke-width="2"/>
<path d="M1604.59 225.249L1573.53 252.032L1517.82 249.882L1493.18 220.947L1524.27 194.183L1579.98 196.334L1604.59 225.249Z" stroke="#D0D4DA" stroke-width="2"/>
<path d="M1611.54 165.252L1580.48 192.036L1524.77 189.885L1500.13 160.951L1531.23 134.169L1586.93 136.319L1611.54 165.252Z" stroke="#D0D4DA" stroke-width="2"/>
<path d="M1804.14 1.83577L1859.85 3.98643L1884.46 32.9195L1853.4 59.703L1797.69 57.5523L1773.05 28.6181L1804.14 1.83577Z" stroke="#D0D4DA" stroke-width="2"/>
<path d="M1226.62 180.524L1257.72 153.742L1313.43 155.893L1338.04 184.826L1306.97 211.609L1251.27 209.459L1226.62 180.524Z" stroke="#D0D4DA" stroke-width="2"/>
<path opacity="0.3" d="M977.262 233.329L1032.97 235.48L1057.58 264.395L1026.52 291.178L970.81 289.028L946.168 260.093L977.262 233.329Z" stroke="#D0D4DA" stroke-width="2"/>
<path d="M1310.23 424.846L1279.17 451.611L1223.46 449.461L1198.82 420.544L1229.92 393.762L1285.62 395.913L1310.23 424.846Z" stroke="#D0D4DA" stroke-width="2"/>
<path d="M804.19 166.382L859.897 168.533L884.51 197.448L853.444 224.231L797.738 222.081L773.096 193.147L804.19 166.382Z" stroke="#D0D4DA" stroke-width="2"/>
<path opacity="0.2" d="M631.122 99.4178L686.828 101.568L711.44 130.502L680.374 157.285L624.667 155.134L600.025 126.2L631.122 99.4178Z" stroke="#D0D4DA" stroke-width="2"/>
<path d="M1518.06 191.775L1486.99 218.559L1431.29 216.408L1406.64 187.474L1437.74 160.692L1493.45 162.842L1518.06 191.775Z" stroke="#D0D4DA" stroke-width="2"/>
<path d="M1583.74 405.273L1552.68 432.039L1496.97 429.888L1472.33 400.971L1503.42 374.189L1559.13 376.34L1583.74 405.273Z" stroke="#D0D4DA" stroke-width="2"/>
<path d="M1604.59 225.249L1573.53 252.032L1517.82 249.882L1493.18 220.947L1524.27 194.183L1579.98 196.334L1604.59 225.249Z" stroke="#D0D4DA" stroke-width="2"/>
<path d="M1127.64 359.332L1096.57 386.098L1040.87 383.947L1016.22 355.031L1047.32 328.231L1103.03 330.381L1127.64 359.332Z" stroke="#D0D4DA" stroke-width="2"/>
<path opacity="0.2" d="M960.785 294.758L1016.49 296.909L1041.11 325.824L1010.04 352.625L954.331 350.475L929.691 321.523L960.785 294.758Z" stroke="#D0D4DA" stroke-width="2"/>
<path d="M1363.35 530.314L1332.28 557.079L1276.58 554.929L1251.93 526.012L1283.03 499.212L1338.74 501.363L1363.35 530.314Z" stroke="#D0D4DA" stroke-width="2"/>
</g>
</svg>
