<svg width="55" height="88" viewBox="0 0 55 88" fill="none" xmlns="http://www.w3.org/2000/svg">
<path d="M28.2189 0C36.2769 0 42.7549 2.11765 47.6529 6.35294C52.5509 10.5882 55 16.5882 55 24.3529C55 32.1961 52.472 38.1961 47.4159 42.3529C42.4389 46.5098 35.7239 48.6667 27.2709 48.8235V60.7059H11.5104V38H18.2649C24.6639 38 29.6409 37.0588 33.1959 35.1765C36.7509 33.2157 38.5284 29.6471 38.5284 24.4706C38.5284 21.0196 37.5409 18.3529 35.5659 16.4706C33.5909 14.5098 30.9444 13.5294 27.6264 13.5294C23.9924 13.5294 21.1088 14.5882 18.9758 16.7059C16.8428 18.7451 15.7764 21.4118 15.7764 24.7059H0.0158C-0.1422 20 0.884802 15.8039 3.09681 12.1176C5.30882 8.35294 8.5478 5.41177 12.8138 3.29412C17.1588 1.09804 22.2938 0 28.2189 0ZM28.5744 70.7059V88H10.5623V70.7059H28.5744Z" fill="#DE4437"/>
</svg>
