<svg width="1353" height="1595" viewBox="0 0 1353 1595" fill="none" xmlns="http://www.w3.org/2000/svg">
<path opacity="0.2" d="M82.9998 1040.5C67 887.5 217.002 691.833 259.002 477C434.335 433.667 836.202 361.4 1041 419C1245.8 476.6 1229.67 741 1196 866C977.335 1041.33 485.3 1310.2 312.5 1293C96.4998 1271.5 94.0245 1145.93 82.9998 1040.5Z" fill="#FF5600"/>
<path d="M170.308 765.75C76.7874 529.924 192.148 262.935 427.974 169.414V169.414C663.8 75.8933 930.789 191.254 1024.31 427.08L1183.58 828.7C1277.1 1064.53 1161.74 1331.51 925.913 1425.04V1425.04C690.087 1518.56 423.099 1403.2 329.578 1167.37L170.308 765.75Z" fill="#C4C4C4"/>
<circle cx="1049" cy="1346" r="56" fill="#FF5600"/>
<ellipse cx="967" cy="1403.5" rx="17" ry="16.5" fill="#FF5600"/>
<ellipse cx="950" cy="1340.5" rx="28" ry="27.5" fill="#FF5600"/>
</svg>
